<svg width="36" height="37" viewBox="0 0 36 37" fill="none" xmlns="http://www.w3.org/2000/svg">
<path d="M18 36.1396C27.665 36.1396 35.5 28.3046 35.5 18.6397C35.5 8.97467 27.665 1.13965 18 1.13965C8.33502 1.13965 0.499999 8.97467 0.499998 18.6396C0.499997 28.3046 8.33502 36.1396 18 36.1396Z" stroke="#EBEBEB"/>
<path d="M15.2159 18.0456L19.7417 12.8859C20.0296 12.5576 20.4964 12.5576 20.7842 12.8859C21.0719 13.214 21.0719 13.7462 20.7842 14.0742L16.7795 18.6397L20.784 23.2051C21.0718 23.5333 21.0718 24.0654 20.784 24.3935C20.4963 24.7217 20.0295 24.7217 19.7416 24.3935L15.2158 19.2337C15.0719 19.0696 15 18.8547 15 18.6398C15 18.4247 15.072 18.2096 15.2159 18.0456Z" fill="#EBEBEB"/>
</svg>
