<svg width="50" height="50" viewBox="0 0 50 50" fill="none" xmlns="http://www.w3.org/2000/svg">
<path fill-rule="evenodd" clip-rule="evenodd" d="M0 24.9995C0 11.1924 11.1929 -0.000488281 25 -0.000488281C38.8071 -0.000488281 50 11.1924 50 24.9995C50 38.8066 38.8071 49.9995 25 49.9995C11.1929 49.9995 0 38.8066 0 24.9995Z" fill="#EBEBEB"/>
<path d="M29.6405 25.8641L22.0974 33.386C21.6175 33.8647 20.8396 33.8647 20.36 33.386C19.8803 32.9077 19.8803 32.1319 20.36 31.6537L27.0344 24.9979L20.3602 18.3424C19.8805 17.8639 19.8805 17.0882 20.3602 16.6099C20.8398 16.1314 21.6177 16.1314 22.0976 16.6099L29.6406 24.1319C29.8805 24.3712 30.0002 24.6844 30.0002 24.9979C30.0002 25.3114 29.8802 25.6249 29.6405 25.8641Z" fill="black"/>
</svg>
