<svg width="37" height="36" viewBox="0 0 37 36" fill="none" xmlns="http://www.w3.org/2000/svg">
<path d="M18.25 0.5C8.58502 0.5 0.75 8.33502 0.75 18C0.75 27.665 8.58502 35.5 18.25 35.5C27.915 35.5 35.75 27.665 35.75 18C35.75 8.33502 27.915 0.5 18.25 0.5Z" stroke="black"/>
<path d="M21.0341 18.5941L16.5083 23.7537C16.2204 24.0821 15.7536 24.0821 15.4658 23.7537C15.1781 23.4256 15.1781 22.8935 15.4658 22.5654L19.4705 17.9999L15.466 13.4346C15.1782 13.1063 15.1782 12.5743 15.466 12.2462C15.7537 11.9179 16.2205 11.9179 16.5084 12.2462L21.0342 17.4059C21.1781 17.57 21.25 17.7849 21.25 17.9999C21.25 18.215 21.178 18.43 21.0341 18.5941Z" fill="black"/>
</svg>
