<svg width="36" height="37" viewBox="0 0 36 37" fill="none" xmlns="http://www.w3.org/2000/svg">
<path d="M18 1.13965C8.33502 1.13965 0.5 8.97467 0.5 18.6396C0.5 28.3046 8.33502 36.1396 18 36.1396C27.665 36.1396 35.5 28.3046 35.5 18.6396C35.5 8.97467 27.665 1.13965 18 1.13965Z" stroke="#EBEBEB"/>
<path d="M20.7841 19.2337L16.2583 24.3934C15.9704 24.7217 15.5036 24.7217 15.2158 24.3934C14.9281 24.0653 14.9281 23.5331 15.2158 23.2051L19.2205 18.6396L15.216 14.0742C14.9282 13.746 14.9282 13.2139 15.216 12.8858C15.5037 12.5576 15.9705 12.5576 16.2584 12.8858L20.7842 18.0455C20.9281 18.2097 21 18.4246 21 18.6395C21 18.8546 20.928 19.0697 20.7841 19.2337Z" fill="#EBEBEB"/>
</svg>
