<svg width="50" height="50" viewBox="0 0 50 50" fill="none" xmlns="http://www.w3.org/2000/svg">
<path fill-rule="evenodd" clip-rule="evenodd" d="M50 25C50 38.8071 38.8071 50 25 50C11.1929 50 9.78513e-07 38.8071 2.18557e-06 25C3.39263e-06 11.1929 11.1929 -3.39263e-06 25 -2.18557e-06C38.8071 -9.78513e-07 50 11.1929 50 25Z" fill="#EBEBEB"/>
<path d="M20.3595 24.1354L27.9026 16.6135C28.3825 16.1348 29.1604 16.1348 29.64 16.6135C30.1197 17.0918 30.1197 17.8676 29.64 18.3459L22.9656 25.0016L29.6398 31.6572C30.1195 32.1357 30.1195 32.9114 29.6398 33.3897C29.1602 33.8682 28.3823 33.8682 27.9024 33.3897L20.3594 25.8676C20.1195 25.6283 19.9998 25.3151 19.9998 25.0017C19.9998 24.6881 20.1198 24.3746 20.3595 24.1354Z" fill="black"/>
</svg>
