<svg width="37" height="36" viewBox="0 0 37 36" fill="none" xmlns="http://www.w3.org/2000/svg">
<path d="M18.25 35.5C27.915 35.5 35.75 27.665 35.75 18C35.75 8.33502 27.915 0.500003 18.25 0.500002C8.58502 0.500001 0.749999 8.33502 0.749998 18C0.749997 27.665 8.58502 35.5 18.25 35.5Z" stroke="black"/>
<path d="M15.4659 17.4059L19.9917 12.2463C20.2796 11.9179 20.7464 11.9179 21.0342 12.2463C21.3219 12.5744 21.3219 13.1065 21.0342 13.4346L17.0295 18.0001L21.034 22.5654C21.3218 22.8937 21.3218 23.4257 21.034 23.7538C20.7463 24.0821 20.2795 24.0821 19.9916 23.7538L15.4658 18.5941C15.3219 18.43 15.25 18.2151 15.25 18.0001C15.25 17.785 15.322 17.57 15.4659 17.4059Z" fill="black"/>
</svg>
