<svg width="350" height="350" viewBox="0 0 350 350" fill="none" xmlns="http://www.w3.org/2000/svg">
<g clip-path="url(#clip0_349_36)">
<path d="M350 0H0V350H350V0Z" fill="white"/>
<path d="M132.759 24.1377H120.69V36.2067H132.759V24.1377Z" fill="black"/>
<path d="M156.897 24.1377H144.828V36.2067H156.897V24.1377Z" fill="black"/>
<path d="M168.965 24.1377H156.896V36.2067H168.965V24.1377Z" fill="black"/>
<path d="M181.035 24.1377H168.966V36.2067H181.035V24.1377Z" fill="black"/>
<path d="M205.172 24.1377H193.104V36.2067H205.172V24.1377Z" fill="black"/>
<path d="M229.31 24.1377H217.241V36.2067H229.31V24.1377Z" fill="black"/>
<path d="M132.759 36.207H120.69V48.276H132.759V36.207Z" fill="black"/>
<path d="M144.828 36.207H132.759V48.276H144.828V36.207Z" fill="black"/>
<path d="M156.897 36.207H144.828V48.276H156.897V36.207Z" fill="black"/>
<path d="M193.103 36.207H181.034V48.276H193.103V36.207Z" fill="black"/>
<path d="M205.172 36.207H193.104V48.276H205.172V36.207Z" fill="black"/>
<path d="M144.828 48.2754H132.759V60.3444H144.828V48.2754Z" fill="black"/>
<path d="M181.035 48.2754H168.966V60.3444H181.035V48.2754Z" fill="black"/>
<path d="M193.103 48.2754H181.034V60.3444H193.103V48.2754Z" fill="black"/>
<path d="M205.172 48.2754H193.104V60.3444H205.172V48.2754Z" fill="black"/>
<path d="M132.759 60.3447H120.69V72.4137H132.759V60.3447Z" fill="black"/>
<path d="M144.828 60.3447H132.759V72.4137H144.828V60.3447Z" fill="black"/>
<path d="M168.965 60.3447H156.896V72.4137H168.965V60.3447Z" fill="black"/>
<path d="M181.035 60.3447H168.966V72.4137H181.035V60.3447Z" fill="black"/>
<path d="M193.103 60.3447H181.034V72.4137H193.103V60.3447Z" fill="black"/>
<path d="M144.828 72.4131H132.759V84.4821H144.828V72.4131Z" fill="black"/>
<path d="M156.897 72.4131H144.828V84.4821H156.897V72.4131Z" fill="black"/>
<path d="M168.965 72.4131H156.896V84.4821H168.965V72.4131Z" fill="black"/>
<path d="M193.103 72.4131H181.034V84.4821H193.103V72.4131Z" fill="black"/>
<path d="M205.172 72.4131H193.104V84.4821H205.172V72.4131Z" fill="black"/>
<path d="M217.241 72.4131H205.172V84.4821H217.241V72.4131Z" fill="black"/>
<path d="M229.31 72.4131H217.241V84.4821H229.31V72.4131Z" fill="black"/>
<path d="M144.828 84.4824H132.759V96.5514H144.828V84.4824Z" fill="black"/>
<path d="M205.172 84.4824H193.104V96.5514H205.172V84.4824Z" fill="black"/>
<path d="M229.31 84.4824H217.241V96.5514H229.31V84.4824Z" fill="black"/>
<path d="M132.759 96.5518H120.69V108.621H132.759V96.5518Z" fill="black"/>
<path d="M156.897 96.5518H144.828V108.621H156.897V96.5518Z" fill="black"/>
<path d="M181.035 96.5518H168.966V108.621H181.035V96.5518Z" fill="black"/>
<path d="M205.172 96.5518H193.104V108.621H205.172V96.5518Z" fill="black"/>
<path d="M229.31 96.5518H217.241V108.621H229.31V96.5518Z" fill="black"/>
<path d="M132.759 108.62H120.69V120.689H132.759V108.62Z" fill="black"/>
<path d="M156.897 108.62H144.828V120.689H156.897V108.62Z" fill="black"/>
<path d="M168.965 108.62H156.896V120.689H168.965V108.62Z" fill="black"/>
<path d="M181.035 108.62H168.966V120.689H181.035V108.62Z" fill="black"/>
<path d="M205.172 108.62H193.104V120.689H205.172V108.62Z" fill="black"/>
<path d="M229.31 108.62H217.241V120.689H229.31V108.62Z" fill="black"/>
<path d="M36.2069 120.689H24.1379V132.758H36.2069V120.689Z" fill="black"/>
<path d="M60.3448 120.689H48.2759V132.758H60.3448V120.689Z" fill="black"/>
<path d="M72.4137 120.689H60.3447V132.758H72.4137V120.689Z" fill="black"/>
<path d="M96.5516 120.689H84.4827V132.758H96.5516V120.689Z" fill="black"/>
<path d="M108.621 120.689H96.5518V132.758H108.621V120.689Z" fill="black"/>
<path d="M120.69 120.689H108.621V132.758H120.69V120.689Z" fill="black"/>
<path d="M144.828 120.689H132.759V132.758H144.828V120.689Z" fill="black"/>
<path d="M156.897 120.689H144.828V132.758H156.897V120.689Z" fill="black"/>
<path d="M168.965 120.689H156.896V132.758H168.965V120.689Z" fill="black"/>
<path d="M181.035 120.689H168.966V132.758H181.035V120.689Z" fill="black"/>
<path d="M205.172 120.689H193.104V132.758H205.172V120.689Z" fill="black"/>
<path d="M217.241 120.689H205.172V132.758H217.241V120.689Z" fill="black"/>
<path d="M229.31 120.689H217.241V132.758H229.31V120.689Z" fill="black"/>
<path d="M253.448 120.689H241.379V132.758H253.448V120.689Z" fill="black"/>
<path d="M289.655 120.689H277.586V132.758H289.655V120.689Z" fill="black"/>
<path d="M313.793 120.689H301.724V132.758H313.793V120.689Z" fill="black"/>
<path d="M325.862 120.689H313.793V132.758H325.862V120.689Z" fill="black"/>
<path d="M36.2069 132.759H24.1379V144.828H36.2069V132.759Z" fill="black"/>
<path d="M72.4137 132.759H60.3447V144.828H72.4137V132.759Z" fill="black"/>
<path d="M84.4828 132.759H72.4138V144.828H84.4828V132.759Z" fill="black"/>
<path d="M96.5516 132.759H84.4827V144.828H96.5516V132.759Z" fill="black"/>
<path d="M120.69 132.759H108.621V144.828H120.69V132.759Z" fill="black"/>
<path d="M132.759 132.759H120.69V144.828H132.759V132.759Z" fill="black"/>
<path d="M144.828 132.759H132.759V144.828H144.828V132.759Z" fill="black"/>
<path d="M156.897 132.759H144.828V144.828H156.897V132.759Z" fill="black"/>
<path d="M168.965 132.759H156.896V144.828H168.965V132.759Z" fill="black"/>
<path d="M181.035 132.759H168.966V144.828H181.035V132.759Z" fill="black"/>
<path d="M205.172 132.759H193.104V144.828H205.172V132.759Z" fill="black"/>
<path d="M229.31 132.759H217.241V144.828H229.31V132.759Z" fill="black"/>
<path d="M265.517 132.759H253.448V144.828H265.517V132.759Z" fill="black"/>
<path d="M313.793 132.759H301.724V144.828H313.793V132.759Z" fill="black"/>
<path d="M36.2069 144.827H24.1379V156.896H36.2069V144.827Z" fill="black"/>
<path d="M84.4828 144.827H72.4138V156.896H84.4828V144.827Z" fill="black"/>
<path d="M108.621 144.827H96.5518V156.896H108.621V144.827Z" fill="black"/>
<path d="M120.69 144.827H108.621V156.896H120.69V144.827Z" fill="black"/>
<path d="M156.897 144.827H144.828V156.896H156.897V144.827Z" fill="black"/>
<path d="M168.965 144.827H156.896V156.896H168.965V144.827Z" fill="black"/>
<path d="M181.035 144.827H168.966V156.896H181.035V144.827Z" fill="black"/>
<path d="M193.103 144.827H181.034V156.896H193.103V144.827Z" fill="black"/>
<path d="M205.172 144.827H193.104V156.896H205.172V144.827Z" fill="black"/>
<path d="M229.31 144.827H217.241V156.896H229.31V144.827Z" fill="black"/>
<path d="M265.517 144.827H253.448V156.896H265.517V144.827Z" fill="black"/>
<path d="M277.586 144.827H265.517V156.896H277.586V144.827Z" fill="black"/>
<path d="M36.2069 156.896H24.1379V168.965H36.2069V156.896Z" fill="black"/>
<path d="M48.2758 156.896H36.2068V168.965H48.2758V156.896Z" fill="black"/>
<path d="M72.4137 156.896H60.3447V168.965H72.4137V156.896Z" fill="black"/>
<path d="M84.4828 156.896H72.4138V168.965H84.4828V156.896Z" fill="black"/>
<path d="M120.69 156.896H108.621V168.965H120.69V156.896Z" fill="black"/>
<path d="M132.759 156.896H120.69V168.965H132.759V156.896Z" fill="black"/>
<path d="M168.965 156.896H156.896V168.965H168.965V156.896Z" fill="black"/>
<path d="M193.103 156.896H181.034V168.965H193.103V156.896Z" fill="black"/>
<path d="M229.31 156.896H217.241V168.965H229.31V156.896Z" fill="black"/>
<path d="M241.379 156.896H229.31V168.965H241.379V156.896Z" fill="black"/>
<path d="M277.586 156.896H265.517V168.965H277.586V156.896Z" fill="black"/>
<path d="M289.655 156.896H277.586V168.965H289.655V156.896Z" fill="black"/>
<path d="M301.724 156.896H289.655V168.965H301.724V156.896Z" fill="black"/>
<path d="M48.2758 168.965H36.2068V181.034H48.2758V168.965Z" fill="black"/>
<path d="M72.4137 168.965H60.3447V181.034H72.4137V168.965Z" fill="black"/>
<path d="M108.621 168.965H96.5518V181.034H108.621V168.965Z" fill="black"/>
<path d="M144.828 168.965H132.759V181.034H144.828V168.965Z" fill="black"/>
<path d="M193.103 168.965H181.034V181.034H193.103V168.965Z" fill="black"/>
<path d="M205.172 168.965H193.104V181.034H205.172V168.965Z" fill="black"/>
<path d="M241.379 168.965H229.31V181.034H241.379V168.965Z" fill="black"/>
<path d="M253.448 168.965H241.379V181.034H253.448V168.965Z" fill="black"/>
<path d="M277.586 168.965H265.517V181.034H277.586V168.965Z" fill="black"/>
<path d="M301.724 168.965H289.655V181.034H301.724V168.965Z" fill="black"/>
<path d="M313.793 168.965H301.724V181.034H313.793V168.965Z" fill="black"/>
<path d="M325.862 168.965H313.793V181.034H325.862V168.965Z" fill="black"/>
<path d="M48.2758 181.034H36.2068V193.103H48.2758V181.034Z" fill="black"/>
<path d="M60.3448 181.034H48.2759V193.103H60.3448V181.034Z" fill="black"/>
<path d="M84.4828 181.034H72.4138V193.103H84.4828V181.034Z" fill="black"/>
<path d="M144.828 181.034H132.759V193.103H144.828V181.034Z" fill="black"/>
<path d="M168.965 181.034H156.896V193.103H168.965V181.034Z" fill="black"/>
<path d="M217.241 181.034H205.172V193.103H217.241V181.034Z" fill="black"/>
<path d="M229.31 181.034H217.241V193.103H229.31V181.034Z" fill="black"/>
<path d="M241.379 181.034H229.31V193.103H241.379V181.034Z" fill="black"/>
<path d="M253.448 181.034H241.379V193.103H253.448V181.034Z" fill="black"/>
<path d="M265.517 181.034H253.448V193.103H265.517V181.034Z" fill="black"/>
<path d="M277.586 181.034H265.517V193.103H277.586V181.034Z" fill="black"/>
<path d="M325.862 181.034H313.793V193.103H325.862V181.034Z" fill="black"/>
<path d="M48.2758 193.104H36.2068V205.172H48.2758V193.104Z" fill="black"/>
<path d="M72.4137 193.104H60.3447V205.172H72.4137V193.104Z" fill="black"/>
<path d="M108.621 193.104H96.5518V205.172H108.621V193.104Z" fill="black"/>
<path d="M132.759 193.104H120.69V205.172H132.759V193.104Z" fill="black"/>
<path d="M156.897 193.104H144.828V205.172H156.897V193.104Z" fill="black"/>
<path d="M181.035 193.104H168.966V205.172H181.035V193.104Z" fill="black"/>
<path d="M193.103 193.104H181.034V205.172H193.103V193.104Z" fill="black"/>
<path d="M205.172 193.104H193.104V205.172H205.172V193.104Z" fill="black"/>
<path d="M241.379 193.104H229.31V205.172H241.379V193.104Z" fill="black"/>
<path d="M277.586 193.104H265.517V205.172H277.586V193.104Z" fill="black"/>
<path d="M301.724 193.104H289.655V205.172H301.724V193.104Z" fill="black"/>
<path d="M313.793 193.104H301.724V205.172H313.793V193.104Z" fill="black"/>
<path d="M36.2069 205.172H24.1379V217.241H36.2069V205.172Z" fill="black"/>
<path d="M60.3448 205.172H48.2759V217.241H60.3448V205.172Z" fill="black"/>
<path d="M72.4137 205.172H60.3447V217.241H72.4137V205.172Z" fill="black"/>
<path d="M96.5516 205.172H84.4827V217.241H96.5516V205.172Z" fill="black"/>
<path d="M156.897 205.172H144.828V217.241H156.897V205.172Z" fill="black"/>
<path d="M181.035 205.172H168.966V217.241H181.035V205.172Z" fill="black"/>
<path d="M205.172 205.172H193.104V217.241H205.172V205.172Z" fill="black"/>
<path d="M253.448 205.172H241.379V217.241H253.448V205.172Z" fill="black"/>
<path d="M265.517 205.172H253.448V217.241H265.517V205.172Z" fill="black"/>
<path d="M277.586 205.172H265.517V217.241H277.586V205.172Z" fill="black"/>
<path d="M325.862 205.172H313.793V217.241H325.862V205.172Z" fill="black"/>
<path d="M72.4137 217.241H60.3447V229.31H72.4137V217.241Z" fill="black"/>
<path d="M84.4828 217.241H72.4138V229.31H84.4828V217.241Z" fill="black"/>
<path d="M108.621 217.241H96.5518V229.31H108.621V217.241Z" fill="black"/>
<path d="M120.69 217.241H108.621V229.31H120.69V217.241Z" fill="black"/>
<path d="M132.759 217.241H120.69V229.31H132.759V217.241Z" fill="black"/>
<path d="M144.828 217.241H132.759V229.31H144.828V217.241Z" fill="black"/>
<path d="M156.897 217.241H144.828V229.31H156.897V217.241Z" fill="black"/>
<path d="M168.965 217.241H156.896V229.31H168.965V217.241Z" fill="black"/>
<path d="M193.103 217.241H181.034V229.31H193.103V217.241Z" fill="black"/>
<path d="M205.172 217.241H193.104V229.31H205.172V217.241Z" fill="black"/>
<path d="M217.241 217.241H205.172V229.31H217.241V217.241Z" fill="black"/>
<path d="M229.31 217.241H217.241V229.31H229.31V217.241Z" fill="black"/>
<path d="M241.379 217.241H229.31V229.31H241.379V217.241Z" fill="black"/>
<path d="M253.448 217.241H241.379V229.31H253.448V217.241Z" fill="black"/>
<path d="M265.517 217.241H253.448V229.31H265.517V217.241Z" fill="black"/>
<path d="M277.586 217.241H265.517V229.31H277.586V217.241Z" fill="black"/>
<path d="M289.655 217.241H277.586V229.31H289.655V217.241Z" fill="black"/>
<path d="M301.724 217.241H289.655V229.31H301.724V217.241Z" fill="black"/>
<path d="M313.793 217.241H301.724V229.31H313.793V217.241Z" fill="black"/>
<path d="M325.862 217.241H313.793V229.31H325.862V217.241Z" fill="black"/>
<path d="M132.759 229.311H120.69V241.38H132.759V229.311Z" fill="black"/>
<path d="M144.828 229.311H132.759V241.38H144.828V229.311Z" fill="black"/>
<path d="M156.897 229.311H144.828V241.38H156.897V229.311Z" fill="black"/>
<path d="M181.035 229.311H168.966V241.38H181.035V229.311Z" fill="black"/>
<path d="M229.31 229.311H217.241V241.38H229.31V229.311Z" fill="black"/>
<path d="M277.586 229.311H265.517V241.38H277.586V229.311Z" fill="black"/>
<path d="M301.724 229.311H289.655V241.38H301.724V229.311Z" fill="black"/>
<path d="M325.862 229.311H313.793V241.38H325.862V229.311Z" fill="black"/>
<path d="M132.759 241.379H120.69V253.448H132.759V241.379Z" fill="black"/>
<path d="M168.965 241.379H156.896V253.448H168.965V241.379Z" fill="black"/>
<path d="M181.035 241.379H168.966V253.448H181.035V241.379Z" fill="black"/>
<path d="M193.103 241.379H181.034V253.448H193.103V241.379Z" fill="black"/>
<path d="M205.172 241.379H193.104V253.448H205.172V241.379Z" fill="black"/>
<path d="M229.31 241.379H217.241V253.448H229.31V241.379Z" fill="black"/>
<path d="M253.448 241.379H241.379V253.448H253.448V241.379Z" fill="black"/>
<path d="M277.586 241.379H265.517V253.448H277.586V241.379Z" fill="black"/>
<path d="M301.724 241.379H289.655V253.448H301.724V241.379Z" fill="black"/>
<path d="M313.793 241.379H301.724V253.448H313.793V241.379Z" fill="black"/>
<path d="M325.862 241.379H313.793V253.448H325.862V241.379Z" fill="black"/>
<path d="M132.759 253.448H120.69V265.517H132.759V253.448Z" fill="black"/>
<path d="M144.828 253.448H132.759V265.517H144.828V253.448Z" fill="black"/>
<path d="M156.897 253.448H144.828V265.517H156.897V253.448Z" fill="black"/>
<path d="M181.035 253.448H168.966V265.517H181.035V253.448Z" fill="black"/>
<path d="M217.241 253.448H205.172V265.517H217.241V253.448Z" fill="black"/>
<path d="M229.31 253.448H217.241V265.517H229.31V253.448Z" fill="black"/>
<path d="M277.586 253.448H265.517V265.517H277.586V253.448Z" fill="black"/>
<path d="M313.793 253.448H301.724V265.517H313.793V253.448Z" fill="black"/>
<path d="M325.862 253.448H313.793V265.517H325.862V253.448Z" fill="black"/>
<path d="M144.828 265.517H132.759V277.586H144.828V265.517Z" fill="black"/>
<path d="M156.897 265.517H144.828V277.586H156.897V265.517Z" fill="black"/>
<path d="M168.965 265.517H156.896V277.586H168.965V265.517Z" fill="black"/>
<path d="M181.035 265.517H168.966V277.586H181.035V265.517Z" fill="black"/>
<path d="M193.103 265.517H181.034V277.586H193.103V265.517Z" fill="black"/>
<path d="M229.31 265.517H217.241V277.586H229.31V265.517Z" fill="black"/>
<path d="M241.379 265.517H229.31V277.586H241.379V265.517Z" fill="black"/>
<path d="M253.448 265.517H241.379V277.586H253.448V265.517Z" fill="black"/>
<path d="M265.517 265.517H253.448V277.586H265.517V265.517Z" fill="black"/>
<path d="M277.586 265.517H265.517V277.586H277.586V265.517Z" fill="black"/>
<path d="M289.655 265.517H277.586V277.586H289.655V265.517Z" fill="black"/>
<path d="M313.793 265.517H301.724V277.586H313.793V265.517Z" fill="black"/>
<path d="M132.759 277.586H120.69V289.655H132.759V277.586Z" fill="black"/>
<path d="M144.828 277.586H132.759V289.655H144.828V277.586Z" fill="black"/>
<path d="M181.035 277.586H168.966V289.655H181.035V277.586Z" fill="black"/>
<path d="M193.103 277.586H181.034V289.655H193.103V277.586Z" fill="black"/>
<path d="M229.31 277.586H217.241V289.655H229.31V277.586Z" fill="black"/>
<path d="M253.448 277.586H241.379V289.655H253.448V277.586Z" fill="black"/>
<path d="M277.586 277.586H265.517V289.655H277.586V277.586Z" fill="black"/>
<path d="M289.655 277.586H277.586V289.655H289.655V277.586Z" fill="black"/>
<path d="M301.724 277.586H289.655V289.655H301.724V277.586Z" fill="black"/>
<path d="M313.793 277.586H301.724V289.655H313.793V277.586Z" fill="black"/>
<path d="M325.862 277.586H313.793V289.655H325.862V277.586Z" fill="black"/>
<path d="M132.759 289.655H120.69V301.724H132.759V289.655Z" fill="black"/>
<path d="M144.828 289.655H132.759V301.724H144.828V289.655Z" fill="black"/>
<path d="M156.897 289.655H144.828V301.724H156.897V289.655Z" fill="black"/>
<path d="M168.965 289.655H156.896V301.724H168.965V289.655Z" fill="black"/>
<path d="M181.035 289.655H168.966V301.724H181.035V289.655Z" fill="black"/>
<path d="M193.103 289.655H181.034V301.724H193.103V289.655Z" fill="black"/>
<path d="M241.379 289.655H229.31V301.724H241.379V289.655Z" fill="black"/>
<path d="M253.448 289.655H241.379V301.724H253.448V289.655Z" fill="black"/>
<path d="M277.586 289.655H265.517V301.724H277.586V289.655Z" fill="black"/>
<path d="M301.724 289.655H289.655V301.724H301.724V289.655Z" fill="black"/>
<path d="M313.793 289.655H301.724V301.724H313.793V289.655Z" fill="black"/>
<path d="M156.897 301.724H144.828V313.793H156.897V301.724Z" fill="black"/>
<path d="M217.241 301.724H205.172V313.793H217.241V301.724Z" fill="black"/>
<path d="M241.379 301.724H229.31V313.793H241.379V301.724Z" fill="black"/>
<path d="M253.448 301.724H241.379V313.793H253.448V301.724Z" fill="black"/>
<path d="M277.586 301.724H265.517V313.793H277.586V301.724Z" fill="black"/>
<path d="M301.724 301.724H289.655V313.793H301.724V301.724Z" fill="black"/>
<path d="M132.759 313.793H120.69V325.862H132.759V313.793Z" fill="black"/>
<path d="M144.828 313.793H132.759V325.862H144.828V313.793Z" fill="black"/>
<path d="M156.897 313.793H144.828V325.862H156.897V313.793Z" fill="black"/>
<path d="M181.035 313.793H168.966V325.862H181.035V313.793Z" fill="black"/>
<path d="M205.172 313.793H193.104V325.862H205.172V313.793Z" fill="black"/>
<path d="M241.379 313.793H229.31V325.862H241.379V313.793Z" fill="black"/>
<path d="M253.448 313.793H241.379V325.862H253.448V313.793Z" fill="black"/>
<path d="M265.517 313.793H253.448V325.862H265.517V313.793Z" fill="black"/>
<path d="M277.586 313.793H265.517V325.862H277.586V313.793Z" fill="black"/>
<path d="M289.655 313.793H277.586V325.862H289.655V313.793Z" fill="black"/>
<path d="M301.724 313.793H289.655V325.862H301.724V313.793Z" fill="black"/>
<path d="M313.793 313.793H301.724V325.862H313.793V313.793Z" fill="black"/>
<path d="M325.862 313.793H313.793V325.862H325.862V313.793Z" fill="black"/>
<path d="M95.9483 24.1377H36.8104H24.1379V36.8101V95.948V108.62H36.8104H95.9483H108.621V95.948V36.8101V24.1377H95.9483ZM95.9483 95.948H36.8104V36.8101H95.9483V95.948Z" fill="black"/>
<path d="M313.19 24.1377H254.052H241.379V36.8101V95.948V108.62H254.052H313.19H325.862V95.948V36.8101V24.1377H313.19ZM313.19 95.948H254.052V36.8101H313.19V95.948Z" fill="black"/>
<path d="M95.9483 241.379H36.8104H24.1379V254.051V313.189V325.862H36.8104H95.9483H108.621V313.189V254.051V241.379H95.9483ZM95.9483 313.189H36.8104V254.051H95.9483V313.189Z" fill="black"/>
<path d="M84.4828 48.2754H48.2759V84.4823H84.4828V48.2754Z" fill="black"/>
<path d="M301.724 48.2754H265.517V84.4823H301.724V48.2754Z" fill="black"/>
<path d="M84.4828 265.517H48.2759V301.723H84.4828V265.517Z" fill="black"/>
</g>
<defs>
<clipPath id="clip0_349_36">
<rect width="350" height="350" fill="white"/>
</clipPath>
</defs>
</svg>
