<svg width="2656" height="55" viewBox="0 0 2656 55" fill="none" xmlns="http://www.w3.org/2000/svg">
<rect width="432" height="55" rx="27.5" fill="#F3F6FF"/>
<path d="M24.7353 27.24C24.7353 25.608 25.2953 24.2373 26.4153 23.128C27.5459 22.008 28.9433 21.448 30.6073 21.448C32.2713 21.448 33.6633 22.008 34.7833 23.128C35.9139 24.2373 36.4793 25.608 36.4793 27.24C36.4793 28.9147 35.9139 30.328 34.7833 31.48C33.6633 32.6213 32.2713 33.192 30.6073 33.192C28.9433 33.192 27.5459 32.6213 26.4153 31.48C25.2953 30.328 24.7353 28.9147 24.7353 27.24ZM26.8633 27.24C26.8633 28.392 27.2259 29.3573 27.9513 30.136C28.6766 30.9147 29.5619 31.304 30.6073 31.304C31.6526 31.304 32.5379 30.9147 33.2633 30.136C33.9886 29.3573 34.3513 28.392 34.3513 27.24C34.3513 26.1413 33.9886 25.2187 33.2633 24.472C32.5379 23.7147 31.6526 23.336 30.6073 23.336C29.5619 23.336 28.6766 23.7147 27.9513 24.472C27.2259 25.2187 26.8633 26.1413 26.8633 27.24ZM40.7333 33V23.416H37.0053V21.64H46.5093V23.416H42.7813V33H40.7333ZM48.126 33V21.64H57.326V33H55.262V23.416H50.19V33H48.126ZM59.7751 32.408L60.6871 30.856C61.1671 31.2293 61.5938 31.416 61.9671 31.416C62.4685 31.416 62.8471 31.0853 63.1031 30.424L58.6551 21.64H60.9271L63.3431 26.712L63.9831 28.216H64.0151C64.1538 27.7147 64.3085 27.2187 64.4791 26.728L66.3031 21.64H68.4631L64.9591 30.616C64.8205 30.968 64.6765 31.2773 64.5271 31.544C64.3778 31.8107 64.1858 32.0773 63.9511 32.344C63.7165 32.6107 63.4391 32.8187 63.1191 32.968C62.7991 33.1173 62.4418 33.192 62.0471 33.192C61.2791 33.192 60.5218 32.9307 59.7751 32.408ZM68.9388 27.272C68.9388 25.608 69.4881 24.2213 70.5868 23.112C71.6854 22.0027 73.0828 21.448 74.7788 21.448C76.5068 21.448 77.9041 21.9653 78.9708 23L77.9788 24.536C77.5628 24.184 77.0721 23.896 76.5068 23.672C75.9521 23.448 75.4081 23.336 74.8748 23.336C73.6801 23.336 72.7468 23.7093 72.0748 24.456C71.4028 25.2027 71.0668 26.1307 71.0668 27.24C71.0668 28.36 71.4081 29.32 72.0908 30.12C72.7734 30.9093 73.7068 31.304 74.8908 31.304C76.1068 31.304 77.2054 30.824 78.1868 29.864L79.2748 31.352C78.0694 32.5787 76.5814 33.192 74.8108 33.192C73.0508 33.192 71.6321 32.632 70.5548 31.512C69.4774 30.392 68.9388 28.9787 68.9388 27.272ZM81.0479 33V21.64H83.1119V26.264H84.5839L87.2559 21.64H89.4959L86.2799 27.048V27.08L89.6879 33H87.3519L84.5839 28.04H83.1119V33H81.0479ZM97.827 33V23.416H94.099V21.64H103.603V23.416H99.875V33H97.827ZM104.142 27.24C104.142 25.608 104.702 24.2373 105.822 23.128C106.952 22.008 108.35 21.448 110.014 21.448C111.678 21.448 113.07 22.008 114.19 23.128C115.32 24.2373 115.886 25.608 115.886 27.24C115.886 28.9147 115.32 30.328 114.19 31.48C113.07 32.6213 111.678 33.192 110.014 33.192C108.35 33.192 106.952 32.6213 105.822 31.48C104.702 30.328 104.142 28.9147 104.142 27.24ZM106.27 27.24C106.27 28.392 106.632 29.3573 107.358 30.136C108.083 30.9147 108.968 31.304 110.014 31.304C111.059 31.304 111.944 30.9147 112.67 30.136C113.395 29.3573 113.758 28.392 113.758 27.24C113.758 26.1413 113.395 25.2187 112.67 24.472C111.944 23.7147 111.059 23.336 110.014 23.336C108.968 23.336 108.083 23.7147 107.358 24.472C106.632 25.2187 106.27 26.1413 106.27 27.24ZM117.97 33V21.64H122.018C123.074 21.64 123.922 21.9013 124.562 22.424C125.212 22.936 125.538 23.6507 125.538 24.568C125.538 25.1013 125.415 25.5813 125.17 26.008C124.924 26.4347 124.588 26.7653 124.162 27V27.032C124.759 27.2027 125.212 27.5387 125.522 28.04C125.842 28.5413 126.002 29.096 126.002 29.704C126.002 30.7813 125.628 31.6027 124.882 32.168C124.135 32.7227 123.202 33 122.082 33H117.97ZM120.034 26.28H122.034C122.471 26.28 122.812 26.1467 123.058 25.88C123.314 25.6027 123.442 25.2507 123.442 24.824C123.442 24.408 123.314 24.072 123.058 23.816C122.812 23.5493 122.46 23.416 122.002 23.416H120.034V26.28ZM120.034 31.224H122.242C122.754 31.224 123.154 31.0747 123.442 30.776C123.74 30.4667 123.89 30.0667 123.89 29.576C123.89 29.096 123.74 28.7067 123.442 28.408C123.154 28.0987 122.754 27.944 122.242 27.944H120.034V31.224ZM126.722 33L130.706 21.64H132.882L136.866 33H134.754L133.778 30.088H129.794L128.834 33H126.722ZM130.306 28.408H133.266L132.258 25.368L131.81 23.608H131.778C131.607 24.3547 131.458 24.9413 131.33 25.368L130.306 28.408ZM138.376 33V21.64H142.76C143.827 21.64 144.696 21.9813 145.368 22.664C146.04 23.3467 146.376 24.2373 146.376 25.336C146.376 26.4347 146.04 27.336 145.368 28.04C144.696 28.7333 143.827 29.08 142.76 29.08H140.44V33H138.376ZM140.44 27.288H142.376C142.973 27.288 143.437 27.112 143.768 26.76C144.109 26.408 144.28 25.9333 144.28 25.336C144.28 24.7493 144.109 24.2853 143.768 23.944C143.437 23.592 142.984 23.416 142.408 23.416H140.44V27.288ZM147.501 27.24C147.501 25.608 148.061 24.2373 149.181 23.128C150.312 22.008 151.709 21.448 153.373 21.448C155.037 21.448 156.429 22.008 157.549 23.128C158.68 24.2373 159.245 25.608 159.245 27.24C159.245 28.9147 158.68 30.328 157.549 31.48C156.429 32.6213 155.037 33.192 153.373 33.192C151.709 33.192 150.312 32.6213 149.181 31.48C148.061 30.328 147.501 28.9147 147.501 27.24ZM149.629 27.24C149.629 28.392 149.992 29.3573 150.717 30.136C151.442 30.9147 152.328 31.304 153.373 31.304C154.418 31.304 155.304 30.9147 156.029 30.136C156.754 29.3573 157.117 28.392 157.117 27.24C157.117 26.1413 156.754 25.2187 156.029 24.472C155.304 23.7147 154.418 23.336 153.373 23.336C152.328 23.336 151.442 23.7147 150.717 24.472C149.992 25.2187 149.629 26.1413 149.629 27.24ZM161.329 33V21.64H165.377C166.433 21.64 167.281 21.9013 167.921 22.424C168.572 22.936 168.897 23.6507 168.897 24.568C168.897 25.1013 168.774 25.5813 168.529 26.008C168.284 26.4347 167.948 26.7653 167.521 27V27.032C168.118 27.2027 168.572 27.5387 168.881 28.04C169.201 28.5413 169.361 29.096 169.361 29.704C169.361 30.7813 168.988 31.6027 168.241 32.168C167.494 32.7227 166.561 33 165.441 33H161.329ZM163.393 26.28H165.393C165.83 26.28 166.172 26.1467 166.417 25.88C166.673 25.6027 166.801 25.2507 166.801 24.824C166.801 24.408 166.673 24.072 166.417 23.816C166.172 23.5493 165.82 23.416 165.361 23.416H163.393V26.28ZM163.393 31.224H165.601C166.113 31.224 166.513 31.0747 166.801 30.776C167.1 30.4667 167.249 30.0667 167.249 29.576C167.249 29.096 167.1 28.7067 166.801 28.408C166.513 28.0987 166.113 27.944 165.601 27.944H163.393V31.224ZM174.206 33L178.19 21.64H180.366L184.35 33H182.238L181.262 30.088H177.278L176.318 33H174.206ZM177.79 28.408H180.75L179.742 25.368L179.294 23.608H179.262C179.091 24.3547 178.942 24.9413 178.814 25.368L177.79 28.408ZM185.86 33V21.64H195.06V33H192.996V23.416H187.924V33H185.86ZM200.39 33V23.416H196.662V21.64H206.166V23.416H202.438V33H200.39ZM207.782 33V21.64H214.582V23.416H209.846V26.392H213.67V28.168H209.846V31.224H214.838V33H207.782ZM219.724 28.776C218.561 28.776 217.692 28.4827 217.116 27.896C216.54 27.2987 216.252 26.456 216.252 25.368V21.64H218.348V24.904C218.348 26.2373 218.982 26.904 220.252 26.904C221.116 26.904 221.894 26.68 222.588 26.232V21.64H224.684V33H222.588V28.6L222.62 28.072H222.588C221.67 28.5413 220.716 28.776 219.724 28.776ZM227.454 33V21.64H229.518V26.456H234.718V21.64H236.766V33H234.718V28.232H229.518V33H227.454ZM238.845 27.24C238.845 25.608 239.405 24.2373 240.525 23.128C241.655 22.008 243.053 21.448 244.717 21.448C246.381 21.448 247.773 22.008 248.893 23.128C250.023 24.2373 250.589 25.608 250.589 27.24C250.589 28.9147 250.023 30.328 248.893 31.48C247.773 32.6213 246.381 33.192 244.717 33.192C243.053 33.192 241.655 32.6213 240.525 31.48C239.405 30.328 238.845 28.9147 238.845 27.24ZM240.973 27.24C240.973 28.392 241.335 29.3573 242.061 30.136C242.786 30.9147 243.671 31.304 244.717 31.304C245.762 31.304 246.647 30.9147 247.373 30.136C248.098 29.3573 248.461 28.392 248.461 27.24C248.461 26.1413 248.098 25.2187 247.373 24.472C246.647 23.7147 245.762 23.336 244.717 23.336C243.671 23.336 242.786 23.7147 242.061 24.472C241.335 25.2187 240.973 26.1413 240.973 27.24ZM252.673 33V21.64H259.201V23.416H254.737V33H252.673ZM259.688 27.24C259.688 25.608 260.248 24.2373 261.368 23.128C262.499 22.008 263.896 21.448 265.56 21.448C267.224 21.448 268.616 22.008 269.736 23.128C270.867 24.2373 271.432 25.608 271.432 27.24C271.432 28.9147 270.867 30.328 269.736 31.48C268.616 32.6213 267.224 33.192 265.56 33.192C263.896 33.192 262.499 32.6213 261.368 31.48C260.248 30.328 259.688 28.9147 259.688 27.24ZM261.816 27.24C261.816 28.392 262.179 29.3573 262.904 30.136C263.63 30.9147 264.515 31.304 265.56 31.304C266.606 31.304 267.491 30.9147 268.216 30.136C268.942 29.3573 269.304 28.392 269.304 27.24C269.304 26.1413 268.942 25.2187 268.216 24.472C267.491 23.7147 266.606 23.336 265.56 23.336C264.515 23.336 263.63 23.7147 262.904 24.472C262.179 25.2187 261.816 26.1413 261.816 27.24ZM276.269 33L280.253 21.64H282.429L286.413 33H284.301L283.325 30.088H279.341L278.381 33H276.269ZM279.853 28.408H282.813L281.805 25.368L281.357 23.608H281.325C281.154 24.3547 281.005 24.9413 280.877 25.368L279.853 28.408ZM287.001 27.272C287.001 25.608 287.551 24.2213 288.649 23.112C289.748 22.0027 291.145 21.448 292.841 21.448C294.569 21.448 295.967 21.9653 297.033 23L296.041 24.536C295.625 24.184 295.135 23.896 294.569 23.672C294.015 23.448 293.471 23.336 292.937 23.336C291.743 23.336 290.809 23.7093 290.137 24.456C289.465 25.2027 289.129 26.1307 289.129 27.24C289.129 28.36 289.471 29.32 290.153 30.12C290.836 30.9093 291.769 31.304 292.953 31.304C294.169 31.304 295.268 30.824 296.249 29.864L297.337 31.352C296.132 32.5787 294.644 33.192 292.873 33.192C291.113 33.192 289.695 32.632 288.617 31.512C287.54 30.392 287.001 28.9787 287.001 27.272ZM298.173 27.272C298.173 25.608 298.722 24.2213 299.821 23.112C300.92 22.0027 302.317 21.448 304.013 21.448C305.741 21.448 307.138 21.9653 308.205 23L307.213 24.536C306.797 24.184 306.306 23.896 305.741 23.672C305.186 23.448 304.642 23.336 304.109 23.336C302.914 23.336 301.981 23.7093 301.309 24.456C300.637 25.2027 300.301 26.1307 300.301 27.24C300.301 28.36 300.642 29.32 301.325 30.12C302.008 30.9093 302.941 31.304 304.125 31.304C305.341 31.304 306.44 30.824 307.421 29.864L308.509 31.352C307.304 32.5787 305.816 33.192 304.045 33.192C302.285 33.192 300.866 32.632 299.789 31.512C298.712 30.392 298.173 28.9787 298.173 27.272ZM309.329 27.24C309.329 25.608 309.889 24.2373 311.009 23.128C312.14 22.008 313.537 21.448 315.201 21.448C316.865 21.448 318.257 22.008 319.377 23.128C320.508 24.2373 321.073 25.608 321.073 27.24C321.073 28.9147 320.508 30.328 319.377 31.48C318.257 32.6213 316.865 33.192 315.201 33.192C313.537 33.192 312.14 32.6213 311.009 31.48C309.889 30.328 309.329 28.9147 309.329 27.24ZM311.457 27.24C311.457 28.392 311.82 29.3573 312.545 30.136C313.27 30.9147 314.156 31.304 315.201 31.304C316.246 31.304 317.132 30.9147 317.857 30.136C318.582 29.3573 318.945 28.392 318.945 27.24C318.945 26.1413 318.582 25.2187 317.857 24.472C317.132 23.7147 316.246 23.336 315.201 23.336C314.156 23.336 313.27 23.7147 312.545 24.472C311.82 25.2187 311.457 26.1413 311.457 27.24ZM323.157 33V21.64H327.541C328.608 21.64 329.477 21.9813 330.149 22.664C330.821 23.3467 331.157 24.2373 331.157 25.336C331.157 26.4347 330.821 27.336 330.149 28.04C329.477 28.7333 328.608 29.08 327.541 29.08H325.221V33H323.157ZM325.221 27.288H327.157C327.755 27.288 328.219 27.112 328.549 26.76C328.891 26.408 329.061 25.9333 329.061 25.336C329.061 24.7493 328.891 24.2853 328.549 23.944C328.219 23.592 327.765 23.416 327.189 23.416H325.221V27.288ZM335.53 33V23.416H331.802V21.64H341.306V23.416H337.578V33H335.53ZM342.923 33V21.64H344.987V28.2L344.875 29.96H344.907C345.27 29.224 345.59 28.632 345.867 28.184L350.155 21.64H352.203V33H350.155V26.456L350.267 24.696H350.235C349.883 25.4213 349.568 26.008 349.291 26.456L344.971 33H342.923ZM354.538 33L355.466 21.64H357.658L359.898 27.256L360.458 28.92H360.49C360.692 28.2587 360.879 27.704 361.05 27.256L363.29 21.64H365.482L366.41 33H364.346L363.882 26.648C363.86 26.424 363.85 26.168 363.85 25.88C363.85 25.5813 363.855 25.3413 363.866 25.16V24.888H363.834C363.588 25.624 363.38 26.2107 363.21 26.648L361.37 31.048H359.578L357.738 26.648L357.114 24.872H357.082C357.114 25.5547 357.108 26.1467 357.066 26.648L356.602 33H354.538ZM368.735 33V21.64H375.535V23.416H370.799V26.392H374.623V28.168H370.799V31.224H375.791V33H368.735ZM377.845 33V21.64H379.909V26.456H385.109V21.64H387.157V33H385.109V28.232H379.909V33H377.845ZM392.483 33V23.416H388.755V21.64H398.259V23.416H394.531V33H392.483ZM397.691 33L401.674 21.64H403.851L407.835 33H405.723L404.747 30.088H400.763L399.803 33H397.691ZM401.275 28.408H404.235L403.227 25.368L402.779 23.608H402.747C402.576 24.3547 402.427 24.9413 402.299 25.368L401.275 28.408Z" fill="#252525"/>
<rect x="442" width="400" height="55" rx="27.5" fill="#F3F6FF"/>
<path d="M466.559 26.952C466.559 25.5653 467.039 24.4347 467.999 23.56C468.97 22.6853 470.223 22.248 471.759 22.248V21H473.823V22.248C475.359 22.248 476.607 22.6853 477.567 23.56C478.538 24.4347 479.023 25.5653 479.023 26.952C479.023 28.3707 478.543 29.528 477.583 30.424C476.623 31.3093 475.37 31.752 473.823 31.752V33.192H471.759V31.752C470.223 31.752 468.97 31.304 467.999 30.408C467.039 29.512 466.559 28.36 466.559 26.952ZM473.823 30.024C474.741 30.024 475.487 29.7413 476.063 29.176C476.639 28.6 476.927 27.8587 476.927 26.952C476.927 26.0667 476.639 25.352 476.063 24.808C475.487 24.2533 474.741 23.976 473.823 23.976V30.024ZM468.671 26.952C468.671 27.8587 468.954 28.6 469.519 29.176C470.095 29.7413 470.842 30.024 471.759 30.024V23.976C470.842 23.976 470.095 24.2533 469.519 24.808C468.954 25.352 468.671 26.0667 468.671 26.952ZM479.394 33L483.378 21.64H485.554L489.538 33H487.426L486.45 30.088H482.466L481.506 33H479.394ZM482.978 28.408H485.938L484.93 25.368L484.482 23.608H484.45C484.279 24.3547 484.13 24.9413 484.002 25.368L482.978 28.408ZM491.048 33V21.64H495.432C496.499 21.64 497.368 21.9813 498.04 22.664C498.712 23.3467 499.048 24.2373 499.048 25.336C499.048 26.4347 498.712 27.336 498.04 28.04C497.368 28.7333 496.499 29.08 495.432 29.08H493.112V33H491.048ZM493.112 27.288H495.048C495.645 27.288 496.109 27.112 496.44 26.76C496.781 26.408 496.952 25.9333 496.952 25.336C496.952 24.7493 496.781 24.2853 496.44 23.944C496.109 23.592 495.656 23.416 495.08 23.416H493.112V27.288ZM500.413 33L501.341 21.64H503.533L505.773 27.256L506.333 28.92H506.365C506.567 28.2587 506.754 27.704 506.925 27.256L509.165 21.64H511.357L512.285 33H510.221L509.757 26.648C509.735 26.424 509.725 26.168 509.725 25.88C509.725 25.5813 509.73 25.3413 509.741 25.16V24.888H509.709C509.463 25.624 509.255 26.2107 509.085 26.648L507.245 31.048H505.453L503.613 26.648L502.989 24.872H502.957C502.989 25.5547 502.983 26.1467 502.941 26.648L502.477 33H500.413ZM513.362 33L517.346 21.64H519.522L523.506 33H521.394L520.418 30.088H516.434L515.474 33H513.362ZM516.946 28.408H519.906L518.898 25.368L518.45 23.608H518.418C518.248 24.3547 518.098 24.9413 517.97 25.368L516.946 28.408ZM525.017 33V21.64H527.081V31.224H531.993V21.64H534.057V31.224H535.401V35.24H533.561V33H525.017ZM537.36 33V21.64H544.16V23.416H539.424V26.392H543.248V28.168H539.424V31.224H544.416V33H537.36ZM546.47 33V21.64H550.518C551.574 21.64 552.422 21.9013 553.062 22.424C553.712 22.936 554.038 23.6507 554.038 24.568C554.038 25.1013 553.915 25.5813 553.67 26.008C553.424 26.4347 553.088 26.7653 552.662 27V27.032C553.259 27.2027 553.712 27.5387 554.022 28.04C554.342 28.5413 554.502 29.096 554.502 29.704C554.502 30.7813 554.128 31.6027 553.382 32.168C552.635 32.7227 551.702 33 550.582 33H546.47ZM548.534 26.28H550.534C550.971 26.28 551.312 26.1467 551.558 25.88C551.814 25.6027 551.942 25.2507 551.942 24.824C551.942 24.408 551.814 24.072 551.558 23.816C551.312 23.5493 550.96 23.416 550.502 23.416H548.534V26.28ZM548.534 31.224H550.742C551.254 31.224 551.654 31.0747 551.942 30.776C552.24 30.4667 552.39 30.0667 552.39 29.576C552.39 29.096 552.24 28.7067 551.942 28.408C551.654 28.0987 551.254 27.944 550.742 27.944H548.534V31.224ZM558.874 33V23.416H555.146V21.64H564.65V23.416H560.922V33H558.874ZM566.267 33V21.64H568.331V28.2L568.219 29.96H568.251C568.613 29.224 568.933 28.632 569.211 28.184L573.499 21.64H575.547V33H573.499V26.456L573.611 24.696H573.579C573.227 25.4213 572.912 26.008 572.635 26.456L568.315 33H566.267ZM581.146 28.776C579.983 28.776 579.114 28.4827 578.538 27.896C577.962 27.2987 577.674 26.456 577.674 25.368V21.64H579.77V24.904C579.77 26.2373 580.404 26.904 581.674 26.904C582.538 26.904 583.316 26.68 584.01 26.232V21.64H586.106V33H584.01V28.6L584.042 28.072H584.01C583.092 28.5413 582.138 28.776 581.146 28.776ZM588.876 33V21.64H595.676V23.416H590.94V26.392H594.764V28.168H590.94V31.224H595.932V33H588.876ZM597.126 27.272C597.126 25.608 597.676 24.2213 598.774 23.112C599.873 22.0027 601.27 21.448 602.966 21.448C604.694 21.448 606.092 21.9653 607.158 23L606.166 24.536C605.75 24.184 605.26 23.896 604.694 23.672C604.14 23.448 603.596 23.336 603.062 23.336C601.868 23.336 600.934 23.7093 600.262 24.456C599.59 25.2027 599.254 26.1307 599.254 27.24C599.254 28.36 599.596 29.32 600.278 30.12C600.961 30.9093 601.894 31.304 603.078 31.304C604.294 31.304 605.393 30.824 606.374 29.864L607.462 31.352C606.257 32.5787 604.769 33.192 602.998 33.192C601.238 33.192 599.82 32.632 598.742 31.512C597.665 30.392 597.126 28.9787 597.126 27.272ZM609.235 33V21.64H611.299V26.264H612.771L615.443 21.64H617.683L614.467 27.048V27.08L617.875 33H615.539L612.771 28.04H611.299V33H609.235ZM618.47 27.24C618.47 25.608 619.03 24.2373 620.15 23.128C621.28 22.008 622.678 21.448 624.342 21.448C626.006 21.448 627.398 22.008 628.518 23.128C629.648 24.2373 630.214 25.608 630.214 27.24C630.214 28.9147 629.648 30.328 628.518 31.48C627.398 32.6213 626.006 33.192 624.342 33.192C622.678 33.192 621.28 32.6213 620.15 31.48C619.03 30.328 618.47 28.9147 618.47 27.24ZM620.598 27.24C620.598 28.392 620.96 29.3573 621.686 30.136C622.411 30.9147 623.296 31.304 624.342 31.304C625.387 31.304 626.272 30.9147 626.998 30.136C627.723 29.3573 628.086 28.392 628.086 27.24C628.086 26.1413 627.723 25.2187 626.998 24.472C626.272 23.7147 625.387 23.336 624.342 23.336C623.296 23.336 622.411 23.7147 621.686 24.472C620.96 25.2187 620.598 26.1413 620.598 27.24ZM632.298 33V21.64H639.098V23.416H634.362V26.392H638.186V28.168H634.362V31.224H639.354V33H632.298ZM645.407 33V21.64H647.471V26.264H648.943L651.615 21.64H653.855L650.639 27.048V27.08L654.047 33H651.711L648.943 28.04H647.471V33H645.407ZM654.642 27.24C654.642 25.608 655.202 24.2373 656.322 23.128C657.452 22.008 658.85 21.448 660.514 21.448C662.178 21.448 663.57 22.008 664.69 23.128C665.82 24.2373 666.386 25.608 666.386 27.24C666.386 28.9147 665.82 30.328 664.69 31.48C663.57 32.6213 662.178 33.192 660.514 33.192C658.85 33.192 657.452 32.6213 656.322 31.48C655.202 30.328 654.642 28.9147 654.642 27.24ZM656.77 27.24C656.77 28.392 657.132 29.3573 657.858 30.136C658.583 30.9147 659.468 31.304 660.514 31.304C661.559 31.304 662.444 30.9147 663.17 30.136C663.895 29.3573 664.258 28.392 664.258 27.24C664.258 26.1413 663.895 25.2187 663.17 24.472C662.444 23.7147 661.559 23.336 660.514 23.336C659.468 23.336 658.583 23.7147 657.858 24.472C657.132 25.2187 656.77 26.1413 656.77 27.24ZM668.47 33V21.64H670.534V26.456H675.734V21.64H677.782V33H675.734V28.232H670.534V33H668.47ZM679.876 27.272C679.876 25.608 680.426 24.2213 681.524 23.112C682.623 22.0027 684.02 21.448 685.716 21.448C687.444 21.448 688.842 21.9653 689.908 23L688.916 24.536C688.5 24.184 688.01 23.896 687.444 23.672C686.89 23.448 686.346 23.336 685.812 23.336C684.618 23.336 683.684 23.7093 683.012 24.456C682.34 25.2027 682.004 26.1307 682.004 27.24C682.004 28.36 682.346 29.32 683.028 30.12C683.711 30.9093 684.644 31.304 685.828 31.304C687.044 31.304 688.143 30.824 689.124 29.864L690.212 31.352C689.007 32.5787 687.519 33.192 685.748 33.192C683.988 33.192 682.57 32.632 681.492 31.512C680.415 30.392 679.876 28.9787 679.876 27.272ZM691.681 32.408L692.593 30.856C693.073 31.2293 693.5 31.416 693.873 31.416C694.375 31.416 694.753 31.0853 695.009 30.424L690.561 21.64H692.833L695.249 26.712L695.889 28.216H695.921C696.06 27.7147 696.215 27.2187 696.385 26.728L698.209 21.64H700.369L696.865 30.616C696.727 30.968 696.583 31.2773 696.433 31.544C696.284 31.8107 696.092 32.0773 695.857 32.344C695.623 32.6107 695.345 32.8187 695.025 32.968C694.705 33.1173 694.348 33.192 693.953 33.192C693.185 33.192 692.428 32.9307 691.681 32.408ZM699.943 31.24C700.796 31.1227 701.415 30.5573 701.799 29.544C702.193 28.52 702.391 26.92 702.391 24.744V21.64H709.415V33H707.351V23.416H704.359V24.776C704.359 27.5707 704.012 29.6507 703.319 31.016C702.625 32.3707 701.5 33.0747 699.943 33.128V31.24ZM712.173 33V21.64H714.237V25.624H716.461C717.506 25.624 718.36 25.9653 719.021 26.648C719.682 27.32 720.013 28.216 720.013 29.336C720.013 30.424 719.688 31.3093 719.037 31.992C718.386 32.664 717.538 33 716.493 33H712.173ZM714.237 31.224H716.125C716.69 31.224 717.128 31.0587 717.437 30.728C717.757 30.3867 717.917 29.9227 717.917 29.336C717.917 28.7493 717.752 28.28 717.421 27.928C717.101 27.576 716.658 27.4 716.093 27.4H714.237V31.224ZM723.327 33V23.416H719.599V21.64H729.103V23.416H725.375V33H723.327ZM730.72 33V21.64H732.784V28.2L732.672 29.96H732.704C733.066 29.224 733.386 28.632 733.664 28.184L737.952 21.64H740V33H737.952V26.456L738.064 24.696H738.032C737.68 25.4213 737.365 26.008 737.088 26.456L732.768 33H730.72ZM742.767 33V21.64H747.151C748.217 21.64 749.087 21.9813 749.759 22.664C750.431 23.3467 750.767 24.2373 750.767 25.336C750.767 26.4347 750.431 27.336 749.759 28.04C749.087 28.7333 748.217 29.08 747.151 29.08H744.831V33H742.767ZM744.831 27.288H746.767C747.364 27.288 747.828 27.112 748.159 26.76C748.5 26.408 748.671 25.9333 748.671 25.336C748.671 24.7493 748.5 24.2853 748.159 23.944C747.828 23.592 747.375 23.416 746.799 23.416H744.831V27.288ZM751.892 27.24C751.892 25.608 752.452 24.2373 753.572 23.128C754.702 22.008 756.1 21.448 757.764 21.448C759.428 21.448 760.82 22.008 761.94 23.128C763.07 24.2373 763.636 25.608 763.636 27.24C763.636 28.9147 763.07 30.328 761.94 31.48C760.82 32.6213 759.428 33.192 757.764 33.192C756.1 33.192 754.702 32.6213 753.572 31.48C752.452 30.328 751.892 28.9147 751.892 27.24ZM754.02 27.24C754.02 28.392 754.382 29.3573 755.108 30.136C755.833 30.9147 756.718 31.304 757.764 31.304C758.809 31.304 759.694 30.9147 760.42 30.136C761.145 29.3573 761.508 28.392 761.508 27.24C761.508 26.1413 761.145 25.2187 760.42 24.472C759.694 23.7147 758.809 23.336 757.764 23.336C756.718 23.336 755.833 23.7147 755.108 24.472C754.382 25.2187 754.02 26.1413 754.02 27.24ZM765.72 33V21.64H769.768C770.824 21.64 771.672 21.9013 772.312 22.424C772.962 22.936 773.288 23.6507 773.288 24.568C773.288 25.1013 773.165 25.5813 772.92 26.008C772.674 26.4347 772.338 26.7653 771.912 27V27.032C772.509 27.2027 772.962 27.5387 773.272 28.04C773.592 28.5413 773.752 29.096 773.752 29.704C773.752 30.7813 773.378 31.6027 772.632 32.168C771.885 32.7227 770.952 33 769.832 33H765.72ZM767.784 26.28H769.784C770.221 26.28 770.562 26.1467 770.808 25.88C771.064 25.6027 771.192 25.2507 771.192 24.824C771.192 24.408 771.064 24.072 770.808 23.816C770.562 23.5493 770.21 23.416 769.752 23.416H767.784V26.28ZM767.784 31.224H769.992C770.504 31.224 770.904 31.0747 771.192 30.776C771.49 30.4667 771.64 30.0667 771.64 29.576C771.64 29.096 771.49 28.7067 771.192 28.408C770.904 28.0987 770.504 27.944 769.992 27.944H767.784V31.224ZM774.472 33L778.456 21.64H780.632L784.616 33H782.504L781.528 30.088H777.544L776.584 33H774.472ZM778.056 28.408H781.016L780.008 25.368L779.56 23.608H779.528C779.357 24.3547 779.208 24.9413 779.08 25.368L778.056 28.408ZM786.126 33V21.64H788.19V26.456H793.39V21.64H795.438V33H793.39V28.232H788.19V33H786.126ZM798.189 33V21.64H800.253V28.2L800.141 29.96H800.173C800.535 29.224 800.855 28.632 801.133 28.184L805.421 21.64H807.469V33H805.421V26.456L805.533 24.696H805.501C805.149 25.4213 804.834 26.008 804.557 26.456L800.237 33H798.189ZM810.235 33V21.64H817.035V23.416H812.299V26.392H816.123V28.168H812.299V31.224H817.291V33H810.235Z" fill="#005DFF"/>
<rect x="852" width="516" height="55" rx="27.5" fill="#F3F6FF"/>
<path d="M877.478 33V21.64H881.862C882.928 21.64 883.798 21.9813 884.47 22.664C885.142 23.3467 885.478 24.2373 885.478 25.336C885.478 26.4347 885.142 27.336 884.47 28.04C883.798 28.7333 882.928 29.08 881.862 29.08H879.542V33H877.478ZM879.542 27.288H881.478C882.075 27.288 882.539 27.112 882.87 26.76C883.211 26.408 883.382 25.9333 883.382 25.336C883.382 24.7493 883.211 24.2853 882.87 23.944C882.539 23.592 882.086 23.416 881.51 23.416H879.542V27.288ZM886.602 27.24C886.602 25.608 887.162 24.2373 888.282 23.128C889.413 22.008 890.81 21.448 892.474 21.448C894.138 21.448 895.53 22.008 896.65 23.128C897.781 24.2373 898.346 25.608 898.346 27.24C898.346 28.9147 897.781 30.328 896.65 31.48C895.53 32.6213 894.138 33.192 892.474 33.192C890.81 33.192 889.413 32.6213 888.282 31.48C887.162 30.328 886.602 28.9147 886.602 27.24ZM888.73 27.24C888.73 28.392 889.093 29.3573 889.818 30.136C890.544 30.9147 891.429 31.304 892.474 31.304C893.52 31.304 894.405 30.9147 895.13 30.136C895.856 29.3573 896.218 28.392 896.218 27.24C896.218 26.1413 895.856 25.2187 895.13 24.472C894.405 23.7147 893.52 23.336 892.474 23.336C891.429 23.336 890.544 23.7147 889.818 24.472C889.093 25.2187 888.73 26.1413 888.73 27.24ZM899.141 31.576L900.261 30.2C900.57 30.5307 900.954 30.808 901.413 31.032C901.872 31.256 902.341 31.368 902.821 31.368C903.44 31.368 903.93 31.2133 904.293 30.904C904.656 30.5947 904.837 30.168 904.837 29.624C904.837 29.1333 904.672 28.7493 904.341 28.472C904.021 28.184 903.584 28.04 903.029 28.04H901.637V26.376H902.757C903.269 26.376 903.69 26.2267 904.021 25.928C904.352 25.6293 904.517 25.256 904.517 24.808C904.517 24.3493 904.368 23.976 904.069 23.688C903.77 23.3893 903.338 23.24 902.773 23.24C901.909 23.24 901.088 23.56 900.309 24.2L899.477 22.696C900.48 21.864 901.696 21.448 903.125 21.448C904.096 21.448 904.917 21.7253 905.589 22.28C906.272 22.8347 906.613 23.592 906.613 24.552C906.613 25.672 906.09 26.5147 905.045 27.08V27.112C905.632 27.2933 906.096 27.6133 906.437 28.072C906.778 28.5307 906.949 29.0907 906.949 29.752C906.949 30.7973 906.57 31.6347 905.813 32.264C905.066 32.8827 904.133 33.192 903.013 33.192C902.288 33.192 901.578 33.0533 900.885 32.776C900.202 32.488 899.621 32.088 899.141 31.576ZM909.04 33V21.64H911.104V26.456H916.304V21.64H918.352V33H916.304V28.232H911.104V33H909.04ZM921.103 33V21.64H923.167V28.2L923.055 29.96H923.087C923.449 29.224 923.769 28.632 924.047 28.184L928.335 21.64H930.383V33H928.335V26.456L928.447 24.696H928.415C928.063 25.4213 927.748 26.008 927.471 26.456L923.151 33H921.103ZM935.981 28.776C934.819 28.776 933.949 28.4827 933.373 27.896C932.797 27.2987 932.509 26.456 932.509 25.368V21.64H934.605V24.904C934.605 26.2373 935.24 26.904 936.509 26.904C937.373 26.904 938.152 26.68 938.845 26.232V21.64H940.941V33H938.845V28.6L938.877 28.072H938.845C937.928 28.5413 936.973 28.776 935.981 28.776ZM943.712 33V21.64H945.776V26.456H950.976V21.64H953.024V33H950.976V28.232H945.776V33H943.712ZM954.526 33L958.51 21.64H960.686L964.67 33H962.558L961.582 30.088H957.598L956.638 33H954.526ZM958.11 28.408H961.07L960.062 25.368L959.614 23.608H959.582C959.412 24.3547 959.262 24.9413 959.134 25.368L958.11 28.408ZM965.077 33L967.477 29L967.845 28.408V28.376C967.173 28.0773 966.666 27.64 966.325 27.064C965.994 26.488 965.829 25.8267 965.829 25.08C965.829 24.312 965.999 23.6613 966.341 23.128C966.693 22.584 967.157 22.1893 967.733 21.944C968.202 21.7413 968.922 21.64 969.893 21.64H973.573V33H971.509V28.76H969.845L967.381 33H965.077ZM969.717 27.032H971.509V23.416H970.053C969.413 23.416 968.938 23.512 968.629 23.704C968.159 23.992 967.925 24.4773 967.925 25.16C967.925 25.7573 968.085 26.2213 968.405 26.552C968.725 26.872 969.162 27.032 969.717 27.032ZM982.897 33V23.416H979.169V21.64H988.673V23.416H984.945V33H982.897ZM989.212 27.24C989.212 25.608 989.772 24.2373 990.892 23.128C992.022 22.008 993.42 21.448 995.084 21.448C996.748 21.448 998.14 22.008 999.26 23.128C1000.39 24.2373 1000.96 25.608 1000.96 27.24C1000.96 28.9147 1000.39 30.328 999.26 31.48C998.14 32.6213 996.748 33.192 995.084 33.192C993.42 33.192 992.022 32.6213 990.892 31.48C989.772 30.328 989.212 28.9147 989.212 27.24ZM991.34 27.24C991.34 28.392 991.702 29.3573 992.428 30.136C993.153 30.9147 994.038 31.304 995.084 31.304C996.129 31.304 997.014 30.9147 997.74 30.136C998.465 29.3573 998.828 28.392 998.828 27.24C998.828 26.1413 998.465 25.2187 997.74 24.472C997.014 23.7147 996.129 23.336 995.084 23.336C994.038 23.336 993.153 23.7147 992.428 24.472C991.702 25.2187 991.34 26.1413 991.34 27.24ZM1003.04 33V21.64H1007.42C1008.49 21.64 1009.36 21.9813 1010.03 22.664C1010.7 23.3467 1011.04 24.2373 1011.04 25.336C1011.04 26.4347 1010.7 27.336 1010.03 28.04C1009.36 28.7333 1008.49 29.08 1007.42 29.08H1005.1V33H1003.04ZM1005.1 27.288H1007.04C1007.64 27.288 1008.1 27.112 1008.43 26.76C1008.77 26.408 1008.94 25.9333 1008.94 25.336C1008.94 24.7493 1008.77 24.2853 1008.43 23.944C1008.1 23.592 1007.65 23.416 1007.07 23.416H1005.1V27.288ZM1012.84 33V21.64H1019.36V23.416H1014.9V33H1012.84ZM1019.85 27.24C1019.85 25.608 1020.41 24.2373 1021.53 23.128C1022.66 22.008 1024.06 21.448 1025.72 21.448C1027.39 21.448 1028.78 22.008 1029.9 23.128C1031.03 24.2373 1031.6 25.608 1031.6 27.24C1031.6 28.9147 1031.03 30.328 1029.9 31.48C1028.78 32.6213 1027.39 33.192 1025.72 33.192C1024.06 33.192 1022.66 32.6213 1021.53 31.48C1020.41 30.328 1019.85 28.9147 1019.85 27.24ZM1021.98 27.24C1021.98 28.392 1022.34 29.3573 1023.07 30.136C1023.79 30.9147 1024.68 31.304 1025.72 31.304C1026.77 31.304 1027.66 30.9147 1028.38 30.136C1029.11 29.3573 1029.47 28.392 1029.47 27.24C1029.47 26.1413 1029.11 25.2187 1028.38 24.472C1027.66 23.7147 1026.77 23.336 1025.72 23.336C1024.68 23.336 1023.79 23.7147 1023.07 24.472C1022.34 25.2187 1021.98 26.1413 1021.98 27.24ZM1033.68 33V21.64H1037.73C1038.78 21.64 1039.63 21.9013 1040.27 22.424C1040.92 22.936 1041.25 23.6507 1041.25 24.568C1041.25 25.1013 1041.13 25.5813 1040.88 26.008C1040.64 26.4347 1040.3 26.7653 1039.87 27V27.032C1040.47 27.2027 1040.92 27.5387 1041.23 28.04C1041.55 28.5413 1041.71 29.096 1041.71 29.704C1041.71 30.7813 1041.34 31.6027 1040.59 32.168C1039.85 32.7227 1038.91 33 1037.79 33H1033.68ZM1035.74 26.28H1037.74C1038.18 26.28 1038.52 26.1467 1038.77 25.88C1039.02 25.6027 1039.15 25.2507 1039.15 24.824C1039.15 24.408 1039.02 24.072 1038.77 23.816C1038.52 23.5493 1038.17 23.416 1037.71 23.416H1035.74V26.28ZM1035.74 31.224H1037.95C1038.46 31.224 1038.86 31.0747 1039.15 30.776C1039.45 30.4667 1039.6 30.0667 1039.6 29.576C1039.6 29.096 1039.45 28.7067 1039.15 28.408C1038.86 28.0987 1038.46 27.944 1037.95 27.944H1035.74V31.224ZM1042.54 31.24C1043.4 31.1227 1044.02 30.5573 1044.4 29.544C1044.79 28.52 1044.99 26.92 1044.99 24.744V21.64H1052.02V33H1049.95V23.416H1046.96V24.776C1046.96 27.5707 1046.61 29.6507 1045.92 31.016C1045.23 32.3707 1044.1 33.0747 1042.54 33.128V31.24ZM1053.67 33L1056.07 29L1056.44 28.408V28.376C1055.77 28.0773 1055.26 27.64 1054.92 27.064C1054.59 26.488 1054.42 25.8267 1054.42 25.08C1054.42 24.312 1054.59 23.6613 1054.93 23.128C1055.29 22.584 1055.75 22.1893 1056.33 21.944C1056.8 21.7413 1057.52 21.64 1058.49 21.64H1062.17V33H1060.1V28.76H1058.44L1055.97 33H1053.67ZM1058.31 27.032H1060.1V23.416H1058.65C1058.01 23.416 1057.53 23.512 1057.22 23.704C1056.75 23.992 1056.52 24.4773 1056.52 25.16C1056.52 25.7573 1056.68 26.2213 1057 26.552C1057.32 26.872 1057.76 27.032 1058.31 27.032ZM1067.76 31.24C1068.62 31.1227 1069.24 30.5573 1069.62 29.544C1070.01 28.52 1070.21 26.92 1070.21 24.744V21.64H1077.24V33H1075.17V23.416H1072.18V24.776C1072.18 27.5707 1071.83 29.6507 1071.14 31.016C1070.45 32.3707 1069.32 33.0747 1067.76 33.128V31.24ZM1079.99 33V21.64H1086.79V23.416H1082.06V26.392H1085.88V28.168H1082.06V31.224H1087.05V33H1079.99ZM1089.1 33V21.64H1091.17V26.264H1092.64L1095.31 21.64H1097.55L1094.33 27.048V27.08L1097.74 33H1095.41L1092.64 28.04H1091.17V33H1089.1ZM1098.06 33L1102.04 21.64H1104.22L1108.2 33H1106.09L1105.11 30.088H1101.13L1100.17 33H1098.06ZM1101.64 28.408H1104.6L1103.59 25.368L1103.15 23.608H1103.11C1102.94 24.3547 1102.79 24.9413 1102.67 25.368L1101.64 28.408ZM1109.71 33V21.64H1114.1C1115.16 21.64 1116.03 21.9813 1116.7 22.664C1117.38 23.3467 1117.71 24.2373 1117.71 25.336C1117.71 26.4347 1117.38 27.336 1116.7 28.04C1116.03 28.7333 1115.16 29.08 1114.1 29.08H1111.78V33H1109.71ZM1111.78 27.288H1113.71C1114.31 27.288 1114.77 27.112 1115.1 26.76C1115.45 26.408 1115.62 25.9333 1115.62 25.336C1115.62 24.7493 1115.45 24.2853 1115.1 23.944C1114.77 23.592 1114.32 23.416 1113.74 23.416H1111.78V27.288ZM1118.85 27.272C1118.85 25.608 1119.4 24.2213 1120.5 23.112C1121.6 22.0027 1123 21.448 1124.69 21.448C1126.42 21.448 1127.82 21.9653 1128.88 23L1127.89 24.536C1127.48 24.184 1126.99 23.896 1126.42 23.672C1125.87 23.448 1125.32 23.336 1124.79 23.336C1123.59 23.336 1122.66 23.7093 1121.99 24.456C1121.32 25.2027 1120.98 26.1307 1120.98 27.24C1120.98 28.36 1121.32 29.32 1122 30.12C1122.69 30.9093 1123.62 31.304 1124.8 31.304C1126.02 31.304 1127.12 30.824 1128.1 29.864L1129.19 31.352C1127.98 32.5787 1126.5 33.192 1124.72 33.192C1122.96 33.192 1121.55 32.632 1120.47 31.512C1119.39 30.392 1118.85 28.9787 1118.85 27.272ZM1133.54 33V23.416H1129.81V21.64H1139.31V23.416H1135.59V33H1133.54ZM1140.93 33V21.64H1144.98C1146.03 21.64 1146.88 21.9013 1147.52 22.424C1148.17 22.936 1148.5 23.6507 1148.5 24.568C1148.5 25.1013 1148.38 25.5813 1148.13 26.008C1147.89 26.4347 1147.55 26.7653 1147.12 27V27.032C1147.72 27.2027 1148.17 27.5387 1148.48 28.04C1148.8 28.5413 1148.96 29.096 1148.96 29.704C1148.96 30.7813 1148.59 31.6027 1147.84 32.168C1147.1 32.7227 1146.16 33 1145.04 33H1140.93ZM1142.99 26.28H1144.99C1145.43 26.28 1145.77 26.1467 1146.02 25.88C1146.27 25.6027 1146.4 25.2507 1146.4 24.824C1146.4 24.408 1146.27 24.072 1146.02 23.816C1145.77 23.5493 1145.42 23.416 1144.96 23.416H1142.99V26.28ZM1142.99 31.224H1145.2C1145.71 31.224 1146.11 31.0747 1146.4 30.776C1146.7 30.4667 1146.85 30.0667 1146.85 29.576C1146.85 29.096 1146.7 28.7067 1146.4 28.408C1146.11 28.0987 1145.71 27.944 1145.2 27.944H1142.99V31.224ZM1151.06 33V21.64H1157.86V23.416H1153.12V26.392H1156.94V28.168H1153.12V31.224H1158.11V33H1151.06ZM1160.17 33V21.64H1162.23V26.456H1167.43V21.64H1169.48V33H1167.43V28.232H1162.23V33H1160.17ZM1172.23 33V21.64H1174.29V26.456H1179.49V21.64H1181.54V33H1179.49V28.232H1174.29V33H1172.23ZM1193.49 33V21.64H1195.54V33H1193.49ZM1184.29 33V21.64H1186.35V25.624H1188.47C1189.52 25.624 1190.38 25.9653 1191.03 26.648C1191.69 27.32 1192.02 28.216 1192.02 29.336C1192.02 30.424 1191.69 31.3093 1191.04 31.992C1190.39 32.664 1189.55 33 1188.51 33H1184.29ZM1186.35 31.224H1188.15C1188.71 31.224 1189.15 31.0587 1189.46 30.728C1189.77 30.3867 1189.92 29.9227 1189.92 29.336C1189.92 28.7493 1189.76 28.28 1189.44 27.928C1189.12 27.576 1188.68 27.4 1188.11 27.4H1186.35V31.224ZM1197.87 33L1198.8 21.64H1200.99L1203.23 27.256L1203.79 28.92H1203.83C1204.03 28.2587 1204.22 27.704 1204.39 27.256L1206.63 21.64H1208.82L1209.75 33H1207.68L1207.22 26.648C1207.2 26.424 1207.19 26.168 1207.19 25.88C1207.19 25.5813 1207.19 25.3413 1207.2 25.16V24.888H1207.17C1206.92 25.624 1206.72 26.2107 1206.55 26.648L1204.71 31.048H1202.91L1201.07 26.648L1200.45 24.872H1200.42C1200.45 25.5547 1200.44 26.1467 1200.4 26.648L1199.94 33H1197.87ZM1212.07 33V21.64H1214.14V28.2L1214.02 29.96H1214.06C1214.42 29.224 1214.74 28.632 1215.02 28.184L1219.3 21.64H1221.35V33H1219.3V26.456L1219.42 24.696H1219.38C1219.03 25.4213 1218.72 26.008 1218.44 26.456L1214.12 33H1212.07ZM1228.12 33V21.64H1237.32V33H1235.25V23.416H1230.18V33H1228.12ZM1240.07 33V21.64H1244.46C1245.52 21.64 1246.39 21.9813 1247.06 22.664C1247.74 23.3467 1248.07 24.2373 1248.07 25.336C1248.07 26.4347 1247.74 27.336 1247.06 28.04C1246.39 28.7333 1245.52 29.08 1244.46 29.08H1242.14V33H1240.07ZM1242.14 27.288H1244.07C1244.67 27.288 1245.13 27.112 1245.46 26.76C1245.8 26.408 1245.98 25.9333 1245.98 25.336C1245.98 24.7493 1245.8 24.2853 1245.46 23.944C1245.13 23.592 1244.68 23.416 1244.1 23.416H1242.14V27.288ZM1249.87 33V21.64H1256.67V23.416H1251.93V26.392H1255.76V28.168H1251.93V31.224H1256.92V33H1249.87ZM1258.98 33V21.64H1268.18V33H1266.11V23.416H1261.04V33H1258.98ZM1269.68 33L1273.67 21.64H1275.84L1279.83 33H1277.71L1276.74 30.088H1272.75L1271.79 33H1269.68ZM1273.27 28.408H1276.23L1275.22 25.368L1274.77 23.608H1274.74C1274.57 24.3547 1274.42 24.9413 1274.29 25.368L1273.27 28.408ZM1281.34 33V21.64H1285.72C1286.79 21.64 1287.66 21.9813 1288.33 22.664C1289 23.3467 1289.34 24.2373 1289.34 25.336C1289.34 26.4347 1289 27.336 1288.33 28.04C1287.66 28.7333 1286.79 29.08 1285.72 29.08H1283.4V33H1281.34ZM1283.4 27.288H1285.34C1285.93 27.288 1286.4 27.112 1286.73 26.76C1287.07 26.408 1287.24 25.9333 1287.24 25.336C1287.24 24.7493 1287.07 24.2853 1286.73 23.944C1286.4 23.592 1285.94 23.416 1285.37 23.416H1283.4V27.288ZM1289.31 33L1293.29 21.64H1295.47L1299.45 33H1297.34L1296.36 30.088H1292.38L1291.42 33H1289.31ZM1292.89 28.408H1295.85L1294.84 25.368L1294.4 23.608H1294.36C1294.19 24.3547 1294.04 24.9413 1293.92 25.368L1292.89 28.408ZM1302.6 33V23.416H1298.87V21.64H1308.38V23.416H1304.65V33H1302.6ZM1307.81 33L1311.79 21.64H1313.97L1317.95 33H1315.84L1314.86 30.088H1310.88L1309.92 33H1307.81ZM1311.39 28.408H1314.35L1313.34 25.368L1312.9 23.608H1312.86C1312.69 24.3547 1312.54 24.9413 1312.42 25.368L1311.39 28.408ZM1319.03 33L1319.96 21.64H1322.15L1324.39 27.256L1324.95 28.92H1324.98C1325.18 28.2587 1325.37 27.704 1325.54 27.256L1327.78 21.64H1329.97L1330.9 33H1328.84L1328.37 26.648C1328.35 26.424 1328.34 26.168 1328.34 25.88C1328.34 25.5813 1328.35 25.3413 1328.36 25.16V24.888H1328.33C1328.08 25.624 1327.87 26.2107 1327.7 26.648L1325.86 31.048H1324.07L1322.23 26.648L1321.61 24.872H1321.57C1321.61 25.5547 1321.6 26.1467 1321.56 26.648L1321.09 33H1319.03ZM1333.23 33V21.64H1335.29V28.2L1335.18 29.96H1335.21C1335.57 29.224 1335.89 28.632 1336.17 28.184L1340.46 21.64H1342.51V33H1340.46V26.456L1340.57 24.696H1340.54C1340.19 25.4213 1339.87 26.008 1339.6 26.456L1335.28 33H1333.23Z" fill="#252525"/>
<rect x="1378" width="400" height="55" rx="27.5" fill="#F3F6FF"/>
<path d="M1402.56 26.952C1402.56 25.5653 1403.04 24.4347 1404 23.56C1404.97 22.6853 1406.22 22.248 1407.76 22.248V21H1409.82V22.248C1411.36 22.248 1412.61 22.6853 1413.57 23.56C1414.54 24.4347 1415.02 25.5653 1415.02 26.952C1415.02 28.3707 1414.54 29.528 1413.58 30.424C1412.62 31.3093 1411.37 31.752 1409.82 31.752V33.192H1407.76V31.752C1406.22 31.752 1404.97 31.304 1404 30.408C1403.04 29.512 1402.56 28.36 1402.56 26.952ZM1409.82 30.024C1410.74 30.024 1411.49 29.7413 1412.06 29.176C1412.64 28.6 1412.93 27.8587 1412.93 26.952C1412.93 26.0667 1412.64 25.352 1412.06 24.808C1411.49 24.2533 1410.74 23.976 1409.82 23.976V30.024ZM1404.67 26.952C1404.67 27.8587 1404.95 28.6 1405.52 29.176C1406.1 29.7413 1406.84 30.024 1407.76 30.024V23.976C1406.84 23.976 1406.1 24.2533 1405.52 24.808C1404.95 25.352 1404.67 26.0667 1404.67 26.952ZM1415.39 33L1419.38 21.64H1421.55L1425.54 33H1423.43L1422.45 30.088H1418.47L1417.51 33H1415.39ZM1418.98 28.408H1421.94L1420.93 25.368L1420.48 23.608H1420.45C1420.28 24.3547 1420.13 24.9413 1420 25.368L1418.98 28.408ZM1427.05 33V21.64H1431.43C1432.5 21.64 1433.37 21.9813 1434.04 22.664C1434.71 23.3467 1435.05 24.2373 1435.05 25.336C1435.05 26.4347 1434.71 27.336 1434.04 28.04C1433.37 28.7333 1432.5 29.08 1431.43 29.08H1429.11V33H1427.05ZM1429.11 27.288H1431.05C1431.65 27.288 1432.11 27.112 1432.44 26.76C1432.78 26.408 1432.95 25.9333 1432.95 25.336C1432.95 24.7493 1432.78 24.2853 1432.44 23.944C1432.11 23.592 1431.66 23.416 1431.08 23.416H1429.11V27.288ZM1436.41 33L1437.34 21.64H1439.53L1441.77 27.256L1442.33 28.92H1442.36C1442.57 28.2587 1442.75 27.704 1442.92 27.256L1445.16 21.64H1447.36L1448.28 33H1446.22L1445.76 26.648C1445.74 26.424 1445.72 26.168 1445.72 25.88C1445.72 25.5813 1445.73 25.3413 1445.74 25.16V24.888H1445.71C1445.46 25.624 1445.26 26.2107 1445.08 26.648L1443.24 31.048H1441.45L1439.61 26.648L1438.99 24.872H1438.96C1438.99 25.5547 1438.98 26.1467 1438.94 26.648L1438.48 33H1436.41ZM1449.36 33L1453.35 21.64H1455.52L1459.51 33H1457.39L1456.42 30.088H1452.43L1451.47 33H1449.36ZM1452.95 28.408H1455.91L1454.9 25.368L1454.45 23.608H1454.42C1454.25 24.3547 1454.1 24.9413 1453.97 25.368L1452.95 28.408ZM1461.02 33V21.64H1463.08V31.224H1467.99V21.64H1470.06V31.224H1471.4V35.24H1469.56V33H1461.02ZM1473.36 33V21.64H1480.16V23.416H1475.42V26.392H1479.25V28.168H1475.42V31.224H1480.42V33H1473.36ZM1482.47 33V21.64H1486.52C1487.57 21.64 1488.42 21.9013 1489.06 22.424C1489.71 22.936 1490.04 23.6507 1490.04 24.568C1490.04 25.1013 1489.92 25.5813 1489.67 26.008C1489.42 26.4347 1489.09 26.7653 1488.66 27V27.032C1489.26 27.2027 1489.71 27.5387 1490.02 28.04C1490.34 28.5413 1490.5 29.096 1490.5 29.704C1490.5 30.7813 1490.13 31.6027 1489.38 32.168C1488.64 32.7227 1487.7 33 1486.58 33H1482.47ZM1484.53 26.28H1486.53C1486.97 26.28 1487.31 26.1467 1487.56 25.88C1487.81 25.6027 1487.94 25.2507 1487.94 24.824C1487.94 24.408 1487.81 24.072 1487.56 23.816C1487.31 23.5493 1486.96 23.416 1486.5 23.416H1484.53V26.28ZM1484.53 31.224H1486.74C1487.25 31.224 1487.65 31.0747 1487.94 30.776C1488.24 30.4667 1488.39 30.0667 1488.39 29.576C1488.39 29.096 1488.24 28.7067 1487.94 28.408C1487.65 28.0987 1487.25 27.944 1486.74 27.944H1484.53V31.224ZM1494.87 33V23.416H1491.15V21.64H1500.65V23.416H1496.92V33H1494.87ZM1502.27 33V21.64H1504.33V28.2L1504.22 29.96H1504.25C1504.61 29.224 1504.93 28.632 1505.21 28.184L1509.5 21.64H1511.55V33H1509.5V26.456L1509.61 24.696H1509.58C1509.23 25.4213 1508.91 26.008 1508.63 26.456L1504.31 33H1502.27ZM1517.15 28.776C1515.98 28.776 1515.11 28.4827 1514.54 27.896C1513.96 27.2987 1513.67 26.456 1513.67 25.368V21.64H1515.77V24.904C1515.77 26.2373 1516.4 26.904 1517.67 26.904C1518.54 26.904 1519.32 26.68 1520.01 26.232V21.64H1522.11V33H1520.01V28.6L1520.04 28.072H1520.01C1519.09 28.5413 1518.14 28.776 1517.15 28.776ZM1524.88 33V21.64H1531.68V23.416H1526.94V26.392H1530.76V28.168H1526.94V31.224H1531.93V33H1524.88ZM1533.13 27.272C1533.13 25.608 1533.68 24.2213 1534.77 23.112C1535.87 22.0027 1537.27 21.448 1538.97 21.448C1540.69 21.448 1542.09 21.9653 1543.16 23L1542.17 24.536C1541.75 24.184 1541.26 23.896 1540.69 23.672C1540.14 23.448 1539.6 23.336 1539.06 23.336C1537.87 23.336 1536.93 23.7093 1536.26 24.456C1535.59 25.2027 1535.25 26.1307 1535.25 27.24C1535.25 28.36 1535.6 29.32 1536.28 30.12C1536.96 30.9093 1537.89 31.304 1539.08 31.304C1540.29 31.304 1541.39 30.824 1542.37 29.864L1543.46 31.352C1542.26 32.5787 1540.77 33.192 1539 33.192C1537.24 33.192 1535.82 32.632 1534.74 31.512C1533.66 30.392 1533.13 28.9787 1533.13 27.272ZM1545.24 33V21.64H1547.3V26.264H1548.77L1551.44 21.64H1553.68L1550.47 27.048V27.08L1553.88 33H1551.54L1548.77 28.04H1547.3V33H1545.24ZM1554.47 27.24C1554.47 25.608 1555.03 24.2373 1556.15 23.128C1557.28 22.008 1558.68 21.448 1560.34 21.448C1562.01 21.448 1563.4 22.008 1564.52 23.128C1565.65 24.2373 1566.21 25.608 1566.21 27.24C1566.21 28.9147 1565.65 30.328 1564.52 31.48C1563.4 32.6213 1562.01 33.192 1560.34 33.192C1558.68 33.192 1557.28 32.6213 1556.15 31.48C1555.03 30.328 1554.47 28.9147 1554.47 27.24ZM1556.6 27.24C1556.6 28.392 1556.96 29.3573 1557.69 30.136C1558.41 30.9147 1559.3 31.304 1560.34 31.304C1561.39 31.304 1562.27 30.9147 1563 30.136C1563.72 29.3573 1564.09 28.392 1564.09 27.24C1564.09 26.1413 1563.72 25.2187 1563 24.472C1562.27 23.7147 1561.39 23.336 1560.34 23.336C1559.3 23.336 1558.41 23.7147 1557.69 24.472C1556.96 25.2187 1556.6 26.1413 1556.6 27.24ZM1568.3 33V21.64H1575.1V23.416H1570.36V26.392H1574.19V28.168H1570.36V31.224H1575.35V33H1568.3ZM1581.41 33V21.64H1583.47V26.264H1584.94L1587.62 21.64H1589.86L1586.64 27.048V27.08L1590.05 33H1587.71L1584.94 28.04H1583.47V33H1581.41ZM1590.64 27.24C1590.64 25.608 1591.2 24.2373 1592.32 23.128C1593.45 22.008 1594.85 21.448 1596.51 21.448C1598.18 21.448 1599.57 22.008 1600.69 23.128C1601.82 24.2373 1602.39 25.608 1602.39 27.24C1602.39 28.9147 1601.82 30.328 1600.69 31.48C1599.57 32.6213 1598.18 33.192 1596.51 33.192C1594.85 33.192 1593.45 32.6213 1592.32 31.48C1591.2 30.328 1590.64 28.9147 1590.64 27.24ZM1592.77 27.24C1592.77 28.392 1593.13 29.3573 1593.86 30.136C1594.58 30.9147 1595.47 31.304 1596.51 31.304C1597.56 31.304 1598.44 30.9147 1599.17 30.136C1599.89 29.3573 1600.26 28.392 1600.26 27.24C1600.26 26.1413 1599.89 25.2187 1599.17 24.472C1598.44 23.7147 1597.56 23.336 1596.51 23.336C1595.47 23.336 1594.58 23.7147 1593.86 24.472C1593.13 25.2187 1592.77 26.1413 1592.77 27.24ZM1604.47 33V21.64H1606.53V26.456H1611.73V21.64H1613.78V33H1611.73V28.232H1606.53V33H1604.47ZM1615.88 27.272C1615.88 25.608 1616.43 24.2213 1617.52 23.112C1618.62 22.0027 1620.02 21.448 1621.72 21.448C1623.44 21.448 1624.84 21.9653 1625.91 23L1624.92 24.536C1624.5 24.184 1624.01 23.896 1623.44 23.672C1622.89 23.448 1622.35 23.336 1621.81 23.336C1620.62 23.336 1619.68 23.7093 1619.01 24.456C1618.34 25.2027 1618 26.1307 1618 27.24C1618 28.36 1618.35 29.32 1619.03 30.12C1619.71 30.9093 1620.64 31.304 1621.83 31.304C1623.04 31.304 1624.14 30.824 1625.12 29.864L1626.21 31.352C1625.01 32.5787 1623.52 33.192 1621.75 33.192C1619.99 33.192 1618.57 32.632 1617.49 31.512C1616.41 30.392 1615.88 28.9787 1615.88 27.272ZM1627.68 32.408L1628.59 30.856C1629.07 31.2293 1629.5 31.416 1629.87 31.416C1630.37 31.416 1630.75 31.0853 1631.01 30.424L1626.56 21.64H1628.83L1631.25 26.712L1631.89 28.216H1631.92C1632.06 27.7147 1632.21 27.2187 1632.39 26.728L1634.21 21.64H1636.37L1632.87 30.616C1632.73 30.968 1632.58 31.2773 1632.43 31.544C1632.28 31.8107 1632.09 32.0773 1631.86 32.344C1631.62 32.6107 1631.35 32.8187 1631.03 32.968C1630.71 33.1173 1630.35 33.192 1629.95 33.192C1629.19 33.192 1628.43 32.9307 1627.68 32.408ZM1635.94 31.24C1636.8 31.1227 1637.41 30.5573 1637.8 29.544C1638.19 28.52 1638.39 26.92 1638.39 24.744V21.64H1645.41V33H1643.35V23.416H1640.36V24.776C1640.36 27.5707 1640.01 29.6507 1639.32 31.016C1638.63 32.3707 1637.5 33.0747 1635.94 33.128V31.24ZM1648.17 33V21.64H1650.24V25.624H1652.46C1653.51 25.624 1654.36 25.9653 1655.02 26.648C1655.68 27.32 1656.01 28.216 1656.01 29.336C1656.01 30.424 1655.69 31.3093 1655.04 31.992C1654.39 32.664 1653.54 33 1652.49 33H1648.17ZM1650.24 31.224H1652.12C1652.69 31.224 1653.13 31.0587 1653.44 30.728C1653.76 30.3867 1653.92 29.9227 1653.92 29.336C1653.92 28.7493 1653.75 28.28 1653.42 27.928C1653.1 27.576 1652.66 27.4 1652.09 27.4H1650.24V31.224ZM1659.33 33V23.416H1655.6V21.64H1665.1V23.416H1661.38V33H1659.33ZM1666.72 33V21.64H1668.78V28.2L1668.67 29.96H1668.7C1669.07 29.224 1669.39 28.632 1669.66 28.184L1673.95 21.64H1676V33H1673.95V26.456L1674.06 24.696H1674.03C1673.68 25.4213 1673.37 26.008 1673.09 26.456L1668.77 33H1666.72ZM1678.77 33V21.64H1683.15C1684.22 21.64 1685.09 21.9813 1685.76 22.664C1686.43 23.3467 1686.77 24.2373 1686.77 25.336C1686.77 26.4347 1686.43 27.336 1685.76 28.04C1685.09 28.7333 1684.22 29.08 1683.15 29.08H1680.83V33H1678.77ZM1680.83 27.288H1682.77C1683.36 27.288 1683.83 27.112 1684.16 26.76C1684.5 26.408 1684.67 25.9333 1684.67 25.336C1684.67 24.7493 1684.5 24.2853 1684.16 23.944C1683.83 23.592 1683.37 23.416 1682.8 23.416H1680.83V27.288ZM1687.89 27.24C1687.89 25.608 1688.45 24.2373 1689.57 23.128C1690.7 22.008 1692.1 21.448 1693.76 21.448C1695.43 21.448 1696.82 22.008 1697.94 23.128C1699.07 24.2373 1699.64 25.608 1699.64 27.24C1699.64 28.9147 1699.07 30.328 1697.94 31.48C1696.82 32.6213 1695.43 33.192 1693.76 33.192C1692.1 33.192 1690.7 32.6213 1689.57 31.48C1688.45 30.328 1687.89 28.9147 1687.89 27.24ZM1690.02 27.24C1690.02 28.392 1690.38 29.3573 1691.11 30.136C1691.83 30.9147 1692.72 31.304 1693.76 31.304C1694.81 31.304 1695.69 30.9147 1696.42 30.136C1697.14 29.3573 1697.51 28.392 1697.51 27.24C1697.51 26.1413 1697.14 25.2187 1696.42 24.472C1695.69 23.7147 1694.81 23.336 1693.76 23.336C1692.72 23.336 1691.83 23.7147 1691.11 24.472C1690.38 25.2187 1690.02 26.1413 1690.02 27.24ZM1701.72 33V21.64H1705.77C1706.82 21.64 1707.67 21.9013 1708.31 22.424C1708.96 22.936 1709.29 23.6507 1709.29 24.568C1709.29 25.1013 1709.17 25.5813 1708.92 26.008C1708.67 26.4347 1708.34 26.7653 1707.91 27V27.032C1708.51 27.2027 1708.96 27.5387 1709.27 28.04C1709.59 28.5413 1709.75 29.096 1709.75 29.704C1709.75 30.7813 1709.38 31.6027 1708.63 32.168C1707.89 32.7227 1706.95 33 1705.83 33H1701.72ZM1703.78 26.28H1705.78C1706.22 26.28 1706.56 26.1467 1706.81 25.88C1707.06 25.6027 1707.19 25.2507 1707.19 24.824C1707.19 24.408 1707.06 24.072 1706.81 23.816C1706.56 23.5493 1706.21 23.416 1705.75 23.416H1703.78V26.28ZM1703.78 31.224H1705.99C1706.5 31.224 1706.9 31.0747 1707.19 30.776C1707.49 30.4667 1707.64 30.0667 1707.64 29.576C1707.64 29.096 1707.49 28.7067 1707.19 28.408C1706.9 28.0987 1706.5 27.944 1705.99 27.944H1703.78V31.224ZM1710.47 33L1714.46 21.64H1716.63L1720.62 33H1718.5L1717.53 30.088H1713.54L1712.58 33H1710.47ZM1714.06 28.408H1717.02L1716.01 25.368L1715.56 23.608H1715.53C1715.36 24.3547 1715.21 24.9413 1715.08 25.368L1714.06 28.408ZM1722.13 33V21.64H1724.19V26.456H1729.39V21.64H1731.44V33H1729.39V28.232H1724.19V33H1722.13ZM1734.19 33V21.64H1736.25V28.2L1736.14 29.96H1736.17C1736.54 29.224 1736.86 28.632 1737.13 28.184L1741.42 21.64H1743.47V33H1741.42V26.456L1741.53 24.696H1741.5C1741.15 25.4213 1740.83 26.008 1740.56 26.456L1736.24 33H1734.19ZM1746.24 33V21.64H1753.04V23.416H1748.3V26.392H1752.12V28.168H1748.3V31.224H1753.29V33H1746.24Z" fill="#005DFF"/>
<rect x="1788" width="579" height="55" rx="27.5" fill="#F3F6FF"/>
<path d="M1813.76 33V21.64H1822.96V33H1820.89V23.416H1815.82V33H1813.76ZM1825.71 33V21.64H1830.1C1831.16 21.64 1832.03 21.9813 1832.7 22.664C1833.38 23.3467 1833.71 24.2373 1833.71 25.336C1833.71 26.4347 1833.38 27.336 1832.7 28.04C1832.03 28.7333 1831.16 29.08 1830.1 29.08H1827.78V33H1825.71ZM1827.78 27.288H1829.71C1830.31 27.288 1830.77 27.112 1831.1 26.76C1831.45 26.408 1831.62 25.9333 1831.62 25.336C1831.62 24.7493 1831.45 24.2853 1831.1 23.944C1830.77 23.592 1830.32 23.416 1829.74 23.416H1827.78V27.288ZM1835.51 33V21.64H1837.57V28.2L1837.46 29.96H1837.49C1837.86 29.224 1838.18 28.632 1838.45 28.184L1842.74 21.64H1844.79V33H1842.74V26.456L1842.85 24.696H1842.82C1842.47 25.4213 1842.15 26.008 1841.88 26.456L1837.56 33H1835.51ZM1847.56 33V21.64H1854.36V23.416H1849.62V26.392H1853.44V28.168H1849.62V31.224H1854.61V33H1847.56ZM1856.23 33L1857.16 21.64H1859.35L1861.59 27.256L1862.15 28.92H1862.19C1862.39 28.2587 1862.57 27.704 1862.75 27.256L1864.99 21.64H1867.18L1868.11 33H1866.04L1865.58 26.648C1865.56 26.424 1865.55 26.168 1865.55 25.88C1865.55 25.5813 1865.55 25.3413 1865.56 25.16V24.888H1865.53C1865.28 25.624 1865.08 26.2107 1864.91 26.648L1863.07 31.048H1861.27L1859.43 26.648L1858.81 24.872H1858.78C1858.81 25.5547 1858.8 26.1467 1858.76 26.648L1858.3 33H1856.23ZM1869.76 27.24C1869.76 25.608 1870.32 24.2373 1871.44 23.128C1872.57 22.008 1873.97 21.448 1875.63 21.448C1877.29 21.448 1878.69 22.008 1879.81 23.128C1880.94 24.2373 1881.5 25.608 1881.5 27.24C1881.5 28.9147 1880.94 30.328 1879.81 31.48C1878.69 32.6213 1877.29 33.192 1875.63 33.192C1873.97 33.192 1872.57 32.6213 1871.44 31.48C1870.32 30.328 1869.76 28.9147 1869.76 27.24ZM1871.89 27.24C1871.89 28.392 1872.25 29.3573 1872.97 30.136C1873.7 30.9147 1874.59 31.304 1875.63 31.304C1876.68 31.304 1877.56 30.9147 1878.29 30.136C1879.01 29.3573 1879.37 28.392 1879.37 27.24C1879.37 26.1413 1879.01 25.2187 1878.29 24.472C1877.56 23.7147 1876.68 23.336 1875.63 23.336C1874.59 23.336 1873.7 23.7147 1872.97 24.472C1872.25 25.2187 1871.89 26.1413 1871.89 27.24ZM1886.42 28.776C1885.26 28.776 1884.39 28.4827 1883.81 27.896C1883.23 27.2987 1882.95 26.456 1882.95 25.368V21.64H1885.04V24.904C1885.04 26.2373 1885.68 26.904 1886.95 26.904C1887.81 26.904 1888.59 26.68 1889.28 26.232V21.64H1891.38V33H1889.28V28.6L1889.31 28.072H1889.28C1888.37 28.5413 1887.41 28.776 1886.42 28.776ZM1894.15 33V21.64H1896.21V26.456H1901.41V21.64H1903.46V33H1901.41V28.232H1896.21V33H1894.15ZM1915.41 33V21.64H1917.46V33H1915.41ZM1906.21 33V21.64H1908.28V25.624H1910.39C1911.44 25.624 1912.3 25.9653 1912.95 26.648C1913.61 27.32 1913.94 28.216 1913.94 29.336C1913.94 30.424 1913.61 31.3093 1912.96 31.992C1912.31 32.664 1911.47 33 1910.44 33H1906.21ZM1908.28 31.224H1910.07C1910.63 31.224 1911.07 31.0587 1911.38 30.728C1911.69 30.3867 1911.84 29.9227 1911.84 29.336C1911.84 28.7493 1911.68 28.28 1911.36 27.928C1911.04 27.576 1910.6 27.4 1910.04 27.4H1908.28V31.224ZM1926.82 20.536C1926.31 20.9307 1925.69 21.128 1924.96 21.128C1924.24 21.128 1923.62 20.9307 1923.11 20.536C1922.6 20.1307 1922.34 19.592 1922.34 18.92V18.712H1923.89V18.92C1923.89 19.24 1924 19.4907 1924.21 19.672C1924.42 19.8427 1924.68 19.928 1924.96 19.928C1925.25 19.928 1925.5 19.8427 1925.72 19.672C1925.94 19.4907 1926.05 19.2347 1926.05 18.904V18.712H1927.59V18.92C1927.59 19.592 1927.33 20.1307 1926.82 20.536ZM1920.23 33V21.64H1922.29V28.2L1922.18 29.96H1922.21C1922.57 29.224 1922.89 28.632 1923.17 28.184L1927.46 21.64H1929.51V33H1927.46V26.456L1927.57 24.696H1927.54C1927.19 25.4213 1926.87 26.008 1926.6 26.456L1922.28 33H1920.23ZM1936.27 33V21.64H1938.34V26.264H1939.81L1942.48 21.64H1944.72L1941.51 27.048V27.08L1944.91 33H1942.58L1939.81 28.04H1938.34V33H1936.27ZM1945.51 27.24C1945.51 25.608 1946.07 24.2373 1947.19 23.128C1948.32 22.008 1949.72 21.448 1951.38 21.448C1953.04 21.448 1954.44 22.008 1955.56 23.128C1956.69 24.2373 1957.25 25.608 1957.25 27.24C1957.25 28.9147 1956.69 30.328 1955.56 31.48C1954.44 32.6213 1953.04 33.192 1951.38 33.192C1949.72 33.192 1948.32 32.6213 1947.19 31.48C1946.07 30.328 1945.51 28.9147 1945.51 27.24ZM1947.64 27.24C1947.64 28.392 1948 29.3573 1948.72 30.136C1949.45 30.9147 1950.34 31.304 1951.38 31.304C1952.43 31.304 1953.31 30.9147 1954.04 30.136C1954.76 29.3573 1955.12 28.392 1955.12 27.24C1955.12 26.1413 1954.76 25.2187 1954.04 24.472C1953.31 23.7147 1952.43 23.336 1951.38 23.336C1950.34 23.336 1949.45 23.7147 1948.72 24.472C1948 25.2187 1947.64 26.1413 1947.64 27.24ZM1959.34 33V21.64H1961.4V26.456H1966.6V21.64H1968.65V33H1966.6V28.232H1961.4V33H1959.34ZM1973.98 33V23.416H1970.25V21.64H1979.75V23.416H1976.02V33H1973.98ZM1981.37 33V21.64H1985.75C1986.82 21.64 1987.69 21.9813 1988.36 22.664C1989.03 23.3467 1989.37 24.2373 1989.37 25.336C1989.37 26.4347 1989.03 27.336 1988.36 28.04C1987.69 28.7333 1986.82 29.08 1985.75 29.08H1983.43V33H1981.37ZM1983.43 27.288H1985.37C1985.97 27.288 1986.43 27.112 1986.76 26.76C1987.1 26.408 1987.27 25.9333 1987.27 25.336C1987.27 24.7493 1987.1 24.2853 1986.76 23.944C1986.43 23.592 1985.98 23.416 1985.4 23.416H1983.43V27.288ZM1990.49 27.24C1990.49 25.608 1991.05 24.2373 1992.17 23.128C1993.3 22.008 1994.7 21.448 1996.37 21.448C1998.03 21.448 1999.42 22.008 2000.54 23.128C2001.67 24.2373 2002.24 25.608 2002.24 27.24C2002.24 28.9147 2001.67 30.328 2000.54 31.48C1999.42 32.6213 1998.03 33.192 1996.37 33.192C1994.7 33.192 1993.3 32.6213 1992.17 31.48C1991.05 30.328 1990.49 28.9147 1990.49 27.24ZM1992.62 27.24C1992.62 28.392 1992.98 29.3573 1993.71 30.136C1994.43 30.9147 1995.32 31.304 1996.37 31.304C1997.41 31.304 1998.3 30.9147 1999.02 30.136C1999.75 29.3573 2000.11 28.392 2000.11 27.24C2000.11 26.1413 1999.75 25.2187 1999.02 24.472C1998.3 23.7147 1997.41 23.336 1996.37 23.336C1995.32 23.336 1994.43 23.7147 1993.71 24.472C1992.98 25.2187 1992.62 26.1413 1992.62 27.24ZM2002.86 31.24C2003.71 31.1227 2004.33 30.5573 2004.71 29.544C2005.11 28.52 2005.3 26.92 2005.3 24.744V21.64H2012.33V33H2010.26V23.416H2007.27V24.776C2007.27 27.5707 2006.93 29.6507 2006.23 31.016C2005.54 32.3707 2004.41 33.0747 2002.86 33.128V31.24ZM2015.09 33V21.64H2017.15V25.624H2019.37C2020.42 25.624 2021.27 25.9653 2021.93 26.648C2022.6 27.32 2022.93 28.216 2022.93 29.336C2022.93 30.424 2022.6 31.3093 2021.95 31.992C2021.3 32.664 2020.45 33 2019.41 33H2015.09ZM2017.15 31.224H2019.04C2019.6 31.224 2020.04 31.0587 2020.35 30.728C2020.67 30.3867 2020.83 29.9227 2020.83 29.336C2020.83 28.7493 2020.67 28.28 2020.33 27.928C2020.01 27.576 2019.57 27.4 2019.01 27.4H2017.15V31.224ZM2028.73 33V21.64H2032.78C2033.83 21.64 2034.68 21.9013 2035.32 22.424C2035.97 22.936 2036.3 23.6507 2036.3 24.568C2036.3 25.1013 2036.17 25.5813 2035.93 26.008C2035.68 26.4347 2035.35 26.7653 2034.92 27V27.032C2035.52 27.2027 2035.97 27.5387 2036.28 28.04C2036.6 28.5413 2036.76 29.096 2036.76 29.704C2036.76 30.7813 2036.39 31.6027 2035.64 32.168C2034.89 32.7227 2033.96 33 2032.84 33H2028.73ZM2030.79 26.28H2032.79C2033.23 26.28 2033.57 26.1467 2033.82 25.88C2034.07 25.6027 2034.2 25.2507 2034.2 24.824C2034.2 24.408 2034.07 24.072 2033.82 23.816C2033.57 23.5493 2033.22 23.416 2032.76 23.416H2030.79V26.28ZM2030.79 31.224H2033C2033.51 31.224 2033.91 31.0747 2034.2 30.776C2034.5 30.4667 2034.65 30.0667 2034.65 29.576C2034.65 29.096 2034.5 28.7067 2034.2 28.408C2033.91 28.0987 2033.51 27.944 2033 27.944H2030.79V31.224ZM2042 26.952C2042 25.5653 2042.48 24.4347 2043.44 23.56C2044.42 22.6853 2045.67 22.248 2047.2 22.248V21H2049.27V22.248C2050.8 22.248 2052.05 22.6853 2053.01 23.56C2053.98 24.4347 2054.47 25.5653 2054.47 26.952C2054.47 28.3707 2053.99 29.528 2053.03 30.424C2052.07 31.3093 2050.82 31.752 2049.27 31.752V33.192H2047.2V31.752C2045.67 31.752 2044.42 31.304 2043.44 30.408C2042.48 29.512 2042 28.36 2042 26.952ZM2049.27 30.024C2050.19 30.024 2050.93 29.7413 2051.51 29.176C2052.08 28.6 2052.37 27.8587 2052.37 26.952C2052.37 26.0667 2052.08 25.352 2051.51 24.808C2050.93 24.2533 2050.19 23.976 2049.27 23.976V30.024ZM2044.12 26.952C2044.12 27.8587 2044.4 28.6 2044.96 29.176C2045.54 29.7413 2046.29 30.024 2047.2 30.024V23.976C2046.29 23.976 2045.54 24.2533 2044.96 24.808C2044.4 25.352 2044.12 26.0667 2044.12 26.952ZM2054.84 33L2058.82 21.64H2061L2064.98 33H2062.87L2061.89 30.088H2057.91L2056.95 33H2054.84ZM2058.42 28.408H2061.38L2060.37 25.368L2059.93 23.608H2059.89C2059.72 24.3547 2059.57 24.9413 2059.45 25.368L2058.42 28.408ZM2066.49 33V21.64H2070.88C2071.94 21.64 2072.81 21.9813 2073.49 22.664C2074.16 23.3467 2074.49 24.2373 2074.49 25.336C2074.49 26.4347 2074.16 27.336 2073.49 28.04C2072.81 28.7333 2071.94 29.08 2070.88 29.08H2068.56V33H2066.49ZM2068.56 27.288H2070.49C2071.09 27.288 2071.55 27.112 2071.89 26.76C2072.23 26.408 2072.4 25.9333 2072.4 25.336C2072.4 24.7493 2072.23 24.2853 2071.89 23.944C2071.55 23.592 2071.1 23.416 2070.53 23.416H2068.56V27.288ZM2075.86 33L2076.79 21.64H2078.98L2081.22 27.256L2081.78 28.92H2081.81C2082.01 28.2587 2082.2 27.704 2082.37 27.256L2084.61 21.64H2086.8L2087.73 33H2085.67L2085.2 26.648C2085.18 26.424 2085.17 26.168 2085.17 25.88C2085.17 25.5813 2085.18 25.3413 2085.19 25.16V24.888H2085.15C2084.91 25.624 2084.7 26.2107 2084.53 26.648L2082.69 31.048H2080.9L2079.06 26.648L2078.43 24.872H2078.4C2078.43 25.5547 2078.43 26.1467 2078.39 26.648L2077.92 33H2075.86ZM2088.81 33L2092.79 21.64H2094.97L2098.95 33H2096.84L2095.86 30.088H2091.88L2090.92 33H2088.81ZM2092.39 28.408H2095.35L2094.34 25.368L2093.9 23.608H2093.86C2093.69 24.3547 2093.54 24.9413 2093.42 25.368L2092.39 28.408ZM2100.46 33V21.64H2102.53V31.224H2107.44V21.64H2109.5V31.224H2110.85V35.24H2109.01V33H2100.46ZM2112.81 33V21.64H2119.61V23.416H2114.87V26.392H2118.69V28.168H2114.87V31.224H2119.86V33H2112.81ZM2121.92 33V21.64H2125.96C2127.02 21.64 2127.87 21.9013 2128.51 22.424C2129.16 22.936 2129.48 23.6507 2129.48 24.568C2129.48 25.1013 2129.36 25.5813 2129.12 26.008C2128.87 26.4347 2128.53 26.7653 2128.11 27V27.032C2128.7 27.2027 2129.16 27.5387 2129.47 28.04C2129.79 28.5413 2129.95 29.096 2129.95 29.704C2129.95 30.7813 2129.57 31.6027 2128.83 32.168C2128.08 32.7227 2127.15 33 2126.03 33H2121.92ZM2123.98 26.28H2125.98C2126.42 26.28 2126.76 26.1467 2127 25.88C2127.26 25.6027 2127.39 25.2507 2127.39 24.824C2127.39 24.408 2127.26 24.072 2127 23.816C2126.76 23.5493 2126.41 23.416 2125.95 23.416H2123.98V26.28ZM2123.98 31.224H2126.19C2126.7 31.224 2127.1 31.0747 2127.39 30.776C2127.69 30.4667 2127.84 30.0667 2127.84 29.576C2127.84 29.096 2127.69 28.7067 2127.39 28.408C2127.1 28.0987 2126.7 27.944 2126.19 27.944H2123.98V31.224ZM2134.32 33V23.416H2130.59V21.64H2140.1V23.416H2136.37V33H2134.32ZM2141.71 33V21.64H2143.78V28.2L2143.66 29.96H2143.7C2144.06 29.224 2144.38 28.632 2144.66 28.184L2148.94 21.64H2150.99V33H2148.94V26.456L2149.06 24.696H2149.02C2148.67 25.4213 2148.36 26.008 2148.08 26.456L2143.76 33H2141.71ZM2156.59 28.776C2155.43 28.776 2154.56 28.4827 2153.98 27.896C2153.41 27.2987 2153.12 26.456 2153.12 25.368V21.64H2155.21V24.904C2155.21 26.2373 2155.85 26.904 2157.12 26.904C2157.98 26.904 2158.76 26.68 2159.45 26.232V21.64H2161.55V33H2159.45V28.6L2159.49 28.072H2159.45C2158.54 28.5413 2157.58 28.776 2156.59 28.776ZM2164.32 33V21.64H2171.12V23.416H2166.39V26.392H2170.21V28.168H2166.39V31.224H2171.38V33H2164.32ZM2172.57 27.272C2172.57 25.608 2173.12 24.2213 2174.22 23.112C2175.32 22.0027 2176.72 21.448 2178.41 21.448C2180.14 21.448 2181.54 21.9653 2182.6 23L2181.61 24.536C2181.2 24.184 2180.7 23.896 2180.14 23.672C2179.58 23.448 2179.04 23.336 2178.51 23.336C2177.31 23.336 2176.38 23.7093 2175.71 24.456C2175.04 25.2027 2174.7 26.1307 2174.7 27.24C2174.7 28.36 2175.04 29.32 2175.72 30.12C2176.41 30.9093 2177.34 31.304 2178.52 31.304C2179.74 31.304 2180.84 30.824 2181.82 29.864L2182.91 31.352C2181.7 32.5787 2180.21 33.192 2178.44 33.192C2176.68 33.192 2175.26 32.632 2174.19 31.512C2173.11 30.392 2172.57 28.9787 2172.57 27.272ZM2184.68 33V21.64H2186.74V26.264H2188.22L2190.89 21.64H2193.13L2189.91 27.048V27.08L2193.32 33H2190.98L2188.22 28.04H2186.74V33H2184.68ZM2193.91 27.24C2193.91 25.608 2194.47 24.2373 2195.59 23.128C2196.73 22.008 2198.12 21.448 2199.79 21.448C2201.45 21.448 2202.84 22.008 2203.96 23.128C2205.09 24.2373 2205.66 25.608 2205.66 27.24C2205.66 28.9147 2205.09 30.328 2203.96 31.48C2202.84 32.6213 2201.45 33.192 2199.79 33.192C2198.12 33.192 2196.73 32.6213 2195.59 31.48C2194.47 30.328 2193.91 28.9147 2193.91 27.24ZM2196.04 27.24C2196.04 28.392 2196.41 29.3573 2197.13 30.136C2197.86 30.9147 2198.74 31.304 2199.79 31.304C2200.83 31.304 2201.72 30.9147 2202.44 30.136C2203.17 29.3573 2203.53 28.392 2203.53 27.24C2203.53 26.1413 2203.17 25.2187 2202.44 24.472C2201.72 23.7147 2200.83 23.336 2199.79 23.336C2198.74 23.336 2197.86 23.7147 2197.13 24.472C2196.41 25.2187 2196.04 26.1413 2196.04 27.24ZM2214.34 20.536C2213.82 20.9307 2213.2 21.128 2212.48 21.128C2211.75 21.128 2211.14 20.9307 2210.62 20.536C2210.11 20.1307 2209.86 19.592 2209.86 18.92V18.712H2211.41V18.92C2211.41 19.24 2211.51 19.4907 2211.73 19.672C2211.94 19.8427 2212.19 19.928 2212.48 19.928C2212.77 19.928 2213.02 19.8427 2213.23 19.672C2213.46 19.4907 2213.57 19.2347 2213.57 18.904V18.712H2215.1V18.92C2215.1 19.592 2214.85 20.1307 2214.34 20.536ZM2207.74 33V21.64H2209.81V28.2L2209.7 29.96H2209.73C2210.09 29.224 2210.41 28.632 2210.69 28.184L2214.98 21.64H2217.02V33H2214.98V26.456L2215.09 24.696H2215.06C2214.7 25.4213 2214.39 26.008 2214.11 26.456L2209.79 33H2207.74ZM2223.12 27.24C2223.12 25.608 2223.68 24.2373 2224.8 23.128C2225.93 22.008 2227.33 21.448 2228.99 21.448C2230.65 21.448 2232.05 22.008 2233.17 23.128C2234.3 24.2373 2234.86 25.608 2234.86 27.24C2234.86 28.9147 2234.3 30.328 2233.17 31.48C2232.05 32.6213 2230.65 33.192 2228.99 33.192C2227.33 33.192 2225.93 32.6213 2224.8 31.48C2223.68 30.328 2223.12 28.9147 2223.12 27.24ZM2225.25 27.24C2225.25 28.392 2225.61 29.3573 2226.33 30.136C2227.06 30.9147 2227.94 31.304 2228.99 31.304C2230.04 31.304 2230.92 30.9147 2231.65 30.136C2232.37 29.3573 2232.73 28.392 2232.73 27.24C2232.73 26.1413 2232.37 25.2187 2231.65 24.472C2230.92 23.7147 2230.04 23.336 2228.99 23.336C2227.94 23.336 2227.06 23.7147 2226.33 24.472C2225.61 25.2187 2225.25 26.1413 2225.25 27.24ZM2236.95 33V21.64H2241.33C2242.4 21.64 2243.27 21.9813 2243.94 22.664C2244.61 23.3467 2244.95 24.2373 2244.95 25.336C2244.95 26.4347 2244.61 27.336 2243.94 28.04C2243.27 28.7333 2242.4 29.08 2241.33 29.08H2239.01V33H2236.95ZM2239.01 27.288H2240.95C2241.54 27.288 2242.01 27.112 2242.34 26.76C2242.68 26.408 2242.85 25.9333 2242.85 25.336C2242.85 24.7493 2242.68 24.2853 2242.34 23.944C2242.01 23.592 2241.55 23.416 2240.98 23.416H2239.01V27.288ZM2246.74 33V21.64H2253.27V23.416H2248.81V33H2246.74ZM2252.62 33L2256.6 21.64H2258.78L2262.76 33H2260.65L2259.68 30.088H2255.69L2254.73 33H2252.62ZM2256.2 28.408H2259.16L2258.16 25.368L2257.71 23.608H2257.68C2257.51 24.3547 2257.36 24.9413 2257.23 25.368L2256.2 28.408ZM2264.27 33V21.64H2266.34V26.456H2271.54V21.64H2273.59V33H2271.54V28.232H2266.34V33H2264.27ZM2276.34 33V21.64H2278.4V28.2L2278.29 29.96H2278.32C2278.68 29.224 2279 28.632 2279.28 28.184L2283.57 21.64H2285.62V33H2283.57V26.456L2283.68 24.696H2283.65C2283.3 25.4213 2282.98 26.008 2282.7 26.456L2278.38 33H2276.34ZM2287.36 31.576L2288.48 30.2C2288.79 30.5307 2289.17 30.808 2289.63 31.032C2290.09 31.256 2290.56 31.368 2291.04 31.368C2291.66 31.368 2292.15 31.2133 2292.51 30.904C2292.87 30.5947 2293.06 30.168 2293.06 29.624C2293.06 29.1333 2292.89 28.7493 2292.56 28.472C2292.24 28.184 2291.8 28.04 2291.25 28.04H2289.86V26.376H2290.98C2291.49 26.376 2291.91 26.2267 2292.24 25.928C2292.57 25.6293 2292.74 25.256 2292.74 24.808C2292.74 24.3493 2292.59 23.976 2292.29 23.688C2291.99 23.3893 2291.56 23.24 2290.99 23.24C2290.13 23.24 2289.31 23.56 2288.53 24.2L2287.7 22.696C2288.7 21.864 2289.91 21.448 2291.34 21.448C2292.31 21.448 2293.14 21.7253 2293.81 22.28C2294.49 22.8347 2294.83 23.592 2294.83 24.552C2294.83 25.672 2294.31 26.5147 2293.26 27.08V27.112C2293.85 27.2933 2294.31 27.6133 2294.66 28.072C2295 28.5307 2295.17 29.0907 2295.17 29.752C2295.17 30.7973 2294.79 31.6347 2294.03 32.264C2293.29 32.8827 2292.35 33.192 2291.23 33.192C2290.51 33.192 2289.8 33.0533 2289.1 32.776C2288.42 32.488 2287.84 32.088 2287.36 31.576ZM2295.9 33L2299.89 21.64H2302.06L2306.05 33H2303.93L2302.96 30.088H2298.97L2298.01 33H2295.9ZM2299.49 28.408H2302.45L2301.44 25.368L2300.99 23.608H2300.96C2300.79 24.3547 2300.64 24.9413 2300.51 25.368L2299.49 28.408ZM2307.56 33V21.64H2309.62V31.224H2314.53V21.64H2316.6V31.224H2317.94V35.24H2316.1V33H2307.56ZM2319.9 33V21.64H2321.96V28.2L2321.85 29.96H2321.88C2322.25 29.224 2322.57 28.632 2322.84 28.184L2327.13 21.64H2329.18V33H2327.13V26.456L2327.24 24.696H2327.21C2326.86 25.4213 2326.54 26.008 2326.27 26.456L2321.95 33H2319.9ZM2331.95 33V21.64H2334.01V28.2L2333.9 29.96H2333.93C2334.29 29.224 2334.61 28.632 2334.89 28.184L2339.18 21.64H2341.23V33H2339.18V26.456L2339.29 24.696H2339.26C2338.91 25.4213 2338.59 26.008 2338.31 26.456L2333.99 33H2331.95Z" fill="#252525"/>
<rect x="2377" width="279" height="55" rx="27.5" fill="#F3F6FF"/>
<path d="M2401.72 31.448L2402.76 29.992C2403.18 30.3867 2403.68 30.7067 2404.28 30.952C2404.88 31.1973 2405.5 31.32 2406.14 31.32C2407.14 31.32 2407.97 31.0213 2408.63 30.424C2409.29 29.8267 2409.69 29.0693 2409.83 28.152H2404.39V26.472H2409.85C2409.73 25.5547 2409.34 24.8027 2408.67 24.216C2407.99 23.6187 2407.16 23.32 2406.15 23.32C2404.98 23.32 2403.9 23.7467 2402.92 24.6L2401.93 23.048C2402.44 22.5253 2403.08 22.1307 2403.83 21.864C2404.59 21.5867 2405.39 21.448 2406.22 21.448C2407.96 21.448 2409.36 22.0027 2410.43 23.112C2411.49 24.2213 2412.03 25.6027 2412.03 27.256C2412.03 28.952 2411.47 30.3653 2410.36 31.496C2409.25 32.6267 2407.84 33.192 2406.14 33.192C2404.41 33.192 2402.94 32.6107 2401.72 31.448ZM2412.64 31.24C2413.49 31.1227 2414.11 30.5573 2414.49 29.544C2414.89 28.52 2415.09 26.92 2415.09 24.744V21.64H2422.11V33H2420.05V23.416H2417.05V24.776C2417.05 27.5707 2416.71 29.6507 2416.01 31.016C2415.32 32.3707 2414.2 33.0747 2412.64 33.128V31.24ZM2424.87 33V21.64H2431.67V23.416H2426.93V26.392H2430.76V28.168H2426.93V31.224H2431.92V33H2424.87ZM2433.98 33V21.64H2436.04V26.264H2437.51L2440.19 21.64H2442.43L2439.21 27.048V27.08L2442.62 33H2440.28L2437.51 28.04H2436.04V33H2433.98ZM2446.76 33V23.416H2443.03V21.64H2452.53V23.416H2448.8V33H2446.76ZM2454.15 33V21.64H2458.53C2459.6 21.64 2460.47 21.9813 2461.14 22.664C2461.81 23.3467 2462.15 24.2373 2462.15 25.336C2462.15 26.4347 2461.81 27.336 2461.14 28.04C2460.47 28.7333 2459.6 29.08 2458.53 29.08H2456.21V33H2454.15ZM2456.21 27.288H2458.15C2458.75 27.288 2459.21 27.112 2459.54 26.76C2459.88 26.408 2460.05 25.9333 2460.05 25.336C2460.05 24.7493 2459.88 24.2853 2459.54 23.944C2459.21 23.592 2458.76 23.416 2458.18 23.416H2456.21V27.288ZM2463.27 27.24C2463.27 25.608 2463.83 24.2373 2464.95 23.128C2466.08 22.008 2467.48 21.448 2469.15 21.448C2470.81 21.448 2472.2 22.008 2473.32 23.128C2474.45 24.2373 2475.02 25.608 2475.02 27.24C2475.02 28.9147 2474.45 30.328 2473.32 31.48C2472.2 32.6213 2470.81 33.192 2469.15 33.192C2467.48 33.192 2466.08 32.6213 2464.95 31.48C2463.83 30.328 2463.27 28.9147 2463.27 27.24ZM2465.4 27.24C2465.4 28.392 2465.76 29.3573 2466.49 30.136C2467.22 30.9147 2468.1 31.304 2469.15 31.304C2470.19 31.304 2471.08 30.9147 2471.8 30.136C2472.53 29.3573 2472.89 28.392 2472.89 27.24C2472.89 26.1413 2472.53 25.2187 2471.8 24.472C2471.08 23.7147 2470.19 23.336 2469.15 23.336C2468.1 23.336 2467.22 23.7147 2466.49 24.472C2465.76 25.2187 2465.4 26.1413 2465.4 27.24ZM2477.1 33V21.64H2479.17V26.456H2484.37V21.64H2486.41V33H2484.37V28.232H2479.17V33H2477.1ZM2489.17 33V21.64H2491.23V26.456H2496.43V21.64H2498.48V33H2496.43V28.232H2491.23V33H2489.17ZM2499.98 33L2503.96 21.64H2506.14L2510.12 33H2508.01L2507.04 30.088H2503.05L2502.09 33H2499.98ZM2503.56 28.408H2506.52L2505.52 25.368L2505.07 23.608H2505.04C2504.86 24.3547 2504.72 24.9413 2504.59 25.368L2503.56 28.408ZM2510.53 33L2512.93 29L2513.3 28.408V28.376C2512.63 28.0773 2512.12 27.64 2511.78 27.064C2511.45 26.488 2511.28 25.8267 2511.28 25.08C2511.28 24.312 2511.45 23.6613 2511.79 23.128C2512.15 22.584 2512.61 22.1893 2513.19 21.944C2513.66 21.7413 2514.38 21.64 2515.35 21.64H2519.03V33H2516.96V28.76H2515.3L2512.83 33H2510.53ZM2515.17 27.032H2516.96V23.416H2515.51C2514.87 23.416 2514.39 23.512 2514.08 23.704C2513.61 23.992 2513.38 24.4773 2513.38 25.16C2513.38 25.7573 2513.54 26.2213 2513.86 26.552C2514.18 26.872 2514.62 27.032 2515.17 27.032ZM2525.77 33V21.64H2532.75V23.416H2527.84V26.04H2530.11C2531.17 26.04 2532.02 26.36 2532.67 27C2533.33 27.6293 2533.66 28.4773 2533.66 29.544C2533.66 30.568 2533.34 31.4 2532.69 32.04C2532.04 32.68 2531.19 33 2530.16 33H2525.77ZM2527.84 31.224H2529.79C2530.36 31.224 2530.79 31.0747 2531.1 30.776C2531.41 30.4773 2531.57 30.0667 2531.57 29.544C2531.57 29.0213 2531.41 28.6053 2531.09 28.296C2530.77 27.976 2530.32 27.816 2529.76 27.816H2527.84V31.224ZM2535.63 33V21.64H2537.7V28.2L2537.59 29.96H2537.62C2537.98 29.224 2538.3 28.632 2538.58 28.184L2542.87 21.64H2544.91V33H2542.87V26.456L2542.98 24.696H2542.95C2542.59 25.4213 2542.28 26.008 2542 26.456L2537.68 33H2535.63ZM2547.68 33V21.64H2554.66V23.416H2549.74V26.04H2552.02C2553.07 26.04 2553.93 26.36 2554.58 27C2555.24 27.6293 2555.57 28.4773 2555.57 29.544C2555.57 30.568 2555.24 31.4 2554.59 32.04C2553.94 32.68 2553.1 33 2552.06 33H2547.68ZM2549.74 31.224H2551.7C2552.26 31.224 2552.7 31.0747 2553.01 30.776C2553.32 30.4773 2553.47 30.0667 2553.47 29.544C2553.47 29.0213 2553.31 28.6053 2552.99 28.296C2552.67 27.976 2552.23 27.816 2551.66 27.816H2549.74V31.224ZM2556.39 31.24C2557.24 31.1227 2557.86 30.5573 2558.24 29.544C2558.64 28.52 2558.84 26.92 2558.84 24.744V21.64H2565.86V33H2563.8V23.416H2560.8V24.776C2560.8 27.5707 2560.46 29.6507 2559.76 31.016C2559.07 32.3707 2557.95 33.0747 2556.39 33.128V31.24ZM2568.62 33V21.64H2570.68V28.2L2570.57 29.96H2570.6C2570.96 29.224 2571.28 28.632 2571.56 28.184L2575.85 21.64H2577.9V33H2575.85V26.456L2575.96 24.696H2575.93C2575.58 25.4213 2575.26 26.008 2574.99 26.456L2570.67 33H2568.62ZM2579.99 27.24C2579.99 25.608 2580.55 24.2373 2581.67 23.128C2582.8 22.008 2584.2 21.448 2585.87 21.448C2587.53 21.448 2588.92 22.008 2590.04 23.128C2591.17 24.2373 2591.74 25.608 2591.74 27.24C2591.74 28.9147 2591.17 30.328 2590.04 31.48C2588.92 32.6213 2587.53 33.192 2585.87 33.192C2584.2 33.192 2582.8 32.6213 2581.67 31.48C2580.55 30.328 2579.99 28.9147 2579.99 27.24ZM2582.12 27.24C2582.12 28.392 2582.48 29.3573 2583.21 30.136C2583.93 30.9147 2584.82 31.304 2585.87 31.304C2586.91 31.304 2587.8 30.9147 2588.52 30.136C2589.25 29.3573 2589.61 28.392 2589.61 27.24C2589.61 26.1413 2589.25 25.2187 2588.52 24.472C2587.8 23.7147 2586.91 23.336 2585.87 23.336C2584.82 23.336 2583.93 23.7147 2583.21 24.472C2582.48 25.2187 2582.12 26.1413 2582.12 27.24ZM2595.99 33V23.416H2592.26V21.64H2601.77V23.416H2598.04V33H2595.99ZM2603.38 33V21.64H2610.18V23.416H2605.45V26.392H2609.27V28.168H2605.45V31.224H2610.44V33H2603.38ZM2612.49 33V21.64H2614.56V26.264H2616.03L2618.7 21.64H2620.94L2617.73 27.048V27.08L2621.13 33H2618.8L2616.03 28.04H2614.56V33H2612.49ZM2621.45 33L2625.43 21.64H2627.61L2631.59 33H2629.48L2628.5 30.088H2624.52L2623.56 33H2621.45ZM2625.03 28.408H2627.99L2626.98 25.368L2626.54 23.608H2626.5C2626.33 24.3547 2626.18 24.9413 2626.06 25.368L2625.03 28.408Z" fill="#005DFF"/>
</svg>
