<svg width="2555" height="55" viewBox="0 0 2555 55" fill="none" xmlns="http://www.w3.org/2000/svg">
<rect width="549" height="55" rx="27.5" fill="#F3F6FF"/>
<path d="M25.8213 33V21.64H35.0213V33H32.9573V23.416H27.8853V33H25.8213ZM37.7744 33V21.64H42.1584C43.2251 21.64 44.0944 21.9813 44.7664 22.664C45.4384 23.3467 45.7744 24.2373 45.7744 25.336C45.7744 26.4347 45.4384 27.336 44.7664 28.04C44.0944 28.7333 43.2251 29.08 42.1584 29.08H39.8384V33H37.7744ZM39.8384 27.288H41.7744C42.3718 27.288 42.8358 27.112 43.1664 26.76C43.5078 26.408 43.6784 25.9333 43.6784 25.336C43.6784 24.7493 43.5078 24.2853 43.1664 23.944C42.8358 23.592 42.3824 23.416 41.8064 23.416H39.8384V27.288ZM46.8993 27.24C46.8993 25.608 47.4593 24.2373 48.5793 23.128C49.71 22.008 51.1073 21.448 52.7713 21.448C54.4353 21.448 55.8273 22.008 56.9473 23.128C58.078 24.2373 58.6433 25.608 58.6433 27.24C58.6433 28.9147 58.078 30.328 56.9473 31.48C55.8273 32.6213 54.4353 33.192 52.7713 33.192C51.1073 33.192 49.71 32.6213 48.5793 31.48C47.4593 30.328 46.8993 28.9147 46.8993 27.24ZM49.0273 27.24C49.0273 28.392 49.39 29.3573 50.1153 30.136C50.8406 30.9147 51.726 31.304 52.7713 31.304C53.8166 31.304 54.702 30.9147 55.4273 30.136C56.1526 29.3573 56.5153 28.392 56.5153 27.24C56.5153 26.1413 56.1526 25.2187 55.4273 24.472C54.702 23.7147 53.8166 23.336 52.7713 23.336C51.726 23.336 50.8406 23.7147 50.1153 24.472C49.39 25.2187 49.0273 26.1413 49.0273 27.24ZM60.7276 33V21.64H64.7756C65.8316 21.64 66.6796 21.9013 67.3196 22.424C67.9702 22.936 68.2956 23.6507 68.2956 24.568C68.2956 25.1013 68.1729 25.5813 67.9276 26.008C67.6822 26.4347 67.3462 26.7653 66.9196 27V27.032C67.5169 27.2027 67.9702 27.5387 68.2796 28.04C68.5996 28.5413 68.7596 29.096 68.7596 29.704C68.7596 30.7813 68.3862 31.6027 67.6396 32.168C66.8929 32.7227 65.9596 33 64.8396 33H60.7276ZM62.7916 26.28H64.7916C65.2289 26.28 65.5702 26.1467 65.8156 25.88C66.0716 25.6027 66.1996 25.2507 66.1996 24.824C66.1996 24.408 66.0716 24.072 65.8156 23.816C65.5702 23.5493 65.2182 23.416 64.7596 23.416H62.7916V26.28ZM62.7916 31.224H64.9996C65.5116 31.224 65.9116 31.0747 66.1996 30.776C66.4982 30.4667 66.6476 30.0667 66.6476 29.576C66.6476 29.096 66.4982 28.7067 66.1996 28.408C65.9116 28.0987 65.5116 27.944 64.9996 27.944H62.7916V31.224ZM70.8526 33V21.64H77.6526V23.416H72.9166V26.392H76.7406V28.168H72.9166V31.224H77.9086V33H70.8526ZM81.9779 31.224H86.4899V23.416H83.4499V24.264C83.4499 27.3147 82.9593 29.6347 81.9779 31.224ZM78.6979 31.224H79.8499C80.9486 29.56 81.4979 27.192 81.4979 24.12V21.64H88.5539V31.224H89.8179V35.24H87.9779V33H80.6019V35.24H78.6979V31.224ZM91.8057 33V21.64H98.6057V23.416H93.8697V26.392H97.6937V28.168H93.8697V31.224H98.8617V33H91.8057ZM100.915 33V21.64H102.979V26.456H108.179V21.64H110.227V33H108.179V28.232H102.979V33H100.915ZM112.978 33V21.64H115.042V28.2L114.93 29.96H114.962C115.324 29.224 115.644 28.632 115.922 28.184L120.21 21.64H122.258V33H120.21V26.456L120.322 24.696H120.29C119.938 25.4213 119.623 26.008 119.346 26.456L115.026 33H112.978ZM125.024 33V21.64H131.824V23.416H127.088V26.392H130.912V28.168H127.088V31.224H132.08V33H125.024ZM137.702 33L138.63 21.64H140.822L143.062 27.256L143.622 28.92H143.654C143.856 28.2587 144.043 27.704 144.214 27.256L146.454 21.64H148.646L149.574 33H147.51L147.046 26.648C147.024 26.424 147.014 26.168 147.014 25.88C147.014 25.5813 147.019 25.3413 147.03 25.16V24.888H146.998C146.752 25.624 146.544 26.2107 146.374 26.648L144.534 31.048H142.742L140.902 26.648L140.278 24.872H140.246C140.278 25.5547 140.272 26.1467 140.23 26.648L139.766 33H137.702ZM151.899 33V21.64H158.699V23.416H153.963V26.392H157.787V28.168H153.963V31.224H158.955V33H151.899ZM161.009 33V21.64H165.393C166.459 21.64 167.329 21.9813 168.001 22.664C168.673 23.3467 169.009 24.2373 169.009 25.336C169.009 26.4347 168.673 27.336 168.001 28.04C167.329 28.7333 166.459 29.08 165.393 29.08H163.073V33H161.009ZM163.073 27.288H165.009C165.606 27.288 166.07 27.112 166.401 26.76C166.742 26.408 166.913 25.9333 166.913 25.336C166.913 24.7493 166.742 24.2853 166.401 23.944C166.07 23.592 165.617 23.416 165.041 23.416H163.073V27.288ZM170.134 27.24C170.134 25.608 170.694 24.2373 171.814 23.128C172.944 22.008 174.342 21.448 176.006 21.448C177.67 21.448 179.062 22.008 180.182 23.128C181.312 24.2373 181.878 25.608 181.878 27.24C181.878 28.9147 181.312 30.328 180.182 31.48C179.062 32.6213 177.67 33.192 176.006 33.192C174.342 33.192 172.944 32.6213 171.814 31.48C170.694 30.328 170.134 28.9147 170.134 27.24ZM172.262 27.24C172.262 28.392 172.624 29.3573 173.35 30.136C174.075 30.9147 174.96 31.304 176.006 31.304C177.051 31.304 177.936 30.9147 178.662 30.136C179.387 29.3573 179.75 28.392 179.75 27.24C179.75 26.1413 179.387 25.2187 178.662 24.472C177.936 23.7147 177.051 23.336 176.006 23.336C174.96 23.336 174.075 23.7147 173.35 24.472C172.624 25.2187 172.262 26.1413 172.262 27.24ZM183.962 33V21.64H193.162V33H191.098V23.416H186.026V33H183.962ZM195.915 33V21.64H200.299C201.366 21.64 202.235 21.9813 202.907 22.664C203.579 23.3467 203.915 24.2373 203.915 25.336C203.915 26.4347 203.579 27.336 202.907 28.04C202.235 28.7333 201.366 29.08 200.299 29.08H197.979V33H195.915ZM197.979 27.288H199.915C200.512 27.288 200.976 27.112 201.307 26.76C201.648 26.408 201.819 25.9333 201.819 25.336C201.819 24.7493 201.648 24.2853 201.307 23.944C200.976 23.592 200.523 23.416 199.947 23.416H197.979V27.288ZM205.712 33V21.64H207.776V28.2L207.664 29.96H207.696C208.059 29.224 208.379 28.632 208.656 28.184L212.944 21.64H214.992V33H212.944V26.456L213.056 24.696H213.024C212.672 25.4213 212.357 26.008 212.08 26.456L207.76 33H205.712ZM216.655 33L219.055 29L219.423 28.408V28.376C218.751 28.0773 218.244 27.64 217.903 27.064C217.572 26.488 217.407 25.8267 217.407 25.08C217.407 24.312 217.577 23.6613 217.919 23.128C218.271 22.584 218.735 22.1893 219.311 21.944C219.78 21.7413 220.5 21.64 221.471 21.64H225.151V33H223.087V28.76H221.423L218.959 33H216.655ZM221.295 27.032H223.087V23.416H221.631C220.991 23.416 220.516 23.512 220.207 23.704C219.737 23.992 219.503 24.4773 219.503 25.16C219.503 25.7573 219.663 26.2213 219.983 26.552C220.303 26.872 220.74 27.032 221.295 27.032ZM230.475 33V23.416H226.747V21.64H236.251V23.416H232.523V33H230.475ZM237.868 33V21.64H239.932V28.2L239.82 29.96H239.852C240.215 29.224 240.535 28.632 240.812 28.184L245.1 21.64H247.148V33H245.1V26.456L245.212 24.696H245.18C244.828 25.4213 244.514 26.008 244.236 26.456L239.916 33H237.868ZM256.507 20.536C255.995 20.9307 255.376 21.128 254.651 21.128C253.926 21.128 253.307 20.9307 252.795 20.536C252.283 20.1307 252.027 19.592 252.027 18.92V18.712H253.579V18.92C253.579 19.24 253.686 19.4907 253.899 19.672C254.112 19.8427 254.363 19.928 254.651 19.928C254.939 19.928 255.19 19.8427 255.403 19.672C255.627 19.4907 255.739 19.2347 255.739 18.904V18.712H257.275V18.92C257.275 19.592 257.019 20.1307 256.507 20.536ZM249.915 33V21.64H251.979V28.2L251.867 29.96H251.899C252.262 29.224 252.582 28.632 252.859 28.184L257.147 21.64H259.195V33H257.147V26.456L257.259 24.696H257.227C256.875 25.4213 256.56 26.008 256.283 26.456L251.963 33H249.915ZM265.962 33V21.64H275.162V33H273.098V23.416H268.026V33H265.962ZM277.243 27.24C277.243 25.608 277.803 24.2373 278.923 23.128C280.054 22.008 281.451 21.448 283.115 21.448C284.779 21.448 286.171 22.008 287.291 23.128C288.422 24.2373 288.987 25.608 288.987 27.24C288.987 28.9147 288.422 30.328 287.291 31.48C286.171 32.6213 284.779 33.192 283.115 33.192C281.451 33.192 280.054 32.6213 278.923 31.48C277.803 30.328 277.243 28.9147 277.243 27.24ZM279.371 27.24C279.371 28.392 279.734 29.3573 280.459 30.136C281.184 30.9147 282.07 31.304 283.115 31.304C284.16 31.304 285.046 30.9147 285.771 30.136C286.496 29.3573 286.859 28.392 286.859 27.24C286.859 26.1413 286.496 25.2187 285.771 24.472C285.046 23.7147 284.16 23.336 283.115 23.336C282.07 23.336 281.184 23.7147 280.459 24.472C279.734 25.2187 279.371 26.1413 279.371 27.24ZM295.071 33V21.64H304.271V33H302.207V23.416H297.135V33H295.071ZM307.024 33V21.64H311.408C312.475 21.64 313.344 21.9813 314.016 22.664C314.688 23.3467 315.024 24.2373 315.024 25.336C315.024 26.4347 314.688 27.336 314.016 28.04C313.344 28.7333 312.475 29.08 311.408 29.08H309.088V33H307.024ZM309.088 27.288H311.024C311.622 27.288 312.086 27.112 312.416 26.76C312.758 26.408 312.928 25.9333 312.928 25.336C312.928 24.7493 312.758 24.2853 312.416 23.944C312.086 23.592 311.632 23.416 311.056 23.416H309.088V27.288ZM316.149 27.24C316.149 25.608 316.709 24.2373 317.829 23.128C318.96 22.008 320.357 21.448 322.021 21.448C323.685 21.448 325.077 22.008 326.197 23.128C327.328 24.2373 327.893 25.608 327.893 27.24C327.893 28.9147 327.328 30.328 326.197 31.48C325.077 32.6213 323.685 33.192 322.021 33.192C320.357 33.192 318.96 32.6213 317.829 31.48C316.709 30.328 316.149 28.9147 316.149 27.24ZM318.277 27.24C318.277 28.392 318.64 29.3573 319.365 30.136C320.091 30.9147 320.976 31.304 322.021 31.304C323.067 31.304 323.952 30.9147 324.677 30.136C325.403 29.3573 325.765 28.392 325.765 27.24C325.765 26.1413 325.403 25.2187 324.677 24.472C323.952 23.7147 323.067 23.336 322.021 23.336C320.976 23.336 320.091 23.7147 319.365 24.472C318.64 25.2187 318.277 26.1413 318.277 27.24ZM329.13 26.952C329.13 25.5653 329.61 24.4347 330.57 23.56C331.54 22.6853 332.794 22.248 334.33 22.248V21H336.394V22.248C337.93 22.248 339.178 22.6853 340.138 23.56C341.108 24.4347 341.594 25.5653 341.594 26.952C341.594 28.3707 341.114 29.528 340.154 30.424C339.194 31.3093 337.94 31.752 336.394 31.752V33.192H334.33V31.752C332.794 31.752 331.54 31.304 330.57 30.408C329.61 29.512 329.13 28.36 329.13 26.952ZM336.394 30.024C337.311 30.024 338.058 29.7413 338.634 29.176C339.21 28.6 339.498 27.8587 339.498 26.952C339.498 26.0667 339.21 25.352 338.634 24.808C338.058 24.2533 337.311 23.976 336.394 23.976V30.024ZM331.242 26.952C331.242 27.8587 331.524 28.6 332.09 29.176C332.666 29.7413 333.412 30.024 334.33 30.024V23.976C333.412 23.976 332.666 24.2533 332.09 24.808C331.524 25.352 331.242 26.0667 331.242 26.952ZM343.493 33V21.64H345.557V28.2L345.445 29.96H345.477C345.84 29.224 346.16 28.632 346.437 28.184L350.725 21.64H352.773V33H350.725V26.456L350.837 24.696H350.805C350.453 25.4213 350.139 26.008 349.861 26.456L345.541 33H343.493ZM354.388 31.24C355.241 31.1227 355.86 30.5573 356.244 29.544C356.639 28.52 356.836 26.92 356.836 24.744V21.64H363.86V33H361.796V23.416H358.804V24.776C358.804 27.5707 358.457 29.6507 357.764 31.016C357.071 32.3707 355.945 33.0747 354.388 33.128V31.24ZM365.37 33L369.354 21.64H371.53L375.514 33H373.402L372.426 30.088H368.442L367.482 33H365.37ZM368.954 28.408H371.914L370.906 25.368L370.458 23.608H370.426C370.256 24.3547 370.106 24.9413 369.978 25.368L368.954 28.408ZM377.024 33V21.64H379.088V26.264H380.56L383.232 21.64H385.472L382.256 27.048V27.08L385.664 33H383.328L380.56 28.04H379.088V33H377.024ZM389.804 33V23.416H386.076V21.64H395.58V23.416H391.852V33H389.804ZM397.196 33V21.64H399.26V28.2L399.148 29.96H399.18C399.543 29.224 399.863 28.632 400.14 28.184L404.428 21.64H406.476V33H404.428V26.456L404.54 24.696H404.508C404.156 25.4213 403.842 26.008 403.564 26.456L399.244 33H397.196ZM409.243 33V21.64H411.307V26.264H412.779L415.451 21.64H417.691L414.475 27.048V27.08L417.883 33H415.547L412.779 28.04H411.307V33H409.243ZM419.446 33V21.64H426.246V23.416H421.51V26.392H425.334V28.168H421.51V31.224H426.502V33H419.446ZM432.556 33V21.64H434.62V28.2L434.508 29.96H434.54C434.902 29.224 435.222 28.632 435.5 28.184L439.788 21.64H441.836V33H439.788V26.456L439.9 24.696H439.868C439.516 25.4213 439.201 26.008 438.924 26.456L434.604 33H432.556ZM444.603 33V21.64H446.667V26.456H451.867V21.64H453.915V33H451.867V28.232H446.667V33H444.603ZM455.817 26.952C455.817 25.5653 456.297 24.4347 457.257 23.56C458.228 22.6853 459.481 22.248 461.017 22.248V21H463.081V22.248C464.617 22.248 465.865 22.6853 466.825 23.56C467.796 24.4347 468.281 25.5653 468.281 26.952C468.281 28.3707 467.801 29.528 466.841 30.424C465.881 31.3093 464.628 31.752 463.081 31.752V33.192H461.017V31.752C459.481 31.752 458.228 31.304 457.257 30.408C456.297 29.512 455.817 28.36 455.817 26.952ZM463.081 30.024C463.998 30.024 464.745 29.7413 465.321 29.176C465.897 28.6 466.185 27.8587 466.185 26.952C466.185 26.0667 465.897 25.352 465.321 24.808C464.745 24.2533 463.998 23.976 463.081 23.976V30.024ZM457.929 26.952C457.929 27.8587 458.212 28.6 458.777 29.176C459.353 29.7413 460.1 30.024 461.017 30.024V23.976C460.1 23.976 459.353 24.2533 458.777 24.808C458.212 25.352 457.929 26.0667 457.929 26.952ZM470.181 33V21.64H476.981V23.416H472.245V26.392H476.069V28.168H472.245V31.224H477.237V33H470.181ZM479.29 33V21.64H481.354V26.264H482.826L485.498 21.64H487.738L484.522 27.048V27.08L487.93 33H485.594L482.826 28.04H481.354V33H479.29ZM489.493 33V21.64H491.557V31.224H496.469V21.64H498.533V31.224H499.877V35.24H498.037V33H489.493ZM501.837 33V21.64H503.901V28.2L503.789 29.96H503.821C504.184 29.224 504.504 28.632 504.781 28.184L509.069 21.64H511.117V33H509.069V26.456L509.181 24.696H509.149C508.797 25.4213 508.482 26.008 508.205 26.456L503.885 33H501.837ZM520.476 20.536C519.964 20.9307 519.345 21.128 518.62 21.128C517.894 21.128 517.276 20.9307 516.764 20.536C516.252 20.1307 515.996 19.592 515.996 18.92V18.712H517.548V18.92C517.548 19.24 517.654 19.4907 517.868 19.672C518.081 19.8427 518.332 19.928 518.62 19.928C518.908 19.928 519.158 19.8427 519.372 19.672C519.596 19.4907 519.708 19.2347 519.708 18.904V18.712H521.244V18.92C521.244 19.592 520.988 20.1307 520.476 20.536ZM513.884 33V21.64H515.948V28.2L515.836 29.96H515.868C516.23 29.224 516.55 28.632 516.828 28.184L521.116 21.64H523.164V33H521.116V26.456L521.228 24.696H521.196C520.844 25.4213 520.529 26.008 520.252 26.456L515.932 33H513.884Z" fill="#005DFF"/>
<rect x="559" width="455" height="55" rx="27.5" fill="#F3F6FF"/>
<path d="M584.064 27.272C584.064 25.608 584.613 24.2213 585.712 23.112C586.81 22.0027 588.208 21.448 589.904 21.448C591.632 21.448 593.029 21.9653 594.096 23L593.104 24.536C592.688 24.184 592.197 23.896 591.632 23.672C591.077 23.448 590.533 23.336 590 23.336C588.805 23.336 587.872 23.7093 587.2 24.456C586.528 25.2027 586.192 26.1307 586.192 27.24C586.192 28.36 586.533 29.32 587.216 30.12C587.898 30.9093 588.832 31.304 590.016 31.304C591.232 31.304 592.33 30.824 593.312 29.864L594.4 31.352C593.194 32.5787 591.706 33.192 589.936 33.192C588.176 33.192 586.757 32.632 585.68 31.512C584.602 30.392 584.064 28.9787 584.064 27.272ZM596.173 33V21.64H602.973V23.416H598.237V26.392H602.061V28.168H598.237V31.224H603.229V33H596.173ZM604.423 27.272C604.423 25.608 604.972 24.2213 606.071 23.112C607.17 22.0027 608.567 21.448 610.263 21.448C611.991 21.448 613.388 21.9653 614.455 23L613.463 24.536C613.047 24.184 612.556 23.896 611.991 23.672C611.436 23.448 610.892 23.336 610.359 23.336C609.164 23.336 608.231 23.7093 607.559 24.456C606.887 25.2027 606.551 26.1307 606.551 27.24C606.551 28.36 606.892 29.32 607.575 30.12C608.258 30.9093 609.191 31.304 610.375 31.304C611.591 31.304 612.69 30.824 613.671 29.864L614.759 31.352C613.554 32.5787 612.066 33.192 610.295 33.192C608.535 33.192 607.116 32.632 606.039 31.512C604.962 30.392 604.423 28.9787 604.423 27.272ZM619.108 33V23.416H615.38V21.64H624.884V23.416H621.156V33H619.108ZM626.501 33V21.64H630.885C631.952 21.64 632.821 21.9813 633.493 22.664C634.165 23.3467 634.501 24.2373 634.501 25.336C634.501 26.4347 634.165 27.336 633.493 28.04C632.821 28.7333 631.952 29.08 630.885 29.08H628.565V33H626.501ZM628.565 27.288H630.501C631.098 27.288 631.562 27.112 631.893 26.76C632.234 26.408 632.405 25.9333 632.405 25.336C632.405 24.7493 632.234 24.2853 631.893 23.944C631.562 23.592 631.109 23.416 630.533 23.416H628.565V27.288ZM636.298 33V21.64H638.362V28.2L638.25 29.96H638.282C638.645 29.224 638.965 28.632 639.242 28.184L643.53 21.64H645.578V33H643.53V26.456L643.642 24.696H643.61C643.258 25.4213 642.943 26.008 642.666 26.456L638.346 33H636.298ZM648.345 33V21.64H650.409V26.456H655.609V21.64H657.657V33H655.609V28.232H650.409V33H648.345ZM659.751 27.272C659.751 25.608 660.301 24.2213 661.399 23.112C662.498 22.0027 663.895 21.448 665.591 21.448C667.319 21.448 668.717 21.9653 669.783 23L668.791 24.536C668.375 24.184 667.885 23.896 667.319 23.672C666.765 23.448 666.221 23.336 665.687 23.336C664.493 23.336 663.559 23.7093 662.887 24.456C662.215 25.2027 661.879 26.1307 661.879 27.24C661.879 28.36 662.221 29.32 662.903 30.12C663.586 30.9093 664.519 31.304 665.703 31.304C666.919 31.304 668.018 30.824 668.999 29.864L670.087 31.352C668.882 32.5787 667.394 33.192 665.623 33.192C663.863 33.192 662.445 32.632 661.367 31.512C660.29 30.392 659.751 28.9787 659.751 27.272ZM671.86 33V21.64H673.924V26.264H675.396L678.068 21.64H680.308L677.092 27.048V27.08L680.5 33H678.164L675.396 28.04H673.924V33H671.86ZM681.095 27.24C681.095 25.608 681.655 24.2373 682.775 23.128C683.905 22.008 685.303 21.448 686.967 21.448C688.631 21.448 690.023 22.008 691.143 23.128C692.273 24.2373 692.839 25.608 692.839 27.24C692.839 28.9147 692.273 30.328 691.143 31.48C690.023 32.6213 688.631 33.192 686.967 33.192C685.303 33.192 683.905 32.6213 682.775 31.48C681.655 30.328 681.095 28.9147 681.095 27.24ZM683.223 27.24C683.223 28.392 683.585 29.3573 684.311 30.136C685.036 30.9147 685.921 31.304 686.967 31.304C688.012 31.304 688.897 30.9147 689.623 30.136C690.348 29.3573 690.711 28.392 690.711 27.24C690.711 26.1413 690.348 25.2187 689.623 24.472C688.897 23.7147 688.012 23.336 686.967 23.336C685.921 23.336 685.036 23.7147 684.311 24.472C683.585 25.2187 683.223 26.1413 683.223 27.24ZM694.923 33V21.64H701.723V23.416H696.987V26.392H700.811V28.168H696.987V31.224H701.979V33H694.923ZM708.032 33V21.64H710.096V26.456H715.296V21.64H717.344V33H715.296V28.232H710.096V33H708.032ZM718.847 33L722.831 21.64H725.007L728.991 33H726.879L725.903 30.088H721.919L720.959 33H718.847ZM722.431 28.408H725.391L724.383 25.368L723.935 23.608H723.903C723.732 24.3547 723.583 24.9413 723.455 25.368L722.431 28.408ZM730.501 33V21.64H737.477V23.416H732.565V26.04H734.837C735.893 26.04 736.746 26.36 737.397 27C738.058 27.6293 738.389 28.4773 738.389 29.544C738.389 30.568 738.064 31.4 737.413 32.04C736.762 32.68 735.92 33 734.885 33H730.501ZM732.565 31.224H734.517C735.082 31.224 735.52 31.0747 735.829 30.776C736.138 30.4773 736.293 30.0667 736.293 29.544C736.293 29.0213 736.133 28.6053 735.813 28.296C735.493 27.976 735.05 27.816 734.485 27.816H732.565V31.224ZM739.208 31.24C740.062 31.1227 740.68 30.5573 741.064 29.544C741.459 28.52 741.656 26.92 741.656 24.744V21.64H748.68V33H746.616V23.416H743.624V24.776C743.624 27.5707 743.278 29.6507 742.584 31.016C741.891 32.3707 740.766 33.0747 739.208 33.128V31.24ZM751.439 33V21.64H753.503V26.456H755.263C755.433 25.016 756.047 23.8213 757.103 22.872C758.159 21.9227 759.433 21.448 760.927 21.448C762.559 21.448 763.924 22.008 765.023 23.128C766.132 24.2373 766.687 25.608 766.687 27.24C766.687 28.9147 766.132 30.328 765.023 31.48C763.924 32.6213 762.559 33.192 760.927 33.192C759.465 33.192 758.212 32.728 757.167 31.8C756.132 30.8613 755.508 29.672 755.295 28.232H753.503V33H751.439ZM757.311 27.24C757.311 28.392 757.657 29.3573 758.351 30.136C759.055 30.9147 759.913 31.304 760.927 31.304C761.94 31.304 762.799 30.9147 763.503 30.136C764.207 29.3467 764.559 28.3813 764.559 27.24C764.559 26.1413 764.207 25.2187 763.503 24.472C762.799 23.7253 761.94 23.352 760.927 23.352C759.913 23.352 759.055 23.7253 758.351 24.472C757.657 25.2187 757.311 26.1413 757.311 27.24ZM770.408 31.224H774.92V23.416H771.88V24.264C771.88 27.3147 771.389 29.6347 770.408 31.224ZM767.128 31.224H768.28C769.378 29.56 769.928 27.192 769.928 24.12V21.64H776.984V31.224H778.248V35.24H776.408V33H769.032V35.24H767.128V31.224ZM780.235 33V21.64H787.035V23.416H782.299V26.392H786.123V28.168H782.299V31.224H787.291V33H780.235ZM789.345 33V21.64H791.409V26.456H796.609V21.64H798.657V33H796.609V28.232H791.409V33H789.345ZM801.407 33V21.64H803.471V28.2L803.359 29.96H803.391C803.754 29.224 804.074 28.632 804.351 28.184L808.639 21.64H810.687V33H808.639V26.456L808.751 24.696H808.719C808.367 25.4213 808.053 26.008 807.775 26.456L803.455 33H801.407ZM813.454 33V21.64H820.254V23.416H815.518V26.392H819.342V28.168H815.518V31.224H820.51V33H813.454ZM826.564 33V21.64H835.764V33H833.7V23.416H828.628V33H826.564ZM838.517 33V21.64H842.901C843.967 21.64 844.837 21.9813 845.509 22.664C846.181 23.3467 846.517 24.2373 846.517 25.336C846.517 26.4347 846.181 27.336 845.509 28.04C844.837 28.7333 843.967 29.08 842.901 29.08H840.581V33H838.517ZM840.581 27.288H842.517C843.114 27.288 843.578 27.112 843.909 26.76C844.25 26.408 844.421 25.9333 844.421 25.336C844.421 24.7493 844.25 24.2853 843.909 23.944C843.578 23.592 843.125 23.416 842.549 23.416H840.581V27.288ZM848.314 33V21.64H850.378V28.2L850.266 29.96H850.298C850.66 29.224 850.98 28.632 851.258 28.184L855.546 21.64H857.594V33H855.546V26.456L855.658 24.696H855.626C855.274 25.4213 854.959 26.008 854.682 26.456L850.362 33H848.314ZM863.336 31.576L864.456 30.2C864.766 30.5307 865.15 30.808 865.608 31.032C866.067 31.256 866.536 31.368 867.016 31.368C867.635 31.368 868.126 31.2133 868.488 30.904C868.851 30.5947 869.032 30.168 869.032 29.624C869.032 29.1333 868.867 28.7493 868.536 28.472C868.216 28.184 867.779 28.04 867.224 28.04H865.832V26.376H866.952C867.464 26.376 867.886 26.2267 868.216 25.928C868.547 25.6293 868.712 25.256 868.712 24.808C868.712 24.3493 868.563 23.976 868.264 23.688C867.966 23.3893 867.534 23.24 866.968 23.24C866.104 23.24 865.283 23.56 864.504 24.2L863.672 22.696C864.675 21.864 865.891 21.448 867.32 21.448C868.291 21.448 869.112 21.7253 869.784 22.28C870.467 22.8347 870.808 23.592 870.808 24.552C870.808 25.672 870.286 26.5147 869.24 27.08V27.112C869.827 27.2933 870.291 27.6133 870.632 28.072C870.974 28.5307 871.144 29.0907 871.144 29.752C871.144 30.7973 870.766 31.6347 870.008 32.264C869.262 32.8827 868.328 33.192 867.208 33.192C866.483 33.192 865.774 33.0533 865.08 32.776C864.398 32.488 863.816 32.088 863.336 31.576ZM871.878 33L875.862 21.64H878.038L882.022 33H879.91L878.934 30.088H874.95L873.99 33H871.878ZM875.462 28.408H878.422L877.414 25.368L876.966 23.608H876.934C876.763 24.3547 876.614 24.9413 876.486 25.368L875.462 28.408ZM883.532 33V21.64H890.508V23.416H885.596V26.04H887.868C888.924 26.04 889.778 26.36 890.428 27C891.09 27.6293 891.42 28.4773 891.42 29.544C891.42 30.568 891.095 31.4 890.444 32.04C889.794 32.68 888.951 33 887.916 33H883.532ZM885.596 31.224H887.548C888.114 31.224 888.551 31.0747 888.86 30.776C889.17 30.4773 889.324 30.0667 889.324 29.544C889.324 29.0213 889.164 28.6053 888.844 28.296C888.524 27.976 888.082 27.816 887.516 27.816H885.596V31.224ZM892.72 27.24C892.72 25.608 893.28 24.2373 894.4 23.128C895.53 22.008 896.928 21.448 898.592 21.448C900.256 21.448 901.648 22.008 902.768 23.128C903.898 24.2373 904.464 25.608 904.464 27.24C904.464 28.9147 903.898 30.328 902.768 31.48C901.648 32.6213 900.256 33.192 898.592 33.192C896.928 33.192 895.53 32.6213 894.4 31.48C893.28 30.328 892.72 28.9147 892.72 27.24ZM894.848 27.24C894.848 28.392 895.21 29.3573 895.936 30.136C896.661 30.9147 897.546 31.304 898.592 31.304C899.637 31.304 900.522 30.9147 901.248 30.136C901.973 29.3573 902.336 28.392 902.336 27.24C902.336 26.1413 901.973 25.2187 901.248 24.472C900.522 23.7147 899.637 23.336 898.592 23.336C897.546 23.336 896.661 23.7147 895.936 24.472C895.21 25.2187 894.848 26.1413 894.848 27.24ZM905.083 31.24C905.937 31.1227 906.555 30.5573 906.939 29.544C907.334 28.52 907.531 26.92 907.531 24.744V21.64H914.555V33H912.491V23.416H909.499V24.776C909.499 27.5707 909.153 29.6507 908.459 31.016C907.766 32.3707 906.641 33.0747 905.083 33.128V31.24ZM917.314 33V21.64H924.114V23.416H919.378V26.392H923.202V28.168H919.378V31.224H924.37V33H917.314ZM926.423 33V21.64H930.471C931.527 21.64 932.375 21.9013 933.015 22.424C933.666 22.936 933.991 23.6507 933.991 24.568C933.991 25.1013 933.868 25.5813 933.623 26.008C933.378 26.4347 933.042 26.7653 932.615 27V27.032C933.212 27.2027 933.666 27.5387 933.975 28.04C934.295 28.5413 934.455 29.096 934.455 29.704C934.455 30.7813 934.082 31.6027 933.335 32.168C932.588 32.7227 931.655 33 930.535 33H926.423ZM928.487 26.28H930.487C930.924 26.28 931.266 26.1467 931.511 25.88C931.767 25.6027 931.895 25.2507 931.895 24.824C931.895 24.408 931.767 24.072 931.511 23.816C931.266 23.5493 930.914 23.416 930.455 23.416H928.487V26.28ZM928.487 31.224H930.695C931.207 31.224 931.607 31.0747 931.895 30.776C932.194 30.4667 932.343 30.0667 932.343 29.576C932.343 29.096 932.194 28.7067 931.895 28.408C931.607 28.0987 931.207 27.944 930.695 27.944H928.487V31.224ZM935.175 33L939.159 21.64H941.335L945.319 33H943.207L942.231 30.088H938.247L937.287 33H935.175ZM938.759 28.408H941.719L940.711 25.368L940.263 23.608H940.231C940.06 24.3547 939.911 24.9413 939.783 25.368L938.759 28.408ZM946.829 33V21.64H948.893V26.456H954.093V21.64H956.141V33H954.093V28.232H948.893V33H946.829ZM958.892 33V21.64H960.956V28.2L960.844 29.96H960.876C961.238 29.224 961.558 28.632 961.836 28.184L966.124 21.64H968.172V33H966.124V26.456L966.236 24.696H966.204C965.852 25.4213 965.537 26.008 965.26 26.456L960.94 33H958.892ZM969.835 33L972.235 29L972.603 28.408V28.376C971.931 28.0773 971.424 27.64 971.083 27.064C970.752 26.488 970.587 25.8267 970.587 25.08C970.587 24.312 970.757 23.6613 971.099 23.128C971.451 22.584 971.915 22.1893 972.491 21.944C972.96 21.7413 973.68 21.64 974.651 21.64H978.331V33H976.267V28.76H974.603L972.139 33H969.835ZM974.475 27.032H976.267V23.416H974.811C974.171 23.416 973.696 23.512 973.387 23.704C972.917 23.992 972.683 24.4773 972.683 25.16C972.683 25.7573 972.843 26.2213 973.163 26.552C973.483 26.872 973.92 27.032 974.475 27.032ZM979.911 33L983.431 27.24L980.039 21.64H982.391L983.959 24.424L984.663 25.8H984.695C984.908 25.3307 985.143 24.872 985.399 24.424L986.983 21.64H989.335L985.927 27.24L989.463 33H987.159L985.383 29.944L984.679 28.6H984.647C984.434 29.0587 984.204 29.5067 983.959 29.944L982.199 33H979.911Z" fill="#252525"/>
<rect x="1024" width="279" height="55" rx="27.5" fill="#F3F6FF"/>
<path d="M1048.72 31.448L1049.76 29.992C1050.18 30.3867 1050.68 30.7067 1051.28 30.952C1051.88 31.1973 1052.5 31.32 1053.14 31.32C1054.14 31.32 1054.97 31.0213 1055.63 30.424C1056.29 29.8267 1056.69 29.0693 1056.83 28.152H1051.39V26.472H1056.85C1056.73 25.5547 1056.34 24.8027 1055.67 24.216C1054.99 23.6187 1054.16 23.32 1053.15 23.32C1051.98 23.32 1050.9 23.7467 1049.92 24.6L1048.93 23.048C1049.44 22.5253 1050.08 22.1307 1050.83 21.864C1051.59 21.5867 1052.39 21.448 1053.22 21.448C1054.96 21.448 1056.36 22.0027 1057.43 23.112C1058.49 24.2213 1059.03 25.6027 1059.03 27.256C1059.03 28.952 1058.47 30.3653 1057.36 31.496C1056.25 32.6267 1054.84 33.192 1053.14 33.192C1051.41 33.192 1049.94 32.6107 1048.72 31.448ZM1059.64 31.24C1060.49 31.1227 1061.11 30.5573 1061.49 29.544C1061.89 28.52 1062.09 26.92 1062.09 24.744V21.64H1069.11V33H1067.05V23.416H1064.05V24.776C1064.05 27.5707 1063.71 29.6507 1063.01 31.016C1062.32 32.3707 1061.2 33.0747 1059.64 33.128V31.24ZM1071.87 33V21.64H1078.67V23.416H1073.93V26.392H1077.76V28.168H1073.93V31.224H1078.92V33H1071.87ZM1080.98 33V21.64H1083.04V26.264H1084.51L1087.19 21.64H1089.43L1086.21 27.048V27.08L1089.62 33H1087.28L1084.51 28.04H1083.04V33H1080.98ZM1093.76 33V23.416H1090.03V21.64H1099.53V23.416H1095.8V33H1093.76ZM1101.15 33V21.64H1105.53C1106.6 21.64 1107.47 21.9813 1108.14 22.664C1108.81 23.3467 1109.15 24.2373 1109.15 25.336C1109.15 26.4347 1108.81 27.336 1108.14 28.04C1107.47 28.7333 1106.6 29.08 1105.53 29.08H1103.21V33H1101.15ZM1103.21 27.288H1105.15C1105.75 27.288 1106.21 27.112 1106.54 26.76C1106.88 26.408 1107.05 25.9333 1107.05 25.336C1107.05 24.7493 1106.88 24.2853 1106.54 23.944C1106.21 23.592 1105.76 23.416 1105.18 23.416H1103.21V27.288ZM1110.27 27.24C1110.27 25.608 1110.83 24.2373 1111.95 23.128C1113.08 22.008 1114.48 21.448 1116.15 21.448C1117.81 21.448 1119.2 22.008 1120.32 23.128C1121.45 24.2373 1122.02 25.608 1122.02 27.24C1122.02 28.9147 1121.45 30.328 1120.32 31.48C1119.2 32.6213 1117.81 33.192 1116.15 33.192C1114.48 33.192 1113.08 32.6213 1111.95 31.48C1110.83 30.328 1110.27 28.9147 1110.27 27.24ZM1112.4 27.24C1112.4 28.392 1112.76 29.3573 1113.49 30.136C1114.22 30.9147 1115.1 31.304 1116.15 31.304C1117.19 31.304 1118.08 30.9147 1118.8 30.136C1119.53 29.3573 1119.89 28.392 1119.89 27.24C1119.89 26.1413 1119.53 25.2187 1118.8 24.472C1118.08 23.7147 1117.19 23.336 1116.15 23.336C1115.1 23.336 1114.22 23.7147 1113.49 24.472C1112.76 25.2187 1112.4 26.1413 1112.4 27.24ZM1124.1 33V21.64H1126.17V26.456H1131.37V21.64H1133.41V33H1131.37V28.232H1126.17V33H1124.1ZM1136.17 33V21.64H1138.23V26.456H1143.43V21.64H1145.48V33H1143.43V28.232H1138.23V33H1136.17ZM1146.98 33L1150.96 21.64H1153.14L1157.12 33H1155.01L1154.04 30.088H1150.05L1149.09 33H1146.98ZM1150.56 28.408H1153.52L1152.52 25.368L1152.07 23.608H1152.04C1151.86 24.3547 1151.72 24.9413 1151.59 25.368L1150.56 28.408ZM1157.53 33L1159.93 29L1160.3 28.408V28.376C1159.63 28.0773 1159.12 27.64 1158.78 27.064C1158.45 26.488 1158.28 25.8267 1158.28 25.08C1158.28 24.312 1158.45 23.6613 1158.79 23.128C1159.15 22.584 1159.61 22.1893 1160.19 21.944C1160.66 21.7413 1161.38 21.64 1162.35 21.64H1166.03V33H1163.96V28.76H1162.3L1159.83 33H1157.53ZM1162.17 27.032H1163.96V23.416H1162.51C1161.87 23.416 1161.39 23.512 1161.08 23.704C1160.61 23.992 1160.38 24.4773 1160.38 25.16C1160.38 25.7573 1160.54 26.2213 1160.86 26.552C1161.18 26.872 1161.62 27.032 1162.17 27.032ZM1172.77 33V21.64H1179.75V23.416H1174.84V26.04H1177.11C1178.17 26.04 1179.02 26.36 1179.67 27C1180.33 27.6293 1180.66 28.4773 1180.66 29.544C1180.66 30.568 1180.34 31.4 1179.69 32.04C1179.04 32.68 1178.19 33 1177.16 33H1172.77ZM1174.84 31.224H1176.79C1177.36 31.224 1177.79 31.0747 1178.1 30.776C1178.41 30.4773 1178.57 30.0667 1178.57 29.544C1178.57 29.0213 1178.41 28.6053 1178.09 28.296C1177.77 27.976 1177.32 27.816 1176.76 27.816H1174.84V31.224ZM1182.63 33V21.64H1184.7V28.2L1184.59 29.96H1184.62C1184.98 29.224 1185.3 28.632 1185.58 28.184L1189.87 21.64H1191.91V33H1189.87V26.456L1189.98 24.696H1189.95C1189.59 25.4213 1189.28 26.008 1189 26.456L1184.68 33H1182.63ZM1194.68 33V21.64H1201.66V23.416H1196.74V26.04H1199.02C1200.07 26.04 1200.93 26.36 1201.58 27C1202.24 27.6293 1202.57 28.4773 1202.57 29.544C1202.57 30.568 1202.24 31.4 1201.59 32.04C1200.94 32.68 1200.1 33 1199.06 33H1194.68ZM1196.74 31.224H1198.7C1199.26 31.224 1199.7 31.0747 1200.01 30.776C1200.32 30.4773 1200.47 30.0667 1200.47 29.544C1200.47 29.0213 1200.31 28.6053 1199.99 28.296C1199.67 27.976 1199.23 27.816 1198.66 27.816H1196.74V31.224ZM1203.39 31.24C1204.24 31.1227 1204.86 30.5573 1205.24 29.544C1205.64 28.52 1205.84 26.92 1205.84 24.744V21.64H1212.86V33H1210.8V23.416H1207.8V24.776C1207.8 27.5707 1207.46 29.6507 1206.76 31.016C1206.07 32.3707 1204.95 33.0747 1203.39 33.128V31.24ZM1215.62 33V21.64H1217.68V28.2L1217.57 29.96H1217.6C1217.96 29.224 1218.28 28.632 1218.56 28.184L1222.85 21.64H1224.9V33H1222.85V26.456L1222.96 24.696H1222.93C1222.58 25.4213 1222.26 26.008 1221.99 26.456L1217.67 33H1215.62ZM1226.99 27.24C1226.99 25.608 1227.55 24.2373 1228.67 23.128C1229.8 22.008 1231.2 21.448 1232.87 21.448C1234.53 21.448 1235.92 22.008 1237.04 23.128C1238.17 24.2373 1238.74 25.608 1238.74 27.24C1238.74 28.9147 1238.17 30.328 1237.04 31.48C1235.92 32.6213 1234.53 33.192 1232.87 33.192C1231.2 33.192 1229.8 32.6213 1228.67 31.48C1227.55 30.328 1226.99 28.9147 1226.99 27.24ZM1229.12 27.24C1229.12 28.392 1229.48 29.3573 1230.21 30.136C1230.93 30.9147 1231.82 31.304 1232.87 31.304C1233.91 31.304 1234.8 30.9147 1235.52 30.136C1236.25 29.3573 1236.61 28.392 1236.61 27.24C1236.61 26.1413 1236.25 25.2187 1235.52 24.472C1234.8 23.7147 1233.91 23.336 1232.87 23.336C1231.82 23.336 1230.93 23.7147 1230.21 24.472C1229.48 25.2187 1229.12 26.1413 1229.12 27.24ZM1242.99 33V23.416H1239.26V21.64H1248.77V23.416H1245.04V33H1242.99ZM1250.38 33V21.64H1257.18V23.416H1252.45V26.392H1256.27V28.168H1252.45V31.224H1257.44V33H1250.38ZM1259.49 33V21.64H1261.56V26.264H1263.03L1265.7 21.64H1267.94L1264.73 27.048V27.08L1268.13 33H1265.8L1263.03 28.04H1261.56V33H1259.49ZM1268.45 33L1272.43 21.64H1274.61L1278.59 33H1276.48L1275.5 30.088H1271.52L1270.56 33H1268.45ZM1272.03 28.408H1274.99L1273.98 25.368L1273.54 23.608H1273.5C1273.33 24.3547 1273.18 24.9413 1273.06 25.368L1272.03 28.408Z" fill="#005DFF"/>
<rect x="1313" width="353" height="55" rx="27.5" fill="#F3F6FF"/>
<path d="M1337.77 27.24C1337.77 25.608 1338.33 24.2373 1339.45 23.128C1340.58 22.008 1341.98 21.448 1343.65 21.448C1345.31 21.448 1346.7 22.008 1347.82 23.128C1348.95 24.2373 1349.52 25.608 1349.52 27.24C1349.52 28.9147 1348.95 30.328 1347.82 31.48C1346.7 32.6213 1345.31 33.192 1343.65 33.192C1341.98 33.192 1340.58 32.6213 1339.45 31.48C1338.33 30.328 1337.77 28.9147 1337.77 27.24ZM1339.9 27.24C1339.9 28.392 1340.26 29.3573 1340.99 30.136C1341.72 30.9147 1342.6 31.304 1343.65 31.304C1344.69 31.304 1345.58 30.9147 1346.3 30.136C1347.03 29.3573 1347.39 28.392 1347.39 27.24C1347.39 26.1413 1347.03 25.2187 1346.3 24.472C1345.58 23.7147 1344.69 23.336 1343.65 23.336C1342.6 23.336 1341.72 23.7147 1340.99 24.472C1340.26 25.2187 1339.9 26.1413 1339.9 27.24ZM1351.6 33V21.64H1353.67V26.264H1355.14L1357.81 21.64H1360.05L1356.83 27.048V27.08L1360.24 33H1357.91L1355.14 28.04H1353.67V33H1351.6ZM1360.56 33L1364.54 21.64H1366.72L1370.7 33H1368.59L1367.61 30.088H1363.63L1362.67 33H1360.56ZM1364.14 28.408H1367.1L1366.09 25.368L1365.65 23.608H1365.61C1365.44 24.3547 1365.29 24.9413 1365.17 25.368L1364.14 28.408ZM1371.19 31.576L1372.31 30.2C1372.62 30.5307 1373 30.808 1373.46 31.032C1373.92 31.256 1374.39 31.368 1374.87 31.368C1375.49 31.368 1375.98 31.2133 1376.34 30.904C1376.7 30.5947 1376.88 30.168 1376.88 29.624C1376.88 29.1333 1376.72 28.7493 1376.39 28.472C1376.07 28.184 1375.63 28.04 1375.08 28.04H1373.68V26.376H1374.8C1375.32 26.376 1375.74 26.2267 1376.07 25.928C1376.4 25.6293 1376.56 25.256 1376.56 24.808C1376.56 24.3493 1376.41 23.976 1376.12 23.688C1375.82 23.3893 1375.39 23.24 1374.82 23.24C1373.96 23.24 1373.13 23.56 1372.36 24.2L1371.52 22.696C1372.53 21.864 1373.74 21.448 1375.17 21.448C1376.14 21.448 1376.96 21.7253 1377.64 22.28C1378.32 22.8347 1378.66 23.592 1378.66 24.552C1378.66 25.672 1378.14 26.5147 1377.09 27.08V27.112C1377.68 27.2933 1378.14 27.6133 1378.48 28.072C1378.83 28.5307 1379 29.0907 1379 29.752C1379 30.7973 1378.62 31.6347 1377.86 32.264C1377.11 32.8827 1376.18 33.192 1375.06 33.192C1374.33 33.192 1373.63 33.0533 1372.93 32.776C1372.25 32.488 1371.67 32.088 1371.19 31.576ZM1379.73 33L1383.71 21.64H1385.89L1389.87 33H1387.76L1386.79 30.088H1382.8L1381.84 33H1379.73ZM1383.31 28.408H1386.27L1385.27 25.368L1384.82 23.608H1384.79C1384.61 24.3547 1384.47 24.9413 1384.34 25.368L1383.31 28.408ZM1391.38 33V21.64H1393.45V26.456H1398.65V21.64H1400.7V33H1398.65V28.232H1393.45V33H1391.38ZM1403.45 33V21.64H1405.51V28.2L1405.4 29.96H1405.43C1405.79 29.224 1406.11 28.632 1406.39 28.184L1410.68 21.64H1412.73V33H1410.68V26.456L1410.79 24.696H1410.76C1410.41 25.4213 1410.09 26.008 1409.81 26.456L1405.49 33H1403.45ZM1415.49 33V21.64H1422.29V23.416H1417.56V26.392H1421.38V28.168H1417.56V31.224H1422.55V33H1415.49ZM1428.17 33L1429.1 21.64H1431.29L1433.53 27.256L1434.09 28.92H1434.12C1434.33 28.2587 1434.51 27.704 1434.68 27.256L1436.92 21.64H1439.11L1440.04 33H1437.98L1437.51 26.648C1437.49 26.424 1437.48 26.168 1437.48 25.88C1437.48 25.5813 1437.49 25.3413 1437.5 25.16V24.888H1437.47C1437.22 25.624 1437.01 26.2107 1436.84 26.648L1435 31.048H1433.21L1431.37 26.648L1430.75 24.872H1430.71C1430.75 25.5547 1430.74 26.1467 1430.7 26.648L1430.23 33H1428.17ZM1442.37 33V21.64H1449.17V23.416H1444.43V26.392H1448.26V28.168H1444.43V31.224H1449.42V33H1442.37ZM1453.49 31.224H1458.01V23.416H1454.97V24.264C1454.97 27.3147 1454.47 29.6347 1453.49 31.224ZM1450.21 31.224H1451.37C1452.46 29.56 1453.01 27.192 1453.01 24.12V21.64H1460.07V31.224H1461.33V35.24H1459.49V33H1452.12V35.24H1450.21V31.224ZM1463.32 33V21.64H1465.39V28.2L1465.27 29.96H1465.31C1465.67 29.224 1465.99 28.632 1466.27 28.184L1470.55 21.64H1472.6V33H1470.55V26.456L1470.67 24.696H1470.63C1470.28 25.4213 1469.97 26.008 1469.69 26.456L1465.37 33H1463.32ZM1475.37 33V21.64H1477.43V31.224H1482.34V21.64H1484.41V31.224H1485.75V35.24H1483.91V33H1475.37ZM1487.71 33V21.64H1489.78V28.2L1489.66 29.96H1489.7C1490.06 29.224 1490.38 28.632 1490.66 28.184L1494.94 21.64H1496.99V33H1494.94V26.456L1495.06 24.696H1495.02C1494.67 25.4213 1494.36 26.008 1494.08 26.456L1489.76 33H1487.71ZM1499.76 33V21.64H1501.82V26.456H1507.02V21.64H1509.07V33H1507.02V28.232H1501.82V33H1499.76ZM1511.17 27.272C1511.17 25.608 1511.71 24.2213 1512.81 23.112C1513.91 22.0027 1515.31 21.448 1517.01 21.448C1518.73 21.448 1520.13 21.9653 1521.2 23L1520.21 24.536C1519.79 24.184 1519.3 23.896 1518.73 23.672C1518.18 23.448 1517.63 23.336 1517.1 23.336C1515.91 23.336 1514.97 23.7093 1514.3 24.456C1513.63 25.2027 1513.29 26.1307 1513.29 27.24C1513.29 28.36 1513.63 29.32 1514.32 30.12C1515 30.9093 1515.93 31.304 1517.12 31.304C1518.33 31.304 1519.43 30.824 1520.41 29.864L1521.5 31.352C1520.3 32.5787 1518.81 33.192 1517.04 33.192C1515.28 33.192 1513.86 32.632 1512.78 31.512C1511.7 30.392 1511.17 28.9787 1511.17 27.272ZM1523.27 33V21.64H1525.34V26.264H1526.81L1529.48 21.64H1531.72L1528.51 27.048V27.08L1531.91 33H1529.58L1526.81 28.04H1525.34V33H1523.27ZM1532.51 27.24C1532.51 25.608 1533.07 24.2373 1534.19 23.128C1535.32 22.008 1536.72 21.448 1538.38 21.448C1540.04 21.448 1541.44 22.008 1542.56 23.128C1543.69 24.2373 1544.25 25.608 1544.25 27.24C1544.25 28.9147 1543.69 30.328 1542.56 31.48C1541.44 32.6213 1540.04 33.192 1538.38 33.192C1536.72 33.192 1535.32 32.6213 1534.19 31.48C1533.07 30.328 1532.51 28.9147 1532.51 27.24ZM1534.64 27.24C1534.64 28.392 1535 29.3573 1535.72 30.136C1536.45 30.9147 1537.34 31.304 1538.38 31.304C1539.43 31.304 1540.31 30.9147 1541.04 30.136C1541.76 29.3573 1542.12 28.392 1542.12 27.24C1542.12 26.1413 1541.76 25.2187 1541.04 24.472C1540.31 23.7147 1539.43 23.336 1538.38 23.336C1537.34 23.336 1536.45 23.7147 1535.72 24.472C1535 25.2187 1534.64 26.1413 1534.64 27.24ZM1552.93 20.536C1552.42 20.9307 1551.8 21.128 1551.07 21.128C1550.35 21.128 1549.73 20.9307 1549.22 20.536C1548.7 20.1307 1548.45 19.592 1548.45 18.92V18.712H1550V18.92C1550 19.24 1550.11 19.4907 1550.32 19.672C1550.53 19.8427 1550.78 19.928 1551.07 19.928C1551.36 19.928 1551.61 19.8427 1551.82 19.672C1552.05 19.4907 1552.16 19.2347 1552.16 18.904V18.712H1553.7V18.92C1553.7 19.592 1553.44 20.1307 1552.93 20.536ZM1546.34 33V21.64H1548.4V28.2L1548.29 29.96H1548.32C1548.68 29.224 1549 28.632 1549.28 28.184L1553.57 21.64H1555.62V33H1553.57V26.456L1553.68 24.696H1553.65C1553.3 25.4213 1552.98 26.008 1552.7 26.456L1548.38 33H1546.34ZM1562.38 33V21.64H1571.58V33H1569.52V23.416H1564.45V33H1562.38ZM1573.66 27.24C1573.66 25.608 1574.22 24.2373 1575.34 23.128C1576.48 22.008 1577.87 21.448 1579.54 21.448C1581.2 21.448 1582.59 22.008 1583.71 23.128C1584.84 24.2373 1585.41 25.608 1585.41 27.24C1585.41 28.9147 1584.84 30.328 1583.71 31.48C1582.59 32.6213 1581.2 33.192 1579.54 33.192C1577.87 33.192 1576.48 32.6213 1575.34 31.48C1574.22 30.328 1573.66 28.9147 1573.66 27.24ZM1575.79 27.24C1575.79 28.392 1576.16 29.3573 1576.88 30.136C1577.61 30.9147 1578.49 31.304 1579.54 31.304C1580.58 31.304 1581.47 30.9147 1582.19 30.136C1582.92 29.3573 1583.28 28.392 1583.28 27.24C1583.28 26.1413 1582.92 25.2187 1582.19 24.472C1581.47 23.7147 1580.58 23.336 1579.54 23.336C1578.49 23.336 1577.61 23.7147 1576.88 24.472C1576.16 25.2187 1575.79 26.1413 1575.79 27.24ZM1587.06 33L1587.99 21.64H1590.18L1592.42 27.256L1592.98 28.92H1593.01C1593.22 28.2587 1593.4 27.704 1593.57 27.256L1595.81 21.64H1598.01L1598.93 33H1596.87L1596.41 26.648C1596.38 26.424 1596.37 26.168 1596.37 25.88C1596.37 25.5813 1596.38 25.3413 1596.39 25.16V24.888H1596.36C1596.11 25.624 1595.9 26.2107 1595.73 26.648L1593.89 31.048H1592.1L1590.26 26.648L1589.64 24.872H1589.61C1589.64 25.5547 1589.63 26.1467 1589.59 26.648L1589.13 33H1587.06ZM1600.59 27.24C1600.59 25.608 1601.15 24.2373 1602.27 23.128C1603.4 22.008 1604.79 21.448 1606.46 21.448C1608.12 21.448 1609.51 22.008 1610.63 23.128C1611.77 24.2373 1612.33 25.608 1612.33 27.24C1612.33 28.9147 1611.77 30.328 1610.63 31.48C1609.51 32.6213 1608.12 33.192 1606.46 33.192C1604.79 33.192 1603.4 32.6213 1602.27 31.48C1601.15 30.328 1600.59 28.9147 1600.59 27.24ZM1602.71 27.24C1602.71 28.392 1603.08 29.3573 1603.8 30.136C1604.53 30.9147 1605.41 31.304 1606.46 31.304C1607.5 31.304 1608.39 30.9147 1609.11 30.136C1609.84 29.3573 1610.2 28.392 1610.2 27.24C1610.2 26.1413 1609.84 25.2187 1609.11 24.472C1608.39 23.7147 1607.5 23.336 1606.46 23.336C1605.41 23.336 1604.53 23.7147 1603.8 24.472C1603.08 25.2187 1602.71 26.1413 1602.71 27.24ZM1614.42 33V21.64H1616.48V31.224H1620.14V21.64H1622.21V31.224H1625.87V21.64H1627.92V31.224H1629.33V35.24H1627.47V33H1614.42ZM1631.26 33V21.64H1633.32V28.2L1633.21 29.96H1633.24C1633.61 29.224 1633.93 28.632 1634.2 28.184L1638.49 21.64H1640.54V33H1638.49V26.456L1638.6 24.696H1638.57C1638.22 25.4213 1637.9 26.008 1637.63 26.456L1633.31 33H1631.26Z" fill="#252525"/>
<rect x="1676" width="395" height="55" rx="27.5" fill="#F3F6FF"/>
<path d="M1701.55 33V21.64H1705.6C1706.65 21.64 1707.5 21.9013 1708.14 22.424C1708.79 22.936 1709.12 23.6507 1709.12 24.568C1709.12 25.1013 1708.99 25.5813 1708.75 26.008C1708.5 26.4347 1708.17 26.7653 1707.74 27V27.032C1708.34 27.2027 1708.79 27.5387 1709.1 28.04C1709.42 28.5413 1709.58 29.096 1709.58 29.704C1709.58 30.7813 1709.21 31.6027 1708.46 32.168C1707.71 32.7227 1706.78 33 1705.66 33H1701.55ZM1703.61 26.28H1705.61C1706.05 26.28 1706.39 26.1467 1706.64 25.88C1706.89 25.6027 1707.02 25.2507 1707.02 24.824C1707.02 24.408 1706.89 24.072 1706.64 23.816C1706.39 23.5493 1706.04 23.416 1705.58 23.416H1703.61V26.28ZM1703.61 31.224H1705.82C1706.33 31.224 1706.73 31.0747 1707.02 30.776C1707.32 30.4667 1707.47 30.0667 1707.47 29.576C1707.47 29.096 1707.32 28.7067 1707.02 28.408C1706.73 28.0987 1706.33 27.944 1705.82 27.944H1703.61V31.224ZM1711.67 33V21.64H1718.47V23.416H1713.74V26.392H1717.56V28.168H1713.74V31.224H1718.73V33H1711.67ZM1722.8 31.224H1727.31V23.416H1724.27V24.264C1724.27 27.3147 1723.78 29.6347 1722.8 31.224ZM1719.52 31.224H1720.67C1721.77 29.56 1722.32 27.192 1722.32 24.12V21.64H1729.37V31.224H1730.64V35.24H1728.8V33H1721.42V35.24H1719.52V31.224ZM1732.63 33V21.64H1739.43V23.416H1734.69V26.392H1738.51V28.168H1734.69V31.224H1739.68V33H1732.63ZM1741.74 33V21.64H1743.8V26.456H1749V21.64H1751.05V33H1749V28.232H1743.8V33H1741.74ZM1753.8 33V21.64H1755.86V28.2L1755.75 29.96H1755.78C1756.14 29.224 1756.46 28.632 1756.74 28.184L1761.03 21.64H1763.08V33H1761.03V26.456L1761.14 24.696H1761.11C1760.76 25.4213 1760.44 26.008 1760.17 26.456L1755.85 33H1753.8ZM1765.84 33V21.64H1772.64V23.416H1767.91V26.392H1771.73V28.168H1767.91V31.224H1772.9V33H1765.84ZM1778.52 33L1779.45 21.64H1781.64L1783.88 27.256L1784.44 28.92H1784.47C1784.68 28.2587 1784.86 27.704 1785.03 27.256L1787.27 21.64H1789.47L1790.39 33H1788.33L1787.87 26.648C1787.84 26.424 1787.83 26.168 1787.83 25.88C1787.83 25.5813 1787.84 25.3413 1787.85 25.16V24.888H1787.82C1787.57 25.624 1787.36 26.2107 1787.19 26.648L1785.35 31.048H1783.56L1781.72 26.648L1781.1 24.872H1781.07C1781.1 25.5547 1781.09 26.1467 1781.05 26.648L1780.59 33H1778.52ZM1792.72 33V21.64H1799.52V23.416H1794.78V26.392H1798.61V28.168H1794.78V31.224H1799.78V33H1792.72ZM1803.85 31.224H1808.36V23.416H1805.32V24.264C1805.32 27.3147 1804.83 29.6347 1803.85 31.224ZM1800.57 31.224H1801.72C1802.82 29.56 1803.37 27.192 1803.37 24.12V21.64H1810.42V31.224H1811.69V35.24H1809.85V33H1802.47V35.24H1800.57V31.224ZM1813.67 33V21.64H1815.74V28.2L1815.62 29.96H1815.66C1816.02 29.224 1816.34 28.632 1816.62 28.184L1820.9 21.64H1822.95V33H1820.9V26.456L1821.02 24.696H1820.98C1820.63 25.4213 1820.32 26.008 1820.04 26.456L1815.72 33H1813.67ZM1825.72 33V21.64H1827.78V31.224H1832.7V21.64H1834.76V31.224H1836.1V35.24H1834.26V33H1825.72ZM1838.06 33V21.64H1840.13V28.2L1840.02 29.96H1840.05C1840.41 29.224 1840.73 28.632 1841.01 28.184L1845.3 21.64H1847.34V33H1845.3V26.456L1845.41 24.696H1845.38C1845.02 25.4213 1844.71 26.008 1844.43 26.456L1840.11 33H1838.06ZM1850.11 33V21.64H1852.17V26.456H1857.37V21.64H1859.42V33H1857.37V28.232H1852.17V33H1850.11ZM1861.52 27.272C1861.52 25.608 1862.07 24.2213 1863.16 23.112C1864.26 22.0027 1865.66 21.448 1867.36 21.448C1869.08 21.448 1870.48 21.9653 1871.55 23L1870.56 24.536C1870.14 24.184 1869.65 23.896 1869.08 23.672C1868.53 23.448 1867.99 23.336 1867.45 23.336C1866.26 23.336 1865.32 23.7093 1864.65 24.456C1863.98 25.2027 1863.64 26.1307 1863.64 27.24C1863.64 28.36 1863.99 29.32 1864.67 30.12C1865.35 30.9093 1866.28 31.304 1867.47 31.304C1868.68 31.304 1869.78 30.824 1870.76 29.864L1871.85 31.352C1870.65 32.5787 1869.16 33.192 1867.39 33.192C1865.63 33.192 1864.21 32.632 1863.13 31.512C1862.06 30.392 1861.52 28.9787 1861.52 27.272ZM1873.63 33V21.64H1875.69V26.264H1877.16L1879.83 21.64H1882.07L1878.86 27.048V27.08L1882.27 33H1879.93L1877.16 28.04H1875.69V33H1873.63ZM1882.86 27.24C1882.86 25.608 1883.42 24.2373 1884.54 23.128C1885.67 22.008 1887.07 21.448 1888.73 21.448C1890.4 21.448 1891.79 22.008 1892.91 23.128C1894.04 24.2373 1894.6 25.608 1894.6 27.24C1894.6 28.9147 1894.04 30.328 1892.91 31.48C1891.79 32.6213 1890.4 33.192 1888.73 33.192C1887.07 33.192 1885.67 32.6213 1884.54 31.48C1883.42 30.328 1882.86 28.9147 1882.86 27.24ZM1884.99 27.24C1884.99 28.392 1885.35 29.3573 1886.08 30.136C1886.8 30.9147 1887.69 31.304 1888.73 31.304C1889.78 31.304 1890.66 30.9147 1891.39 30.136C1892.11 29.3573 1892.48 28.392 1892.48 27.24C1892.48 26.1413 1892.11 25.2187 1891.39 24.472C1890.66 23.7147 1889.78 23.336 1888.73 23.336C1887.69 23.336 1886.8 23.7147 1886.08 24.472C1885.35 25.2187 1884.99 26.1413 1884.99 27.24ZM1903.28 20.536C1902.77 20.9307 1902.15 21.128 1901.42 21.128C1900.7 21.128 1900.08 20.9307 1899.57 20.536C1899.06 20.1307 1898.8 19.592 1898.8 18.92V18.712H1900.35V18.92C1900.35 19.24 1900.46 19.4907 1900.67 19.672C1900.89 19.8427 1901.14 19.928 1901.42 19.928C1901.71 19.928 1901.96 19.8427 1902.18 19.672C1902.4 19.4907 1902.51 19.2347 1902.51 18.904V18.712H1904.05V18.92C1904.05 19.592 1903.79 20.1307 1903.28 20.536ZM1896.69 33V21.64H1898.75V28.2L1898.64 29.96H1898.67C1899.04 29.224 1899.36 28.632 1899.63 28.184L1903.92 21.64H1905.97V33H1903.92V26.456L1904.03 24.696H1904C1903.65 25.4213 1903.33 26.008 1903.06 26.456L1898.74 33H1896.69ZM1914.75 31.224H1919.26V23.416H1916.22V24.264C1916.22 27.3147 1915.73 29.6347 1914.75 31.224ZM1911.47 31.224H1912.62C1913.72 29.56 1914.27 27.192 1914.27 24.12V21.64H1921.33V31.224H1922.59V35.24H1920.75V33H1913.38V35.24H1911.47V31.224ZM1923.72 27.24C1923.72 25.608 1924.28 24.2373 1925.4 23.128C1926.53 22.008 1927.93 21.448 1929.59 21.448C1931.26 21.448 1932.65 22.008 1933.77 23.128C1934.9 24.2373 1935.46 25.608 1935.46 27.24C1935.46 28.9147 1934.9 30.328 1933.77 31.48C1932.65 32.6213 1931.26 33.192 1929.59 33.192C1927.93 33.192 1926.53 32.6213 1925.4 31.48C1924.28 30.328 1923.72 28.9147 1923.72 27.24ZM1925.85 27.24C1925.85 28.392 1926.21 29.3573 1926.94 30.136C1927.66 30.9147 1928.55 31.304 1929.59 31.304C1930.64 31.304 1931.52 30.9147 1932.25 30.136C1932.97 29.3573 1933.34 28.392 1933.34 27.24C1933.34 26.1413 1932.97 25.2187 1932.25 24.472C1931.52 23.7147 1930.64 23.336 1929.59 23.336C1928.55 23.336 1927.66 23.7147 1926.94 24.472C1926.21 25.2187 1925.85 26.1413 1925.85 27.24ZM1937.55 33V21.64H1939.61V26.264H1941.08L1943.76 21.64H1946L1942.78 27.048V27.08L1946.19 33H1943.85L1941.08 28.04H1939.61V33H1937.55ZM1947.45 32.408L1948.36 30.856C1948.84 31.2293 1949.27 31.416 1949.64 31.416C1950.14 31.416 1950.52 31.0853 1950.78 30.424L1946.33 21.64H1948.6L1951.02 26.712L1951.66 28.216H1951.69C1951.83 27.7147 1951.98 27.2187 1952.15 26.728L1953.98 21.64H1956.14L1952.63 30.616C1952.49 30.968 1952.35 31.2773 1952.2 31.544C1952.05 31.8107 1951.86 32.0773 1951.62 32.344C1951.39 32.6107 1951.11 32.8187 1950.79 32.968C1950.47 33.1173 1950.11 33.192 1949.72 33.192C1948.95 33.192 1948.19 32.9307 1947.45 32.408ZM1956.96 33L1957.89 21.64H1960.08L1962.32 27.256L1962.88 28.92H1962.91C1963.11 28.2587 1963.3 27.704 1963.47 27.256L1965.71 21.64H1967.9L1968.83 33H1966.77L1966.3 26.648C1966.28 26.424 1966.27 26.168 1966.27 25.88C1966.27 25.5813 1966.28 25.3413 1966.29 25.16V24.888H1966.26C1966.01 25.624 1965.8 26.2107 1965.63 26.648L1963.79 31.048H1962L1960.16 26.648L1959.54 24.872H1959.5C1959.54 25.5547 1959.53 26.1467 1959.49 26.648L1959.02 33H1956.96ZM1971.16 33V21.64H1977.96V23.416H1973.22V26.392H1977.05V28.168H1973.22V31.224H1978.21V33H1971.16ZM1980.27 33V21.64H1982.33V26.456H1987.53V21.64H1989.58V33H1987.53V28.232H1982.33V33H1980.27ZM1994.91 33V23.416H1991.18V21.64H2000.68V23.416H1996.95V33H1994.91ZM2000.11 33L2004.1 21.64H2006.27L2010.26 33H2008.14L2007.17 30.088H2003.18L2002.22 33H2000.11ZM2003.7 28.408H2006.66L2005.65 25.368L2005.2 23.608H2005.17C2005 24.3547 2004.85 24.9413 2004.72 25.368L2003.7 28.408ZM2011.77 33V21.64H2013.83V31.224H2018.74V21.64H2020.81V31.224H2022.15V35.24H2020.31V33H2011.77ZM2024.11 33V21.64H2026.17V28.2L2026.06 29.96H2026.09C2026.46 29.224 2026.78 28.632 2027.05 28.184L2031.34 21.64H2033.39V33H2031.34V26.456L2031.45 24.696H2031.42C2031.07 25.4213 2030.76 26.008 2030.48 26.456L2026.16 33H2024.11ZM2036.16 33V21.64H2038.22V28.2L2038.11 29.96H2038.14C2038.5 29.224 2038.82 28.632 2039.1 28.184L2043.39 21.64H2045.44V33H2043.39V26.456L2043.5 24.696H2043.47C2043.12 25.4213 2042.8 26.008 2042.53 26.456L2038.21 33H2036.16Z" fill="#005DFF"/>
<rect x="2081" width="474" height="55" rx="27.5" fill="#F3F6FF"/>
<path d="M2106.8 33V21.64H2116V33H2113.93V23.416H2108.86V33H2106.8ZM2118.75 33V21.64H2123.14C2124.2 21.64 2125.07 21.9813 2125.74 22.664C2126.42 23.3467 2126.75 24.2373 2126.75 25.336C2126.75 26.4347 2126.42 27.336 2125.74 28.04C2125.07 28.7333 2124.2 29.08 2123.14 29.08H2120.82V33H2118.75ZM2120.82 27.288H2122.75C2123.35 27.288 2123.81 27.112 2124.14 26.76C2124.48 26.408 2124.66 25.9333 2124.66 25.336C2124.66 24.7493 2124.48 24.2853 2124.14 23.944C2123.81 23.592 2123.36 23.416 2122.78 23.416H2120.82V27.288ZM2127.88 27.24C2127.88 25.608 2128.44 24.2373 2129.56 23.128C2130.69 22.008 2132.08 21.448 2133.75 21.448C2135.41 21.448 2136.8 22.008 2137.92 23.128C2139.05 24.2373 2139.62 25.608 2139.62 27.24C2139.62 28.9147 2139.05 30.328 2137.92 31.48C2136.8 32.6213 2135.41 33.192 2133.75 33.192C2132.08 33.192 2130.69 32.6213 2129.56 31.48C2128.44 30.328 2127.88 28.9147 2127.88 27.24ZM2130 27.24C2130 28.392 2130.37 29.3573 2131.09 30.136C2131.82 30.9147 2132.7 31.304 2133.75 31.304C2134.79 31.304 2135.68 30.9147 2136.4 30.136C2137.13 29.3573 2137.49 28.392 2137.49 27.24C2137.49 26.1413 2137.13 25.2187 2136.4 24.472C2135.68 23.7147 2134.79 23.336 2133.75 23.336C2132.7 23.336 2131.82 23.7147 2131.09 24.472C2130.37 25.2187 2130 26.1413 2130 27.24ZM2140.86 26.952C2140.86 25.5653 2141.34 24.4347 2142.3 23.56C2143.27 22.6853 2144.52 22.248 2146.06 22.248V21H2148.12V22.248C2149.66 22.248 2150.9 22.6853 2151.86 23.56C2152.83 24.4347 2153.32 25.5653 2153.32 26.952C2153.32 28.3707 2152.84 29.528 2151.88 30.424C2150.92 31.3093 2149.67 31.752 2148.12 31.752V33.192H2146.06V31.752C2144.52 31.752 2143.27 31.304 2142.3 30.408C2141.34 29.512 2140.86 28.36 2140.86 26.952ZM2148.12 30.024C2149.04 30.024 2149.78 29.7413 2150.36 29.176C2150.94 28.6 2151.22 27.8587 2151.22 26.952C2151.22 26.0667 2150.94 25.352 2150.36 24.808C2149.78 24.2533 2149.04 23.976 2148.12 23.976V30.024ZM2142.97 26.952C2142.97 27.8587 2143.25 28.6 2143.82 29.176C2144.39 29.7413 2145.14 30.024 2146.06 30.024V23.976C2145.14 23.976 2144.39 24.2533 2143.82 24.808C2143.25 25.352 2142.97 26.0667 2142.97 26.952ZM2155.22 33V21.64H2157.28V28.2L2157.17 29.96H2157.2C2157.57 29.224 2157.89 28.632 2158.16 28.184L2162.45 21.64H2164.5V33H2162.45V26.456L2162.56 24.696H2162.53C2162.18 25.4213 2161.87 26.008 2161.59 26.456L2157.27 33H2155.22ZM2166.11 31.24C2166.97 31.1227 2167.59 30.5573 2167.97 29.544C2168.37 28.52 2168.56 26.92 2168.56 24.744V21.64H2175.59V33H2173.52V23.416H2170.53V24.776C2170.53 27.5707 2170.18 29.6507 2169.49 31.016C2168.8 32.3707 2167.67 33.0747 2166.11 33.128V31.24ZM2177.1 33L2181.08 21.64H2183.26L2187.24 33H2185.13L2184.15 30.088H2180.17L2179.21 33H2177.1ZM2180.68 28.408H2183.64L2182.63 25.368L2182.18 23.608H2182.15C2181.98 24.3547 2181.83 24.9413 2181.7 25.368L2180.68 28.408ZM2188.75 33V21.64H2190.82V26.264H2192.29L2194.96 21.64H2197.2L2193.98 27.048V27.08L2197.39 33H2195.06L2192.29 28.04H2190.82V33H2188.75ZM2201.53 33V23.416H2197.8V21.64H2207.31V23.416H2203.58V33H2201.53ZM2208.92 33V21.64H2210.99V28.2L2210.87 29.96H2210.91C2211.27 29.224 2211.59 28.632 2211.87 28.184L2216.15 21.64H2218.2V33H2216.15V26.456L2216.27 24.696H2216.23C2215.88 25.4213 2215.57 26.008 2215.29 26.456L2210.97 33H2208.92ZM2220.97 33V21.64H2223.03V26.264H2224.51L2227.18 21.64H2229.42L2226.2 27.048V27.08L2229.61 33H2227.27L2224.51 28.04H2223.03V33H2220.97ZM2229.92 33L2233.91 21.64H2236.08L2240.07 33H2237.96L2236.98 30.088H2233L2232.04 33H2229.92ZM2233.51 28.408H2236.47L2235.46 25.368L2235.01 23.608H2234.98C2234.81 24.3547 2234.66 24.9413 2234.53 25.368L2233.51 28.408ZM2245.58 33V21.64H2247.64V26.456H2252.84V21.64H2254.89V33H2252.84V28.232H2247.64V33H2245.58ZM2257.64 33V21.64H2264.44V23.416H2259.71V26.392H2263.53V28.168H2259.71V31.224H2264.7V33H2257.64ZM2266.75 33V21.64H2268.82V28.2L2268.7 29.96H2268.74C2269.1 29.224 2269.42 28.632 2269.7 28.184L2273.98 21.64H2276.03V33H2273.98V26.456L2274.1 24.696H2274.06C2273.71 25.4213 2273.4 26.008 2273.12 26.456L2268.8 33H2266.75ZM2278.8 33V21.64H2280.86V26.456H2286.06V21.64H2288.11V33H2286.06V28.232H2280.86V33H2278.8ZM2290.01 26.952C2290.01 25.5653 2290.49 24.4347 2291.45 23.56C2292.42 22.6853 2293.68 22.248 2295.21 22.248V21H2297.28V22.248C2298.81 22.248 2300.06 22.6853 2301.02 23.56C2301.99 24.4347 2302.48 25.5653 2302.48 26.952C2302.48 28.3707 2302 29.528 2301.04 30.424C2300.08 31.3093 2298.82 31.752 2297.28 31.752V33.192H2295.21V31.752C2293.68 31.752 2292.42 31.304 2291.45 30.408C2290.49 29.512 2290.01 28.36 2290.01 26.952ZM2297.28 30.024C2298.19 30.024 2298.94 29.7413 2299.52 29.176C2300.09 28.6 2300.38 27.8587 2300.38 26.952C2300.38 26.0667 2300.09 25.352 2299.52 24.808C2298.94 24.2533 2298.19 23.976 2297.28 23.976V30.024ZM2292.12 26.952C2292.12 27.8587 2292.41 28.6 2292.97 29.176C2293.55 29.7413 2294.3 30.024 2295.21 30.024V23.976C2294.3 23.976 2293.55 24.2533 2292.97 24.808C2292.41 25.352 2292.12 26.0667 2292.12 26.952ZM2304.38 33V21.64H2311.18V23.416H2306.44V26.392H2310.26V28.168H2306.44V31.224H2311.43V33H2304.38ZM2313.49 33V21.64H2315.55V26.264H2317.02L2319.69 21.64H2321.93L2318.72 27.048V27.08L2322.13 33H2319.79L2317.02 28.04H2315.55V33H2313.49ZM2323.69 33V21.64H2325.75V31.224H2330.66V21.64H2332.73V31.224H2334.07V35.24H2332.23V33H2323.69ZM2336.03 33V21.64H2338.1V28.2L2337.98 29.96H2338.02C2338.38 29.224 2338.7 28.632 2338.98 28.184L2343.26 21.64H2345.31V33H2343.26V26.456L2343.38 24.696H2343.34C2342.99 25.4213 2342.68 26.008 2342.4 26.456L2338.08 33H2336.03ZM2347.41 27.24C2347.41 25.608 2347.97 24.2373 2349.09 23.128C2350.22 22.008 2351.62 21.448 2353.28 21.448C2354.94 21.448 2356.34 22.008 2357.46 23.128C2358.59 24.2373 2359.15 25.608 2359.15 27.24C2359.15 28.9147 2358.59 30.328 2357.46 31.48C2356.34 32.6213 2354.94 33.192 2353.28 33.192C2351.62 33.192 2350.22 32.6213 2349.09 31.48C2347.97 30.328 2347.41 28.9147 2347.41 27.24ZM2349.54 27.24C2349.54 28.392 2349.9 29.3573 2350.62 30.136C2351.35 30.9147 2352.23 31.304 2353.28 31.304C2354.32 31.304 2355.21 30.9147 2355.94 30.136C2356.66 29.3573 2357.02 28.392 2357.02 27.24C2357.02 26.1413 2356.66 25.2187 2355.94 24.472C2355.21 23.7147 2354.32 23.336 2353.28 23.336C2352.23 23.336 2351.35 23.7147 2350.62 24.472C2349.9 25.2187 2349.54 26.1413 2349.54 27.24ZM2361.24 33V21.64H2363.3V26.456H2368.5V21.64H2370.55V33H2368.5V28.232H2363.3V33H2361.24ZM2373.3 33V21.64H2375.36V26.456H2380.56V21.64H2382.61V33H2380.56V28.232H2375.36V33H2373.3ZM2394.56 33V21.64H2396.61V33H2394.56ZM2385.36 33V21.64H2387.42V25.624H2389.54C2390.59 25.624 2391.45 25.9653 2392.1 26.648C2392.76 27.32 2393.09 28.216 2393.09 29.336C2393.09 30.424 2392.76 31.3093 2392.11 31.992C2391.46 32.664 2390.62 33 2389.58 33H2385.36ZM2387.42 31.224H2389.22C2389.78 31.224 2390.22 31.0587 2390.53 30.728C2390.84 30.3867 2390.99 29.9227 2390.99 29.336C2390.99 28.7493 2390.83 28.28 2390.51 27.928C2390.19 27.576 2389.75 27.4 2389.18 27.4H2387.42V31.224ZM2398.21 33L2401.73 27.24L2398.34 21.64H2400.69L2402.26 24.424L2402.96 25.8H2402.99C2403.21 25.3307 2403.44 24.872 2403.7 24.424L2405.28 21.64H2407.63L2404.22 27.24L2407.76 33H2405.46L2403.68 29.944L2402.98 28.6H2402.94C2402.73 29.0587 2402.5 29.5067 2402.26 29.944L2400.5 33H2398.21ZM2412.31 31.576L2413.43 30.2C2413.73 30.5307 2414.12 30.808 2414.58 31.032C2415.04 31.256 2415.51 31.368 2415.99 31.368C2416.6 31.368 2417.09 31.2133 2417.46 30.904C2417.82 30.5947 2418 30.168 2418 29.624C2418 29.1333 2417.84 28.7493 2417.51 28.472C2417.19 28.184 2416.75 28.04 2416.19 28.04H2414.8V26.376H2415.92C2416.43 26.376 2416.85 26.2267 2417.19 25.928C2417.52 25.6293 2417.68 25.256 2417.68 24.808C2417.68 24.3493 2417.53 23.976 2417.23 23.688C2416.93 23.3893 2416.5 23.24 2415.94 23.24C2415.07 23.24 2414.25 23.56 2413.47 24.2L2412.64 22.696C2413.64 21.864 2414.86 21.448 2416.29 21.448C2417.26 21.448 2418.08 21.7253 2418.75 22.28C2419.44 22.8347 2419.78 23.592 2419.78 24.552C2419.78 25.672 2419.25 26.5147 2418.21 27.08V27.112C2418.8 27.2933 2419.26 27.6133 2419.6 28.072C2419.94 28.5307 2420.11 29.0907 2420.11 29.752C2420.11 30.7973 2419.73 31.6347 2418.98 32.264C2418.23 32.8827 2417.3 33.192 2416.18 33.192C2415.45 33.192 2414.74 33.0533 2414.05 32.776C2413.37 32.488 2412.79 32.088 2412.31 31.576ZM2420.85 33L2424.83 21.64H2427.01L2430.99 33H2428.88L2427.9 30.088H2423.92L2422.96 33H2420.85ZM2424.43 28.408H2427.39L2426.38 25.368L2425.93 23.608H2425.9C2425.73 24.3547 2425.58 24.9413 2425.45 25.368L2424.43 28.408ZM2432.5 33V21.64H2439.48V23.416H2434.57V26.04H2436.84C2437.89 26.04 2438.75 26.36 2439.4 27C2440.06 27.6293 2440.39 28.4773 2440.39 29.544C2440.39 30.568 2440.06 31.4 2439.41 32.04C2438.76 32.68 2437.92 33 2436.89 33H2432.5ZM2434.57 31.224H2436.52C2437.08 31.224 2437.52 31.0747 2437.83 30.776C2438.14 30.4773 2438.29 30.0667 2438.29 29.544C2438.29 29.0213 2438.13 28.6053 2437.81 28.296C2437.49 27.976 2437.05 27.816 2436.49 27.816H2434.57V31.224ZM2441.69 27.24C2441.69 25.608 2442.25 24.2373 2443.37 23.128C2444.5 22.008 2445.9 21.448 2447.56 21.448C2449.22 21.448 2450.62 22.008 2451.74 23.128C2452.87 24.2373 2453.43 25.608 2453.43 27.24C2453.43 28.9147 2452.87 30.328 2451.74 31.48C2450.62 32.6213 2449.22 33.192 2447.56 33.192C2445.9 33.192 2444.5 32.6213 2443.37 31.48C2442.25 30.328 2441.69 28.9147 2441.69 27.24ZM2443.82 27.24C2443.82 28.392 2444.18 29.3573 2444.9 30.136C2445.63 30.9147 2446.52 31.304 2447.56 31.304C2448.61 31.304 2449.49 30.9147 2450.22 30.136C2450.94 29.3573 2451.3 28.392 2451.3 27.24C2451.3 26.1413 2450.94 25.2187 2450.22 24.472C2449.49 23.7147 2448.61 23.336 2447.56 23.336C2446.52 23.336 2445.63 23.7147 2444.9 24.472C2444.18 25.2187 2443.82 26.1413 2443.82 27.24ZM2454.05 31.24C2454.91 31.1227 2455.52 30.5573 2455.91 29.544C2456.3 28.52 2456.5 26.92 2456.5 24.744V21.64H2463.52V33H2461.46V23.416H2458.47V24.776C2458.47 27.5707 2458.12 29.6507 2457.43 31.016C2456.73 32.3707 2455.61 33.0747 2454.05 33.128V31.24ZM2466.28 33V21.64H2473.08V23.416H2468.35V26.392H2472.17V28.168H2468.35V31.224H2473.34V33H2466.28ZM2475.39 33V21.64H2479.44C2480.5 21.64 2481.34 21.9013 2481.98 22.424C2482.63 22.936 2482.96 23.6507 2482.96 24.568C2482.96 25.1013 2482.84 25.5813 2482.59 26.008C2482.35 26.4347 2482.01 26.7653 2481.58 27V27.032C2482.18 27.2027 2482.63 27.5387 2482.94 28.04C2483.26 28.5413 2483.42 29.096 2483.42 29.704C2483.42 30.7813 2483.05 31.6027 2482.3 32.168C2481.56 32.7227 2480.62 33 2479.5 33H2475.39ZM2477.46 26.28H2479.46C2479.89 26.28 2480.23 26.1467 2480.48 25.88C2480.74 25.6027 2480.86 25.2507 2480.86 24.824C2480.86 24.408 2480.74 24.072 2480.48 23.816C2480.23 23.5493 2479.88 23.416 2479.42 23.416H2477.46V26.28ZM2477.46 31.224H2479.66C2480.18 31.224 2480.58 31.0747 2480.86 30.776C2481.16 30.4667 2481.31 30.0667 2481.31 29.576C2481.31 29.096 2481.16 28.7067 2480.86 28.408C2480.58 28.0987 2480.18 27.944 2479.66 27.944H2477.46V31.224ZM2484.14 33L2488.13 21.64H2490.3L2494.29 33H2492.18L2491.2 30.088H2487.22L2486.26 33H2484.14ZM2487.73 28.408H2490.69L2489.68 25.368L2489.23 23.608H2489.2C2489.03 24.3547 2488.88 24.9413 2488.75 25.368L2487.73 28.408ZM2495.8 33V21.64H2497.86V26.456H2503.06V21.64H2505.11V33H2503.06V28.232H2497.86V33H2495.8ZM2507.86 33V21.64H2509.92V28.2L2509.81 29.96H2509.84C2510.21 29.224 2510.53 28.632 2510.8 28.184L2515.09 21.64H2517.14V33H2515.09V26.456L2515.2 24.696H2515.17C2514.82 25.4213 2514.51 26.008 2514.23 26.456L2509.91 33H2507.86ZM2526.5 20.536C2525.99 20.9307 2525.37 21.128 2524.64 21.128C2523.92 21.128 2523.3 20.9307 2522.79 20.536C2522.28 20.1307 2522.02 19.592 2522.02 18.92V18.712H2523.57V18.92C2523.57 19.24 2523.68 19.4907 2523.89 19.672C2524.1 19.8427 2524.36 19.928 2524.64 19.928C2524.93 19.928 2525.18 19.8427 2525.4 19.672C2525.62 19.4907 2525.73 19.2347 2525.73 18.904V18.712H2527.27V18.92C2527.27 19.592 2527.01 20.1307 2526.5 20.536ZM2519.91 33V21.64H2521.97V28.2L2521.86 29.96H2521.89C2522.25 29.224 2522.57 28.632 2522.85 28.184L2527.14 21.64H2529.19V33H2527.14V26.456L2527.25 24.696H2527.22C2526.87 25.4213 2526.55 26.008 2526.28 26.456L2521.96 33H2519.91Z" fill="#252525"/>
</svg>
