<svg width="2687" height="55" viewBox="0 0 2687 55" fill="none" xmlns="http://www.w3.org/2000/svg">
<rect width="353" height="55" rx="27.5" fill="#F3F6FF"/>
<path d="M24.7743 27.24C24.7743 25.608 25.3343 24.2373 26.4543 23.128C27.585 22.008 28.9823 21.448 30.6463 21.448C32.3103 21.448 33.7023 22.008 34.8223 23.128C35.953 24.2373 36.5183 25.608 36.5183 27.24C36.5183 28.9147 35.953 30.328 34.8223 31.48C33.7023 32.6213 32.3103 33.192 30.6463 33.192C28.9823 33.192 27.585 32.6213 26.4543 31.48C25.3343 30.328 24.7743 28.9147 24.7743 27.24ZM26.9023 27.24C26.9023 28.392 27.265 29.3573 27.9903 30.136C28.7156 30.9147 29.601 31.304 30.6463 31.304C31.6916 31.304 32.577 30.9147 33.3023 30.136C34.0276 29.3573 34.3903 28.392 34.3903 27.24C34.3903 26.1413 34.0276 25.2187 33.3023 24.472C32.577 23.7147 31.6916 23.336 30.6463 23.336C29.601 23.336 28.7156 23.7147 27.9903 24.472C27.265 25.2187 26.9023 26.1413 26.9023 27.24ZM38.6026 33V21.64H40.6666V26.264H42.1386L44.8106 21.64H47.0506L43.8346 27.048V27.08L47.2426 33H44.9066L42.1386 28.04H40.6666V33H38.6026ZM47.5577 33L51.5417 21.64H53.7177L57.7017 33H55.5897L54.6137 30.088H50.6297L49.6697 33H47.5577ZM51.1417 28.408H54.1017L53.0937 25.368L52.6457 23.608H52.6137C52.443 24.3547 52.2937 24.9413 52.1657 25.368L51.1417 28.408ZM58.1879 31.576L59.3079 30.2C59.6173 30.5307 60.0013 30.808 60.4599 31.032C60.9186 31.256 61.3879 31.368 61.8679 31.368C62.4866 31.368 62.9773 31.2133 63.3399 30.904C63.7026 30.5947 63.8839 30.168 63.8839 29.624C63.8839 29.1333 63.7186 28.7493 63.3879 28.472C63.0679 28.184 62.6306 28.04 62.0759 28.04H60.6839V26.376H61.8039C62.3159 26.376 62.7373 26.2267 63.0679 25.928C63.3986 25.6293 63.5639 25.256 63.5639 24.808C63.5639 24.3493 63.4146 23.976 63.1159 23.688C62.8173 23.3893 62.3853 23.24 61.8199 23.24C60.9559 23.24 60.1346 23.56 59.3559 24.2L58.5239 22.696C59.5266 21.864 60.7426 21.448 62.1719 21.448C63.1426 21.448 63.9639 21.7253 64.6359 22.28C65.3186 22.8347 65.6599 23.592 65.6599 24.552C65.6599 25.672 65.1373 26.5147 64.0919 27.08V27.112C64.6786 27.2933 65.1426 27.6133 65.4839 28.072C65.8253 28.5307 65.9959 29.0907 65.9959 29.752C65.9959 30.7973 65.6173 31.6347 64.8599 32.264C64.1133 32.8827 63.1799 33.192 62.0599 33.192C61.3346 33.192 60.6253 33.0533 59.9319 32.776C59.2493 32.488 58.6679 32.088 58.1879 31.576ZM66.7296 33L70.7136 21.64H72.8896L76.8736 33H74.7616L73.7856 30.088H69.8016L68.8416 33H66.7296ZM70.3136 28.408H73.2736L72.2656 25.368L71.8176 23.608H71.7856C71.6149 24.3547 71.4656 24.9413 71.3376 25.368L70.3136 28.408ZM78.3838 33V21.64H80.4478V26.456H85.6478V21.64H87.6958V33H85.6478V28.232H80.4478V33H78.3838ZM90.4463 33V21.64H92.5103V28.2L92.3983 29.96H92.4303C92.793 29.224 93.113 28.632 93.3903 28.184L97.6783 21.64H99.7263V33H97.6783V26.456L97.7903 24.696H97.7583C97.4063 25.4213 97.0916 26.008 96.8143 26.456L92.4943 33H90.4463ZM102.493 33V21.64H109.293V23.416H104.557V26.392H108.381V28.168H104.557V31.224H109.549V33H102.493ZM115.171 33L116.099 21.64H118.291L120.531 27.256L121.091 28.92H121.123C121.325 28.2587 121.512 27.704 121.683 27.256L123.923 21.64H126.115L127.043 33H124.979L124.515 26.648C124.493 26.424 124.483 26.168 124.483 25.88C124.483 25.5813 124.488 25.3413 124.499 25.16V24.888H124.467C124.221 25.624 124.013 26.2107 123.843 26.648L122.003 31.048H120.211L118.371 26.648L117.747 24.872H117.715C117.747 25.5547 117.741 26.1467 117.699 26.648L117.235 33H115.171ZM129.368 33V21.64H136.168V23.416H131.432V26.392H135.256V28.168H131.432V31.224H136.424V33H129.368ZM140.494 31.224H145.006V23.416H141.966V24.264C141.966 27.3147 141.475 29.6347 140.494 31.224ZM137.214 31.224H138.366C139.464 29.56 140.014 27.192 140.014 24.12V21.64H147.07V31.224H148.334V35.24H146.494V33H139.118V35.24H137.214V31.224ZM150.321 33V21.64H152.385V28.2L152.273 29.96H152.305C152.668 29.224 152.988 28.632 153.265 28.184L157.553 21.64H159.601V33H157.553V26.456L157.665 24.696H157.633C157.281 25.4213 156.967 26.008 156.689 26.456L152.369 33H150.321ZM162.368 33V21.64H164.432V31.224H169.344V21.64H171.408V31.224H172.752V35.24H170.912V33H162.368ZM174.712 33V21.64H176.776V28.2L176.664 29.96H176.696C177.059 29.224 177.379 28.632 177.656 28.184L181.944 21.64H183.992V33H181.944V26.456L182.056 24.696H182.024C181.672 25.4213 181.357 26.008 181.08 26.456L176.76 33H174.712ZM186.759 33V21.64H188.823V26.456H194.023V21.64H196.071V33H194.023V28.232H188.823V33H186.759ZM198.165 27.272C198.165 25.608 198.715 24.2213 199.813 23.112C200.912 22.0027 202.309 21.448 204.005 21.448C205.733 21.448 207.131 21.9653 208.197 23L207.205 24.536C206.789 24.184 206.299 23.896 205.733 23.672C205.179 23.448 204.635 23.336 204.101 23.336C202.907 23.336 201.973 23.7093 201.301 24.456C200.629 25.2027 200.293 26.1307 200.293 27.24C200.293 28.36 200.635 29.32 201.317 30.12C202 30.9093 202.933 31.304 204.117 31.304C205.333 31.304 206.432 30.824 207.413 29.864L208.501 31.352C207.296 32.5787 205.808 33.192 204.037 33.192C202.277 33.192 200.859 32.632 199.781 31.512C198.704 30.392 198.165 28.9787 198.165 27.272ZM210.274 33V21.64H212.338V26.264H213.81L216.482 21.64H218.722L215.506 27.048V27.08L218.914 33H216.578L213.81 28.04H212.338V33H210.274ZM219.509 27.24C219.509 25.608 220.069 24.2373 221.189 23.128C222.319 22.008 223.717 21.448 225.381 21.448C227.045 21.448 228.437 22.008 229.557 23.128C230.687 24.2373 231.253 25.608 231.253 27.24C231.253 28.9147 230.687 30.328 229.557 31.48C228.437 32.6213 227.045 33.192 225.381 33.192C223.717 33.192 222.319 32.6213 221.189 31.48C220.069 30.328 219.509 28.9147 219.509 27.24ZM221.637 27.24C221.637 28.392 221.999 29.3573 222.725 30.136C223.45 30.9147 224.335 31.304 225.381 31.304C226.426 31.304 227.311 30.9147 228.037 30.136C228.762 29.3573 229.125 28.392 229.125 27.24C229.125 26.1413 228.762 25.2187 228.037 24.472C227.311 23.7147 226.426 23.336 225.381 23.336C224.335 23.336 223.45 23.7147 222.725 24.472C221.999 25.2187 221.637 26.1413 221.637 27.24ZM239.929 20.536C239.417 20.9307 238.798 21.128 238.073 21.128C237.348 21.128 236.729 20.9307 236.217 20.536C235.705 20.1307 235.449 19.592 235.449 18.92V18.712H237.001V18.92C237.001 19.24 237.108 19.4907 237.321 19.672C237.534 19.8427 237.785 19.928 238.073 19.928C238.361 19.928 238.612 19.8427 238.825 19.672C239.049 19.4907 239.161 19.2347 239.161 18.904V18.712H240.697V18.92C240.697 19.592 240.441 20.1307 239.929 20.536ZM233.337 33V21.64H235.401V28.2L235.289 29.96H235.321C235.684 29.224 236.004 28.632 236.281 28.184L240.569 21.64H242.617V33H240.569V26.456L240.681 24.696H240.649C240.297 25.4213 239.982 26.008 239.705 26.456L235.385 33H233.337ZM249.384 33V21.64H258.584V33H256.52V23.416H251.448V33H249.384ZM260.665 27.24C260.665 25.608 261.225 24.2373 262.345 23.128C263.476 22.008 264.873 21.448 266.537 21.448C268.201 21.448 269.593 22.008 270.713 23.128C271.844 24.2373 272.409 25.608 272.409 27.24C272.409 28.9147 271.844 30.328 270.713 31.48C269.593 32.6213 268.201 33.192 266.537 33.192C264.873 33.192 263.476 32.6213 262.345 31.48C261.225 30.328 260.665 28.9147 260.665 27.24ZM262.793 27.24C262.793 28.392 263.156 29.3573 263.881 30.136C264.606 30.9147 265.492 31.304 266.537 31.304C267.582 31.304 268.468 30.9147 269.193 30.136C269.918 29.3573 270.281 28.392 270.281 27.24C270.281 26.1413 269.918 25.2187 269.193 24.472C268.468 23.7147 267.582 23.336 266.537 23.336C265.492 23.336 264.606 23.7147 263.881 24.472C263.156 25.2187 262.793 26.1413 262.793 27.24ZM274.061 33L274.989 21.64H277.181L279.421 27.256L279.981 28.92H280.013C280.216 28.2587 280.403 27.704 280.573 27.256L282.813 21.64H285.005L285.933 33H283.869L283.405 26.648C283.384 26.424 283.373 26.168 283.373 25.88C283.373 25.5813 283.379 25.3413 283.389 25.16V24.888H283.357C283.112 25.624 282.904 26.2107 282.733 26.648L280.893 31.048H279.101L277.261 26.648L276.637 24.872H276.605C276.637 25.5547 276.632 26.1467 276.589 26.648L276.125 33H274.061ZM287.587 27.24C287.587 25.608 288.147 24.2373 289.267 23.128C290.397 22.008 291.795 21.448 293.459 21.448C295.123 21.448 296.515 22.008 297.635 23.128C298.765 24.2373 299.331 25.608 299.331 27.24C299.331 28.9147 298.765 30.328 297.635 31.48C296.515 32.6213 295.123 33.192 293.459 33.192C291.795 33.192 290.397 32.6213 289.267 31.48C288.147 30.328 287.587 28.9147 287.587 27.24ZM289.715 27.24C289.715 28.392 290.077 29.3573 290.803 30.136C291.528 30.9147 292.413 31.304 293.459 31.304C294.504 31.304 295.389 30.9147 296.115 30.136C296.84 29.3573 297.203 28.392 297.203 27.24C297.203 26.1413 296.84 25.2187 296.115 24.472C295.389 23.7147 294.504 23.336 293.459 23.336C292.413 23.336 291.528 23.7147 290.803 24.472C290.077 25.2187 289.715 26.1413 289.715 27.24ZM301.415 33V21.64H303.479V31.224H307.143V21.64H309.207V31.224H312.871V21.64H314.919V31.224H316.327V35.24H314.471V33H301.415ZM318.259 33V21.64H320.323V28.2L320.211 29.96H320.243C320.605 29.224 320.925 28.632 321.203 28.184L325.491 21.64H327.539V33H325.491V26.456L325.603 24.696H325.571C325.219 25.4213 324.904 26.008 324.627 26.456L320.307 33H318.259Z" fill="#252525"/>
<rect x="363" width="527" height="55" rx="27.5" fill="#F3F6FF"/>
<path d="M387.821 27.24C387.821 25.608 388.381 24.2373 389.501 23.128C390.632 22.008 392.029 21.448 393.693 21.448C395.357 21.448 396.749 22.008 397.869 23.128C399 24.2373 399.565 25.608 399.565 27.24C399.565 28.9147 399 30.328 397.869 31.48C396.749 32.6213 395.357 33.192 393.693 33.192C392.029 33.192 390.632 32.6213 389.501 31.48C388.381 30.328 387.821 28.9147 387.821 27.24ZM389.949 27.24C389.949 28.392 390.312 29.3573 391.037 30.136C391.763 30.9147 392.648 31.304 393.693 31.304C394.739 31.304 395.624 30.9147 396.349 30.136C397.075 29.3573 397.437 28.392 397.437 27.24C397.437 26.1413 397.075 25.2187 396.349 24.472C395.624 23.7147 394.739 23.336 393.693 23.336C392.648 23.336 391.763 23.7147 391.037 24.472C390.312 25.2187 389.949 26.1413 389.949 27.24ZM400.993 27.272C400.993 25.608 401.543 24.2213 402.641 23.112C403.74 22.0027 405.137 21.448 406.833 21.448C408.561 21.448 409.959 21.9653 411.025 23L410.033 24.536C409.617 24.184 409.127 23.896 408.561 23.672C408.007 23.448 407.463 23.336 406.929 23.336C405.735 23.336 404.801 23.7093 404.129 24.456C403.457 25.2027 403.121 26.1307 403.121 27.24C403.121 28.36 403.463 29.32 404.145 30.12C404.828 30.9093 405.761 31.304 406.945 31.304C408.161 31.304 409.26 30.824 410.241 29.864L411.329 31.352C410.124 32.5787 408.636 33.192 406.865 33.192C405.105 33.192 403.687 32.632 402.609 31.512C401.532 30.392 400.993 28.9787 400.993 27.272ZM412.799 32.408L413.711 30.856C414.191 31.2293 414.617 31.416 414.991 31.416C415.492 31.416 415.871 31.0853 416.127 30.424L411.679 21.64H413.951L416.367 26.712L417.007 28.216H417.039C417.177 27.7147 417.332 27.2187 417.503 26.728L419.327 21.64H421.487L417.983 30.616C417.844 30.968 417.7 31.2773 417.551 31.544C417.401 31.8107 417.209 32.0773 416.975 32.344C416.74 32.6107 416.463 32.8187 416.143 32.968C415.823 33.1173 415.465 33.192 415.071 33.192C414.303 33.192 413.545 32.9307 412.799 32.408ZM422.899 33V21.64H424.963V31.224H428.627V21.64H430.691V31.224H434.355V21.64H436.403V31.224H437.811V35.24H435.955V33H422.899ZM439.743 33V21.64H446.543V23.416H441.807V26.392H445.631V28.168H441.807V31.224H446.799V33H439.743ZM447.993 27.272C447.993 25.608 448.543 24.2213 449.641 23.112C450.74 22.0027 452.137 21.448 453.833 21.448C455.561 21.448 456.959 21.9653 458.025 23L457.033 24.536C456.617 24.184 456.127 23.896 455.561 23.672C455.007 23.448 454.463 23.336 453.929 23.336C452.735 23.336 451.801 23.7093 451.129 24.456C450.457 25.2027 450.121 26.1307 450.121 27.24C450.121 28.36 450.463 29.32 451.145 30.12C451.828 30.9093 452.761 31.304 453.945 31.304C455.161 31.304 456.26 30.824 457.241 29.864L458.329 31.352C457.124 32.5787 455.636 33.192 453.865 33.192C452.105 33.192 450.687 32.632 449.609 31.512C448.532 30.392 447.993 28.9787 447.993 27.272ZM462.679 33V23.416H458.951V21.64H468.455V23.416H464.727V33H462.679ZM470.071 33V21.64H474.119C475.175 21.64 476.023 21.9013 476.663 22.424C477.314 22.936 477.639 23.6507 477.639 24.568C477.639 25.1013 477.517 25.5813 477.271 26.008C477.026 26.4347 476.69 26.7653 476.263 27V27.032C476.861 27.2027 477.314 27.5387 477.623 28.04C477.943 28.5413 478.103 29.096 478.103 29.704C478.103 30.7813 477.73 31.6027 476.983 32.168C476.237 32.7227 475.303 33 474.183 33H470.071ZM472.135 26.28H474.135C474.573 26.28 474.914 26.1467 475.159 25.88C475.415 25.6027 475.543 25.2507 475.543 24.824C475.543 24.408 475.415 24.072 475.159 23.816C474.914 23.5493 474.562 23.416 474.103 23.416H472.135V26.28ZM472.135 31.224H474.343C474.855 31.224 475.255 31.0747 475.543 30.776C475.842 30.4667 475.991 30.0667 475.991 29.576C475.991 29.096 475.842 28.7067 475.543 28.408C475.255 28.0987 474.855 27.944 474.343 27.944H472.135V31.224ZM478.935 31.24C479.788 31.1227 480.407 30.5573 480.791 29.544C481.186 28.52 481.383 26.92 481.383 24.744V21.64H488.407V33H486.343V23.416H483.351V24.776C483.351 27.5707 483.004 29.6507 482.311 31.016C481.618 32.3707 480.492 33.0747 478.935 33.128V31.24ZM491.165 33V21.64H497.965V23.416H493.229V26.392H497.053V28.168H493.229V31.224H498.221V33H491.165ZM500.274 33V21.64H502.338V26.456H507.538V21.64H509.586V33H507.538V28.232H502.338V33H500.274ZM512.337 33V21.64H514.401V28.2L514.289 29.96H514.321C514.684 29.224 515.004 28.632 515.281 28.184L519.569 21.64H521.617V33H519.569V26.456L519.681 24.696H519.649C519.297 25.4213 518.982 26.008 518.705 26.456L514.385 33H512.337ZM524.384 33V21.64H531.184V23.416H526.448V26.392H530.272V28.168H526.448V31.224H531.44V33H524.384ZM536.837 27.272C536.837 25.608 537.387 24.2213 538.485 23.112C539.584 22.0027 540.981 21.448 542.677 21.448C544.405 21.448 545.803 21.9653 546.869 23L545.877 24.536C545.461 24.184 544.971 23.896 544.405 23.672C543.851 23.448 543.307 23.336 542.773 23.336C541.579 23.336 540.645 23.7093 539.973 24.456C539.301 25.2027 538.965 26.1307 538.965 27.24C538.965 28.36 539.307 29.32 539.989 30.12C540.672 30.9093 541.605 31.304 542.789 31.304C544.005 31.304 545.104 30.824 546.085 29.864L547.173 31.352C545.968 32.5787 544.48 33.192 542.709 33.192C540.949 33.192 539.531 32.632 538.453 31.512C537.376 30.392 536.837 28.9787 536.837 27.272ZM548.946 33V21.64H555.746V23.416H551.01V26.392H554.834V28.168H551.01V31.224H556.002V33H548.946ZM557.197 27.272C557.197 25.608 557.746 24.2213 558.845 23.112C559.943 22.0027 561.341 21.448 563.037 21.448C564.765 21.448 566.162 21.9653 567.229 23L566.237 24.536C565.821 24.184 565.33 23.896 564.765 23.672C564.21 23.448 563.666 23.336 563.133 23.336C561.938 23.336 561.005 23.7093 560.333 24.456C559.661 25.2027 559.325 26.1307 559.325 27.24C559.325 28.36 559.666 29.32 560.349 30.12C561.031 30.9093 561.965 31.304 563.149 31.304C564.365 31.304 565.463 30.824 566.445 29.864L567.533 31.352C566.327 32.5787 564.839 33.192 563.069 33.192C561.309 33.192 559.89 32.632 558.813 31.512C557.735 30.392 557.197 28.9787 557.197 27.272ZM571.882 33V23.416H568.154V21.64H577.658V23.416H573.93V33H571.882ZM579.274 33V21.64H583.658C584.725 21.64 585.594 21.9813 586.266 22.664C586.938 23.3467 587.274 24.2373 587.274 25.336C587.274 26.4347 586.938 27.336 586.266 28.04C585.594 28.7333 584.725 29.08 583.658 29.08H581.338V33H579.274ZM581.338 27.288H583.274C583.872 27.288 584.336 27.112 584.666 26.76C585.008 26.408 585.178 25.9333 585.178 25.336C585.178 24.7493 585.008 24.2853 584.666 23.944C584.336 23.592 583.882 23.416 583.306 23.416H581.338V27.288ZM589.071 33V21.64H591.135V28.2L591.023 29.96H591.055C591.418 29.224 591.738 28.632 592.015 28.184L596.303 21.64H598.351V33H596.303V26.456L596.415 24.696H596.383C596.031 25.4213 595.717 26.008 595.439 26.456L591.119 33H589.071ZM601.118 33V21.64H603.182V26.456H608.382V21.64H610.43V33H608.382V28.232H603.182V33H601.118ZM612.525 27.272C612.525 25.608 613.074 24.2213 614.173 23.112C615.271 22.0027 616.669 21.448 618.365 21.448C620.093 21.448 621.49 21.9653 622.557 23L621.565 24.536C621.149 24.184 620.658 23.896 620.093 23.672C619.538 23.448 618.994 23.336 618.461 23.336C617.266 23.336 616.333 23.7093 615.661 24.456C614.989 25.2027 614.653 26.1307 614.653 27.24C614.653 28.36 614.994 29.32 615.677 30.12C616.359 30.9093 617.293 31.304 618.477 31.304C619.693 31.304 620.791 30.824 621.773 29.864L622.861 31.352C621.655 32.5787 620.167 33.192 618.397 33.192C616.637 33.192 615.218 32.632 614.141 31.512C613.063 30.392 612.525 28.9787 612.525 27.272ZM624.634 33V21.64H626.698V26.264H628.17L630.842 21.64H633.082L629.866 27.048V27.08L633.274 33H630.938L628.17 28.04H626.698V33H624.634ZM633.868 27.24C633.868 25.608 634.428 24.2373 635.548 23.128C636.679 22.008 638.076 21.448 639.74 21.448C641.404 21.448 642.796 22.008 643.916 23.128C645.047 24.2373 645.612 25.608 645.612 27.24C645.612 28.9147 645.047 30.328 643.916 31.48C642.796 32.6213 641.404 33.192 639.74 33.192C638.076 33.192 636.679 32.6213 635.548 31.48C634.428 30.328 633.868 28.9147 633.868 27.24ZM635.996 27.24C635.996 28.392 636.359 29.3573 637.084 30.136C637.809 30.9147 638.695 31.304 639.74 31.304C640.785 31.304 641.671 30.9147 642.396 30.136C643.121 29.3573 643.484 28.392 643.484 27.24C643.484 26.1413 643.121 25.2187 642.396 24.472C641.671 23.7147 640.785 23.336 639.74 23.336C638.695 23.336 637.809 23.7147 637.084 24.472C636.359 25.2187 635.996 26.1413 635.996 27.24ZM647.696 33V21.64H654.224V23.416H649.76V33H647.696ZM654.712 27.24C654.712 25.608 655.272 24.2373 656.392 23.128C657.522 22.008 658.92 21.448 660.584 21.448C662.248 21.448 663.64 22.008 664.76 23.128C665.89 24.2373 666.456 25.608 666.456 27.24C666.456 28.9147 665.89 30.328 664.76 31.48C663.64 32.6213 662.248 33.192 660.584 33.192C658.92 33.192 657.522 32.6213 656.392 31.48C655.272 30.328 654.712 28.9147 654.712 27.24ZM656.84 27.24C656.84 28.392 657.202 29.3573 657.928 30.136C658.653 30.9147 659.538 31.304 660.584 31.304C661.629 31.304 662.514 30.9147 663.24 30.136C663.965 29.3573 664.328 28.392 664.328 27.24C664.328 26.1413 663.965 25.2187 663.24 24.472C662.514 23.7147 661.629 23.336 660.584 23.336C659.538 23.336 658.653 23.7147 657.928 24.472C657.202 25.2187 656.84 26.1413 656.84 27.24ZM672.236 32.408L673.148 30.856C673.628 31.2293 674.055 31.416 674.428 31.416C674.929 31.416 675.308 31.0853 675.564 30.424L671.116 21.64H673.388L675.804 26.712L676.444 28.216H676.476C676.615 27.7147 676.769 27.2187 676.94 26.728L678.764 21.64H680.924L677.42 30.616C677.281 30.968 677.137 31.2773 676.988 31.544C676.839 31.8107 676.647 32.0773 676.412 32.344C676.177 32.6107 675.9 32.8187 675.58 32.968C675.26 33.1173 674.903 33.192 674.508 33.192C673.74 33.192 672.983 32.9307 672.236 32.408ZM681.169 33L684.689 27.24L681.297 21.64H683.649L685.217 24.424L685.921 25.8H685.953C686.166 25.3307 686.401 24.872 686.657 24.424L688.241 21.64H690.593L687.185 27.24L690.721 33H688.417L686.641 29.944L685.937 28.6H685.905C685.692 29.0587 685.462 29.5067 685.217 29.944L683.457 33H681.169ZM691.212 27.24C691.212 25.608 691.772 24.2373 692.892 23.128C694.022 22.008 695.42 21.448 697.084 21.448C698.748 21.448 700.14 22.008 701.26 23.128C702.39 24.2373 702.956 25.608 702.956 27.24C702.956 28.9147 702.39 30.328 701.26 31.48C700.14 32.6213 698.748 33.192 697.084 33.192C695.42 33.192 694.022 32.6213 692.892 31.48C691.772 30.328 691.212 28.9147 691.212 27.24ZM693.34 27.24C693.34 28.392 693.702 29.3573 694.428 30.136C695.153 30.9147 696.038 31.304 697.084 31.304C698.129 31.304 699.014 30.9147 699.74 30.136C700.465 29.3573 700.828 28.392 700.828 27.24C700.828 26.1413 700.465 25.2187 699.74 24.472C699.014 23.7147 698.129 23.336 697.084 23.336C696.038 23.336 695.153 23.7147 694.428 24.472C693.702 25.2187 693.34 26.1413 693.34 27.24ZM706.681 31.224H711.193V23.416H708.153V24.264C708.153 27.3147 707.662 29.6347 706.681 31.224ZM703.401 31.224H704.553C705.652 29.56 706.201 27.192 706.201 24.12V21.64H713.257V31.224H714.521V35.24H712.681V33H705.305V35.24H703.401V31.224ZM715.261 33L719.245 21.64H721.421L725.405 33H723.293L722.317 30.088H718.333L717.373 33H715.261ZM718.845 28.408H721.805L720.797 25.368L720.349 23.608H720.317C720.146 24.3547 719.997 24.9413 719.869 25.368L718.845 28.408ZM729.891 31.576L731.011 30.2C731.32 30.5307 731.704 30.808 732.163 31.032C732.622 31.256 733.091 31.368 733.571 31.368C734.19 31.368 734.68 31.2133 735.043 30.904C735.406 30.5947 735.587 30.168 735.587 29.624C735.587 29.1333 735.422 28.7493 735.091 28.472C734.771 28.184 734.334 28.04 733.779 28.04H732.387V26.376H733.507C734.019 26.376 734.44 26.2267 734.771 25.928C735.102 25.6293 735.267 25.256 735.267 24.808C735.267 24.3493 735.118 23.976 734.819 23.688C734.52 23.3893 734.088 23.24 733.523 23.24C732.659 23.24 731.838 23.56 731.059 24.2L730.227 22.696C731.23 21.864 732.446 21.448 733.875 21.448C734.846 21.448 735.667 21.7253 736.339 22.28C737.022 22.8347 737.363 23.592 737.363 24.552C737.363 25.672 736.84 26.5147 735.795 27.08V27.112C736.382 27.2933 736.846 27.6133 737.187 28.072C737.528 28.5307 737.699 29.0907 737.699 29.752C737.699 30.7973 737.32 31.6347 736.563 32.264C735.816 32.8827 734.883 33.192 733.763 33.192C733.038 33.192 732.328 33.0533 731.635 32.776C730.952 32.488 730.371 32.088 729.891 31.576ZM738.433 33L742.417 21.64H744.593L748.577 33H746.465L745.489 30.088H741.505L740.545 33H738.433ZM742.017 28.408H744.977L743.969 25.368L743.521 23.608H743.489C743.318 24.3547 743.169 24.9413 743.041 25.368L742.017 28.408ZM754.087 33V21.64H763.287V33H761.223V23.416H756.151V33H754.087ZM764.792 33L768.776 21.64H770.952L774.936 33H772.824L771.848 30.088H767.864L766.904 33H764.792ZM768.376 28.408H771.336L770.328 25.368L769.88 23.608H769.848C769.677 24.3547 769.528 24.9413 769.4 25.368L768.376 28.408ZM776.446 33V21.64H778.51V31.224H783.422V21.64H785.486V31.224H786.83V35.24H784.99V33H776.446ZM788.79 33V21.64H790.854V28.2L790.742 29.96H790.774C791.137 29.224 791.457 28.632 791.734 28.184L796.022 21.64H798.07V33H796.022V26.456L796.134 24.696H796.102C795.75 25.4213 795.435 26.008 795.158 26.456L790.838 33H788.79ZM800.837 33V21.64H807.637V23.416H802.901V26.392H806.725V28.168H802.901V31.224H807.893V33H800.837ZM809.946 33V21.64H812.01V26.456H817.21V21.64H819.258V33H817.21V28.232H812.01V33H809.946ZM824.585 33V23.416H820.857V21.64H830.361V23.416H826.633V33H824.585ZM829.792 33L833.776 21.64H835.952L839.936 33H837.824L836.848 30.088H832.864L831.904 33H829.792ZM833.376 28.408H836.336L835.328 25.368L834.88 23.608H834.848C834.677 24.3547 834.528 24.9413 834.4 25.368L833.376 28.408ZM841.014 33L841.942 21.64H844.134L846.374 27.256L846.934 28.92H846.966C847.169 28.2587 847.356 27.704 847.526 27.256L849.766 21.64H851.958L852.886 33H850.822L850.358 26.648C850.337 26.424 850.326 26.168 850.326 25.88C850.326 25.5813 850.332 25.3413 850.342 25.16V24.888H850.31C850.065 25.624 849.857 26.2107 849.686 26.648L847.846 31.048H846.054L844.214 26.648L843.59 24.872H843.558C843.59 25.5547 843.585 26.1467 843.542 26.648L843.078 33H841.014ZM855.212 33V21.64H857.276V28.2L857.164 29.96H857.196C857.559 29.224 857.879 28.632 858.156 28.184L862.444 21.64H864.492V33H862.444V26.456L862.556 24.696H862.524C862.172 25.4213 861.857 26.008 861.58 26.456L857.26 33H855.212Z" fill="#005DFF"/>
<rect x="900" width="455" height="55" rx="27.5" fill="#F3F6FF"/>
<path d="M925.064 27.272C925.064 25.608 925.613 24.2213 926.712 23.112C927.81 22.0027 929.208 21.448 930.904 21.448C932.632 21.448 934.029 21.9653 935.096 23L934.104 24.536C933.688 24.184 933.197 23.896 932.632 23.672C932.077 23.448 931.533 23.336 931 23.336C929.805 23.336 928.872 23.7093 928.2 24.456C927.528 25.2027 927.192 26.1307 927.192 27.24C927.192 28.36 927.533 29.32 928.216 30.12C928.898 30.9093 929.832 31.304 931.016 31.304C932.232 31.304 933.33 30.824 934.312 29.864L935.4 31.352C934.194 32.5787 932.706 33.192 930.936 33.192C929.176 33.192 927.757 32.632 926.68 31.512C925.602 30.392 925.064 28.9787 925.064 27.272ZM937.173 33V21.64H943.973V23.416H939.237V26.392H943.061V28.168H939.237V31.224H944.229V33H937.173ZM945.423 27.272C945.423 25.608 945.972 24.2213 947.071 23.112C948.17 22.0027 949.567 21.448 951.263 21.448C952.991 21.448 954.388 21.9653 955.455 23L954.463 24.536C954.047 24.184 953.556 23.896 952.991 23.672C952.436 23.448 951.892 23.336 951.359 23.336C950.164 23.336 949.231 23.7093 948.559 24.456C947.887 25.2027 947.551 26.1307 947.551 27.24C947.551 28.36 947.892 29.32 948.575 30.12C949.258 30.9093 950.191 31.304 951.375 31.304C952.591 31.304 953.69 30.824 954.671 29.864L955.759 31.352C954.554 32.5787 953.066 33.192 951.295 33.192C949.535 33.192 948.116 32.632 947.039 31.512C945.962 30.392 945.423 28.9787 945.423 27.272ZM960.108 33V23.416H956.38V21.64H965.884V23.416H962.156V33H960.108ZM967.501 33V21.64H971.885C972.952 21.64 973.821 21.9813 974.493 22.664C975.165 23.3467 975.501 24.2373 975.501 25.336C975.501 26.4347 975.165 27.336 974.493 28.04C973.821 28.7333 972.952 29.08 971.885 29.08H969.565V33H967.501ZM969.565 27.288H971.501C972.098 27.288 972.562 27.112 972.893 26.76C973.234 26.408 973.405 25.9333 973.405 25.336C973.405 24.7493 973.234 24.2853 972.893 23.944C972.562 23.592 972.109 23.416 971.533 23.416H969.565V27.288ZM977.298 33V21.64H979.362V28.2L979.25 29.96H979.282C979.645 29.224 979.965 28.632 980.242 28.184L984.53 21.64H986.578V33H984.53V26.456L984.642 24.696H984.61C984.258 25.4213 983.943 26.008 983.666 26.456L979.346 33H977.298ZM989.345 33V21.64H991.409V26.456H996.609V21.64H998.657V33H996.609V28.232H991.409V33H989.345ZM1000.75 27.272C1000.75 25.608 1001.3 24.2213 1002.4 23.112C1003.5 22.0027 1004.9 21.448 1006.59 21.448C1008.32 21.448 1009.72 21.9653 1010.78 23L1009.79 24.536C1009.38 24.184 1008.88 23.896 1008.32 23.672C1007.76 23.448 1007.22 23.336 1006.69 23.336C1005.49 23.336 1004.56 23.7093 1003.89 24.456C1003.22 25.2027 1002.88 26.1307 1002.88 27.24C1002.88 28.36 1003.22 29.32 1003.9 30.12C1004.59 30.9093 1005.52 31.304 1006.7 31.304C1007.92 31.304 1009.02 30.824 1010 29.864L1011.09 31.352C1009.88 32.5787 1008.39 33.192 1006.62 33.192C1004.86 33.192 1003.44 32.632 1002.37 31.512C1001.29 30.392 1000.75 28.9787 1000.75 27.272ZM1012.86 33V21.64H1014.92V26.264H1016.4L1019.07 21.64H1021.31L1018.09 27.048V27.08L1021.5 33H1019.16L1016.4 28.04H1014.92V33H1012.86ZM1022.09 27.24C1022.09 25.608 1022.65 24.2373 1023.77 23.128C1024.91 22.008 1026.3 21.448 1027.97 21.448C1029.63 21.448 1031.02 22.008 1032.14 23.128C1033.27 24.2373 1033.84 25.608 1033.84 27.24C1033.84 28.9147 1033.27 30.328 1032.14 31.48C1031.02 32.6213 1029.63 33.192 1027.97 33.192C1026.3 33.192 1024.91 32.6213 1023.77 31.48C1022.65 30.328 1022.09 28.9147 1022.09 27.24ZM1024.22 27.24C1024.22 28.392 1024.59 29.3573 1025.31 30.136C1026.04 30.9147 1026.92 31.304 1027.97 31.304C1029.01 31.304 1029.9 30.9147 1030.62 30.136C1031.35 29.3573 1031.71 28.392 1031.71 27.24C1031.71 26.1413 1031.35 25.2187 1030.62 24.472C1029.9 23.7147 1029.01 23.336 1027.97 23.336C1026.92 23.336 1026.04 23.7147 1025.31 24.472C1024.59 25.2187 1024.22 26.1413 1024.22 27.24ZM1035.92 33V21.64H1042.72V23.416H1037.99V26.392H1041.81V28.168H1037.99V31.224H1042.98V33H1035.92ZM1049.03 33V21.64H1051.1V26.456H1056.3V21.64H1058.34V33H1056.3V28.232H1051.1V33H1049.03ZM1059.85 33L1063.83 21.64H1066.01L1069.99 33H1067.88L1066.9 30.088H1062.92L1061.96 33H1059.85ZM1063.43 28.408H1066.39L1065.38 25.368L1064.93 23.608H1064.9C1064.73 24.3547 1064.58 24.9413 1064.45 25.368L1063.43 28.408ZM1071.5 33V21.64H1078.48V23.416H1073.57V26.04H1075.84C1076.89 26.04 1077.75 26.36 1078.4 27C1079.06 27.6293 1079.39 28.4773 1079.39 29.544C1079.39 30.568 1079.06 31.4 1078.41 32.04C1077.76 32.68 1076.92 33 1075.89 33H1071.5ZM1073.57 31.224H1075.52C1076.08 31.224 1076.52 31.0747 1076.83 30.776C1077.14 30.4773 1077.29 30.0667 1077.29 29.544C1077.29 29.0213 1077.13 28.6053 1076.81 28.296C1076.49 27.976 1076.05 27.816 1075.49 27.816H1073.57V31.224ZM1080.21 31.24C1081.06 31.1227 1081.68 30.5573 1082.06 29.544C1082.46 28.52 1082.66 26.92 1082.66 24.744V21.64H1089.68V33H1087.62V23.416H1084.62V24.776C1084.62 27.5707 1084.28 29.6507 1083.58 31.016C1082.89 32.3707 1081.77 33.0747 1080.21 33.128V31.24ZM1092.44 33V21.64H1094.5V26.456H1096.26C1096.43 25.016 1097.05 23.8213 1098.1 22.872C1099.16 21.9227 1100.43 21.448 1101.93 21.448C1103.56 21.448 1104.92 22.008 1106.02 23.128C1107.13 24.2373 1107.69 25.608 1107.69 27.24C1107.69 28.9147 1107.13 30.328 1106.02 31.48C1104.92 32.6213 1103.56 33.192 1101.93 33.192C1100.47 33.192 1099.21 32.728 1098.17 31.8C1097.13 30.8613 1096.51 29.672 1096.29 28.232H1094.5V33H1092.44ZM1098.31 27.24C1098.31 28.392 1098.66 29.3573 1099.35 30.136C1100.05 30.9147 1100.91 31.304 1101.93 31.304C1102.94 31.304 1103.8 30.9147 1104.5 30.136C1105.21 29.3467 1105.56 28.3813 1105.56 27.24C1105.56 26.1413 1105.21 25.2187 1104.5 24.472C1103.8 23.7253 1102.94 23.352 1101.93 23.352C1100.91 23.352 1100.05 23.7253 1099.35 24.472C1098.66 25.2187 1098.31 26.1413 1098.31 27.24ZM1111.41 31.224H1115.92V23.416H1112.88V24.264C1112.88 27.3147 1112.39 29.6347 1111.41 31.224ZM1108.13 31.224H1109.28C1110.38 29.56 1110.93 27.192 1110.93 24.12V21.64H1117.98V31.224H1119.25V35.24H1117.41V33H1110.03V35.24H1108.13V31.224ZM1121.24 33V21.64H1128.04V23.416H1123.3V26.392H1127.12V28.168H1123.3V31.224H1128.29V33H1121.24ZM1130.34 33V21.64H1132.41V26.456H1137.61V21.64H1139.66V33H1137.61V28.232H1132.41V33H1130.34ZM1142.41 33V21.64H1144.47V28.2L1144.36 29.96H1144.39C1144.75 29.224 1145.07 28.632 1145.35 28.184L1149.64 21.64H1151.69V33H1149.64V26.456L1149.75 24.696H1149.72C1149.37 25.4213 1149.05 26.008 1148.78 26.456L1144.46 33H1142.41ZM1154.45 33V21.64H1161.25V23.416H1156.52V26.392H1160.34V28.168H1156.52V31.224H1161.51V33H1154.45ZM1167.56 33V21.64H1176.76V33H1174.7V23.416H1169.63V33H1167.56ZM1179.52 33V21.64H1183.9C1184.97 21.64 1185.84 21.9813 1186.51 22.664C1187.18 23.3467 1187.52 24.2373 1187.52 25.336C1187.52 26.4347 1187.18 27.336 1186.51 28.04C1185.84 28.7333 1184.97 29.08 1183.9 29.08H1181.58V33H1179.52ZM1181.58 27.288H1183.52C1184.11 27.288 1184.58 27.112 1184.91 26.76C1185.25 26.408 1185.42 25.9333 1185.42 25.336C1185.42 24.7493 1185.25 24.2853 1184.91 23.944C1184.58 23.592 1184.12 23.416 1183.55 23.416H1181.58V27.288ZM1189.31 33V21.64H1191.38V28.2L1191.27 29.96H1191.3C1191.66 29.224 1191.98 28.632 1192.26 28.184L1196.55 21.64H1198.59V33H1196.55V26.456L1196.66 24.696H1196.63C1196.27 25.4213 1195.96 26.008 1195.68 26.456L1191.36 33H1189.31ZM1204.34 31.576L1205.46 30.2C1205.77 30.5307 1206.15 30.808 1206.61 31.032C1207.07 31.256 1207.54 31.368 1208.02 31.368C1208.64 31.368 1209.13 31.2133 1209.49 30.904C1209.85 30.5947 1210.03 30.168 1210.03 29.624C1210.03 29.1333 1209.87 28.7493 1209.54 28.472C1209.22 28.184 1208.78 28.04 1208.22 28.04H1206.83V26.376H1207.95C1208.46 26.376 1208.89 26.2267 1209.22 25.928C1209.55 25.6293 1209.71 25.256 1209.71 24.808C1209.71 24.3493 1209.56 23.976 1209.26 23.688C1208.97 23.3893 1208.53 23.24 1207.97 23.24C1207.1 23.24 1206.28 23.56 1205.5 24.2L1204.67 22.696C1205.68 21.864 1206.89 21.448 1208.32 21.448C1209.29 21.448 1210.11 21.7253 1210.78 22.28C1211.47 22.8347 1211.81 23.592 1211.81 24.552C1211.81 25.672 1211.29 26.5147 1210.24 27.08V27.112C1210.83 27.2933 1211.29 27.6133 1211.63 28.072C1211.97 28.5307 1212.14 29.0907 1212.14 29.752C1212.14 30.7973 1211.77 31.6347 1211.01 32.264C1210.26 32.8827 1209.33 33.192 1208.21 33.192C1207.48 33.192 1206.77 33.0533 1206.08 32.776C1205.4 32.488 1204.82 32.088 1204.34 31.576ZM1212.88 33L1216.86 21.64H1219.04L1223.02 33H1220.91L1219.93 30.088H1215.95L1214.99 33H1212.88ZM1216.46 28.408H1219.42L1218.41 25.368L1217.97 23.608H1217.93C1217.76 24.3547 1217.61 24.9413 1217.49 25.368L1216.46 28.408ZM1224.53 33V21.64H1231.51V23.416H1226.6V26.04H1228.87C1229.92 26.04 1230.78 26.36 1231.43 27C1232.09 27.6293 1232.42 28.4773 1232.42 29.544C1232.42 30.568 1232.09 31.4 1231.44 32.04C1230.79 32.68 1229.95 33 1228.92 33H1224.53ZM1226.6 31.224H1228.55C1229.11 31.224 1229.55 31.0747 1229.86 30.776C1230.17 30.4773 1230.32 30.0667 1230.32 29.544C1230.32 29.0213 1230.16 28.6053 1229.84 28.296C1229.52 27.976 1229.08 27.816 1228.52 27.816H1226.6V31.224ZM1233.72 27.24C1233.72 25.608 1234.28 24.2373 1235.4 23.128C1236.53 22.008 1237.93 21.448 1239.59 21.448C1241.26 21.448 1242.65 22.008 1243.77 23.128C1244.9 24.2373 1245.46 25.608 1245.46 27.24C1245.46 28.9147 1244.9 30.328 1243.77 31.48C1242.65 32.6213 1241.26 33.192 1239.59 33.192C1237.93 33.192 1236.53 32.6213 1235.4 31.48C1234.28 30.328 1233.72 28.9147 1233.72 27.24ZM1235.85 27.24C1235.85 28.392 1236.21 29.3573 1236.94 30.136C1237.66 30.9147 1238.55 31.304 1239.59 31.304C1240.64 31.304 1241.52 30.9147 1242.25 30.136C1242.97 29.3573 1243.34 28.392 1243.34 27.24C1243.34 26.1413 1242.97 25.2187 1242.25 24.472C1241.52 23.7147 1240.64 23.336 1239.59 23.336C1238.55 23.336 1237.66 23.7147 1236.94 24.472C1236.21 25.2187 1235.85 26.1413 1235.85 27.24ZM1246.08 31.24C1246.94 31.1227 1247.56 30.5573 1247.94 29.544C1248.33 28.52 1248.53 26.92 1248.53 24.744V21.64H1255.56V33H1253.49V23.416H1250.5V24.776C1250.5 27.5707 1250.15 29.6507 1249.46 31.016C1248.77 32.3707 1247.64 33.0747 1246.08 33.128V31.24ZM1258.31 33V21.64H1265.11V23.416H1260.38V26.392H1264.2V28.168H1260.38V31.224H1265.37V33H1258.31ZM1267.42 33V21.64H1271.47C1272.53 21.64 1273.37 21.9013 1274.01 22.424C1274.67 22.936 1274.99 23.6507 1274.99 24.568C1274.99 25.1013 1274.87 25.5813 1274.62 26.008C1274.38 26.4347 1274.04 26.7653 1273.61 27V27.032C1274.21 27.2027 1274.67 27.5387 1274.97 28.04C1275.29 28.5413 1275.45 29.096 1275.45 29.704C1275.45 30.7813 1275.08 31.6027 1274.33 32.168C1273.59 32.7227 1272.65 33 1271.53 33H1267.42ZM1269.49 26.28H1271.49C1271.92 26.28 1272.27 26.1467 1272.51 25.88C1272.77 25.6027 1272.89 25.2507 1272.89 24.824C1272.89 24.408 1272.77 24.072 1272.51 23.816C1272.27 23.5493 1271.91 23.416 1271.45 23.416H1269.49V26.28ZM1269.49 31.224H1271.69C1272.21 31.224 1272.61 31.0747 1272.89 30.776C1273.19 30.4667 1273.34 30.0667 1273.34 29.576C1273.34 29.096 1273.19 28.7067 1272.89 28.408C1272.61 28.0987 1272.21 27.944 1271.69 27.944H1269.49V31.224ZM1276.17 33L1280.16 21.64H1282.33L1286.32 33H1284.21L1283.23 30.088H1279.25L1278.29 33H1276.17ZM1279.76 28.408H1282.72L1281.71 25.368L1281.26 23.608H1281.23C1281.06 24.3547 1280.91 24.9413 1280.78 25.368L1279.76 28.408ZM1287.83 33V21.64H1289.89V26.456H1295.09V21.64H1297.14V33H1295.09V28.232H1289.89V33H1287.83ZM1299.89 33V21.64H1301.96V28.2L1301.84 29.96H1301.88C1302.24 29.224 1302.56 28.632 1302.84 28.184L1307.12 21.64H1309.17V33H1307.12V26.456L1307.24 24.696H1307.2C1306.85 25.4213 1306.54 26.008 1306.26 26.456L1301.94 33H1299.89ZM1310.83 33L1313.23 29L1313.6 28.408V28.376C1312.93 28.0773 1312.42 27.64 1312.08 27.064C1311.75 26.488 1311.59 25.8267 1311.59 25.08C1311.59 24.312 1311.76 23.6613 1312.1 23.128C1312.45 22.584 1312.91 22.1893 1313.49 21.944C1313.96 21.7413 1314.68 21.64 1315.65 21.64H1319.33V33H1317.27V28.76H1315.6L1313.14 33H1310.83ZM1315.47 27.032H1317.27V23.416H1315.81C1315.17 23.416 1314.7 23.512 1314.39 23.704C1313.92 23.992 1313.68 24.4773 1313.68 25.16C1313.68 25.7573 1313.84 26.2213 1314.16 26.552C1314.48 26.872 1314.92 27.032 1315.47 27.032ZM1320.91 33L1324.43 27.24L1321.04 21.64H1323.39L1324.96 24.424L1325.66 25.8H1325.7C1325.91 25.3307 1326.14 24.872 1326.4 24.424L1327.98 21.64H1330.34L1326.93 27.24L1330.46 33H1328.16L1326.38 29.944L1325.68 28.6H1325.65C1325.43 29.0587 1325.2 29.5067 1324.96 29.944L1323.2 33H1320.91Z" fill="#252525"/>
<rect x="1365" width="549" height="55" rx="27.5" fill="#F3F6FF"/>
<path d="M1390.82 33V21.64H1400.02V33H1397.96V23.416H1392.89V33H1390.82ZM1402.77 33V21.64H1407.16C1408.23 21.64 1409.09 21.9813 1409.77 22.664C1410.44 23.3467 1410.77 24.2373 1410.77 25.336C1410.77 26.4347 1410.44 27.336 1409.77 28.04C1409.09 28.7333 1408.23 29.08 1407.16 29.08H1404.84V33H1402.77ZM1404.84 27.288H1406.77C1407.37 27.288 1407.84 27.112 1408.17 26.76C1408.51 26.408 1408.68 25.9333 1408.68 25.336C1408.68 24.7493 1408.51 24.2853 1408.17 23.944C1407.84 23.592 1407.38 23.416 1406.81 23.416H1404.84V27.288ZM1411.9 27.24C1411.9 25.608 1412.46 24.2373 1413.58 23.128C1414.71 22.008 1416.11 21.448 1417.77 21.448C1419.44 21.448 1420.83 22.008 1421.95 23.128C1423.08 24.2373 1423.64 25.608 1423.64 27.24C1423.64 28.9147 1423.08 30.328 1421.95 31.48C1420.83 32.6213 1419.44 33.192 1417.77 33.192C1416.11 33.192 1414.71 32.6213 1413.58 31.48C1412.46 30.328 1411.9 28.9147 1411.9 27.24ZM1414.03 27.24C1414.03 28.392 1414.39 29.3573 1415.12 30.136C1415.84 30.9147 1416.73 31.304 1417.77 31.304C1418.82 31.304 1419.7 30.9147 1420.43 30.136C1421.15 29.3573 1421.52 28.392 1421.52 27.24C1421.52 26.1413 1421.15 25.2187 1420.43 24.472C1419.7 23.7147 1418.82 23.336 1417.77 23.336C1416.73 23.336 1415.84 23.7147 1415.12 24.472C1414.39 25.2187 1414.03 26.1413 1414.03 27.24ZM1425.73 33V21.64H1429.78C1430.83 21.64 1431.68 21.9013 1432.32 22.424C1432.97 22.936 1433.3 23.6507 1433.3 24.568C1433.3 25.1013 1433.17 25.5813 1432.93 26.008C1432.68 26.4347 1432.35 26.7653 1431.92 27V27.032C1432.52 27.2027 1432.97 27.5387 1433.28 28.04C1433.6 28.5413 1433.76 29.096 1433.76 29.704C1433.76 30.7813 1433.39 31.6027 1432.64 32.168C1431.89 32.7227 1430.96 33 1429.84 33H1425.73ZM1427.79 26.28H1429.79C1430.23 26.28 1430.57 26.1467 1430.82 25.88C1431.07 25.6027 1431.2 25.2507 1431.2 24.824C1431.2 24.408 1431.07 24.072 1430.82 23.816C1430.57 23.5493 1430.22 23.416 1429.76 23.416H1427.79V26.28ZM1427.79 31.224H1430C1430.51 31.224 1430.91 31.0747 1431.2 30.776C1431.5 30.4667 1431.65 30.0667 1431.65 29.576C1431.65 29.096 1431.5 28.7067 1431.2 28.408C1430.91 28.0987 1430.51 27.944 1430 27.944H1427.79V31.224ZM1435.85 33V21.64H1442.65V23.416H1437.92V26.392H1441.74V28.168H1437.92V31.224H1442.91V33H1435.85ZM1446.98 31.224H1451.49V23.416H1448.45V24.264C1448.45 27.3147 1447.96 29.6347 1446.98 31.224ZM1443.7 31.224H1444.85C1445.95 29.56 1446.5 27.192 1446.5 24.12V21.64H1453.55V31.224H1454.82V35.24H1452.98V33H1445.6V35.24H1443.7V31.224ZM1456.81 33V21.64H1463.61V23.416H1458.87V26.392H1462.69V28.168H1458.87V31.224H1463.86V33H1456.81ZM1465.92 33V21.64H1467.98V26.456H1473.18V21.64H1475.23V33H1473.18V28.232H1467.98V33H1465.92ZM1477.98 33V21.64H1480.04V28.2L1479.93 29.96H1479.96C1480.32 29.224 1480.64 28.632 1480.92 28.184L1485.21 21.64H1487.26V33H1485.21V26.456L1485.32 24.696H1485.29C1484.94 25.4213 1484.62 26.008 1484.35 26.456L1480.03 33H1477.98ZM1490.02 33V21.64H1496.82V23.416H1492.09V26.392H1495.91V28.168H1492.09V31.224H1497.08V33H1490.02ZM1502.7 33L1503.63 21.64H1505.82L1508.06 27.256L1508.62 28.92H1508.65C1508.86 28.2587 1509.04 27.704 1509.21 27.256L1511.45 21.64H1513.65L1514.57 33H1512.51L1512.05 26.648C1512.02 26.424 1512.01 26.168 1512.01 25.88C1512.01 25.5813 1512.02 25.3413 1512.03 25.16V24.888H1512C1511.75 25.624 1511.54 26.2107 1511.37 26.648L1509.53 31.048H1507.74L1505.9 26.648L1505.28 24.872H1505.25C1505.28 25.5547 1505.27 26.1467 1505.23 26.648L1504.77 33H1502.7ZM1516.9 33V21.64H1523.7V23.416H1518.96V26.392H1522.79V28.168H1518.96V31.224H1523.96V33H1516.9ZM1526.01 33V21.64H1530.39C1531.46 21.64 1532.33 21.9813 1533 22.664C1533.67 23.3467 1534.01 24.2373 1534.01 25.336C1534.01 26.4347 1533.67 27.336 1533 28.04C1532.33 28.7333 1531.46 29.08 1530.39 29.08H1528.07V33H1526.01ZM1528.07 27.288H1530.01C1530.61 27.288 1531.07 27.112 1531.4 26.76C1531.74 26.408 1531.91 25.9333 1531.91 25.336C1531.91 24.7493 1531.74 24.2853 1531.4 23.944C1531.07 23.592 1530.62 23.416 1530.04 23.416H1528.07V27.288ZM1535.13 27.24C1535.13 25.608 1535.69 24.2373 1536.81 23.128C1537.94 22.008 1539.34 21.448 1541.01 21.448C1542.67 21.448 1544.06 22.008 1545.18 23.128C1546.31 24.2373 1546.88 25.608 1546.88 27.24C1546.88 28.9147 1546.31 30.328 1545.18 31.48C1544.06 32.6213 1542.67 33.192 1541.01 33.192C1539.34 33.192 1537.94 32.6213 1536.81 31.48C1535.69 30.328 1535.13 28.9147 1535.13 27.24ZM1537.26 27.24C1537.26 28.392 1537.62 29.3573 1538.35 30.136C1539.08 30.9147 1539.96 31.304 1541.01 31.304C1542.05 31.304 1542.94 30.9147 1543.66 30.136C1544.39 29.3573 1544.75 28.392 1544.75 27.24C1544.75 26.1413 1544.39 25.2187 1543.66 24.472C1542.94 23.7147 1542.05 23.336 1541.01 23.336C1539.96 23.336 1539.08 23.7147 1538.35 24.472C1537.62 25.2187 1537.26 26.1413 1537.26 27.24ZM1548.96 33V21.64H1558.16V33H1556.1V23.416H1551.03V33H1548.96ZM1560.92 33V21.64H1565.3C1566.37 21.64 1567.24 21.9813 1567.91 22.664C1568.58 23.3467 1568.92 24.2373 1568.92 25.336C1568.92 26.4347 1568.58 27.336 1567.91 28.04C1567.24 28.7333 1566.37 29.08 1565.3 29.08H1562.98V33H1560.92ZM1562.98 27.288H1564.92C1565.51 27.288 1565.98 27.112 1566.31 26.76C1566.65 26.408 1566.82 25.9333 1566.82 25.336C1566.82 24.7493 1566.65 24.2853 1566.31 23.944C1565.98 23.592 1565.52 23.416 1564.95 23.416H1562.98V27.288ZM1570.71 33V21.64H1572.78V28.2L1572.66 29.96H1572.7C1573.06 29.224 1573.38 28.632 1573.66 28.184L1577.94 21.64H1579.99V33H1577.94V26.456L1578.06 24.696H1578.02C1577.67 25.4213 1577.36 26.008 1577.08 26.456L1572.76 33H1570.71ZM1581.65 33L1584.05 29L1584.42 28.408V28.376C1583.75 28.0773 1583.24 27.64 1582.9 27.064C1582.57 26.488 1582.41 25.8267 1582.41 25.08C1582.41 24.312 1582.58 23.6613 1582.92 23.128C1583.27 22.584 1583.73 22.1893 1584.31 21.944C1584.78 21.7413 1585.5 21.64 1586.47 21.64H1590.15V33H1588.09V28.76H1586.42L1583.96 33H1581.65ZM1586.29 27.032H1588.09V23.416H1586.63C1585.99 23.416 1585.52 23.512 1585.21 23.704C1584.74 23.992 1584.5 24.4773 1584.5 25.16C1584.5 25.7573 1584.66 26.2213 1584.98 26.552C1585.3 26.872 1585.74 27.032 1586.29 27.032ZM1595.48 33V23.416H1591.75V21.64H1601.25V23.416H1597.52V33H1595.48ZM1602.87 33V21.64H1604.93V28.2L1604.82 29.96H1604.85C1605.21 29.224 1605.53 28.632 1605.81 28.184L1610.1 21.64H1612.15V33H1610.1V26.456L1610.21 24.696H1610.18C1609.83 25.4213 1609.51 26.008 1609.24 26.456L1604.92 33H1602.87ZM1621.51 20.536C1621 20.9307 1620.38 21.128 1619.65 21.128C1618.93 21.128 1618.31 20.9307 1617.8 20.536C1617.28 20.1307 1617.03 19.592 1617.03 18.92V18.712H1618.58V18.92C1618.58 19.24 1618.69 19.4907 1618.9 19.672C1619.11 19.8427 1619.36 19.928 1619.65 19.928C1619.94 19.928 1620.19 19.8427 1620.4 19.672C1620.63 19.4907 1620.74 19.2347 1620.74 18.904V18.712H1622.28V18.92C1622.28 19.592 1622.02 20.1307 1621.51 20.536ZM1614.92 33V21.64H1616.98V28.2L1616.87 29.96H1616.9C1617.26 29.224 1617.58 28.632 1617.86 28.184L1622.15 21.64H1624.2V33H1622.15V26.456L1622.26 24.696H1622.23C1621.88 25.4213 1621.56 26.008 1621.28 26.456L1616.96 33H1614.92ZM1630.96 33V21.64H1640.16V33H1638.1V23.416H1633.03V33H1630.96ZM1642.24 27.24C1642.24 25.608 1642.8 24.2373 1643.92 23.128C1645.05 22.008 1646.45 21.448 1648.12 21.448C1649.78 21.448 1651.17 22.008 1652.29 23.128C1653.42 24.2373 1653.99 25.608 1653.99 27.24C1653.99 28.9147 1653.42 30.328 1652.29 31.48C1651.17 32.6213 1649.78 33.192 1648.12 33.192C1646.45 33.192 1645.05 32.6213 1643.92 31.48C1642.8 30.328 1642.24 28.9147 1642.24 27.24ZM1644.37 27.24C1644.37 28.392 1644.73 29.3573 1645.46 30.136C1646.18 30.9147 1647.07 31.304 1648.12 31.304C1649.16 31.304 1650.05 30.9147 1650.77 30.136C1651.5 29.3573 1651.86 28.392 1651.86 27.24C1651.86 26.1413 1651.5 25.2187 1650.77 24.472C1650.05 23.7147 1649.16 23.336 1648.12 23.336C1647.07 23.336 1646.18 23.7147 1645.46 24.472C1644.73 25.2187 1644.37 26.1413 1644.37 27.24ZM1660.07 33V21.64H1669.27V33H1667.21V23.416H1662.14V33H1660.07ZM1672.02 33V21.64H1676.41C1677.48 21.64 1678.34 21.9813 1679.02 22.664C1679.69 23.3467 1680.02 24.2373 1680.02 25.336C1680.02 26.4347 1679.69 27.336 1679.02 28.04C1678.34 28.7333 1677.48 29.08 1676.41 29.08H1674.09V33H1672.02ZM1674.09 27.288H1676.02C1676.62 27.288 1677.09 27.112 1677.42 26.76C1677.76 26.408 1677.93 25.9333 1677.93 25.336C1677.93 24.7493 1677.76 24.2853 1677.42 23.944C1677.09 23.592 1676.63 23.416 1676.06 23.416H1674.09V27.288ZM1681.15 27.24C1681.15 25.608 1681.71 24.2373 1682.83 23.128C1683.96 22.008 1685.36 21.448 1687.02 21.448C1688.69 21.448 1690.08 22.008 1691.2 23.128C1692.33 24.2373 1692.89 25.608 1692.89 27.24C1692.89 28.9147 1692.33 30.328 1691.2 31.48C1690.08 32.6213 1688.69 33.192 1687.02 33.192C1685.36 33.192 1683.96 32.6213 1682.83 31.48C1681.71 30.328 1681.15 28.9147 1681.15 27.24ZM1683.28 27.24C1683.28 28.392 1683.64 29.3573 1684.37 30.136C1685.09 30.9147 1685.98 31.304 1687.02 31.304C1688.07 31.304 1688.95 30.9147 1689.68 30.136C1690.4 29.3573 1690.77 28.392 1690.77 27.24C1690.77 26.1413 1690.4 25.2187 1689.68 24.472C1688.95 23.7147 1688.07 23.336 1687.02 23.336C1685.98 23.336 1685.09 23.7147 1684.37 24.472C1683.64 25.2187 1683.28 26.1413 1683.28 27.24ZM1694.13 26.952C1694.13 25.5653 1694.61 24.4347 1695.57 23.56C1696.54 22.6853 1697.79 22.248 1699.33 22.248V21H1701.39V22.248C1702.93 22.248 1704.18 22.6853 1705.14 23.56C1706.11 24.4347 1706.59 25.5653 1706.59 26.952C1706.59 28.3707 1706.11 29.528 1705.15 30.424C1704.19 31.3093 1702.94 31.752 1701.39 31.752V33.192H1699.33V31.752C1697.79 31.752 1696.54 31.304 1695.57 30.408C1694.61 29.512 1694.13 28.36 1694.13 26.952ZM1701.39 30.024C1702.31 30.024 1703.06 29.7413 1703.63 29.176C1704.21 28.6 1704.5 27.8587 1704.5 26.952C1704.5 26.0667 1704.21 25.352 1703.63 24.808C1703.06 24.2533 1702.31 23.976 1701.39 23.976V30.024ZM1696.24 26.952C1696.24 27.8587 1696.52 28.6 1697.09 29.176C1697.67 29.7413 1698.41 30.024 1699.33 30.024V23.976C1698.41 23.976 1697.67 24.2533 1697.09 24.808C1696.52 25.352 1696.24 26.0667 1696.24 26.952ZM1708.49 33V21.64H1710.56V28.2L1710.45 29.96H1710.48C1710.84 29.224 1711.16 28.632 1711.44 28.184L1715.73 21.64H1717.77V33H1715.73V26.456L1715.84 24.696H1715.81C1715.45 25.4213 1715.14 26.008 1714.86 26.456L1710.54 33H1708.49ZM1719.39 31.24C1720.24 31.1227 1720.86 30.5573 1721.24 29.544C1721.64 28.52 1721.84 26.92 1721.84 24.744V21.64H1728.86V33H1726.8V23.416H1723.8V24.776C1723.8 27.5707 1723.46 29.6507 1722.76 31.016C1722.07 32.3707 1720.95 33.0747 1719.39 33.128V31.24ZM1730.37 33L1734.35 21.64H1736.53L1740.51 33H1738.4L1737.43 30.088H1733.44L1732.48 33H1730.37ZM1733.95 28.408H1736.91L1735.91 25.368L1735.46 23.608H1735.43C1735.26 24.3547 1735.11 24.9413 1734.98 25.368L1733.95 28.408ZM1742.02 33V21.64H1744.09V26.264H1745.56L1748.23 21.64H1750.47L1747.26 27.048V27.08L1750.66 33H1748.33L1745.56 28.04H1744.09V33H1742.02ZM1754.8 33V23.416H1751.08V21.64H1760.58V23.416H1756.85V33H1754.8ZM1762.2 33V21.64H1764.26V28.2L1764.15 29.96H1764.18C1764.54 29.224 1764.86 28.632 1765.14 28.184L1769.43 21.64H1771.48V33H1769.43V26.456L1769.54 24.696H1769.51C1769.16 25.4213 1768.84 26.008 1768.56 26.456L1764.24 33H1762.2ZM1774.24 33V21.64H1776.31V26.264H1777.78L1780.45 21.64H1782.69L1779.48 27.048V27.08L1782.88 33H1780.55L1777.78 28.04H1776.31V33H1774.24ZM1784.45 33V21.64H1791.25V23.416H1786.51V26.392H1790.33V28.168H1786.51V31.224H1791.5V33H1784.45ZM1797.56 33V21.64H1799.62V28.2L1799.51 29.96H1799.54C1799.9 29.224 1800.22 28.632 1800.5 28.184L1804.79 21.64H1806.84V33H1804.79V26.456L1804.9 24.696H1804.87C1804.52 25.4213 1804.2 26.008 1803.92 26.456L1799.6 33H1797.56ZM1809.6 33V21.64H1811.67V26.456H1816.87V21.64H1818.91V33H1816.87V28.232H1811.67V33H1809.6ZM1820.82 26.952C1820.82 25.5653 1821.3 24.4347 1822.26 23.56C1823.23 22.6853 1824.48 22.248 1826.02 22.248V21H1828.08V22.248C1829.62 22.248 1830.87 22.6853 1831.83 23.56C1832.8 24.4347 1833.28 25.5653 1833.28 26.952C1833.28 28.3707 1832.8 29.528 1831.84 30.424C1830.88 31.3093 1829.63 31.752 1828.08 31.752V33.192H1826.02V31.752C1824.48 31.752 1823.23 31.304 1822.26 30.408C1821.3 29.512 1820.82 28.36 1820.82 26.952ZM1828.08 30.024C1829 30.024 1829.75 29.7413 1830.32 29.176C1830.9 28.6 1831.19 27.8587 1831.19 26.952C1831.19 26.0667 1830.9 25.352 1830.32 24.808C1829.75 24.2533 1829 23.976 1828.08 23.976V30.024ZM1822.93 26.952C1822.93 27.8587 1823.21 28.6 1823.78 29.176C1824.35 29.7413 1825.1 30.024 1826.02 30.024V23.976C1825.1 23.976 1824.35 24.2533 1823.78 24.808C1823.21 25.352 1822.93 26.0667 1822.93 26.952ZM1835.18 33V21.64H1841.98V23.416H1837.24V26.392H1841.07V28.168H1837.24V31.224H1842.24V33H1835.18ZM1844.29 33V21.64H1846.35V26.264H1847.83L1850.5 21.64H1852.74L1849.52 27.048V27.08L1852.93 33H1850.59L1847.83 28.04H1846.35V33H1844.29ZM1854.49 33V21.64H1856.56V31.224H1861.47V21.64H1863.53V31.224H1864.88V35.24H1863.04V33H1854.49ZM1866.84 33V21.64H1868.9V28.2L1868.79 29.96H1868.82C1869.18 29.224 1869.5 28.632 1869.78 28.184L1874.07 21.64H1876.12V33H1874.07V26.456L1874.18 24.696H1874.15C1873.8 25.4213 1873.48 26.008 1873.2 26.456L1868.88 33H1866.84ZM1885.48 20.536C1884.96 20.9307 1884.35 21.128 1883.62 21.128C1882.89 21.128 1882.28 20.9307 1881.76 20.536C1881.25 20.1307 1881 19.592 1881 18.92V18.712H1882.55V18.92C1882.55 19.24 1882.65 19.4907 1882.87 19.672C1883.08 19.8427 1883.33 19.928 1883.62 19.928C1883.91 19.928 1884.16 19.8427 1884.37 19.672C1884.6 19.4907 1884.71 19.2347 1884.71 18.904V18.712H1886.24V18.92C1886.24 19.592 1885.99 20.1307 1885.48 20.536ZM1878.88 33V21.64H1880.95V28.2L1880.84 29.96H1880.87C1881.23 29.224 1881.55 28.632 1881.83 28.184L1886.12 21.64H1888.16V33H1886.12V26.456L1886.23 24.696H1886.2C1885.84 25.4213 1885.53 26.008 1885.25 26.456L1880.93 33H1878.88Z" fill="#005DFF"/>
<rect x="1924" width="474" height="55" rx="27.5" fill="#F3F6FF"/>
<path d="M1949.8 33V21.64H1959V33H1956.93V23.416H1951.86V33H1949.8ZM1961.75 33V21.64H1966.14C1967.2 21.64 1968.07 21.9813 1968.74 22.664C1969.42 23.3467 1969.75 24.2373 1969.75 25.336C1969.75 26.4347 1969.42 27.336 1968.74 28.04C1968.07 28.7333 1967.2 29.08 1966.14 29.08H1963.82V33H1961.75ZM1963.82 27.288H1965.75C1966.35 27.288 1966.81 27.112 1967.14 26.76C1967.48 26.408 1967.66 25.9333 1967.66 25.336C1967.66 24.7493 1967.48 24.2853 1967.14 23.944C1966.81 23.592 1966.36 23.416 1965.78 23.416H1963.82V27.288ZM1970.88 27.24C1970.88 25.608 1971.44 24.2373 1972.56 23.128C1973.69 22.008 1975.08 21.448 1976.75 21.448C1978.41 21.448 1979.8 22.008 1980.92 23.128C1982.05 24.2373 1982.62 25.608 1982.62 27.24C1982.62 28.9147 1982.05 30.328 1980.92 31.48C1979.8 32.6213 1978.41 33.192 1976.75 33.192C1975.08 33.192 1973.69 32.6213 1972.56 31.48C1971.44 30.328 1970.88 28.9147 1970.88 27.24ZM1973 27.24C1973 28.392 1973.37 29.3573 1974.09 30.136C1974.82 30.9147 1975.7 31.304 1976.75 31.304C1977.79 31.304 1978.68 30.9147 1979.4 30.136C1980.13 29.3573 1980.49 28.392 1980.49 27.24C1980.49 26.1413 1980.13 25.2187 1979.4 24.472C1978.68 23.7147 1977.79 23.336 1976.75 23.336C1975.7 23.336 1974.82 23.7147 1974.09 24.472C1973.37 25.2187 1973 26.1413 1973 27.24ZM1983.86 26.952C1983.86 25.5653 1984.34 24.4347 1985.3 23.56C1986.27 22.6853 1987.52 22.248 1989.06 22.248V21H1991.12V22.248C1992.66 22.248 1993.9 22.6853 1994.86 23.56C1995.83 24.4347 1996.32 25.5653 1996.32 26.952C1996.32 28.3707 1995.84 29.528 1994.88 30.424C1993.92 31.3093 1992.67 31.752 1991.12 31.752V33.192H1989.06V31.752C1987.52 31.752 1986.27 31.304 1985.3 30.408C1984.34 29.512 1983.86 28.36 1983.86 26.952ZM1991.12 30.024C1992.04 30.024 1992.78 29.7413 1993.36 29.176C1993.94 28.6 1994.22 27.8587 1994.22 26.952C1994.22 26.0667 1993.94 25.352 1993.36 24.808C1992.78 24.2533 1992.04 23.976 1991.12 23.976V30.024ZM1985.97 26.952C1985.97 27.8587 1986.25 28.6 1986.82 29.176C1987.39 29.7413 1988.14 30.024 1989.06 30.024V23.976C1988.14 23.976 1987.39 24.2533 1986.82 24.808C1986.25 25.352 1985.97 26.0667 1985.97 26.952ZM1998.22 33V21.64H2000.28V28.2L2000.17 29.96H2000.2C2000.57 29.224 2000.89 28.632 2001.16 28.184L2005.45 21.64H2007.5V33H2005.45V26.456L2005.56 24.696H2005.53C2005.18 25.4213 2004.87 26.008 2004.59 26.456L2000.27 33H1998.22ZM2009.11 31.24C2009.97 31.1227 2010.59 30.5573 2010.97 29.544C2011.37 28.52 2011.56 26.92 2011.56 24.744V21.64H2018.59V33H2016.52V23.416H2013.53V24.776C2013.53 27.5707 2013.18 29.6507 2012.49 31.016C2011.8 32.3707 2010.67 33.0747 2009.11 33.128V31.24ZM2020.1 33L2024.08 21.64H2026.26L2030.24 33H2028.13L2027.15 30.088H2023.17L2022.21 33H2020.1ZM2023.68 28.408H2026.64L2025.63 25.368L2025.18 23.608H2025.15C2024.98 24.3547 2024.83 24.9413 2024.7 25.368L2023.68 28.408ZM2031.75 33V21.64H2033.82V26.264H2035.29L2037.96 21.64H2040.2L2036.98 27.048V27.08L2040.39 33H2038.06L2035.29 28.04H2033.82V33H2031.75ZM2044.53 33V23.416H2040.8V21.64H2050.31V23.416H2046.58V33H2044.53ZM2051.92 33V21.64H2053.99V28.2L2053.87 29.96H2053.91C2054.27 29.224 2054.59 28.632 2054.87 28.184L2059.15 21.64H2061.2V33H2059.15V26.456L2059.27 24.696H2059.23C2058.88 25.4213 2058.57 26.008 2058.29 26.456L2053.97 33H2051.92ZM2063.97 33V21.64H2066.03V26.264H2067.51L2070.18 21.64H2072.42L2069.2 27.048V27.08L2072.61 33H2070.27L2067.51 28.04H2066.03V33H2063.97ZM2072.92 33L2076.91 21.64H2079.08L2083.07 33H2080.96L2079.98 30.088H2076L2075.04 33H2072.92ZM2076.51 28.408H2079.47L2078.46 25.368L2078.01 23.608H2077.98C2077.81 24.3547 2077.66 24.9413 2077.53 25.368L2076.51 28.408ZM2088.58 33V21.64H2090.64V26.456H2095.84V21.64H2097.89V33H2095.84V28.232H2090.64V33H2088.58ZM2100.64 33V21.64H2107.44V23.416H2102.71V26.392H2106.53V28.168H2102.71V31.224H2107.7V33H2100.64ZM2109.75 33V21.64H2111.82V28.2L2111.7 29.96H2111.74C2112.1 29.224 2112.42 28.632 2112.7 28.184L2116.98 21.64H2119.03V33H2116.98V26.456L2117.1 24.696H2117.06C2116.71 25.4213 2116.4 26.008 2116.12 26.456L2111.8 33H2109.75ZM2121.8 33V21.64H2123.86V26.456H2129.06V21.64H2131.11V33H2129.06V28.232H2123.86V33H2121.8ZM2133.01 26.952C2133.01 25.5653 2133.49 24.4347 2134.45 23.56C2135.42 22.6853 2136.68 22.248 2138.21 22.248V21H2140.28V22.248C2141.81 22.248 2143.06 22.6853 2144.02 23.56C2144.99 24.4347 2145.48 25.5653 2145.48 26.952C2145.48 28.3707 2145 29.528 2144.04 30.424C2143.08 31.3093 2141.82 31.752 2140.28 31.752V33.192H2138.21V31.752C2136.68 31.752 2135.42 31.304 2134.45 30.408C2133.49 29.512 2133.01 28.36 2133.01 26.952ZM2140.28 30.024C2141.19 30.024 2141.94 29.7413 2142.52 29.176C2143.09 28.6 2143.38 27.8587 2143.38 26.952C2143.38 26.0667 2143.09 25.352 2142.52 24.808C2141.94 24.2533 2141.19 23.976 2140.28 23.976V30.024ZM2135.12 26.952C2135.12 27.8587 2135.41 28.6 2135.97 29.176C2136.55 29.7413 2137.3 30.024 2138.21 30.024V23.976C2137.3 23.976 2136.55 24.2533 2135.97 24.808C2135.41 25.352 2135.12 26.0667 2135.12 26.952ZM2147.38 33V21.64H2154.18V23.416H2149.44V26.392H2153.26V28.168H2149.44V31.224H2154.43V33H2147.38ZM2156.49 33V21.64H2158.55V26.264H2160.02L2162.69 21.64H2164.93L2161.72 27.048V27.08L2165.13 33H2162.79L2160.02 28.04H2158.55V33H2156.49ZM2166.69 33V21.64H2168.75V31.224H2173.66V21.64H2175.73V31.224H2177.07V35.24H2175.23V33H2166.69ZM2179.03 33V21.64H2181.1V28.2L2180.98 29.96H2181.02C2181.38 29.224 2181.7 28.632 2181.98 28.184L2186.26 21.64H2188.31V33H2186.26V26.456L2186.38 24.696H2186.34C2185.99 25.4213 2185.68 26.008 2185.4 26.456L2181.08 33H2179.03ZM2190.41 27.24C2190.41 25.608 2190.97 24.2373 2192.09 23.128C2193.22 22.008 2194.62 21.448 2196.28 21.448C2197.94 21.448 2199.34 22.008 2200.46 23.128C2201.59 24.2373 2202.15 25.608 2202.15 27.24C2202.15 28.9147 2201.59 30.328 2200.46 31.48C2199.34 32.6213 2197.94 33.192 2196.28 33.192C2194.62 33.192 2193.22 32.6213 2192.09 31.48C2190.97 30.328 2190.41 28.9147 2190.41 27.24ZM2192.54 27.24C2192.54 28.392 2192.9 29.3573 2193.62 30.136C2194.35 30.9147 2195.23 31.304 2196.28 31.304C2197.32 31.304 2198.21 30.9147 2198.94 30.136C2199.66 29.3573 2200.02 28.392 2200.02 27.24C2200.02 26.1413 2199.66 25.2187 2198.94 24.472C2198.21 23.7147 2197.32 23.336 2196.28 23.336C2195.23 23.336 2194.35 23.7147 2193.62 24.472C2192.9 25.2187 2192.54 26.1413 2192.54 27.24ZM2204.24 33V21.64H2206.3V26.456H2211.5V21.64H2213.55V33H2211.5V28.232H2206.3V33H2204.24ZM2216.3 33V21.64H2218.36V26.456H2223.56V21.64H2225.61V33H2223.56V28.232H2218.36V33H2216.3ZM2237.56 33V21.64H2239.61V33H2237.56ZM2228.36 33V21.64H2230.42V25.624H2232.54C2233.59 25.624 2234.45 25.9653 2235.1 26.648C2235.76 27.32 2236.09 28.216 2236.09 29.336C2236.09 30.424 2235.76 31.3093 2235.11 31.992C2234.46 32.664 2233.62 33 2232.58 33H2228.36ZM2230.42 31.224H2232.22C2232.78 31.224 2233.22 31.0587 2233.53 30.728C2233.84 30.3867 2233.99 29.9227 2233.99 29.336C2233.99 28.7493 2233.83 28.28 2233.51 27.928C2233.19 27.576 2232.75 27.4 2232.18 27.4H2230.42V31.224ZM2241.21 33L2244.73 27.24L2241.34 21.64H2243.69L2245.26 24.424L2245.96 25.8H2245.99C2246.21 25.3307 2246.44 24.872 2246.7 24.424L2248.28 21.64H2250.63L2247.22 27.24L2250.76 33H2248.46L2246.68 29.944L2245.98 28.6H2245.94C2245.73 29.0587 2245.5 29.5067 2245.26 29.944L2243.5 33H2241.21ZM2255.31 31.576L2256.43 30.2C2256.73 30.5307 2257.12 30.808 2257.58 31.032C2258.04 31.256 2258.51 31.368 2258.99 31.368C2259.6 31.368 2260.09 31.2133 2260.46 30.904C2260.82 30.5947 2261 30.168 2261 29.624C2261 29.1333 2260.84 28.7493 2260.51 28.472C2260.19 28.184 2259.75 28.04 2259.19 28.04H2257.8V26.376H2258.92C2259.43 26.376 2259.85 26.2267 2260.19 25.928C2260.52 25.6293 2260.68 25.256 2260.68 24.808C2260.68 24.3493 2260.53 23.976 2260.23 23.688C2259.93 23.3893 2259.5 23.24 2258.94 23.24C2258.07 23.24 2257.25 23.56 2256.47 24.2L2255.64 22.696C2256.64 21.864 2257.86 21.448 2259.29 21.448C2260.26 21.448 2261.08 21.7253 2261.75 22.28C2262.44 22.8347 2262.78 23.592 2262.78 24.552C2262.78 25.672 2262.25 26.5147 2261.21 27.08V27.112C2261.8 27.2933 2262.26 27.6133 2262.6 28.072C2262.94 28.5307 2263.11 29.0907 2263.11 29.752C2263.11 30.7973 2262.73 31.6347 2261.98 32.264C2261.23 32.8827 2260.3 33.192 2259.18 33.192C2258.45 33.192 2257.74 33.0533 2257.05 32.776C2256.37 32.488 2255.79 32.088 2255.31 31.576ZM2263.85 33L2267.83 21.64H2270.01L2273.99 33H2271.88L2270.9 30.088H2266.92L2265.96 33H2263.85ZM2267.43 28.408H2270.39L2269.38 25.368L2268.93 23.608H2268.9C2268.73 24.3547 2268.58 24.9413 2268.45 25.368L2267.43 28.408ZM2275.5 33V21.64H2282.48V23.416H2277.57V26.04H2279.84C2280.89 26.04 2281.75 26.36 2282.4 27C2283.06 27.6293 2283.39 28.4773 2283.39 29.544C2283.39 30.568 2283.06 31.4 2282.41 32.04C2281.76 32.68 2280.92 33 2279.89 33H2275.5ZM2277.57 31.224H2279.52C2280.08 31.224 2280.52 31.0747 2280.83 30.776C2281.14 30.4773 2281.29 30.0667 2281.29 29.544C2281.29 29.0213 2281.13 28.6053 2280.81 28.296C2280.49 27.976 2280.05 27.816 2279.49 27.816H2277.57V31.224ZM2284.69 27.24C2284.69 25.608 2285.25 24.2373 2286.37 23.128C2287.5 22.008 2288.9 21.448 2290.56 21.448C2292.22 21.448 2293.62 22.008 2294.74 23.128C2295.87 24.2373 2296.43 25.608 2296.43 27.24C2296.43 28.9147 2295.87 30.328 2294.74 31.48C2293.62 32.6213 2292.22 33.192 2290.56 33.192C2288.9 33.192 2287.5 32.6213 2286.37 31.48C2285.25 30.328 2284.69 28.9147 2284.69 27.24ZM2286.82 27.24C2286.82 28.392 2287.18 29.3573 2287.9 30.136C2288.63 30.9147 2289.52 31.304 2290.56 31.304C2291.61 31.304 2292.49 30.9147 2293.22 30.136C2293.94 29.3573 2294.3 28.392 2294.3 27.24C2294.3 26.1413 2293.94 25.2187 2293.22 24.472C2292.49 23.7147 2291.61 23.336 2290.56 23.336C2289.52 23.336 2288.63 23.7147 2287.9 24.472C2287.18 25.2187 2286.82 26.1413 2286.82 27.24ZM2297.05 31.24C2297.91 31.1227 2298.52 30.5573 2298.91 29.544C2299.3 28.52 2299.5 26.92 2299.5 24.744V21.64H2306.52V33H2304.46V23.416H2301.47V24.776C2301.47 27.5707 2301.12 29.6507 2300.43 31.016C2299.73 32.3707 2298.61 33.0747 2297.05 33.128V31.24ZM2309.28 33V21.64H2316.08V23.416H2311.35V26.392H2315.17V28.168H2311.35V31.224H2316.34V33H2309.28ZM2318.39 33V21.64H2322.44C2323.5 21.64 2324.34 21.9013 2324.98 22.424C2325.63 22.936 2325.96 23.6507 2325.96 24.568C2325.96 25.1013 2325.84 25.5813 2325.59 26.008C2325.35 26.4347 2325.01 26.7653 2324.58 27V27.032C2325.18 27.2027 2325.63 27.5387 2325.94 28.04C2326.26 28.5413 2326.42 29.096 2326.42 29.704C2326.42 30.7813 2326.05 31.6027 2325.3 32.168C2324.56 32.7227 2323.62 33 2322.5 33H2318.39ZM2320.46 26.28H2322.46C2322.89 26.28 2323.23 26.1467 2323.48 25.88C2323.74 25.6027 2323.86 25.2507 2323.86 24.824C2323.86 24.408 2323.74 24.072 2323.48 23.816C2323.23 23.5493 2322.88 23.416 2322.42 23.416H2320.46V26.28ZM2320.46 31.224H2322.66C2323.18 31.224 2323.58 31.0747 2323.86 30.776C2324.16 30.4667 2324.31 30.0667 2324.31 29.576C2324.31 29.096 2324.16 28.7067 2323.86 28.408C2323.58 28.0987 2323.18 27.944 2322.66 27.944H2320.46V31.224ZM2327.14 33L2331.13 21.64H2333.3L2337.29 33H2335.18L2334.2 30.088H2330.22L2329.26 33H2327.14ZM2330.73 28.408H2333.69L2332.68 25.368L2332.23 23.608H2332.2C2332.03 24.3547 2331.88 24.9413 2331.75 25.368L2330.73 28.408ZM2338.8 33V21.64H2340.86V26.456H2346.06V21.64H2348.11V33H2346.06V28.232H2340.86V33H2338.8ZM2350.86 33V21.64H2352.92V28.2L2352.81 29.96H2352.84C2353.21 29.224 2353.53 28.632 2353.8 28.184L2358.09 21.64H2360.14V33H2358.09V26.456L2358.2 24.696H2358.17C2357.82 25.4213 2357.51 26.008 2357.23 26.456L2352.91 33H2350.86ZM2369.5 20.536C2368.99 20.9307 2368.37 21.128 2367.64 21.128C2366.92 21.128 2366.3 20.9307 2365.79 20.536C2365.28 20.1307 2365.02 19.592 2365.02 18.92V18.712H2366.57V18.92C2366.57 19.24 2366.68 19.4907 2366.89 19.672C2367.1 19.8427 2367.36 19.928 2367.64 19.928C2367.93 19.928 2368.18 19.8427 2368.4 19.672C2368.62 19.4907 2368.73 19.2347 2368.73 18.904V18.712H2370.27V18.92C2370.27 19.592 2370.01 20.1307 2369.5 20.536ZM2362.91 33V21.64H2364.97V28.2L2364.86 29.96H2364.89C2365.25 29.224 2365.57 28.632 2365.85 28.184L2370.14 21.64H2372.19V33H2370.14V26.456L2370.25 24.696H2370.22C2369.87 25.4213 2369.55 26.008 2369.28 26.456L2364.96 33H2362.91Z" fill="#252525"/>
<rect x="2408" width="279" height="55" rx="27.5" fill="#F3F6FF"/>
<path d="M2432.72 31.448L2433.76 29.992C2434.18 30.3867 2434.68 30.7067 2435.28 30.952C2435.88 31.1973 2436.5 31.32 2437.14 31.32C2438.14 31.32 2438.97 31.0213 2439.63 30.424C2440.29 29.8267 2440.69 29.0693 2440.83 28.152H2435.39V26.472H2440.85C2440.73 25.5547 2440.34 24.8027 2439.67 24.216C2438.99 23.6187 2438.16 23.32 2437.15 23.32C2435.98 23.32 2434.9 23.7467 2433.92 24.6L2432.93 23.048C2433.44 22.5253 2434.08 22.1307 2434.83 21.864C2435.59 21.5867 2436.39 21.448 2437.22 21.448C2438.96 21.448 2440.36 22.0027 2441.43 23.112C2442.49 24.2213 2443.03 25.6027 2443.03 27.256C2443.03 28.952 2442.47 30.3653 2441.36 31.496C2440.25 32.6267 2438.84 33.192 2437.14 33.192C2435.41 33.192 2433.94 32.6107 2432.72 31.448ZM2443.64 31.24C2444.49 31.1227 2445.11 30.5573 2445.49 29.544C2445.89 28.52 2446.09 26.92 2446.09 24.744V21.64H2453.11V33H2451.05V23.416H2448.05V24.776C2448.05 27.5707 2447.71 29.6507 2447.01 31.016C2446.32 32.3707 2445.2 33.0747 2443.64 33.128V31.24ZM2455.87 33V21.64H2462.67V23.416H2457.93V26.392H2461.76V28.168H2457.93V31.224H2462.92V33H2455.87ZM2464.98 33V21.64H2467.04V26.264H2468.51L2471.19 21.64H2473.43L2470.21 27.048V27.08L2473.62 33H2471.28L2468.51 28.04H2467.04V33H2464.98ZM2477.76 33V23.416H2474.03V21.64H2483.53V23.416H2479.8V33H2477.76ZM2485.15 33V21.64H2489.53C2490.6 21.64 2491.47 21.9813 2492.14 22.664C2492.81 23.3467 2493.15 24.2373 2493.15 25.336C2493.15 26.4347 2492.81 27.336 2492.14 28.04C2491.47 28.7333 2490.6 29.08 2489.53 29.08H2487.21V33H2485.15ZM2487.21 27.288H2489.15C2489.75 27.288 2490.21 27.112 2490.54 26.76C2490.88 26.408 2491.05 25.9333 2491.05 25.336C2491.05 24.7493 2490.88 24.2853 2490.54 23.944C2490.21 23.592 2489.76 23.416 2489.18 23.416H2487.21V27.288ZM2494.27 27.24C2494.27 25.608 2494.83 24.2373 2495.95 23.128C2497.08 22.008 2498.48 21.448 2500.15 21.448C2501.81 21.448 2503.2 22.008 2504.32 23.128C2505.45 24.2373 2506.02 25.608 2506.02 27.24C2506.02 28.9147 2505.45 30.328 2504.32 31.48C2503.2 32.6213 2501.81 33.192 2500.15 33.192C2498.48 33.192 2497.08 32.6213 2495.95 31.48C2494.83 30.328 2494.27 28.9147 2494.27 27.24ZM2496.4 27.24C2496.4 28.392 2496.76 29.3573 2497.49 30.136C2498.22 30.9147 2499.1 31.304 2500.15 31.304C2501.19 31.304 2502.08 30.9147 2502.8 30.136C2503.53 29.3573 2503.89 28.392 2503.89 27.24C2503.89 26.1413 2503.53 25.2187 2502.8 24.472C2502.08 23.7147 2501.19 23.336 2500.15 23.336C2499.1 23.336 2498.22 23.7147 2497.49 24.472C2496.76 25.2187 2496.4 26.1413 2496.4 27.24ZM2508.1 33V21.64H2510.17V26.456H2515.37V21.64H2517.41V33H2515.37V28.232H2510.17V33H2508.1ZM2520.17 33V21.64H2522.23V26.456H2527.43V21.64H2529.48V33H2527.43V28.232H2522.23V33H2520.17ZM2530.98 33L2534.96 21.64H2537.14L2541.12 33H2539.01L2538.04 30.088H2534.05L2533.09 33H2530.98ZM2534.56 28.408H2537.52L2536.52 25.368L2536.07 23.608H2536.04C2535.86 24.3547 2535.72 24.9413 2535.59 25.368L2534.56 28.408ZM2541.53 33L2543.93 29L2544.3 28.408V28.376C2543.63 28.0773 2543.12 27.64 2542.78 27.064C2542.45 26.488 2542.28 25.8267 2542.28 25.08C2542.28 24.312 2542.45 23.6613 2542.79 23.128C2543.15 22.584 2543.61 22.1893 2544.19 21.944C2544.66 21.7413 2545.38 21.64 2546.35 21.64H2550.03V33H2547.96V28.76H2546.3L2543.83 33H2541.53ZM2546.17 27.032H2547.96V23.416H2546.51C2545.87 23.416 2545.39 23.512 2545.08 23.704C2544.61 23.992 2544.38 24.4773 2544.38 25.16C2544.38 25.7573 2544.54 26.2213 2544.86 26.552C2545.18 26.872 2545.62 27.032 2546.17 27.032ZM2556.77 33V21.64H2563.75V23.416H2558.84V26.04H2561.11C2562.17 26.04 2563.02 26.36 2563.67 27C2564.33 27.6293 2564.66 28.4773 2564.66 29.544C2564.66 30.568 2564.34 31.4 2563.69 32.04C2563.04 32.68 2562.19 33 2561.16 33H2556.77ZM2558.84 31.224H2560.79C2561.36 31.224 2561.79 31.0747 2562.1 30.776C2562.41 30.4773 2562.57 30.0667 2562.57 29.544C2562.57 29.0213 2562.41 28.6053 2562.09 28.296C2561.77 27.976 2561.32 27.816 2560.76 27.816H2558.84V31.224ZM2566.63 33V21.64H2568.7V28.2L2568.59 29.96H2568.62C2568.98 29.224 2569.3 28.632 2569.58 28.184L2573.87 21.64H2575.91V33H2573.87V26.456L2573.98 24.696H2573.95C2573.59 25.4213 2573.28 26.008 2573 26.456L2568.68 33H2566.63ZM2578.68 33V21.64H2585.66V23.416H2580.74V26.04H2583.02C2584.07 26.04 2584.93 26.36 2585.58 27C2586.24 27.6293 2586.57 28.4773 2586.57 29.544C2586.57 30.568 2586.24 31.4 2585.59 32.04C2584.94 32.68 2584.1 33 2583.06 33H2578.68ZM2580.74 31.224H2582.7C2583.26 31.224 2583.7 31.0747 2584.01 30.776C2584.32 30.4773 2584.47 30.0667 2584.47 29.544C2584.47 29.0213 2584.31 28.6053 2583.99 28.296C2583.67 27.976 2583.23 27.816 2582.66 27.816H2580.74V31.224ZM2587.39 31.24C2588.24 31.1227 2588.86 30.5573 2589.24 29.544C2589.64 28.52 2589.84 26.92 2589.84 24.744V21.64H2596.86V33H2594.8V23.416H2591.8V24.776C2591.8 27.5707 2591.46 29.6507 2590.76 31.016C2590.07 32.3707 2588.95 33.0747 2587.39 33.128V31.24ZM2599.62 33V21.64H2601.68V28.2L2601.57 29.96H2601.6C2601.96 29.224 2602.28 28.632 2602.56 28.184L2606.85 21.64H2608.9V33H2606.85V26.456L2606.96 24.696H2606.93C2606.58 25.4213 2606.26 26.008 2605.99 26.456L2601.67 33H2599.62ZM2610.99 27.24C2610.99 25.608 2611.55 24.2373 2612.67 23.128C2613.8 22.008 2615.2 21.448 2616.87 21.448C2618.53 21.448 2619.92 22.008 2621.04 23.128C2622.17 24.2373 2622.74 25.608 2622.74 27.24C2622.74 28.9147 2622.17 30.328 2621.04 31.48C2619.92 32.6213 2618.53 33.192 2616.87 33.192C2615.2 33.192 2613.8 32.6213 2612.67 31.48C2611.55 30.328 2610.99 28.9147 2610.99 27.24ZM2613.12 27.24C2613.12 28.392 2613.48 29.3573 2614.21 30.136C2614.93 30.9147 2615.82 31.304 2616.87 31.304C2617.91 31.304 2618.8 30.9147 2619.52 30.136C2620.25 29.3573 2620.61 28.392 2620.61 27.24C2620.61 26.1413 2620.25 25.2187 2619.52 24.472C2618.8 23.7147 2617.91 23.336 2616.87 23.336C2615.82 23.336 2614.93 23.7147 2614.21 24.472C2613.48 25.2187 2613.12 26.1413 2613.12 27.24ZM2626.99 33V23.416H2623.26V21.64H2632.77V23.416H2629.04V33H2626.99ZM2634.38 33V21.64H2641.18V23.416H2636.45V26.392H2640.27V28.168H2636.45V31.224H2641.44V33H2634.38ZM2643.49 33V21.64H2645.56V26.264H2647.03L2649.7 21.64H2651.94L2648.73 27.048V27.08L2652.13 33H2649.8L2647.03 28.04H2645.56V33H2643.49ZM2652.45 33L2656.43 21.64H2658.61L2662.59 33H2660.48L2659.5 30.088H2655.52L2654.56 33H2652.45ZM2656.03 28.408H2658.99L2657.98 25.368L2657.54 23.608H2657.5C2657.33 24.3547 2657.18 24.9413 2657.06 25.368L2656.03 28.408Z" fill="#005DFF"/>
</svg>
