<svg width="2402" height="55" viewBox="0 0 2402 55" fill="none" xmlns="http://www.w3.org/2000/svg">
<rect width="452" height="55" rx="27.5" fill="#F3F6FF"/>
<path d="M25.2829 32.408L26.1949 30.856C26.6749 31.2293 27.1016 31.416 27.4749 31.416C27.9763 31.416 28.3549 31.0853 28.6109 30.424L24.1629 21.64H26.4349L28.8509 26.712L29.4909 28.216H29.5229C29.6616 27.7147 29.8163 27.2187 29.9869 26.728L31.8109 21.64H33.9709L30.4669 30.616C30.3283 30.968 30.1843 31.2773 30.0349 31.544C29.8856 31.8107 29.6936 32.0773 29.4589 32.344C29.2243 32.6107 28.9469 32.8187 28.6269 32.968C28.3069 33.1173 27.9496 33.192 27.5549 33.192C26.7869 33.192 26.0296 32.9307 25.2829 32.408ZM38.2158 28.776C37.0531 28.776 36.1838 28.4827 35.6078 27.896C35.0318 27.2987 34.7438 26.456 34.7438 25.368V21.64H36.8398V24.904C36.8398 26.2373 37.4745 26.904 38.7438 26.904C39.6078 26.904 40.3865 26.68 41.0798 26.232V21.64H43.1758V33H41.0798V28.6L41.1118 28.072H41.0798C40.1625 28.5413 39.2078 28.776 38.2158 28.776ZM45.9463 33V21.64H52.7463V23.416H48.0103V26.392H51.8343V28.168H48.0103V31.224H53.0023V33H45.9463ZM57.6317 33V23.416H53.9037V21.64H63.4077V23.416H59.6797V33H57.6317ZM69.0244 33V21.64H73.4084C74.4751 21.64 75.3444 21.9813 76.0164 22.664C76.6884 23.3467 77.0244 24.2373 77.0244 25.336C77.0244 26.4347 76.6884 27.336 76.0164 28.04C75.3444 28.7333 74.4751 29.08 73.4084 29.08H71.0884V33H69.0244ZM71.0884 27.288H73.0244C73.6218 27.288 74.0858 27.112 74.4164 26.76C74.7578 26.408 74.9284 25.9333 74.9284 25.336C74.9284 24.7493 74.7578 24.2853 74.4164 23.944C74.0858 23.592 73.6324 23.416 73.0564 23.416H71.0884V27.288ZM78.8213 33V21.64H85.6213V23.416H80.8853V26.392H84.7093V28.168H80.8853V31.224H85.8773V33H78.8213ZM86.6827 33L90.6667 21.64H92.8427L96.8267 33H94.7147L93.7387 30.088H89.7547L88.7947 33H86.6827ZM90.2667 28.408H93.2267L92.2187 25.368L91.7707 23.608H91.7387C91.568 24.3547 91.4187 24.9413 91.2907 25.368L90.2667 28.408ZM97.1849 31.24C98.0383 31.1227 98.6569 30.5573 99.0409 29.544C99.4356 28.52 99.6329 26.92 99.6329 24.744V21.64H106.657V33H104.593V23.416H101.601V24.776C101.601 27.5707 101.254 29.6507 100.561 31.016C99.8676 32.3707 98.7423 33.0747 97.1849 33.128V31.24ZM109.415 33V21.64H111.479V28.2L111.367 29.96H111.399C111.762 29.224 112.082 28.632 112.359 28.184L116.647 21.64H118.695V33H116.647V26.456L116.759 24.696H116.727C116.375 25.4213 116.06 26.008 115.783 26.456L111.463 33H109.415ZM120.438 31.576L121.558 30.2C121.867 30.5307 122.251 30.808 122.71 31.032C123.169 31.256 123.638 31.368 124.118 31.368C124.737 31.368 125.227 31.2133 125.59 30.904C125.953 30.5947 126.134 30.168 126.134 29.624C126.134 29.1333 125.969 28.7493 125.638 28.472C125.318 28.184 124.881 28.04 124.326 28.04H122.934V26.376H124.054C124.566 26.376 124.987 26.2267 125.318 25.928C125.649 25.6293 125.814 25.256 125.814 24.808C125.814 24.3493 125.665 23.976 125.366 23.688C125.067 23.3893 124.635 23.24 124.07 23.24C123.206 23.24 122.385 23.56 121.606 24.2L120.774 22.696C121.777 21.864 122.993 21.448 124.422 21.448C125.393 21.448 126.214 21.7253 126.886 22.28C127.569 22.8347 127.91 23.592 127.91 24.552C127.91 25.672 127.387 26.5147 126.342 27.08V27.112C126.929 27.2933 127.393 27.6133 127.734 28.072C128.075 28.5307 128.246 29.0907 128.246 29.752C128.246 30.7973 127.867 31.6347 127.11 32.264C126.363 32.8827 125.43 33.192 124.31 33.192C123.585 33.192 122.875 33.0533 122.182 32.776C121.499 32.488 120.918 32.088 120.438 31.576ZM128.98 33L132.964 21.64H135.14L139.124 33H137.012L136.036 30.088H132.052L131.092 33H128.98ZM132.564 28.408H135.524L134.516 25.368L134.068 23.608H134.036C133.865 24.3547 133.716 24.9413 133.588 25.368L132.564 28.408ZM140.634 33V21.64H142.698V31.224H147.61V21.64H149.674V31.224H151.018V35.24H149.178V33H140.634ZM152.978 33V21.64H155.042V28.2L154.93 29.96H154.962C155.324 29.224 155.644 28.632 155.922 28.184L160.21 21.64H162.258V33H160.21V26.456L160.322 24.696H160.29C159.938 25.4213 159.623 26.008 159.346 26.456L155.026 33H152.978ZM165.024 33V21.64H167.088V28.2L166.976 29.96H167.008C167.371 29.224 167.691 28.632 167.968 28.184L172.256 21.64H174.304V33H172.256V26.456L172.368 24.696H172.336C171.984 25.4213 171.67 26.008 171.392 26.456L167.072 33H165.024ZM179.919 31.24C180.773 31.1227 181.391 30.5573 181.775 29.544C182.17 28.52 182.367 26.92 182.367 24.744V21.64H189.391V33H187.327V23.416H184.335V24.776C184.335 27.5707 183.989 29.6507 183.295 31.016C182.602 32.3707 181.477 33.0747 179.919 33.128V31.24ZM192.149 33V21.64H198.949V23.416H194.213V26.392H198.037V28.168H194.213V31.224H199.205V33H192.149ZM201.259 33V21.64H203.323V26.264H204.795L207.467 21.64H209.707L206.491 27.048V27.08L209.899 33H207.563L204.795 28.04H203.323V33H201.259ZM210.214 33L214.198 21.64H216.374L220.358 33H218.246L217.27 30.088H213.286L212.326 33H210.214ZM213.798 28.408H216.758L215.75 25.368L215.302 23.608H215.27C215.099 24.3547 214.95 24.9413 214.822 25.368L213.798 28.408ZM221.868 33V21.64H226.252C227.319 21.64 228.188 21.9813 228.86 22.664C229.532 23.3467 229.868 24.2373 229.868 25.336C229.868 26.4347 229.532 27.336 228.86 28.04C228.188 28.7333 227.319 29.08 226.252 29.08H223.932V33H221.868ZM223.932 27.288H225.868C226.466 27.288 226.93 27.112 227.26 26.76C227.602 26.408 227.772 25.9333 227.772 25.336C227.772 24.7493 227.602 24.2853 227.26 23.944C226.93 23.592 226.476 23.416 225.9 23.416H223.932V27.288ZM231.009 27.272C231.009 25.608 231.558 24.2213 232.657 23.112C233.756 22.0027 235.153 21.448 236.849 21.448C238.577 21.448 239.974 21.9653 241.041 23L240.049 24.536C239.633 24.184 239.142 23.896 238.577 23.672C238.022 23.448 237.478 23.336 236.945 23.336C235.75 23.336 234.817 23.7093 234.145 24.456C233.473 25.2027 233.137 26.1307 233.137 27.24C233.137 28.36 233.478 29.32 234.161 30.12C234.844 30.9093 235.777 31.304 236.961 31.304C238.177 31.304 239.276 30.824 240.257 29.864L241.345 31.352C240.14 32.5787 238.652 33.192 236.881 33.192C235.121 33.192 233.702 32.632 232.625 31.512C231.548 30.392 231.009 28.9787 231.009 27.272ZM245.694 33V23.416H241.966V21.64H251.47V23.416H247.742V33H245.694ZM253.087 33V21.64H257.135C258.191 21.64 259.039 21.9013 259.679 22.424C260.33 22.936 260.655 23.6507 260.655 24.568C260.655 25.1013 260.532 25.5813 260.287 26.008C260.042 26.4347 259.706 26.7653 259.279 27V27.032C259.876 27.2027 260.33 27.5387 260.639 28.04C260.959 28.5413 261.119 29.096 261.119 29.704C261.119 30.7813 260.746 31.6027 259.999 32.168C259.252 32.7227 258.319 33 257.199 33H253.087ZM255.151 26.28H257.151C257.588 26.28 257.93 26.1467 258.175 25.88C258.431 25.6027 258.559 25.2507 258.559 24.824C258.559 24.408 258.431 24.072 258.175 23.816C257.93 23.5493 257.578 23.416 257.119 23.416H255.151V26.28ZM255.151 31.224H257.359C257.871 31.224 258.271 31.0747 258.559 30.776C258.858 30.4667 259.007 30.0667 259.007 29.576C259.007 29.096 258.858 28.7067 258.559 28.408C258.271 28.0987 257.871 27.944 257.359 27.944H255.151V31.224ZM263.212 33V21.64H270.012V23.416H265.276V26.392H269.1V28.168H265.276V31.224H270.268V33H263.212ZM272.321 33V21.64H274.385V26.456H279.585V21.64H281.633V33H279.585V28.232H274.385V33H272.321ZM284.384 33V21.64H286.448V26.456H291.648V21.64H293.696V33H291.648V28.232H286.448V33H284.384ZM305.646 33V21.64H307.694V33H305.646ZM296.446 33V21.64H298.51V25.624H300.622C301.678 25.624 302.532 25.9653 303.182 26.648C303.844 27.32 304.174 28.216 304.174 29.336C304.174 30.424 303.849 31.3093 303.198 31.992C302.548 32.664 301.705 33 300.67 33H296.446ZM298.51 31.224H300.302C300.868 31.224 301.305 31.0587 301.614 30.728C301.924 30.3867 302.078 29.9227 302.078 29.336C302.078 28.7493 301.918 28.28 301.598 27.928C301.278 27.576 300.836 27.4 300.27 27.4H298.51V31.224ZM309.294 33L312.814 27.24L309.422 21.64H311.774L313.342 24.424L314.046 25.8H314.078C314.291 25.3307 314.526 24.872 314.782 24.424L316.366 21.64H318.718L315.31 27.24L318.846 33H316.542L314.766 29.944L314.062 28.6H314.03C313.817 29.0587 313.587 29.5067 313.342 29.944L311.582 33H309.294ZM324.415 33V21.64H333.615V33H331.551V23.416H326.479V33H324.415ZM336.368 33V21.64H340.752C341.819 21.64 342.688 21.9813 343.36 22.664C344.032 23.3467 344.368 24.2373 344.368 25.336C344.368 26.4347 344.032 27.336 343.36 28.04C342.688 28.7333 341.819 29.08 340.752 29.08H338.432V33H336.368ZM338.432 27.288H340.368C340.966 27.288 341.43 27.112 341.76 26.76C342.102 26.408 342.272 25.9333 342.272 25.336C342.272 24.7493 342.102 24.2853 341.76 23.944C341.43 23.592 340.976 23.416 340.4 23.416H338.432V27.288ZM346.165 33V21.64H352.965V23.416H348.229V26.392H352.053V28.168H348.229V31.224H353.221V33H346.165ZM355.274 33V21.64H364.474V33H362.41V23.416H357.338V33H355.274ZM365.98 33L369.964 21.64H372.14L376.124 33H374.012L373.036 30.088H369.052L368.092 33H365.98ZM369.564 28.408H372.524L371.516 25.368L371.068 23.608H371.036C370.865 24.3547 370.716 24.9413 370.588 25.368L369.564 28.408ZM377.634 33V21.64H382.018C383.084 21.64 383.954 21.9813 384.626 22.664C385.298 23.3467 385.634 24.2373 385.634 25.336C385.634 26.4347 385.298 27.336 384.626 28.04C383.954 28.7333 383.084 29.08 382.018 29.08H379.698V33H377.634ZM379.698 27.288H381.634C382.231 27.288 382.695 27.112 383.026 26.76C383.367 26.408 383.538 25.9333 383.538 25.336C383.538 24.7493 383.367 24.2853 383.026 23.944C382.695 23.592 382.242 23.416 381.666 23.416H379.698V27.288ZM385.605 33L389.589 21.64H391.765L395.749 33H393.637L392.661 30.088H388.677L387.717 33H385.605ZM389.189 28.408H392.149L391.141 25.368L390.693 23.608H390.661C390.49 24.3547 390.341 24.9413 390.213 25.368L389.189 28.408ZM398.897 33V23.416H395.169V21.64H404.673V23.416H400.945V33H398.897ZM405.212 27.24C405.212 25.608 405.772 24.2373 406.892 23.128C408.022 22.008 409.42 21.448 411.084 21.448C412.748 21.448 414.14 22.008 415.26 23.128C416.39 24.2373 416.956 25.608 416.956 27.24C416.956 28.9147 416.39 30.328 415.26 31.48C414.14 32.6213 412.748 33.192 411.084 33.192C409.42 33.192 408.022 32.6213 406.892 31.48C405.772 30.328 405.212 28.9147 405.212 27.24ZM407.34 27.24C407.34 28.392 407.702 29.3573 408.428 30.136C409.153 30.9147 410.038 31.304 411.084 31.304C412.129 31.304 413.014 30.9147 413.74 30.136C414.465 29.3573 414.828 28.392 414.828 27.24C414.828 26.1413 414.465 25.2187 413.74 24.472C413.014 23.7147 412.129 23.336 411.084 23.336C410.038 23.336 409.153 23.7147 408.428 24.472C407.702 25.2187 407.34 26.1413 407.34 27.24ZM419.04 33V21.64H423.088C424.144 21.64 424.992 21.9013 425.632 22.424C426.283 22.936 426.608 23.6507 426.608 24.568C426.608 25.1013 426.485 25.5813 426.24 26.008C425.995 26.4347 425.659 26.7653 425.232 27V27.032C425.829 27.2027 426.283 27.5387 426.592 28.04C426.912 28.5413 427.072 29.096 427.072 29.704C427.072 30.7813 426.699 31.6027 425.952 32.168C425.205 32.7227 424.272 33 423.152 33H419.04ZM421.104 26.28H423.104C423.541 26.28 423.883 26.1467 424.128 25.88C424.384 25.6027 424.512 25.2507 424.512 24.824C424.512 24.408 424.384 24.072 424.128 23.816C423.883 23.5493 423.531 23.416 423.072 23.416H421.104V26.28ZM421.104 31.224H423.312C423.824 31.224 424.224 31.0747 424.512 30.776C424.811 30.4667 424.96 30.0667 424.96 29.576C424.96 29.096 424.811 28.7067 424.512 28.408C424.224 28.0987 423.824 27.944 423.312 27.944H421.104V31.224Z" fill="#005DFF"/>
<rect x="462" width="579" height="55" rx="27.5" fill="#F3F6FF"/>
<path d="M487.759 33V21.64H496.959V33H494.895V23.416H489.823V33H487.759ZM499.712 33V21.64H504.096C505.163 21.64 506.032 21.9813 506.704 22.664C507.376 23.3467 507.712 24.2373 507.712 25.336C507.712 26.4347 507.376 27.336 506.704 28.04C506.032 28.7333 505.163 29.08 504.096 29.08H501.776V33H499.712ZM501.776 27.288H503.712C504.309 27.288 504.773 27.112 505.104 26.76C505.445 26.408 505.616 25.9333 505.616 25.336C505.616 24.7493 505.445 24.2853 505.104 23.944C504.773 23.592 504.32 23.416 503.744 23.416H501.776V27.288ZM509.509 33V21.64H511.573V28.2L511.461 29.96H511.493C511.855 29.224 512.175 28.632 512.453 28.184L516.741 21.64H518.789V33H516.741V26.456L516.853 24.696H516.821C516.469 25.4213 516.154 26.008 515.877 26.456L511.557 33H509.509ZM521.556 33V21.64H528.356V23.416H523.62V26.392H527.444V28.168H523.62V31.224H528.612V33H521.556ZM530.233 33L531.161 21.64H533.353L535.593 27.256L536.153 28.92H536.185C536.388 28.2587 536.574 27.704 536.745 27.256L538.985 21.64H541.177L542.105 33H540.041L539.577 26.648C539.556 26.424 539.545 26.168 539.545 25.88C539.545 25.5813 539.55 25.3413 539.561 25.16V24.888H539.529C539.284 25.624 539.076 26.2107 538.905 26.648L537.065 31.048H535.273L533.433 26.648L532.809 24.872H532.777C532.809 25.5547 532.804 26.1467 532.761 26.648L532.297 33H530.233ZM543.759 27.24C543.759 25.608 544.319 24.2373 545.439 23.128C546.569 22.008 547.967 21.448 549.631 21.448C551.295 21.448 552.687 22.008 553.807 23.128C554.937 24.2373 555.503 25.608 555.503 27.24C555.503 28.9147 554.937 30.328 553.807 31.48C552.687 32.6213 551.295 33.192 549.631 33.192C547.967 33.192 546.569 32.6213 545.439 31.48C544.319 30.328 543.759 28.9147 543.759 27.24ZM545.887 27.24C545.887 28.392 546.249 29.3573 546.975 30.136C547.7 30.9147 548.585 31.304 549.631 31.304C550.676 31.304 551.561 30.9147 552.287 30.136C553.012 29.3573 553.375 28.392 553.375 27.24C553.375 26.1413 553.012 25.2187 552.287 24.472C551.561 23.7147 550.676 23.336 549.631 23.336C548.585 23.336 547.7 23.7147 546.975 24.472C546.249 25.2187 545.887 26.1413 545.887 27.24ZM560.419 28.776C559.256 28.776 558.387 28.4827 557.811 27.896C557.235 27.2987 556.947 26.456 556.947 25.368V21.64H559.043V24.904C559.043 26.2373 559.678 26.904 560.947 26.904C561.811 26.904 562.59 26.68 563.283 26.232V21.64H565.379V33H563.283V28.6L563.315 28.072H563.283C562.366 28.5413 561.411 28.776 560.419 28.776ZM568.149 33V21.64H570.213V26.456H575.413V21.64H577.461V33H575.413V28.232H570.213V33H568.149ZM589.412 33V21.64H591.46V33H589.412ZM580.212 33V21.64H582.276V25.624H584.388C585.444 25.624 586.297 25.9653 586.948 26.648C587.609 27.32 587.94 28.216 587.94 29.336C587.94 30.424 587.615 31.3093 586.964 31.992C586.313 32.664 585.471 33 584.436 33H580.212ZM582.276 31.224H584.068C584.633 31.224 585.071 31.0587 585.38 30.728C585.689 30.3867 585.844 29.9227 585.844 29.336C585.844 28.7493 585.684 28.28 585.364 27.928C585.044 27.576 584.601 27.4 584.036 27.4H582.276V31.224ZM600.82 20.536C600.308 20.9307 599.689 21.128 598.964 21.128C598.238 21.128 597.62 20.9307 597.108 20.536C596.596 20.1307 596.34 19.592 596.34 18.92V18.712H597.892V18.92C597.892 19.24 597.998 19.4907 598.212 19.672C598.425 19.8427 598.676 19.928 598.964 19.928C599.252 19.928 599.502 19.8427 599.716 19.672C599.94 19.4907 600.052 19.2347 600.052 18.904V18.712H601.588V18.92C601.588 19.592 601.332 20.1307 600.82 20.536ZM594.228 33V21.64H596.292V28.2L596.18 29.96H596.212C596.574 29.224 596.894 28.632 597.172 28.184L601.46 21.64H603.508V33H601.46V26.456L601.572 24.696H601.54C601.188 25.4213 600.873 26.008 600.596 26.456L596.276 33H594.228ZM610.274 33V21.64H612.338V26.264H613.81L616.482 21.64H618.722L615.506 27.048V27.08L618.914 33H616.578L613.81 28.04H612.338V33H610.274ZM619.509 27.24C619.509 25.608 620.069 24.2373 621.189 23.128C622.319 22.008 623.717 21.448 625.381 21.448C627.045 21.448 628.437 22.008 629.557 23.128C630.687 24.2373 631.253 25.608 631.253 27.24C631.253 28.9147 630.687 30.328 629.557 31.48C628.437 32.6213 627.045 33.192 625.381 33.192C623.717 33.192 622.319 32.6213 621.189 31.48C620.069 30.328 619.509 28.9147 619.509 27.24ZM621.637 27.24C621.637 28.392 621.999 29.3573 622.725 30.136C623.45 30.9147 624.335 31.304 625.381 31.304C626.426 31.304 627.311 30.9147 628.037 30.136C628.762 29.3573 629.125 28.392 629.125 27.24C629.125 26.1413 628.762 25.2187 628.037 24.472C627.311 23.7147 626.426 23.336 625.381 23.336C624.335 23.336 623.45 23.7147 622.725 24.472C621.999 25.2187 621.637 26.1413 621.637 27.24ZM633.337 33V21.64H635.401V26.456H640.601V21.64H642.649V33H640.601V28.232H635.401V33H633.337ZM647.975 33V23.416H644.247V21.64H653.751V23.416H650.023V33H647.975ZM655.368 33V21.64H659.752C660.819 21.64 661.688 21.9813 662.36 22.664C663.032 23.3467 663.368 24.2373 663.368 25.336C663.368 26.4347 663.032 27.336 662.36 28.04C661.688 28.7333 660.819 29.08 659.752 29.08H657.432V33H655.368ZM657.432 27.288H659.368C659.966 27.288 660.43 27.112 660.76 26.76C661.102 26.408 661.272 25.9333 661.272 25.336C661.272 24.7493 661.102 24.2853 660.76 23.944C660.43 23.592 659.976 23.416 659.4 23.416H657.432V27.288ZM664.493 27.24C664.493 25.608 665.053 24.2373 666.173 23.128C667.304 22.008 668.701 21.448 670.365 21.448C672.029 21.448 673.421 22.008 674.541 23.128C675.672 24.2373 676.237 25.608 676.237 27.24C676.237 28.9147 675.672 30.328 674.541 31.48C673.421 32.6213 672.029 33.192 670.365 33.192C668.701 33.192 667.304 32.6213 666.173 31.48C665.053 30.328 664.493 28.9147 664.493 27.24ZM666.621 27.24C666.621 28.392 666.984 29.3573 667.709 30.136C668.434 30.9147 669.32 31.304 670.365 31.304C671.41 31.304 672.296 30.9147 673.021 30.136C673.746 29.3573 674.109 28.392 674.109 27.24C674.109 26.1413 673.746 25.2187 673.021 24.472C672.296 23.7147 671.41 23.336 670.365 23.336C669.32 23.336 668.434 23.7147 667.709 24.472C666.984 25.2187 666.621 26.1413 666.621 27.24ZM676.857 31.24C677.71 31.1227 678.329 30.5573 678.713 29.544C679.107 28.52 679.305 26.92 679.305 24.744V21.64H686.329V33H684.265V23.416H681.273V24.776C681.273 27.5707 680.926 29.6507 680.233 31.016C679.539 32.3707 678.414 33.0747 676.857 33.128V31.24ZM689.087 33V21.64H691.151V25.624H693.375C694.42 25.624 695.274 25.9653 695.935 26.648C696.596 27.32 696.927 28.216 696.927 29.336C696.927 30.424 696.602 31.3093 695.951 31.992C695.3 32.664 694.452 33 693.407 33H689.087ZM691.151 31.224H693.039C693.604 31.224 694.042 31.0587 694.351 30.728C694.671 30.3867 694.831 29.9227 694.831 29.336C694.831 28.7493 694.666 28.28 694.335 27.928C694.015 27.576 693.572 27.4 693.007 27.4H691.151V31.224ZM702.728 33V21.64H706.776C707.832 21.64 708.68 21.9013 709.32 22.424C709.97 22.936 710.296 23.6507 710.296 24.568C710.296 25.1013 710.173 25.5813 709.928 26.008C709.682 26.4347 709.346 26.7653 708.92 27V27.032C709.517 27.2027 709.97 27.5387 710.28 28.04C710.6 28.5413 710.76 29.096 710.76 29.704C710.76 30.7813 710.386 31.6027 709.64 32.168C708.893 32.7227 707.96 33 706.84 33H702.728ZM704.792 26.28H706.792C707.229 26.28 707.57 26.1467 707.816 25.88C708.072 25.6027 708.2 25.2507 708.2 24.824C708.2 24.408 708.072 24.072 707.816 23.816C707.57 23.5493 707.218 23.416 706.76 23.416H704.792V26.28ZM704.792 31.224H707C707.512 31.224 707.912 31.0747 708.2 30.776C708.498 30.4667 708.648 30.0667 708.648 29.576C708.648 29.096 708.498 28.7067 708.2 28.408C707.912 28.0987 707.512 27.944 707 27.944H704.792V31.224ZM716.005 26.952C716.005 25.5653 716.485 24.4347 717.445 23.56C718.415 22.6853 719.669 22.248 721.205 22.248V21H723.269V22.248C724.805 22.248 726.053 22.6853 727.013 23.56C727.983 24.4347 728.469 25.5653 728.469 26.952C728.469 28.3707 727.989 29.528 727.029 30.424C726.069 31.3093 724.815 31.752 723.269 31.752V33.192H721.205V31.752C719.669 31.752 718.415 31.304 717.445 30.408C716.485 29.512 716.005 28.36 716.005 26.952ZM723.269 30.024C724.186 30.024 724.933 29.7413 725.509 29.176C726.085 28.6 726.373 27.8587 726.373 26.952C726.373 26.0667 726.085 25.352 725.509 24.808C724.933 24.2533 724.186 23.976 723.269 23.976V30.024ZM718.117 26.952C718.117 27.8587 718.399 28.6 718.965 29.176C719.541 29.7413 720.287 30.024 721.205 30.024V23.976C720.287 23.976 719.541 24.2533 718.965 24.808C718.399 25.352 718.117 26.0667 718.117 26.952ZM728.839 33L732.823 21.64H734.999L738.983 33H736.871L735.895 30.088H731.911L730.951 33H728.839ZM732.423 28.408H735.383L734.375 25.368L733.927 23.608H733.895C733.724 24.3547 733.575 24.9413 733.447 25.368L732.423 28.408ZM740.493 33V21.64H744.877C745.944 21.64 746.813 21.9813 747.485 22.664C748.157 23.3467 748.493 24.2373 748.493 25.336C748.493 26.4347 748.157 27.336 747.485 28.04C746.813 28.7333 745.944 29.08 744.877 29.08H742.557V33H740.493ZM742.557 27.288H744.493C745.091 27.288 745.555 27.112 745.885 26.76C746.227 26.408 746.397 25.9333 746.397 25.336C746.397 24.7493 746.227 24.2853 745.885 23.944C745.555 23.592 745.101 23.416 744.525 23.416H742.557V27.288ZM749.858 33L750.786 21.64H752.978L755.218 27.256L755.778 28.92H755.81C756.013 28.2587 756.199 27.704 756.37 27.256L758.61 21.64H760.802L761.73 33H759.666L759.202 26.648C759.181 26.424 759.17 26.168 759.17 25.88C759.17 25.5813 759.175 25.3413 759.186 25.16V24.888H759.154C758.909 25.624 758.701 26.2107 758.53 26.648L756.69 31.048H754.898L753.058 26.648L752.434 24.872H752.402C752.434 25.5547 752.429 26.1467 752.386 26.648L751.922 33H749.858ZM762.808 33L766.792 21.64H768.968L772.952 33H770.84L769.864 30.088H765.88L764.92 33H762.808ZM766.392 28.408H769.352L768.344 25.368L767.896 23.608H767.864C767.693 24.3547 767.544 24.9413 767.416 25.368L766.392 28.408ZM774.462 33V21.64H776.526V31.224H781.438V21.64H783.502V31.224H784.846V35.24H783.006V33H774.462ZM786.806 33V21.64H793.606V23.416H788.87V26.392H792.694V28.168H788.87V31.224H793.862V33H786.806ZM795.915 33V21.64H799.963C801.019 21.64 801.867 21.9013 802.507 22.424C803.158 22.936 803.483 23.6507 803.483 24.568C803.483 25.1013 803.36 25.5813 803.115 26.008C802.87 26.4347 802.534 26.7653 802.107 27V27.032C802.704 27.2027 803.158 27.5387 803.467 28.04C803.787 28.5413 803.947 29.096 803.947 29.704C803.947 30.7813 803.574 31.6027 802.827 32.168C802.08 32.7227 801.147 33 800.027 33H795.915ZM797.979 26.28H799.979C800.416 26.28 800.758 26.1467 801.003 25.88C801.259 25.6027 801.387 25.2507 801.387 24.824C801.387 24.408 801.259 24.072 801.003 23.816C800.758 23.5493 800.406 23.416 799.947 23.416H797.979V26.28ZM797.979 31.224H800.187C800.699 31.224 801.099 31.0747 801.387 30.776C801.686 30.4667 801.835 30.0667 801.835 29.576C801.835 29.096 801.686 28.7067 801.387 28.408C801.099 28.0987 800.699 27.944 800.187 27.944H797.979V31.224ZM808.319 33V23.416H804.591V21.64H814.095V23.416H810.367V33H808.319ZM815.712 33V21.64H817.776V28.2L817.664 29.96H817.696C818.059 29.224 818.379 28.632 818.656 28.184L822.944 21.64H824.992V33H822.944V26.456L823.056 24.696H823.024C822.672 25.4213 822.357 26.008 822.08 26.456L817.76 33H815.712ZM830.591 28.776C829.428 28.776 828.559 28.4827 827.983 27.896C827.407 27.2987 827.119 26.456 827.119 25.368V21.64H829.215V24.904C829.215 26.2373 829.849 26.904 831.119 26.904C831.983 26.904 832.761 26.68 833.455 26.232V21.64H835.551V33H833.455V28.6L833.487 28.072H833.455C832.537 28.5413 831.583 28.776 830.591 28.776ZM838.321 33V21.64H845.121V23.416H840.385V26.392H844.209V28.168H840.385V31.224H845.377V33H838.321ZM846.572 27.272C846.572 25.608 847.121 24.2213 848.22 23.112C849.318 22.0027 850.716 21.448 852.412 21.448C854.14 21.448 855.537 21.9653 856.604 23L855.612 24.536C855.196 24.184 854.705 23.896 854.14 23.672C853.585 23.448 853.041 23.336 852.508 23.336C851.313 23.336 850.38 23.7093 849.708 24.456C849.036 25.2027 848.7 26.1307 848.7 27.24C848.7 28.36 849.041 29.32 849.724 30.12C850.406 30.9093 851.34 31.304 852.524 31.304C853.74 31.304 854.838 30.824 855.82 29.864L856.908 31.352C855.702 32.5787 854.214 33.192 852.444 33.192C850.684 33.192 849.265 32.632 848.188 31.512C847.11 30.392 846.572 28.9787 846.572 27.272ZM858.681 33V21.64H860.745V26.264H862.217L864.889 21.64H867.129L863.913 27.048V27.08L867.321 33H864.985L862.217 28.04H860.745V33H858.681ZM867.915 27.24C867.915 25.608 868.475 24.2373 869.595 23.128C870.726 22.008 872.123 21.448 873.787 21.448C875.451 21.448 876.843 22.008 877.963 23.128C879.094 24.2373 879.659 25.608 879.659 27.24C879.659 28.9147 879.094 30.328 877.963 31.48C876.843 32.6213 875.451 33.192 873.787 33.192C872.123 33.192 870.726 32.6213 869.595 31.48C868.475 30.328 867.915 28.9147 867.915 27.24ZM870.043 27.24C870.043 28.392 870.406 29.3573 871.131 30.136C871.856 30.9147 872.742 31.304 873.787 31.304C874.832 31.304 875.718 30.9147 876.443 30.136C877.168 29.3573 877.531 28.392 877.531 27.24C877.531 26.1413 877.168 25.2187 876.443 24.472C875.718 23.7147 874.832 23.336 873.787 23.336C872.742 23.336 871.856 23.7147 871.131 24.472C870.406 25.2187 870.043 26.1413 870.043 27.24ZM888.335 20.536C887.823 20.9307 887.205 21.128 886.479 21.128C885.754 21.128 885.135 20.9307 884.623 20.536C884.111 20.1307 883.855 19.592 883.855 18.92V18.712H885.407V18.92C885.407 19.24 885.514 19.4907 885.727 19.672C885.941 19.8427 886.191 19.928 886.479 19.928C886.767 19.928 887.018 19.8427 887.231 19.672C887.455 19.4907 887.567 19.2347 887.567 18.904V18.712H889.103V18.92C889.103 19.592 888.847 20.1307 888.335 20.536ZM881.743 33V21.64H883.807V28.2L883.695 29.96H883.727C884.09 29.224 884.41 28.632 884.687 28.184L888.975 21.64H891.023V33H888.975V26.456L889.087 24.696H889.055C888.703 25.4213 888.389 26.008 888.111 26.456L883.791 33H881.743ZM897.118 27.24C897.118 25.608 897.678 24.2373 898.798 23.128C899.929 22.008 901.326 21.448 902.99 21.448C904.654 21.448 906.046 22.008 907.166 23.128C908.297 24.2373 908.862 25.608 908.862 27.24C908.862 28.9147 908.297 30.328 907.166 31.48C906.046 32.6213 904.654 33.192 902.99 33.192C901.326 33.192 899.929 32.6213 898.798 31.48C897.678 30.328 897.118 28.9147 897.118 27.24ZM899.246 27.24C899.246 28.392 899.609 29.3573 900.334 30.136C901.059 30.9147 901.945 31.304 902.99 31.304C904.035 31.304 904.921 30.9147 905.646 30.136C906.371 29.3573 906.734 28.392 906.734 27.24C906.734 26.1413 906.371 25.2187 905.646 24.472C904.921 23.7147 904.035 23.336 902.99 23.336C901.945 23.336 901.059 23.7147 900.334 24.472C899.609 25.2187 899.246 26.1413 899.246 27.24ZM910.946 33V21.64H915.33C916.397 21.64 917.266 21.9813 917.938 22.664C918.61 23.3467 918.946 24.2373 918.946 25.336C918.946 26.4347 918.61 27.336 917.938 28.04C917.266 28.7333 916.397 29.08 915.33 29.08H913.01V33H910.946ZM913.01 27.288H914.946C915.544 27.288 916.008 27.112 916.338 26.76C916.68 26.408 916.85 25.9333 916.85 25.336C916.85 24.7493 916.68 24.2853 916.338 23.944C916.008 23.592 915.554 23.416 914.978 23.416H913.01V27.288ZM920.743 33V21.64H927.271V23.416H922.807V33H920.743ZM926.62 33L930.604 21.64H932.78L936.764 33H934.652L933.676 30.088H929.692L928.732 33H926.62ZM930.204 28.408H933.164L932.156 25.368L931.708 23.608H931.676C931.506 24.3547 931.356 24.9413 931.228 25.368L930.204 28.408ZM938.274 33V21.64H940.338V26.456H945.538V21.64H947.586V33H945.538V28.232H940.338V33H938.274ZM950.337 33V21.64H952.401V28.2L952.289 29.96H952.321C952.684 29.224 953.004 28.632 953.281 28.184L957.569 21.64H959.617V33H957.569V26.456L957.681 24.696H957.649C957.297 25.4213 956.982 26.008 956.705 26.456L952.385 33H950.337ZM961.36 31.576L962.48 30.2C962.789 30.5307 963.173 30.808 963.632 31.032C964.09 31.256 964.56 31.368 965.04 31.368C965.658 31.368 966.149 31.2133 966.512 30.904C966.874 30.5947 967.056 30.168 967.056 29.624C967.056 29.1333 966.89 28.7493 966.56 28.472C966.24 28.184 965.802 28.04 965.248 28.04H963.856V26.376H964.976C965.488 26.376 965.909 26.2267 966.24 25.928C966.57 25.6293 966.736 25.256 966.736 24.808C966.736 24.3493 966.586 23.976 966.288 23.688C965.989 23.3893 965.557 23.24 964.992 23.24C964.128 23.24 963.306 23.56 962.528 24.2L961.696 22.696C962.698 21.864 963.914 21.448 965.344 21.448C966.314 21.448 967.136 21.7253 967.808 22.28C968.49 22.8347 968.832 23.592 968.832 24.552C968.832 25.672 968.309 26.5147 967.264 27.08V27.112C967.85 27.2933 968.314 27.6133 968.656 28.072C968.997 28.5307 969.168 29.0907 969.168 29.752C969.168 30.7973 968.789 31.6347 968.032 32.264C967.285 32.8827 966.352 33.192 965.232 33.192C964.506 33.192 963.797 33.0533 963.104 32.776C962.421 32.488 961.84 32.088 961.36 31.576ZM969.901 33L973.885 21.64H976.061L980.045 33H977.933L976.957 30.088H972.973L972.013 33H969.901ZM973.485 28.408H976.445L975.437 25.368L974.989 23.608H974.957C974.787 24.3547 974.637 24.9413 974.509 25.368L973.485 28.408ZM981.556 33V21.64H983.62V31.224H988.532V21.64H990.596V31.224H991.94V35.24H990.1V33H981.556ZM993.899 33V21.64H995.963V28.2L995.851 29.96H995.883C996.246 29.224 996.566 28.632 996.843 28.184L1001.13 21.64H1003.18V33H1001.13V26.456L1001.24 24.696H1001.21C1000.86 25.4213 1000.54 26.008 1000.27 26.456L995.947 33H993.899ZM1005.95 33V21.64H1008.01V28.2L1007.9 29.96H1007.93C1008.29 29.224 1008.61 28.632 1008.89 28.184L1013.18 21.64H1015.23V33H1013.18V26.456L1013.29 24.696H1013.26C1012.91 25.4213 1012.59 26.008 1012.31 26.456L1007.99 33H1005.95Z" fill="#252525"/>
<rect x="1051" width="353" height="55" rx="27.5" fill="#F3F6FF"/>
<path d="M1075.27 33L1078.79 27.24L1075.4 21.64H1077.75L1079.32 24.424L1080.02 25.8H1080.05C1080.27 25.3307 1080.5 24.872 1080.76 24.424L1082.34 21.64H1084.69L1081.29 27.24L1084.82 33H1082.52L1080.74 29.944L1080.04 28.6H1080.01C1079.79 29.0587 1079.56 29.5067 1079.32 29.944L1077.56 33H1075.27ZM1086.39 33V21.64H1090.78C1091.84 21.64 1092.71 21.9813 1093.38 22.664C1094.06 23.3467 1094.39 24.2373 1094.39 25.336C1094.39 26.4347 1094.06 27.336 1093.38 28.04C1092.71 28.7333 1091.84 29.08 1090.78 29.08H1088.46V33H1086.39ZM1088.46 27.288H1090.39C1090.99 27.288 1091.45 27.112 1091.78 26.76C1092.12 26.408 1092.3 25.9333 1092.3 25.336C1092.3 24.7493 1092.12 24.2853 1091.78 23.944C1091.45 23.592 1091 23.416 1090.42 23.416H1088.46V27.288ZM1094.36 33L1098.35 21.64H1100.52L1104.51 33H1102.39L1101.42 30.088H1097.43L1096.47 33H1094.36ZM1097.95 28.408H1100.91L1099.9 25.368L1099.45 23.608H1099.42C1099.25 24.3547 1099.1 24.9413 1098.97 25.368L1097.95 28.408ZM1106.02 33V21.64H1108.08V26.456H1113.28V21.64H1115.33V33H1113.28V28.232H1108.08V33H1106.02ZM1118.08 33V21.64H1124.88V23.416H1120.14V26.392H1123.97V28.168H1120.14V31.224H1125.14V33H1118.08ZM1127.19 33V21.64H1129.25V26.456H1134.45V21.64H1136.5V33H1134.45V28.232H1129.25V33H1127.19ZM1139.25 33V21.64H1141.32V28.2L1141.2 29.96H1141.24C1141.6 29.224 1141.92 28.632 1142.2 28.184L1146.48 21.64H1148.53V33H1146.48V26.456L1146.6 24.696H1146.56C1146.21 25.4213 1145.9 26.008 1145.62 26.456L1141.3 33H1139.25ZM1151.3 33V21.64H1158.1V23.416H1153.36V26.392H1157.19V28.168H1153.36V31.224H1158.35V33H1151.3ZM1163.26 31.24C1164.11 31.1227 1164.73 30.5573 1165.11 29.544C1165.51 28.52 1165.7 26.92 1165.7 24.744V21.64H1172.73V33H1170.66V23.416H1167.67V24.776C1167.67 27.5707 1167.32 29.6507 1166.63 31.016C1165.94 32.3707 1164.81 33.0747 1163.26 33.128V31.24ZM1175.49 33V21.64H1182.29V23.416H1177.55V26.392H1181.37V28.168H1177.55V31.224H1182.54V33H1175.49ZM1184.59 33V21.64H1186.66V26.264H1188.13L1190.8 21.64H1193.04L1189.83 27.048V27.08L1193.23 33H1190.9L1188.13 28.04H1186.66V33H1184.59ZM1193.55 33L1197.53 21.64H1199.71L1203.69 33H1201.58L1200.61 30.088H1196.62L1195.66 33H1193.55ZM1197.13 28.408H1200.09L1199.09 25.368L1198.64 23.608H1198.61C1198.44 24.3547 1198.29 24.9413 1198.16 25.368L1197.13 28.408ZM1205.2 33V21.64H1209.59C1210.65 21.64 1211.52 21.9813 1212.2 22.664C1212.87 23.3467 1213.2 24.2373 1213.2 25.336C1213.2 26.4347 1212.87 27.336 1212.2 28.04C1211.52 28.7333 1210.65 29.08 1209.59 29.08H1207.27V33H1205.2ZM1207.27 27.288H1209.2C1209.8 27.288 1210.27 27.112 1210.6 26.76C1210.94 26.408 1211.11 25.9333 1211.11 25.336C1211.11 24.7493 1210.94 24.2853 1210.6 23.944C1210.27 23.592 1209.81 23.416 1209.24 23.416H1207.27V27.288ZM1214.35 27.272C1214.35 25.608 1214.89 24.2213 1215.99 23.112C1217.09 22.0027 1218.49 21.448 1220.19 21.448C1221.91 21.448 1223.31 21.9653 1224.38 23L1223.39 24.536C1222.97 24.184 1222.48 23.896 1221.91 23.672C1221.36 23.448 1220.81 23.336 1220.28 23.336C1219.09 23.336 1218.15 23.7093 1217.48 24.456C1216.81 25.2027 1216.47 26.1307 1216.47 27.24C1216.47 28.36 1216.81 29.32 1217.5 30.12C1218.18 30.9093 1219.11 31.304 1220.3 31.304C1221.51 31.304 1222.61 30.824 1223.59 29.864L1224.68 31.352C1223.48 32.5787 1221.99 33.192 1220.22 33.192C1218.46 33.192 1217.04 32.632 1215.96 31.512C1214.88 30.392 1214.35 28.9787 1214.35 27.272ZM1229.03 33V23.416H1225.3V21.64H1234.81V23.416H1231.08V33H1229.03ZM1236.42 33V21.64H1240.47C1241.53 21.64 1242.37 21.9013 1243.01 22.424C1243.67 22.936 1243.99 23.6507 1243.99 24.568C1243.99 25.1013 1243.87 25.5813 1243.62 26.008C1243.38 26.4347 1243.04 26.7653 1242.61 27V27.032C1243.21 27.2027 1243.67 27.5387 1243.97 28.04C1244.29 28.5413 1244.45 29.096 1244.45 29.704C1244.45 30.7813 1244.08 31.6027 1243.33 32.168C1242.59 32.7227 1241.65 33 1240.53 33H1236.42ZM1238.49 26.28H1240.49C1240.92 26.28 1241.27 26.1467 1241.51 25.88C1241.77 25.6027 1241.89 25.2507 1241.89 24.824C1241.89 24.408 1241.77 24.072 1241.51 23.816C1241.27 23.5493 1240.91 23.416 1240.45 23.416H1238.49V26.28ZM1238.49 31.224H1240.69C1241.21 31.224 1241.61 31.0747 1241.89 30.776C1242.19 30.4667 1242.34 30.0667 1242.34 29.576C1242.34 29.096 1242.19 28.7067 1241.89 28.408C1241.61 28.0987 1241.21 27.944 1240.69 27.944H1238.49V31.224ZM1246.55 33V21.64H1253.35V23.416H1248.61V26.392H1252.44V28.168H1248.61V31.224H1253.6V33H1246.55ZM1255.66 33V21.64H1257.72V26.456H1262.92V21.64H1264.97V33H1262.92V28.232H1257.72V33H1255.66ZM1267.72 33V21.64H1269.78V26.456H1274.98V21.64H1277.03V33H1274.98V28.232H1269.78V33H1267.72ZM1288.98 33V21.64H1291.03V33H1288.98ZM1279.78 33V21.64H1281.85V25.624H1283.96C1285.01 25.624 1285.87 25.9653 1286.52 26.648C1287.18 27.32 1287.51 28.216 1287.51 29.336C1287.51 30.424 1287.18 31.3093 1286.53 31.992C1285.88 32.664 1285.04 33 1284.01 33H1279.78ZM1281.85 31.224H1283.64C1284.2 31.224 1284.64 31.0587 1284.95 30.728C1285.26 30.3867 1285.41 29.9227 1285.41 29.336C1285.41 28.7493 1285.25 28.28 1284.93 27.928C1284.61 27.576 1284.17 27.4 1283.61 27.4H1281.85V31.224ZM1292.63 33L1296.15 27.24L1292.76 21.64H1295.11L1296.68 24.424L1297.38 25.8H1297.41C1297.63 25.3307 1297.86 24.872 1298.12 24.424L1299.7 21.64H1302.05L1298.65 27.24L1302.18 33H1299.88L1298.1 29.944L1297.4 28.6H1297.37C1297.15 29.0587 1296.92 29.5067 1296.68 29.944L1294.92 33H1292.63ZM1307.1 27.272C1307.1 25.608 1307.64 24.2213 1308.74 23.112C1309.84 22.0027 1311.24 21.448 1312.94 21.448C1314.66 21.448 1316.06 21.9653 1317.13 23L1316.14 24.536C1315.72 24.184 1315.23 23.896 1314.66 23.672C1314.11 23.448 1313.56 23.336 1313.03 23.336C1311.84 23.336 1310.9 23.7093 1310.23 24.456C1309.56 25.2027 1309.22 26.1307 1309.22 27.24C1309.22 28.36 1309.56 29.32 1310.25 30.12C1310.93 30.9093 1311.86 31.304 1313.05 31.304C1314.26 31.304 1315.36 30.824 1316.34 29.864L1317.43 31.352C1316.23 32.5787 1314.74 33.192 1312.97 33.192C1311.21 33.192 1309.79 32.632 1308.71 31.512C1307.63 30.392 1307.1 28.9787 1307.1 27.272ZM1319.2 33V21.64H1323.59C1324.65 21.64 1325.52 21.9813 1326.2 22.664C1326.87 23.3467 1327.2 24.2373 1327.2 25.336C1327.2 26.4347 1326.87 27.336 1326.2 28.04C1325.52 28.7333 1324.65 29.08 1323.59 29.08H1321.27V33H1319.2ZM1321.27 27.288H1323.2C1323.8 27.288 1324.27 27.112 1324.6 26.76C1324.94 26.408 1325.11 25.9333 1325.11 25.336C1325.11 24.7493 1324.94 24.2853 1324.6 23.944C1324.27 23.592 1323.81 23.416 1323.24 23.416H1321.27V27.288ZM1329 33V21.64H1335.8V23.416H1331.07V26.392H1334.89V28.168H1331.07V31.224H1336.06V33H1329ZM1340.13 31.224H1344.64V23.416H1341.6V24.264C1341.6 27.3147 1341.11 29.6347 1340.13 31.224ZM1336.85 31.224H1338C1339.1 29.56 1339.65 27.192 1339.65 24.12V21.64H1346.7V31.224H1347.97V35.24H1346.13V33H1338.75V35.24H1336.85V31.224ZM1349.11 27.272C1349.11 25.608 1349.66 24.2213 1350.76 23.112C1351.86 22.0027 1353.25 21.448 1354.95 21.448C1356.68 21.448 1358.08 21.9653 1359.14 23L1358.15 24.536C1357.73 24.184 1357.24 23.896 1356.68 23.672C1356.12 23.448 1355.58 23.336 1355.05 23.336C1353.85 23.336 1352.92 23.7093 1352.25 24.456C1351.57 25.2027 1351.24 26.1307 1351.24 27.24C1351.24 28.36 1351.58 29.32 1352.26 30.12C1352.95 30.9093 1353.88 31.304 1355.06 31.304C1356.28 31.304 1357.38 30.824 1358.36 29.864L1359.45 31.352C1358.24 32.5787 1356.75 33.192 1354.98 33.192C1353.22 33.192 1351.8 32.632 1350.73 31.512C1349.65 30.392 1349.11 28.9787 1349.11 27.272ZM1363.8 33V23.416H1360.07V21.64H1369.57V23.416H1365.84V33H1363.8ZM1371.19 33V21.64H1375.24C1376.29 21.64 1377.14 21.9013 1377.78 22.424C1378.43 22.936 1378.76 23.6507 1378.76 24.568C1378.76 25.1013 1378.63 25.5813 1378.39 26.008C1378.14 26.4347 1377.81 26.7653 1377.38 27V27.032C1377.98 27.2027 1378.43 27.5387 1378.74 28.04C1379.06 28.5413 1379.22 29.096 1379.22 29.704C1379.22 30.7813 1378.85 31.6027 1378.1 32.168C1377.35 32.7227 1376.42 33 1375.3 33H1371.19ZM1373.25 26.28H1375.25C1375.69 26.28 1376.03 26.1467 1376.28 25.88C1376.53 25.6027 1376.66 25.2507 1376.66 24.824C1376.66 24.408 1376.53 24.072 1376.28 23.816C1376.03 23.5493 1375.68 23.416 1375.22 23.416H1373.25V26.28ZM1373.25 31.224H1375.46C1375.97 31.224 1376.37 31.0747 1376.66 30.776C1376.96 30.4667 1377.11 30.0667 1377.11 29.576C1377.11 29.096 1376.96 28.7067 1376.66 28.408C1376.37 28.0987 1375.97 27.944 1375.46 27.944H1373.25V31.224Z" fill="#005DFF"/>
<rect x="1414" width="578" height="55" rx="27.5" fill="#F3F6FF"/>
<path d="M1439.52 33V21.64H1448.72V33H1446.66V23.416H1441.59V33H1439.52ZM1450.81 27.24C1450.81 25.608 1451.37 24.2373 1452.49 23.128C1453.62 22.008 1455.01 21.448 1456.68 21.448C1458.34 21.448 1459.73 22.008 1460.85 23.128C1461.98 24.2373 1462.55 25.608 1462.55 27.24C1462.55 28.9147 1461.98 30.328 1460.85 31.48C1459.73 32.6213 1458.34 33.192 1456.68 33.192C1455.01 33.192 1453.62 32.6213 1452.49 31.48C1451.37 30.328 1450.81 28.9147 1450.81 27.24ZM1452.93 27.24C1452.93 28.392 1453.3 29.3573 1454.02 30.136C1454.75 30.9147 1455.63 31.304 1456.68 31.304C1457.72 31.304 1458.61 30.9147 1459.33 30.136C1460.06 29.3573 1460.42 28.392 1460.42 27.24C1460.42 26.1413 1460.06 25.2187 1459.33 24.472C1458.61 23.7147 1457.72 23.336 1456.68 23.336C1455.63 23.336 1454.75 23.7147 1454.02 24.472C1453.3 25.2187 1452.93 26.1413 1452.93 27.24ZM1466.27 31.224H1470.79V23.416H1467.75V24.264C1467.75 27.3147 1467.26 29.6347 1466.27 31.224ZM1462.99 31.224H1464.15C1465.25 29.56 1465.79 27.192 1465.79 24.12V21.64H1472.85V31.224H1474.11V35.24H1472.27V33H1464.9V35.24H1462.99V31.224ZM1476.1 33V21.64H1482.63V23.416H1478.17V33H1476.1ZM1483.12 27.24C1483.12 25.608 1483.68 24.2373 1484.8 23.128C1485.93 22.008 1487.33 21.448 1488.99 21.448C1490.65 21.448 1492.05 22.008 1493.17 23.128C1494.3 24.2373 1494.86 25.608 1494.86 27.24C1494.86 28.9147 1494.3 30.328 1493.17 31.48C1492.05 32.6213 1490.65 33.192 1488.99 33.192C1487.33 33.192 1485.93 32.6213 1484.8 31.48C1483.68 30.328 1483.12 28.9147 1483.12 27.24ZM1485.25 27.24C1485.25 28.392 1485.61 29.3573 1486.33 30.136C1487.06 30.9147 1487.94 31.304 1488.99 31.304C1490.04 31.304 1490.92 30.9147 1491.65 30.136C1492.37 29.3573 1492.73 28.392 1492.73 27.24C1492.73 26.1413 1492.37 25.2187 1491.65 24.472C1490.92 23.7147 1490.04 23.336 1488.99 23.336C1487.94 23.336 1487.06 23.7147 1486.33 24.472C1485.61 25.2187 1485.25 26.1413 1485.25 27.24ZM1499.12 33V23.416H1495.39V21.64H1504.89V23.416H1501.16V33H1499.12ZM1505.43 27.24C1505.43 25.608 1505.99 24.2373 1507.11 23.128C1508.24 22.008 1509.64 21.448 1511.3 21.448C1512.97 21.448 1514.36 22.008 1515.48 23.128C1516.61 24.2373 1517.17 25.608 1517.17 27.24C1517.17 28.9147 1516.61 30.328 1515.48 31.48C1514.36 32.6213 1512.97 33.192 1511.3 33.192C1509.64 33.192 1508.24 32.6213 1507.11 31.48C1505.99 30.328 1505.43 28.9147 1505.43 27.24ZM1507.56 27.24C1507.56 28.392 1507.92 29.3573 1508.65 30.136C1509.37 30.9147 1510.26 31.304 1511.3 31.304C1512.35 31.304 1513.23 30.9147 1513.96 30.136C1514.68 29.3573 1515.05 28.392 1515.05 27.24C1515.05 26.1413 1514.68 25.2187 1513.96 24.472C1513.23 23.7147 1512.35 23.336 1511.3 23.336C1510.26 23.336 1509.37 23.7147 1508.65 24.472C1507.92 25.2187 1507.56 26.1413 1507.56 27.24ZM1519.26 33V21.64H1523.31C1524.36 21.64 1525.21 21.9013 1525.85 22.424C1526.5 22.936 1526.83 23.6507 1526.83 24.568C1526.83 25.1013 1526.7 25.5813 1526.46 26.008C1526.21 26.4347 1525.88 26.7653 1525.45 27V27.032C1526.05 27.2027 1526.5 27.5387 1526.81 28.04C1527.13 28.5413 1527.29 29.096 1527.29 29.704C1527.29 30.7813 1526.92 31.6027 1526.17 32.168C1525.42 32.7227 1524.49 33 1523.37 33H1519.26ZM1521.32 26.28H1523.32C1523.76 26.28 1524.1 26.1467 1524.35 25.88C1524.6 25.6027 1524.73 25.2507 1524.73 24.824C1524.73 24.408 1524.6 24.072 1524.35 23.816C1524.1 23.5493 1523.75 23.416 1523.29 23.416H1521.32V26.28ZM1521.32 31.224H1523.53C1524.04 31.224 1524.44 31.0747 1524.73 30.776C1525.03 30.4667 1525.18 30.0667 1525.18 29.576C1525.18 29.096 1525.03 28.7067 1524.73 28.408C1524.44 28.0987 1524.04 27.944 1523.53 27.944H1521.32V31.224ZM1529.38 33V21.64H1531.45V26.264H1532.92L1535.59 21.64H1537.83L1534.62 27.048V27.08L1538.02 33H1535.69L1532.92 28.04H1531.45V33H1529.38ZM1538.34 33L1542.32 21.64H1544.5L1548.48 33H1546.37L1545.39 30.088H1541.41L1540.45 33H1538.34ZM1541.92 28.408H1544.88L1543.87 25.368L1543.43 23.608H1543.39C1543.22 24.3547 1543.07 24.9413 1542.95 25.368L1541.92 28.408ZM1553.99 33V21.64H1563.19V33H1561.13V23.416H1556.06V33H1553.99ZM1565.27 27.24C1565.27 25.608 1565.83 24.2373 1566.95 23.128C1568.08 22.008 1569.48 21.448 1571.15 21.448C1572.81 21.448 1574.2 22.008 1575.32 23.128C1576.45 24.2373 1577.02 25.608 1577.02 27.24C1577.02 28.9147 1576.45 30.328 1575.32 31.48C1574.2 32.6213 1572.81 33.192 1571.15 33.192C1569.48 33.192 1568.08 32.6213 1566.95 31.48C1565.83 30.328 1565.27 28.9147 1565.27 27.24ZM1567.4 27.24C1567.4 28.392 1567.76 29.3573 1568.49 30.136C1569.22 30.9147 1570.1 31.304 1571.15 31.304C1572.19 31.304 1573.08 30.9147 1573.8 30.136C1574.53 29.3573 1574.89 28.392 1574.89 27.24C1574.89 26.1413 1574.53 25.2187 1573.8 24.472C1573.08 23.7147 1572.19 23.336 1571.15 23.336C1570.1 23.336 1569.22 23.7147 1568.49 24.472C1567.76 25.2187 1567.4 26.1413 1567.4 27.24ZM1578.67 33L1579.6 21.64H1581.79L1584.03 27.256L1584.59 28.92H1584.62C1584.83 28.2587 1585.01 27.704 1585.18 27.256L1587.42 21.64H1589.61L1590.54 33H1588.48L1588.01 26.648C1587.99 26.424 1587.98 26.168 1587.98 25.88C1587.98 25.5813 1587.99 25.3413 1588 25.16V24.888H1587.97C1587.72 25.624 1587.51 26.2107 1587.34 26.648L1585.5 31.048H1583.71L1581.87 26.648L1581.25 24.872H1581.21C1581.25 25.5547 1581.24 26.1467 1581.2 26.648L1580.73 33H1578.67ZM1592.87 33V21.64H1599.67V23.416H1594.93V26.392H1598.76V28.168H1594.93V31.224H1599.92V33H1592.87ZM1601.98 33V21.64H1604.04V31.224H1607.71V21.64H1609.77V31.224H1613.43V21.64H1615.48V31.224H1616.89V35.24H1615.03V33H1601.98ZM1618.82 33V21.64H1625.62V23.416H1620.89V26.392H1624.71V28.168H1620.89V31.224H1625.88V33H1618.82ZM1627.93 33V21.64H1629.99V26.456H1635.19V21.64H1637.24V33H1635.19V28.232H1629.99V33H1627.93ZM1639.99 33V21.64H1642.06V28.2L1641.95 29.96H1641.98C1642.34 29.224 1642.66 28.632 1642.94 28.184L1647.23 21.64H1649.27V33H1647.23V26.456L1647.34 24.696H1647.31C1646.95 25.4213 1646.64 26.008 1646.36 26.456L1642.04 33H1639.99ZM1658.63 20.536C1658.12 20.9307 1657.5 21.128 1656.78 21.128C1656.05 21.128 1655.43 20.9307 1654.92 20.536C1654.41 20.1307 1654.15 19.592 1654.15 18.92V18.712H1655.7V18.92C1655.7 19.24 1655.81 19.4907 1656.02 19.672C1656.24 19.8427 1656.49 19.928 1656.78 19.928C1657.06 19.928 1657.31 19.8427 1657.53 19.672C1657.75 19.4907 1657.86 19.2347 1657.86 18.904V18.712H1659.4V18.92C1659.4 19.592 1659.14 20.1307 1658.63 20.536ZM1652.04 33V21.64H1654.1V28.2L1653.99 29.96H1654.02C1654.39 29.224 1654.71 28.632 1654.98 28.184L1659.27 21.64H1661.32V33H1659.27V26.456L1659.38 24.696H1659.35C1659 25.4213 1658.69 26.008 1658.41 26.456L1654.09 33H1652.04ZM1667.24 26.952C1667.24 25.5653 1667.72 24.4347 1668.68 23.56C1669.65 22.6853 1670.9 22.248 1672.44 22.248V21H1674.5V22.248C1676.04 22.248 1677.29 22.6853 1678.25 23.56C1679.22 24.4347 1679.7 25.5653 1679.7 26.952C1679.7 28.3707 1679.22 29.528 1678.26 30.424C1677.3 31.3093 1676.05 31.752 1674.5 31.752V33.192H1672.44V31.752C1670.9 31.752 1669.65 31.304 1668.68 30.408C1667.72 29.512 1667.24 28.36 1667.24 26.952ZM1674.5 30.024C1675.42 30.024 1676.17 29.7413 1676.74 29.176C1677.32 28.6 1677.61 27.8587 1677.61 26.952C1677.61 26.0667 1677.32 25.352 1676.74 24.808C1676.17 24.2533 1675.42 23.976 1674.5 23.976V30.024ZM1669.35 26.952C1669.35 27.8587 1669.63 28.6 1670.2 29.176C1670.77 29.7413 1671.52 30.024 1672.44 30.024V23.976C1671.52 23.976 1670.77 24.2533 1670.2 24.808C1669.63 25.352 1669.35 26.0667 1669.35 26.952ZM1680.07 33L1684.06 21.64H1686.23L1690.22 33H1688.11L1687.13 30.088H1683.15L1682.19 33H1680.07ZM1683.66 28.408H1686.62L1685.61 25.368L1685.16 23.608H1685.13C1684.96 24.3547 1684.81 24.9413 1684.68 25.368L1683.66 28.408ZM1691.73 33V21.64H1696.11C1697.18 21.64 1698.05 21.9813 1698.72 22.664C1699.39 23.3467 1699.73 24.2373 1699.73 25.336C1699.73 26.4347 1699.39 27.336 1698.72 28.04C1698.05 28.7333 1697.18 29.08 1696.11 29.08H1693.79V33H1691.73ZM1693.79 27.288H1695.73C1696.32 27.288 1696.79 27.112 1697.12 26.76C1697.46 26.408 1697.63 25.9333 1697.63 25.336C1697.63 24.7493 1697.46 24.2853 1697.12 23.944C1696.79 23.592 1696.34 23.416 1695.76 23.416H1693.79V27.288ZM1701.09 33L1702.02 21.64H1704.21L1706.45 27.256L1707.01 28.92H1707.04C1707.25 28.2587 1707.43 27.704 1707.6 27.256L1709.84 21.64H1712.04L1712.96 33H1710.9L1710.44 26.648C1710.42 26.424 1710.4 26.168 1710.4 25.88C1710.4 25.5813 1710.41 25.3413 1710.42 25.16V24.888H1710.39C1710.14 25.624 1709.94 26.2107 1709.76 26.648L1707.92 31.048H1706.13L1704.29 26.648L1703.67 24.872H1703.64C1703.67 25.5547 1703.66 26.1467 1703.62 26.648L1703.16 33H1701.09ZM1714.04 33L1718.03 21.64H1720.2L1724.19 33H1722.07L1721.1 30.088H1717.11L1716.15 33H1714.04ZM1717.63 28.408H1720.59L1719.58 25.368L1719.13 23.608H1719.1C1718.93 24.3547 1718.78 24.9413 1718.65 25.368L1717.63 28.408ZM1725.7 33V21.64H1727.76V31.224H1732.67V21.64H1734.74V31.224H1736.08V35.24H1734.24V33H1725.7ZM1738.04 33V21.64H1744.84V23.416H1740.1V26.392H1743.93V28.168H1740.1V31.224H1745.1V33H1738.04ZM1747.15 33V21.64H1751.2C1752.25 21.64 1753.1 21.9013 1753.74 22.424C1754.39 22.936 1754.72 23.6507 1754.72 24.568C1754.72 25.1013 1754.59 25.5813 1754.35 26.008C1754.1 26.4347 1753.77 26.7653 1753.34 27V27.032C1753.94 27.2027 1754.39 27.5387 1754.7 28.04C1755.02 28.5413 1755.18 29.096 1755.18 29.704C1755.18 30.7813 1754.81 31.6027 1754.06 32.168C1753.31 32.7227 1752.38 33 1751.26 33H1747.15ZM1749.21 26.28H1751.21C1751.65 26.28 1751.99 26.1467 1752.24 25.88C1752.49 25.6027 1752.62 25.2507 1752.62 24.824C1752.62 24.408 1752.49 24.072 1752.24 23.816C1751.99 23.5493 1751.64 23.416 1751.18 23.416H1749.21V26.28ZM1749.21 31.224H1751.42C1751.93 31.224 1752.33 31.0747 1752.62 30.776C1752.92 30.4667 1753.07 30.0667 1753.07 29.576C1753.07 29.096 1752.92 28.7067 1752.62 28.408C1752.33 28.0987 1751.93 27.944 1751.42 27.944H1749.21V31.224ZM1759.55 33V23.416H1755.83V21.64H1765.33V23.416H1761.6V33H1759.55ZM1766.95 33V21.64H1769.01V28.2L1768.9 29.96H1768.93C1769.29 29.224 1769.61 28.632 1769.89 28.184L1774.18 21.64H1776.23V33H1774.18V26.456L1774.29 24.696H1774.26C1773.91 25.4213 1773.59 26.008 1773.31 26.456L1768.99 33H1766.95ZM1781.83 28.776C1780.66 28.776 1779.79 28.4827 1779.22 27.896C1778.64 27.2987 1778.35 26.456 1778.35 25.368V21.64H1780.45V24.904C1780.45 26.2373 1781.08 26.904 1782.35 26.904C1783.22 26.904 1784 26.68 1784.69 26.232V21.64H1786.79V33H1784.69V28.6L1784.72 28.072H1784.69C1783.77 28.5413 1782.82 28.776 1781.83 28.776ZM1789.56 33V21.64H1796.36V23.416H1791.62V26.392H1795.44V28.168H1791.62V31.224H1796.61V33H1789.56ZM1797.81 27.272C1797.81 25.608 1798.36 24.2213 1799.45 23.112C1800.55 22.0027 1801.95 21.448 1803.65 21.448C1805.37 21.448 1806.77 21.9653 1807.84 23L1806.85 24.536C1806.43 24.184 1805.94 23.896 1805.37 23.672C1804.82 23.448 1804.28 23.336 1803.74 23.336C1802.55 23.336 1801.61 23.7093 1800.94 24.456C1800.27 25.2027 1799.93 26.1307 1799.93 27.24C1799.93 28.36 1800.28 29.32 1800.96 30.12C1801.64 30.9093 1802.57 31.304 1803.76 31.304C1804.97 31.304 1806.07 30.824 1807.05 29.864L1808.14 31.352C1806.94 32.5787 1805.45 33.192 1803.68 33.192C1801.92 33.192 1800.5 32.632 1799.42 31.512C1798.34 30.392 1797.81 28.9787 1797.81 27.272ZM1809.92 33V21.64H1811.98V26.264H1813.45L1816.12 21.64H1818.36L1815.15 27.048V27.08L1818.56 33H1816.22L1813.45 28.04H1811.98V33H1809.92ZM1819.15 27.24C1819.15 25.608 1819.71 24.2373 1820.83 23.128C1821.96 22.008 1823.36 21.448 1825.02 21.448C1826.69 21.448 1828.08 22.008 1829.2 23.128C1830.33 24.2373 1830.89 25.608 1830.89 27.24C1830.89 28.9147 1830.33 30.328 1829.2 31.48C1828.08 32.6213 1826.69 33.192 1825.02 33.192C1823.36 33.192 1821.96 32.6213 1820.83 31.48C1819.71 30.328 1819.15 28.9147 1819.15 27.24ZM1821.28 27.24C1821.28 28.392 1821.64 29.3573 1822.37 30.136C1823.09 30.9147 1823.98 31.304 1825.02 31.304C1826.07 31.304 1826.95 30.9147 1827.68 30.136C1828.4 29.3573 1828.77 28.392 1828.77 27.24C1828.77 26.1413 1828.4 25.2187 1827.68 24.472C1826.95 23.7147 1826.07 23.336 1825.02 23.336C1823.98 23.336 1823.09 23.7147 1822.37 24.472C1821.64 25.2187 1821.28 26.1413 1821.28 27.24ZM1839.57 20.536C1839.06 20.9307 1838.44 21.128 1837.71 21.128C1836.99 21.128 1836.37 20.9307 1835.86 20.536C1835.35 20.1307 1835.09 19.592 1835.09 18.92V18.712H1836.64V18.92C1836.64 19.24 1836.75 19.4907 1836.96 19.672C1837.17 19.8427 1837.43 19.928 1837.71 19.928C1838 19.928 1838.25 19.8427 1838.47 19.672C1838.69 19.4907 1838.8 19.2347 1838.8 18.904V18.712H1840.34V18.92C1840.34 19.592 1840.08 20.1307 1839.57 20.536ZM1832.98 33V21.64H1835.04V28.2L1834.93 29.96H1834.96C1835.32 29.224 1835.64 28.632 1835.92 28.184L1840.21 21.64H1842.26V33H1840.21V26.456L1840.32 24.696H1840.29C1839.94 25.4213 1839.62 26.008 1839.35 26.456L1835.03 33H1832.98ZM1848.35 27.24C1848.35 25.608 1848.91 24.2373 1850.03 23.128C1851.16 22.008 1852.56 21.448 1854.22 21.448C1855.89 21.448 1857.28 22.008 1858.4 23.128C1859.53 24.2373 1860.1 25.608 1860.1 27.24C1860.1 28.9147 1859.53 30.328 1858.4 31.48C1857.28 32.6213 1855.89 33.192 1854.22 33.192C1852.56 33.192 1851.16 32.6213 1850.03 31.48C1848.91 30.328 1848.35 28.9147 1848.35 27.24ZM1850.48 27.24C1850.48 28.392 1850.84 29.3573 1851.57 30.136C1852.29 30.9147 1853.18 31.304 1854.22 31.304C1855.27 31.304 1856.16 30.9147 1856.88 30.136C1857.61 29.3573 1857.97 28.392 1857.97 27.24C1857.97 26.1413 1857.61 25.2187 1856.88 24.472C1856.16 23.7147 1855.27 23.336 1854.22 23.336C1853.18 23.336 1852.29 23.7147 1851.57 24.472C1850.84 25.2187 1850.48 26.1413 1850.48 27.24ZM1862.18 33V21.64H1866.56C1867.63 21.64 1868.5 21.9813 1869.17 22.664C1869.84 23.3467 1870.18 24.2373 1870.18 25.336C1870.18 26.4347 1869.84 27.336 1869.17 28.04C1868.5 28.7333 1867.63 29.08 1866.56 29.08H1864.24V33H1862.18ZM1864.24 27.288H1866.18C1866.78 27.288 1867.24 27.112 1867.57 26.76C1867.91 26.408 1868.08 25.9333 1868.08 25.336C1868.08 24.7493 1867.91 24.2853 1867.57 23.944C1867.24 23.592 1866.79 23.416 1866.21 23.416H1864.24V27.288ZM1871.98 33V21.64H1878.51V23.416H1874.04V33H1871.98ZM1877.85 33L1881.84 21.64H1884.01L1888 33H1885.89L1884.91 30.088H1880.93L1879.97 33H1877.85ZM1881.44 28.408H1884.4L1883.39 25.368L1882.94 23.608H1882.91C1882.74 24.3547 1882.59 24.9413 1882.46 25.368L1881.44 28.408ZM1889.51 33V21.64H1891.57V26.456H1896.77V21.64H1898.82V33H1896.77V28.232H1891.57V33H1889.51ZM1901.57 33V21.64H1903.64V28.2L1903.52 29.96H1903.56C1903.92 29.224 1904.24 28.632 1904.52 28.184L1908.8 21.64H1910.85V33H1908.8V26.456L1908.92 24.696H1908.88C1908.53 25.4213 1908.22 26.008 1907.94 26.456L1903.62 33H1901.57ZM1912.59 31.576L1913.71 30.2C1914.02 30.5307 1914.41 30.808 1914.87 31.032C1915.32 31.256 1915.79 31.368 1916.27 31.368C1916.89 31.368 1917.38 31.2133 1917.75 30.904C1918.11 30.5947 1918.29 30.168 1918.29 29.624C1918.29 29.1333 1918.12 28.7493 1917.79 28.472C1917.47 28.184 1917.04 28.04 1916.48 28.04H1915.09V26.376H1916.21C1916.72 26.376 1917.14 26.2267 1917.47 25.928C1917.8 25.6293 1917.97 25.256 1917.97 24.808C1917.97 24.3493 1917.82 23.976 1917.52 23.688C1917.22 23.3893 1916.79 23.24 1916.23 23.24C1915.36 23.24 1914.54 23.56 1913.76 24.2L1912.93 22.696C1913.93 21.864 1915.15 21.448 1916.58 21.448C1917.55 21.448 1918.37 21.7253 1919.04 22.28C1919.72 22.8347 1920.07 23.592 1920.07 24.552C1920.07 25.672 1919.54 26.5147 1918.5 27.08V27.112C1919.08 27.2933 1919.55 27.6133 1919.89 28.072C1920.23 28.5307 1920.4 29.0907 1920.4 29.752C1920.4 30.7973 1920.02 31.6347 1919.27 32.264C1918.52 32.8827 1917.59 33.192 1916.47 33.192C1915.74 33.192 1915.03 33.0533 1914.34 32.776C1913.66 32.488 1913.07 32.088 1912.59 31.576ZM1921.14 33L1925.12 21.64H1927.3L1931.28 33H1929.17L1928.19 30.088H1924.21L1923.25 33H1921.14ZM1924.72 28.408H1927.68L1926.67 25.368L1926.22 23.608H1926.19C1926.02 24.3547 1925.87 24.9413 1925.74 25.368L1924.72 28.408ZM1932.79 33V21.64H1934.85V31.224H1939.77V21.64H1941.83V31.224H1943.17V35.24H1941.33V33H1932.79ZM1945.13 33V21.64H1947.2V28.2L1947.09 29.96H1947.12C1947.48 29.224 1947.8 28.632 1948.08 28.184L1952.37 21.64H1954.41V33H1952.37V26.456L1952.48 24.696H1952.45C1952.09 25.4213 1951.78 26.008 1951.5 26.456L1947.18 33H1945.13ZM1957.18 33V21.64H1959.24V28.2L1959.13 29.96H1959.16C1959.53 29.224 1959.85 28.632 1960.12 28.184L1964.41 21.64H1966.46V33H1964.41V26.456L1964.52 24.696H1964.49C1964.14 25.4213 1963.83 26.008 1963.55 26.456L1959.23 33H1957.18Z" fill="#252525"/>
<rect x="2002" width="400" height="55" rx="27.5" fill="#F3F6FF"/>
<path d="M2026.56 26.952C2026.56 25.5653 2027.04 24.4347 2028 23.56C2028.97 22.6853 2030.22 22.248 2031.76 22.248V21H2033.82V22.248C2035.36 22.248 2036.61 22.6853 2037.57 23.56C2038.54 24.4347 2039.02 25.5653 2039.02 26.952C2039.02 28.3707 2038.54 29.528 2037.58 30.424C2036.62 31.3093 2035.37 31.752 2033.82 31.752V33.192H2031.76V31.752C2030.22 31.752 2028.97 31.304 2028 30.408C2027.04 29.512 2026.56 28.36 2026.56 26.952ZM2033.82 30.024C2034.74 30.024 2035.49 29.7413 2036.06 29.176C2036.64 28.6 2036.93 27.8587 2036.93 26.952C2036.93 26.0667 2036.64 25.352 2036.06 24.808C2035.49 24.2533 2034.74 23.976 2033.82 23.976V30.024ZM2028.67 26.952C2028.67 27.8587 2028.95 28.6 2029.52 29.176C2030.1 29.7413 2030.84 30.024 2031.76 30.024V23.976C2030.84 23.976 2030.1 24.2533 2029.52 24.808C2028.95 25.352 2028.67 26.0667 2028.67 26.952ZM2039.39 33L2043.38 21.64H2045.55L2049.54 33H2047.43L2046.45 30.088H2042.47L2041.51 33H2039.39ZM2042.98 28.408H2045.94L2044.93 25.368L2044.48 23.608H2044.45C2044.28 24.3547 2044.13 24.9413 2044 25.368L2042.98 28.408ZM2051.05 33V21.64H2055.43C2056.5 21.64 2057.37 21.9813 2058.04 22.664C2058.71 23.3467 2059.05 24.2373 2059.05 25.336C2059.05 26.4347 2058.71 27.336 2058.04 28.04C2057.37 28.7333 2056.5 29.08 2055.43 29.08H2053.11V33H2051.05ZM2053.11 27.288H2055.05C2055.65 27.288 2056.11 27.112 2056.44 26.76C2056.78 26.408 2056.95 25.9333 2056.95 25.336C2056.95 24.7493 2056.78 24.2853 2056.44 23.944C2056.11 23.592 2055.66 23.416 2055.08 23.416H2053.11V27.288ZM2060.41 33L2061.34 21.64H2063.53L2065.77 27.256L2066.33 28.92H2066.36C2066.57 28.2587 2066.75 27.704 2066.92 27.256L2069.16 21.64H2071.36L2072.28 33H2070.22L2069.76 26.648C2069.74 26.424 2069.72 26.168 2069.72 25.88C2069.72 25.5813 2069.73 25.3413 2069.74 25.16V24.888H2069.71C2069.46 25.624 2069.26 26.2107 2069.08 26.648L2067.24 31.048H2065.45L2063.61 26.648L2062.99 24.872H2062.96C2062.99 25.5547 2062.98 26.1467 2062.94 26.648L2062.48 33H2060.41ZM2073.36 33L2077.35 21.64H2079.52L2083.51 33H2081.39L2080.42 30.088H2076.43L2075.47 33H2073.36ZM2076.95 28.408H2079.91L2078.9 25.368L2078.45 23.608H2078.42C2078.25 24.3547 2078.1 24.9413 2077.97 25.368L2076.95 28.408ZM2085.02 33V21.64H2087.08V31.224H2091.99V21.64H2094.06V31.224H2095.4V35.24H2093.56V33H2085.02ZM2097.36 33V21.64H2104.16V23.416H2099.42V26.392H2103.25V28.168H2099.42V31.224H2104.42V33H2097.36ZM2106.47 33V21.64H2110.52C2111.57 21.64 2112.42 21.9013 2113.06 22.424C2113.71 22.936 2114.04 23.6507 2114.04 24.568C2114.04 25.1013 2113.92 25.5813 2113.67 26.008C2113.42 26.4347 2113.09 26.7653 2112.66 27V27.032C2113.26 27.2027 2113.71 27.5387 2114.02 28.04C2114.34 28.5413 2114.5 29.096 2114.5 29.704C2114.5 30.7813 2114.13 31.6027 2113.38 32.168C2112.64 32.7227 2111.7 33 2110.58 33H2106.47ZM2108.53 26.28H2110.53C2110.97 26.28 2111.31 26.1467 2111.56 25.88C2111.81 25.6027 2111.94 25.2507 2111.94 24.824C2111.94 24.408 2111.81 24.072 2111.56 23.816C2111.31 23.5493 2110.96 23.416 2110.5 23.416H2108.53V26.28ZM2108.53 31.224H2110.74C2111.25 31.224 2111.65 31.0747 2111.94 30.776C2112.24 30.4667 2112.39 30.0667 2112.39 29.576C2112.39 29.096 2112.24 28.7067 2111.94 28.408C2111.65 28.0987 2111.25 27.944 2110.74 27.944H2108.53V31.224ZM2118.87 33V23.416H2115.15V21.64H2124.65V23.416H2120.92V33H2118.87ZM2126.27 33V21.64H2128.33V28.2L2128.22 29.96H2128.25C2128.61 29.224 2128.93 28.632 2129.21 28.184L2133.5 21.64H2135.55V33H2133.5V26.456L2133.61 24.696H2133.58C2133.23 25.4213 2132.91 26.008 2132.63 26.456L2128.31 33H2126.27ZM2141.15 28.776C2139.98 28.776 2139.11 28.4827 2138.54 27.896C2137.96 27.2987 2137.67 26.456 2137.67 25.368V21.64H2139.77V24.904C2139.77 26.2373 2140.4 26.904 2141.67 26.904C2142.54 26.904 2143.32 26.68 2144.01 26.232V21.64H2146.11V33H2144.01V28.6L2144.04 28.072H2144.01C2143.09 28.5413 2142.14 28.776 2141.15 28.776ZM2148.88 33V21.64H2155.68V23.416H2150.94V26.392H2154.76V28.168H2150.94V31.224H2155.93V33H2148.88ZM2157.13 27.272C2157.13 25.608 2157.68 24.2213 2158.77 23.112C2159.87 22.0027 2161.27 21.448 2162.97 21.448C2164.69 21.448 2166.09 21.9653 2167.16 23L2166.17 24.536C2165.75 24.184 2165.26 23.896 2164.69 23.672C2164.14 23.448 2163.6 23.336 2163.06 23.336C2161.87 23.336 2160.93 23.7093 2160.26 24.456C2159.59 25.2027 2159.25 26.1307 2159.25 27.24C2159.25 28.36 2159.6 29.32 2160.28 30.12C2160.96 30.9093 2161.89 31.304 2163.08 31.304C2164.29 31.304 2165.39 30.824 2166.37 29.864L2167.46 31.352C2166.26 32.5787 2164.77 33.192 2163 33.192C2161.24 33.192 2159.82 32.632 2158.74 31.512C2157.66 30.392 2157.13 28.9787 2157.13 27.272ZM2169.24 33V21.64H2171.3V26.264H2172.77L2175.44 21.64H2177.68L2174.47 27.048V27.08L2177.88 33H2175.54L2172.77 28.04H2171.3V33H2169.24ZM2178.47 27.24C2178.47 25.608 2179.03 24.2373 2180.15 23.128C2181.28 22.008 2182.68 21.448 2184.34 21.448C2186.01 21.448 2187.4 22.008 2188.52 23.128C2189.65 24.2373 2190.21 25.608 2190.21 27.24C2190.21 28.9147 2189.65 30.328 2188.52 31.48C2187.4 32.6213 2186.01 33.192 2184.34 33.192C2182.68 33.192 2181.28 32.6213 2180.15 31.48C2179.03 30.328 2178.47 28.9147 2178.47 27.24ZM2180.6 27.24C2180.6 28.392 2180.96 29.3573 2181.69 30.136C2182.41 30.9147 2183.3 31.304 2184.34 31.304C2185.39 31.304 2186.27 30.9147 2187 30.136C2187.72 29.3573 2188.09 28.392 2188.09 27.24C2188.09 26.1413 2187.72 25.2187 2187 24.472C2186.27 23.7147 2185.39 23.336 2184.34 23.336C2183.3 23.336 2182.41 23.7147 2181.69 24.472C2180.96 25.2187 2180.6 26.1413 2180.6 27.24ZM2192.3 33V21.64H2199.1V23.416H2194.36V26.392H2198.19V28.168H2194.36V31.224H2199.35V33H2192.3ZM2205.41 33V21.64H2207.47V26.264H2208.94L2211.62 21.64H2213.86L2210.64 27.048V27.08L2214.05 33H2211.71L2208.94 28.04H2207.47V33H2205.41ZM2214.64 27.24C2214.64 25.608 2215.2 24.2373 2216.32 23.128C2217.45 22.008 2218.85 21.448 2220.51 21.448C2222.18 21.448 2223.57 22.008 2224.69 23.128C2225.82 24.2373 2226.39 25.608 2226.39 27.24C2226.39 28.9147 2225.82 30.328 2224.69 31.48C2223.57 32.6213 2222.18 33.192 2220.51 33.192C2218.85 33.192 2217.45 32.6213 2216.32 31.48C2215.2 30.328 2214.64 28.9147 2214.64 27.24ZM2216.77 27.24C2216.77 28.392 2217.13 29.3573 2217.86 30.136C2218.58 30.9147 2219.47 31.304 2220.51 31.304C2221.56 31.304 2222.44 30.9147 2223.17 30.136C2223.89 29.3573 2224.26 28.392 2224.26 27.24C2224.26 26.1413 2223.89 25.2187 2223.17 24.472C2222.44 23.7147 2221.56 23.336 2220.51 23.336C2219.47 23.336 2218.58 23.7147 2217.86 24.472C2217.13 25.2187 2216.77 26.1413 2216.77 27.24ZM2228.47 33V21.64H2230.53V26.456H2235.73V21.64H2237.78V33H2235.73V28.232H2230.53V33H2228.47ZM2239.88 27.272C2239.88 25.608 2240.43 24.2213 2241.52 23.112C2242.62 22.0027 2244.02 21.448 2245.72 21.448C2247.44 21.448 2248.84 21.9653 2249.91 23L2248.92 24.536C2248.5 24.184 2248.01 23.896 2247.44 23.672C2246.89 23.448 2246.35 23.336 2245.81 23.336C2244.62 23.336 2243.68 23.7093 2243.01 24.456C2242.34 25.2027 2242 26.1307 2242 27.24C2242 28.36 2242.35 29.32 2243.03 30.12C2243.71 30.9093 2244.64 31.304 2245.83 31.304C2247.04 31.304 2248.14 30.824 2249.12 29.864L2250.21 31.352C2249.01 32.5787 2247.52 33.192 2245.75 33.192C2243.99 33.192 2242.57 32.632 2241.49 31.512C2240.41 30.392 2239.88 28.9787 2239.88 27.272ZM2251.68 32.408L2252.59 30.856C2253.07 31.2293 2253.5 31.416 2253.87 31.416C2254.37 31.416 2254.75 31.0853 2255.01 30.424L2250.56 21.64H2252.83L2255.25 26.712L2255.89 28.216H2255.92C2256.06 27.7147 2256.21 27.2187 2256.39 26.728L2258.21 21.64H2260.37L2256.87 30.616C2256.73 30.968 2256.58 31.2773 2256.43 31.544C2256.28 31.8107 2256.09 32.0773 2255.86 32.344C2255.62 32.6107 2255.35 32.8187 2255.03 32.968C2254.71 33.1173 2254.35 33.192 2253.95 33.192C2253.19 33.192 2252.43 32.9307 2251.68 32.408ZM2259.94 31.24C2260.8 31.1227 2261.41 30.5573 2261.8 29.544C2262.19 28.52 2262.39 26.92 2262.39 24.744V21.64H2269.41V33H2267.35V23.416H2264.36V24.776C2264.36 27.5707 2264.01 29.6507 2263.32 31.016C2262.63 32.3707 2261.5 33.0747 2259.94 33.128V31.24ZM2272.17 33V21.64H2274.24V25.624H2276.46C2277.51 25.624 2278.36 25.9653 2279.02 26.648C2279.68 27.32 2280.01 28.216 2280.01 29.336C2280.01 30.424 2279.69 31.3093 2279.04 31.992C2278.39 32.664 2277.54 33 2276.49 33H2272.17ZM2274.24 31.224H2276.12C2276.69 31.224 2277.13 31.0587 2277.44 30.728C2277.76 30.3867 2277.92 29.9227 2277.92 29.336C2277.92 28.7493 2277.75 28.28 2277.42 27.928C2277.1 27.576 2276.66 27.4 2276.09 27.4H2274.24V31.224ZM2283.33 33V23.416H2279.6V21.64H2289.1V23.416H2285.38V33H2283.33ZM2290.72 33V21.64H2292.78V28.2L2292.67 29.96H2292.7C2293.07 29.224 2293.39 28.632 2293.66 28.184L2297.95 21.64H2300V33H2297.95V26.456L2298.06 24.696H2298.03C2297.68 25.4213 2297.37 26.008 2297.09 26.456L2292.77 33H2290.72ZM2302.77 33V21.64H2307.15C2308.22 21.64 2309.09 21.9813 2309.76 22.664C2310.43 23.3467 2310.77 24.2373 2310.77 25.336C2310.77 26.4347 2310.43 27.336 2309.76 28.04C2309.09 28.7333 2308.22 29.08 2307.15 29.08H2304.83V33H2302.77ZM2304.83 27.288H2306.77C2307.36 27.288 2307.83 27.112 2308.16 26.76C2308.5 26.408 2308.67 25.9333 2308.67 25.336C2308.67 24.7493 2308.5 24.2853 2308.16 23.944C2307.83 23.592 2307.37 23.416 2306.8 23.416H2304.83V27.288ZM2311.89 27.24C2311.89 25.608 2312.45 24.2373 2313.57 23.128C2314.7 22.008 2316.1 21.448 2317.76 21.448C2319.43 21.448 2320.82 22.008 2321.94 23.128C2323.07 24.2373 2323.64 25.608 2323.64 27.24C2323.64 28.9147 2323.07 30.328 2321.94 31.48C2320.82 32.6213 2319.43 33.192 2317.76 33.192C2316.1 33.192 2314.7 32.6213 2313.57 31.48C2312.45 30.328 2311.89 28.9147 2311.89 27.24ZM2314.02 27.24C2314.02 28.392 2314.38 29.3573 2315.11 30.136C2315.83 30.9147 2316.72 31.304 2317.76 31.304C2318.81 31.304 2319.69 30.9147 2320.42 30.136C2321.14 29.3573 2321.51 28.392 2321.51 27.24C2321.51 26.1413 2321.14 25.2187 2320.42 24.472C2319.69 23.7147 2318.81 23.336 2317.76 23.336C2316.72 23.336 2315.83 23.7147 2315.11 24.472C2314.38 25.2187 2314.02 26.1413 2314.02 27.24ZM2325.72 33V21.64H2329.77C2330.82 21.64 2331.67 21.9013 2332.31 22.424C2332.96 22.936 2333.29 23.6507 2333.29 24.568C2333.29 25.1013 2333.17 25.5813 2332.92 26.008C2332.67 26.4347 2332.34 26.7653 2331.91 27V27.032C2332.51 27.2027 2332.96 27.5387 2333.27 28.04C2333.59 28.5413 2333.75 29.096 2333.75 29.704C2333.75 30.7813 2333.38 31.6027 2332.63 32.168C2331.89 32.7227 2330.95 33 2329.83 33H2325.72ZM2327.78 26.28H2329.78C2330.22 26.28 2330.56 26.1467 2330.81 25.88C2331.06 25.6027 2331.19 25.2507 2331.19 24.824C2331.19 24.408 2331.06 24.072 2330.81 23.816C2330.56 23.5493 2330.21 23.416 2329.75 23.416H2327.78V26.28ZM2327.78 31.224H2329.99C2330.5 31.224 2330.9 31.0747 2331.19 30.776C2331.49 30.4667 2331.64 30.0667 2331.64 29.576C2331.64 29.096 2331.49 28.7067 2331.19 28.408C2330.9 28.0987 2330.5 27.944 2329.99 27.944H2327.78V31.224ZM2334.47 33L2338.46 21.64H2340.63L2344.62 33H2342.5L2341.53 30.088H2337.54L2336.58 33H2334.47ZM2338.06 28.408H2341.02L2340.01 25.368L2339.56 23.608H2339.53C2339.36 24.3547 2339.21 24.9413 2339.08 25.368L2338.06 28.408ZM2346.13 33V21.64H2348.19V26.456H2353.39V21.64H2355.44V33H2353.39V28.232H2348.19V33H2346.13ZM2358.19 33V21.64H2360.25V28.2L2360.14 29.96H2360.17C2360.54 29.224 2360.86 28.632 2361.13 28.184L2365.42 21.64H2367.47V33H2365.42V26.456L2365.53 24.696H2365.5C2365.15 25.4213 2364.83 26.008 2364.56 26.456L2360.24 33H2358.19ZM2370.24 33V21.64H2377.04V23.416H2372.3V26.392H2376.12V28.168H2372.3V31.224H2377.29V33H2370.24Z" fill="#005DFF"/>
</svg>
