<svg width="2842" height="55" viewBox="0 0 2842 55" fill="none" xmlns="http://www.w3.org/2000/svg">
<rect width="422" height="55" rx="27.5" fill="#F3F6FF"/>
<path d="M24.8874 26.952C24.8874 25.5653 25.3674 24.4347 26.3274 23.56C27.298 22.6853 28.5514 22.248 30.0874 22.248V21H32.1514V22.248C33.6874 22.248 34.9354 22.6853 35.8954 23.56C36.866 24.4347 37.3514 25.5653 37.3514 26.952C37.3514 28.3707 36.8714 29.528 35.9114 30.424C34.9514 31.3093 33.698 31.752 32.1514 31.752V33.192H30.0874V31.752C28.5514 31.752 27.298 31.304 26.3274 30.408C25.3674 29.512 24.8874 28.36 24.8874 26.952ZM32.1514 30.024C33.0687 30.024 33.8154 29.7413 34.3914 29.176C34.9674 28.6 35.2554 27.8587 35.2554 26.952C35.2554 26.0667 34.9674 25.352 34.3914 24.808C33.8154 24.2533 33.0687 23.976 32.1514 23.976V30.024ZM26.9994 26.952C26.9994 27.8587 27.282 28.6 27.8474 29.176C28.4234 29.7413 29.17 30.024 30.0874 30.024V23.976C29.17 23.976 28.4234 24.2533 27.8474 24.808C27.282 25.352 26.9994 26.0667 26.9994 26.952ZM38.579 27.24C38.579 25.608 39.139 24.2373 40.259 23.128C41.3897 22.008 42.787 21.448 44.451 21.448C46.115 21.448 47.507 22.008 48.627 23.128C49.7577 24.2373 50.323 25.608 50.323 27.24C50.323 28.9147 49.7577 30.328 48.627 31.48C47.507 32.6213 46.115 33.192 44.451 33.192C42.787 33.192 41.3897 32.6213 40.259 31.48C39.139 30.328 38.579 28.9147 38.579 27.24ZM40.707 27.24C40.707 28.392 41.0697 29.3573 41.795 30.136C42.5203 30.9147 43.4057 31.304 44.451 31.304C45.4963 31.304 46.3817 30.9147 47.107 30.136C47.8323 29.3573 48.195 28.392 48.195 27.24C48.195 26.1413 47.8323 25.2187 47.107 24.472C46.3817 23.7147 45.4963 23.336 44.451 23.336C43.4057 23.336 42.5203 23.7147 41.795 24.472C41.0697 25.2187 40.707 26.1413 40.707 27.24ZM52.4073 33V21.64H56.7913C57.8579 21.64 58.7273 21.9813 59.3993 22.664C60.0713 23.3467 60.4073 24.2373 60.4073 25.336C60.4073 26.4347 60.0713 27.336 59.3993 28.04C58.7273 28.7333 57.8579 29.08 56.7913 29.08H54.4713V33H52.4073ZM54.4713 27.288H56.4073C57.0046 27.288 57.4686 27.112 57.7993 26.76C58.1406 26.408 58.3113 25.9333 58.3113 25.336C58.3113 24.7493 58.1406 24.2853 57.7993 23.944C57.4686 23.592 57.0153 23.416 56.4393 23.416H54.4713V27.288ZM61.7721 33L62.7001 21.64H64.8921L67.1321 27.256L67.6921 28.92H67.7241C67.9268 28.2587 68.1135 27.704 68.2841 27.256L70.5241 21.64H72.7161L73.6441 33H71.5801L71.1161 26.648C71.0948 26.424 71.0841 26.168 71.0841 25.88C71.0841 25.5813 71.0895 25.3413 71.1001 25.16V24.888H71.0681C70.8228 25.624 70.6148 26.2107 70.4441 26.648L68.6041 31.048H66.8121L64.9721 26.648L64.3481 24.872H64.3161C64.3481 25.5547 64.3428 26.1467 64.3001 26.648L63.8361 33H61.7721ZM75.9698 33V21.64H78.0338V28.2L77.9218 29.96H77.9538C78.3164 29.224 78.6364 28.632 78.9138 28.184L83.2018 21.64H85.2498V33H83.2018V26.456L83.3138 24.696H83.2818C82.9298 25.4213 82.6151 26.008 82.3378 26.456L78.0178 33H75.9698ZM88.0166 33V21.64H92.4006C93.4673 21.64 94.3366 21.9813 95.0086 22.664C95.6806 23.3467 96.0166 24.2373 96.0166 25.336C96.0166 26.4347 95.6806 27.336 95.0086 28.04C94.3366 28.7333 93.4673 29.08 92.4006 29.08H90.0806V33H88.0166ZM90.0806 27.288H92.0166C92.614 27.288 93.078 27.112 93.4086 26.76C93.75 26.408 93.9206 25.9333 93.9206 25.336C93.9206 24.7493 93.75 24.2853 93.4086 23.944C93.078 23.592 92.6246 23.416 92.0486 23.416H90.0806V27.288ZM97.1415 27.24C97.1415 25.608 97.7015 24.2373 98.8215 23.128C99.9522 22.008 101.35 21.448 103.014 21.448C104.678 21.448 106.07 22.008 107.19 23.128C108.32 24.2373 108.886 25.608 108.886 27.24C108.886 28.9147 108.32 30.328 107.19 31.48C106.07 32.6213 104.678 33.192 103.014 33.192C101.35 33.192 99.9522 32.6213 98.8215 31.48C97.7015 30.328 97.1415 28.9147 97.1415 27.24ZM99.2695 27.24C99.2695 28.392 99.6322 29.3573 100.358 30.136C101.083 30.9147 101.968 31.304 103.014 31.304C104.059 31.304 104.944 30.9147 105.67 30.136C106.395 29.3573 106.758 28.392 106.758 27.24C106.758 26.1413 106.395 25.2187 105.67 24.472C104.944 23.7147 104.059 23.336 103.014 23.336C101.968 23.336 101.083 23.7147 100.358 24.472C99.6322 25.2187 99.2695 26.1413 99.2695 27.24ZM110.97 33V21.64H115.018C116.074 21.64 116.922 21.9013 117.562 22.424C118.212 22.936 118.538 23.6507 118.538 24.568C118.538 25.1013 118.415 25.5813 118.17 26.008C117.924 26.4347 117.588 26.7653 117.162 27V27.032C117.759 27.2027 118.212 27.5387 118.522 28.04C118.842 28.5413 119.002 29.096 119.002 29.704C119.002 30.7813 118.628 31.6027 117.882 32.168C117.135 32.7227 116.202 33 115.082 33H110.97ZM113.034 26.28H115.034C115.471 26.28 115.812 26.1467 116.058 25.88C116.314 25.6027 116.442 25.2507 116.442 24.824C116.442 24.408 116.314 24.072 116.058 23.816C115.812 23.5493 115.46 23.416 115.002 23.416H113.034V26.28ZM113.034 31.224H115.242C115.754 31.224 116.154 31.0747 116.442 30.776C116.74 30.4667 116.89 30.0667 116.89 29.576C116.89 29.096 116.74 28.7067 116.442 28.408C116.154 28.0987 115.754 27.944 115.242 27.944H113.034V31.224ZM119.722 33L123.706 21.64H125.882L129.866 33H127.754L126.778 30.088H122.794L121.834 33H119.722ZM123.306 28.408H126.266L125.258 25.368L124.81 23.608H124.778C124.607 24.3547 124.458 24.9413 124.33 25.368L123.306 28.408ZM131.376 33V21.64H133.44V26.456H138.64V21.64H140.688V33H138.64V28.232H133.44V33H131.376ZM143.439 33V21.64H145.503V28.2L145.391 29.96H145.423C145.785 29.224 146.105 28.632 146.383 28.184L150.671 21.64H152.719V33H150.671V26.456L150.783 24.696H150.751C150.399 25.4213 150.084 26.008 149.807 26.456L145.487 33H143.439ZM155.485 33V21.64H162.285V23.416H157.549V26.392H161.373V28.168H157.549V31.224H162.541V33H155.485ZM167.571 31.576L168.691 30.2C169 30.5307 169.384 30.808 169.843 31.032C170.301 31.256 170.771 31.368 171.251 31.368C171.869 31.368 172.36 31.2133 172.723 30.904C173.085 30.5947 173.267 30.168 173.267 29.624C173.267 29.1333 173.101 28.7493 172.771 28.472C172.451 28.184 172.013 28.04 171.459 28.04H170.067V26.376H171.187C171.699 26.376 172.12 26.2267 172.451 25.928C172.781 25.6293 172.947 25.256 172.947 24.808C172.947 24.3493 172.797 23.976 172.499 23.688C172.2 23.3893 171.768 23.24 171.203 23.24C170.339 23.24 169.517 23.56 168.739 24.2L167.907 22.696C168.909 21.864 170.125 21.448 171.555 21.448C172.525 21.448 173.347 21.7253 174.019 22.28C174.701 22.8347 175.043 23.592 175.043 24.552C175.043 25.672 174.52 26.5147 173.475 27.08V27.112C174.061 27.2933 174.525 27.6133 174.867 28.072C175.208 28.5307 175.379 29.0907 175.379 29.752C175.379 30.7973 175 31.6347 174.243 32.264C173.496 32.8827 172.563 33.192 171.443 33.192C170.717 33.192 170.008 33.0533 169.315 32.776C168.632 32.488 168.051 32.088 167.571 31.576ZM179.392 31.224H183.904V23.416H180.864V24.264C180.864 27.3147 180.373 29.6347 179.392 31.224ZM176.112 31.224H177.264C178.363 29.56 178.912 27.192 178.912 24.12V21.64H185.968V31.224H187.232V35.24H185.392V33H178.016V35.24H176.112V31.224ZM188.36 27.24C188.36 25.608 188.92 24.2373 190.04 23.128C191.171 22.008 192.568 21.448 194.232 21.448C195.896 21.448 197.288 22.008 198.408 23.128C199.539 24.2373 200.104 25.608 200.104 27.24C200.104 28.9147 199.539 30.328 198.408 31.48C197.288 32.6213 195.896 33.192 194.232 33.192C192.568 33.192 191.171 32.6213 190.04 31.48C188.92 30.328 188.36 28.9147 188.36 27.24ZM190.488 27.24C190.488 28.392 190.851 29.3573 191.576 30.136C192.302 30.9147 193.187 31.304 194.232 31.304C195.278 31.304 196.163 30.9147 196.888 30.136C197.614 29.3573 197.976 28.392 197.976 27.24C197.976 26.1413 197.614 25.2187 196.888 24.472C196.163 23.7147 195.278 23.336 194.232 23.336C193.187 23.336 192.302 23.7147 191.576 24.472C190.851 25.2187 190.488 26.1413 190.488 27.24ZM202.189 33V21.64H206.573C207.639 21.64 208.509 21.9813 209.181 22.664C209.853 23.3467 210.189 24.2373 210.189 25.336C210.189 26.4347 209.853 27.336 209.181 28.04C208.509 28.7333 207.639 29.08 206.573 29.08H204.253V33H202.189ZM204.253 27.288H206.189C206.786 27.288 207.25 27.112 207.581 26.76C207.922 26.408 208.093 25.9333 208.093 25.336C208.093 24.7493 207.922 24.2853 207.581 23.944C207.25 23.592 206.797 23.416 206.221 23.416H204.253V27.288ZM211.313 27.24C211.313 25.608 211.873 24.2373 212.993 23.128C214.124 22.008 215.521 21.448 217.185 21.448C218.849 21.448 220.241 22.008 221.361 23.128C222.492 24.2373 223.057 25.608 223.057 27.24C223.057 28.9147 222.492 30.328 221.361 31.48C220.241 32.6213 218.849 33.192 217.185 33.192C215.521 33.192 214.124 32.6213 212.993 31.48C211.873 30.328 211.313 28.9147 211.313 27.24ZM213.441 27.24C213.441 28.392 213.804 29.3573 214.529 30.136C215.255 30.9147 216.14 31.304 217.185 31.304C218.231 31.304 219.116 30.9147 219.841 30.136C220.567 29.3573 220.929 28.392 220.929 27.24C220.929 26.1413 220.567 25.2187 219.841 24.472C219.116 23.7147 218.231 23.336 217.185 23.336C216.14 23.336 215.255 23.7147 214.529 24.472C213.804 25.2187 213.441 26.1413 213.441 27.24ZM225.142 33V21.64H229.19C230.246 21.64 231.094 21.9013 231.734 22.424C232.384 22.936 232.71 23.6507 232.71 24.568C232.71 25.1013 232.587 25.5813 232.342 26.008C232.096 26.4347 231.76 26.7653 231.334 27V27.032C231.931 27.2027 232.384 27.5387 232.694 28.04C233.014 28.5413 233.174 29.096 233.174 29.704C233.174 30.7813 232.8 31.6027 232.054 32.168C231.307 32.7227 230.374 33 229.254 33H225.142ZM227.206 26.28H229.206C229.643 26.28 229.984 26.1467 230.23 25.88C230.486 25.6027 230.614 25.2507 230.614 24.824C230.614 24.408 230.486 24.072 230.23 23.816C229.984 23.5493 229.632 23.416 229.174 23.416H227.206V26.28ZM227.206 31.224H229.414C229.926 31.224 230.326 31.0747 230.614 30.776C230.912 30.4667 231.062 30.0667 231.062 29.576C231.062 29.096 230.912 28.7067 230.614 28.408C230.326 28.0987 229.926 27.944 229.414 27.944H227.206V31.224ZM234.595 27.24C234.595 25.608 235.155 24.2373 236.275 23.128C237.405 22.008 238.803 21.448 240.467 21.448C242.131 21.448 243.523 22.008 244.643 23.128C245.773 24.2373 246.339 25.608 246.339 27.24C246.339 28.9147 245.773 30.328 244.643 31.48C243.523 32.6213 242.131 33.192 240.467 33.192C238.803 33.192 237.405 32.6213 236.275 31.48C235.155 30.328 234.595 28.9147 234.595 27.24ZM236.723 27.24C236.723 28.392 237.085 29.3573 237.811 30.136C238.536 30.9147 239.421 31.304 240.467 31.304C241.512 31.304 242.397 30.9147 243.123 30.136C243.848 29.3573 244.211 28.392 244.211 27.24C244.211 26.1413 243.848 25.2187 243.123 24.472C242.397 23.7147 241.512 23.336 240.467 23.336C239.421 23.336 238.536 23.7147 237.811 24.472C237.085 25.2187 236.723 26.1413 236.723 27.24ZM248.423 33V21.64H254.951V23.416H250.487V33H248.423ZM255.438 27.24C255.438 25.608 255.998 24.2373 257.118 23.128C258.249 22.008 259.646 21.448 261.31 21.448C262.974 21.448 264.366 22.008 265.486 23.128C266.617 24.2373 267.182 25.608 267.182 27.24C267.182 28.9147 266.617 30.328 265.486 31.48C264.366 32.6213 262.974 33.192 261.31 33.192C259.646 33.192 258.249 32.6213 257.118 31.48C255.998 30.328 255.438 28.9147 255.438 27.24ZM257.566 27.24C257.566 28.392 257.929 29.3573 258.654 30.136C259.38 30.9147 260.265 31.304 261.31 31.304C262.356 31.304 263.241 30.9147 263.966 30.136C264.692 29.3573 265.054 28.392 265.054 27.24C265.054 26.1413 264.692 25.2187 263.966 24.472C263.241 23.7147 262.356 23.336 261.31 23.336C260.265 23.336 259.38 23.7147 258.654 24.472C257.929 25.2187 257.566 26.1413 257.566 27.24ZM272.595 27.24C272.595 25.608 273.155 24.2373 274.275 23.128C275.405 22.008 276.803 21.448 278.467 21.448C280.131 21.448 281.523 22.008 282.643 23.128C283.773 24.2373 284.339 25.608 284.339 27.24C284.339 28.9147 283.773 30.328 282.643 31.48C281.523 32.6213 280.131 33.192 278.467 33.192C276.803 33.192 275.405 32.6213 274.275 31.48C273.155 30.328 272.595 28.9147 272.595 27.24ZM274.723 27.24C274.723 28.392 275.085 29.3573 275.811 30.136C276.536 30.9147 277.421 31.304 278.467 31.304C279.512 31.304 280.397 30.9147 281.123 30.136C281.848 29.3573 282.211 28.392 282.211 27.24C282.211 26.1413 281.848 25.2187 281.123 24.472C280.397 23.7147 279.512 23.336 278.467 23.336C277.421 23.336 276.536 23.7147 275.811 24.472C275.085 25.2187 274.723 26.1413 274.723 27.24ZM286.423 33V21.64H293.399V23.416H288.487V26.04H290.759C291.815 26.04 292.668 26.36 293.319 27C293.98 27.6293 294.311 28.4773 294.311 29.544C294.311 30.568 293.986 31.4 293.335 32.04C292.684 32.68 291.842 33 290.807 33H286.423ZM288.487 31.224H290.439C291.004 31.224 291.442 31.0747 291.751 30.776C292.06 30.4773 292.215 30.0667 292.215 29.544C292.215 29.0213 292.055 28.6053 291.735 28.296C291.415 27.976 290.972 27.816 290.407 27.816H288.487V31.224ZM296.282 33V21.64H300.666C301.733 21.64 302.602 21.9813 303.274 22.664C303.946 23.3467 304.282 24.2373 304.282 25.336C304.282 26.4347 303.946 27.336 303.274 28.04C302.602 28.7333 301.733 29.08 300.666 29.08H298.346V33H296.282ZM298.346 27.288H300.282C300.88 27.288 301.344 27.112 301.674 26.76C302.016 26.408 302.186 25.9333 302.186 25.336C302.186 24.7493 302.016 24.2853 301.674 23.944C301.344 23.592 300.89 23.416 300.314 23.416H298.346V27.288ZM304.253 33L308.237 21.64H310.413L314.397 33H312.285L311.309 30.088H307.325L306.365 33H304.253ZM307.837 28.408H310.797L309.789 25.368L309.341 23.608H309.309C309.138 24.3547 308.989 24.9413 308.861 25.368L307.837 28.408ZM314.883 31.576L316.003 30.2C316.313 30.5307 316.697 30.808 317.155 31.032C317.614 31.256 318.083 31.368 318.563 31.368C319.182 31.368 319.673 31.2133 320.035 30.904C320.398 30.5947 320.579 30.168 320.579 29.624C320.579 29.1333 320.414 28.7493 320.083 28.472C319.763 28.184 319.326 28.04 318.771 28.04H317.379V26.376H318.499C319.011 26.376 319.433 26.2267 319.763 25.928C320.094 25.6293 320.259 25.256 320.259 24.808C320.259 24.3493 320.11 23.976 319.811 23.688C319.513 23.3893 319.081 23.24 318.515 23.24C317.651 23.24 316.83 23.56 316.051 24.2L315.219 22.696C316.222 21.864 317.438 21.448 318.867 21.448C319.838 21.448 320.659 21.7253 321.331 22.28C322.014 22.8347 322.355 23.592 322.355 24.552C322.355 25.672 321.833 26.5147 320.787 27.08V27.112C321.374 27.2933 321.838 27.6133 322.179 28.072C322.521 28.5307 322.691 29.0907 322.691 29.752C322.691 30.7973 322.313 31.6347 321.555 32.264C320.809 32.8827 319.875 33.192 318.755 33.192C318.03 33.192 317.321 33.0533 316.627 32.776C315.945 32.488 315.363 32.088 314.883 31.576ZM323.425 33L327.409 21.64H329.585L333.569 33H331.457L330.481 30.088H326.497L325.537 33H323.425ZM327.009 28.408H329.969L328.961 25.368L328.513 23.608H328.481C328.31 24.3547 328.161 24.9413 328.033 25.368L327.009 28.408ZM337.911 33L341.111 27.08V27.048L338.151 21.64H340.375L342.807 26.264H344.135V21.64H346.183V26.264H347.511L349.943 21.64H352.167L349.191 27.048V27.08L352.407 33H350.087L347.511 28.04H346.183V33H344.135V28.04H342.807L340.231 33H337.911ZM353.985 33V21.64H356.049V28.2L355.937 29.96H355.969C356.332 29.224 356.652 28.632 356.929 28.184L361.217 21.64H363.265V33H361.217V26.456L361.329 24.696H361.297C360.945 25.4213 360.631 26.008 360.353 26.456L356.033 33H353.985ZM365.008 31.576L366.128 30.2C366.438 30.5307 366.822 30.808 367.28 31.032C367.739 31.256 368.208 31.368 368.688 31.368C369.307 31.368 369.798 31.2133 370.16 30.904C370.523 30.5947 370.704 30.168 370.704 29.624C370.704 29.1333 370.539 28.7493 370.208 28.472C369.888 28.184 369.451 28.04 368.896 28.04H367.504V26.376H368.624C369.136 26.376 369.558 26.2267 369.888 25.928C370.219 25.6293 370.384 25.256 370.384 24.808C370.384 24.3493 370.235 23.976 369.936 23.688C369.638 23.3893 369.206 23.24 368.64 23.24C367.776 23.24 366.955 23.56 366.176 24.2L365.344 22.696C366.347 21.864 367.563 21.448 368.992 21.448C369.963 21.448 370.784 21.7253 371.456 22.28C372.139 22.8347 372.48 23.592 372.48 24.552C372.48 25.672 371.958 26.5147 370.912 27.08V27.112C371.499 27.2933 371.963 27.6133 372.304 28.072C372.646 28.5307 372.816 29.0907 372.816 29.752C372.816 30.7973 372.438 31.6347 371.68 32.264C370.934 32.8827 370 33.192 368.88 33.192C368.155 33.192 367.446 33.0533 366.752 32.776C366.07 32.488 365.488 32.088 365.008 31.576ZM374.907 33V21.64H376.971V26.456H382.171V21.64H384.219V33H382.171V28.232H376.971V33H374.907ZM386.97 33V21.64H389.034V28.2L388.922 29.96H388.954C389.316 29.224 389.636 28.632 389.914 28.184L394.202 21.64H396.25V33H394.202V26.456L394.314 24.696H394.282C393.93 25.4213 393.615 26.008 393.338 26.456L389.018 33H386.97Z" fill="#252525"/>
<rect x="432" width="395" height="55" rx="27.5" fill="#F3F6FF"/>
<path d="M457.548 33V21.64H461.596C462.652 21.64 463.5 21.9013 464.14 22.424C464.791 22.936 465.116 23.6507 465.116 24.568C465.116 25.1013 464.993 25.5813 464.748 26.008C464.503 26.4347 464.167 26.7653 463.74 27V27.032C464.337 27.2027 464.791 27.5387 465.1 28.04C465.42 28.5413 465.58 29.096 465.58 29.704C465.58 30.7813 465.207 31.6027 464.46 32.168C463.713 32.7227 462.78 33 461.66 33H457.548ZM459.612 26.28H461.612C462.049 26.28 462.391 26.1467 462.636 25.88C462.892 25.6027 463.02 25.2507 463.02 24.824C463.02 24.408 462.892 24.072 462.636 23.816C462.391 23.5493 462.039 23.416 461.58 23.416H459.612V26.28ZM459.612 31.224H461.82C462.332 31.224 462.732 31.0747 463.02 30.776C463.319 30.4667 463.468 30.0667 463.468 29.576C463.468 29.096 463.319 28.7067 463.02 28.408C462.732 28.0987 462.332 27.944 461.82 27.944H459.612V31.224ZM467.673 33V21.64H474.473V23.416H469.737V26.392H473.561V28.168H469.737V31.224H474.729V33H467.673ZM478.798 31.224H483.31V23.416H480.27V24.264C480.27 27.3147 479.78 29.6347 478.798 31.224ZM475.518 31.224H476.67C477.769 29.56 478.318 27.192 478.318 24.12V21.64H485.374V31.224H486.638V35.24H484.798V33H477.422V35.24H475.518V31.224ZM488.626 33V21.64H495.426V23.416H490.69V26.392H494.514V28.168H490.69V31.224H495.682V33H488.626ZM497.735 33V21.64H499.799V26.456H504.999V21.64H507.047V33H504.999V28.232H499.799V33H497.735ZM509.798 33V21.64H511.862V28.2L511.75 29.96H511.782C512.145 29.224 512.465 28.632 512.742 28.184L517.03 21.64H519.078V33H517.03V26.456L517.142 24.696H517.11C516.758 25.4213 516.443 26.008 516.166 26.456L511.846 33H509.798ZM521.845 33V21.64H528.645V23.416H523.909V26.392H527.733V28.168H523.909V31.224H528.901V33H521.845ZM534.522 33L535.45 21.64H537.642L539.882 27.256L540.442 28.92H540.474C540.677 28.2587 540.863 27.704 541.034 27.256L543.274 21.64H545.466L546.394 33H544.33L543.866 26.648C543.845 26.424 543.834 26.168 543.834 25.88C543.834 25.5813 543.839 25.3413 543.85 25.16V24.888H543.818C543.573 25.624 543.365 26.2107 543.194 26.648L541.354 31.048H539.562L537.722 26.648L537.098 24.872H537.066C537.098 25.5547 537.093 26.1467 537.05 26.648L536.586 33H534.522ZM548.72 33V21.64H555.52V23.416H550.784V26.392H554.608V28.168H550.784V31.224H555.776V33H548.72ZM559.845 31.224H564.357V23.416H561.317V24.264C561.317 27.3147 560.826 29.6347 559.845 31.224ZM556.565 31.224H557.717C558.816 29.56 559.365 27.192 559.365 24.12V21.64H566.421V31.224H567.685V35.24H565.845V33H558.469V35.24H556.565V31.224ZM569.673 33V21.64H571.737V28.2L571.625 29.96H571.657C572.02 29.224 572.34 28.632 572.617 28.184L576.905 21.64H578.953V33H576.905V26.456L577.017 24.696H576.985C576.633 25.4213 576.318 26.008 576.041 26.456L571.721 33H569.673ZM581.72 33V21.64H583.784V31.224H588.696V21.64H590.76V31.224H592.104V35.24H590.264V33H581.72ZM594.064 33V21.64H596.128V28.2L596.016 29.96H596.048C596.41 29.224 596.73 28.632 597.008 28.184L601.296 21.64H603.344V33H601.296V26.456L601.408 24.696H601.376C601.024 25.4213 600.709 26.008 600.432 26.456L596.112 33H594.064ZM606.11 33V21.64H608.174V26.456H613.374V21.64H615.422V33H613.374V28.232H608.174V33H606.11ZM617.517 27.272C617.517 25.608 618.066 24.2213 619.165 23.112C620.264 22.0027 621.661 21.448 623.357 21.448C625.085 21.448 626.482 21.9653 627.549 23L626.557 24.536C626.141 24.184 625.65 23.896 625.085 23.672C624.53 23.448 623.986 23.336 623.453 23.336C622.258 23.336 621.325 23.7093 620.653 24.456C619.981 25.2027 619.645 26.1307 619.645 27.24C619.645 28.36 619.986 29.32 620.669 30.12C621.352 30.9093 622.285 31.304 623.469 31.304C624.685 31.304 625.784 30.824 626.765 29.864L627.853 31.352C626.648 32.5787 625.16 33.192 623.389 33.192C621.629 33.192 620.21 32.632 619.133 31.512C618.056 30.392 617.517 28.9787 617.517 27.272ZM629.626 33V21.64H631.69V26.264H633.162L635.834 21.64H638.074L634.858 27.048V27.08L638.266 33H635.93L633.162 28.04H631.69V33H629.626ZM638.86 27.24C638.86 25.608 639.42 24.2373 640.54 23.128C641.671 22.008 643.068 21.448 644.732 21.448C646.396 21.448 647.788 22.008 648.908 23.128C650.039 24.2373 650.604 25.608 650.604 27.24C650.604 28.9147 650.039 30.328 648.908 31.48C647.788 32.6213 646.396 33.192 644.732 33.192C643.068 33.192 641.671 32.6213 640.54 31.48C639.42 30.328 638.86 28.9147 638.86 27.24ZM640.988 27.24C640.988 28.392 641.351 29.3573 642.076 30.136C642.802 30.9147 643.687 31.304 644.732 31.304C645.778 31.304 646.663 30.9147 647.388 30.136C648.114 29.3573 648.476 28.392 648.476 27.24C648.476 26.1413 648.114 25.2187 647.388 24.472C646.663 23.7147 645.778 23.336 644.732 23.336C643.687 23.336 642.802 23.7147 642.076 24.472C641.351 25.2187 640.988 26.1413 640.988 27.24ZM659.281 20.536C658.769 20.9307 658.15 21.128 657.425 21.128C656.699 21.128 656.081 20.9307 655.569 20.536C655.057 20.1307 654.801 19.592 654.801 18.92V18.712H656.353V18.92C656.353 19.24 656.459 19.4907 656.673 19.672C656.886 19.8427 657.137 19.928 657.425 19.928C657.713 19.928 657.963 19.8427 658.177 19.672C658.401 19.4907 658.513 19.2347 658.513 18.904V18.712H660.049V18.92C660.049 19.592 659.793 20.1307 659.281 20.536ZM652.689 33V21.64H654.753V28.2L654.641 29.96H654.673C655.035 29.224 655.355 28.632 655.633 28.184L659.921 21.64H661.969V33H659.921V26.456L660.033 24.696H660.001C659.649 25.4213 659.334 26.008 659.057 26.456L654.737 33H652.689ZM670.751 31.224H675.263V23.416H672.223V24.264C672.223 27.3147 671.733 29.6347 670.751 31.224ZM667.471 31.224H668.623C669.722 29.56 670.271 27.192 670.271 24.12V21.64H677.327V31.224H678.591V35.24H676.751V33H669.375V35.24H667.471V31.224ZM679.72 27.24C679.72 25.608 680.28 24.2373 681.4 23.128C682.53 22.008 683.928 21.448 685.592 21.448C687.256 21.448 688.648 22.008 689.768 23.128C690.898 24.2373 691.464 25.608 691.464 27.24C691.464 28.9147 690.898 30.328 689.768 31.48C688.648 32.6213 687.256 33.192 685.592 33.192C683.928 33.192 682.53 32.6213 681.4 31.48C680.28 30.328 679.72 28.9147 679.72 27.24ZM681.848 27.24C681.848 28.392 682.21 29.3573 682.936 30.136C683.661 30.9147 684.546 31.304 685.592 31.304C686.637 31.304 687.522 30.9147 688.248 30.136C688.973 29.3573 689.336 28.392 689.336 27.24C689.336 26.1413 688.973 25.2187 688.248 24.472C687.522 23.7147 686.637 23.336 685.592 23.336C684.546 23.336 683.661 23.7147 682.936 24.472C682.21 25.2187 681.848 26.1413 681.848 27.24ZM693.548 33V21.64H695.612V26.264H697.084L699.756 21.64H701.996L698.78 27.048V27.08L702.188 33H699.852L697.084 28.04H695.612V33H693.548ZM703.447 32.408L704.359 30.856C704.839 31.2293 705.266 31.416 705.639 31.416C706.14 31.416 706.519 31.0853 706.775 30.424L702.327 21.64H704.599L707.015 26.712L707.655 28.216H707.687C707.826 27.7147 707.98 27.2187 708.151 26.728L709.975 21.64H712.135L708.631 30.616C708.492 30.968 708.348 31.2773 708.199 31.544C708.05 31.8107 707.858 32.0773 707.623 32.344C707.388 32.6107 707.111 32.8187 706.791 32.968C706.471 33.1173 706.114 33.192 705.719 33.192C704.951 33.192 704.194 32.9307 703.447 32.408ZM712.96 33L713.888 21.64H716.08L718.32 27.256L718.88 28.92H718.912C719.114 28.2587 719.301 27.704 719.472 27.256L721.712 21.64H723.904L724.832 33H722.768L722.304 26.648C722.282 26.424 722.272 26.168 722.272 25.88C722.272 25.5813 722.277 25.3413 722.288 25.16V24.888H722.256C722.01 25.624 721.802 26.2107 721.632 26.648L719.792 31.048H718L716.16 26.648L715.536 24.872H715.504C715.536 25.5547 715.53 26.1467 715.488 26.648L715.024 33H712.96ZM727.157 33V21.64H733.957V23.416H729.221V26.392H733.045V28.168H729.221V31.224H734.213V33H727.157ZM736.267 33V21.64H738.331V26.456H743.531V21.64H745.579V33H743.531V28.232H738.331V33H736.267ZM750.905 33V23.416H747.177V21.64H756.681V23.416H752.953V33H750.905ZM756.112 33L760.096 21.64H762.272L766.256 33H764.144L763.168 30.088H759.184L758.224 33H756.112ZM759.696 28.408H762.656L761.648 25.368L761.2 23.608H761.168C760.998 24.3547 760.848 24.9413 760.72 25.368L759.696 28.408ZM767.767 33V21.64H769.831V31.224H774.743V21.64H776.807V31.224H778.151V35.24H776.311V33H767.767ZM780.11 33V21.64H782.174V28.2L782.062 29.96H782.094C782.457 29.224 782.777 28.632 783.054 28.184L787.342 21.64H789.39V33H787.342V26.456L787.454 24.696H787.422C787.07 25.4213 786.756 26.008 786.478 26.456L782.158 33H780.11ZM792.157 33V21.64H794.221V28.2L794.109 29.96H794.141C794.504 29.224 794.824 28.632 795.101 28.184L799.389 21.64H801.437V33H799.389V26.456L799.501 24.696H799.469C799.117 25.4213 798.803 26.008 798.525 26.456L794.205 33H792.157Z" fill="#005DFF"/>
<rect x="837" width="546" height="55" rx="27.5" fill="#F3F6FF"/>
<path d="M862.032 27.24C862.032 25.608 862.592 24.2373 863.712 23.128C864.843 22.008 866.24 21.448 867.904 21.448C869.568 21.448 870.96 22.008 872.08 23.128C873.211 24.2373 873.776 25.608 873.776 27.24C873.776 28.9147 873.211 30.328 872.08 31.48C870.96 32.6213 869.568 33.192 867.904 33.192C866.24 33.192 864.843 32.6213 863.712 31.48C862.592 30.328 862.032 28.9147 862.032 27.24ZM864.16 27.24C864.16 28.392 864.523 29.3573 865.248 30.136C865.973 30.9147 866.859 31.304 867.904 31.304C868.949 31.304 869.835 30.9147 870.56 30.136C871.285 29.3573 871.648 28.392 871.648 27.24C871.648 26.1413 871.285 25.2187 870.56 24.472C869.835 23.7147 868.949 23.336 867.904 23.336C866.859 23.336 865.973 23.7147 865.248 24.472C864.523 25.2187 864.16 26.1413 864.16 27.24ZM875.86 33V21.64H877.924V26.264H879.396L882.068 21.64H884.308L881.092 27.048V27.08L884.5 33H882.164L879.396 28.04H877.924V33H875.86ZM884.816 33L888.799 21.64H890.976L894.96 33H892.848L891.872 30.088H887.888L886.928 33H884.816ZM888.4 28.408H891.36L890.352 25.368L889.904 23.608H889.872C889.701 24.3547 889.552 24.9413 889.424 25.368L888.4 28.408ZM895.446 31.576L896.566 30.2C896.875 30.5307 897.259 30.808 897.718 31.032C898.176 31.256 898.646 31.368 899.126 31.368C899.744 31.368 900.235 31.2133 900.598 30.904C900.96 30.5947 901.142 30.168 901.142 29.624C901.142 29.1333 900.976 28.7493 900.646 28.472C900.326 28.184 899.888 28.04 899.334 28.04H897.942V26.376H899.062C899.574 26.376 899.995 26.2267 900.326 25.928C900.656 25.6293 900.822 25.256 900.822 24.808C900.822 24.3493 900.672 23.976 900.374 23.688C900.075 23.3893 899.643 23.24 899.078 23.24C898.214 23.24 897.392 23.56 896.614 24.2L895.782 22.696C896.784 21.864 898 21.448 899.43 21.448C900.4 21.448 901.222 21.7253 901.894 22.28C902.576 22.8347 902.918 23.592 902.918 24.552C902.918 25.672 902.395 26.5147 901.35 27.08V27.112C901.936 27.2933 902.4 27.6133 902.742 28.072C903.083 28.5307 903.254 29.0907 903.254 29.752C903.254 30.7973 902.875 31.6347 902.118 32.264C901.371 32.8827 900.438 33.192 899.318 33.192C898.592 33.192 897.883 33.0533 897.19 32.776C896.507 32.488 895.926 32.088 895.446 31.576ZM903.987 33L907.971 21.64H910.147L914.131 33H912.019L911.043 30.088H907.059L906.099 33H903.987ZM907.571 28.408H910.531L909.523 25.368L909.075 23.608H909.043C908.873 24.3547 908.723 24.9413 908.595 25.368L907.571 28.408ZM915.642 33V21.64H917.706V26.456H922.906V21.64H924.954V33H922.906V28.232H917.706V33H915.642ZM927.704 33V21.64H929.768V28.2L929.656 29.96H929.688C930.051 29.224 930.371 28.632 930.648 28.184L934.936 21.64H936.984V33H934.936V26.456L935.048 24.696H935.016C934.664 25.4213 934.349 26.008 934.072 26.456L929.752 33H927.704ZM939.751 33V21.64H946.551V23.416H941.815V26.392H945.639V28.168H941.815V31.224H946.807V33H939.751ZM952.428 33L953.356 21.64H955.548L957.788 27.256L958.348 28.92H958.38C958.583 28.2587 958.77 27.704 958.94 27.256L961.18 21.64H963.372L964.3 33H962.236L961.772 26.648C961.751 26.424 961.74 26.168 961.74 25.88C961.74 25.5813 961.746 25.3413 961.756 25.16V24.888H961.724C961.479 25.624 961.271 26.2107 961.1 26.648L959.26 31.048H957.468L955.628 26.648L955.004 24.872H954.972C955.004 25.5547 954.999 26.1467 954.956 26.648L954.492 33H952.428ZM966.626 33V21.64H973.426V23.416H968.69V26.392H972.514V28.168H968.69V31.224H973.682V33H966.626ZM977.751 31.224H982.263V23.416H979.223V24.264C979.223 27.3147 978.733 29.6347 977.751 31.224ZM974.471 31.224H975.623C976.722 29.56 977.271 27.192 977.271 24.12V21.64H984.327V31.224H985.591V35.24H983.751V33H976.375V35.24H974.471V31.224ZM987.579 33V21.64H989.643V28.2L989.531 29.96H989.563C989.926 29.224 990.246 28.632 990.523 28.184L994.811 21.64H996.859V33H994.811V26.456L994.923 24.696H994.891C994.539 25.4213 994.224 26.008 993.947 26.456L989.627 33H987.579ZM999.626 33V21.64H1001.69V31.224H1006.6V21.64H1008.67V31.224H1010.01V35.24H1008.17V33H999.626ZM1011.97 33V21.64H1014.03V28.2L1013.92 29.96H1013.95C1014.32 29.224 1014.64 28.632 1014.91 28.184L1019.2 21.64H1021.25V33H1019.2V26.456L1019.31 24.696H1019.28C1018.93 25.4213 1018.62 26.008 1018.34 26.456L1014.02 33H1011.97ZM1024.02 33V21.64H1026.08V26.456H1031.28V21.64H1033.33V33H1031.28V28.232H1026.08V33H1024.02ZM1035.42 27.272C1035.42 25.608 1035.97 24.2213 1037.07 23.112C1038.17 22.0027 1039.57 21.448 1041.26 21.448C1042.99 21.448 1044.39 21.9653 1045.46 23L1044.46 24.536C1044.05 24.184 1043.56 23.896 1042.99 23.672C1042.44 23.448 1041.89 23.336 1041.36 23.336C1040.16 23.336 1039.23 23.7093 1038.56 24.456C1037.89 25.2027 1037.55 26.1307 1037.55 27.24C1037.55 28.36 1037.89 29.32 1038.58 30.12C1039.26 30.9093 1040.19 31.304 1041.38 31.304C1042.59 31.304 1043.69 30.824 1044.67 29.864L1045.76 31.352C1044.55 32.5787 1043.07 33.192 1041.3 33.192C1039.54 33.192 1038.12 32.632 1037.04 31.512C1035.96 30.392 1035.42 28.9787 1035.42 27.272ZM1047.53 33V21.64H1049.6V26.264H1051.07L1053.74 21.64H1055.98L1052.76 27.048V27.08L1056.17 33H1053.84L1051.07 28.04H1049.6V33H1047.53ZM1056.77 27.24C1056.77 25.608 1057.33 24.2373 1058.45 23.128C1059.58 22.008 1060.97 21.448 1062.64 21.448C1064.3 21.448 1065.69 22.008 1066.81 23.128C1067.95 24.2373 1068.51 25.608 1068.51 27.24C1068.51 28.9147 1067.95 30.328 1066.81 31.48C1065.69 32.6213 1064.3 33.192 1062.64 33.192C1060.97 33.192 1059.58 32.6213 1058.45 31.48C1057.33 30.328 1056.77 28.9147 1056.77 27.24ZM1058.89 27.24C1058.89 28.392 1059.26 29.3573 1059.98 30.136C1060.71 30.9147 1061.59 31.304 1062.64 31.304C1063.68 31.304 1064.57 30.9147 1065.29 30.136C1066.02 29.3573 1066.38 28.392 1066.38 27.24C1066.38 26.1413 1066.02 25.2187 1065.29 24.472C1064.57 23.7147 1063.68 23.336 1062.64 23.336C1061.59 23.336 1060.71 23.7147 1059.98 24.472C1059.26 25.2187 1058.89 26.1413 1058.89 27.24ZM1077.19 20.536C1076.67 20.9307 1076.06 21.128 1075.33 21.128C1074.61 21.128 1073.99 20.9307 1073.47 20.536C1072.96 20.1307 1072.71 19.592 1072.71 18.92V18.712H1074.26V18.92C1074.26 19.24 1074.37 19.4907 1074.58 19.672C1074.79 19.8427 1075.04 19.928 1075.33 19.928C1075.62 19.928 1075.87 19.8427 1076.08 19.672C1076.31 19.4907 1076.42 19.2347 1076.42 18.904V18.712H1077.95V18.92C1077.95 19.592 1077.7 20.1307 1077.19 20.536ZM1070.59 33V21.64H1072.66V28.2L1072.55 29.96H1072.58C1072.94 29.224 1073.26 28.632 1073.54 28.184L1077.83 21.64H1079.87V33H1077.83V26.456L1077.94 24.696H1077.91C1077.55 25.4213 1077.24 26.008 1076.96 26.456L1072.64 33H1070.59ZM1086.64 33V21.64H1095.84V33H1093.78V23.416H1088.71V33H1086.64ZM1097.92 27.24C1097.92 25.608 1098.48 24.2373 1099.6 23.128C1100.73 22.008 1102.13 21.448 1103.79 21.448C1105.46 21.448 1106.85 22.008 1107.97 23.128C1109.1 24.2373 1109.67 25.608 1109.67 27.24C1109.67 28.9147 1109.1 30.328 1107.97 31.48C1106.85 32.6213 1105.46 33.192 1103.79 33.192C1102.13 33.192 1100.73 32.6213 1099.6 31.48C1098.48 30.328 1097.92 28.9147 1097.92 27.24ZM1100.05 27.24C1100.05 28.392 1100.41 29.3573 1101.14 30.136C1101.86 30.9147 1102.75 31.304 1103.79 31.304C1104.84 31.304 1105.73 30.9147 1106.45 30.136C1107.18 29.3573 1107.54 28.392 1107.54 27.24C1107.54 26.1413 1107.18 25.2187 1106.45 24.472C1105.73 23.7147 1104.84 23.336 1103.79 23.336C1102.75 23.336 1101.86 23.7147 1101.14 24.472C1100.41 25.2187 1100.05 26.1413 1100.05 27.24ZM1111.32 33L1112.25 21.64H1114.44L1116.68 27.256L1117.24 28.92H1117.27C1117.47 28.2587 1117.66 27.704 1117.83 27.256L1120.07 21.64H1122.26L1123.19 33H1121.13L1120.66 26.648C1120.64 26.424 1120.63 26.168 1120.63 25.88C1120.63 25.5813 1120.64 25.3413 1120.65 25.16V24.888H1120.62C1120.37 25.624 1120.16 26.2107 1119.99 26.648L1118.15 31.048H1116.36L1114.52 26.648L1113.9 24.872H1113.86C1113.9 25.5547 1113.89 26.1467 1113.85 26.648L1113.38 33H1111.32ZM1124.84 27.24C1124.84 25.608 1125.4 24.2373 1126.52 23.128C1127.66 22.008 1129.05 21.448 1130.72 21.448C1132.38 21.448 1133.77 22.008 1134.89 23.128C1136.02 24.2373 1136.59 25.608 1136.59 27.24C1136.59 28.9147 1136.02 30.328 1134.89 31.48C1133.77 32.6213 1132.38 33.192 1130.72 33.192C1129.05 33.192 1127.66 32.6213 1126.52 31.48C1125.4 30.328 1124.84 28.9147 1124.84 27.24ZM1126.97 27.24C1126.97 28.392 1127.34 29.3573 1128.06 30.136C1128.79 30.9147 1129.67 31.304 1130.72 31.304C1131.76 31.304 1132.65 30.9147 1133.37 30.136C1134.1 29.3573 1134.46 28.392 1134.46 27.24C1134.46 26.1413 1134.1 25.2187 1133.37 24.472C1132.65 23.7147 1131.76 23.336 1130.72 23.336C1129.67 23.336 1128.79 23.7147 1128.06 24.472C1127.34 25.2187 1126.97 26.1413 1126.97 27.24ZM1138.67 33V21.64H1140.74V31.224H1144.4V21.64H1146.46V31.224H1150.13V21.64H1152.18V31.224H1153.58V35.24H1151.73V33H1138.67ZM1155.52 33V21.64H1157.58V28.2L1157.47 29.96H1157.5C1157.86 29.224 1158.18 28.632 1158.46 28.184L1162.75 21.64H1164.8V33H1162.75V26.456L1162.86 24.696H1162.83C1162.48 25.4213 1162.16 26.008 1161.88 26.456L1157.56 33H1155.52ZM1171.56 33V21.64H1175.61C1176.67 21.64 1177.52 21.9013 1178.16 22.424C1178.81 22.936 1179.13 23.6507 1179.13 24.568C1179.13 25.1013 1179.01 25.5813 1178.76 26.008C1178.52 26.4347 1178.18 26.7653 1177.76 27V27.032C1178.35 27.2027 1178.81 27.5387 1179.12 28.04C1179.44 28.5413 1179.6 29.096 1179.6 29.704C1179.6 30.7813 1179.22 31.6027 1178.48 32.168C1177.73 32.7227 1176.8 33 1175.68 33H1171.56ZM1173.63 26.28H1175.63C1176.06 26.28 1176.41 26.1467 1176.65 25.88C1176.91 25.6027 1177.04 25.2507 1177.04 24.824C1177.04 24.408 1176.91 24.072 1176.65 23.816C1176.41 23.5493 1176.05 23.416 1175.6 23.416H1173.63V26.28ZM1173.63 31.224H1175.84C1176.35 31.224 1176.75 31.0747 1177.04 30.776C1177.33 30.4667 1177.48 30.0667 1177.48 29.576C1177.48 29.096 1177.33 28.7067 1177.04 28.408C1176.75 28.0987 1176.35 27.944 1175.84 27.944H1173.63V31.224ZM1184.76 31.448L1185.8 29.992C1186.22 30.3867 1186.72 30.7067 1187.32 30.952C1187.92 31.1973 1188.54 31.32 1189.18 31.32C1190.18 31.32 1191.01 31.0213 1191.67 30.424C1192.33 29.8267 1192.73 29.0693 1192.87 28.152H1187.43V26.472H1192.89C1192.77 25.5547 1192.38 24.8027 1191.7 24.216C1191.03 23.6187 1190.2 23.32 1189.19 23.32C1188.02 23.32 1186.94 23.7467 1185.96 24.6L1184.97 23.048C1185.48 22.5253 1186.12 22.1307 1186.87 21.864C1187.63 21.5867 1188.42 21.448 1189.26 21.448C1191 21.448 1192.4 22.0027 1193.46 23.112C1194.53 24.2213 1195.06 25.6027 1195.06 27.256C1195.06 28.952 1194.51 30.3653 1193.4 31.496C1192.29 32.6267 1190.88 33.192 1189.18 33.192C1187.45 33.192 1185.98 32.6107 1184.76 31.448ZM1197.14 33V21.64H1199.21V26.264H1200.68L1203.35 21.64H1205.59L1202.37 27.048V27.08L1205.78 33H1203.45L1200.68 28.04H1199.21V33H1197.14ZM1206.39 27.272C1206.39 25.608 1206.94 24.2213 1208.04 23.112C1209.14 22.0027 1210.54 21.448 1212.23 21.448C1213.96 21.448 1215.36 21.9653 1216.42 23L1215.43 24.536C1215.02 24.184 1214.53 23.896 1213.96 23.672C1213.41 23.448 1212.86 23.336 1212.33 23.336C1211.13 23.336 1210.2 23.7093 1209.53 24.456C1208.86 25.2027 1208.52 26.1307 1208.52 27.24C1208.52 28.36 1208.86 29.32 1209.54 30.12C1210.23 30.9093 1211.16 31.304 1212.34 31.304C1213.56 31.304 1214.66 30.824 1215.64 29.864L1216.73 31.352C1215.52 32.5787 1214.03 33.192 1212.26 33.192C1210.5 33.192 1209.09 32.632 1208.01 31.512C1206.93 30.392 1206.39 28.9787 1206.39 27.272ZM1221.08 33V23.416H1217.35V21.64H1226.85V23.416H1223.13V33H1221.08ZM1228.47 33V21.64H1232.85C1233.92 21.64 1234.79 21.9813 1235.46 22.664C1236.13 23.3467 1236.47 24.2373 1236.47 25.336C1236.47 26.4347 1236.13 27.336 1235.46 28.04C1234.79 28.7333 1233.92 29.08 1232.85 29.08H1230.53V33H1228.47ZM1230.53 27.288H1232.47C1233.07 27.288 1233.53 27.112 1233.86 26.76C1234.2 26.408 1234.37 25.9333 1234.37 25.336C1234.37 24.7493 1234.2 24.2853 1233.86 23.944C1233.53 23.592 1233.08 23.416 1232.5 23.416H1230.53V27.288ZM1238.27 33V21.64H1245.07V23.416H1240.33V26.392H1244.15V28.168H1240.33V31.224H1245.32V33H1238.27ZM1247.38 33V21.64H1249.44V26.456H1254.64V21.64H1256.69V33H1254.64V28.232H1249.44V33H1247.38ZM1259.44 33V21.64H1261.5V26.456H1266.7V21.64H1268.75V33H1266.7V28.232H1261.5V33H1259.44ZM1270.83 27.24C1270.83 25.608 1271.39 24.2373 1272.51 23.128C1273.64 22.008 1275.04 21.448 1276.7 21.448C1278.37 21.448 1279.76 22.008 1280.88 23.128C1282.01 24.2373 1282.57 25.608 1282.57 27.24C1282.57 28.9147 1282.01 30.328 1280.88 31.48C1279.76 32.6213 1278.37 33.192 1276.7 33.192C1275.04 33.192 1273.64 32.6213 1272.51 31.48C1271.39 30.328 1270.83 28.9147 1270.83 27.24ZM1272.96 27.24C1272.96 28.392 1273.32 29.3573 1274.05 30.136C1274.77 30.9147 1275.66 31.304 1276.7 31.304C1277.75 31.304 1278.63 30.9147 1279.36 30.136C1280.08 29.3573 1280.45 28.392 1280.45 27.24C1280.45 26.1413 1280.08 25.2187 1279.36 24.472C1278.63 23.7147 1277.75 23.336 1276.7 23.336C1275.66 23.336 1274.77 23.7147 1274.05 24.472C1273.32 25.2187 1272.96 26.1413 1272.96 27.24ZM1291.25 20.536C1290.74 20.9307 1290.12 21.128 1289.39 21.128C1288.67 21.128 1288.05 20.9307 1287.54 20.536C1287.03 20.1307 1286.77 19.592 1286.77 18.92V18.712H1288.32V18.92C1288.32 19.24 1288.43 19.4907 1288.64 19.672C1288.85 19.8427 1289.11 19.928 1289.39 19.928C1289.68 19.928 1289.93 19.8427 1290.15 19.672C1290.37 19.4907 1290.48 19.2347 1290.48 18.904V18.712H1292.02V18.92C1292.02 19.592 1291.76 20.1307 1291.25 20.536ZM1284.66 33V21.64H1286.72V28.2L1286.61 29.96H1286.64C1287 29.224 1287.32 28.632 1287.6 28.184L1291.89 21.64H1293.94V33H1291.89V26.456L1292 24.696H1291.97C1291.62 25.4213 1291.3 26.008 1291.03 26.456L1286.71 33H1284.66ZM1299.86 26.952C1299.86 25.5653 1300.34 24.4347 1301.3 23.56C1302.27 22.6853 1303.52 22.248 1305.06 22.248V21H1307.12V22.248C1308.66 22.248 1309.9 22.6853 1310.86 23.56C1311.83 24.4347 1312.32 25.5653 1312.32 26.952C1312.32 28.3707 1311.84 29.528 1310.88 30.424C1309.92 31.3093 1308.67 31.752 1307.12 31.752V33.192H1305.06V31.752C1303.52 31.752 1302.27 31.304 1301.3 30.408C1300.34 29.512 1299.86 28.36 1299.86 26.952ZM1307.12 30.024C1308.04 30.024 1308.78 29.7413 1309.36 29.176C1309.94 28.6 1310.22 27.8587 1310.22 26.952C1310.22 26.0667 1309.94 25.352 1309.36 24.808C1308.78 24.2533 1308.04 23.976 1307.12 23.976V30.024ZM1301.97 26.952C1301.97 27.8587 1302.25 28.6 1302.82 29.176C1303.39 29.7413 1304.14 30.024 1305.06 30.024V23.976C1304.14 23.976 1303.39 24.2533 1302.82 24.808C1302.25 25.352 1301.97 26.0667 1301.97 26.952ZM1313.55 27.24C1313.55 25.608 1314.11 24.2373 1315.23 23.128C1316.36 22.008 1317.76 21.448 1319.42 21.448C1321.08 21.448 1322.48 22.008 1323.6 23.128C1324.73 24.2373 1325.29 25.608 1325.29 27.24C1325.29 28.9147 1324.73 30.328 1323.6 31.48C1322.48 32.6213 1321.08 33.192 1319.42 33.192C1317.76 33.192 1316.36 32.6213 1315.23 31.48C1314.11 30.328 1313.55 28.9147 1313.55 27.24ZM1315.68 27.24C1315.68 28.392 1316.04 29.3573 1316.76 30.136C1317.49 30.9147 1318.37 31.304 1319.42 31.304C1320.47 31.304 1321.35 30.9147 1322.08 30.136C1322.8 29.3573 1323.16 28.392 1323.16 27.24C1323.16 26.1413 1322.8 25.2187 1322.08 24.472C1321.35 23.7147 1320.47 23.336 1319.42 23.336C1318.37 23.336 1317.49 23.7147 1316.76 24.472C1316.04 25.2187 1315.68 26.1413 1315.68 27.24ZM1327.38 33V21.64H1331.76C1332.83 21.64 1333.7 21.9813 1334.37 22.664C1335.04 23.3467 1335.38 24.2373 1335.38 25.336C1335.38 26.4347 1335.04 27.336 1334.37 28.04C1333.7 28.7333 1332.83 29.08 1331.76 29.08H1329.44V33H1327.38ZM1329.44 27.288H1331.38C1331.97 27.288 1332.44 27.112 1332.77 26.76C1333.11 26.408 1333.28 25.9333 1333.28 25.336C1333.28 24.7493 1333.11 24.2853 1332.77 23.944C1332.44 23.592 1331.98 23.416 1331.41 23.416H1329.44V27.288ZM1336.74 33L1337.67 21.64H1339.86L1342.1 27.256L1342.66 28.92H1342.69C1342.9 28.2587 1343.08 27.704 1343.25 27.256L1345.49 21.64H1347.68L1348.61 33H1346.55L1346.08 26.648C1346.06 26.424 1346.05 26.168 1346.05 25.88C1346.05 25.5813 1346.06 25.3413 1346.07 25.16V24.888H1346.04C1345.79 25.624 1345.58 26.2107 1345.41 26.648L1343.57 31.048H1341.78L1339.94 26.648L1339.32 24.872H1339.28C1339.32 25.5547 1339.31 26.1467 1339.27 26.648L1338.8 33H1336.74ZM1350.94 33V21.64H1357.74V23.416H1353V26.392H1356.83V28.168H1353V31.224H1357.99V33H1350.94Z" fill="#252525"/>
<rect x="1393" width="527" height="55" rx="27.5" fill="#F3F6FF"/>
<path d="M1417.82 27.24C1417.82 25.608 1418.38 24.2373 1419.5 23.128C1420.63 22.008 1422.03 21.448 1423.69 21.448C1425.36 21.448 1426.75 22.008 1427.87 23.128C1429 24.2373 1429.57 25.608 1429.57 27.24C1429.57 28.9147 1429 30.328 1427.87 31.48C1426.75 32.6213 1425.36 33.192 1423.69 33.192C1422.03 33.192 1420.63 32.6213 1419.5 31.48C1418.38 30.328 1417.82 28.9147 1417.82 27.24ZM1419.95 27.24C1419.95 28.392 1420.31 29.3573 1421.04 30.136C1421.76 30.9147 1422.65 31.304 1423.69 31.304C1424.74 31.304 1425.62 30.9147 1426.35 30.136C1427.07 29.3573 1427.44 28.392 1427.44 27.24C1427.44 26.1413 1427.07 25.2187 1426.35 24.472C1425.62 23.7147 1424.74 23.336 1423.69 23.336C1422.65 23.336 1421.76 23.7147 1421.04 24.472C1420.31 25.2187 1419.95 26.1413 1419.95 27.24ZM1430.99 27.272C1430.99 25.608 1431.54 24.2213 1432.64 23.112C1433.74 22.0027 1435.14 21.448 1436.83 21.448C1438.56 21.448 1439.96 21.9653 1441.03 23L1440.03 24.536C1439.62 24.184 1439.13 23.896 1438.56 23.672C1438.01 23.448 1437.46 23.336 1436.93 23.336C1435.73 23.336 1434.8 23.7093 1434.13 24.456C1433.46 25.2027 1433.12 26.1307 1433.12 27.24C1433.12 28.36 1433.46 29.32 1434.15 30.12C1434.83 30.9093 1435.76 31.304 1436.95 31.304C1438.16 31.304 1439.26 30.824 1440.24 29.864L1441.33 31.352C1440.12 32.5787 1438.64 33.192 1436.87 33.192C1435.11 33.192 1433.69 32.632 1432.61 31.512C1431.53 30.392 1430.99 28.9787 1430.99 27.272ZM1442.8 32.408L1443.71 30.856C1444.19 31.2293 1444.62 31.416 1444.99 31.416C1445.49 31.416 1445.87 31.0853 1446.13 30.424L1441.68 21.64H1443.95L1446.37 26.712L1447.01 28.216H1447.04C1447.18 27.7147 1447.33 27.2187 1447.5 26.728L1449.33 21.64H1451.49L1447.98 30.616C1447.84 30.968 1447.7 31.2773 1447.55 31.544C1447.4 31.8107 1447.21 32.0773 1446.97 32.344C1446.74 32.6107 1446.46 32.8187 1446.14 32.968C1445.82 33.1173 1445.47 33.192 1445.07 33.192C1444.3 33.192 1443.55 32.9307 1442.8 32.408ZM1452.9 33V21.64H1454.96V31.224H1458.63V21.64H1460.69V31.224H1464.36V21.64H1466.4V31.224H1467.81V35.24H1465.96V33H1452.9ZM1469.74 33V21.64H1476.54V23.416H1471.81V26.392H1475.63V28.168H1471.81V31.224H1476.8V33H1469.74ZM1477.99 27.272C1477.99 25.608 1478.54 24.2213 1479.64 23.112C1480.74 22.0027 1482.14 21.448 1483.83 21.448C1485.56 21.448 1486.96 21.9653 1488.03 23L1487.03 24.536C1486.62 24.184 1486.13 23.896 1485.56 23.672C1485.01 23.448 1484.46 23.336 1483.93 23.336C1482.73 23.336 1481.8 23.7093 1481.13 24.456C1480.46 25.2027 1480.12 26.1307 1480.12 27.24C1480.12 28.36 1480.46 29.32 1481.15 30.12C1481.83 30.9093 1482.76 31.304 1483.95 31.304C1485.16 31.304 1486.26 30.824 1487.24 29.864L1488.33 31.352C1487.12 32.5787 1485.64 33.192 1483.87 33.192C1482.11 33.192 1480.69 32.632 1479.61 31.512C1478.53 30.392 1477.99 28.9787 1477.99 27.272ZM1492.68 33V23.416H1488.95V21.64H1498.45V23.416H1494.73V33H1492.68ZM1500.07 33V21.64H1504.12C1505.18 21.64 1506.02 21.9013 1506.66 22.424C1507.31 22.936 1507.64 23.6507 1507.64 24.568C1507.64 25.1013 1507.52 25.5813 1507.27 26.008C1507.03 26.4347 1506.69 26.7653 1506.26 27V27.032C1506.86 27.2027 1507.31 27.5387 1507.62 28.04C1507.94 28.5413 1508.1 29.096 1508.1 29.704C1508.1 30.7813 1507.73 31.6027 1506.98 32.168C1506.24 32.7227 1505.3 33 1504.18 33H1500.07ZM1502.14 26.28H1504.14C1504.57 26.28 1504.91 26.1467 1505.16 25.88C1505.42 25.6027 1505.54 25.2507 1505.54 24.824C1505.54 24.408 1505.42 24.072 1505.16 23.816C1504.91 23.5493 1504.56 23.416 1504.1 23.416H1502.14V26.28ZM1502.14 31.224H1504.34C1504.86 31.224 1505.26 31.0747 1505.54 30.776C1505.84 30.4667 1505.99 30.0667 1505.99 29.576C1505.99 29.096 1505.84 28.7067 1505.54 28.408C1505.26 28.0987 1504.86 27.944 1504.34 27.944H1502.14V31.224ZM1508.93 31.24C1509.79 31.1227 1510.41 30.5573 1510.79 29.544C1511.19 28.52 1511.38 26.92 1511.38 24.744V21.64H1518.41V33H1516.34V23.416H1513.35V24.776C1513.35 27.5707 1513 29.6507 1512.31 31.016C1511.62 32.3707 1510.49 33.0747 1508.93 33.128V31.24ZM1521.17 33V21.64H1527.97V23.416H1523.23V26.392H1527.05V28.168H1523.23V31.224H1528.22V33H1521.17ZM1530.27 33V21.64H1532.34V26.456H1537.54V21.64H1539.59V33H1537.54V28.232H1532.34V33H1530.27ZM1542.34 33V21.64H1544.4V28.2L1544.29 29.96H1544.32C1544.68 29.224 1545 28.632 1545.28 28.184L1549.57 21.64H1551.62V33H1549.57V26.456L1549.68 24.696H1549.65C1549.3 25.4213 1548.98 26.008 1548.7 26.456L1544.38 33H1542.34ZM1554.38 33V21.64H1561.18V23.416H1556.45V26.392H1560.27V28.168H1556.45V31.224H1561.44V33H1554.38ZM1566.84 27.272C1566.84 25.608 1567.39 24.2213 1568.49 23.112C1569.58 22.0027 1570.98 21.448 1572.68 21.448C1574.41 21.448 1575.8 21.9653 1576.87 23L1575.88 24.536C1575.46 24.184 1574.97 23.896 1574.41 23.672C1573.85 23.448 1573.31 23.336 1572.77 23.336C1571.58 23.336 1570.65 23.7093 1569.97 24.456C1569.3 25.2027 1568.97 26.1307 1568.97 27.24C1568.97 28.36 1569.31 29.32 1569.99 30.12C1570.67 30.9093 1571.61 31.304 1572.79 31.304C1574.01 31.304 1575.1 30.824 1576.09 29.864L1577.17 31.352C1575.97 32.5787 1574.48 33.192 1572.71 33.192C1570.95 33.192 1569.53 32.632 1568.45 31.512C1567.38 30.392 1566.84 28.9787 1566.84 27.272ZM1578.95 33V21.64H1585.75V23.416H1581.01V26.392H1584.83V28.168H1581.01V31.224H1586V33H1578.95ZM1587.2 27.272C1587.2 25.608 1587.75 24.2213 1588.84 23.112C1589.94 22.0027 1591.34 21.448 1593.04 21.448C1594.76 21.448 1596.16 21.9653 1597.23 23L1596.24 24.536C1595.82 24.184 1595.33 23.896 1594.76 23.672C1594.21 23.448 1593.67 23.336 1593.13 23.336C1591.94 23.336 1591 23.7093 1590.33 24.456C1589.66 25.2027 1589.32 26.1307 1589.32 27.24C1589.32 28.36 1589.67 29.32 1590.35 30.12C1591.03 30.9093 1591.96 31.304 1593.15 31.304C1594.36 31.304 1595.46 30.824 1596.44 29.864L1597.53 31.352C1596.33 32.5787 1594.84 33.192 1593.07 33.192C1591.31 33.192 1589.89 32.632 1588.81 31.512C1587.74 30.392 1587.2 28.9787 1587.2 27.272ZM1601.88 33V23.416H1598.15V21.64H1607.66V23.416H1603.93V33H1601.88ZM1609.27 33V21.64H1613.66C1614.73 21.64 1615.59 21.9813 1616.27 22.664C1616.94 23.3467 1617.27 24.2373 1617.27 25.336C1617.27 26.4347 1616.94 27.336 1616.27 28.04C1615.59 28.7333 1614.73 29.08 1613.66 29.08H1611.34V33H1609.27ZM1611.34 27.288H1613.27C1613.87 27.288 1614.34 27.112 1614.67 26.76C1615.01 26.408 1615.18 25.9333 1615.18 25.336C1615.18 24.7493 1615.01 24.2853 1614.67 23.944C1614.34 23.592 1613.88 23.416 1613.31 23.416H1611.34V27.288ZM1619.07 33V21.64H1621.14V28.2L1621.02 29.96H1621.06C1621.42 29.224 1621.74 28.632 1622.02 28.184L1626.3 21.64H1628.35V33H1626.3V26.456L1626.42 24.696H1626.38C1626.03 25.4213 1625.72 26.008 1625.44 26.456L1621.12 33H1619.07ZM1631.12 33V21.64H1633.18V26.456H1638.38V21.64H1640.43V33H1638.38V28.232H1633.18V33H1631.12ZM1642.52 27.272C1642.52 25.608 1643.07 24.2213 1644.17 23.112C1645.27 22.0027 1646.67 21.448 1648.36 21.448C1650.09 21.448 1651.49 21.9653 1652.56 23L1651.56 24.536C1651.15 24.184 1650.66 23.896 1650.09 23.672C1649.54 23.448 1648.99 23.336 1648.46 23.336C1647.27 23.336 1646.33 23.7093 1645.66 24.456C1644.99 25.2027 1644.65 26.1307 1644.65 27.24C1644.65 28.36 1644.99 29.32 1645.68 30.12C1646.36 30.9093 1647.29 31.304 1648.48 31.304C1649.69 31.304 1650.79 30.824 1651.77 29.864L1652.86 31.352C1651.66 32.5787 1650.17 33.192 1648.4 33.192C1646.64 33.192 1645.22 32.632 1644.14 31.512C1643.06 30.392 1642.52 28.9787 1642.52 27.272ZM1654.63 33V21.64H1656.7V26.264H1658.17L1660.84 21.64H1663.08L1659.87 27.048V27.08L1663.27 33H1660.94L1658.17 28.04H1656.7V33H1654.63ZM1663.87 27.24C1663.87 25.608 1664.43 24.2373 1665.55 23.128C1666.68 22.008 1668.08 21.448 1669.74 21.448C1671.4 21.448 1672.8 22.008 1673.92 23.128C1675.05 24.2373 1675.61 25.608 1675.61 27.24C1675.61 28.9147 1675.05 30.328 1673.92 31.48C1672.8 32.6213 1671.4 33.192 1669.74 33.192C1668.08 33.192 1666.68 32.6213 1665.55 31.48C1664.43 30.328 1663.87 28.9147 1663.87 27.24ZM1666 27.24C1666 28.392 1666.36 29.3573 1667.08 30.136C1667.81 30.9147 1668.69 31.304 1669.74 31.304C1670.79 31.304 1671.67 30.9147 1672.4 30.136C1673.12 29.3573 1673.48 28.392 1673.48 27.24C1673.48 26.1413 1673.12 25.2187 1672.4 24.472C1671.67 23.7147 1670.79 23.336 1669.74 23.336C1668.69 23.336 1667.81 23.7147 1667.08 24.472C1666.36 25.2187 1666 26.1413 1666 27.24ZM1677.7 33V21.64H1684.22V23.416H1679.76V33H1677.7ZM1684.71 27.24C1684.71 25.608 1685.27 24.2373 1686.39 23.128C1687.52 22.008 1688.92 21.448 1690.58 21.448C1692.25 21.448 1693.64 22.008 1694.76 23.128C1695.89 24.2373 1696.46 25.608 1696.46 27.24C1696.46 28.9147 1695.89 30.328 1694.76 31.48C1693.64 32.6213 1692.25 33.192 1690.58 33.192C1688.92 33.192 1687.52 32.6213 1686.39 31.48C1685.27 30.328 1684.71 28.9147 1684.71 27.24ZM1686.84 27.24C1686.84 28.392 1687.2 29.3573 1687.93 30.136C1688.65 30.9147 1689.54 31.304 1690.58 31.304C1691.63 31.304 1692.51 30.9147 1693.24 30.136C1693.97 29.3573 1694.33 28.392 1694.33 27.24C1694.33 26.1413 1693.97 25.2187 1693.24 24.472C1692.51 23.7147 1691.63 23.336 1690.58 23.336C1689.54 23.336 1688.65 23.7147 1687.93 24.472C1687.2 25.2187 1686.84 26.1413 1686.84 27.24ZM1702.24 32.408L1703.15 30.856C1703.63 31.2293 1704.05 31.416 1704.43 31.416C1704.93 31.416 1705.31 31.0853 1705.56 30.424L1701.12 21.64H1703.39L1705.8 26.712L1706.44 28.216H1706.48C1706.61 27.7147 1706.77 27.2187 1706.94 26.728L1708.76 21.64H1710.92L1707.42 30.616C1707.28 30.968 1707.14 31.2773 1706.99 31.544C1706.84 31.8107 1706.65 32.0773 1706.41 32.344C1706.18 32.6107 1705.9 32.8187 1705.58 32.968C1705.26 33.1173 1704.9 33.192 1704.51 33.192C1703.74 33.192 1702.98 32.9307 1702.24 32.408ZM1711.17 33L1714.69 27.24L1711.3 21.64H1713.65L1715.22 24.424L1715.92 25.8H1715.95C1716.17 25.3307 1716.4 24.872 1716.66 24.424L1718.24 21.64H1720.59L1717.18 27.24L1720.72 33H1718.42L1716.64 29.944L1715.94 28.6H1715.9C1715.69 29.0587 1715.46 29.5067 1715.22 29.944L1713.46 33H1711.17ZM1721.21 27.24C1721.21 25.608 1721.77 24.2373 1722.89 23.128C1724.02 22.008 1725.42 21.448 1727.08 21.448C1728.75 21.448 1730.14 22.008 1731.26 23.128C1732.39 24.2373 1732.96 25.608 1732.96 27.24C1732.96 28.9147 1732.39 30.328 1731.26 31.48C1730.14 32.6213 1728.75 33.192 1727.08 33.192C1725.42 33.192 1724.02 32.6213 1722.89 31.48C1721.77 30.328 1721.21 28.9147 1721.21 27.24ZM1723.34 27.24C1723.34 28.392 1723.7 29.3573 1724.43 30.136C1725.15 30.9147 1726.04 31.304 1727.08 31.304C1728.13 31.304 1729.01 30.9147 1729.74 30.136C1730.47 29.3573 1730.83 28.392 1730.83 27.24C1730.83 26.1413 1730.47 25.2187 1729.74 24.472C1729.01 23.7147 1728.13 23.336 1727.08 23.336C1726.04 23.336 1725.15 23.7147 1724.43 24.472C1723.7 25.2187 1723.34 26.1413 1723.34 27.24ZM1736.68 31.224H1741.19V23.416H1738.15V24.264C1738.15 27.3147 1737.66 29.6347 1736.68 31.224ZM1733.4 31.224H1734.55C1735.65 29.56 1736.2 27.192 1736.2 24.12V21.64H1743.26V31.224H1744.52V35.24H1742.68V33H1735.31V35.24H1733.4V31.224ZM1745.26 33L1749.24 21.64H1751.42L1755.4 33H1753.29L1752.32 30.088H1748.33L1747.37 33H1745.26ZM1748.84 28.408H1751.8L1750.8 25.368L1750.35 23.608H1750.32C1750.15 24.3547 1750 24.9413 1749.87 25.368L1748.84 28.408ZM1759.89 31.576L1761.01 30.2C1761.32 30.5307 1761.7 30.808 1762.16 31.032C1762.62 31.256 1763.09 31.368 1763.57 31.368C1764.19 31.368 1764.68 31.2133 1765.04 30.904C1765.41 30.5947 1765.59 30.168 1765.59 29.624C1765.59 29.1333 1765.42 28.7493 1765.09 28.472C1764.77 28.184 1764.33 28.04 1763.78 28.04H1762.39V26.376H1763.51C1764.02 26.376 1764.44 26.2267 1764.77 25.928C1765.1 25.6293 1765.27 25.256 1765.27 24.808C1765.27 24.3493 1765.12 23.976 1764.82 23.688C1764.52 23.3893 1764.09 23.24 1763.52 23.24C1762.66 23.24 1761.84 23.56 1761.06 24.2L1760.23 22.696C1761.23 21.864 1762.45 21.448 1763.88 21.448C1764.85 21.448 1765.67 21.7253 1766.34 22.28C1767.02 22.8347 1767.36 23.592 1767.36 24.552C1767.36 25.672 1766.84 26.5147 1765.8 27.08V27.112C1766.38 27.2933 1766.85 27.6133 1767.19 28.072C1767.53 28.5307 1767.7 29.0907 1767.7 29.752C1767.7 30.7973 1767.32 31.6347 1766.56 32.264C1765.82 32.8827 1764.88 33.192 1763.76 33.192C1763.04 33.192 1762.33 33.0533 1761.64 32.776C1760.95 32.488 1760.37 32.088 1759.89 31.576ZM1768.43 33L1772.42 21.64H1774.59L1778.58 33H1776.46L1775.49 30.088H1771.5L1770.54 33H1768.43ZM1772.02 28.408H1774.98L1773.97 25.368L1773.52 23.608H1773.49C1773.32 24.3547 1773.17 24.9413 1773.04 25.368L1772.02 28.408ZM1784.09 33V21.64H1793.29V33H1791.22V23.416H1786.15V33H1784.09ZM1794.79 33L1798.78 21.64H1800.95L1804.94 33H1802.82L1801.85 30.088H1797.86L1796.9 33H1794.79ZM1798.38 28.408H1801.34L1800.33 25.368L1799.88 23.608H1799.85C1799.68 24.3547 1799.53 24.9413 1799.4 25.368L1798.38 28.408ZM1806.45 33V21.64H1808.51V31.224H1813.42V21.64H1815.49V31.224H1816.83V35.24H1814.99V33H1806.45ZM1818.79 33V21.64H1820.85V28.2L1820.74 29.96H1820.77C1821.14 29.224 1821.46 28.632 1821.73 28.184L1826.02 21.64H1828.07V33H1826.02V26.456L1826.13 24.696H1826.1C1825.75 25.4213 1825.44 26.008 1825.16 26.456L1820.84 33H1818.79ZM1830.84 33V21.64H1837.64V23.416H1832.9V26.392H1836.72V28.168H1832.9V31.224H1837.89V33H1830.84ZM1839.95 33V21.64H1842.01V26.456H1847.21V21.64H1849.26V33H1847.21V28.232H1842.01V33H1839.95ZM1854.58 33V23.416H1850.86V21.64H1860.36V23.416H1856.63V33H1854.58ZM1859.79 33L1863.78 21.64H1865.95L1869.94 33H1867.82L1866.85 30.088H1862.86L1861.9 33H1859.79ZM1863.38 28.408H1866.34L1865.33 25.368L1864.88 23.608H1864.85C1864.68 24.3547 1864.53 24.9413 1864.4 25.368L1863.38 28.408ZM1871.01 33L1871.94 21.64H1874.13L1876.37 27.256L1876.93 28.92H1876.97C1877.17 28.2587 1877.36 27.704 1877.53 27.256L1879.77 21.64H1881.96L1882.89 33H1880.82L1880.36 26.648C1880.34 26.424 1880.33 26.168 1880.33 25.88C1880.33 25.5813 1880.33 25.3413 1880.34 25.16V24.888H1880.31C1880.06 25.624 1879.86 26.2107 1879.69 26.648L1877.85 31.048H1876.05L1874.21 26.648L1873.59 24.872H1873.56C1873.59 25.5547 1873.58 26.1467 1873.54 26.648L1873.08 33H1871.01ZM1885.21 33V21.64H1887.28V28.2L1887.16 29.96H1887.2C1887.56 29.224 1887.88 28.632 1888.16 28.184L1892.44 21.64H1894.49V33H1892.44V26.456L1892.56 24.696H1892.52C1892.17 25.4213 1891.86 26.008 1891.58 26.456L1887.26 33H1885.21Z" fill="#005DFF"/>
<rect x="1930" width="353" height="55" rx="27.5" fill="#F3F6FF"/>
<path d="M1954.77 27.24C1954.77 25.608 1955.33 24.2373 1956.45 23.128C1957.58 22.008 1958.98 21.448 1960.65 21.448C1962.31 21.448 1963.7 22.008 1964.82 23.128C1965.95 24.2373 1966.52 25.608 1966.52 27.24C1966.52 28.9147 1965.95 30.328 1964.82 31.48C1963.7 32.6213 1962.31 33.192 1960.65 33.192C1958.98 33.192 1957.58 32.6213 1956.45 31.48C1955.33 30.328 1954.77 28.9147 1954.77 27.24ZM1956.9 27.24C1956.9 28.392 1957.26 29.3573 1957.99 30.136C1958.72 30.9147 1959.6 31.304 1960.65 31.304C1961.69 31.304 1962.58 30.9147 1963.3 30.136C1964.03 29.3573 1964.39 28.392 1964.39 27.24C1964.39 26.1413 1964.03 25.2187 1963.3 24.472C1962.58 23.7147 1961.69 23.336 1960.65 23.336C1959.6 23.336 1958.72 23.7147 1957.99 24.472C1957.26 25.2187 1956.9 26.1413 1956.9 27.24ZM1968.6 33V21.64H1970.67V26.264H1972.14L1974.81 21.64H1977.05L1973.83 27.048V27.08L1977.24 33H1974.91L1972.14 28.04H1970.67V33H1968.6ZM1977.56 33L1981.54 21.64H1983.72L1987.7 33H1985.59L1984.61 30.088H1980.63L1979.67 33H1977.56ZM1981.14 28.408H1984.1L1983.09 25.368L1982.65 23.608H1982.61C1982.44 24.3547 1982.29 24.9413 1982.17 25.368L1981.14 28.408ZM1988.19 31.576L1989.31 30.2C1989.62 30.5307 1990 30.808 1990.46 31.032C1990.92 31.256 1991.39 31.368 1991.87 31.368C1992.49 31.368 1992.98 31.2133 1993.34 30.904C1993.7 30.5947 1993.88 30.168 1993.88 29.624C1993.88 29.1333 1993.72 28.7493 1993.39 28.472C1993.07 28.184 1992.63 28.04 1992.08 28.04H1990.68V26.376H1991.8C1992.32 26.376 1992.74 26.2267 1993.07 25.928C1993.4 25.6293 1993.56 25.256 1993.56 24.808C1993.56 24.3493 1993.41 23.976 1993.12 23.688C1992.82 23.3893 1992.39 23.24 1991.82 23.24C1990.96 23.24 1990.13 23.56 1989.36 24.2L1988.52 22.696C1989.53 21.864 1990.74 21.448 1992.17 21.448C1993.14 21.448 1993.96 21.7253 1994.64 22.28C1995.32 22.8347 1995.66 23.592 1995.66 24.552C1995.66 25.672 1995.14 26.5147 1994.09 27.08V27.112C1994.68 27.2933 1995.14 27.6133 1995.48 28.072C1995.83 28.5307 1996 29.0907 1996 29.752C1996 30.7973 1995.62 31.6347 1994.86 32.264C1994.11 32.8827 1993.18 33.192 1992.06 33.192C1991.33 33.192 1990.63 33.0533 1989.93 32.776C1989.25 32.488 1988.67 32.088 1988.19 31.576ZM1996.73 33L2000.71 21.64H2002.89L2006.87 33H2004.76L2003.79 30.088H1999.8L1998.84 33H1996.73ZM2000.31 28.408H2003.27L2002.27 25.368L2001.82 23.608H2001.79C2001.61 24.3547 2001.47 24.9413 2001.34 25.368L2000.31 28.408ZM2008.38 33V21.64H2010.45V26.456H2015.65V21.64H2017.7V33H2015.65V28.232H2010.45V33H2008.38ZM2020.45 33V21.64H2022.51V28.2L2022.4 29.96H2022.43C2022.79 29.224 2023.11 28.632 2023.39 28.184L2027.68 21.64H2029.73V33H2027.68V26.456L2027.79 24.696H2027.76C2027.41 25.4213 2027.09 26.008 2026.81 26.456L2022.49 33H2020.45ZM2032.49 33V21.64H2039.29V23.416H2034.56V26.392H2038.38V28.168H2034.56V31.224H2039.55V33H2032.49ZM2045.17 33L2046.1 21.64H2048.29L2050.53 27.256L2051.09 28.92H2051.12C2051.33 28.2587 2051.51 27.704 2051.68 27.256L2053.92 21.64H2056.11L2057.04 33H2054.98L2054.51 26.648C2054.49 26.424 2054.48 26.168 2054.48 25.88C2054.48 25.5813 2054.49 25.3413 2054.5 25.16V24.888H2054.47C2054.22 25.624 2054.01 26.2107 2053.84 26.648L2052 31.048H2050.21L2048.37 26.648L2047.75 24.872H2047.71C2047.75 25.5547 2047.74 26.1467 2047.7 26.648L2047.23 33H2045.17ZM2059.37 33V21.64H2066.17V23.416H2061.43V26.392H2065.26V28.168H2061.43V31.224H2066.42V33H2059.37ZM2070.49 31.224H2075.01V23.416H2071.97V24.264C2071.97 27.3147 2071.47 29.6347 2070.49 31.224ZM2067.21 31.224H2068.37C2069.46 29.56 2070.01 27.192 2070.01 24.12V21.64H2077.07V31.224H2078.33V35.24H2076.49V33H2069.12V35.24H2067.21V31.224ZM2080.32 33V21.64H2082.39V28.2L2082.27 29.96H2082.31C2082.67 29.224 2082.99 28.632 2083.27 28.184L2087.55 21.64H2089.6V33H2087.55V26.456L2087.67 24.696H2087.63C2087.28 25.4213 2086.97 26.008 2086.69 26.456L2082.37 33H2080.32ZM2092.37 33V21.64H2094.43V31.224H2099.34V21.64H2101.41V31.224H2102.75V35.24H2100.91V33H2092.37ZM2104.71 33V21.64H2106.78V28.2L2106.66 29.96H2106.7C2107.06 29.224 2107.38 28.632 2107.66 28.184L2111.94 21.64H2113.99V33H2111.94V26.456L2112.06 24.696H2112.02C2111.67 25.4213 2111.36 26.008 2111.08 26.456L2106.76 33H2104.71ZM2116.76 33V21.64H2118.82V26.456H2124.02V21.64H2126.07V33H2124.02V28.232H2118.82V33H2116.76ZM2128.17 27.272C2128.17 25.608 2128.71 24.2213 2129.81 23.112C2130.91 22.0027 2132.31 21.448 2134.01 21.448C2135.73 21.448 2137.13 21.9653 2138.2 23L2137.21 24.536C2136.79 24.184 2136.3 23.896 2135.73 23.672C2135.18 23.448 2134.63 23.336 2134.1 23.336C2132.91 23.336 2131.97 23.7093 2131.3 24.456C2130.63 25.2027 2130.29 26.1307 2130.29 27.24C2130.29 28.36 2130.63 29.32 2131.32 30.12C2132 30.9093 2132.93 31.304 2134.12 31.304C2135.33 31.304 2136.43 30.824 2137.41 29.864L2138.5 31.352C2137.3 32.5787 2135.81 33.192 2134.04 33.192C2132.28 33.192 2130.86 32.632 2129.78 31.512C2128.7 30.392 2128.17 28.9787 2128.17 27.272ZM2140.27 33V21.64H2142.34V26.264H2143.81L2146.48 21.64H2148.72L2145.51 27.048V27.08L2148.91 33H2146.58L2143.81 28.04H2142.34V33H2140.27ZM2149.51 27.24C2149.51 25.608 2150.07 24.2373 2151.19 23.128C2152.32 22.008 2153.72 21.448 2155.38 21.448C2157.04 21.448 2158.44 22.008 2159.56 23.128C2160.69 24.2373 2161.25 25.608 2161.25 27.24C2161.25 28.9147 2160.69 30.328 2159.56 31.48C2158.44 32.6213 2157.04 33.192 2155.38 33.192C2153.72 33.192 2152.32 32.6213 2151.19 31.48C2150.07 30.328 2149.51 28.9147 2149.51 27.24ZM2151.64 27.24C2151.64 28.392 2152 29.3573 2152.72 30.136C2153.45 30.9147 2154.34 31.304 2155.38 31.304C2156.43 31.304 2157.31 30.9147 2158.04 30.136C2158.76 29.3573 2159.12 28.392 2159.12 27.24C2159.12 26.1413 2158.76 25.2187 2158.04 24.472C2157.31 23.7147 2156.43 23.336 2155.38 23.336C2154.34 23.336 2153.45 23.7147 2152.72 24.472C2152 25.2187 2151.64 26.1413 2151.64 27.24ZM2169.93 20.536C2169.42 20.9307 2168.8 21.128 2168.07 21.128C2167.35 21.128 2166.73 20.9307 2166.22 20.536C2165.7 20.1307 2165.45 19.592 2165.45 18.92V18.712H2167V18.92C2167 19.24 2167.11 19.4907 2167.32 19.672C2167.53 19.8427 2167.78 19.928 2168.07 19.928C2168.36 19.928 2168.61 19.8427 2168.82 19.672C2169.05 19.4907 2169.16 19.2347 2169.16 18.904V18.712H2170.7V18.92C2170.7 19.592 2170.44 20.1307 2169.93 20.536ZM2163.34 33V21.64H2165.4V28.2L2165.29 29.96H2165.32C2165.68 29.224 2166 28.632 2166.28 28.184L2170.57 21.64H2172.62V33H2170.57V26.456L2170.68 24.696H2170.65C2170.3 25.4213 2169.98 26.008 2169.7 26.456L2165.38 33H2163.34ZM2179.38 33V21.64H2188.58V33H2186.52V23.416H2181.45V33H2179.38ZM2190.66 27.24C2190.66 25.608 2191.22 24.2373 2192.34 23.128C2193.48 22.008 2194.87 21.448 2196.54 21.448C2198.2 21.448 2199.59 22.008 2200.71 23.128C2201.84 24.2373 2202.41 25.608 2202.41 27.24C2202.41 28.9147 2201.84 30.328 2200.71 31.48C2199.59 32.6213 2198.2 33.192 2196.54 33.192C2194.87 33.192 2193.48 32.6213 2192.34 31.48C2191.22 30.328 2190.66 28.9147 2190.66 27.24ZM2192.79 27.24C2192.79 28.392 2193.16 29.3573 2193.88 30.136C2194.61 30.9147 2195.49 31.304 2196.54 31.304C2197.58 31.304 2198.47 30.9147 2199.19 30.136C2199.92 29.3573 2200.28 28.392 2200.28 27.24C2200.28 26.1413 2199.92 25.2187 2199.19 24.472C2198.47 23.7147 2197.58 23.336 2196.54 23.336C2195.49 23.336 2194.61 23.7147 2193.88 24.472C2193.16 25.2187 2192.79 26.1413 2192.79 27.24ZM2204.06 33L2204.99 21.64H2207.18L2209.42 27.256L2209.98 28.92H2210.01C2210.22 28.2587 2210.4 27.704 2210.57 27.256L2212.81 21.64H2215.01L2215.93 33H2213.87L2213.41 26.648C2213.38 26.424 2213.37 26.168 2213.37 25.88C2213.37 25.5813 2213.38 25.3413 2213.39 25.16V24.888H2213.36C2213.11 25.624 2212.9 26.2107 2212.73 26.648L2210.89 31.048H2209.1L2207.26 26.648L2206.64 24.872H2206.61C2206.64 25.5547 2206.63 26.1467 2206.59 26.648L2206.13 33H2204.06ZM2217.59 27.24C2217.59 25.608 2218.15 24.2373 2219.27 23.128C2220.4 22.008 2221.79 21.448 2223.46 21.448C2225.12 21.448 2226.51 22.008 2227.63 23.128C2228.77 24.2373 2229.33 25.608 2229.33 27.24C2229.33 28.9147 2228.77 30.328 2227.63 31.48C2226.51 32.6213 2225.12 33.192 2223.46 33.192C2221.79 33.192 2220.4 32.6213 2219.27 31.48C2218.15 30.328 2217.59 28.9147 2217.59 27.24ZM2219.71 27.24C2219.71 28.392 2220.08 29.3573 2220.8 30.136C2221.53 30.9147 2222.41 31.304 2223.46 31.304C2224.5 31.304 2225.39 30.9147 2226.11 30.136C2226.84 29.3573 2227.2 28.392 2227.2 27.24C2227.2 26.1413 2226.84 25.2187 2226.11 24.472C2225.39 23.7147 2224.5 23.336 2223.46 23.336C2222.41 23.336 2221.53 23.7147 2220.8 24.472C2220.08 25.2187 2219.71 26.1413 2219.71 27.24ZM2231.42 33V21.64H2233.48V31.224H2237.14V21.64H2239.21V31.224H2242.87V21.64H2244.92V31.224H2246.33V35.24H2244.47V33H2231.42ZM2248.26 33V21.64H2250.32V28.2L2250.21 29.96H2250.24C2250.61 29.224 2250.93 28.632 2251.2 28.184L2255.49 21.64H2257.54V33H2255.49V26.456L2255.6 24.696H2255.57C2255.22 25.4213 2254.9 26.008 2254.63 26.456L2250.31 33H2248.26Z" fill="#252525"/>
<rect x="2293" width="549" height="55" rx="27.5" fill="#F3F6FF"/>
<path d="M2318.82 33V21.64H2328.02V33H2325.96V23.416H2320.89V33H2318.82ZM2330.77 33V21.64H2335.16C2336.23 21.64 2337.09 21.9813 2337.77 22.664C2338.44 23.3467 2338.77 24.2373 2338.77 25.336C2338.77 26.4347 2338.44 27.336 2337.77 28.04C2337.09 28.7333 2336.23 29.08 2335.16 29.08H2332.84V33H2330.77ZM2332.84 27.288H2334.77C2335.37 27.288 2335.84 27.112 2336.17 26.76C2336.51 26.408 2336.68 25.9333 2336.68 25.336C2336.68 24.7493 2336.51 24.2853 2336.17 23.944C2335.84 23.592 2335.38 23.416 2334.81 23.416H2332.84V27.288ZM2339.9 27.24C2339.9 25.608 2340.46 24.2373 2341.58 23.128C2342.71 22.008 2344.11 21.448 2345.77 21.448C2347.44 21.448 2348.83 22.008 2349.95 23.128C2351.08 24.2373 2351.64 25.608 2351.64 27.24C2351.64 28.9147 2351.08 30.328 2349.95 31.48C2348.83 32.6213 2347.44 33.192 2345.77 33.192C2344.11 33.192 2342.71 32.6213 2341.58 31.48C2340.46 30.328 2339.9 28.9147 2339.9 27.24ZM2342.03 27.24C2342.03 28.392 2342.39 29.3573 2343.12 30.136C2343.84 30.9147 2344.73 31.304 2345.77 31.304C2346.82 31.304 2347.7 30.9147 2348.43 30.136C2349.15 29.3573 2349.52 28.392 2349.52 27.24C2349.52 26.1413 2349.15 25.2187 2348.43 24.472C2347.7 23.7147 2346.82 23.336 2345.77 23.336C2344.73 23.336 2343.84 23.7147 2343.12 24.472C2342.39 25.2187 2342.03 26.1413 2342.03 27.24ZM2353.73 33V21.64H2357.78C2358.83 21.64 2359.68 21.9013 2360.32 22.424C2360.97 22.936 2361.3 23.6507 2361.3 24.568C2361.3 25.1013 2361.17 25.5813 2360.93 26.008C2360.68 26.4347 2360.35 26.7653 2359.92 27V27.032C2360.52 27.2027 2360.97 27.5387 2361.28 28.04C2361.6 28.5413 2361.76 29.096 2361.76 29.704C2361.76 30.7813 2361.39 31.6027 2360.64 32.168C2359.89 32.7227 2358.96 33 2357.84 33H2353.73ZM2355.79 26.28H2357.79C2358.23 26.28 2358.57 26.1467 2358.82 25.88C2359.07 25.6027 2359.2 25.2507 2359.2 24.824C2359.2 24.408 2359.07 24.072 2358.82 23.816C2358.57 23.5493 2358.22 23.416 2357.76 23.416H2355.79V26.28ZM2355.79 31.224H2358C2358.51 31.224 2358.91 31.0747 2359.2 30.776C2359.5 30.4667 2359.65 30.0667 2359.65 29.576C2359.65 29.096 2359.5 28.7067 2359.2 28.408C2358.91 28.0987 2358.51 27.944 2358 27.944H2355.79V31.224ZM2363.85 33V21.64H2370.65V23.416H2365.92V26.392H2369.74V28.168H2365.92V31.224H2370.91V33H2363.85ZM2374.98 31.224H2379.49V23.416H2376.45V24.264C2376.45 27.3147 2375.96 29.6347 2374.98 31.224ZM2371.7 31.224H2372.85C2373.95 29.56 2374.5 27.192 2374.5 24.12V21.64H2381.55V31.224H2382.82V35.24H2380.98V33H2373.6V35.24H2371.7V31.224ZM2384.81 33V21.64H2391.61V23.416H2386.87V26.392H2390.69V28.168H2386.87V31.224H2391.86V33H2384.81ZM2393.92 33V21.64H2395.98V26.456H2401.18V21.64H2403.23V33H2401.18V28.232H2395.98V33H2393.92ZM2405.98 33V21.64H2408.04V28.2L2407.93 29.96H2407.96C2408.32 29.224 2408.64 28.632 2408.92 28.184L2413.21 21.64H2415.26V33H2413.21V26.456L2413.32 24.696H2413.29C2412.94 25.4213 2412.62 26.008 2412.35 26.456L2408.03 33H2405.98ZM2418.02 33V21.64H2424.82V23.416H2420.09V26.392H2423.91V28.168H2420.09V31.224H2425.08V33H2418.02ZM2430.7 33L2431.63 21.64H2433.82L2436.06 27.256L2436.62 28.92H2436.65C2436.86 28.2587 2437.04 27.704 2437.21 27.256L2439.45 21.64H2441.65L2442.57 33H2440.51L2440.05 26.648C2440.02 26.424 2440.01 26.168 2440.01 25.88C2440.01 25.5813 2440.02 25.3413 2440.03 25.16V24.888H2440C2439.75 25.624 2439.54 26.2107 2439.37 26.648L2437.53 31.048H2435.74L2433.9 26.648L2433.28 24.872H2433.25C2433.28 25.5547 2433.27 26.1467 2433.23 26.648L2432.77 33H2430.7ZM2444.9 33V21.64H2451.7V23.416H2446.96V26.392H2450.79V28.168H2446.96V31.224H2451.96V33H2444.9ZM2454.01 33V21.64H2458.39C2459.46 21.64 2460.33 21.9813 2461 22.664C2461.67 23.3467 2462.01 24.2373 2462.01 25.336C2462.01 26.4347 2461.67 27.336 2461 28.04C2460.33 28.7333 2459.46 29.08 2458.39 29.08H2456.07V33H2454.01ZM2456.07 27.288H2458.01C2458.61 27.288 2459.07 27.112 2459.4 26.76C2459.74 26.408 2459.91 25.9333 2459.91 25.336C2459.91 24.7493 2459.74 24.2853 2459.4 23.944C2459.07 23.592 2458.62 23.416 2458.04 23.416H2456.07V27.288ZM2463.13 27.24C2463.13 25.608 2463.69 24.2373 2464.81 23.128C2465.94 22.008 2467.34 21.448 2469.01 21.448C2470.67 21.448 2472.06 22.008 2473.18 23.128C2474.31 24.2373 2474.88 25.608 2474.88 27.24C2474.88 28.9147 2474.31 30.328 2473.18 31.48C2472.06 32.6213 2470.67 33.192 2469.01 33.192C2467.34 33.192 2465.94 32.6213 2464.81 31.48C2463.69 30.328 2463.13 28.9147 2463.13 27.24ZM2465.26 27.24C2465.26 28.392 2465.62 29.3573 2466.35 30.136C2467.08 30.9147 2467.96 31.304 2469.01 31.304C2470.05 31.304 2470.94 30.9147 2471.66 30.136C2472.39 29.3573 2472.75 28.392 2472.75 27.24C2472.75 26.1413 2472.39 25.2187 2471.66 24.472C2470.94 23.7147 2470.05 23.336 2469.01 23.336C2467.96 23.336 2467.08 23.7147 2466.35 24.472C2465.62 25.2187 2465.26 26.1413 2465.26 27.24ZM2476.96 33V21.64H2486.16V33H2484.1V23.416H2479.03V33H2476.96ZM2488.92 33V21.64H2493.3C2494.37 21.64 2495.24 21.9813 2495.91 22.664C2496.58 23.3467 2496.92 24.2373 2496.92 25.336C2496.92 26.4347 2496.58 27.336 2495.91 28.04C2495.24 28.7333 2494.37 29.08 2493.3 29.08H2490.98V33H2488.92ZM2490.98 27.288H2492.92C2493.51 27.288 2493.98 27.112 2494.31 26.76C2494.65 26.408 2494.82 25.9333 2494.82 25.336C2494.82 24.7493 2494.65 24.2853 2494.31 23.944C2493.98 23.592 2493.52 23.416 2492.95 23.416H2490.98V27.288ZM2498.71 33V21.64H2500.78V28.2L2500.66 29.96H2500.7C2501.06 29.224 2501.38 28.632 2501.66 28.184L2505.94 21.64H2507.99V33H2505.94V26.456L2506.06 24.696H2506.02C2505.67 25.4213 2505.36 26.008 2505.08 26.456L2500.76 33H2498.71ZM2509.65 33L2512.05 29L2512.42 28.408V28.376C2511.75 28.0773 2511.24 27.64 2510.9 27.064C2510.57 26.488 2510.41 25.8267 2510.41 25.08C2510.41 24.312 2510.58 23.6613 2510.92 23.128C2511.27 22.584 2511.73 22.1893 2512.31 21.944C2512.78 21.7413 2513.5 21.64 2514.47 21.64H2518.15V33H2516.09V28.76H2514.42L2511.96 33H2509.65ZM2514.29 27.032H2516.09V23.416H2514.63C2513.99 23.416 2513.52 23.512 2513.21 23.704C2512.74 23.992 2512.5 24.4773 2512.5 25.16C2512.5 25.7573 2512.66 26.2213 2512.98 26.552C2513.3 26.872 2513.74 27.032 2514.29 27.032ZM2523.48 33V23.416H2519.75V21.64H2529.25V23.416H2525.52V33H2523.48ZM2530.87 33V21.64H2532.93V28.2L2532.82 29.96H2532.85C2533.21 29.224 2533.53 28.632 2533.81 28.184L2538.1 21.64H2540.15V33H2538.1V26.456L2538.21 24.696H2538.18C2537.83 25.4213 2537.51 26.008 2537.24 26.456L2532.92 33H2530.87ZM2549.51 20.536C2549 20.9307 2548.38 21.128 2547.65 21.128C2546.93 21.128 2546.31 20.9307 2545.8 20.536C2545.28 20.1307 2545.03 19.592 2545.03 18.92V18.712H2546.58V18.92C2546.58 19.24 2546.69 19.4907 2546.9 19.672C2547.11 19.8427 2547.36 19.928 2547.65 19.928C2547.94 19.928 2548.19 19.8427 2548.4 19.672C2548.63 19.4907 2548.74 19.2347 2548.74 18.904V18.712H2550.28V18.92C2550.28 19.592 2550.02 20.1307 2549.51 20.536ZM2542.92 33V21.64H2544.98V28.2L2544.87 29.96H2544.9C2545.26 29.224 2545.58 28.632 2545.86 28.184L2550.15 21.64H2552.2V33H2550.15V26.456L2550.26 24.696H2550.23C2549.88 25.4213 2549.56 26.008 2549.28 26.456L2544.96 33H2542.92ZM2558.96 33V21.64H2568.16V33H2566.1V23.416H2561.03V33H2558.96ZM2570.24 27.24C2570.24 25.608 2570.8 24.2373 2571.92 23.128C2573.05 22.008 2574.45 21.448 2576.12 21.448C2577.78 21.448 2579.17 22.008 2580.29 23.128C2581.42 24.2373 2581.99 25.608 2581.99 27.24C2581.99 28.9147 2581.42 30.328 2580.29 31.48C2579.17 32.6213 2577.78 33.192 2576.12 33.192C2574.45 33.192 2573.05 32.6213 2571.92 31.48C2570.8 30.328 2570.24 28.9147 2570.24 27.24ZM2572.37 27.24C2572.37 28.392 2572.73 29.3573 2573.46 30.136C2574.18 30.9147 2575.07 31.304 2576.12 31.304C2577.16 31.304 2578.05 30.9147 2578.77 30.136C2579.5 29.3573 2579.86 28.392 2579.86 27.24C2579.86 26.1413 2579.5 25.2187 2578.77 24.472C2578.05 23.7147 2577.16 23.336 2576.12 23.336C2575.07 23.336 2574.18 23.7147 2573.46 24.472C2572.73 25.2187 2572.37 26.1413 2572.37 27.24ZM2588.07 33V21.64H2597.27V33H2595.21V23.416H2590.14V33H2588.07ZM2600.02 33V21.64H2604.41C2605.48 21.64 2606.34 21.9813 2607.02 22.664C2607.69 23.3467 2608.02 24.2373 2608.02 25.336C2608.02 26.4347 2607.69 27.336 2607.02 28.04C2606.34 28.7333 2605.48 29.08 2604.41 29.08H2602.09V33H2600.02ZM2602.09 27.288H2604.02C2604.62 27.288 2605.09 27.112 2605.42 26.76C2605.76 26.408 2605.93 25.9333 2605.93 25.336C2605.93 24.7493 2605.76 24.2853 2605.42 23.944C2605.09 23.592 2604.63 23.416 2604.06 23.416H2602.09V27.288ZM2609.15 27.24C2609.15 25.608 2609.71 24.2373 2610.83 23.128C2611.96 22.008 2613.36 21.448 2615.02 21.448C2616.69 21.448 2618.08 22.008 2619.2 23.128C2620.33 24.2373 2620.89 25.608 2620.89 27.24C2620.89 28.9147 2620.33 30.328 2619.2 31.48C2618.08 32.6213 2616.69 33.192 2615.02 33.192C2613.36 33.192 2611.96 32.6213 2610.83 31.48C2609.71 30.328 2609.15 28.9147 2609.15 27.24ZM2611.28 27.24C2611.28 28.392 2611.64 29.3573 2612.37 30.136C2613.09 30.9147 2613.98 31.304 2615.02 31.304C2616.07 31.304 2616.95 30.9147 2617.68 30.136C2618.4 29.3573 2618.77 28.392 2618.77 27.24C2618.77 26.1413 2618.4 25.2187 2617.68 24.472C2616.95 23.7147 2616.07 23.336 2615.02 23.336C2613.98 23.336 2613.09 23.7147 2612.37 24.472C2611.64 25.2187 2611.28 26.1413 2611.28 27.24ZM2622.13 26.952C2622.13 25.5653 2622.61 24.4347 2623.57 23.56C2624.54 22.6853 2625.79 22.248 2627.33 22.248V21H2629.39V22.248C2630.93 22.248 2632.18 22.6853 2633.14 23.56C2634.11 24.4347 2634.59 25.5653 2634.59 26.952C2634.59 28.3707 2634.11 29.528 2633.15 30.424C2632.19 31.3093 2630.94 31.752 2629.39 31.752V33.192H2627.33V31.752C2625.79 31.752 2624.54 31.304 2623.57 30.408C2622.61 29.512 2622.13 28.36 2622.13 26.952ZM2629.39 30.024C2630.31 30.024 2631.06 29.7413 2631.63 29.176C2632.21 28.6 2632.5 27.8587 2632.5 26.952C2632.5 26.0667 2632.21 25.352 2631.63 24.808C2631.06 24.2533 2630.31 23.976 2629.39 23.976V30.024ZM2624.24 26.952C2624.24 27.8587 2624.52 28.6 2625.09 29.176C2625.67 29.7413 2626.41 30.024 2627.33 30.024V23.976C2626.41 23.976 2625.67 24.2533 2625.09 24.808C2624.52 25.352 2624.24 26.0667 2624.24 26.952ZM2636.49 33V21.64H2638.56V28.2L2638.45 29.96H2638.48C2638.84 29.224 2639.16 28.632 2639.44 28.184L2643.73 21.64H2645.77V33H2643.73V26.456L2643.84 24.696H2643.81C2643.45 25.4213 2643.14 26.008 2642.86 26.456L2638.54 33H2636.49ZM2647.39 31.24C2648.24 31.1227 2648.86 30.5573 2649.24 29.544C2649.64 28.52 2649.84 26.92 2649.84 24.744V21.64H2656.86V33H2654.8V23.416H2651.8V24.776C2651.8 27.5707 2651.46 29.6507 2650.76 31.016C2650.07 32.3707 2648.95 33.0747 2647.39 33.128V31.24ZM2658.37 33L2662.35 21.64H2664.53L2668.51 33H2666.4L2665.43 30.088H2661.44L2660.48 33H2658.37ZM2661.95 28.408H2664.91L2663.91 25.368L2663.46 23.608H2663.43C2663.26 24.3547 2663.11 24.9413 2662.98 25.368L2661.95 28.408ZM2670.02 33V21.64H2672.09V26.264H2673.56L2676.23 21.64H2678.47L2675.26 27.048V27.08L2678.66 33H2676.33L2673.56 28.04H2672.09V33H2670.02ZM2682.8 33V23.416H2679.08V21.64H2688.58V23.416H2684.85V33H2682.8ZM2690.2 33V21.64H2692.26V28.2L2692.15 29.96H2692.18C2692.54 29.224 2692.86 28.632 2693.14 28.184L2697.43 21.64H2699.48V33H2697.43V26.456L2697.54 24.696H2697.51C2697.16 25.4213 2696.84 26.008 2696.56 26.456L2692.24 33H2690.2ZM2702.24 33V21.64H2704.31V26.264H2705.78L2708.45 21.64H2710.69L2707.48 27.048V27.08L2710.88 33H2708.55L2705.78 28.04H2704.31V33H2702.24ZM2712.45 33V21.64H2719.25V23.416H2714.51V26.392H2718.33V28.168H2714.51V31.224H2719.5V33H2712.45ZM2725.56 33V21.64H2727.62V28.2L2727.51 29.96H2727.54C2727.9 29.224 2728.22 28.632 2728.5 28.184L2732.79 21.64H2734.84V33H2732.79V26.456L2732.9 24.696H2732.87C2732.52 25.4213 2732.2 26.008 2731.92 26.456L2727.6 33H2725.56ZM2737.6 33V21.64H2739.67V26.456H2744.87V21.64H2746.91V33H2744.87V28.232H2739.67V33H2737.6ZM2748.82 26.952C2748.82 25.5653 2749.3 24.4347 2750.26 23.56C2751.23 22.6853 2752.48 22.248 2754.02 22.248V21H2756.08V22.248C2757.62 22.248 2758.87 22.6853 2759.83 23.56C2760.8 24.4347 2761.28 25.5653 2761.28 26.952C2761.28 28.3707 2760.8 29.528 2759.84 30.424C2758.88 31.3093 2757.63 31.752 2756.08 31.752V33.192H2754.02V31.752C2752.48 31.752 2751.23 31.304 2750.26 30.408C2749.3 29.512 2748.82 28.36 2748.82 26.952ZM2756.08 30.024C2757 30.024 2757.75 29.7413 2758.32 29.176C2758.9 28.6 2759.19 27.8587 2759.19 26.952C2759.19 26.0667 2758.9 25.352 2758.32 24.808C2757.75 24.2533 2757 23.976 2756.08 23.976V30.024ZM2750.93 26.952C2750.93 27.8587 2751.21 28.6 2751.78 29.176C2752.35 29.7413 2753.1 30.024 2754.02 30.024V23.976C2753.1 23.976 2752.35 24.2533 2751.78 24.808C2751.21 25.352 2750.93 26.0667 2750.93 26.952ZM2763.18 33V21.64H2769.98V23.416H2765.24V26.392H2769.07V28.168H2765.24V31.224H2770.24V33H2763.18ZM2772.29 33V21.64H2774.35V26.264H2775.83L2778.5 21.64H2780.74L2777.52 27.048V27.08L2780.93 33H2778.59L2775.83 28.04H2774.35V33H2772.29ZM2782.49 33V21.64H2784.56V31.224H2789.47V21.64H2791.53V31.224H2792.88V35.24H2791.04V33H2782.49ZM2794.84 33V21.64H2796.9V28.2L2796.79 29.96H2796.82C2797.18 29.224 2797.5 28.632 2797.78 28.184L2802.07 21.64H2804.12V33H2802.07V26.456L2802.18 24.696H2802.15C2801.8 25.4213 2801.48 26.008 2801.2 26.456L2796.88 33H2794.84ZM2813.48 20.536C2812.96 20.9307 2812.35 21.128 2811.62 21.128C2810.89 21.128 2810.28 20.9307 2809.76 20.536C2809.25 20.1307 2809 19.592 2809 18.92V18.712H2810.55V18.92C2810.55 19.24 2810.65 19.4907 2810.87 19.672C2811.08 19.8427 2811.33 19.928 2811.62 19.928C2811.91 19.928 2812.16 19.8427 2812.37 19.672C2812.6 19.4907 2812.71 19.2347 2812.71 18.904V18.712H2814.24V18.92C2814.24 19.592 2813.99 20.1307 2813.48 20.536ZM2806.88 33V21.64H2808.95V28.2L2808.84 29.96H2808.87C2809.23 29.224 2809.55 28.632 2809.83 28.184L2814.12 21.64H2816.16V33H2814.12V26.456L2814.23 24.696H2814.2C2813.84 25.4213 2813.53 26.008 2813.25 26.456L2808.93 33H2806.88Z" fill="#005DFF"/>
</svg>
