<svg width="2845" height="55" viewBox="0 0 2845 55" fill="none" xmlns="http://www.w3.org/2000/svg">
<rect width="279" height="55" rx="27.5" fill="#F3F6FF"/>
<path d="M24.7214 31.448L25.7614 29.992C26.1774 30.3867 26.6841 30.7067 27.2814 30.952C27.8788 31.1973 28.4974 31.32 29.1374 31.32C30.1401 31.32 30.9721 31.0213 31.6334 30.424C32.2948 29.8267 32.6948 29.0693 32.8334 28.152H27.3934V26.472H32.8494C32.7321 25.5547 32.3374 24.8027 31.6654 24.216C30.9934 23.6187 30.1561 23.32 29.1534 23.32C27.9801 23.32 26.9028 23.7467 25.9214 24.6L24.9294 23.048C25.4414 22.5253 26.0761 22.1307 26.8334 21.864C27.5908 21.5867 28.3854 21.448 29.2174 21.448C30.9561 21.448 32.3588 22.0027 33.4254 23.112C34.4921 24.2213 35.0254 25.6027 35.0254 27.256C35.0254 28.952 34.4708 30.3653 33.3614 31.496C32.2521 32.6267 30.8441 33.192 29.1374 33.192C27.4094 33.192 25.9374 32.6107 24.7214 31.448ZM35.6381 31.24C36.4914 31.1227 37.1101 30.5573 37.4941 29.544C37.8887 28.52 38.0861 26.92 38.0861 24.744V21.64H45.1101V33H43.0461V23.416H40.0541V24.776C40.0541 27.5707 39.7074 29.6507 39.0141 31.016C38.3207 32.3707 37.1954 33.0747 35.6381 33.128V31.24ZM47.8682 33V21.64H54.6682V23.416H49.9322V26.392H53.7562V28.168H49.9322V31.224H54.9242V33H47.8682ZM56.9776 33V21.64H59.0416V26.264H60.5136L63.1856 21.64H65.4256L62.2096 27.048V27.08L65.6176 33H63.2816L60.5136 28.04H59.0416V33H56.9776ZM69.7567 33V23.416H66.0287V21.64H75.5327V23.416H71.8047V33H69.7567ZM77.1494 33V21.64H81.5334C82.6001 21.64 83.4694 21.9813 84.1414 22.664C84.8134 23.3467 85.1494 24.2373 85.1494 25.336C85.1494 26.4347 84.8134 27.336 84.1414 28.04C83.4694 28.7333 82.6001 29.08 81.5334 29.08H79.2134V33H77.1494ZM79.2134 27.288H81.1494C81.7468 27.288 82.2108 27.112 82.5414 26.76C82.8828 26.408 83.0534 25.9333 83.0534 25.336C83.0534 24.7493 82.8828 24.2853 82.5414 23.944C82.2108 23.592 81.7574 23.416 81.1814 23.416H79.2134V27.288ZM86.2743 27.24C86.2743 25.608 86.8343 24.2373 87.9543 23.128C89.085 22.008 90.4823 21.448 92.1463 21.448C93.8103 21.448 95.2023 22.008 96.3223 23.128C97.453 24.2373 98.0183 25.608 98.0183 27.24C98.0183 28.9147 97.453 30.328 96.3223 31.48C95.2023 32.6213 93.8103 33.192 92.1463 33.192C90.4823 33.192 89.085 32.6213 87.9543 31.48C86.8343 30.328 86.2743 28.9147 86.2743 27.24ZM88.4023 27.24C88.4023 28.392 88.765 29.3573 89.4903 30.136C90.2156 30.9147 91.101 31.304 92.1463 31.304C93.1916 31.304 94.077 30.9147 94.8023 30.136C95.5276 29.3573 95.8903 28.392 95.8903 27.24C95.8903 26.1413 95.5276 25.2187 94.8023 24.472C94.077 23.7147 93.1916 23.336 92.1463 23.336C91.101 23.336 90.2156 23.7147 89.4903 24.472C88.765 25.2187 88.4023 26.1413 88.4023 27.24ZM100.103 33V21.64H102.167V26.456H107.367V21.64H109.415V33H107.367V28.232H102.167V33H100.103ZM112.165 33V21.64H114.229V26.456H119.429V21.64H121.477V33H119.429V28.232H114.229V33H112.165ZM122.98 33L126.964 21.64H129.14L133.124 33H131.012L130.036 30.088H126.052L125.092 33H122.98ZM126.564 28.408H129.524L128.516 25.368L128.068 23.608H128.036C127.865 24.3547 127.716 24.9413 127.588 25.368L126.564 28.408ZM133.53 33L135.93 29L136.298 28.408V28.376C135.626 28.0773 135.119 27.64 134.778 27.064C134.447 26.488 134.282 25.8267 134.282 25.08C134.282 24.312 134.452 23.6613 134.794 23.128C135.146 22.584 135.61 22.1893 136.186 21.944C136.655 21.7413 137.375 21.64 138.346 21.64H142.026V33H139.962V28.76H138.298L135.834 33H133.53ZM138.17 27.032H139.962V23.416H138.506C137.866 23.416 137.391 23.512 137.082 23.704C136.612 23.992 136.378 24.4773 136.378 25.16C136.378 25.7573 136.538 26.2213 136.858 26.552C137.178 26.872 137.615 27.032 138.17 27.032ZM148.774 33V21.64H155.75V23.416H150.838V26.04H153.11C154.166 26.04 155.02 26.36 155.67 27C156.332 27.6293 156.662 28.4773 156.662 29.544C156.662 30.568 156.337 31.4 155.686 32.04C155.036 32.68 154.193 33 153.158 33H148.774ZM150.838 31.224H152.79C153.356 31.224 153.793 31.0747 154.102 30.776C154.412 30.4773 154.566 30.0667 154.566 29.544C154.566 29.0213 154.406 28.6053 154.086 28.296C153.766 27.976 153.324 27.816 152.758 27.816H150.838V31.224ZM158.634 33V21.64H160.698V28.2L160.586 29.96H160.618C160.98 29.224 161.3 28.632 161.578 28.184L165.866 21.64H167.914V33H165.866V26.456L165.978 24.696H165.946C165.594 25.4213 165.279 26.008 165.002 26.456L160.682 33H158.634ZM170.681 33V21.64H177.657V23.416H172.745V26.04H175.017C176.073 26.04 176.926 26.36 177.577 27C178.238 27.6293 178.569 28.4773 178.569 29.544C178.569 30.568 178.243 31.4 177.593 32.04C176.942 32.68 176.099 33 175.065 33H170.681ZM172.745 31.224H174.697C175.262 31.224 175.699 31.0747 176.009 30.776C176.318 30.4773 176.473 30.0667 176.473 29.544C176.473 29.0213 176.313 28.6053 175.993 28.296C175.673 27.976 175.23 27.816 174.665 27.816H172.745V31.224ZM179.388 31.24C180.241 31.1227 180.86 30.5573 181.244 29.544C181.639 28.52 181.836 26.92 181.836 24.744V21.64H188.86V33H186.796V23.416H183.804V24.776C183.804 27.5707 183.457 29.6507 182.764 31.016C182.071 32.3707 180.945 33.0747 179.388 33.128V31.24ZM191.618 33V21.64H193.682V28.2L193.57 29.96H193.602C193.965 29.224 194.285 28.632 194.562 28.184L198.85 21.64H200.898V33H198.85V26.456L198.962 24.696H198.93C198.578 25.4213 198.264 26.008 197.986 26.456L193.666 33H191.618ZM202.993 27.24C202.993 25.608 203.553 24.2373 204.673 23.128C205.804 22.008 207.201 21.448 208.865 21.448C210.529 21.448 211.921 22.008 213.041 23.128C214.172 24.2373 214.737 25.608 214.737 27.24C214.737 28.9147 214.172 30.328 213.041 31.48C211.921 32.6213 210.529 33.192 208.865 33.192C207.201 33.192 205.804 32.6213 204.673 31.48C203.553 30.328 202.993 28.9147 202.993 27.24ZM205.121 27.24C205.121 28.392 205.484 29.3573 206.209 30.136C206.934 30.9147 207.82 31.304 208.865 31.304C209.91 31.304 210.796 30.9147 211.521 30.136C212.246 29.3573 212.609 28.392 212.609 27.24C212.609 26.1413 212.246 25.2187 211.521 24.472C210.796 23.7147 209.91 23.336 208.865 23.336C207.82 23.336 206.934 23.7147 206.209 24.472C205.484 25.2187 205.121 26.1413 205.121 27.24ZM218.991 33V23.416H215.263V21.64H224.767V23.416H221.039V33H218.991ZM226.384 33V21.64H233.184V23.416H228.448V26.392H232.272V28.168H228.448V31.224H233.44V33H226.384ZM235.493 33V21.64H237.557V26.264H239.029L241.701 21.64H243.941L240.725 27.048V27.08L244.133 33H241.797L239.029 28.04H237.557V33H235.493ZM244.448 33L248.432 21.64H250.608L254.592 33H252.48L251.504 30.088H247.52L246.56 33H244.448ZM248.032 28.408H250.992L249.984 25.368L249.536 23.608H249.504C249.334 24.3547 249.184 24.9413 249.056 25.368L248.032 28.408Z" fill="#005DFF"/>
<rect x="289" width="248" height="55" rx="27.5" fill="#F3F6FF"/>
<path d="M314.853 33V21.64H316.917V26.264H318.389L321.061 21.64H323.301L320.085 27.048V27.08L323.493 33H321.157L318.389 28.04H316.917V33H314.853ZM323.904 31.24C324.757 31.1227 325.376 30.5573 325.76 29.544C326.154 28.52 326.352 26.92 326.352 24.744V21.64H333.376V33H331.312V23.416H328.32V24.776C328.32 27.5707 327.973 29.6507 327.28 31.016C326.586 32.3707 325.461 33.0747 323.904 33.128V31.24ZM336.134 33V21.64H338.198V28.2L338.086 29.96H338.118C338.48 29.224 338.8 28.632 339.078 28.184L343.366 21.64H345.414V33H343.366V26.456L343.478 24.696H343.446C343.094 25.4213 342.779 26.008 342.502 26.456L338.182 33H336.134ZM348.181 33V21.64H350.245V26.456H355.445V21.64H357.493V33H355.445V28.232H350.245V33H348.181ZM360.243 33V21.64H362.307V28.2L362.195 29.96H362.227C362.59 29.224 362.91 28.632 363.187 28.184L367.475 21.64H369.523V33H367.475V26.456L367.587 24.696H367.555C367.203 25.4213 366.889 26.008 366.611 26.456L362.291 33H360.243ZM375.122 28.776C373.959 28.776 373.09 28.4827 372.514 27.896C371.938 27.2987 371.65 26.456 371.65 25.368V21.64H373.746V24.904C373.746 26.2373 374.381 26.904 375.65 26.904C376.514 26.904 377.293 26.68 377.986 26.232V21.64H380.082V33H377.986V28.6L378.018 28.072H377.986C377.069 28.5413 376.114 28.776 375.122 28.776ZM382.853 33V21.64H389.653V23.416H384.917V26.392H388.741V28.168H384.917V31.224H389.909V33H382.853ZM391.103 27.272C391.103 25.608 391.652 24.2213 392.751 23.112C393.849 22.0027 395.247 21.448 396.943 21.448C398.671 21.448 400.068 21.9653 401.135 23L400.143 24.536C399.727 24.184 399.236 23.896 398.671 23.672C398.116 23.448 397.572 23.336 397.039 23.336C395.844 23.336 394.911 23.7093 394.239 24.456C393.567 25.2027 393.231 26.1307 393.231 27.24C393.231 28.36 393.572 29.32 394.255 30.12C394.937 30.9093 395.871 31.304 397.055 31.304C398.271 31.304 399.369 30.824 400.351 29.864L401.439 31.352C400.233 32.5787 398.745 33.192 396.975 33.192C395.215 33.192 393.796 32.632 392.719 31.512C391.641 30.392 391.103 28.9787 391.103 27.272ZM403.212 33V21.64H405.276V26.264H406.748L409.42 21.64H411.66L408.444 27.048V27.08L411.852 33H409.516L406.748 28.04H405.276V33H403.212ZM413.415 33V21.64H415.479V28.2L415.367 29.96H415.399C415.762 29.224 416.082 28.632 416.359 28.184L420.647 21.64H422.695V33H420.647V26.456L420.759 24.696H420.727C420.375 25.4213 420.06 26.008 419.783 26.456L415.463 33H413.415ZM425.462 33V21.64H432.262V23.416H427.526V26.392H431.35V28.168H427.526V31.224H432.518V33H425.462ZM438.571 33V21.64H442.955C444.022 21.64 444.891 21.9813 445.563 22.664C446.235 23.3467 446.571 24.2373 446.571 25.336C446.571 26.4347 446.235 27.336 445.563 28.04C444.891 28.7333 444.022 29.08 442.955 29.08H440.635V33H438.571ZM440.635 27.288H442.571C443.169 27.288 443.633 27.112 443.963 26.76C444.305 26.408 444.475 25.9333 444.475 25.336C444.475 24.7493 444.305 24.2853 443.963 23.944C443.633 23.592 443.179 23.416 442.603 23.416H440.635V27.288ZM446.542 33L450.526 21.64H452.702L456.686 33H454.574L453.598 30.088H449.614L448.654 33H446.542ZM450.126 28.408H453.086L452.078 25.368L451.63 23.608H451.598C451.427 24.3547 451.278 24.9413 451.15 25.368L450.126 28.408ZM457.172 31.576L458.292 30.2C458.602 30.5307 458.986 30.808 459.444 31.032C459.903 31.256 460.372 31.368 460.852 31.368C461.471 31.368 461.962 31.2133 462.324 30.904C462.687 30.5947 462.868 30.168 462.868 29.624C462.868 29.1333 462.703 28.7493 462.372 28.472C462.052 28.184 461.615 28.04 461.06 28.04H459.668V26.376H460.788C461.3 26.376 461.722 26.2267 462.052 25.928C462.383 25.6293 462.548 25.256 462.548 24.808C462.548 24.3493 462.399 23.976 462.1 23.688C461.802 23.3893 461.37 23.24 460.804 23.24C459.94 23.24 459.119 23.56 458.34 24.2L457.508 22.696C458.511 21.864 459.727 21.448 461.156 21.448C462.127 21.448 462.948 21.7253 463.62 22.28C464.303 22.8347 464.644 23.592 464.644 24.552C464.644 25.672 464.122 26.5147 463.076 27.08V27.112C463.663 27.2933 464.127 27.6133 464.468 28.072C464.81 28.5307 464.98 29.0907 464.98 29.752C464.98 30.7973 464.602 31.6347 463.844 32.264C463.098 32.8827 462.164 33.192 461.044 33.192C460.319 33.192 459.61 33.0533 458.916 32.776C458.234 32.488 457.652 32.088 457.172 31.576ZM467.071 33V21.64H474.047V23.416H469.135V26.04H471.407C472.463 26.04 473.317 26.36 473.967 27C474.629 27.6293 474.959 28.4773 474.959 29.544C474.959 30.568 474.634 31.4 473.983 32.04C473.333 32.68 472.49 33 471.455 33H467.071ZM469.135 31.224H471.087C471.653 31.224 472.09 31.0747 472.399 30.776C472.709 30.4773 472.863 30.0667 472.863 29.544C472.863 29.0213 472.703 28.6053 472.383 28.296C472.063 27.976 471.621 27.816 471.055 27.816H469.135V31.224ZM476.259 27.24C476.259 25.608 476.819 24.2373 477.939 23.128C479.069 22.008 480.467 21.448 482.131 21.448C483.795 21.448 485.187 22.008 486.307 23.128C487.437 24.2373 488.003 25.608 488.003 27.24C488.003 28.9147 487.437 30.328 486.307 31.48C485.187 32.6213 483.795 33.192 482.131 33.192C480.467 33.192 479.069 32.6213 477.939 31.48C476.819 30.328 476.259 28.9147 476.259 27.24ZM478.387 27.24C478.387 28.392 478.749 29.3573 479.475 30.136C480.2 30.9147 481.085 31.304 482.131 31.304C483.176 31.304 484.061 30.9147 484.787 30.136C485.512 29.3573 485.875 28.392 485.875 27.24C485.875 26.1413 485.512 25.2187 484.787 24.472C484.061 23.7147 483.176 23.336 482.131 23.336C481.085 23.336 480.2 23.7147 479.475 24.472C478.749 25.2187 478.387 26.1413 478.387 27.24ZM490.087 33V21.64H494.471C495.538 21.64 496.407 21.9813 497.079 22.664C497.751 23.3467 498.087 24.2373 498.087 25.336C498.087 26.4347 497.751 27.336 497.079 28.04C496.407 28.7333 495.538 29.08 494.471 29.08H492.151V33H490.087ZM492.151 27.288H494.087C494.684 27.288 495.148 27.112 495.479 26.76C495.82 26.408 495.991 25.9333 495.991 25.336C495.991 24.7493 495.82 24.2853 495.479 23.944C495.148 23.592 494.695 23.416 494.119 23.416H492.151V27.288ZM509.084 33V21.64H511.132V33H509.084ZM499.884 33V21.64H501.948V25.624H504.06C505.116 25.624 505.969 25.9653 506.62 26.648C507.281 27.32 507.612 28.216 507.612 29.336C507.612 30.424 507.286 31.3093 506.636 31.992C505.985 32.664 505.142 33 504.108 33H499.884ZM501.948 31.224H503.74C504.305 31.224 504.742 31.0587 505.052 30.728C505.361 30.3867 505.516 29.9227 505.516 29.336C505.516 28.7493 505.356 28.28 505.036 27.928C504.716 27.576 504.273 27.4 503.708 27.4H501.948V31.224Z" fill="#252525"/>
<rect x="547" width="206" height="55" rx="27.5" fill="#F3F6FF"/>
<path d="M572.478 33V21.64H581.678V33H579.614V23.416H574.542V33H572.478ZM583.759 27.24C583.759 25.608 584.319 24.2373 585.439 23.128C586.569 22.008 587.967 21.448 589.631 21.448C591.295 21.448 592.687 22.008 593.807 23.128C594.937 24.2373 595.503 25.608 595.503 27.24C595.503 28.9147 594.937 30.328 593.807 31.48C592.687 32.6213 591.295 33.192 589.631 33.192C587.967 33.192 586.569 32.6213 585.439 31.48C584.319 30.328 583.759 28.9147 583.759 27.24ZM585.887 27.24C585.887 28.392 586.249 29.3573 586.975 30.136C587.7 30.9147 588.585 31.304 589.631 31.304C590.676 31.304 591.561 30.9147 592.287 30.136C593.012 29.3573 593.375 28.392 593.375 27.24C593.375 26.1413 593.012 25.2187 592.287 24.472C591.561 23.7147 590.676 23.336 589.631 23.336C588.585 23.336 587.7 23.7147 586.975 24.472C586.249 25.2187 585.887 26.1413 585.887 27.24ZM596.931 27.272C596.931 25.608 597.48 24.2213 598.579 23.112C599.678 22.0027 601.075 21.448 602.771 21.448C604.499 21.448 605.896 21.9653 606.963 23L605.971 24.536C605.555 24.184 605.064 23.896 604.499 23.672C603.944 23.448 603.4 23.336 602.867 23.336C601.672 23.336 600.739 23.7093 600.067 24.456C599.395 25.2027 599.059 26.1307 599.059 27.24C599.059 28.36 599.4 29.32 600.083 30.12C600.766 30.9093 601.699 31.304 602.883 31.304C604.099 31.304 605.198 30.824 606.179 29.864L607.267 31.352C606.062 32.5787 604.574 33.192 602.803 33.192C601.043 33.192 599.624 32.632 598.547 31.512C597.47 30.392 596.931 28.9787 596.931 27.272ZM611.616 33V23.416H607.888V21.64H617.392V23.416H613.664V33H611.616ZM616.823 33L620.807 21.64H622.983L626.967 33H624.855L623.879 30.088H619.895L618.935 33H616.823ZM620.407 28.408H623.367L622.359 25.368L621.911 23.608H621.879C621.709 24.3547 621.559 24.9413 621.431 25.368L620.407 28.408ZM628.478 33V21.64H630.542V26.456H635.742V21.64H637.79V33H635.742V28.232H630.542V33H628.478ZM639.868 27.24C639.868 25.608 640.428 24.2373 641.548 23.128C642.679 22.008 644.076 21.448 645.74 21.448C647.404 21.448 648.796 22.008 649.916 23.128C651.047 24.2373 651.612 25.608 651.612 27.24C651.612 28.9147 651.047 30.328 649.916 31.48C648.796 32.6213 647.404 33.192 645.74 33.192C644.076 33.192 642.679 32.6213 641.548 31.48C640.428 30.328 639.868 28.9147 639.868 27.24ZM641.996 27.24C641.996 28.392 642.359 29.3573 643.084 30.136C643.809 30.9147 644.695 31.304 645.74 31.304C646.785 31.304 647.671 30.9147 648.396 30.136C649.121 29.3573 649.484 28.392 649.484 27.24C649.484 26.1413 649.121 25.2187 648.396 24.472C647.671 23.7147 646.785 23.336 645.74 23.336C644.695 23.336 643.809 23.7147 643.084 24.472C642.359 25.2187 641.996 26.1413 641.996 27.24ZM653.696 33V21.64H657.744C658.8 21.64 659.648 21.9013 660.288 22.424C660.939 22.936 661.264 23.6507 661.264 24.568C661.264 25.1013 661.142 25.5813 660.896 26.008C660.651 26.4347 660.315 26.7653 659.888 27V27.032C660.486 27.2027 660.939 27.5387 661.248 28.04C661.568 28.5413 661.728 29.096 661.728 29.704C661.728 30.7813 661.355 31.6027 660.608 32.168C659.862 32.7227 658.928 33 657.808 33H653.696ZM655.76 26.28H657.76C658.198 26.28 658.539 26.1467 658.784 25.88C659.04 25.6027 659.168 25.2507 659.168 24.824C659.168 24.408 659.04 24.072 658.784 23.816C658.539 23.5493 658.187 23.416 657.728 23.416H655.76V26.28ZM655.76 31.224H657.968C658.48 31.224 658.88 31.0747 659.168 30.776C659.467 30.4667 659.616 30.0667 659.616 29.576C659.616 29.096 659.467 28.7067 659.168 28.408C658.88 28.0987 658.48 27.944 657.968 27.944H655.76V31.224ZM663.821 33V21.64H665.885V26.264H667.357L670.029 21.64H672.269L669.053 27.048V27.08L672.461 33H670.125L667.357 28.04H665.885V33H663.821ZM672.776 33L676.76 21.64H678.936L682.92 33H680.808L679.832 30.088H675.848L674.888 33H672.776ZM676.36 28.408H679.32L678.312 25.368L677.864 23.608H677.832C677.662 24.3547 677.512 24.9413 677.384 25.368L676.36 28.408ZM688.431 33V21.64H692.815C693.881 21.64 694.751 21.9813 695.423 22.664C696.095 23.3467 696.431 24.2373 696.431 25.336C696.431 26.4347 696.095 27.336 695.423 28.04C694.751 28.7333 693.881 29.08 692.815 29.08H690.495V33H688.431ZM690.495 27.288H692.431C693.028 27.288 693.492 27.112 693.823 26.76C694.164 26.408 694.335 25.9333 694.335 25.336C694.335 24.7493 694.164 24.2853 693.823 23.944C693.492 23.592 693.039 23.416 692.463 23.416H690.495V27.288ZM697.924 32.408L698.836 30.856C699.316 31.2293 699.742 31.416 700.116 31.416C700.617 31.416 700.996 31.0853 701.252 30.424L696.804 21.64H699.076L701.492 26.712L702.132 28.216H702.164C702.302 27.7147 702.457 27.2187 702.628 26.728L704.452 21.64H706.612L703.108 30.616C702.969 30.968 702.825 31.2773 702.676 31.544C702.526 31.8107 702.334 32.0773 702.1 32.344C701.865 32.6107 701.588 32.8187 701.268 32.968C700.948 33.1173 700.59 33.192 700.196 33.192C699.428 33.192 698.67 32.9307 697.924 32.408ZM708.024 33V21.64H710.088V26.264H711.56L714.232 21.64H716.472L713.256 27.048V27.08L716.664 33H714.328L711.56 28.04H710.088V33H708.024ZM718.228 33V21.64H720.292V28.2L720.18 29.96H720.212C720.574 29.224 720.894 28.632 721.172 28.184L725.46 21.64H727.508V33H725.46V26.456L725.572 24.696H725.54C725.188 25.4213 724.873 26.008 724.596 26.456L720.276 33H718.228Z" fill="#005DFF"/>
<rect x="763" width="820" height="55" rx="27.5" fill="#F3F6FF"/>
<path d="M788.455 32.408L789.367 30.856C789.847 31.2293 790.273 31.416 790.647 31.416C791.148 31.416 791.527 31.0853 791.783 30.424L787.335 21.64H789.607L792.023 26.712L792.663 28.216H792.695C792.833 27.7147 792.988 27.2187 793.159 26.728L794.983 21.64H797.143L793.639 30.616C793.5 30.968 793.356 31.2773 793.207 31.544C793.057 31.8107 792.865 32.0773 792.631 32.344C792.396 32.6107 792.119 32.8187 791.799 32.968C791.479 33.1173 791.121 33.192 790.727 33.192C789.959 33.192 789.201 32.9307 788.455 32.408ZM796.716 31.24C797.57 31.1227 798.188 30.5573 798.572 29.544C798.967 28.52 799.164 26.92 799.164 24.744V21.64H806.188V33H804.124V23.416H801.132V24.776C801.132 27.5707 800.786 29.6507 800.092 31.016C799.399 32.3707 798.274 33.0747 796.716 33.128V31.24ZM808.946 33V21.64H811.01V25.624H813.234C814.28 25.624 815.133 25.9653 815.794 26.648C816.456 27.32 816.786 28.216 816.786 29.336C816.786 30.424 816.461 31.3093 815.81 31.992C815.16 32.664 814.312 33 813.266 33H808.946ZM811.01 31.224H812.898C813.464 31.224 813.901 31.0587 814.21 30.728C814.53 30.3867 814.69 29.9227 814.69 29.336C814.69 28.7493 814.525 28.28 814.194 27.928C813.874 27.576 813.432 27.4 812.866 27.4H811.01V31.224ZM820.1 33V23.416H816.372V21.64H825.876V23.416H822.148V33H820.1ZM827.493 33V21.64H831.877C832.944 21.64 833.813 21.9813 834.485 22.664C835.157 23.3467 835.493 24.2373 835.493 25.336C835.493 26.4347 835.157 27.336 834.485 28.04C833.813 28.7333 832.944 29.08 831.877 29.08H829.557V33H827.493ZM829.557 27.288H831.493C832.091 27.288 832.555 27.112 832.885 26.76C833.227 26.408 833.397 25.9333 833.397 25.336C833.397 24.7493 833.227 24.2853 832.885 23.944C832.555 23.592 832.101 23.416 831.525 23.416H829.557V27.288ZM835.464 33L839.448 21.64H841.624L845.608 33H843.496L842.52 30.088H838.536L837.576 33H835.464ZM839.048 28.408H842.008L841 25.368L840.552 23.608H840.52C840.349 24.3547 840.2 24.9413 840.072 25.368L839.048 28.408ZM846.094 31.576L847.214 30.2C847.524 30.5307 847.908 30.808 848.366 31.032C848.825 31.256 849.294 31.368 849.774 31.368C850.393 31.368 850.884 31.2133 851.246 30.904C851.609 30.5947 851.79 30.168 851.79 29.624C851.79 29.1333 851.625 28.7493 851.294 28.472C850.974 28.184 850.537 28.04 849.982 28.04H848.59V26.376H849.71C850.222 26.376 850.644 26.2267 850.974 25.928C851.305 25.6293 851.47 25.256 851.47 24.808C851.47 24.3493 851.321 23.976 851.022 23.688C850.724 23.3893 850.292 23.24 849.726 23.24C848.862 23.24 848.041 23.56 847.262 24.2L846.43 22.696C847.433 21.864 848.649 21.448 850.078 21.448C851.049 21.448 851.87 21.7253 852.542 22.28C853.225 22.8347 853.566 23.592 853.566 24.552C853.566 25.672 853.044 26.5147 851.998 27.08V27.112C852.585 27.2933 853.049 27.6133 853.39 28.072C853.732 28.5307 853.902 29.0907 853.902 29.752C853.902 30.7973 853.524 31.6347 852.766 32.264C852.02 32.8827 851.086 33.192 849.966 33.192C849.241 33.192 848.532 33.0533 847.838 32.776C847.156 32.488 846.574 32.088 846.094 31.576ZM855.993 33V21.64H860.041C861.097 21.64 861.945 21.9013 862.585 22.424C863.236 22.936 863.561 23.6507 863.561 24.568C863.561 25.1013 863.439 25.5813 863.193 26.008C862.948 26.4347 862.612 26.7653 862.185 27V27.032C862.783 27.2027 863.236 27.5387 863.545 28.04C863.865 28.5413 864.025 29.096 864.025 29.704C864.025 30.7813 863.652 31.6027 862.905 32.168C862.159 32.7227 861.225 33 860.105 33H855.993ZM858.057 26.28H860.057C860.495 26.28 860.836 26.1467 861.081 25.88C861.337 25.6027 861.465 25.2507 861.465 24.824C861.465 24.408 861.337 24.072 861.081 23.816C860.836 23.5493 860.484 23.416 860.025 23.416H858.057V26.28ZM858.057 31.224H860.265C860.777 31.224 861.177 31.0747 861.465 30.776C861.764 30.4667 861.913 30.0667 861.913 29.576C861.913 29.096 861.764 28.7067 861.465 28.408C861.177 28.0987 860.777 27.944 860.265 27.944H858.057V31.224ZM865.674 32.408L866.586 30.856C867.066 31.2293 867.492 31.416 867.866 31.416C868.367 31.416 868.746 31.0853 869.002 30.424L864.554 21.64H866.826L869.242 26.712L869.882 28.216H869.914C870.052 27.7147 870.207 27.2187 870.378 26.728L872.202 21.64H874.362L870.858 30.616C870.719 30.968 870.575 31.2773 870.426 31.544C870.276 31.8107 870.084 32.0773 869.85 32.344C869.615 32.6107 869.338 32.8187 869.018 32.968C868.698 33.1173 868.34 33.192 867.946 33.192C867.178 33.192 866.42 32.9307 865.674 32.408ZM875.774 33V21.64H877.838V26.264H879.31L881.982 21.64H884.222L881.006 27.048V27.08L884.414 33H882.078L879.31 28.04H877.838V33H875.774ZM885.009 27.24C885.009 25.608 885.569 24.2373 886.689 23.128C887.819 22.008 889.217 21.448 890.881 21.448C892.545 21.448 893.937 22.008 895.057 23.128C896.187 24.2373 896.753 25.608 896.753 27.24C896.753 28.9147 896.187 30.328 895.057 31.48C893.937 32.6213 892.545 33.192 890.881 33.192C889.217 33.192 887.819 32.6213 886.689 31.48C885.569 30.328 885.009 28.9147 885.009 27.24ZM887.137 27.24C887.137 28.392 887.499 29.3573 888.225 30.136C888.95 30.9147 889.835 31.304 890.881 31.304C891.926 31.304 892.811 30.9147 893.537 30.136C894.262 29.3573 894.625 28.392 894.625 27.24C894.625 26.1413 894.262 25.2187 893.537 24.472C892.811 23.7147 891.926 23.336 890.881 23.336C889.835 23.336 888.95 23.7147 888.225 24.472C887.499 25.2187 887.137 26.1413 887.137 27.24ZM898.837 33V21.64H902.885C903.941 21.64 904.789 21.9013 905.429 22.424C906.08 22.936 906.405 23.6507 906.405 24.568C906.405 25.1013 906.282 25.5813 906.037 26.008C905.792 26.4347 905.456 26.7653 905.029 27V27.032C905.626 27.2027 906.08 27.5387 906.389 28.04C906.709 28.5413 906.869 29.096 906.869 29.704C906.869 30.7813 906.496 31.6027 905.749 32.168C905.002 32.7227 904.069 33 902.949 33H898.837ZM900.901 26.28H902.901C903.338 26.28 903.68 26.1467 903.925 25.88C904.181 25.6027 904.309 25.2507 904.309 24.824C904.309 24.408 904.181 24.072 903.925 23.816C903.68 23.5493 903.328 23.416 902.869 23.416H900.901V26.28ZM900.901 31.224H903.109C903.621 31.224 904.021 31.0747 904.309 30.776C904.608 30.4667 904.757 30.0667 904.757 29.576C904.757 29.096 904.608 28.7067 904.309 28.408C904.021 28.0987 903.621 27.944 903.109 27.944H900.901V31.224ZM907.589 33L911.573 21.64H913.749L917.733 33H915.621L914.645 30.088H910.661L909.701 33H907.589ZM911.173 28.408H914.133L913.125 25.368L912.677 23.608H912.645C912.474 24.3547 912.325 24.9413 912.197 25.368L911.173 28.408ZM918.139 33L920.539 29L920.907 28.408V28.376C920.235 28.0773 919.729 27.64 919.387 27.064C919.057 26.488 918.891 25.8267 918.891 25.08C918.891 24.312 919.062 23.6613 919.403 23.128C919.755 22.584 920.219 22.1893 920.795 21.944C921.265 21.7413 921.985 21.64 922.955 21.64H926.635V33H924.571V28.76H922.907L920.443 33H918.139ZM922.779 27.032H924.571V23.416H923.115C922.475 23.416 922.001 23.512 921.691 23.704C921.222 23.992 920.987 24.4773 920.987 25.16C920.987 25.7573 921.147 26.2213 921.467 26.552C921.787 26.872 922.225 27.032 922.779 27.032ZM935.4 31.224H939.912V23.416H936.872V24.264C936.872 27.3147 936.381 29.6347 935.4 31.224ZM932.12 31.224H933.272C934.37 29.56 934.92 27.192 934.92 24.12V21.64H941.976V31.224H943.24V35.24H941.4V33H934.024V35.24H932.12V31.224ZM945.228 33V21.64H947.292V28.2L947.18 29.96H947.212C947.574 29.224 947.894 28.632 948.172 28.184L952.46 21.64H954.508V33H952.46V26.456L952.572 24.696H952.54C952.188 25.4213 951.873 26.008 951.596 26.456L947.276 33H945.228ZM956.026 33L960.01 21.64H962.186L966.17 33H964.058L963.082 30.088H959.098L958.138 33H956.026ZM959.61 28.408H962.57L961.562 25.368L961.114 23.608H961.082C960.912 24.3547 960.762 24.9413 960.634 25.368L959.61 28.408ZM967.681 33V21.64H974.209V23.416H969.745V33H967.681ZM975.774 33V21.64H977.838V26.456H983.038V21.64H985.086V33H983.038V28.232H977.838V33H975.774ZM987.165 27.24C987.165 25.608 987.725 24.2373 988.845 23.128C989.976 22.008 991.373 21.448 993.037 21.448C994.701 21.448 996.093 22.008 997.213 23.128C998.344 24.2373 998.909 25.608 998.909 27.24C998.909 28.9147 998.344 30.328 997.213 31.48C996.093 32.6213 994.701 33.192 993.037 33.192C991.373 33.192 989.976 32.6213 988.845 31.48C987.725 30.328 987.165 28.9147 987.165 27.24ZM989.293 27.24C989.293 28.392 989.656 29.3573 990.381 30.136C991.106 30.9147 991.992 31.304 993.037 31.304C994.082 31.304 994.968 30.9147 995.693 30.136C996.418 29.3573 996.781 28.392 996.781 27.24C996.781 26.1413 996.418 25.2187 995.693 24.472C994.968 23.7147 994.082 23.336 993.037 23.336C991.992 23.336 991.106 23.7147 990.381 24.472C989.656 25.2187 989.293 26.1413 989.293 27.24ZM1000.34 27.272C1000.34 25.608 1000.89 24.2213 1001.99 23.112C1003.08 22.0027 1004.48 21.448 1006.18 21.448C1007.91 21.448 1009.3 21.9653 1010.37 23L1009.38 24.536C1008.96 24.184 1008.47 23.896 1007.91 23.672C1007.35 23.448 1006.81 23.336 1006.27 23.336C1005.08 23.336 1004.15 23.7093 1003.47 24.456C1002.8 25.2027 1002.47 26.1307 1002.47 27.24C1002.47 28.36 1002.81 29.32 1003.49 30.12C1004.17 30.9093 1005.11 31.304 1006.29 31.304C1007.51 31.304 1008.6 30.824 1009.59 29.864L1010.67 31.352C1009.47 32.5787 1007.98 33.192 1006.21 33.192C1004.45 33.192 1003.03 32.632 1001.95 31.512C1000.88 30.392 1000.34 28.9787 1000.34 27.272ZM1015.02 33V23.416H1011.29V21.64H1020.8V23.416H1017.07V33H1015.02ZM1022.42 33V21.64H1024.48V28.2L1024.37 29.96H1024.4C1024.76 29.224 1025.08 28.632 1025.36 28.184L1029.65 21.64H1031.7V33H1029.65V26.456L1029.76 24.696H1029.73C1029.38 25.4213 1029.06 26.008 1028.78 26.456L1024.46 33H1022.42ZM1034.46 33V21.64H1036.53V26.264H1038L1040.67 21.64H1042.91L1039.69 27.048V27.08L1043.1 33H1040.77L1038 28.04H1036.53V33H1034.46ZM1043.42 33L1047.4 21.64H1049.58L1053.56 33H1051.45L1050.47 30.088H1046.49L1045.53 33H1043.42ZM1047 28.408H1049.96L1048.95 25.368L1048.51 23.608H1048.47C1048.3 24.3547 1048.15 24.9413 1048.03 25.368L1047 28.408ZM1058.05 31.576L1059.17 30.2C1059.48 30.5307 1059.86 30.808 1060.32 31.032C1060.78 31.256 1061.25 31.368 1061.73 31.368C1062.35 31.368 1062.84 31.2133 1063.2 30.904C1063.56 30.5947 1063.74 30.168 1063.74 29.624C1063.74 29.1333 1063.58 28.7493 1063.25 28.472C1062.93 28.184 1062.49 28.04 1061.94 28.04H1060.54V26.376H1061.66C1062.18 26.376 1062.6 26.2267 1062.93 25.928C1063.26 25.6293 1063.42 25.256 1063.42 24.808C1063.42 24.3493 1063.27 23.976 1062.98 23.688C1062.68 23.3893 1062.24 23.24 1061.68 23.24C1060.82 23.24 1059.99 23.56 1059.22 24.2L1058.38 22.696C1059.39 21.864 1060.6 21.448 1062.03 21.448C1063 21.448 1063.82 21.7253 1064.5 22.28C1065.18 22.8347 1065.52 23.592 1065.52 24.552C1065.52 25.672 1065 26.5147 1063.95 27.08V27.112C1064.54 27.2933 1065 27.6133 1065.34 28.072C1065.68 28.5307 1065.86 29.0907 1065.86 29.752C1065.86 30.7973 1065.48 31.6347 1064.72 32.264C1063.97 32.8827 1063.04 33.192 1061.92 33.192C1061.19 33.192 1060.48 33.0533 1059.79 32.776C1059.11 32.488 1058.53 32.088 1058.05 31.576ZM1066.59 33L1070.57 21.64H1072.75L1076.73 33H1074.62L1073.64 30.088H1069.66L1068.7 33H1066.59ZM1070.17 28.408H1073.13L1072.12 25.368L1071.68 23.608H1071.64C1071.47 24.3547 1071.32 24.9413 1071.2 25.368L1070.17 28.408ZM1078.24 33V21.64H1085.22V23.416H1080.31V26.04H1082.58C1083.64 26.04 1084.49 26.36 1085.14 27C1085.8 27.6293 1086.13 28.4773 1086.13 29.544C1086.13 30.568 1085.81 31.4 1085.16 32.04C1084.5 32.68 1083.66 33 1082.63 33H1078.24ZM1080.31 31.224H1082.26C1082.82 31.224 1083.26 31.0747 1083.57 30.776C1083.88 30.4773 1084.04 30.0667 1084.04 29.544C1084.04 29.0213 1083.88 28.6053 1083.56 28.296C1083.24 27.976 1082.79 27.816 1082.23 27.816H1080.31V31.224ZM1087.43 27.24C1087.43 25.608 1087.99 24.2373 1089.11 23.128C1090.24 22.008 1091.64 21.448 1093.3 21.448C1094.97 21.448 1096.36 22.008 1097.48 23.128C1098.61 24.2373 1099.17 25.608 1099.17 27.24C1099.17 28.9147 1098.61 30.328 1097.48 31.48C1096.36 32.6213 1094.97 33.192 1093.3 33.192C1091.64 33.192 1090.24 32.6213 1089.11 31.48C1087.99 30.328 1087.43 28.9147 1087.43 27.24ZM1089.56 27.24C1089.56 28.392 1089.92 29.3573 1090.65 30.136C1091.37 30.9147 1092.26 31.304 1093.3 31.304C1094.35 31.304 1095.23 30.9147 1095.96 30.136C1096.68 29.3573 1097.05 28.392 1097.05 27.24C1097.05 26.1413 1096.68 25.2187 1095.96 24.472C1095.23 23.7147 1094.35 23.336 1093.3 23.336C1092.26 23.336 1091.37 23.7147 1090.65 24.472C1089.92 25.2187 1089.56 26.1413 1089.56 27.24ZM1099.79 31.24C1100.65 31.1227 1101.27 30.5573 1101.65 29.544C1102.04 28.52 1102.24 26.92 1102.24 24.744V21.64H1109.27V33H1107.2V23.416H1104.21V24.776C1104.21 27.5707 1103.86 29.6507 1103.17 31.016C1102.48 32.3707 1101.35 33.0747 1099.79 33.128V31.24ZM1112.02 33V21.64H1118.82V23.416H1114.09V26.392H1117.91V28.168H1114.09V31.224H1119.08V33H1112.02ZM1121.13 33V21.64H1125.18C1126.24 21.64 1127.09 21.9013 1127.73 22.424C1128.38 22.936 1128.7 23.6507 1128.7 24.568C1128.7 25.1013 1128.58 25.5813 1128.33 26.008C1128.09 26.4347 1127.75 26.7653 1127.33 27V27.032C1127.92 27.2027 1128.38 27.5387 1128.69 28.04C1129.01 28.5413 1129.17 29.096 1129.17 29.704C1129.17 30.7813 1128.79 31.6027 1128.05 32.168C1127.3 32.7227 1126.37 33 1125.25 33H1121.13ZM1123.2 26.28H1125.2C1125.64 26.28 1125.98 26.1467 1126.22 25.88C1126.48 25.6027 1126.61 25.2507 1126.61 24.824C1126.61 24.408 1126.48 24.072 1126.22 23.816C1125.98 23.5493 1125.62 23.416 1125.17 23.416H1123.2V26.28ZM1123.2 31.224H1125.41C1125.92 31.224 1126.32 31.0747 1126.61 30.776C1126.9 30.4667 1127.05 30.0667 1127.05 29.576C1127.05 29.096 1126.9 28.7067 1126.61 28.408C1126.32 28.0987 1125.92 27.944 1125.41 27.944H1123.2V31.224ZM1129.89 33L1133.87 21.64H1136.05L1140.03 33H1137.92L1136.94 30.088H1132.96L1132 33H1129.89ZM1133.47 28.408H1136.43L1135.42 25.368L1134.97 23.608H1134.94C1134.77 24.3547 1134.62 24.9413 1134.49 25.368L1133.47 28.408ZM1141.54 33V21.64H1143.6V26.456H1148.8V21.64H1150.85V33H1148.8V28.232H1143.6V33H1141.54ZM1153.6 33V21.64H1155.67V28.2L1155.55 29.96H1155.59C1155.95 29.224 1156.27 28.632 1156.55 28.184L1160.83 21.64H1162.88V33H1160.83V26.456L1160.95 24.696H1160.91C1160.56 25.4213 1160.25 26.008 1159.97 26.456L1155.65 33H1153.6ZM1172.24 20.536C1171.73 20.9307 1171.11 21.128 1170.39 21.128C1169.66 21.128 1169.04 20.9307 1168.53 20.536C1168.02 20.1307 1167.76 19.592 1167.76 18.92V18.712H1169.31V18.92C1169.31 19.24 1169.42 19.4907 1169.63 19.672C1169.85 19.8427 1170.1 19.928 1170.39 19.928C1170.67 19.928 1170.92 19.8427 1171.14 19.672C1171.36 19.4907 1171.47 19.2347 1171.47 18.904V18.712H1173.01V18.92C1173.01 19.592 1172.75 20.1307 1172.24 20.536ZM1165.65 33V21.64H1167.71V28.2L1167.6 29.96H1167.63C1168 29.224 1168.32 28.632 1168.59 28.184L1172.88 21.64H1174.93V33H1172.88V26.456L1172.99 24.696H1172.96C1172.61 25.4213 1172.29 26.008 1172.02 26.456L1167.7 33H1165.65ZM1181.04 27.272C1181.04 25.608 1181.59 24.2213 1182.69 23.112C1183.79 22.0027 1185.18 21.448 1186.88 21.448C1188.61 21.448 1190.01 21.9653 1191.07 23L1190.08 24.536C1189.66 24.184 1189.17 23.896 1188.61 23.672C1188.05 23.448 1187.51 23.336 1186.98 23.336C1185.78 23.336 1184.85 23.7093 1184.18 24.456C1183.5 25.2027 1183.17 26.1307 1183.17 27.24C1183.17 28.36 1183.51 29.32 1184.19 30.12C1184.87 30.9093 1185.81 31.304 1186.99 31.304C1188.21 31.304 1189.31 30.824 1190.29 29.864L1191.38 31.352C1190.17 32.5787 1188.68 33.192 1186.91 33.192C1185.15 33.192 1183.73 32.632 1182.66 31.512C1181.58 30.392 1181.04 28.9787 1181.04 27.272ZM1193.15 33V21.64H1199.95V23.416H1195.21V26.392H1199.04V28.168H1195.21V31.224H1200.21V33H1193.15ZM1202.26 33V21.64H1206.64C1207.71 21.64 1208.58 21.9813 1209.25 22.664C1209.92 23.3467 1210.26 24.2373 1210.26 25.336C1210.26 26.4347 1209.92 27.336 1209.25 28.04C1208.58 28.7333 1207.71 29.08 1206.64 29.08H1204.32V33H1202.26ZM1204.32 27.288H1206.26C1206.86 27.288 1207.32 27.112 1207.65 26.76C1207.99 26.408 1208.16 25.9333 1208.16 25.336C1208.16 24.7493 1207.99 24.2853 1207.65 23.944C1207.32 23.592 1206.87 23.416 1206.29 23.416H1204.32V27.288ZM1213.35 31.224H1217.86V23.416H1214.82V24.264C1214.82 27.3147 1214.33 29.6347 1213.35 31.224ZM1210.07 31.224H1211.22C1212.32 29.56 1212.87 27.192 1212.87 24.12V21.64H1219.93V31.224H1221.19V35.24H1219.35V33H1211.98V35.24H1210.07V31.224ZM1223.18 33V21.64H1225.24V31.224H1230.16V21.64H1232.22V31.224H1233.56V35.24H1231.72V33H1223.18ZM1234.28 33L1238.26 21.64H1240.44L1244.42 33H1242.31L1241.33 30.088H1237.35L1236.39 33H1234.28ZM1237.86 28.408H1240.82L1239.81 25.368L1239.36 23.608H1239.33C1239.16 24.3547 1239.01 24.9413 1238.88 25.368L1237.86 28.408ZM1249.93 33V21.64H1251.99V28.2L1251.88 29.96H1251.91C1252.28 29.224 1252.6 28.632 1252.87 28.184L1257.16 21.64H1259.21V33H1257.16V26.456L1257.27 24.696H1257.24C1256.89 25.4213 1256.58 26.008 1256.3 26.456L1251.98 33H1249.93ZM1265.32 27.272C1265.32 25.608 1265.87 24.2213 1266.97 23.112C1268.07 22.0027 1269.47 21.448 1271.16 21.448C1272.89 21.448 1274.29 21.9653 1275.35 23L1274.36 24.536C1273.95 24.184 1273.45 23.896 1272.89 23.672C1272.33 23.448 1271.79 23.336 1271.26 23.336C1270.06 23.336 1269.13 23.7093 1268.46 24.456C1267.79 25.2027 1267.45 26.1307 1267.45 27.24C1267.45 28.36 1267.79 29.32 1268.47 30.12C1269.16 30.9093 1270.09 31.304 1271.27 31.304C1272.49 31.304 1273.59 30.824 1274.57 29.864L1275.66 31.352C1274.45 32.5787 1272.96 33.192 1271.19 33.192C1269.43 33.192 1268.01 32.632 1266.94 31.512C1265.86 30.392 1265.32 28.9787 1265.32 27.272ZM1277.43 33V21.64H1284.23V23.416H1279.49V26.392H1283.32V28.168H1279.49V31.224H1284.49V33H1277.43ZM1286.54 33V21.64H1290.92C1291.99 21.64 1292.86 21.9813 1293.53 22.664C1294.2 23.3467 1294.54 24.2373 1294.54 25.336C1294.54 26.4347 1294.2 27.336 1293.53 28.04C1292.86 28.7333 1291.99 29.08 1290.92 29.08H1288.6V33H1286.54ZM1288.6 27.288H1290.54C1291.14 27.288 1291.6 27.112 1291.93 26.76C1292.27 26.408 1292.44 25.9333 1292.44 25.336C1292.44 24.7493 1292.27 24.2853 1291.93 23.944C1291.6 23.592 1291.15 23.416 1290.57 23.416H1288.6V27.288ZM1297.63 31.224H1302.15V23.416H1299.11V24.264C1299.11 27.3147 1298.62 29.6347 1297.63 31.224ZM1294.35 31.224H1295.51C1296.6 29.56 1297.15 27.192 1297.15 24.12V21.64H1304.21V31.224H1305.47V35.24H1303.63V33H1296.26V35.24H1294.35V31.224ZM1307.46 33V21.64H1314.26V23.416H1309.53V26.392H1313.35V28.168H1309.53V31.224H1314.52V33H1307.46ZM1319.4 28.776C1318.24 28.776 1317.37 28.4827 1316.8 27.896C1316.22 27.2987 1315.93 26.456 1315.93 25.368V21.64H1318.03V24.904C1318.03 26.2373 1318.66 26.904 1319.93 26.904C1320.8 26.904 1321.57 26.68 1322.27 26.232V21.64H1324.36V33H1322.27V28.6L1322.3 28.072H1322.27C1321.35 28.5413 1320.4 28.776 1319.4 28.776ZM1327.13 33V21.64H1329.2V26.456H1334.4V21.64H1336.45V33H1334.4V28.232H1329.2V33H1327.13ZM1338.52 27.24C1338.52 25.608 1339.08 24.2373 1340.2 23.128C1341.33 22.008 1342.73 21.448 1344.4 21.448C1346.06 21.448 1347.45 22.008 1348.57 23.128C1349.7 24.2373 1350.27 25.608 1350.27 27.24C1350.27 28.9147 1349.7 30.328 1348.57 31.48C1347.45 32.6213 1346.06 33.192 1344.4 33.192C1342.73 33.192 1341.33 32.6213 1340.2 31.48C1339.08 30.328 1338.52 28.9147 1338.52 27.24ZM1340.65 27.24C1340.65 28.392 1341.01 29.3573 1341.74 30.136C1342.47 30.9147 1343.35 31.304 1344.4 31.304C1345.44 31.304 1346.33 30.9147 1347.05 30.136C1347.78 29.3573 1348.14 28.392 1348.14 27.24C1348.14 26.1413 1347.78 25.2187 1347.05 24.472C1346.33 23.7147 1345.44 23.336 1344.4 23.336C1343.35 23.336 1342.47 23.7147 1341.74 24.472C1341.01 25.2187 1340.65 26.1413 1340.65 27.24ZM1352.03 29.32V27.544H1356.83V29.32H1352.03ZM1358.6 27.272C1358.6 25.608 1359.15 24.2213 1360.25 23.112C1361.35 22.0027 1362.75 21.448 1364.44 21.448C1366.17 21.448 1367.57 21.9653 1368.63 23L1367.64 24.536C1367.23 24.184 1366.74 23.896 1366.17 23.672C1365.62 23.448 1365.07 23.336 1364.54 23.336C1363.34 23.336 1362.41 23.7093 1361.74 24.456C1361.07 25.2027 1360.73 26.1307 1360.73 27.24C1360.73 28.36 1361.07 29.32 1361.75 30.12C1362.44 30.9093 1363.37 31.304 1364.55 31.304C1365.77 31.304 1366.87 30.824 1367.85 29.864L1368.94 31.352C1367.73 32.5787 1366.25 33.192 1364.47 33.192C1362.71 33.192 1361.3 32.632 1360.22 31.512C1359.14 30.392 1358.6 28.9787 1358.6 27.272ZM1369.76 27.24C1369.76 25.608 1370.32 24.2373 1371.44 23.128C1372.57 22.008 1373.97 21.448 1375.63 21.448C1377.29 21.448 1378.69 22.008 1379.81 23.128C1380.94 24.2373 1381.5 25.608 1381.5 27.24C1381.5 28.9147 1380.94 30.328 1379.81 31.48C1378.69 32.6213 1377.29 33.192 1375.63 33.192C1373.97 33.192 1372.57 32.6213 1371.44 31.48C1370.32 30.328 1369.76 28.9147 1369.76 27.24ZM1371.89 27.24C1371.89 28.392 1372.25 29.3573 1372.97 30.136C1373.7 30.9147 1374.59 31.304 1375.63 31.304C1376.68 31.304 1377.56 30.9147 1378.29 30.136C1379.01 29.3573 1379.37 28.392 1379.37 27.24C1379.37 26.1413 1379.01 25.2187 1378.29 24.472C1377.56 23.7147 1376.68 23.336 1375.63 23.336C1374.59 23.336 1373.7 23.7147 1372.97 24.472C1372.25 25.2187 1371.89 26.1413 1371.89 27.24ZM1382.93 27.272C1382.93 25.608 1383.48 24.2213 1384.58 23.112C1385.68 22.0027 1387.07 21.448 1388.77 21.448C1390.5 21.448 1391.9 21.9653 1392.96 23L1391.97 24.536C1391.55 24.184 1391.06 23.896 1390.5 23.672C1389.94 23.448 1389.4 23.336 1388.87 23.336C1387.67 23.336 1386.74 23.7093 1386.07 24.456C1385.39 25.2027 1385.06 26.1307 1385.06 27.24C1385.06 28.36 1385.4 29.32 1386.08 30.12C1386.77 30.9093 1387.7 31.304 1388.88 31.304C1390.1 31.304 1391.2 30.824 1392.18 29.864L1393.27 31.352C1392.06 32.5787 1390.57 33.192 1388.8 33.192C1387.04 33.192 1385.62 32.632 1384.55 31.512C1383.47 30.392 1382.93 28.9787 1382.93 27.272ZM1394.74 32.408L1395.65 30.856C1396.13 31.2293 1396.55 31.416 1396.93 31.416C1397.43 31.416 1397.81 31.0853 1398.06 30.424L1393.62 21.64H1395.89L1398.3 26.712L1398.94 28.216H1398.98C1399.11 27.7147 1399.27 27.2187 1399.44 26.728L1401.26 21.64H1403.42L1399.92 30.616C1399.78 30.968 1399.64 31.2773 1399.49 31.544C1399.34 31.8107 1399.15 32.0773 1398.91 32.344C1398.68 32.6107 1398.4 32.8187 1398.08 32.968C1397.76 33.1173 1397.4 33.192 1397.01 33.192C1396.24 33.192 1395.48 32.9307 1394.74 32.408ZM1406.09 31.224H1410.6V23.416H1407.56V24.264C1407.56 27.3147 1407.07 29.6347 1406.09 31.224ZM1402.81 31.224H1403.96C1405.06 29.56 1405.61 27.192 1405.61 24.12V21.64H1412.66V31.224H1413.93V35.24H1412.09V33H1404.71V35.24H1402.81V31.224ZM1415.92 33V21.64H1417.98V28.2L1417.87 29.96H1417.9C1418.26 29.224 1418.58 28.632 1418.86 28.184L1423.15 21.64H1425.2V33H1423.15V26.456L1423.26 24.696H1423.23C1422.88 25.4213 1422.56 26.008 1422.28 26.456L1417.96 33H1415.92ZM1427.31 27.272C1427.31 25.608 1427.86 24.2213 1428.95 23.112C1430.05 22.0027 1431.45 21.448 1433.15 21.448C1434.87 21.448 1436.27 21.9653 1437.34 23L1436.35 24.536C1435.93 24.184 1435.44 23.896 1434.87 23.672C1434.32 23.448 1433.78 23.336 1433.24 23.336C1432.05 23.336 1431.11 23.7093 1430.44 24.456C1429.77 25.2027 1429.43 26.1307 1429.43 27.24C1429.43 28.36 1429.78 29.32 1430.46 30.12C1431.14 30.9093 1432.07 31.304 1433.26 31.304C1434.47 31.304 1435.57 30.824 1436.55 29.864L1437.64 31.352C1436.44 32.5787 1434.95 33.192 1433.18 33.192C1431.42 33.192 1430 32.632 1428.92 31.512C1427.84 30.392 1427.31 28.9787 1427.31 27.272ZM1441.99 33V23.416H1438.26V21.64H1447.77V23.416H1444.04V33H1441.99ZM1448.31 27.24C1448.31 25.608 1448.87 24.2373 1449.99 23.128C1451.12 22.008 1452.51 21.448 1454.18 21.448C1455.84 21.448 1457.23 22.008 1458.35 23.128C1459.48 24.2373 1460.05 25.608 1460.05 27.24C1460.05 28.9147 1459.48 30.328 1458.35 31.48C1457.23 32.6213 1455.84 33.192 1454.18 33.192C1452.51 33.192 1451.12 32.6213 1449.99 31.48C1448.87 30.328 1448.31 28.9147 1448.31 27.24ZM1450.43 27.24C1450.43 28.392 1450.8 29.3573 1451.52 30.136C1452.25 30.9147 1453.13 31.304 1454.18 31.304C1455.22 31.304 1456.11 30.9147 1456.83 30.136C1457.56 29.3573 1457.92 28.392 1457.92 27.24C1457.92 26.1413 1457.56 25.2187 1456.83 24.472C1456.11 23.7147 1455.22 23.336 1454.18 23.336C1453.13 23.336 1452.25 23.7147 1451.52 24.472C1450.8 25.2187 1450.43 26.1413 1450.43 27.24ZM1468.73 20.536C1468.21 20.9307 1467.6 21.128 1466.87 21.128C1466.14 21.128 1465.53 20.9307 1465.01 20.536C1464.5 20.1307 1464.25 19.592 1464.25 18.92V18.712H1465.8V18.92C1465.8 19.24 1465.9 19.4907 1466.12 19.672C1466.33 19.8427 1466.58 19.928 1466.87 19.928C1467.16 19.928 1467.41 19.8427 1467.62 19.672C1467.85 19.4907 1467.96 19.2347 1467.96 18.904V18.712H1469.49V18.92C1469.49 19.592 1469.24 20.1307 1468.73 20.536ZM1462.13 33V21.64H1464.2V28.2L1464.09 29.96H1464.12C1464.48 29.224 1464.8 28.632 1465.08 28.184L1469.37 21.64H1471.41V33H1469.37V26.456L1469.48 24.696H1469.45C1469.09 25.4213 1468.78 26.008 1468.5 26.456L1464.18 33H1462.13ZM1477.52 27.272C1477.52 25.608 1478.07 24.2213 1479.17 23.112C1480.27 22.0027 1481.67 21.448 1483.36 21.448C1485.09 21.448 1486.49 21.9653 1487.56 23L1486.56 24.536C1486.15 24.184 1485.66 23.896 1485.09 23.672C1484.54 23.448 1483.99 23.336 1483.46 23.336C1482.27 23.336 1481.33 23.7093 1480.66 24.456C1479.99 25.2027 1479.65 26.1307 1479.65 27.24C1479.65 28.36 1479.99 29.32 1480.68 30.12C1481.36 30.9093 1482.29 31.304 1483.48 31.304C1484.69 31.304 1485.79 30.824 1486.77 29.864L1487.86 31.352C1486.66 32.5787 1485.17 33.192 1483.4 33.192C1481.64 33.192 1480.22 32.632 1479.14 31.512C1478.06 30.392 1477.52 28.9787 1477.52 27.272ZM1489.63 33V21.64H1491.7V28.2L1491.59 29.96H1491.62C1491.98 29.224 1492.3 28.632 1492.58 28.184L1496.87 21.64H1498.91V33H1496.87V26.456L1496.98 24.696H1496.95C1496.59 25.4213 1496.28 26.008 1496 26.456L1491.68 33H1489.63ZM1501.02 27.272C1501.02 25.608 1501.57 24.2213 1502.67 23.112C1503.77 22.0027 1505.17 21.448 1506.86 21.448C1508.59 21.448 1509.99 21.9653 1511.06 23L1510.06 24.536C1509.65 24.184 1509.16 23.896 1508.59 23.672C1508.04 23.448 1507.49 23.336 1506.96 23.336C1505.77 23.336 1504.83 23.7093 1504.16 24.456C1503.49 25.2027 1503.15 26.1307 1503.15 27.24C1503.15 28.36 1503.49 29.32 1504.18 30.12C1504.86 30.9093 1505.79 31.304 1506.98 31.304C1508.19 31.304 1509.29 30.824 1510.27 29.864L1511.36 31.352C1510.16 32.5787 1508.67 33.192 1506.9 33.192C1505.14 33.192 1503.72 32.632 1502.64 31.512C1501.56 30.392 1501.02 28.9787 1501.02 27.272ZM1515.71 33V23.416H1511.98V21.64H1521.49V23.416H1517.76V33H1515.71ZM1523.1 33V21.64H1529.9V23.416H1525.17V26.392H1528.99V28.168H1525.17V31.224H1530.16V33H1523.1ZM1531.78 33L1532.71 21.64H1534.9L1537.14 27.256L1537.7 28.92H1537.73C1537.93 28.2587 1538.12 27.704 1538.29 27.256L1540.53 21.64H1542.72L1543.65 33H1541.59L1541.12 26.648C1541.1 26.424 1541.09 26.168 1541.09 25.88C1541.09 25.5813 1541.1 25.3413 1541.11 25.16V24.888H1541.08C1540.83 25.624 1540.62 26.2107 1540.45 26.648L1538.61 31.048H1536.82L1534.98 26.648L1534.36 24.872H1534.32C1534.36 25.5547 1534.35 26.1467 1534.31 26.648L1533.84 33H1531.78ZM1555.18 33V21.64H1557.23V33H1555.18ZM1545.98 33V21.64H1548.04V25.624H1550.15C1551.21 25.624 1552.06 25.9653 1552.71 26.648C1553.37 27.32 1553.71 28.216 1553.71 29.336C1553.71 30.424 1553.38 31.3093 1552.73 31.992C1552.08 32.664 1551.24 33 1550.2 33H1545.98ZM1548.04 31.224H1549.83C1550.4 31.224 1550.84 31.0587 1551.15 30.728C1551.45 30.3867 1551.61 29.9227 1551.61 29.336C1551.61 28.7493 1551.45 28.28 1551.13 27.928C1550.81 27.576 1550.37 27.4 1549.8 27.4H1548.04V31.224Z" fill="#252525"/>
<rect x="1593" width="631" height="55" rx="27.5" fill="#F3F6FF"/>
<path d="M1618.19 32.408L1619.1 30.856C1619.58 31.2293 1620.01 31.416 1620.38 31.416C1620.88 31.416 1621.26 31.0853 1621.52 30.424L1617.07 21.64H1619.34L1621.76 26.712L1622.4 28.216H1622.43C1622.57 27.7147 1622.72 27.2187 1622.89 26.728L1624.72 21.64H1626.88L1623.37 30.616C1623.23 30.968 1623.09 31.2773 1622.94 31.544C1622.79 31.8107 1622.6 32.0773 1622.37 32.344C1622.13 32.6107 1621.85 32.8187 1621.53 32.968C1621.21 33.1173 1620.86 33.192 1620.46 33.192C1619.69 33.192 1618.94 32.9307 1618.19 32.408ZM1626.45 31.24C1627.3 31.1227 1627.92 30.5573 1628.31 29.544C1628.7 28.52 1628.9 26.92 1628.9 24.744V21.64H1635.92V33H1633.86V23.416H1630.87V24.776C1630.87 27.5707 1630.52 29.6507 1629.83 31.016C1629.13 32.3707 1628.01 33.0747 1626.45 33.128V31.24ZM1638.68 33V21.64H1640.74V25.624H1642.97C1644.01 25.624 1644.87 25.9653 1645.53 26.648C1646.19 27.32 1646.52 28.216 1646.52 29.336C1646.52 30.424 1646.2 31.3093 1645.54 31.992C1644.89 32.664 1644.05 33 1643 33H1638.68ZM1640.74 31.224H1642.63C1643.2 31.224 1643.64 31.0587 1643.94 30.728C1644.26 30.3867 1644.42 29.9227 1644.42 29.336C1644.42 28.7493 1644.26 28.28 1643.93 27.928C1643.61 27.576 1643.17 27.4 1642.6 27.4H1640.74V31.224ZM1649.83 33V23.416H1646.11V21.64H1655.61V23.416H1651.88V33H1649.83ZM1657.23 33V21.64H1661.61C1662.68 21.64 1663.55 21.9813 1664.22 22.664C1664.89 23.3467 1665.23 24.2373 1665.23 25.336C1665.23 26.4347 1664.89 27.336 1664.22 28.04C1663.55 28.7333 1662.68 29.08 1661.61 29.08H1659.29V33H1657.23ZM1659.29 27.288H1661.23C1661.82 27.288 1662.29 27.112 1662.62 26.76C1662.96 26.408 1663.13 25.9333 1663.13 25.336C1663.13 24.7493 1662.96 24.2853 1662.62 23.944C1662.29 23.592 1661.84 23.416 1661.26 23.416H1659.29V27.288ZM1665.2 33L1669.18 21.64H1671.36L1675.34 33H1673.23L1672.25 30.088H1668.27L1667.31 33H1665.2ZM1668.78 28.408H1671.74L1670.73 25.368L1670.29 23.608H1670.25C1670.08 24.3547 1669.93 24.9413 1669.81 25.368L1668.78 28.408ZM1675.83 31.576L1676.95 30.2C1677.26 30.5307 1677.64 30.808 1678.1 31.032C1678.56 31.256 1679.03 31.368 1679.51 31.368C1680.13 31.368 1680.62 31.2133 1680.98 30.904C1681.34 30.5947 1681.52 30.168 1681.52 29.624C1681.52 29.1333 1681.36 28.7493 1681.03 28.472C1680.71 28.184 1680.27 28.04 1679.72 28.04H1678.32V26.376H1679.44C1679.96 26.376 1680.38 26.2267 1680.71 25.928C1681.04 25.6293 1681.2 25.256 1681.2 24.808C1681.2 24.3493 1681.06 23.976 1680.76 23.688C1680.46 23.3893 1680.03 23.24 1679.46 23.24C1678.6 23.24 1677.78 23.56 1677 24.2L1676.16 22.696C1677.17 21.864 1678.38 21.448 1679.81 21.448C1680.78 21.448 1681.6 21.7253 1682.28 22.28C1682.96 22.8347 1683.3 23.592 1683.3 24.552C1683.3 25.672 1682.78 26.5147 1681.73 27.08V27.112C1682.32 27.2933 1682.78 27.6133 1683.12 28.072C1683.47 28.5307 1683.64 29.0907 1683.64 29.752C1683.64 30.7973 1683.26 31.6347 1682.5 32.264C1681.75 32.8827 1680.82 33.192 1679.7 33.192C1678.98 33.192 1678.27 33.0533 1677.57 32.776C1676.89 32.488 1676.31 32.088 1675.83 31.576ZM1685.73 33V21.64H1689.78C1690.83 21.64 1691.68 21.9013 1692.32 22.424C1692.97 22.936 1693.3 23.6507 1693.3 24.568C1693.3 25.1013 1693.17 25.5813 1692.93 26.008C1692.68 26.4347 1692.35 26.7653 1691.92 27V27.032C1692.52 27.2027 1692.97 27.5387 1693.28 28.04C1693.6 28.5413 1693.76 29.096 1693.76 29.704C1693.76 30.7813 1693.39 31.6027 1692.64 32.168C1691.89 32.7227 1690.96 33 1689.84 33H1685.73ZM1687.79 26.28H1689.79C1690.23 26.28 1690.57 26.1467 1690.82 25.88C1691.07 25.6027 1691.2 25.2507 1691.2 24.824C1691.2 24.408 1691.07 24.072 1690.82 23.816C1690.57 23.5493 1690.22 23.416 1689.76 23.416H1687.79V26.28ZM1687.79 31.224H1690C1690.51 31.224 1690.91 31.0747 1691.2 30.776C1691.5 30.4667 1691.65 30.0667 1691.65 29.576C1691.65 29.096 1691.5 28.7067 1691.2 28.408C1690.91 28.0987 1690.51 27.944 1690 27.944H1687.79V31.224ZM1695.41 32.408L1696.32 30.856C1696.8 31.2293 1697.23 31.416 1697.6 31.416C1698.1 31.416 1698.48 31.0853 1698.74 30.424L1694.29 21.64H1696.56L1698.98 26.712L1699.62 28.216H1699.65C1699.79 27.7147 1699.94 27.2187 1700.11 26.728L1701.94 21.64H1704.1L1700.59 30.616C1700.45 30.968 1700.31 31.2773 1700.16 31.544C1700.01 31.8107 1699.82 32.0773 1699.58 32.344C1699.35 32.6107 1699.07 32.8187 1698.75 32.968C1698.43 33.1173 1698.07 33.192 1697.68 33.192C1696.91 33.192 1696.15 32.9307 1695.41 32.408ZM1705.51 33V21.64H1707.57V26.264H1709.04L1711.72 21.64H1713.96L1710.74 27.048V27.08L1714.15 33H1711.81L1709.04 28.04H1707.57V33H1705.51ZM1714.74 27.24C1714.74 25.608 1715.3 24.2373 1716.42 23.128C1717.55 22.008 1718.95 21.448 1720.62 21.448C1722.28 21.448 1723.67 22.008 1724.79 23.128C1725.92 24.2373 1726.49 25.608 1726.49 27.24C1726.49 28.9147 1725.92 30.328 1724.79 31.48C1723.67 32.6213 1722.28 33.192 1720.62 33.192C1718.95 33.192 1717.55 32.6213 1716.42 31.48C1715.3 30.328 1714.74 28.9147 1714.74 27.24ZM1716.87 27.24C1716.87 28.392 1717.23 29.3573 1717.96 30.136C1718.68 30.9147 1719.57 31.304 1720.62 31.304C1721.66 31.304 1722.55 30.9147 1723.27 30.136C1724 29.3573 1724.36 28.392 1724.36 27.24C1724.36 26.1413 1724 25.2187 1723.27 24.472C1722.55 23.7147 1721.66 23.336 1720.62 23.336C1719.57 23.336 1718.68 23.7147 1717.96 24.472C1717.23 25.2187 1716.87 26.1413 1716.87 27.24ZM1728.57 33V21.64H1732.62C1733.68 21.64 1734.52 21.9013 1735.16 22.424C1735.81 22.936 1736.14 23.6507 1736.14 24.568C1736.14 25.1013 1736.02 25.5813 1735.77 26.008C1735.53 26.4347 1735.19 26.7653 1734.76 27V27.032C1735.36 27.2027 1735.81 27.5387 1736.12 28.04C1736.44 28.5413 1736.6 29.096 1736.6 29.704C1736.6 30.7813 1736.23 31.6027 1735.48 32.168C1734.74 32.7227 1733.8 33 1732.68 33H1728.57ZM1730.64 26.28H1732.64C1733.07 26.28 1733.41 26.1467 1733.66 25.88C1733.92 25.6027 1734.04 25.2507 1734.04 24.824C1734.04 24.408 1733.92 24.072 1733.66 23.816C1733.41 23.5493 1733.06 23.416 1732.6 23.416H1730.64V26.28ZM1730.64 31.224H1732.84C1733.36 31.224 1733.76 31.0747 1734.04 30.776C1734.34 30.4667 1734.49 30.0667 1734.49 29.576C1734.49 29.096 1734.34 28.7067 1734.04 28.408C1733.76 28.0987 1733.36 27.944 1732.84 27.944H1730.64V31.224ZM1737.32 33L1741.31 21.64H1743.48L1747.47 33H1745.36L1744.38 30.088H1740.4L1739.44 33H1737.32ZM1740.91 28.408H1743.87L1742.86 25.368L1742.41 23.608H1742.38C1742.21 24.3547 1742.06 24.9413 1741.93 25.368L1740.91 28.408ZM1747.87 33L1750.27 29L1750.64 28.408V28.376C1749.97 28.0773 1749.46 27.64 1749.12 27.064C1748.79 26.488 1748.63 25.8267 1748.63 25.08C1748.63 24.312 1748.8 23.6613 1749.14 23.128C1749.49 22.584 1749.95 22.1893 1750.53 21.944C1751 21.7413 1751.72 21.64 1752.69 21.64H1756.37V33H1754.31V28.76H1752.64L1750.18 33H1747.87ZM1752.51 27.032H1754.31V23.416H1752.85C1752.21 23.416 1751.73 23.512 1751.43 23.704C1750.96 23.992 1750.72 24.4773 1750.72 25.16C1750.72 25.7573 1750.88 26.2213 1751.2 26.552C1751.52 26.872 1751.96 27.032 1752.51 27.032ZM1765.13 31.224H1769.65V23.416H1766.61V24.264C1766.61 27.3147 1766.12 29.6347 1765.13 31.224ZM1761.85 31.224H1763.01C1764.1 29.56 1764.65 27.192 1764.65 24.12V21.64H1771.71V31.224H1772.97V35.24H1771.13V33H1763.76V35.24H1761.85V31.224ZM1774.96 33V21.64H1777.03V28.2L1776.91 29.96H1776.95C1777.31 29.224 1777.63 28.632 1777.91 28.184L1782.19 21.64H1784.24V33H1782.19V26.456L1782.31 24.696H1782.27C1781.92 25.4213 1781.61 26.008 1781.33 26.456L1777.01 33H1774.96ZM1785.76 33L1789.74 21.64H1791.92L1795.9 33H1793.79L1792.82 30.088H1788.83L1787.87 33H1785.76ZM1789.34 28.408H1792.3L1791.3 25.368L1790.85 23.608H1790.82C1790.65 24.3547 1790.5 24.9413 1790.37 25.368L1789.34 28.408ZM1797.42 33V21.64H1803.94V23.416H1799.48V33H1797.42ZM1805.51 33V21.64H1807.57V26.456H1812.77V21.64H1814.82V33H1812.77V28.232H1807.57V33H1805.51ZM1816.9 27.24C1816.9 25.608 1817.46 24.2373 1818.58 23.128C1819.71 22.008 1821.11 21.448 1822.77 21.448C1824.44 21.448 1825.83 22.008 1826.95 23.128C1828.08 24.2373 1828.64 25.608 1828.64 27.24C1828.64 28.9147 1828.08 30.328 1826.95 31.48C1825.83 32.6213 1824.44 33.192 1822.77 33.192C1821.11 33.192 1819.71 32.6213 1818.58 31.48C1817.46 30.328 1816.9 28.9147 1816.9 27.24ZM1819.03 27.24C1819.03 28.392 1819.39 29.3573 1820.12 30.136C1820.84 30.9147 1821.73 31.304 1822.77 31.304C1823.82 31.304 1824.7 30.9147 1825.43 30.136C1826.15 29.3573 1826.52 28.392 1826.52 27.24C1826.52 26.1413 1826.15 25.2187 1825.43 24.472C1824.7 23.7147 1823.82 23.336 1822.77 23.336C1821.73 23.336 1820.84 23.7147 1820.12 24.472C1819.39 25.2187 1819.03 26.1413 1819.03 27.24ZM1830.07 27.272C1830.07 25.608 1830.62 24.2213 1831.72 23.112C1832.82 22.0027 1834.22 21.448 1835.91 21.448C1837.64 21.448 1839.04 21.9653 1840.1 23L1839.11 24.536C1838.7 24.184 1838.2 23.896 1837.64 23.672C1837.08 23.448 1836.54 23.336 1836.01 23.336C1834.81 23.336 1833.88 23.7093 1833.21 24.456C1832.54 25.2027 1832.2 26.1307 1832.2 27.24C1832.2 28.36 1832.54 29.32 1833.22 30.12C1833.91 30.9093 1834.84 31.304 1836.02 31.304C1837.24 31.304 1838.34 30.824 1839.32 29.864L1840.41 31.352C1839.2 32.5787 1837.71 33.192 1835.94 33.192C1834.18 33.192 1832.76 32.632 1831.69 31.512C1830.61 30.392 1830.07 28.9787 1830.07 27.272ZM1844.76 33V23.416H1841.03V21.64H1850.53V23.416H1846.8V33H1844.76ZM1852.15 33V21.64H1854.21V28.2L1854.1 29.96H1854.13C1854.5 29.224 1854.82 28.632 1855.09 28.184L1859.38 21.64H1861.43V33H1859.38V26.456L1859.49 24.696H1859.46C1859.11 25.4213 1858.79 26.008 1858.52 26.456L1854.2 33H1852.15ZM1864.2 33V21.64H1866.26V26.264H1867.73L1870.4 21.64H1872.64L1869.43 27.048V27.08L1872.84 33H1870.5L1867.73 28.04H1866.26V33H1864.2ZM1873.15 33L1877.14 21.64H1879.31L1883.3 33H1881.18L1880.21 30.088H1876.22L1875.26 33H1873.15ZM1876.74 28.408H1879.7L1878.69 25.368L1878.24 23.608H1878.21C1878.04 24.3547 1877.89 24.9413 1877.76 25.368L1876.74 28.408ZM1888.15 27.272C1888.15 25.608 1888.7 24.2213 1889.8 23.112C1890.9 22.0027 1892.29 21.448 1893.99 21.448C1895.72 21.448 1897.12 21.9653 1898.18 23L1897.19 24.536C1896.77 24.184 1896.28 23.896 1895.72 23.672C1895.16 23.448 1894.62 23.336 1894.09 23.336C1892.89 23.336 1891.96 23.7093 1891.29 24.456C1890.61 25.2027 1890.28 26.1307 1890.28 27.24C1890.28 28.36 1890.62 29.32 1891.3 30.12C1891.98 30.9093 1892.92 31.304 1894.1 31.304C1895.32 31.304 1896.42 30.824 1897.4 29.864L1898.49 31.352C1897.28 32.5787 1895.79 33.192 1894.02 33.192C1892.26 33.192 1890.84 32.632 1889.77 31.512C1888.69 30.392 1888.15 28.9787 1888.15 27.272ZM1900.26 33V21.64H1907.06V23.416H1902.32V26.392H1906.15V28.168H1902.32V31.224H1907.31V33H1900.26ZM1909.37 33V21.64H1913.75C1914.82 21.64 1915.69 21.9813 1916.36 22.664C1917.03 23.3467 1917.37 24.2373 1917.37 25.336C1917.37 26.4347 1917.03 27.336 1916.36 28.04C1915.69 28.7333 1914.82 29.08 1913.75 29.08H1911.43V33H1909.37ZM1911.43 27.288H1913.37C1913.97 27.288 1914.43 27.112 1914.76 26.76C1915.1 26.408 1915.27 25.9333 1915.27 25.336C1915.27 24.7493 1915.1 24.2853 1914.76 23.944C1914.43 23.592 1913.98 23.416 1913.4 23.416H1911.43V27.288ZM1920.46 31.224H1924.97V23.416H1921.93V24.264C1921.93 27.3147 1921.44 29.6347 1920.46 31.224ZM1917.18 31.224H1918.33C1919.43 29.56 1919.98 27.192 1919.98 24.12V21.64H1927.04V31.224H1928.3V35.24H1926.46V33H1919.09V35.24H1917.18V31.224ZM1930.29 33V21.64H1937.09V23.416H1932.35V26.392H1936.18V28.168H1932.35V31.224H1937.35V33H1930.29ZM1942.23 28.776C1941.07 28.776 1940.2 28.4827 1939.62 27.896C1939.05 27.2987 1938.76 26.456 1938.76 25.368V21.64H1940.86V24.904C1940.86 26.2373 1941.49 26.904 1942.76 26.904C1943.62 26.904 1944.4 26.68 1945.1 26.232V21.64H1947.19V33H1945.1V28.6L1945.13 28.072H1945.1C1944.18 28.5413 1943.22 28.776 1942.23 28.776ZM1949.96 33V21.64H1952.03V26.456H1957.23V21.64H1959.27V33H1957.23V28.232H1952.03V33H1949.96ZM1961.35 27.24C1961.35 25.608 1961.91 24.2373 1963.03 23.128C1964.16 22.008 1965.56 21.448 1967.22 21.448C1968.89 21.448 1970.28 22.008 1971.4 23.128C1972.53 24.2373 1973.1 25.608 1973.1 27.24C1973.1 28.9147 1972.53 30.328 1971.4 31.48C1970.28 32.6213 1968.89 33.192 1967.22 33.192C1965.56 33.192 1964.16 32.6213 1963.03 31.48C1961.91 30.328 1961.35 28.9147 1961.35 27.24ZM1963.48 27.24C1963.48 28.392 1963.84 29.3573 1964.57 30.136C1965.29 30.9147 1966.18 31.304 1967.22 31.304C1968.27 31.304 1969.16 30.9147 1969.88 30.136C1970.61 29.3573 1970.97 28.392 1970.97 27.24C1970.97 26.1413 1970.61 25.2187 1969.88 24.472C1969.16 23.7147 1968.27 23.336 1967.22 23.336C1966.18 23.336 1965.29 23.7147 1964.57 24.472C1963.84 25.2187 1963.48 26.1413 1963.48 27.24ZM1974.86 29.32V27.544H1979.66V29.32H1974.86ZM1981.43 27.272C1981.43 25.608 1981.98 24.2213 1983.08 23.112C1984.18 22.0027 1985.57 21.448 1987.27 21.448C1989 21.448 1990.4 21.9653 1991.46 23L1990.47 24.536C1990.05 24.184 1989.56 23.896 1989 23.672C1988.44 23.448 1987.9 23.336 1987.37 23.336C1986.17 23.336 1985.24 23.7093 1984.57 24.456C1983.89 25.2027 1983.56 26.1307 1983.56 27.24C1983.56 28.36 1983.9 29.32 1984.58 30.12C1985.27 30.9093 1986.2 31.304 1987.38 31.304C1988.6 31.304 1989.7 30.824 1990.68 29.864L1991.77 31.352C1990.56 32.5787 1989.07 33.192 1987.3 33.192C1985.54 33.192 1984.12 32.632 1983.05 31.512C1981.97 30.392 1981.43 28.9787 1981.43 27.272ZM1992.59 27.24C1992.59 25.608 1993.15 24.2373 1994.27 23.128C1995.4 22.008 1996.79 21.448 1998.46 21.448C2000.12 21.448 2001.51 22.008 2002.63 23.128C2003.77 24.2373 2004.33 25.608 2004.33 27.24C2004.33 28.9147 2003.77 30.328 2002.63 31.48C2001.51 32.6213 2000.12 33.192 1998.46 33.192C1996.79 33.192 1995.4 32.6213 1994.27 31.48C1993.15 30.328 1992.59 28.9147 1992.59 27.24ZM1994.71 27.24C1994.71 28.392 1995.08 29.3573 1995.8 30.136C1996.53 30.9147 1997.41 31.304 1998.46 31.304C1999.5 31.304 2000.39 30.9147 2001.11 30.136C2001.84 29.3573 2002.2 28.392 2002.2 27.24C2002.2 26.1413 2001.84 25.2187 2001.11 24.472C2000.39 23.7147 1999.5 23.336 1998.46 23.336C1997.41 23.336 1996.53 23.7147 1995.8 24.472C1995.08 25.2187 1994.71 26.1413 1994.71 27.24ZM2005.76 27.272C2005.76 25.608 2006.31 24.2213 2007.41 23.112C2008.51 22.0027 2009.9 21.448 2011.6 21.448C2013.33 21.448 2014.72 21.9653 2015.79 23L2014.8 24.536C2014.38 24.184 2013.89 23.896 2013.33 23.672C2012.77 23.448 2012.23 23.336 2011.7 23.336C2010.5 23.336 2009.57 23.7093 2008.9 24.456C2008.22 25.2027 2007.89 26.1307 2007.89 27.24C2007.89 28.36 2008.23 29.32 2008.91 30.12C2009.59 30.9093 2010.53 31.304 2011.71 31.304C2012.93 31.304 2014.03 30.824 2015.01 29.864L2016.1 31.352C2014.89 32.5787 2013.4 33.192 2011.63 33.192C2009.87 33.192 2008.45 32.632 2007.38 31.512C2006.3 30.392 2005.76 28.9787 2005.76 27.272ZM2017.56 32.408L2018.48 30.856C2018.96 31.2293 2019.38 31.416 2019.76 31.416C2020.26 31.416 2020.64 31.0853 2020.89 30.424L2016.44 21.64H2018.72L2021.13 26.712L2021.77 28.216H2021.8C2021.94 27.7147 2022.1 27.2187 2022.27 26.728L2024.09 21.64H2026.25L2022.75 30.616C2022.61 30.968 2022.47 31.2773 2022.32 31.544C2022.17 31.8107 2021.97 32.0773 2021.74 32.344C2021.51 32.6107 2021.23 32.8187 2020.91 32.968C2020.59 33.1173 2020.23 33.192 2019.84 33.192C2019.07 33.192 2018.31 32.9307 2017.56 32.408ZM2028.92 31.224H2033.43V23.416H2030.39V24.264C2030.39 27.3147 2029.9 29.6347 2028.92 31.224ZM2025.64 31.224H2026.79C2027.89 29.56 2028.44 27.192 2028.44 24.12V21.64H2035.49V31.224H2036.76V35.24H2034.92V33H2027.54V35.24H2025.64V31.224ZM2038.74 33V21.64H2040.81V28.2L2040.7 29.96H2040.73C2041.09 29.224 2041.41 28.632 2041.69 28.184L2045.98 21.64H2048.02V33H2045.98V26.456L2046.09 24.696H2046.06C2045.7 25.4213 2045.39 26.008 2045.11 26.456L2040.79 33H2038.74ZM2050.13 27.272C2050.13 25.608 2050.68 24.2213 2051.78 23.112C2052.88 22.0027 2054.28 21.448 2055.97 21.448C2057.7 21.448 2059.1 21.9653 2060.17 23L2059.17 24.536C2058.76 24.184 2058.27 23.896 2057.7 23.672C2057.15 23.448 2056.6 23.336 2056.07 23.336C2054.88 23.336 2053.94 23.7093 2053.27 24.456C2052.6 25.2027 2052.26 26.1307 2052.26 27.24C2052.26 28.36 2052.6 29.32 2053.29 30.12C2053.97 30.9093 2054.9 31.304 2056.09 31.304C2057.3 31.304 2058.4 30.824 2059.38 29.864L2060.47 31.352C2059.26 32.5787 2057.78 33.192 2056.01 33.192C2054.25 33.192 2052.83 32.632 2051.75 31.512C2050.67 30.392 2050.13 28.9787 2050.13 27.272ZM2064.82 33V23.416H2061.09V21.64H2070.6V23.416H2066.87V33H2064.82ZM2071.13 27.24C2071.13 25.608 2071.69 24.2373 2072.81 23.128C2073.94 22.008 2075.34 21.448 2077.01 21.448C2078.67 21.448 2080.06 22.008 2081.18 23.128C2082.31 24.2373 2082.88 25.608 2082.88 27.24C2082.88 28.9147 2082.31 30.328 2081.18 31.48C2080.06 32.6213 2078.67 33.192 2077.01 33.192C2075.34 33.192 2073.94 32.6213 2072.81 31.48C2071.69 30.328 2071.13 28.9147 2071.13 27.24ZM2073.26 27.24C2073.26 28.392 2073.62 29.3573 2074.35 30.136C2075.08 30.9147 2075.96 31.304 2077.01 31.304C2078.05 31.304 2078.94 30.9147 2079.66 30.136C2080.39 29.3573 2080.75 28.392 2080.75 27.24C2080.75 26.1413 2080.39 25.2187 2079.66 24.472C2078.94 23.7147 2078.05 23.336 2077.01 23.336C2075.96 23.336 2075.08 23.7147 2074.35 24.472C2073.62 25.2187 2073.26 26.1413 2073.26 27.24ZM2091.55 20.536C2091.04 20.9307 2090.42 21.128 2089.7 21.128C2088.97 21.128 2088.35 20.9307 2087.84 20.536C2087.33 20.1307 2087.07 19.592 2087.07 18.92V18.712H2088.63V18.92C2088.63 19.24 2088.73 19.4907 2088.95 19.672C2089.16 19.8427 2089.41 19.928 2089.7 19.928C2089.99 19.928 2090.24 19.8427 2090.45 19.672C2090.67 19.4907 2090.79 19.2347 2090.79 18.904V18.712H2092.32V18.92C2092.32 19.592 2092.07 20.1307 2091.55 20.536ZM2084.96 33V21.64H2087.03V28.2L2086.91 29.96H2086.95C2087.31 29.224 2087.63 28.632 2087.91 28.184L2092.19 21.64H2094.24V33H2092.19V26.456L2092.31 24.696H2092.27C2091.92 25.4213 2091.61 26.008 2091.33 26.456L2087.01 33H2084.96ZM2101.01 33V21.64H2110.21V33H2108.14V23.416H2103.07V33H2101.01ZM2111.71 33L2115.7 21.64H2117.87L2121.86 33H2119.75L2118.77 30.088H2114.79L2113.83 33H2111.71ZM2115.3 28.408H2118.26L2117.25 25.368L2116.8 23.608H2116.77C2116.6 24.3547 2116.45 24.9413 2116.32 25.368L2115.3 28.408ZM2125.01 33V23.416H2121.28V21.64H2130.78V23.416H2127.05V33H2125.01ZM2131.32 27.24C2131.32 25.608 2131.88 24.2373 2133 23.128C2134.13 22.008 2135.53 21.448 2137.19 21.448C2138.86 21.448 2140.25 22.008 2141.37 23.128C2142.5 24.2373 2143.07 25.608 2143.07 27.24C2143.07 28.9147 2142.5 30.328 2141.37 31.48C2140.25 32.6213 2138.86 33.192 2137.19 33.192C2135.53 33.192 2134.13 32.6213 2133 31.48C2131.88 30.328 2131.32 28.9147 2131.32 27.24ZM2133.45 27.24C2133.45 28.392 2133.81 29.3573 2134.54 30.136C2135.26 30.9147 2136.15 31.304 2137.19 31.304C2138.24 31.304 2139.12 30.9147 2139.85 30.136C2140.57 29.3573 2140.94 28.392 2140.94 27.24C2140.94 26.1413 2140.57 25.2187 2139.85 24.472C2139.12 23.7147 2138.24 23.336 2137.19 23.336C2136.15 23.336 2135.26 23.7147 2134.54 24.472C2133.81 25.2187 2133.45 26.1413 2133.45 27.24ZM2143.68 31.24C2144.54 31.1227 2145.16 30.5573 2145.54 29.544C2145.94 28.52 2146.13 26.92 2146.13 24.744V21.64H2153.16V33H2151.09V23.416H2148.1V24.776C2148.1 27.5707 2147.75 29.6507 2147.06 31.016C2146.37 32.3707 2145.24 33.0747 2143.68 33.128V31.24ZM2155.24 27.24C2155.24 25.608 2155.8 24.2373 2156.92 23.128C2158.05 22.008 2159.45 21.448 2161.12 21.448C2162.78 21.448 2164.17 22.008 2165.29 23.128C2166.42 24.2373 2166.99 25.608 2166.99 27.24C2166.99 28.9147 2166.42 30.328 2165.29 31.48C2164.17 32.6213 2162.78 33.192 2161.12 33.192C2159.45 33.192 2158.05 32.6213 2156.92 31.48C2155.8 30.328 2155.24 28.9147 2155.24 27.24ZM2157.37 27.24C2157.37 28.392 2157.73 29.3573 2158.46 30.136C2159.18 30.9147 2160.07 31.304 2161.12 31.304C2162.16 31.304 2163.05 30.9147 2163.77 30.136C2164.5 29.3573 2164.86 28.392 2164.86 27.24C2164.86 26.1413 2164.5 25.2187 2163.77 24.472C2163.05 23.7147 2162.16 23.336 2161.12 23.336C2160.07 23.336 2159.18 23.7147 2158.46 24.472C2157.73 25.2187 2157.37 26.1413 2157.37 27.24ZM2169.07 33V21.64H2175.6V23.416H2171.14V33H2169.07ZM2177.17 33V21.64H2179.23V28.2L2179.12 29.96H2179.15C2179.51 29.224 2179.83 28.632 2180.11 28.184L2184.4 21.64H2186.45V33H2184.4V26.456L2184.51 24.696H2184.48C2184.13 25.4213 2183.81 26.008 2183.53 26.456L2179.21 33H2177.17ZM2189.21 33V21.64H2191.28V28.2L2191.16 29.96H2191.2C2191.56 29.224 2191.88 28.632 2192.16 28.184L2196.44 21.64H2198.49V33H2196.44V26.456L2196.56 24.696H2196.52C2196.17 25.4213 2195.86 26.008 2195.58 26.456L2191.26 33H2189.21Z" fill="#005DFF"/>
<rect x="2234" width="611" height="55" rx="27.5" fill="#F3F6FF"/>
<path d="M2258.98 33L2259.91 21.64H2262.1L2264.34 27.256L2264.9 28.92H2264.94C2265.14 28.2587 2265.32 27.704 2265.5 27.256L2267.74 21.64H2269.93L2270.86 33H2268.79L2268.33 26.648C2268.31 26.424 2268.3 26.168 2268.3 25.88C2268.3 25.5813 2268.3 25.3413 2268.31 25.16V24.888H2268.28C2268.03 25.624 2267.83 26.2107 2267.66 26.648L2265.82 31.048H2264.02L2262.18 26.648L2261.56 24.872H2261.53C2261.56 25.5547 2261.55 26.1467 2261.51 26.648L2261.05 33H2258.98ZM2273.18 33V21.64H2275.24V28.2L2275.13 29.96H2275.16C2275.53 29.224 2275.85 28.632 2276.12 28.184L2280.41 21.64H2282.46V33H2280.41V26.456L2280.52 24.696H2280.49C2280.14 25.4213 2279.83 26.008 2279.55 26.456L2275.23 33H2273.18ZM2285.23 33V21.64H2287.29V26.456H2292.49V21.64H2294.54V33H2292.49V28.232H2287.29V33H2285.23ZM2297.29 33V21.64H2299.35V28.2L2299.24 29.96H2299.27C2299.64 29.224 2299.96 28.632 2300.23 28.184L2304.52 21.64H2306.57V33H2304.52V26.456L2304.63 24.696H2304.6C2304.25 25.4213 2303.94 26.008 2303.66 26.456L2299.34 33H2297.29ZM2309.34 33V21.64H2311.4V28.2L2311.29 29.96H2311.32C2311.68 29.224 2312 28.632 2312.28 28.184L2316.57 21.64H2318.62V33H2316.57V26.456L2316.68 24.696H2316.65C2316.3 25.4213 2315.98 26.008 2315.7 26.456L2311.38 33H2309.34ZM2321.38 33V21.64H2323.45V26.456H2328.65V21.64H2330.7V33H2328.65V28.232H2323.45V33H2321.38ZM2333.45 33V21.64H2337.49C2338.55 21.64 2339.4 21.9013 2340.04 22.424C2340.69 22.936 2341.01 23.6507 2341.01 24.568C2341.01 25.1013 2340.89 25.5813 2340.65 26.008C2340.4 26.4347 2340.06 26.7653 2339.64 27V27.032C2340.24 27.2027 2340.69 27.5387 2341 28.04C2341.32 28.5413 2341.48 29.096 2341.48 29.704C2341.48 30.7813 2341.1 31.6027 2340.36 32.168C2339.61 32.7227 2338.68 33 2337.56 33H2333.45ZM2335.51 26.28H2337.51C2337.95 26.28 2338.29 26.1467 2338.53 25.88C2338.79 25.6027 2338.92 25.2507 2338.92 24.824C2338.92 24.408 2338.79 24.072 2338.53 23.816C2338.29 23.5493 2337.94 23.416 2337.48 23.416H2335.51V26.28ZM2335.51 31.224H2337.72C2338.23 31.224 2338.63 31.0747 2338.92 30.776C2339.22 30.4667 2339.37 30.0667 2339.37 29.576C2339.37 29.096 2339.22 28.7067 2338.92 28.408C2338.63 28.0987 2338.23 27.944 2337.72 27.944H2335.51V31.224ZM2342.2 33L2346.18 21.64H2348.36L2352.34 33H2350.23L2349.25 30.088H2345.27L2344.31 33H2342.2ZM2345.78 28.408H2348.74L2347.73 25.368L2347.29 23.608H2347.25C2347.08 24.3547 2346.93 24.9413 2346.81 25.368L2345.78 28.408ZM2352.83 31.576L2353.95 30.2C2354.26 30.5307 2354.64 30.808 2355.1 31.032C2355.56 31.256 2356.03 31.368 2356.51 31.368C2357.13 31.368 2357.62 31.2133 2357.98 30.904C2358.34 30.5947 2358.52 30.168 2358.52 29.624C2358.52 29.1333 2358.36 28.7493 2358.03 28.472C2357.71 28.184 2357.27 28.04 2356.72 28.04H2355.32V26.376H2356.44C2356.96 26.376 2357.38 26.2267 2357.71 25.928C2358.04 25.6293 2358.2 25.256 2358.2 24.808C2358.2 24.3493 2358.06 23.976 2357.76 23.688C2357.46 23.3893 2357.03 23.24 2356.46 23.24C2355.6 23.24 2354.78 23.56 2354 24.2L2353.16 22.696C2354.17 21.864 2355.38 21.448 2356.81 21.448C2357.78 21.448 2358.6 21.7253 2359.28 22.28C2359.96 22.8347 2360.3 23.592 2360.3 24.552C2360.3 25.672 2359.78 26.5147 2358.73 27.08V27.112C2359.32 27.2933 2359.78 27.6133 2360.12 28.072C2360.47 28.5307 2360.64 29.0907 2360.64 29.752C2360.64 30.7973 2360.26 31.6347 2359.5 32.264C2358.75 32.8827 2357.82 33.192 2356.7 33.192C2355.98 33.192 2355.27 33.0533 2354.57 32.776C2353.89 32.488 2353.31 32.088 2352.83 31.576ZM2362.73 33V21.64H2364.79V28.2L2364.68 29.96H2364.71C2365.07 29.224 2365.39 28.632 2365.67 28.184L2369.96 21.64H2372.01V33H2369.96V26.456L2370.07 24.696H2370.04C2369.69 25.4213 2369.37 26.008 2369.1 26.456L2364.78 33H2362.73ZM2374.77 33V21.64H2378.82C2379.88 21.64 2380.73 21.9013 2381.37 22.424C2382.02 22.936 2382.34 23.6507 2382.34 24.568C2382.34 25.1013 2382.22 25.5813 2381.97 26.008C2381.73 26.4347 2381.39 26.7653 2380.97 27V27.032C2381.56 27.2027 2382.02 27.5387 2382.33 28.04C2382.65 28.5413 2382.81 29.096 2382.81 29.704C2382.81 30.7813 2382.43 31.6027 2381.69 32.168C2380.94 32.7227 2380.01 33 2378.89 33H2374.77ZM2376.84 26.28H2378.84C2379.28 26.28 2379.62 26.1467 2379.86 25.88C2380.12 25.6027 2380.25 25.2507 2380.25 24.824C2380.25 24.408 2380.12 24.072 2379.86 23.816C2379.62 23.5493 2379.27 23.416 2378.81 23.416H2376.84V26.28ZM2376.84 31.224H2379.05C2379.56 31.224 2379.96 31.0747 2380.25 30.776C2380.55 30.4667 2380.69 30.0667 2380.69 29.576C2380.69 29.096 2380.55 28.7067 2380.25 28.408C2379.96 28.0987 2379.56 27.944 2379.05 27.944H2376.84V31.224ZM2384.9 33V21.64H2386.96V26.456H2392.16V21.64H2394.21V33H2392.16V28.232H2386.96V33H2384.9ZM2406.16 33V21.64H2408.21V33H2406.16ZM2396.96 33V21.64H2399.03V25.624H2401.14C2402.19 25.624 2403.05 25.9653 2403.7 26.648C2404.36 27.32 2404.69 28.216 2404.69 29.336C2404.69 30.424 2404.36 31.3093 2403.71 31.992C2403.06 32.664 2402.22 33 2401.19 33H2396.96ZM2399.03 31.224H2400.82C2401.38 31.224 2401.82 31.0587 2402.13 30.728C2402.44 30.3867 2402.59 29.9227 2402.59 29.336C2402.59 28.7493 2402.43 28.28 2402.11 27.928C2401.79 27.576 2401.35 27.4 2400.79 27.4H2399.03V31.224ZM2410.98 33V21.64H2417.78V23.416H2413.04V26.392H2416.87V28.168H2413.04V31.224H2418.03V33H2410.98ZM2424.09 33V21.64H2428.13C2429.19 21.64 2430.04 21.9013 2430.68 22.424C2431.33 22.936 2431.65 23.6507 2431.65 24.568C2431.65 25.1013 2431.53 25.5813 2431.29 26.008C2431.04 26.4347 2430.71 26.7653 2430.28 27V27.032C2430.88 27.2027 2431.33 27.5387 2431.64 28.04C2431.96 28.5413 2432.12 29.096 2432.12 29.704C2432.12 30.7813 2431.75 31.6027 2431 32.168C2430.25 32.7227 2429.32 33 2428.2 33H2424.09ZM2426.15 26.28H2428.15C2428.59 26.28 2428.93 26.1467 2429.17 25.88C2429.43 25.6027 2429.56 25.2507 2429.56 24.824C2429.56 24.408 2429.43 24.072 2429.17 23.816C2428.93 23.5493 2428.58 23.416 2428.12 23.416H2426.15V26.28ZM2426.15 31.224H2428.36C2428.87 31.224 2429.27 31.0747 2429.56 30.776C2429.86 30.4667 2430.01 30.0667 2430.01 29.576C2430.01 29.096 2429.86 28.7067 2429.56 28.408C2429.27 28.0987 2428.87 27.944 2428.36 27.944H2426.15V31.224ZM2433.78 33L2434.71 21.64H2436.9L2439.14 27.256L2439.7 28.92H2439.73C2439.93 28.2587 2440.12 27.704 2440.29 27.256L2442.53 21.64H2444.72L2445.65 33H2443.59L2443.12 26.648C2443.1 26.424 2443.09 26.168 2443.09 25.88C2443.09 25.5813 2443.1 25.3413 2443.11 25.16V24.888H2443.08C2442.83 25.624 2442.62 26.2107 2442.45 26.648L2440.61 31.048H2438.82L2436.98 26.648L2436.36 24.872H2436.32C2436.36 25.5547 2436.35 26.1467 2436.31 26.648L2435.84 33H2433.78ZM2447.98 33V21.64H2454.78V23.416H2450.04V26.392H2453.87V28.168H2450.04V31.224H2455.03V33H2447.98ZM2457.09 33V21.64H2459.15V31.224H2462.81V21.64H2464.88V31.224H2468.54V21.64H2470.59V33H2457.09ZM2472.1 33L2476.09 21.64H2478.26L2482.25 33H2480.14L2479.16 30.088H2475.18L2474.22 33H2472.1ZM2475.69 28.408H2478.65L2477.64 25.368L2477.19 23.608H2477.16C2476.99 24.3547 2476.84 24.9413 2476.71 25.368L2475.69 28.408ZM2485.4 33V23.416H2481.67V21.64H2491.17V23.416H2487.45V33H2485.4ZM2492.79 33V21.64H2499.59V23.416H2494.85V26.392H2498.68V28.168H2494.85V31.224H2499.85V33H2492.79ZM2500.75 31.24C2501.6 31.1227 2502.22 30.5573 2502.6 29.544C2503 28.52 2503.2 26.92 2503.2 24.744V21.64H2510.22V33H2508.16V23.416H2505.16V24.776C2505.16 27.5707 2504.82 29.6507 2504.12 31.016C2503.43 32.3707 2502.3 33.0747 2500.75 33.128V31.24ZM2512.98 33V21.64H2515.04V25.624H2517.27C2518.31 25.624 2519.16 25.9653 2519.83 26.648C2520.49 27.32 2520.82 28.216 2520.82 29.336C2520.82 30.424 2520.49 31.3093 2519.84 31.992C2519.19 32.664 2518.34 33 2517.3 33H2512.98ZM2515.04 31.224H2516.93C2517.49 31.224 2517.93 31.0587 2518.24 30.728C2518.56 30.3867 2518.72 29.9227 2518.72 29.336C2518.72 28.7493 2518.56 28.28 2518.23 27.928C2517.91 27.576 2517.46 27.4 2516.9 27.4H2515.04V31.224ZM2521.96 27.272C2521.96 25.608 2522.51 24.2213 2523.61 23.112C2524.71 22.0027 2526.11 21.448 2527.8 21.448C2529.53 21.448 2530.93 21.9653 2531.99 23L2531 24.536C2530.59 24.184 2530.1 23.896 2529.53 23.672C2528.98 23.448 2528.43 23.336 2527.9 23.336C2526.7 23.336 2525.77 23.7093 2525.1 24.456C2524.43 25.2027 2524.09 26.1307 2524.09 27.24C2524.09 28.36 2524.43 29.32 2525.11 30.12C2525.8 30.9093 2526.73 31.304 2527.91 31.304C2529.13 31.304 2530.23 30.824 2531.21 29.864L2532.3 31.352C2531.09 32.5787 2529.6 33.192 2527.83 33.192C2526.07 33.192 2524.66 32.632 2523.58 31.512C2522.5 30.392 2521.96 28.9787 2521.96 27.272ZM2536.65 33V23.416H2532.92V21.64H2542.42V23.416H2538.7V33H2536.65ZM2544.04 33V21.64H2548.09C2549.14 21.64 2549.99 21.9013 2550.63 22.424C2551.28 22.936 2551.61 23.6507 2551.61 24.568C2551.61 25.1013 2551.49 25.5813 2551.24 26.008C2550.99 26.4347 2550.66 26.7653 2550.23 27V27.032C2550.83 27.2027 2551.28 27.5387 2551.59 28.04C2551.91 28.5413 2552.07 29.096 2552.07 29.704C2552.07 30.7813 2551.7 31.6027 2550.95 32.168C2550.21 32.7227 2549.27 33 2548.15 33H2544.04ZM2546.1 26.28H2548.1C2548.54 26.28 2548.88 26.1467 2549.13 25.88C2549.38 25.6027 2549.51 25.2507 2549.51 24.824C2549.51 24.408 2549.38 24.072 2549.13 23.816C2548.88 23.5493 2548.53 23.416 2548.07 23.416H2546.1V26.28ZM2546.1 31.224H2548.31C2548.82 31.224 2549.22 31.0747 2549.51 30.776C2549.81 30.4667 2549.96 30.0667 2549.96 29.576C2549.96 29.096 2549.81 28.7067 2549.51 28.408C2549.22 28.0987 2548.82 27.944 2548.31 27.944H2546.1V31.224ZM2552.79 33L2556.78 21.64H2558.95L2562.94 33H2560.82L2559.85 30.088H2555.86L2554.9 33H2552.79ZM2556.38 28.408H2559.34L2558.33 25.368L2557.88 23.608H2557.85C2557.68 24.3547 2557.53 24.9413 2557.4 25.368L2556.38 28.408ZM2568.45 33V21.64H2577.65V33H2575.58V23.416H2570.51V33H2568.45ZM2579.73 27.24C2579.73 25.608 2580.29 24.2373 2581.41 23.128C2582.54 22.008 2583.94 21.448 2585.6 21.448C2587.26 21.448 2588.66 22.008 2589.78 23.128C2590.91 24.2373 2591.47 25.608 2591.47 27.24C2591.47 28.9147 2590.91 30.328 2589.78 31.48C2588.66 32.6213 2587.26 33.192 2585.6 33.192C2583.94 33.192 2582.54 32.6213 2581.41 31.48C2580.29 30.328 2579.73 28.9147 2579.73 27.24ZM2581.86 27.24C2581.86 28.392 2582.22 29.3573 2582.94 30.136C2583.67 30.9147 2584.55 31.304 2585.6 31.304C2586.64 31.304 2587.53 30.9147 2588.26 30.136C2588.98 29.3573 2589.34 28.392 2589.34 27.24C2589.34 26.1413 2588.98 25.2187 2588.26 24.472C2587.53 23.7147 2586.64 23.336 2585.6 23.336C2584.55 23.336 2583.67 23.7147 2582.94 24.472C2582.22 25.2187 2581.86 26.1413 2581.86 27.24ZM2595.2 31.224H2599.71V23.416H2596.67V24.264C2596.67 27.3147 2596.18 29.6347 2595.2 31.224ZM2591.92 31.224H2593.07C2594.17 29.56 2594.72 27.192 2594.72 24.12V21.64H2601.77V31.224H2603.04V35.24H2601.2V33H2593.82V35.24H2591.92V31.224ZM2609.02 33V21.64H2611.09V26.264H2612.56L2615.23 21.64H2617.47L2614.26 27.048V27.08L2617.66 33H2615.33L2612.56 28.04H2611.09V33H2609.02ZM2618.26 27.24C2618.26 25.608 2618.82 24.2373 2619.94 23.128C2621.07 22.008 2622.47 21.448 2624.13 21.448C2625.79 21.448 2627.19 22.008 2628.31 23.128C2629.44 24.2373 2630 25.608 2630 27.24C2630 28.9147 2629.44 30.328 2628.31 31.48C2627.19 32.6213 2625.79 33.192 2624.13 33.192C2622.47 33.192 2621.07 32.6213 2619.94 31.48C2618.82 30.328 2618.26 28.9147 2618.26 27.24ZM2620.39 27.24C2620.39 28.392 2620.75 29.3573 2621.47 30.136C2622.2 30.9147 2623.09 31.304 2624.13 31.304C2625.18 31.304 2626.06 30.9147 2626.79 30.136C2627.51 29.3573 2627.87 28.392 2627.87 27.24C2627.87 26.1413 2627.51 25.2187 2626.79 24.472C2626.06 23.7147 2625.18 23.336 2624.13 23.336C2623.09 23.336 2622.2 23.7147 2621.47 24.472C2620.75 25.2187 2620.39 26.1413 2620.39 27.24ZM2632.09 33V21.64H2634.15V26.456H2639.35V21.64H2641.4V33H2639.35V28.232H2634.15V33H2632.09ZM2646.73 33V23.416H2643V21.64H2652.5V23.416H2648.77V33H2646.73ZM2654.12 33V21.64H2658.5C2659.57 21.64 2660.44 21.9813 2661.11 22.664C2661.78 23.3467 2662.12 24.2373 2662.12 25.336C2662.12 26.4347 2661.78 27.336 2661.11 28.04C2660.44 28.7333 2659.57 29.08 2658.5 29.08H2656.18V33H2654.12ZM2656.18 27.288H2658.12C2658.72 27.288 2659.18 27.112 2659.51 26.76C2659.85 26.408 2660.02 25.9333 2660.02 25.336C2660.02 24.7493 2659.85 24.2853 2659.51 23.944C2659.18 23.592 2658.73 23.416 2658.15 23.416H2656.18V27.288ZM2663.24 27.24C2663.24 25.608 2663.8 24.2373 2664.92 23.128C2666.05 22.008 2667.45 21.448 2669.12 21.448C2670.78 21.448 2672.17 22.008 2673.29 23.128C2674.42 24.2373 2674.99 25.608 2674.99 27.24C2674.99 28.9147 2674.42 30.328 2673.29 31.48C2672.17 32.6213 2670.78 33.192 2669.12 33.192C2667.45 33.192 2666.05 32.6213 2664.92 31.48C2663.8 30.328 2663.24 28.9147 2663.24 27.24ZM2665.37 27.24C2665.37 28.392 2665.73 29.3573 2666.46 30.136C2667.18 30.9147 2668.07 31.304 2669.12 31.304C2670.16 31.304 2671.05 30.9147 2671.77 30.136C2672.5 29.3573 2672.86 28.392 2672.86 27.24C2672.86 26.1413 2672.5 25.2187 2671.77 24.472C2671.05 23.7147 2670.16 23.336 2669.12 23.336C2668.07 23.336 2667.18 23.7147 2666.46 24.472C2665.73 25.2187 2665.37 26.1413 2665.37 27.24ZM2675.61 31.24C2676.46 31.1227 2677.08 30.5573 2677.46 29.544C2677.86 28.52 2678.05 26.92 2678.05 24.744V21.64H2685.08V33H2683.01V23.416H2680.02V24.776C2680.02 27.5707 2679.68 29.6507 2678.98 31.016C2678.29 32.3707 2677.16 33.0747 2675.61 33.128V31.24ZM2687.84 33V21.64H2694.64V23.416H2689.9V26.392H2693.72V28.168H2689.9V31.224H2694.89V33H2687.84ZM2696.51 33L2697.44 21.64H2699.63L2701.87 27.256L2702.43 28.92H2702.47C2702.67 28.2587 2702.86 27.704 2703.03 27.256L2705.27 21.64H2707.46L2708.39 33H2706.32L2705.86 26.648C2705.84 26.424 2705.83 26.168 2705.83 25.88C2705.83 25.5813 2705.83 25.3413 2705.84 25.16V24.888H2705.81C2705.56 25.624 2705.36 26.2107 2705.19 26.648L2703.35 31.048H2701.55L2699.71 26.648L2699.09 24.872H2699.06C2699.09 25.5547 2699.08 26.1467 2699.04 26.648L2698.58 33H2696.51ZM2714.41 32.408L2715.32 30.856C2715.8 31.2293 2716.23 31.416 2716.6 31.416C2717.1 31.416 2717.48 31.0853 2717.74 30.424L2713.29 21.64H2715.56L2717.98 26.712L2718.62 28.216H2718.65C2718.79 27.7147 2718.94 27.2187 2719.11 26.728L2720.94 21.64H2723.1L2719.59 30.616C2719.45 30.968 2719.31 31.2773 2719.16 31.544C2719.01 31.8107 2718.82 32.0773 2718.58 32.344C2718.35 32.6107 2718.07 32.8187 2717.75 32.968C2717.43 33.1173 2717.07 33.192 2716.68 33.192C2715.91 33.192 2715.15 32.9307 2714.41 32.408ZM2722.67 31.24C2723.52 31.1227 2724.14 30.5573 2724.53 29.544C2724.92 28.52 2725.12 26.92 2725.12 24.744V21.64H2732.14V33H2730.08V23.416H2727.09V24.776C2727.09 27.5707 2726.74 29.6507 2726.05 31.016C2725.35 32.3707 2724.23 33.0747 2722.67 33.128V31.24ZM2734.9 33V21.64H2736.96V25.624H2739.19C2740.23 25.624 2741.09 25.9653 2741.75 26.648C2742.41 27.32 2742.74 28.216 2742.74 29.336C2742.74 30.424 2742.41 31.3093 2741.76 31.992C2741.11 32.664 2740.26 33 2739.22 33H2734.9ZM2736.96 31.224H2738.85C2739.42 31.224 2739.85 31.0587 2740.16 30.728C2740.48 30.3867 2740.64 29.9227 2740.64 29.336C2740.64 28.7493 2740.48 28.28 2740.15 27.928C2739.83 27.576 2739.38 27.4 2738.82 27.4H2736.96V31.224ZM2746.05 33V23.416H2742.33V21.64H2751.83V23.416H2748.1V33H2746.05ZM2753.45 33V21.64H2757.83C2758.9 21.64 2759.77 21.9813 2760.44 22.664C2761.11 23.3467 2761.45 24.2373 2761.45 25.336C2761.45 26.4347 2761.11 27.336 2760.44 28.04C2759.77 28.7333 2758.9 29.08 2757.83 29.08H2755.51V33H2753.45ZM2755.51 27.288H2757.45C2758.04 27.288 2758.51 27.112 2758.84 26.76C2759.18 26.408 2759.35 25.9333 2759.35 25.336C2759.35 24.7493 2759.18 24.2853 2758.84 23.944C2758.51 23.592 2758.05 23.416 2757.48 23.416H2755.51V27.288ZM2761.42 33L2765.4 21.64H2767.58L2771.56 33H2769.45L2768.47 30.088H2764.49L2763.53 33H2761.42ZM2765 28.408H2767.96L2766.95 25.368L2766.51 23.608H2766.47C2766.3 24.3547 2766.15 24.9413 2766.03 25.368L2765 28.408ZM2772.05 31.576L2773.17 30.2C2773.48 30.5307 2773.86 30.808 2774.32 31.032C2774.78 31.256 2775.25 31.368 2775.73 31.368C2776.35 31.368 2776.84 31.2133 2777.2 30.904C2777.56 30.5947 2777.74 30.168 2777.74 29.624C2777.74 29.1333 2777.58 28.7493 2777.25 28.472C2776.93 28.184 2776.49 28.04 2775.94 28.04H2774.54V26.376H2775.66C2776.18 26.376 2776.6 26.2267 2776.93 25.928C2777.26 25.6293 2777.42 25.256 2777.42 24.808C2777.42 24.3493 2777.27 23.976 2776.98 23.688C2776.68 23.3893 2776.24 23.24 2775.68 23.24C2774.82 23.24 2773.99 23.56 2773.22 24.2L2772.38 22.696C2773.39 21.864 2774.6 21.448 2776.03 21.448C2777 21.448 2777.82 21.7253 2778.5 22.28C2779.18 22.8347 2779.52 23.592 2779.52 24.552C2779.52 25.672 2779 26.5147 2777.95 27.08V27.112C2778.54 27.2933 2779 27.6133 2779.34 28.072C2779.68 28.5307 2779.86 29.0907 2779.86 29.752C2779.86 30.7973 2779.48 31.6347 2778.72 32.264C2777.97 32.8827 2777.04 33.192 2775.92 33.192C2775.19 33.192 2774.48 33.0533 2773.79 32.776C2773.11 32.488 2772.53 32.088 2772.05 31.576ZM2781.95 33V21.64H2785.99C2787.05 21.64 2787.9 21.9013 2788.54 22.424C2789.19 22.936 2789.51 23.6507 2789.51 24.568C2789.51 25.1013 2789.39 25.5813 2789.15 26.008C2788.9 26.4347 2788.56 26.7653 2788.14 27V27.032C2788.74 27.2027 2789.19 27.5387 2789.5 28.04C2789.82 28.5413 2789.98 29.096 2789.98 29.704C2789.98 30.7813 2789.6 31.6027 2788.86 32.168C2788.11 32.7227 2787.18 33 2786.06 33H2781.95ZM2784.01 26.28H2786.01C2786.45 26.28 2786.79 26.1467 2787.03 25.88C2787.29 25.6027 2787.42 25.2507 2787.42 24.824C2787.42 24.408 2787.29 24.072 2787.03 23.816C2786.79 23.5493 2786.44 23.416 2785.98 23.416H2784.01V26.28ZM2784.01 31.224H2786.22C2786.73 31.224 2787.13 31.0747 2787.42 30.776C2787.72 30.4667 2787.87 30.0667 2787.87 29.576C2787.87 29.096 2787.72 28.7067 2787.42 28.408C2787.13 28.0987 2786.73 27.944 2786.22 27.944H2784.01V31.224ZM2791.63 32.408L2792.54 30.856C2793.02 31.2293 2793.45 31.416 2793.82 31.416C2794.32 31.416 2794.7 31.0853 2794.95 30.424L2790.51 21.64H2792.78L2795.19 26.712L2795.83 28.216H2795.87C2796.01 27.7147 2796.16 27.2187 2796.33 26.728L2798.15 21.64H2800.31L2796.81 30.616C2796.67 30.968 2796.53 31.2773 2796.38 31.544C2796.23 31.8107 2796.04 32.0773 2795.8 32.344C2795.57 32.6107 2795.29 32.8187 2794.97 32.968C2794.65 33.1173 2794.29 33.192 2793.9 33.192C2793.13 33.192 2792.37 32.9307 2791.63 32.408ZM2801.73 33V21.64H2803.79V26.264H2805.26L2807.94 21.64H2810.18L2806.96 27.048V27.08L2810.37 33H2808.03L2805.26 28.04H2803.79V33H2801.73ZM2810.68 33L2814.67 21.64H2816.84L2820.83 33H2818.71L2817.74 30.088H2813.75L2812.79 33H2810.68ZM2814.27 28.408H2817.23L2816.22 25.368L2815.77 23.608H2815.74C2815.57 24.3547 2815.42 24.9413 2815.29 25.368L2814.27 28.408Z" fill="#252525"/>
</svg>
