<svg width="2621" height="55" viewBox="0 0 2621 55" fill="none" xmlns="http://www.w3.org/2000/svg">
<rect width="279" height="55" rx="27.5" fill="#F3F6FF"/>
<path d="M24.7214 31.448L25.7614 29.992C26.1774 30.3867 26.6841 30.7067 27.2814 30.952C27.8788 31.1973 28.4974 31.32 29.1374 31.32C30.1401 31.32 30.9721 31.0213 31.6334 30.424C32.2948 29.8267 32.6948 29.0693 32.8334 28.152H27.3934V26.472H32.8494C32.7321 25.5547 32.3374 24.8027 31.6654 24.216C30.9934 23.6187 30.1561 23.32 29.1534 23.32C27.9801 23.32 26.9028 23.7467 25.9214 24.6L24.9294 23.048C25.4414 22.5253 26.0761 22.1307 26.8334 21.864C27.5908 21.5867 28.3854 21.448 29.2174 21.448C30.9561 21.448 32.3588 22.0027 33.4254 23.112C34.4921 24.2213 35.0254 25.6027 35.0254 27.256C35.0254 28.952 34.4708 30.3653 33.3614 31.496C32.2521 32.6267 30.8441 33.192 29.1374 33.192C27.4094 33.192 25.9374 32.6107 24.7214 31.448ZM35.6381 31.24C36.4914 31.1227 37.1101 30.5573 37.4941 29.544C37.8887 28.52 38.0861 26.92 38.0861 24.744V21.64H45.1101V33H43.0461V23.416H40.0541V24.776C40.0541 27.5707 39.7074 29.6507 39.0141 31.016C38.3207 32.3707 37.1954 33.0747 35.6381 33.128V31.24ZM47.8682 33V21.64H54.6682V23.416H49.9322V26.392H53.7562V28.168H49.9322V31.224H54.9242V33H47.8682ZM56.9776 33V21.64H59.0416V26.264H60.5136L63.1856 21.64H65.4256L62.2096 27.048V27.08L65.6176 33H63.2816L60.5136 28.04H59.0416V33H56.9776ZM69.7567 33V23.416H66.0287V21.64H75.5327V23.416H71.8047V33H69.7567ZM77.1494 33V21.64H81.5334C82.6001 21.64 83.4694 21.9813 84.1414 22.664C84.8134 23.3467 85.1494 24.2373 85.1494 25.336C85.1494 26.4347 84.8134 27.336 84.1414 28.04C83.4694 28.7333 82.6001 29.08 81.5334 29.08H79.2134V33H77.1494ZM79.2134 27.288H81.1494C81.7468 27.288 82.2108 27.112 82.5414 26.76C82.8828 26.408 83.0534 25.9333 83.0534 25.336C83.0534 24.7493 82.8828 24.2853 82.5414 23.944C82.2108 23.592 81.7574 23.416 81.1814 23.416H79.2134V27.288ZM86.2743 27.24C86.2743 25.608 86.8343 24.2373 87.9543 23.128C89.085 22.008 90.4823 21.448 92.1463 21.448C93.8103 21.448 95.2023 22.008 96.3223 23.128C97.453 24.2373 98.0183 25.608 98.0183 27.24C98.0183 28.9147 97.453 30.328 96.3223 31.48C95.2023 32.6213 93.8103 33.192 92.1463 33.192C90.4823 33.192 89.085 32.6213 87.9543 31.48C86.8343 30.328 86.2743 28.9147 86.2743 27.24ZM88.4023 27.24C88.4023 28.392 88.765 29.3573 89.4903 30.136C90.2156 30.9147 91.101 31.304 92.1463 31.304C93.1916 31.304 94.077 30.9147 94.8023 30.136C95.5276 29.3573 95.8903 28.392 95.8903 27.24C95.8903 26.1413 95.5276 25.2187 94.8023 24.472C94.077 23.7147 93.1916 23.336 92.1463 23.336C91.101 23.336 90.2156 23.7147 89.4903 24.472C88.765 25.2187 88.4023 26.1413 88.4023 27.24ZM100.103 33V21.64H102.167V26.456H107.367V21.64H109.415V33H107.367V28.232H102.167V33H100.103ZM112.165 33V21.64H114.229V26.456H119.429V21.64H121.477V33H119.429V28.232H114.229V33H112.165ZM122.98 33L126.964 21.64H129.14L133.124 33H131.012L130.036 30.088H126.052L125.092 33H122.98ZM126.564 28.408H129.524L128.516 25.368L128.068 23.608H128.036C127.865 24.3547 127.716 24.9413 127.588 25.368L126.564 28.408ZM133.53 33L135.93 29L136.298 28.408V28.376C135.626 28.0773 135.119 27.64 134.778 27.064C134.447 26.488 134.282 25.8267 134.282 25.08C134.282 24.312 134.452 23.6613 134.794 23.128C135.146 22.584 135.61 22.1893 136.186 21.944C136.655 21.7413 137.375 21.64 138.346 21.64H142.026V33H139.962V28.76H138.298L135.834 33H133.53ZM138.17 27.032H139.962V23.416H138.506C137.866 23.416 137.391 23.512 137.082 23.704C136.612 23.992 136.378 24.4773 136.378 25.16C136.378 25.7573 136.538 26.2213 136.858 26.552C137.178 26.872 137.615 27.032 138.17 27.032ZM148.774 33V21.64H155.75V23.416H150.838V26.04H153.11C154.166 26.04 155.02 26.36 155.67 27C156.332 27.6293 156.662 28.4773 156.662 29.544C156.662 30.568 156.337 31.4 155.686 32.04C155.036 32.68 154.193 33 153.158 33H148.774ZM150.838 31.224H152.79C153.356 31.224 153.793 31.0747 154.102 30.776C154.412 30.4773 154.566 30.0667 154.566 29.544C154.566 29.0213 154.406 28.6053 154.086 28.296C153.766 27.976 153.324 27.816 152.758 27.816H150.838V31.224ZM158.634 33V21.64H160.698V28.2L160.586 29.96H160.618C160.98 29.224 161.3 28.632 161.578 28.184L165.866 21.64H167.914V33H165.866V26.456L165.978 24.696H165.946C165.594 25.4213 165.279 26.008 165.002 26.456L160.682 33H158.634ZM170.681 33V21.64H177.657V23.416H172.745V26.04H175.017C176.073 26.04 176.926 26.36 177.577 27C178.238 27.6293 178.569 28.4773 178.569 29.544C178.569 30.568 178.243 31.4 177.593 32.04C176.942 32.68 176.099 33 175.065 33H170.681ZM172.745 31.224H174.697C175.262 31.224 175.699 31.0747 176.009 30.776C176.318 30.4773 176.473 30.0667 176.473 29.544C176.473 29.0213 176.313 28.6053 175.993 28.296C175.673 27.976 175.23 27.816 174.665 27.816H172.745V31.224ZM179.388 31.24C180.241 31.1227 180.86 30.5573 181.244 29.544C181.639 28.52 181.836 26.92 181.836 24.744V21.64H188.86V33H186.796V23.416H183.804V24.776C183.804 27.5707 183.457 29.6507 182.764 31.016C182.071 32.3707 180.945 33.0747 179.388 33.128V31.24ZM191.618 33V21.64H193.682V28.2L193.57 29.96H193.602C193.965 29.224 194.285 28.632 194.562 28.184L198.85 21.64H200.898V33H198.85V26.456L198.962 24.696H198.93C198.578 25.4213 198.264 26.008 197.986 26.456L193.666 33H191.618ZM202.993 27.24C202.993 25.608 203.553 24.2373 204.673 23.128C205.804 22.008 207.201 21.448 208.865 21.448C210.529 21.448 211.921 22.008 213.041 23.128C214.172 24.2373 214.737 25.608 214.737 27.24C214.737 28.9147 214.172 30.328 213.041 31.48C211.921 32.6213 210.529 33.192 208.865 33.192C207.201 33.192 205.804 32.6213 204.673 31.48C203.553 30.328 202.993 28.9147 202.993 27.24ZM205.121 27.24C205.121 28.392 205.484 29.3573 206.209 30.136C206.934 30.9147 207.82 31.304 208.865 31.304C209.91 31.304 210.796 30.9147 211.521 30.136C212.246 29.3573 212.609 28.392 212.609 27.24C212.609 26.1413 212.246 25.2187 211.521 24.472C210.796 23.7147 209.91 23.336 208.865 23.336C207.82 23.336 206.934 23.7147 206.209 24.472C205.484 25.2187 205.121 26.1413 205.121 27.24ZM218.991 33V23.416H215.263V21.64H224.767V23.416H221.039V33H218.991ZM226.384 33V21.64H233.184V23.416H228.448V26.392H232.272V28.168H228.448V31.224H233.44V33H226.384ZM235.493 33V21.64H237.557V26.264H239.029L241.701 21.64H243.941L240.725 27.048V27.08L244.133 33H241.797L239.029 28.04H237.557V33H235.493ZM244.448 33L248.432 21.64H250.608L254.592 33H252.48L251.504 30.088H247.52L246.56 33H244.448ZM248.032 28.408H250.992L249.984 25.368L249.536 23.608H249.504C249.334 24.3547 249.184 24.9413 249.056 25.368L248.032 28.408Z" fill="#005DFF"/>
<rect x="289" width="578" height="55" rx="27.5" fill="#F3F6FF"/>
<path d="M314.524 33V21.64H323.724V33H321.66V23.416H316.588V33H314.524ZM325.806 27.24C325.806 25.608 326.366 24.2373 327.486 23.128C328.616 22.008 330.014 21.448 331.678 21.448C333.342 21.448 334.734 22.008 335.854 23.128C336.984 24.2373 337.55 25.608 337.55 27.24C337.55 28.9147 336.984 30.328 335.854 31.48C334.734 32.6213 333.342 33.192 331.678 33.192C330.014 33.192 328.616 32.6213 327.486 31.48C326.366 30.328 325.806 28.9147 325.806 27.24ZM327.934 27.24C327.934 28.392 328.296 29.3573 329.022 30.136C329.747 30.9147 330.632 31.304 331.678 31.304C332.723 31.304 333.608 30.9147 334.334 30.136C335.059 29.3573 335.422 28.392 335.422 27.24C335.422 26.1413 335.059 25.2187 334.334 24.472C333.608 23.7147 332.723 23.336 331.678 23.336C330.632 23.336 329.747 23.7147 329.022 24.472C328.296 25.2187 327.934 26.1413 327.934 27.24ZM341.275 31.224H345.787V23.416H342.747V24.264C342.747 27.3147 342.256 29.6347 341.275 31.224ZM337.995 31.224H339.147C340.245 29.56 340.795 27.192 340.795 24.12V21.64H347.851V31.224H349.115V35.24H347.275V33H339.899V35.24H337.995V31.224ZM351.103 33V21.64H357.631V23.416H353.167V33H351.103ZM358.118 27.24C358.118 25.608 358.678 24.2373 359.798 23.128C360.929 22.008 362.326 21.448 363.99 21.448C365.654 21.448 367.046 22.008 368.166 23.128C369.297 24.2373 369.862 25.608 369.862 27.24C369.862 28.9147 369.297 30.328 368.166 31.48C367.046 32.6213 365.654 33.192 363.99 33.192C362.326 33.192 360.929 32.6213 359.798 31.48C358.678 30.328 358.118 28.9147 358.118 27.24ZM360.246 27.24C360.246 28.392 360.609 29.3573 361.334 30.136C362.059 30.9147 362.945 31.304 363.99 31.304C365.035 31.304 365.921 30.9147 366.646 30.136C367.371 29.3573 367.734 28.392 367.734 27.24C367.734 26.1413 367.371 25.2187 366.646 24.472C365.921 23.7147 365.035 23.336 363.99 23.336C362.945 23.336 362.059 23.7147 361.334 24.472C360.609 25.2187 360.246 26.1413 360.246 27.24ZM374.116 33V23.416H370.388V21.64H379.892V23.416H376.164V33H374.116ZM380.431 27.24C380.431 25.608 380.991 24.2373 382.111 23.128C383.241 22.008 384.639 21.448 386.303 21.448C387.967 21.448 389.359 22.008 390.479 23.128C391.609 24.2373 392.175 25.608 392.175 27.24C392.175 28.9147 391.609 30.328 390.479 31.48C389.359 32.6213 387.967 33.192 386.303 33.192C384.639 33.192 383.241 32.6213 382.111 31.48C380.991 30.328 380.431 28.9147 380.431 27.24ZM382.559 27.24C382.559 28.392 382.921 29.3573 383.647 30.136C384.372 30.9147 385.257 31.304 386.303 31.304C387.348 31.304 388.233 30.9147 388.959 30.136C389.684 29.3573 390.047 28.392 390.047 27.24C390.047 26.1413 389.684 25.2187 388.959 24.472C388.233 23.7147 387.348 23.336 386.303 23.336C385.257 23.336 384.372 23.7147 383.647 24.472C382.921 25.2187 382.559 26.1413 382.559 27.24ZM394.259 33V21.64H398.307C399.363 21.64 400.211 21.9013 400.851 22.424C401.501 22.936 401.827 23.6507 401.827 24.568C401.827 25.1013 401.704 25.5813 401.459 26.008C401.213 26.4347 400.877 26.7653 400.451 27V27.032C401.048 27.2027 401.501 27.5387 401.811 28.04C402.131 28.5413 402.291 29.096 402.291 29.704C402.291 30.7813 401.917 31.6027 401.171 32.168C400.424 32.7227 399.491 33 398.371 33H394.259ZM396.323 26.28H398.323C398.76 26.28 399.101 26.1467 399.347 25.88C399.603 25.6027 399.731 25.2507 399.731 24.824C399.731 24.408 399.603 24.072 399.347 23.816C399.101 23.5493 398.749 23.416 398.291 23.416H396.323V26.28ZM396.323 31.224H398.531C399.043 31.224 399.443 31.0747 399.731 30.776C400.029 30.4667 400.179 30.0667 400.179 29.576C400.179 29.096 400.029 28.7067 399.731 28.408C399.443 28.0987 399.043 27.944 398.531 27.944H396.323V31.224ZM404.384 33V21.64H406.448V26.264H407.92L410.592 21.64H412.832L409.616 27.048V27.08L413.024 33H410.688L407.92 28.04H406.448V33H404.384ZM413.339 33L417.323 21.64H419.499L423.483 33H421.371L420.395 30.088H416.411L415.451 33H413.339ZM416.923 28.408H419.883L418.875 25.368L418.427 23.608H418.395C418.224 24.3547 418.075 24.9413 417.947 25.368L416.923 28.408ZM428.993 33V21.64H438.193V33H436.129V23.416H431.057V33H428.993ZM440.274 27.24C440.274 25.608 440.834 24.2373 441.954 23.128C443.085 22.008 444.482 21.448 446.146 21.448C447.81 21.448 449.202 22.008 450.322 23.128C451.453 24.2373 452.018 25.608 452.018 27.24C452.018 28.9147 451.453 30.328 450.322 31.48C449.202 32.6213 447.81 33.192 446.146 33.192C444.482 33.192 443.085 32.6213 441.954 31.48C440.834 30.328 440.274 28.9147 440.274 27.24ZM442.402 27.24C442.402 28.392 442.765 29.3573 443.49 30.136C444.216 30.9147 445.101 31.304 446.146 31.304C447.192 31.304 448.077 30.9147 448.802 30.136C449.528 29.3573 449.89 28.392 449.89 27.24C449.89 26.1413 449.528 25.2187 448.802 24.472C448.077 23.7147 447.192 23.336 446.146 23.336C445.101 23.336 444.216 23.7147 443.49 24.472C442.765 25.2187 442.402 26.1413 442.402 27.24ZM453.671 33L454.599 21.64H456.791L459.031 27.256L459.591 28.92H459.623C459.825 28.2587 460.012 27.704 460.183 27.256L462.423 21.64H464.615L465.543 33H463.479L463.015 26.648C462.993 26.424 462.983 26.168 462.983 25.88C462.983 25.5813 462.988 25.3413 462.999 25.16V24.888H462.967C462.721 25.624 462.513 26.2107 462.343 26.648L460.503 31.048H458.711L456.871 26.648L456.247 24.872H456.215C456.247 25.5547 456.241 26.1467 456.199 26.648L455.735 33H453.671ZM467.868 33V21.64H474.668V23.416H469.932V26.392H473.756V28.168H469.932V31.224H474.924V33H467.868ZM476.978 33V21.64H479.042V31.224H482.706V21.64H484.77V31.224H488.434V21.64H490.482V31.224H491.89V35.24H490.034V33H476.978ZM493.821 33V21.64H500.621V23.416H495.885V26.392H499.709V28.168H495.885V31.224H500.877V33H493.821ZM502.931 33V21.64H504.995V26.456H510.195V21.64H512.243V33H510.195V28.232H504.995V33H502.931ZM514.993 33V21.64H517.057V28.2L516.945 29.96H516.977C517.34 29.224 517.66 28.632 517.937 28.184L522.225 21.64H524.273V33H522.225V26.456L522.337 24.696H522.305C521.953 25.4213 521.639 26.008 521.361 26.456L517.041 33H514.993ZM533.632 20.536C533.12 20.9307 532.501 21.128 531.776 21.128C531.051 21.128 530.432 20.9307 529.92 20.536C529.408 20.1307 529.152 19.592 529.152 18.92V18.712H530.704V18.92C530.704 19.24 530.811 19.4907 531.024 19.672C531.237 19.8427 531.488 19.928 531.776 19.928C532.064 19.928 532.315 19.8427 532.528 19.672C532.752 19.4907 532.864 19.2347 532.864 18.904V18.712H534.4V18.92C534.4 19.592 534.144 20.1307 533.632 20.536ZM527.04 33V21.64H529.104V28.2L528.992 29.96H529.024C529.387 29.224 529.707 28.632 529.984 28.184L534.272 21.64H536.32V33H534.272V26.456L534.384 24.696H534.352C534 25.4213 533.685 26.008 533.408 26.456L529.088 33H527.04ZM542.239 26.952C542.239 25.5653 542.719 24.4347 543.679 23.56C544.65 22.6853 545.903 22.248 547.439 22.248V21H549.503V22.248C551.039 22.248 552.287 22.6853 553.247 23.56C554.218 24.4347 554.703 25.5653 554.703 26.952C554.703 28.3707 554.223 29.528 553.263 30.424C552.303 31.3093 551.05 31.752 549.503 31.752V33.192H547.439V31.752C545.903 31.752 544.65 31.304 543.679 30.408C542.719 29.512 542.239 28.36 542.239 26.952ZM549.503 30.024C550.42 30.024 551.167 29.7413 551.743 29.176C552.319 28.6 552.607 27.8587 552.607 26.952C552.607 26.0667 552.319 25.352 551.743 24.808C551.167 24.2533 550.42 23.976 549.503 23.976V30.024ZM544.351 26.952C544.351 27.8587 544.634 28.6 545.199 29.176C545.775 29.7413 546.522 30.024 547.439 30.024V23.976C546.522 23.976 545.775 24.2533 545.199 24.808C544.634 25.352 544.351 26.0667 544.351 26.952ZM555.073 33L559.057 21.64H561.233L565.217 33H563.105L562.129 30.088H558.145L557.185 33H555.073ZM558.657 28.408H561.617L560.609 25.368L560.161 23.608H560.129C559.959 24.3547 559.809 24.9413 559.681 25.368L558.657 28.408ZM566.728 33V21.64H571.112C572.178 21.64 573.048 21.9813 573.72 22.664C574.392 23.3467 574.728 24.2373 574.728 25.336C574.728 26.4347 574.392 27.336 573.72 28.04C573.048 28.7333 572.178 29.08 571.112 29.08H568.792V33H566.728ZM568.792 27.288H570.728C571.325 27.288 571.789 27.112 572.12 26.76C572.461 26.408 572.632 25.9333 572.632 25.336C572.632 24.7493 572.461 24.2853 572.12 23.944C571.789 23.592 571.336 23.416 570.76 23.416H568.792V27.288ZM576.092 33L577.02 21.64H579.212L581.452 27.256L582.012 28.92H582.044C582.247 28.2587 582.434 27.704 582.604 27.256L584.844 21.64H587.036L587.964 33H585.9L585.436 26.648C585.415 26.424 585.404 26.168 585.404 25.88C585.404 25.5813 585.41 25.3413 585.42 25.16V24.888H585.388C585.143 25.624 584.935 26.2107 584.764 26.648L582.924 31.048H581.132L579.292 26.648L578.668 24.872H578.636C578.668 25.5547 578.663 26.1467 578.62 26.648L578.156 33H576.092ZM589.042 33L593.026 21.64H595.202L599.186 33H597.074L596.098 30.088H592.114L591.154 33H589.042ZM592.626 28.408H595.586L594.578 25.368L594.13 23.608H594.098C593.927 24.3547 593.778 24.9413 593.65 25.368L592.626 28.408ZM600.696 33V21.64H602.76V31.224H607.672V21.64H609.736V31.224H611.08V35.24H609.24V33H600.696ZM613.04 33V21.64H619.84V23.416H615.104V26.392H618.928V28.168H615.104V31.224H620.096V33H613.04ZM622.149 33V21.64H626.197C627.253 21.64 628.101 21.9013 628.741 22.424C629.392 22.936 629.717 23.6507 629.717 24.568C629.717 25.1013 629.595 25.5813 629.349 26.008C629.104 26.4347 628.768 26.7653 628.341 27V27.032C628.939 27.2027 629.392 27.5387 629.701 28.04C630.021 28.5413 630.181 29.096 630.181 29.704C630.181 30.7813 629.808 31.6027 629.061 32.168C628.315 32.7227 627.381 33 626.261 33H622.149ZM624.213 26.28H626.213C626.651 26.28 626.992 26.1467 627.237 25.88C627.493 25.6027 627.621 25.2507 627.621 24.824C627.621 24.408 627.493 24.072 627.237 23.816C626.992 23.5493 626.64 23.416 626.181 23.416H624.213V26.28ZM624.213 31.224H626.421C626.933 31.224 627.333 31.0747 627.621 30.776C627.92 30.4667 628.069 30.0667 628.069 29.576C628.069 29.096 627.92 28.7067 627.621 28.408C627.333 28.0987 626.933 27.944 626.421 27.944H624.213V31.224ZM634.554 33V23.416H630.826V21.64H640.33V23.416H636.602V33H634.554ZM641.946 33V21.64H644.01V28.2L643.898 29.96H643.93C644.293 29.224 644.613 28.632 644.89 28.184L649.178 21.64H651.226V33H649.178V26.456L649.29 24.696H649.258C648.906 25.4213 648.592 26.008 648.314 26.456L643.994 33H641.946ZM656.825 28.776C655.663 28.776 654.793 28.4827 654.217 27.896C653.641 27.2987 653.353 26.456 653.353 25.368V21.64H655.449V24.904C655.449 26.2373 656.084 26.904 657.353 26.904C658.217 26.904 658.996 26.68 659.689 26.232V21.64H661.785V33H659.689V28.6L659.721 28.072H659.689C658.772 28.5413 657.817 28.776 656.825 28.776ZM664.556 33V21.64H671.356V23.416H666.62V26.392H670.444V28.168H666.62V31.224H671.612V33H664.556ZM672.806 27.272C672.806 25.608 673.355 24.2213 674.454 23.112C675.553 22.0027 676.95 21.448 678.646 21.448C680.374 21.448 681.771 21.9653 682.838 23L681.846 24.536C681.43 24.184 680.939 23.896 680.374 23.672C679.819 23.448 679.275 23.336 678.742 23.336C677.547 23.336 676.614 23.7093 675.942 24.456C675.27 25.2027 674.934 26.1307 674.934 27.24C674.934 28.36 675.275 29.32 675.958 30.12C676.641 30.9093 677.574 31.304 678.758 31.304C679.974 31.304 681.073 30.824 682.054 29.864L683.142 31.352C681.937 32.5787 680.449 33.192 678.678 33.192C676.918 33.192 675.499 32.632 674.422 31.512C673.345 30.392 672.806 28.9787 672.806 27.272ZM684.915 33V21.64H686.979V26.264H688.451L691.123 21.64H693.363L690.147 27.048V27.08L693.555 33H691.219L688.451 28.04H686.979V33H684.915ZM694.149 27.24C694.149 25.608 694.709 24.2373 695.829 23.128C696.96 22.008 698.357 21.448 700.021 21.448C701.685 21.448 703.077 22.008 704.197 23.128C705.328 24.2373 705.893 25.608 705.893 27.24C705.893 28.9147 705.328 30.328 704.197 31.48C703.077 32.6213 701.685 33.192 700.021 33.192C698.357 33.192 696.96 32.6213 695.829 31.48C694.709 30.328 694.149 28.9147 694.149 27.24ZM696.277 27.24C696.277 28.392 696.64 29.3573 697.365 30.136C698.091 30.9147 698.976 31.304 700.021 31.304C701.067 31.304 701.952 30.9147 702.677 30.136C703.403 29.3573 703.765 28.392 703.765 27.24C703.765 26.1413 703.403 25.2187 702.677 24.472C701.952 23.7147 701.067 23.336 700.021 23.336C698.976 23.336 698.091 23.7147 697.365 24.472C696.64 25.2187 696.277 26.1413 696.277 27.24ZM714.57 20.536C714.058 20.9307 713.439 21.128 712.714 21.128C711.988 21.128 711.37 20.9307 710.858 20.536C710.346 20.1307 710.09 19.592 710.09 18.92V18.712H711.642V18.92C711.642 19.24 711.748 19.4907 711.962 19.672C712.175 19.8427 712.426 19.928 712.714 19.928C713.002 19.928 713.252 19.8427 713.466 19.672C713.69 19.4907 713.802 19.2347 713.802 18.904V18.712H715.338V18.92C715.338 19.592 715.082 20.1307 714.57 20.536ZM707.978 33V21.64H710.042V28.2L709.93 29.96H709.962C710.324 29.224 710.644 28.632 710.922 28.184L715.21 21.64H717.258V33H715.21V26.456L715.322 24.696H715.29C714.938 25.4213 714.623 26.008 714.346 26.456L710.026 33H707.978ZM723.352 27.24C723.352 25.608 723.912 24.2373 725.032 23.128C726.163 22.008 727.56 21.448 729.224 21.448C730.888 21.448 732.28 22.008 733.4 23.128C734.531 24.2373 735.096 25.608 735.096 27.24C735.096 28.9147 734.531 30.328 733.4 31.48C732.28 32.6213 730.888 33.192 729.224 33.192C727.56 33.192 726.163 32.6213 725.032 31.48C723.912 30.328 723.352 28.9147 723.352 27.24ZM725.48 27.24C725.48 28.392 725.843 29.3573 726.568 30.136C727.294 30.9147 728.179 31.304 729.224 31.304C730.27 31.304 731.155 30.9147 731.88 30.136C732.606 29.3573 732.968 28.392 732.968 27.24C732.968 26.1413 732.606 25.2187 731.88 24.472C731.155 23.7147 730.27 23.336 729.224 23.336C728.179 23.336 727.294 23.7147 726.568 24.472C725.843 25.2187 725.48 26.1413 725.48 27.24ZM737.181 33V21.64H741.565C742.631 21.64 743.501 21.9813 744.173 22.664C744.845 23.3467 745.181 24.2373 745.181 25.336C745.181 26.4347 744.845 27.336 744.173 28.04C743.501 28.7333 742.631 29.08 741.565 29.08H739.245V33H737.181ZM739.245 27.288H741.181C741.778 27.288 742.242 27.112 742.573 26.76C742.914 26.408 743.085 25.9333 743.085 25.336C743.085 24.7493 742.914 24.2853 742.573 23.944C742.242 23.592 741.789 23.416 741.213 23.416H739.245V27.288ZM746.978 33V21.64H753.506V23.416H749.042V33H746.978ZM752.855 33L756.839 21.64H759.015L762.999 33H760.887L759.911 30.088H755.927L754.967 33H752.855ZM756.439 28.408H759.399L758.391 25.368L757.943 23.608H757.911C757.74 24.3547 757.591 24.9413 757.463 25.368L756.439 28.408ZM764.509 33V21.64H766.573V26.456H771.773V21.64H773.821V33H771.773V28.232H766.573V33H764.509ZM776.571 33V21.64H778.635V28.2L778.523 29.96H778.555C778.918 29.224 779.238 28.632 779.515 28.184L783.803 21.64H785.851V33H783.803V26.456L783.915 24.696H783.883C783.531 25.4213 783.217 26.008 782.939 26.456L778.619 33H776.571ZM787.594 31.576L788.714 30.2C789.024 30.5307 789.408 30.808 789.866 31.032C790.325 31.256 790.794 31.368 791.274 31.368C791.893 31.368 792.384 31.2133 792.746 30.904C793.109 30.5947 793.29 30.168 793.29 29.624C793.29 29.1333 793.125 28.7493 792.794 28.472C792.474 28.184 792.037 28.04 791.482 28.04H790.09V26.376H791.21C791.722 26.376 792.144 26.2267 792.474 25.928C792.805 25.6293 792.97 25.256 792.97 24.808C792.97 24.3493 792.821 23.976 792.522 23.688C792.224 23.3893 791.792 23.24 791.226 23.24C790.362 23.24 789.541 23.56 788.762 24.2L787.93 22.696C788.933 21.864 790.149 21.448 791.578 21.448C792.549 21.448 793.37 21.7253 794.042 22.28C794.725 22.8347 795.066 23.592 795.066 24.552C795.066 25.672 794.544 26.5147 793.498 27.08V27.112C794.085 27.2933 794.549 27.6133 794.89 28.072C795.232 28.5307 795.402 29.0907 795.402 29.752C795.402 30.7973 795.024 31.6347 794.266 32.264C793.52 32.8827 792.586 33.192 791.466 33.192C790.741 33.192 790.032 33.0533 789.338 32.776C788.656 32.488 788.074 32.088 787.594 31.576ZM796.136 33L800.12 21.64H802.296L806.28 33H804.168L803.192 30.088H799.208L798.248 33H796.136ZM799.72 28.408H802.68L801.672 25.368L801.224 23.608H801.192C801.021 24.3547 800.872 24.9413 800.744 25.368L799.72 28.408ZM807.79 33V21.64H809.854V31.224H814.766V21.64H816.83V31.224H818.174V35.24H816.334V33H807.79ZM820.134 33V21.64H822.198V28.2L822.086 29.96H822.118C822.48 29.224 822.8 28.632 823.078 28.184L827.366 21.64H829.414V33H827.366V26.456L827.478 24.696H827.446C827.094 25.4213 826.779 26.008 826.502 26.456L822.182 33H820.134ZM832.181 33V21.64H834.245V28.2L834.133 29.96H834.165C834.527 29.224 834.847 28.632 835.125 28.184L839.413 21.64H841.461V33H839.413V26.456L839.525 24.696H839.493C839.141 25.4213 838.826 26.008 838.549 26.456L834.229 33H832.181Z" fill="#252525"/>
<rect x="877" width="400" height="55" rx="27.5" fill="#F3F6FF"/>
<path d="M901.559 26.952C901.559 25.5653 902.039 24.4347 902.999 23.56C903.97 22.6853 905.223 22.248 906.759 22.248V21H908.823V22.248C910.359 22.248 911.607 22.6853 912.567 23.56C913.538 24.4347 914.023 25.5653 914.023 26.952C914.023 28.3707 913.543 29.528 912.583 30.424C911.623 31.3093 910.37 31.752 908.823 31.752V33.192H906.759V31.752C905.223 31.752 903.97 31.304 902.999 30.408C902.039 29.512 901.559 28.36 901.559 26.952ZM908.823 30.024C909.741 30.024 910.487 29.7413 911.063 29.176C911.639 28.6 911.927 27.8587 911.927 26.952C911.927 26.0667 911.639 25.352 911.063 24.808C910.487 24.2533 909.741 23.976 908.823 23.976V30.024ZM903.671 26.952C903.671 27.8587 903.954 28.6 904.519 29.176C905.095 29.7413 905.842 30.024 906.759 30.024V23.976C905.842 23.976 905.095 24.2533 904.519 24.808C903.954 25.352 903.671 26.0667 903.671 26.952ZM914.394 33L918.378 21.64H920.554L924.538 33H922.426L921.45 30.088H917.466L916.506 33H914.394ZM917.978 28.408H920.938L919.93 25.368L919.482 23.608H919.45C919.279 24.3547 919.13 24.9413 919.002 25.368L917.978 28.408ZM926.048 33V21.64H930.432C931.499 21.64 932.368 21.9813 933.04 22.664C933.712 23.3467 934.048 24.2373 934.048 25.336C934.048 26.4347 933.712 27.336 933.04 28.04C932.368 28.7333 931.499 29.08 930.432 29.08H928.112V33H926.048ZM928.112 27.288H930.048C930.645 27.288 931.109 27.112 931.44 26.76C931.781 26.408 931.952 25.9333 931.952 25.336C931.952 24.7493 931.781 24.2853 931.44 23.944C931.109 23.592 930.656 23.416 930.08 23.416H928.112V27.288ZM935.413 33L936.341 21.64H938.533L940.773 27.256L941.333 28.92H941.365C941.567 28.2587 941.754 27.704 941.925 27.256L944.165 21.64H946.357L947.285 33H945.221L944.757 26.648C944.735 26.424 944.725 26.168 944.725 25.88C944.725 25.5813 944.73 25.3413 944.741 25.16V24.888H944.709C944.463 25.624 944.255 26.2107 944.085 26.648L942.245 31.048H940.453L938.613 26.648L937.989 24.872H937.957C937.989 25.5547 937.983 26.1467 937.941 26.648L937.477 33H935.413ZM948.362 33L952.346 21.64H954.522L958.506 33H956.394L955.418 30.088H951.434L950.474 33H948.362ZM951.946 28.408H954.906L953.898 25.368L953.45 23.608H953.418C953.248 24.3547 953.098 24.9413 952.97 25.368L951.946 28.408ZM960.017 33V21.64H962.081V31.224H966.993V21.64H969.057V31.224H970.401V35.24H968.561V33H960.017ZM972.36 33V21.64H979.16V23.416H974.424V26.392H978.248V28.168H974.424V31.224H979.416V33H972.36ZM981.47 33V21.64H985.518C986.574 21.64 987.422 21.9013 988.062 22.424C988.712 22.936 989.038 23.6507 989.038 24.568C989.038 25.1013 988.915 25.5813 988.67 26.008C988.424 26.4347 988.088 26.7653 987.662 27V27.032C988.259 27.2027 988.712 27.5387 989.022 28.04C989.342 28.5413 989.502 29.096 989.502 29.704C989.502 30.7813 989.128 31.6027 988.382 32.168C987.635 32.7227 986.702 33 985.582 33H981.47ZM983.534 26.28H985.534C985.971 26.28 986.312 26.1467 986.558 25.88C986.814 25.6027 986.942 25.2507 986.942 24.824C986.942 24.408 986.814 24.072 986.558 23.816C986.312 23.5493 985.96 23.416 985.502 23.416H983.534V26.28ZM983.534 31.224H985.742C986.254 31.224 986.654 31.0747 986.942 30.776C987.24 30.4667 987.39 30.0667 987.39 29.576C987.39 29.096 987.24 28.7067 986.942 28.408C986.654 28.0987 986.254 27.944 985.742 27.944H983.534V31.224ZM993.874 33V23.416H990.146V21.64H999.65V23.416H995.922V33H993.874ZM1001.27 33V21.64H1003.33V28.2L1003.22 29.96H1003.25C1003.61 29.224 1003.93 28.632 1004.21 28.184L1008.5 21.64H1010.55V33H1008.5V26.456L1008.61 24.696H1008.58C1008.23 25.4213 1007.91 26.008 1007.63 26.456L1003.31 33H1001.27ZM1016.15 28.776C1014.98 28.776 1014.11 28.4827 1013.54 27.896C1012.96 27.2987 1012.67 26.456 1012.67 25.368V21.64H1014.77V24.904C1014.77 26.2373 1015.4 26.904 1016.67 26.904C1017.54 26.904 1018.32 26.68 1019.01 26.232V21.64H1021.11V33H1019.01V28.6L1019.04 28.072H1019.01C1018.09 28.5413 1017.14 28.776 1016.15 28.776ZM1023.88 33V21.64H1030.68V23.416H1025.94V26.392H1029.76V28.168H1025.94V31.224H1030.93V33H1023.88ZM1032.13 27.272C1032.13 25.608 1032.68 24.2213 1033.77 23.112C1034.87 22.0027 1036.27 21.448 1037.97 21.448C1039.69 21.448 1041.09 21.9653 1042.16 23L1041.17 24.536C1040.75 24.184 1040.26 23.896 1039.69 23.672C1039.14 23.448 1038.6 23.336 1038.06 23.336C1036.87 23.336 1035.93 23.7093 1035.26 24.456C1034.59 25.2027 1034.25 26.1307 1034.25 27.24C1034.25 28.36 1034.6 29.32 1035.28 30.12C1035.96 30.9093 1036.89 31.304 1038.08 31.304C1039.29 31.304 1040.39 30.824 1041.37 29.864L1042.46 31.352C1041.26 32.5787 1039.77 33.192 1038 33.192C1036.24 33.192 1034.82 32.632 1033.74 31.512C1032.66 30.392 1032.13 28.9787 1032.13 27.272ZM1044.24 33V21.64H1046.3V26.264H1047.77L1050.44 21.64H1052.68L1049.47 27.048V27.08L1052.88 33H1050.54L1047.77 28.04H1046.3V33H1044.24ZM1053.47 27.24C1053.47 25.608 1054.03 24.2373 1055.15 23.128C1056.28 22.008 1057.68 21.448 1059.34 21.448C1061.01 21.448 1062.4 22.008 1063.52 23.128C1064.65 24.2373 1065.21 25.608 1065.21 27.24C1065.21 28.9147 1064.65 30.328 1063.52 31.48C1062.4 32.6213 1061.01 33.192 1059.34 33.192C1057.68 33.192 1056.28 32.6213 1055.15 31.48C1054.03 30.328 1053.47 28.9147 1053.47 27.24ZM1055.6 27.24C1055.6 28.392 1055.96 29.3573 1056.69 30.136C1057.41 30.9147 1058.3 31.304 1059.34 31.304C1060.39 31.304 1061.27 30.9147 1062 30.136C1062.72 29.3573 1063.09 28.392 1063.09 27.24C1063.09 26.1413 1062.72 25.2187 1062 24.472C1061.27 23.7147 1060.39 23.336 1059.34 23.336C1058.3 23.336 1057.41 23.7147 1056.69 24.472C1055.96 25.2187 1055.6 26.1413 1055.6 27.24ZM1067.3 33V21.64H1074.1V23.416H1069.36V26.392H1073.19V28.168H1069.36V31.224H1074.35V33H1067.3ZM1080.41 33V21.64H1082.47V26.264H1083.94L1086.62 21.64H1088.86L1085.64 27.048V27.08L1089.05 33H1086.71L1083.94 28.04H1082.47V33H1080.41ZM1089.64 27.24C1089.64 25.608 1090.2 24.2373 1091.32 23.128C1092.45 22.008 1093.85 21.448 1095.51 21.448C1097.18 21.448 1098.57 22.008 1099.69 23.128C1100.82 24.2373 1101.39 25.608 1101.39 27.24C1101.39 28.9147 1100.82 30.328 1099.69 31.48C1098.57 32.6213 1097.18 33.192 1095.51 33.192C1093.85 33.192 1092.45 32.6213 1091.32 31.48C1090.2 30.328 1089.64 28.9147 1089.64 27.24ZM1091.77 27.24C1091.77 28.392 1092.13 29.3573 1092.86 30.136C1093.58 30.9147 1094.47 31.304 1095.51 31.304C1096.56 31.304 1097.44 30.9147 1098.17 30.136C1098.89 29.3573 1099.26 28.392 1099.26 27.24C1099.26 26.1413 1098.89 25.2187 1098.17 24.472C1097.44 23.7147 1096.56 23.336 1095.51 23.336C1094.47 23.336 1093.58 23.7147 1092.86 24.472C1092.13 25.2187 1091.77 26.1413 1091.77 27.24ZM1103.47 33V21.64H1105.53V26.456H1110.73V21.64H1112.78V33H1110.73V28.232H1105.53V33H1103.47ZM1114.88 27.272C1114.88 25.608 1115.43 24.2213 1116.52 23.112C1117.62 22.0027 1119.02 21.448 1120.72 21.448C1122.44 21.448 1123.84 21.9653 1124.91 23L1123.92 24.536C1123.5 24.184 1123.01 23.896 1122.44 23.672C1121.89 23.448 1121.35 23.336 1120.81 23.336C1119.62 23.336 1118.68 23.7093 1118.01 24.456C1117.34 25.2027 1117 26.1307 1117 27.24C1117 28.36 1117.35 29.32 1118.03 30.12C1118.71 30.9093 1119.64 31.304 1120.83 31.304C1122.04 31.304 1123.14 30.824 1124.12 29.864L1125.21 31.352C1124.01 32.5787 1122.52 33.192 1120.75 33.192C1118.99 33.192 1117.57 32.632 1116.49 31.512C1115.41 30.392 1114.88 28.9787 1114.88 27.272ZM1126.68 32.408L1127.59 30.856C1128.07 31.2293 1128.5 31.416 1128.87 31.416C1129.37 31.416 1129.75 31.0853 1130.01 30.424L1125.56 21.64H1127.83L1130.25 26.712L1130.89 28.216H1130.92C1131.06 27.7147 1131.21 27.2187 1131.39 26.728L1133.21 21.64H1135.37L1131.87 30.616C1131.73 30.968 1131.58 31.2773 1131.43 31.544C1131.28 31.8107 1131.09 32.0773 1130.86 32.344C1130.62 32.6107 1130.35 32.8187 1130.03 32.968C1129.71 33.1173 1129.35 33.192 1128.95 33.192C1128.19 33.192 1127.43 32.9307 1126.68 32.408ZM1134.94 31.24C1135.8 31.1227 1136.41 30.5573 1136.8 29.544C1137.19 28.52 1137.39 26.92 1137.39 24.744V21.64H1144.41V33H1142.35V23.416H1139.36V24.776C1139.36 27.5707 1139.01 29.6507 1138.32 31.016C1137.63 32.3707 1136.5 33.0747 1134.94 33.128V31.24ZM1147.17 33V21.64H1149.24V25.624H1151.46C1152.51 25.624 1153.36 25.9653 1154.02 26.648C1154.68 27.32 1155.01 28.216 1155.01 29.336C1155.01 30.424 1154.69 31.3093 1154.04 31.992C1153.39 32.664 1152.54 33 1151.49 33H1147.17ZM1149.24 31.224H1151.12C1151.69 31.224 1152.13 31.0587 1152.44 30.728C1152.76 30.3867 1152.92 29.9227 1152.92 29.336C1152.92 28.7493 1152.75 28.28 1152.42 27.928C1152.1 27.576 1151.66 27.4 1151.09 27.4H1149.24V31.224ZM1158.33 33V23.416H1154.6V21.64H1164.1V23.416H1160.38V33H1158.33ZM1165.72 33V21.64H1167.78V28.2L1167.67 29.96H1167.7C1168.07 29.224 1168.39 28.632 1168.66 28.184L1172.95 21.64H1175V33H1172.95V26.456L1173.06 24.696H1173.03C1172.68 25.4213 1172.37 26.008 1172.09 26.456L1167.77 33H1165.72ZM1177.77 33V21.64H1182.15C1183.22 21.64 1184.09 21.9813 1184.76 22.664C1185.43 23.3467 1185.77 24.2373 1185.77 25.336C1185.77 26.4347 1185.43 27.336 1184.76 28.04C1184.09 28.7333 1183.22 29.08 1182.15 29.08H1179.83V33H1177.77ZM1179.83 27.288H1181.77C1182.36 27.288 1182.83 27.112 1183.16 26.76C1183.5 26.408 1183.67 25.9333 1183.67 25.336C1183.67 24.7493 1183.5 24.2853 1183.16 23.944C1182.83 23.592 1182.37 23.416 1181.8 23.416H1179.83V27.288ZM1186.89 27.24C1186.89 25.608 1187.45 24.2373 1188.57 23.128C1189.7 22.008 1191.1 21.448 1192.76 21.448C1194.43 21.448 1195.82 22.008 1196.94 23.128C1198.07 24.2373 1198.64 25.608 1198.64 27.24C1198.64 28.9147 1198.07 30.328 1196.94 31.48C1195.82 32.6213 1194.43 33.192 1192.76 33.192C1191.1 33.192 1189.7 32.6213 1188.57 31.48C1187.45 30.328 1186.89 28.9147 1186.89 27.24ZM1189.02 27.24C1189.02 28.392 1189.38 29.3573 1190.11 30.136C1190.83 30.9147 1191.72 31.304 1192.76 31.304C1193.81 31.304 1194.69 30.9147 1195.42 30.136C1196.14 29.3573 1196.51 28.392 1196.51 27.24C1196.51 26.1413 1196.14 25.2187 1195.42 24.472C1194.69 23.7147 1193.81 23.336 1192.76 23.336C1191.72 23.336 1190.83 23.7147 1190.11 24.472C1189.38 25.2187 1189.02 26.1413 1189.02 27.24ZM1200.72 33V21.64H1204.77C1205.82 21.64 1206.67 21.9013 1207.31 22.424C1207.96 22.936 1208.29 23.6507 1208.29 24.568C1208.29 25.1013 1208.17 25.5813 1207.92 26.008C1207.67 26.4347 1207.34 26.7653 1206.91 27V27.032C1207.51 27.2027 1207.96 27.5387 1208.27 28.04C1208.59 28.5413 1208.75 29.096 1208.75 29.704C1208.75 30.7813 1208.38 31.6027 1207.63 32.168C1206.89 32.7227 1205.95 33 1204.83 33H1200.72ZM1202.78 26.28H1204.78C1205.22 26.28 1205.56 26.1467 1205.81 25.88C1206.06 25.6027 1206.19 25.2507 1206.19 24.824C1206.19 24.408 1206.06 24.072 1205.81 23.816C1205.56 23.5493 1205.21 23.416 1204.75 23.416H1202.78V26.28ZM1202.78 31.224H1204.99C1205.5 31.224 1205.9 31.0747 1206.19 30.776C1206.49 30.4667 1206.64 30.0667 1206.64 29.576C1206.64 29.096 1206.49 28.7067 1206.19 28.408C1205.9 28.0987 1205.5 27.944 1204.99 27.944H1202.78V31.224ZM1209.47 33L1213.46 21.64H1215.63L1219.62 33H1217.5L1216.53 30.088H1212.54L1211.58 33H1209.47ZM1213.06 28.408H1216.02L1215.01 25.368L1214.56 23.608H1214.53C1214.36 24.3547 1214.21 24.9413 1214.08 25.368L1213.06 28.408ZM1221.13 33V21.64H1223.19V26.456H1228.39V21.64H1230.44V33H1228.39V28.232H1223.19V33H1221.13ZM1233.19 33V21.64H1235.25V28.2L1235.14 29.96H1235.17C1235.54 29.224 1235.86 28.632 1236.13 28.184L1240.42 21.64H1242.47V33H1240.42V26.456L1240.53 24.696H1240.5C1240.15 25.4213 1239.83 26.008 1239.56 26.456L1235.24 33H1233.19ZM1245.24 33V21.64H1252.04V23.416H1247.3V26.392H1251.12V28.168H1247.3V31.224H1252.29V33H1245.24Z" fill="#005DFF"/>
<rect x="1287" width="516" height="55" rx="27.5" fill="#F3F6FF"/>
<path d="M1312.48 33V21.64H1316.86C1317.93 21.64 1318.8 21.9813 1319.47 22.664C1320.14 23.3467 1320.48 24.2373 1320.48 25.336C1320.48 26.4347 1320.14 27.336 1319.47 28.04C1318.8 28.7333 1317.93 29.08 1316.86 29.08H1314.54V33H1312.48ZM1314.54 27.288H1316.48C1317.07 27.288 1317.54 27.112 1317.87 26.76C1318.21 26.408 1318.38 25.9333 1318.38 25.336C1318.38 24.7493 1318.21 24.2853 1317.87 23.944C1317.54 23.592 1317.09 23.416 1316.51 23.416H1314.54V27.288ZM1321.6 27.24C1321.6 25.608 1322.16 24.2373 1323.28 23.128C1324.41 22.008 1325.81 21.448 1327.47 21.448C1329.14 21.448 1330.53 22.008 1331.65 23.128C1332.78 24.2373 1333.35 25.608 1333.35 27.24C1333.35 28.9147 1332.78 30.328 1331.65 31.48C1330.53 32.6213 1329.14 33.192 1327.47 33.192C1325.81 33.192 1324.41 32.6213 1323.28 31.48C1322.16 30.328 1321.6 28.9147 1321.6 27.24ZM1323.73 27.24C1323.73 28.392 1324.09 29.3573 1324.82 30.136C1325.54 30.9147 1326.43 31.304 1327.47 31.304C1328.52 31.304 1329.41 30.9147 1330.13 30.136C1330.86 29.3573 1331.22 28.392 1331.22 27.24C1331.22 26.1413 1330.86 25.2187 1330.13 24.472C1329.41 23.7147 1328.52 23.336 1327.47 23.336C1326.43 23.336 1325.54 23.7147 1324.82 24.472C1324.09 25.2187 1323.73 26.1413 1323.73 27.24ZM1334.14 31.576L1335.26 30.2C1335.57 30.5307 1335.95 30.808 1336.41 31.032C1336.87 31.256 1337.34 31.368 1337.82 31.368C1338.44 31.368 1338.93 31.2133 1339.29 30.904C1339.66 30.5947 1339.84 30.168 1339.84 29.624C1339.84 29.1333 1339.67 28.7493 1339.34 28.472C1339.02 28.184 1338.58 28.04 1338.03 28.04H1336.64V26.376H1337.76C1338.27 26.376 1338.69 26.2267 1339.02 25.928C1339.35 25.6293 1339.52 25.256 1339.52 24.808C1339.52 24.3493 1339.37 23.976 1339.07 23.688C1338.77 23.3893 1338.34 23.24 1337.77 23.24C1336.91 23.24 1336.09 23.56 1335.31 24.2L1334.48 22.696C1335.48 21.864 1336.7 21.448 1338.13 21.448C1339.1 21.448 1339.92 21.7253 1340.59 22.28C1341.27 22.8347 1341.61 23.592 1341.61 24.552C1341.61 25.672 1341.09 26.5147 1340.05 27.08V27.112C1340.63 27.2933 1341.1 27.6133 1341.44 28.072C1341.78 28.5307 1341.95 29.0907 1341.95 29.752C1341.95 30.7973 1341.57 31.6347 1340.81 32.264C1340.07 32.8827 1339.13 33.192 1338.01 33.192C1337.29 33.192 1336.58 33.0533 1335.89 32.776C1335.2 32.488 1334.62 32.088 1334.14 31.576ZM1344.04 33V21.64H1346.1V26.456H1351.3V21.64H1353.35V33H1351.3V28.232H1346.1V33H1344.04ZM1356.1 33V21.64H1358.17V28.2L1358.05 29.96H1358.09C1358.45 29.224 1358.77 28.632 1359.05 28.184L1363.33 21.64H1365.38V33H1363.33V26.456L1363.45 24.696H1363.41C1363.06 25.4213 1362.75 26.008 1362.47 26.456L1358.15 33H1356.1ZM1370.98 28.776C1369.82 28.776 1368.95 28.4827 1368.37 27.896C1367.8 27.2987 1367.51 26.456 1367.51 25.368V21.64H1369.61V24.904C1369.61 26.2373 1370.24 26.904 1371.51 26.904C1372.37 26.904 1373.15 26.68 1373.85 26.232V21.64H1375.94V33H1373.85V28.6L1373.88 28.072H1373.85C1372.93 28.5413 1371.97 28.776 1370.98 28.776ZM1378.71 33V21.64H1380.78V26.456H1385.98V21.64H1388.02V33H1385.98V28.232H1380.78V33H1378.71ZM1389.53 33L1393.51 21.64H1395.69L1399.67 33H1397.56L1396.58 30.088H1392.6L1391.64 33H1389.53ZM1393.11 28.408H1396.07L1395.06 25.368L1394.61 23.608H1394.58C1394.41 24.3547 1394.26 24.9413 1394.13 25.368L1393.11 28.408ZM1400.08 33L1402.48 29L1402.84 28.408V28.376C1402.17 28.0773 1401.67 27.64 1401.32 27.064C1400.99 26.488 1400.83 25.8267 1400.83 25.08C1400.83 24.312 1401 23.6613 1401.34 23.128C1401.69 22.584 1402.16 22.1893 1402.73 21.944C1403.2 21.7413 1403.92 21.64 1404.89 21.64H1408.57V33H1406.51V28.76H1404.84L1402.38 33H1400.08ZM1404.72 27.032H1406.51V23.416H1405.05C1404.41 23.416 1403.94 23.512 1403.63 23.704C1403.16 23.992 1402.92 24.4773 1402.92 25.16C1402.92 25.7573 1403.08 26.2213 1403.4 26.552C1403.72 26.872 1404.16 27.032 1404.72 27.032ZM1417.9 33V23.416H1414.17V21.64H1423.67V23.416H1419.95V33H1417.9ZM1424.21 27.24C1424.21 25.608 1424.77 24.2373 1425.89 23.128C1427.02 22.008 1428.42 21.448 1430.08 21.448C1431.75 21.448 1433.14 22.008 1434.26 23.128C1435.39 24.2373 1435.96 25.608 1435.96 27.24C1435.96 28.9147 1435.39 30.328 1434.26 31.48C1433.14 32.6213 1431.75 33.192 1430.08 33.192C1428.42 33.192 1427.02 32.6213 1425.89 31.48C1424.77 30.328 1424.21 28.9147 1424.21 27.24ZM1426.34 27.24C1426.34 28.392 1426.7 29.3573 1427.43 30.136C1428.15 30.9147 1429.04 31.304 1430.08 31.304C1431.13 31.304 1432.01 30.9147 1432.74 30.136C1433.47 29.3573 1433.83 28.392 1433.83 27.24C1433.83 26.1413 1433.47 25.2187 1432.74 24.472C1432.01 23.7147 1431.13 23.336 1430.08 23.336C1429.04 23.336 1428.15 23.7147 1427.43 24.472C1426.7 25.2187 1426.34 26.1413 1426.34 27.24ZM1438.04 33V21.64H1442.42C1443.49 21.64 1444.36 21.9813 1445.03 22.664C1445.7 23.3467 1446.04 24.2373 1446.04 25.336C1446.04 26.4347 1445.7 27.336 1445.03 28.04C1444.36 28.7333 1443.49 29.08 1442.42 29.08H1440.1V33H1438.04ZM1440.1 27.288H1442.04C1442.64 27.288 1443.1 27.112 1443.43 26.76C1443.77 26.408 1443.94 25.9333 1443.94 25.336C1443.94 24.7493 1443.77 24.2853 1443.43 23.944C1443.1 23.592 1442.65 23.416 1442.07 23.416H1440.1V27.288ZM1447.84 33V21.64H1454.36V23.416H1449.9V33H1447.84ZM1454.85 27.24C1454.85 25.608 1455.41 24.2373 1456.53 23.128C1457.66 22.008 1459.06 21.448 1460.72 21.448C1462.39 21.448 1463.78 22.008 1464.9 23.128C1466.03 24.2373 1466.6 25.608 1466.6 27.24C1466.6 28.9147 1466.03 30.328 1464.9 31.48C1463.78 32.6213 1462.39 33.192 1460.72 33.192C1459.06 33.192 1457.66 32.6213 1456.53 31.48C1455.41 30.328 1454.85 28.9147 1454.85 27.24ZM1456.98 27.24C1456.98 28.392 1457.34 29.3573 1458.07 30.136C1458.79 30.9147 1459.68 31.304 1460.72 31.304C1461.77 31.304 1462.66 30.9147 1463.38 30.136C1464.11 29.3573 1464.47 28.392 1464.47 27.24C1464.47 26.1413 1464.11 25.2187 1463.38 24.472C1462.66 23.7147 1461.77 23.336 1460.72 23.336C1459.68 23.336 1458.79 23.7147 1458.07 24.472C1457.34 25.2187 1456.98 26.1413 1456.98 27.24ZM1468.68 33V21.64H1472.73C1473.78 21.64 1474.63 21.9013 1475.27 22.424C1475.92 22.936 1476.25 23.6507 1476.25 24.568C1476.25 25.1013 1476.13 25.5813 1475.88 26.008C1475.64 26.4347 1475.3 26.7653 1474.87 27V27.032C1475.47 27.2027 1475.92 27.5387 1476.23 28.04C1476.55 28.5413 1476.71 29.096 1476.71 29.704C1476.71 30.7813 1476.34 31.6027 1475.59 32.168C1474.85 32.7227 1473.91 33 1472.79 33H1468.68ZM1470.74 26.28H1472.74C1473.18 26.28 1473.52 26.1467 1473.77 25.88C1474.02 25.6027 1474.15 25.2507 1474.15 24.824C1474.15 24.408 1474.02 24.072 1473.77 23.816C1473.52 23.5493 1473.17 23.416 1472.71 23.416H1470.74V26.28ZM1470.74 31.224H1472.95C1473.46 31.224 1473.86 31.0747 1474.15 30.776C1474.45 30.4667 1474.6 30.0667 1474.6 29.576C1474.6 29.096 1474.45 28.7067 1474.15 28.408C1473.86 28.0987 1473.46 27.944 1472.95 27.944H1470.74V31.224ZM1477.54 31.24C1478.4 31.1227 1479.02 30.5573 1479.4 29.544C1479.79 28.52 1479.99 26.92 1479.99 24.744V21.64H1487.02V33H1484.95V23.416H1481.96V24.776C1481.96 27.5707 1481.61 29.6507 1480.92 31.016C1480.23 32.3707 1479.1 33.0747 1477.54 33.128V31.24ZM1488.67 33L1491.07 29L1491.44 28.408V28.376C1490.77 28.0773 1490.26 27.64 1489.92 27.064C1489.59 26.488 1489.42 25.8267 1489.42 25.08C1489.42 24.312 1489.59 23.6613 1489.93 23.128C1490.29 22.584 1490.75 22.1893 1491.33 21.944C1491.8 21.7413 1492.52 21.64 1493.49 21.64H1497.17V33H1495.1V28.76H1493.44L1490.97 33H1488.67ZM1493.31 27.032H1495.1V23.416H1493.65C1493.01 23.416 1492.53 23.512 1492.22 23.704C1491.75 23.992 1491.52 24.4773 1491.52 25.16C1491.52 25.7573 1491.68 26.2213 1492 26.552C1492.32 26.872 1492.76 27.032 1493.31 27.032ZM1502.76 31.24C1503.62 31.1227 1504.24 30.5573 1504.62 29.544C1505.01 28.52 1505.21 26.92 1505.21 24.744V21.64H1512.24V33H1510.17V23.416H1507.18V24.776C1507.18 27.5707 1506.83 29.6507 1506.14 31.016C1505.45 32.3707 1504.32 33.0747 1502.76 33.128V31.24ZM1514.99 33V21.64H1521.79V23.416H1517.06V26.392H1520.88V28.168H1517.06V31.224H1522.05V33H1514.99ZM1524.1 33V21.64H1526.17V26.264H1527.64L1530.31 21.64H1532.55L1529.33 27.048V27.08L1532.74 33H1530.41L1527.64 28.04H1526.17V33H1524.1ZM1533.06 33L1537.04 21.64H1539.22L1543.2 33H1541.09L1540.11 30.088H1536.13L1535.17 33H1533.06ZM1536.64 28.408H1539.6L1538.59 25.368L1538.15 23.608H1538.11C1537.94 24.3547 1537.79 24.9413 1537.67 25.368L1536.64 28.408ZM1544.71 33V21.64H1549.1C1550.16 21.64 1551.03 21.9813 1551.7 22.664C1552.38 23.3467 1552.71 24.2373 1552.71 25.336C1552.71 26.4347 1552.38 27.336 1551.7 28.04C1551.03 28.7333 1550.16 29.08 1549.1 29.08H1546.78V33H1544.71ZM1546.78 27.288H1548.71C1549.31 27.288 1549.77 27.112 1550.1 26.76C1550.45 26.408 1550.62 25.9333 1550.62 25.336C1550.62 24.7493 1550.45 24.2853 1550.1 23.944C1549.77 23.592 1549.32 23.416 1548.74 23.416H1546.78V27.288ZM1553.85 27.272C1553.85 25.608 1554.4 24.2213 1555.5 23.112C1556.6 22.0027 1558 21.448 1559.69 21.448C1561.42 21.448 1562.82 21.9653 1563.88 23L1562.89 24.536C1562.48 24.184 1561.99 23.896 1561.42 23.672C1560.87 23.448 1560.32 23.336 1559.79 23.336C1558.59 23.336 1557.66 23.7093 1556.99 24.456C1556.32 25.2027 1555.98 26.1307 1555.98 27.24C1555.98 28.36 1556.32 29.32 1557 30.12C1557.69 30.9093 1558.62 31.304 1559.8 31.304C1561.02 31.304 1562.12 30.824 1563.1 29.864L1564.19 31.352C1562.98 32.5787 1561.5 33.192 1559.72 33.192C1557.96 33.192 1556.55 32.632 1555.47 31.512C1554.39 30.392 1553.85 28.9787 1553.85 27.272ZM1568.54 33V23.416H1564.81V21.64H1574.31V23.416H1570.59V33H1568.54ZM1575.93 33V21.64H1579.98C1581.03 21.64 1581.88 21.9013 1582.52 22.424C1583.17 22.936 1583.5 23.6507 1583.5 24.568C1583.5 25.1013 1583.38 25.5813 1583.13 26.008C1582.89 26.4347 1582.55 26.7653 1582.12 27V27.032C1582.72 27.2027 1583.17 27.5387 1583.48 28.04C1583.8 28.5413 1583.96 29.096 1583.96 29.704C1583.96 30.7813 1583.59 31.6027 1582.84 32.168C1582.1 32.7227 1581.16 33 1580.04 33H1575.93ZM1577.99 26.28H1579.99C1580.43 26.28 1580.77 26.1467 1581.02 25.88C1581.27 25.6027 1581.4 25.2507 1581.4 24.824C1581.4 24.408 1581.27 24.072 1581.02 23.816C1580.77 23.5493 1580.42 23.416 1579.96 23.416H1577.99V26.28ZM1577.99 31.224H1580.2C1580.71 31.224 1581.11 31.0747 1581.4 30.776C1581.7 30.4667 1581.85 30.0667 1581.85 29.576C1581.85 29.096 1581.7 28.7067 1581.4 28.408C1581.11 28.0987 1580.71 27.944 1580.2 27.944H1577.99V31.224ZM1586.06 33V21.64H1592.86V23.416H1588.12V26.392H1591.94V28.168H1588.12V31.224H1593.11V33H1586.06ZM1595.17 33V21.64H1597.23V26.456H1602.43V21.64H1604.48V33H1602.43V28.232H1597.23V33H1595.17ZM1607.23 33V21.64H1609.29V26.456H1614.49V21.64H1616.54V33H1614.49V28.232H1609.29V33H1607.23ZM1628.49 33V21.64H1630.54V33H1628.49ZM1619.29 33V21.64H1621.35V25.624H1623.47C1624.52 25.624 1625.38 25.9653 1626.03 26.648C1626.69 27.32 1627.02 28.216 1627.02 29.336C1627.02 30.424 1626.69 31.3093 1626.04 31.992C1625.39 32.664 1624.55 33 1623.51 33H1619.29ZM1621.35 31.224H1623.15C1623.71 31.224 1624.15 31.0587 1624.46 30.728C1624.77 30.3867 1624.92 29.9227 1624.92 29.336C1624.92 28.7493 1624.76 28.28 1624.44 27.928C1624.12 27.576 1623.68 27.4 1623.11 27.4H1621.35V31.224ZM1632.87 33L1633.8 21.64H1635.99L1638.23 27.256L1638.79 28.92H1638.83C1639.03 28.2587 1639.22 27.704 1639.39 27.256L1641.63 21.64H1643.82L1644.75 33H1642.68L1642.22 26.648C1642.2 26.424 1642.19 26.168 1642.19 25.88C1642.19 25.5813 1642.19 25.3413 1642.2 25.16V24.888H1642.17C1641.92 25.624 1641.72 26.2107 1641.55 26.648L1639.71 31.048H1637.91L1636.07 26.648L1635.45 24.872H1635.42C1635.45 25.5547 1635.44 26.1467 1635.4 26.648L1634.94 33H1632.87ZM1647.07 33V21.64H1649.14V28.2L1649.02 29.96H1649.06C1649.42 29.224 1649.74 28.632 1650.02 28.184L1654.3 21.64H1656.35V33H1654.3V26.456L1654.42 24.696H1654.38C1654.03 25.4213 1653.72 26.008 1653.44 26.456L1649.12 33H1647.07ZM1663.12 33V21.64H1672.32V33H1670.25V23.416H1665.18V33H1663.12ZM1675.07 33V21.64H1679.46C1680.52 21.64 1681.39 21.9813 1682.06 22.664C1682.74 23.3467 1683.07 24.2373 1683.07 25.336C1683.07 26.4347 1682.74 27.336 1682.06 28.04C1681.39 28.7333 1680.52 29.08 1679.46 29.08H1677.14V33H1675.07ZM1677.14 27.288H1679.07C1679.67 27.288 1680.13 27.112 1680.46 26.76C1680.8 26.408 1680.98 25.9333 1680.98 25.336C1680.98 24.7493 1680.8 24.2853 1680.46 23.944C1680.13 23.592 1679.68 23.416 1679.1 23.416H1677.14V27.288ZM1684.87 33V21.64H1691.67V23.416H1686.93V26.392H1690.76V28.168H1686.93V31.224H1691.92V33H1684.87ZM1693.98 33V21.64H1703.18V33H1701.11V23.416H1696.04V33H1693.98ZM1704.68 33L1708.67 21.64H1710.84L1714.83 33H1712.71L1711.74 30.088H1707.75L1706.79 33H1704.68ZM1708.27 28.408H1711.23L1710.22 25.368L1709.77 23.608H1709.74C1709.57 24.3547 1709.42 24.9413 1709.29 25.368L1708.27 28.408ZM1716.34 33V21.64H1720.72C1721.79 21.64 1722.66 21.9813 1723.33 22.664C1724 23.3467 1724.34 24.2373 1724.34 25.336C1724.34 26.4347 1724 27.336 1723.33 28.04C1722.66 28.7333 1721.79 29.08 1720.72 29.08H1718.4V33H1716.34ZM1718.4 27.288H1720.34C1720.93 27.288 1721.4 27.112 1721.73 26.76C1722.07 26.408 1722.24 25.9333 1722.24 25.336C1722.24 24.7493 1722.07 24.2853 1721.73 23.944C1721.4 23.592 1720.94 23.416 1720.37 23.416H1718.4V27.288ZM1724.31 33L1728.29 21.64H1730.47L1734.45 33H1732.34L1731.36 30.088H1727.38L1726.42 33H1724.31ZM1727.89 28.408H1730.85L1729.84 25.368L1729.4 23.608H1729.36C1729.19 24.3547 1729.04 24.9413 1728.92 25.368L1727.89 28.408ZM1737.6 33V23.416H1733.87V21.64H1743.38V23.416H1739.65V33H1737.6ZM1742.81 33L1746.79 21.64H1748.97L1752.95 33H1750.84L1749.86 30.088H1745.88L1744.92 33H1742.81ZM1746.39 28.408H1749.35L1748.34 25.368L1747.9 23.608H1747.86C1747.69 24.3547 1747.54 24.9413 1747.42 25.368L1746.39 28.408ZM1754.03 33L1754.96 21.64H1757.15L1759.39 27.256L1759.95 28.92H1759.98C1760.18 28.2587 1760.37 27.704 1760.54 27.256L1762.78 21.64H1764.97L1765.9 33H1763.84L1763.37 26.648C1763.35 26.424 1763.34 26.168 1763.34 25.88C1763.34 25.5813 1763.35 25.3413 1763.36 25.16V24.888H1763.33C1763.08 25.624 1762.87 26.2107 1762.7 26.648L1760.86 31.048H1759.07L1757.23 26.648L1756.61 24.872H1756.57C1756.61 25.5547 1756.6 26.1467 1756.56 26.648L1756.09 33H1754.03ZM1768.23 33V21.64H1770.29V28.2L1770.18 29.96H1770.21C1770.57 29.224 1770.89 28.632 1771.17 28.184L1775.46 21.64H1777.51V33H1775.46V26.456L1775.57 24.696H1775.54C1775.19 25.4213 1774.87 26.008 1774.6 26.456L1770.28 33H1768.23Z" fill="#252525"/>
<rect x="1813" width="366" height="55" rx="27.5" fill="#F3F6FF"/>
<path d="M1837.74 27.24C1837.74 25.608 1838.3 24.2373 1839.42 23.128C1840.55 22.008 1841.94 21.448 1843.61 21.448C1845.27 21.448 1846.66 22.008 1847.78 23.128C1848.91 24.2373 1849.48 25.608 1849.48 27.24C1849.48 28.9147 1848.91 30.328 1847.78 31.48C1846.66 32.6213 1845.27 33.192 1843.61 33.192C1841.94 33.192 1840.55 32.6213 1839.42 31.48C1838.3 30.328 1837.74 28.9147 1837.74 27.24ZM1839.86 27.24C1839.86 28.392 1840.23 29.3573 1840.95 30.136C1841.68 30.9147 1842.56 31.304 1843.61 31.304C1844.65 31.304 1845.54 30.9147 1846.26 30.136C1846.99 29.3573 1847.35 28.392 1847.35 27.24C1847.35 26.1413 1846.99 25.2187 1846.26 24.472C1845.54 23.7147 1844.65 23.336 1843.61 23.336C1842.56 23.336 1841.68 23.7147 1840.95 24.472C1840.23 25.2187 1839.86 26.1413 1839.86 27.24ZM1853.73 33V23.416H1850.01V21.64H1859.51V23.416H1855.78V33H1853.73ZM1861.13 33V21.64H1870.33V33H1868.26V23.416H1863.19V33H1861.13ZM1872.78 32.408L1873.69 30.856C1874.17 31.2293 1874.59 31.416 1874.97 31.416C1875.47 31.416 1875.85 31.0853 1876.1 30.424L1871.66 21.64H1873.93L1876.34 26.712L1876.98 28.216H1877.02C1877.15 27.7147 1877.31 27.2187 1877.48 26.728L1879.3 21.64H1881.46L1877.96 30.616C1877.82 30.968 1877.68 31.2773 1877.53 31.544C1877.38 31.8107 1877.19 32.0773 1876.95 32.344C1876.72 32.6107 1876.44 32.8187 1876.12 32.968C1875.8 33.1173 1875.44 33.192 1875.05 33.192C1874.28 33.192 1873.52 32.9307 1872.78 32.408ZM1881.94 27.272C1881.94 25.608 1882.49 24.2213 1883.59 23.112C1884.69 22.0027 1886.08 21.448 1887.78 21.448C1889.51 21.448 1890.9 21.9653 1891.97 23L1890.98 24.536C1890.56 24.184 1890.07 23.896 1889.51 23.672C1888.95 23.448 1888.41 23.336 1887.87 23.336C1886.68 23.336 1885.75 23.7093 1885.07 24.456C1884.4 25.2027 1884.07 26.1307 1884.07 27.24C1884.07 28.36 1884.41 29.32 1885.09 30.12C1885.77 30.9093 1886.71 31.304 1887.89 31.304C1889.11 31.304 1890.21 30.824 1891.19 29.864L1892.27 31.352C1891.07 32.5787 1889.58 33.192 1887.81 33.192C1886.05 33.192 1884.63 32.632 1883.55 31.512C1882.48 30.392 1881.94 28.9787 1881.94 27.272ZM1894.05 33V21.64H1896.11V26.264H1897.58L1900.26 21.64H1902.5L1899.28 27.048V27.08L1902.69 33H1900.35L1897.58 28.04H1896.11V33H1894.05ZM1907.1 31.24C1907.95 31.1227 1908.57 30.5573 1908.96 29.544C1909.35 28.52 1909.55 26.92 1909.55 24.744V21.64H1916.57V33H1914.51V23.416H1911.52V24.776C1911.52 27.5707 1911.17 29.6507 1910.48 31.016C1909.78 32.3707 1908.66 33.0747 1907.1 33.128V31.24ZM1919.33 33V21.64H1926.13V23.416H1921.39V26.392H1925.22V28.168H1921.39V31.224H1926.39V33H1919.33ZM1928.44 33V21.64H1930.5V26.264H1931.97L1934.65 21.64H1936.89L1933.67 27.048V27.08L1937.08 33H1934.74L1931.97 28.04H1930.5V33H1928.44ZM1937.39 33L1941.38 21.64H1943.55L1947.54 33H1945.43L1944.45 30.088H1940.47L1939.51 33H1937.39ZM1940.98 28.408H1943.94L1942.93 25.368L1942.48 23.608H1942.45C1942.28 24.3547 1942.13 24.9413 1942 25.368L1940.98 28.408ZM1949.05 33V21.64H1953.43C1954.5 21.64 1955.37 21.9813 1956.04 22.664C1956.71 23.3467 1957.05 24.2373 1957.05 25.336C1957.05 26.4347 1956.71 27.336 1956.04 28.04C1955.37 28.7333 1954.5 29.08 1953.43 29.08H1951.11V33H1949.05ZM1951.11 27.288H1953.05C1953.65 27.288 1954.11 27.112 1954.44 26.76C1954.78 26.408 1954.95 25.9333 1954.95 25.336C1954.95 24.7493 1954.78 24.2853 1954.44 23.944C1954.11 23.592 1953.66 23.416 1953.08 23.416H1951.11V27.288ZM1958.19 27.272C1958.19 25.608 1958.74 24.2213 1959.84 23.112C1960.94 22.0027 1962.33 21.448 1964.03 21.448C1965.76 21.448 1967.15 21.9653 1968.22 23L1967.23 24.536C1966.81 24.184 1966.32 23.896 1965.76 23.672C1965.2 23.448 1964.66 23.336 1964.12 23.336C1962.93 23.336 1962 23.7093 1961.32 24.456C1960.65 25.2027 1960.32 26.1307 1960.32 27.24C1960.32 28.36 1960.66 29.32 1961.34 30.12C1962.02 30.9093 1962.96 31.304 1964.14 31.304C1965.36 31.304 1966.46 30.824 1967.44 29.864L1968.52 31.352C1967.32 32.5787 1965.83 33.192 1964.06 33.192C1962.3 33.192 1960.88 32.632 1959.8 31.512C1958.73 30.392 1958.19 28.9787 1958.19 27.272ZM1972.87 33V23.416H1969.15V21.64H1978.65V23.416H1974.92V33H1972.87ZM1980.27 33V21.64H1984.31C1985.37 21.64 1986.22 21.9013 1986.86 22.424C1987.51 22.936 1987.83 23.6507 1987.83 24.568C1987.83 25.1013 1987.71 25.5813 1987.47 26.008C1987.22 26.4347 1986.89 26.7653 1986.46 27V27.032C1987.06 27.2027 1987.51 27.5387 1987.82 28.04C1988.14 28.5413 1988.3 29.096 1988.3 29.704C1988.3 30.7813 1987.93 31.6027 1987.18 32.168C1986.43 32.7227 1985.5 33 1984.38 33H1980.27ZM1982.33 26.28H1984.33C1984.77 26.28 1985.11 26.1467 1985.35 25.88C1985.61 25.6027 1985.74 25.2507 1985.74 24.824C1985.74 24.408 1985.61 24.072 1985.35 23.816C1985.11 23.5493 1984.76 23.416 1984.3 23.416H1982.33V26.28ZM1982.33 31.224H1984.54C1985.05 31.224 1985.45 31.0747 1985.74 30.776C1986.04 30.4667 1986.19 30.0667 1986.19 29.576C1986.19 29.096 1986.04 28.7067 1985.74 28.408C1985.45 28.0987 1985.05 27.944 1984.54 27.944H1982.33V31.224ZM1990.39 33V21.64H1997.19V23.416H1992.46V26.392H1996.28V28.168H1992.46V31.224H1997.45V33H1990.39ZM1999.5 33V21.64H2001.57V26.456H2006.77V21.64H2008.81V33H2006.77V28.232H2001.57V33H1999.5ZM2011.56 33V21.64H2013.63V26.456H2018.83V21.64H2020.88V33H2018.83V28.232H2013.63V33H2011.56ZM2032.83 33V21.64H2034.87V33H2032.83ZM2023.63 33V21.64H2025.69V25.624H2027.8C2028.86 25.624 2029.71 25.9653 2030.36 26.648C2031.02 27.32 2031.35 28.216 2031.35 29.336C2031.35 30.424 2031.03 31.3093 2030.38 31.992C2029.73 32.664 2028.88 33 2027.85 33H2023.63ZM2025.69 31.224H2027.48C2028.05 31.224 2028.48 31.0587 2028.79 30.728C2029.1 30.3867 2029.26 29.9227 2029.26 29.336C2029.26 28.7493 2029.1 28.28 2028.78 27.928C2028.46 27.576 2028.02 27.4 2027.45 27.4H2025.69V31.224ZM2036.47 33L2039.99 27.24L2036.6 21.64H2038.95L2040.52 24.424L2041.23 25.8H2041.26C2041.47 25.3307 2041.71 24.872 2041.96 24.424L2043.55 21.64H2045.9L2042.49 27.24L2046.03 33H2043.72L2041.95 29.944L2041.24 28.6H2041.21C2041 29.0587 2040.77 29.5067 2040.52 29.944L2038.76 33H2036.47ZM2051.59 33V21.64H2060.79V33H2058.73V23.416H2053.66V33H2051.59ZM2063.55 33V21.64H2067.93C2069 21.64 2069.87 21.9813 2070.54 22.664C2071.21 23.3467 2071.55 24.2373 2071.55 25.336C2071.55 26.4347 2071.21 27.336 2070.54 28.04C2069.87 28.7333 2069 29.08 2067.93 29.08H2065.61V33H2063.55ZM2065.61 27.288H2067.55C2068.15 27.288 2068.61 27.112 2068.94 26.76C2069.28 26.408 2069.45 25.9333 2069.45 25.336C2069.45 24.7493 2069.28 24.2853 2068.94 23.944C2068.61 23.592 2068.16 23.416 2067.58 23.416H2065.61V27.288ZM2073.34 33V21.64H2080.14V23.416H2075.41V26.392H2079.23V28.168H2075.41V31.224H2080.4V33H2073.34ZM2082.45 33V21.64H2091.65V33H2089.59V23.416H2084.52V33H2082.45ZM2093.16 33L2097.14 21.64H2099.32L2103.3 33H2101.19L2100.22 30.088H2096.23L2095.27 33H2093.16ZM2096.74 28.408H2099.7L2098.7 25.368L2098.25 23.608H2098.22C2098.04 24.3547 2097.9 24.9413 2097.77 25.368L2096.74 28.408ZM2104.81 33V21.64H2109.2C2110.26 21.64 2111.13 21.9813 2111.81 22.664C2112.48 23.3467 2112.81 24.2373 2112.81 25.336C2112.81 26.4347 2112.48 27.336 2111.81 28.04C2111.13 28.7333 2110.26 29.08 2109.2 29.08H2106.88V33H2104.81ZM2106.88 27.288H2108.81C2109.41 27.288 2109.87 27.112 2110.21 26.76C2110.55 26.408 2110.72 25.9333 2110.72 25.336C2110.72 24.7493 2110.55 24.2853 2110.21 23.944C2109.87 23.592 2109.42 23.416 2108.85 23.416H2106.88V27.288ZM2112.78 33L2116.77 21.64H2118.94L2122.93 33H2120.82L2119.84 30.088H2115.86L2114.9 33H2112.78ZM2116.37 28.408H2119.33L2118.32 25.368L2117.87 23.608H2117.84C2117.67 24.3547 2117.52 24.9413 2117.39 25.368L2116.37 28.408ZM2126.08 33V23.416H2122.35V21.64H2131.85V23.416H2128.13V33H2126.08ZM2132.39 27.24C2132.39 25.608 2132.95 24.2373 2134.07 23.128C2135.2 22.008 2136.6 21.448 2138.26 21.448C2139.93 21.448 2141.32 22.008 2142.44 23.128C2143.57 24.2373 2144.14 25.608 2144.14 27.24C2144.14 28.9147 2143.57 30.328 2142.44 31.48C2141.32 32.6213 2139.93 33.192 2138.26 33.192C2136.6 33.192 2135.2 32.6213 2134.07 31.48C2132.95 30.328 2132.39 28.9147 2132.39 27.24ZM2134.52 27.24C2134.52 28.392 2134.88 29.3573 2135.61 30.136C2136.33 30.9147 2137.22 31.304 2138.26 31.304C2139.31 31.304 2140.19 30.9147 2140.92 30.136C2141.64 29.3573 2142.01 28.392 2142.01 27.24C2142.01 26.1413 2141.64 25.2187 2140.92 24.472C2140.19 23.7147 2139.31 23.336 2138.26 23.336C2137.22 23.336 2136.33 23.7147 2135.61 24.472C2134.88 25.2187 2134.52 26.1413 2134.52 27.24ZM2146.22 33V21.64H2150.27C2151.32 21.64 2152.17 21.9013 2152.81 22.424C2153.46 22.936 2153.79 23.6507 2153.79 24.568C2153.79 25.1013 2153.67 25.5813 2153.42 26.008C2153.17 26.4347 2152.84 26.7653 2152.41 27V27.032C2153.01 27.2027 2153.46 27.5387 2153.77 28.04C2154.09 28.5413 2154.25 29.096 2154.25 29.704C2154.25 30.7813 2153.88 31.6027 2153.13 32.168C2152.39 32.7227 2151.45 33 2150.33 33H2146.22ZM2148.28 26.28H2150.28C2150.72 26.28 2151.06 26.1467 2151.31 25.88C2151.56 25.6027 2151.69 25.2507 2151.69 24.824C2151.69 24.408 2151.56 24.072 2151.31 23.816C2151.06 23.5493 2150.71 23.416 2150.25 23.416H2148.28V26.28ZM2148.28 31.224H2150.49C2151 31.224 2151.4 31.0747 2151.69 30.776C2151.99 30.4667 2152.14 30.0667 2152.14 29.576C2152.14 29.096 2151.99 28.7067 2151.69 28.408C2151.4 28.0987 2151 27.944 2150.49 27.944H2148.28V31.224Z" fill="#005DFF"/>
<rect x="2189" width="432" height="55" rx="27.5" fill="#F3F6FF"/>
<path d="M2213.74 27.24C2213.74 25.608 2214.3 24.2373 2215.42 23.128C2216.55 22.008 2217.94 21.448 2219.61 21.448C2221.27 21.448 2222.66 22.008 2223.78 23.128C2224.91 24.2373 2225.48 25.608 2225.48 27.24C2225.48 28.9147 2224.91 30.328 2223.78 31.48C2222.66 32.6213 2221.27 33.192 2219.61 33.192C2217.94 33.192 2216.55 32.6213 2215.42 31.48C2214.3 30.328 2213.74 28.9147 2213.74 27.24ZM2215.86 27.24C2215.86 28.392 2216.23 29.3573 2216.95 30.136C2217.68 30.9147 2218.56 31.304 2219.61 31.304C2220.65 31.304 2221.54 30.9147 2222.26 30.136C2222.99 29.3573 2223.35 28.392 2223.35 27.24C2223.35 26.1413 2222.99 25.2187 2222.26 24.472C2221.54 23.7147 2220.65 23.336 2219.61 23.336C2218.56 23.336 2217.68 23.7147 2216.95 24.472C2216.23 25.2187 2215.86 26.1413 2215.86 27.24ZM2229.73 33V23.416H2226.01V21.64H2235.51V23.416H2231.78V33H2229.73ZM2237.13 33V21.64H2246.33V33H2244.26V23.416H2239.19V33H2237.13ZM2248.78 32.408L2249.69 30.856C2250.17 31.2293 2250.59 31.416 2250.97 31.416C2251.47 31.416 2251.85 31.0853 2252.1 30.424L2247.66 21.64H2249.93L2252.34 26.712L2252.98 28.216H2253.02C2253.15 27.7147 2253.31 27.2187 2253.48 26.728L2255.3 21.64H2257.46L2253.96 30.616C2253.82 30.968 2253.68 31.2773 2253.53 31.544C2253.38 31.8107 2253.19 32.0773 2252.95 32.344C2252.72 32.6107 2252.44 32.8187 2252.12 32.968C2251.8 33.1173 2251.44 33.192 2251.05 33.192C2250.28 33.192 2249.52 32.9307 2248.78 32.408ZM2257.94 27.272C2257.94 25.608 2258.49 24.2213 2259.59 23.112C2260.69 22.0027 2262.08 21.448 2263.78 21.448C2265.51 21.448 2266.9 21.9653 2267.97 23L2266.98 24.536C2266.56 24.184 2266.07 23.896 2265.51 23.672C2264.95 23.448 2264.41 23.336 2263.87 23.336C2262.68 23.336 2261.75 23.7093 2261.07 24.456C2260.4 25.2027 2260.07 26.1307 2260.07 27.24C2260.07 28.36 2260.41 29.32 2261.09 30.12C2261.77 30.9093 2262.71 31.304 2263.89 31.304C2265.11 31.304 2266.21 30.824 2267.19 29.864L2268.27 31.352C2267.07 32.5787 2265.58 33.192 2263.81 33.192C2262.05 33.192 2260.63 32.632 2259.55 31.512C2258.48 30.392 2257.94 28.9787 2257.94 27.272ZM2270.05 33V21.64H2272.11V26.264H2273.58L2276.26 21.64H2278.5L2275.28 27.048V27.08L2278.69 33H2276.35L2273.58 28.04H2272.11V33H2270.05ZM2286.83 33V23.416H2283.1V21.64H2292.6V23.416H2288.88V33H2286.83ZM2293.14 27.24C2293.14 25.608 2293.7 24.2373 2294.82 23.128C2295.95 22.008 2297.35 21.448 2299.01 21.448C2300.68 21.448 2302.07 22.008 2303.19 23.128C2304.32 24.2373 2304.89 25.608 2304.89 27.24C2304.89 28.9147 2304.32 30.328 2303.19 31.48C2302.07 32.6213 2300.68 33.192 2299.01 33.192C2297.35 33.192 2295.95 32.6213 2294.82 31.48C2293.7 30.328 2293.14 28.9147 2293.14 27.24ZM2295.27 27.24C2295.27 28.392 2295.63 29.3573 2296.36 30.136C2297.08 30.9147 2297.97 31.304 2299.01 31.304C2300.06 31.304 2300.94 30.9147 2301.67 30.136C2302.39 29.3573 2302.76 28.392 2302.76 27.24C2302.76 26.1413 2302.39 25.2187 2301.67 24.472C2300.94 23.7147 2300.06 23.336 2299.01 23.336C2297.97 23.336 2297.08 23.7147 2296.36 24.472C2295.63 25.2187 2295.27 26.1413 2295.27 27.24ZM2306.97 33V21.64H2311.02C2312.07 21.64 2312.92 21.9013 2313.56 22.424C2314.21 22.936 2314.54 23.6507 2314.54 24.568C2314.54 25.1013 2314.42 25.5813 2314.17 26.008C2313.92 26.4347 2313.59 26.7653 2313.16 27V27.032C2313.76 27.2027 2314.21 27.5387 2314.52 28.04C2314.84 28.5413 2315 29.096 2315 29.704C2315 30.7813 2314.63 31.6027 2313.88 32.168C2313.14 32.7227 2312.2 33 2311.08 33H2306.97ZM2309.03 26.28H2311.03C2311.47 26.28 2311.81 26.1467 2312.06 25.88C2312.31 25.6027 2312.44 25.2507 2312.44 24.824C2312.44 24.408 2312.31 24.072 2312.06 23.816C2311.81 23.5493 2311.46 23.416 2311 23.416H2309.03V26.28ZM2309.03 31.224H2311.24C2311.75 31.224 2312.15 31.0747 2312.44 30.776C2312.74 30.4667 2312.89 30.0667 2312.89 29.576C2312.89 29.096 2312.74 28.7067 2312.44 28.408C2312.15 28.0987 2311.75 27.944 2311.24 27.944H2309.03V31.224ZM2315.72 33L2319.71 21.64H2321.88L2325.87 33H2323.75L2322.78 30.088H2318.79L2317.83 33H2315.72ZM2319.31 28.408H2322.27L2321.26 25.368L2320.81 23.608H2320.78C2320.61 24.3547 2320.46 24.9413 2320.33 25.368L2319.31 28.408ZM2327.38 33V21.64H2331.76C2332.83 21.64 2333.7 21.9813 2334.37 22.664C2335.04 23.3467 2335.38 24.2373 2335.38 25.336C2335.38 26.4347 2335.04 27.336 2334.37 28.04C2333.7 28.7333 2332.83 29.08 2331.76 29.08H2329.44V33H2327.38ZM2329.44 27.288H2331.38C2331.97 27.288 2332.44 27.112 2332.77 26.76C2333.11 26.408 2333.28 25.9333 2333.28 25.336C2333.28 24.7493 2333.11 24.2853 2332.77 23.944C2332.44 23.592 2331.98 23.416 2331.41 23.416H2329.44V27.288ZM2336.5 27.24C2336.5 25.608 2337.06 24.2373 2338.18 23.128C2339.31 22.008 2340.71 21.448 2342.37 21.448C2344.04 21.448 2345.43 22.008 2346.55 23.128C2347.68 24.2373 2348.24 25.608 2348.24 27.24C2348.24 28.9147 2347.68 30.328 2346.55 31.48C2345.43 32.6213 2344.04 33.192 2342.37 33.192C2340.71 33.192 2339.31 32.6213 2338.18 31.48C2337.06 30.328 2336.5 28.9147 2336.5 27.24ZM2338.63 27.24C2338.63 28.392 2338.99 29.3573 2339.72 30.136C2340.44 30.9147 2341.33 31.304 2342.37 31.304C2343.42 31.304 2344.3 30.9147 2345.03 30.136C2345.75 29.3573 2346.12 28.392 2346.12 27.24C2346.12 26.1413 2345.75 25.2187 2345.03 24.472C2344.3 23.7147 2343.42 23.336 2342.37 23.336C2341.33 23.336 2340.44 23.7147 2339.72 24.472C2338.99 25.2187 2338.63 26.1413 2338.63 27.24ZM2350.33 33V21.64H2354.38C2355.43 21.64 2356.28 21.9013 2356.92 22.424C2357.57 22.936 2357.9 23.6507 2357.9 24.568C2357.9 25.1013 2357.77 25.5813 2357.53 26.008C2357.28 26.4347 2356.95 26.7653 2356.52 27V27.032C2357.12 27.2027 2357.57 27.5387 2357.88 28.04C2358.2 28.5413 2358.36 29.096 2358.36 29.704C2358.36 30.7813 2357.99 31.6027 2357.24 32.168C2356.49 32.7227 2355.56 33 2354.44 33H2350.33ZM2352.39 26.28H2354.39C2354.83 26.28 2355.17 26.1467 2355.42 25.88C2355.67 25.6027 2355.8 25.2507 2355.8 24.824C2355.8 24.408 2355.67 24.072 2355.42 23.816C2355.17 23.5493 2354.82 23.416 2354.36 23.416H2352.39V26.28ZM2352.39 31.224H2354.6C2355.11 31.224 2355.51 31.0747 2355.8 30.776C2356.1 30.4667 2356.25 30.0667 2356.25 29.576C2356.25 29.096 2356.1 28.7067 2355.8 28.408C2355.51 28.0987 2355.11 27.944 2354.6 27.944H2352.39V31.224ZM2363.21 33L2367.19 21.64H2369.37L2373.35 33H2371.24L2370.26 30.088H2366.28L2365.32 33H2363.21ZM2366.79 28.408H2369.75L2368.74 25.368L2368.29 23.608H2368.26C2368.09 24.3547 2367.94 24.9413 2367.81 25.368L2366.79 28.408ZM2374.86 33V21.64H2384.06V33H2382V23.416H2376.92V33H2374.86ZM2389.39 33V23.416H2385.66V21.64H2395.17V23.416H2391.44V33H2389.39ZM2396.78 33V21.64H2403.58V23.416H2398.85V26.392H2402.67V28.168H2398.85V31.224H2403.84V33H2396.78ZM2408.72 28.776C2407.56 28.776 2406.69 28.4827 2406.12 27.896C2405.54 27.2987 2405.25 26.456 2405.25 25.368V21.64H2407.35V24.904C2407.35 26.2373 2407.98 26.904 2409.25 26.904C2410.12 26.904 2410.89 26.68 2411.59 26.232V21.64H2413.68V33H2411.59V28.6L2411.62 28.072H2411.59C2410.67 28.5413 2409.72 28.776 2408.72 28.776ZM2416.45 33V21.64H2418.52V26.456H2423.72V21.64H2425.77V33H2423.72V28.232H2418.52V33H2416.45ZM2427.84 27.24C2427.84 25.608 2428.4 24.2373 2429.52 23.128C2430.66 22.008 2432.05 21.448 2433.72 21.448C2435.38 21.448 2436.77 22.008 2437.89 23.128C2439.02 24.2373 2439.59 25.608 2439.59 27.24C2439.59 28.9147 2439.02 30.328 2437.89 31.48C2436.77 32.6213 2435.38 33.192 2433.72 33.192C2432.05 33.192 2430.66 32.6213 2429.52 31.48C2428.4 30.328 2427.84 28.9147 2427.84 27.24ZM2429.97 27.24C2429.97 28.392 2430.34 29.3573 2431.06 30.136C2431.79 30.9147 2432.67 31.304 2433.72 31.304C2434.76 31.304 2435.65 30.9147 2436.37 30.136C2437.1 29.3573 2437.46 28.392 2437.46 27.24C2437.46 26.1413 2437.1 25.2187 2436.37 24.472C2435.65 23.7147 2434.76 23.336 2433.72 23.336C2432.67 23.336 2431.79 23.7147 2431.06 24.472C2430.34 25.2187 2429.97 26.1413 2429.97 27.24ZM2441.67 33V21.64H2448.2V23.416H2443.74V33H2441.67ZM2448.69 27.24C2448.69 25.608 2449.25 24.2373 2450.37 23.128C2451.5 22.008 2452.9 21.448 2454.56 21.448C2456.22 21.448 2457.62 22.008 2458.74 23.128C2459.87 24.2373 2460.43 25.608 2460.43 27.24C2460.43 28.9147 2459.87 30.328 2458.74 31.48C2457.62 32.6213 2456.22 33.192 2454.56 33.192C2452.9 33.192 2451.5 32.6213 2450.37 31.48C2449.25 30.328 2448.69 28.9147 2448.69 27.24ZM2450.82 27.24C2450.82 28.392 2451.18 29.3573 2451.9 30.136C2452.63 30.9147 2453.52 31.304 2454.56 31.304C2455.61 31.304 2456.49 30.9147 2457.22 30.136C2457.94 29.3573 2458.3 28.392 2458.3 27.24C2458.3 26.1413 2457.94 25.2187 2457.22 24.472C2456.49 23.7147 2455.61 23.336 2454.56 23.336C2453.52 23.336 2452.63 23.7147 2451.9 24.472C2451.18 25.2187 2450.82 26.1413 2450.82 27.24ZM2465.27 33L2469.25 21.64H2471.43L2475.41 33H2473.3L2472.32 30.088H2468.34L2467.38 33H2465.27ZM2468.85 28.408H2471.81L2470.8 25.368L2470.36 23.608H2470.32C2470.15 24.3547 2470 24.9413 2469.88 25.368L2468.85 28.408ZM2476 27.272C2476 25.608 2476.55 24.2213 2477.65 23.112C2478.75 22.0027 2480.15 21.448 2481.84 21.448C2483.57 21.448 2484.97 21.9653 2486.03 23L2485.04 24.536C2484.63 24.184 2484.13 23.896 2483.57 23.672C2483.01 23.448 2482.47 23.336 2481.94 23.336C2480.74 23.336 2479.81 23.7093 2479.14 24.456C2478.47 25.2027 2478.13 26.1307 2478.13 27.24C2478.13 28.36 2478.47 29.32 2479.15 30.12C2479.84 30.9093 2480.77 31.304 2481.95 31.304C2483.17 31.304 2484.27 30.824 2485.25 29.864L2486.34 31.352C2485.13 32.5787 2483.64 33.192 2481.87 33.192C2480.11 33.192 2478.69 32.632 2477.62 31.512C2476.54 30.392 2476 28.9787 2476 27.272ZM2487.17 27.272C2487.17 25.608 2487.72 24.2213 2488.82 23.112C2489.92 22.0027 2491.32 21.448 2493.01 21.448C2494.74 21.448 2496.14 21.9653 2497.21 23L2496.21 24.536C2495.8 24.184 2495.31 23.896 2494.74 23.672C2494.19 23.448 2493.64 23.336 2493.11 23.336C2491.91 23.336 2490.98 23.7093 2490.31 24.456C2489.64 25.2027 2489.3 26.1307 2489.3 27.24C2489.3 28.36 2489.64 29.32 2490.33 30.12C2491.01 30.9093 2491.94 31.304 2493.13 31.304C2494.34 31.304 2495.44 30.824 2496.42 29.864L2497.51 31.352C2496.3 32.5787 2494.82 33.192 2493.05 33.192C2491.29 33.192 2489.87 32.632 2488.79 31.512C2487.71 30.392 2487.17 28.9787 2487.17 27.272ZM2498.33 27.24C2498.33 25.608 2498.89 24.2373 2500.01 23.128C2501.14 22.008 2502.54 21.448 2504.2 21.448C2505.87 21.448 2507.26 22.008 2508.38 23.128C2509.51 24.2373 2510.07 25.608 2510.07 27.24C2510.07 28.9147 2509.51 30.328 2508.38 31.48C2507.26 32.6213 2505.87 33.192 2504.2 33.192C2502.54 33.192 2501.14 32.6213 2500.01 31.48C2498.89 30.328 2498.33 28.9147 2498.33 27.24ZM2500.46 27.24C2500.46 28.392 2500.82 29.3573 2501.55 30.136C2502.27 30.9147 2503.16 31.304 2504.2 31.304C2505.25 31.304 2506.13 30.9147 2506.86 30.136C2507.58 29.3573 2507.95 28.392 2507.95 27.24C2507.95 26.1413 2507.58 25.2187 2506.86 24.472C2506.13 23.7147 2505.25 23.336 2504.2 23.336C2503.16 23.336 2502.27 23.7147 2501.55 24.472C2500.82 25.2187 2500.46 26.1413 2500.46 27.24ZM2512.16 33V21.64H2516.54C2517.61 21.64 2518.48 21.9813 2519.15 22.664C2519.82 23.3467 2520.16 24.2373 2520.16 25.336C2520.16 26.4347 2519.82 27.336 2519.15 28.04C2518.48 28.7333 2517.61 29.08 2516.54 29.08H2514.22V33H2512.16ZM2514.22 27.288H2516.16C2516.75 27.288 2517.22 27.112 2517.55 26.76C2517.89 26.408 2518.06 25.9333 2518.06 25.336C2518.06 24.7493 2517.89 24.2853 2517.55 23.944C2517.22 23.592 2516.77 23.416 2516.19 23.416H2514.22V27.288ZM2524.53 33V23.416H2520.8V21.64H2530.31V23.416H2526.58V33H2524.53ZM2531.92 33V21.64H2533.99V28.2L2533.87 29.96H2533.91C2534.27 29.224 2534.59 28.632 2534.87 28.184L2539.15 21.64H2541.2V33H2539.15V26.456L2539.27 24.696H2539.23C2538.88 25.4213 2538.57 26.008 2538.29 26.456L2533.97 33H2531.92ZM2543.54 33L2544.47 21.64H2546.66L2548.9 27.256L2549.46 28.92H2549.49C2549.69 28.2587 2549.88 27.704 2550.05 27.256L2552.29 21.64H2554.48L2555.41 33H2553.35L2552.88 26.648C2552.86 26.424 2552.85 26.168 2552.85 25.88C2552.85 25.5813 2552.86 25.3413 2552.87 25.16V24.888H2552.83C2552.59 25.624 2552.38 26.2107 2552.21 26.648L2550.37 31.048H2548.58L2546.74 26.648L2546.11 24.872H2546.08C2546.11 25.5547 2546.11 26.1467 2546.07 26.648L2545.6 33H2543.54ZM2557.74 33V21.64H2564.54V23.416H2559.8V26.392H2563.62V28.168H2559.8V31.224H2564.79V33H2557.74ZM2566.84 33V21.64H2568.91V26.456H2574.11V21.64H2576.16V33H2574.11V28.232H2568.91V33H2566.84ZM2581.48 33V23.416H2577.76V21.64H2587.26V23.416H2583.53V33H2581.48ZM2586.69 33L2590.67 21.64H2592.85L2596.83 33H2594.72L2593.75 30.088H2589.76L2588.8 33H2586.69ZM2590.27 28.408H2593.23L2592.23 25.368L2591.78 23.608H2591.75C2591.58 24.3547 2591.43 24.9413 2591.3 25.368L2590.27 28.408Z" fill="#252525"/>
</svg>
