<svg width="3003" height="55" viewBox="0 0 3003 55" fill="none" xmlns="http://www.w3.org/2000/svg">
<rect width="479" height="55" rx="27.5" fill="#F3F6FF"/>
<path d="M25.197 32.408L26.109 30.856C26.589 31.2293 27.0157 31.416 27.389 31.416C27.8903 31.416 28.269 31.0853 28.525 30.424L24.077 21.64H26.349L28.765 26.712L29.405 28.216H29.437C29.5757 27.7147 29.7303 27.2187 29.901 26.728L31.725 21.64H33.885L30.381 30.616C30.2423 30.968 30.0983 31.2773 29.949 31.544C29.7997 31.8107 29.6077 32.0773 29.373 32.344C29.1383 32.6107 28.861 32.8187 28.541 32.968C28.221 33.1173 27.8637 33.192 27.469 33.192C26.701 33.192 25.9437 32.9307 25.197 32.408ZM33.4584 31.24C34.3117 31.1227 34.9304 30.5573 35.3144 29.544C35.709 28.52 35.9064 26.92 35.9064 24.744V21.64H42.9304V33H40.8664V23.416H37.8744V24.776C37.8744 27.5707 37.5277 29.6507 36.8344 31.016C36.141 32.3707 35.0157 33.0747 33.4584 33.128V31.24ZM45.6885 33V21.64H47.7525V25.624H49.9765C51.0218 25.624 51.8752 25.9653 52.5365 26.648C53.1978 27.32 53.5285 28.216 53.5285 29.336C53.5285 30.424 53.2032 31.3093 52.5525 31.992C51.9018 32.664 51.0538 33 50.0085 33H45.6885ZM47.7525 31.224H49.6405C50.2058 31.224 50.6432 31.0587 50.9525 30.728C51.2725 30.3867 51.4325 29.9227 51.4325 29.336C51.4325 28.7493 51.2672 28.28 50.9365 27.928C50.6165 27.576 50.1738 27.4 49.6085 27.4H47.7525V31.224ZM56.8426 33V23.416H53.1146V21.64H62.6186V23.416H58.8906V33H56.8426ZM64.2354 33V21.64H68.6194C69.686 21.64 70.5554 21.9813 71.2274 22.664C71.8994 23.3467 72.2354 24.2373 72.2354 25.336C72.2354 26.4347 71.8994 27.336 71.2274 28.04C70.5554 28.7333 69.686 29.08 68.6194 29.08H66.2994V33H64.2354ZM66.2994 27.288H68.2354C68.8327 27.288 69.2967 27.112 69.6274 26.76C69.9687 26.408 70.1394 25.9333 70.1394 25.336C70.1394 24.7493 69.9687 24.2853 69.6274 23.944C69.2967 23.592 68.8434 23.416 68.2674 23.416H66.2994V27.288ZM72.2061 33L76.1901 21.64H78.3661L82.3501 33H80.2381L79.2621 30.088H75.2781L74.3181 33H72.2061ZM75.7901 28.408H78.7501L77.7421 25.368L77.2941 23.608H77.2621C77.0915 24.3547 76.9421 24.9413 76.8141 25.368L75.7901 28.408ZM82.8364 31.576L83.9564 30.2C84.2657 30.5307 84.6497 30.808 85.1084 31.032C85.567 31.256 86.0364 31.368 86.5164 31.368C87.135 31.368 87.6257 31.2133 87.9884 30.904C88.351 30.5947 88.5324 30.168 88.5324 29.624C88.5324 29.1333 88.367 28.7493 88.0364 28.472C87.7164 28.184 87.279 28.04 86.7244 28.04H85.3324V26.376H86.4524C86.9644 26.376 87.3857 26.2267 87.7164 25.928C88.047 25.6293 88.2124 25.256 88.2124 24.808C88.2124 24.3493 88.063 23.976 87.7644 23.688C87.4657 23.3893 87.0337 23.24 86.4684 23.24C85.6044 23.24 84.783 23.56 84.0044 24.2L83.1724 22.696C84.175 21.864 85.391 21.448 86.8204 21.448C87.791 21.448 88.6124 21.7253 89.2844 22.28C89.967 22.8347 90.3084 23.592 90.3084 24.552C90.3084 25.672 89.7857 26.5147 88.7404 27.08V27.112C89.327 27.2933 89.791 27.6133 90.1324 28.072C90.4737 28.5307 90.6444 29.0907 90.6444 29.752C90.6444 30.7973 90.2657 31.6347 89.5084 32.264C88.7617 32.8827 87.8284 33.192 86.7084 33.192C85.983 33.192 85.2737 33.0533 84.5804 32.776C83.8977 32.488 83.3164 32.088 82.8364 31.576ZM92.7354 33V21.64H96.7834C97.8394 21.64 98.6874 21.9013 99.3274 22.424C99.978 22.936 100.303 23.6507 100.303 24.568C100.303 25.1013 100.181 25.5813 99.9354 26.008C99.69 26.4347 99.354 26.7653 98.9274 27V27.032C99.5247 27.2027 99.978 27.5387 100.287 28.04C100.607 28.5413 100.767 29.096 100.767 29.704C100.767 30.7813 100.394 31.6027 99.6474 32.168C98.9007 32.7227 97.9674 33 96.8474 33H92.7354ZM94.7994 26.28H96.7994C97.2367 26.28 97.578 26.1467 97.8234 25.88C98.0794 25.6027 98.2074 25.2507 98.2074 24.824C98.2074 24.408 98.0794 24.072 97.8234 23.816C97.578 23.5493 97.226 23.416 96.7674 23.416H94.7994V26.28ZM94.7994 31.224H97.0074C97.5194 31.224 97.9194 31.0747 98.2074 30.776C98.506 30.4667 98.6554 30.0667 98.6554 29.576C98.6554 29.096 98.506 28.7067 98.2074 28.408C97.9194 28.0987 97.5194 27.944 97.0074 27.944H94.7994V31.224ZM102.416 32.408L103.328 30.856C103.808 31.2293 104.234 31.416 104.608 31.416C105.109 31.416 105.488 31.0853 105.744 30.424L101.296 21.64H103.568L105.984 26.712L106.624 28.216H106.656C106.794 27.7147 106.949 27.2187 107.12 26.728L108.944 21.64H111.104L107.6 30.616C107.461 30.968 107.317 31.2773 107.168 31.544C107.018 31.8107 106.826 32.0773 106.592 32.344C106.357 32.6107 106.08 32.8187 105.76 32.968C105.44 33.1173 105.082 33.192 104.688 33.192C103.92 33.192 103.162 32.9307 102.416 32.408ZM112.517 33V21.64H114.581V26.264H116.053L118.725 21.64H120.965L117.749 27.048V27.08L121.157 33H118.821L116.053 28.04H114.581V33H112.517ZM121.751 27.24C121.751 25.608 122.311 24.2373 123.431 23.128C124.562 22.008 125.959 21.448 127.623 21.448C129.287 21.448 130.679 22.008 131.799 23.128C132.93 24.2373 133.495 25.608 133.495 27.24C133.495 28.9147 132.93 30.328 131.799 31.48C130.679 32.6213 129.287 33.192 127.623 33.192C125.959 33.192 124.562 32.6213 123.431 31.48C122.311 30.328 121.751 28.9147 121.751 27.24ZM123.879 27.24C123.879 28.392 124.242 29.3573 124.967 30.136C125.692 30.9147 126.578 31.304 127.623 31.304C128.668 31.304 129.554 30.9147 130.279 30.136C131.004 29.3573 131.367 28.392 131.367 27.24C131.367 26.1413 131.004 25.2187 130.279 24.472C129.554 23.7147 128.668 23.336 127.623 23.336C126.578 23.336 125.692 23.7147 124.967 24.472C124.242 25.2187 123.879 26.1413 123.879 27.24ZM135.579 33V21.64H139.627C140.683 21.64 141.531 21.9013 142.171 22.424C142.822 22.936 143.147 23.6507 143.147 24.568C143.147 25.1013 143.024 25.5813 142.779 26.008C142.534 26.4347 142.198 26.7653 141.771 27V27.032C142.368 27.2027 142.822 27.5387 143.131 28.04C143.451 28.5413 143.611 29.096 143.611 29.704C143.611 30.7813 143.238 31.6027 142.491 32.168C141.744 32.7227 140.811 33 139.691 33H135.579ZM137.643 26.28H139.643C140.08 26.28 140.422 26.1467 140.667 25.88C140.923 25.6027 141.051 25.2507 141.051 24.824C141.051 24.408 140.923 24.072 140.667 23.816C140.422 23.5493 140.07 23.416 139.611 23.416H137.643V26.28ZM137.643 31.224H139.851C140.363 31.224 140.763 31.0747 141.051 30.776C141.35 30.4667 141.499 30.0667 141.499 29.576C141.499 29.096 141.35 28.7067 141.051 28.408C140.763 28.0987 140.363 27.944 139.851 27.944H137.643V31.224ZM144.331 33L148.315 21.64H150.491L154.475 33H152.363L151.387 30.088H147.403L146.443 33H144.331ZM147.915 28.408H150.875L149.867 25.368L149.419 23.608H149.387C149.216 24.3547 149.067 24.9413 148.939 25.368L147.915 28.408ZM154.881 33L157.281 29L157.649 28.408V28.376C156.977 28.0773 156.471 27.64 156.129 27.064C155.799 26.488 155.633 25.8267 155.633 25.08C155.633 24.312 155.804 23.6613 156.145 23.128C156.497 22.584 156.961 22.1893 157.537 21.944C158.007 21.7413 158.727 21.64 159.697 21.64H163.377V33H161.313V28.76H159.649L157.185 33H154.881ZM159.521 27.032H161.313V23.416H159.857C159.217 23.416 158.743 23.512 158.433 23.704C157.964 23.992 157.729 24.4773 157.729 25.16C157.729 25.7573 157.889 26.2213 158.209 26.552C158.529 26.872 158.967 27.032 159.521 27.032ZM172.142 31.224H176.654V23.416H173.614V24.264C173.614 27.3147 173.123 29.6347 172.142 31.224ZM168.862 31.224H170.014C171.113 29.56 171.662 27.192 171.662 24.12V21.64H178.718V31.224H179.982V35.24H178.142V33H170.766V35.24H168.862V31.224ZM181.97 33V21.64H184.034V28.2L183.922 29.96H183.954C184.316 29.224 184.636 28.632 184.914 28.184L189.202 21.64H191.25V33H189.202V26.456L189.314 24.696H189.282C188.93 25.4213 188.615 26.008 188.338 26.456L184.018 33H181.97ZM192.769 33L196.753 21.64H198.929L202.913 33H200.801L199.825 30.088H195.841L194.881 33H192.769ZM196.353 28.408H199.313L198.305 25.368L197.857 23.608H197.825C197.654 24.3547 197.505 24.9413 197.377 25.368L196.353 28.408ZM204.423 33V21.64H210.951V23.416H206.487V33H204.423ZM212.517 33V21.64H214.581V26.456H219.781V21.64H221.829V33H219.781V28.232H214.581V33H212.517ZM223.907 27.24C223.907 25.608 224.467 24.2373 225.587 23.128C226.718 22.008 228.115 21.448 229.779 21.448C231.443 21.448 232.835 22.008 233.955 23.128C235.086 24.2373 235.651 25.608 235.651 27.24C235.651 28.9147 235.086 30.328 233.955 31.48C232.835 32.6213 231.443 33.192 229.779 33.192C228.115 33.192 226.718 32.6213 225.587 31.48C224.467 30.328 223.907 28.9147 223.907 27.24ZM226.035 27.24C226.035 28.392 226.398 29.3573 227.123 30.136C227.848 30.9147 228.734 31.304 229.779 31.304C230.824 31.304 231.71 30.9147 232.435 30.136C233.16 29.3573 233.523 28.392 233.523 27.24C233.523 26.1413 233.16 25.2187 232.435 24.472C231.71 23.7147 230.824 23.336 229.779 23.336C228.734 23.336 227.848 23.7147 227.123 24.472C226.398 25.2187 226.035 26.1413 226.035 27.24ZM237.079 27.272C237.079 25.608 237.629 24.2213 238.727 23.112C239.826 22.0027 241.223 21.448 242.919 21.448C244.647 21.448 246.045 21.9653 247.111 23L246.119 24.536C245.703 24.184 245.213 23.896 244.647 23.672C244.093 23.448 243.549 23.336 243.015 23.336C241.821 23.336 240.887 23.7093 240.215 24.456C239.543 25.2027 239.207 26.1307 239.207 27.24C239.207 28.36 239.549 29.32 240.231 30.12C240.914 30.9093 241.847 31.304 243.031 31.304C244.247 31.304 245.346 30.824 246.327 29.864L247.415 31.352C246.21 32.5787 244.722 33.192 242.951 33.192C241.191 33.192 239.773 32.632 238.695 31.512C237.618 30.392 237.079 28.9787 237.079 27.272ZM251.765 33V23.416H248.037V21.64H257.541V23.416H253.813V33H251.765ZM259.157 33V21.64H261.221V28.2L261.109 29.96H261.141C261.504 29.224 261.824 28.632 262.101 28.184L266.389 21.64H268.437V33H266.389V26.456L266.501 24.696H266.469C266.117 25.4213 265.803 26.008 265.525 26.456L261.205 33H259.157ZM271.204 33V21.64H273.268V26.264H274.74L277.412 21.64H279.652L276.436 27.048V27.08L279.844 33H277.508L274.74 28.04H273.268V33H271.204ZM280.159 33L284.143 21.64H286.319L290.303 33H288.191L287.215 30.088H283.231L282.271 33H280.159ZM283.743 28.408H286.703L285.695 25.368L285.247 23.608H285.215C285.045 24.3547 284.895 24.9413 284.767 25.368L283.743 28.408ZM295.814 33V21.64H299.862C300.918 21.64 301.766 21.9013 302.406 22.424C303.056 22.936 303.382 23.6507 303.382 24.568C303.382 25.1013 303.259 25.5813 303.014 26.008C302.768 26.4347 302.432 26.7653 302.006 27V27.032C302.603 27.2027 303.056 27.5387 303.366 28.04C303.686 28.5413 303.845 29.096 303.845 29.704C303.845 30.7813 303.472 31.6027 302.726 32.168C301.979 32.7227 301.046 33 299.926 33H295.814ZM297.878 26.28H299.878C300.315 26.28 300.656 26.1467 300.902 25.88C301.158 25.6027 301.286 25.2507 301.286 24.824C301.286 24.408 301.158 24.072 300.902 23.816C300.656 23.5493 300.304 23.416 299.846 23.416H297.878V26.28ZM297.878 31.224H300.086C300.598 31.224 300.998 31.0747 301.286 30.776C301.584 30.4667 301.734 30.0667 301.734 29.576C301.734 29.096 301.584 28.7067 301.286 28.408C300.998 28.0987 300.598 27.944 300.086 27.944H297.878V31.224ZM309.635 32.408L310.547 30.856C311.027 31.2293 311.453 31.416 311.827 31.416C312.328 31.416 312.707 31.0853 312.963 30.424L308.514 21.64H310.787L313.203 26.712L313.843 28.216H313.875C314.013 27.7147 314.168 27.2187 314.339 26.728L316.163 21.64H318.323L314.819 30.616C314.68 30.968 314.536 31.2773 314.387 31.544C314.237 31.8107 314.045 32.0773 313.811 32.344C313.576 32.6107 313.299 32.8187 312.979 32.968C312.659 33.1173 312.301 33.192 311.907 33.192C311.139 33.192 310.381 32.9307 309.635 32.408ZM319.735 33V21.64H324.119C325.186 21.64 326.055 21.9813 326.727 22.664C327.399 23.3467 327.735 24.2373 327.735 25.336C327.735 26.4347 327.399 27.336 326.727 28.04C326.055 28.7333 325.186 29.08 324.119 29.08H321.799V33H319.735ZM321.799 27.288H323.735C324.333 27.288 324.797 27.112 325.127 26.76C325.469 26.408 325.639 25.9333 325.639 25.336C325.639 24.7493 325.469 24.2853 325.127 23.944C324.797 23.592 324.343 23.416 323.767 23.416H321.799V27.288ZM328.86 27.24C328.86 25.608 329.42 24.2373 330.54 23.128C331.671 22.008 333.068 21.448 334.732 21.448C336.396 21.448 337.788 22.008 338.908 23.128C340.039 24.2373 340.604 25.608 340.604 27.24C340.604 28.9147 340.039 30.328 338.908 31.48C337.788 32.6213 336.396 33.192 334.732 33.192C333.068 33.192 331.671 32.6213 330.54 31.48C329.42 30.328 328.86 28.9147 328.86 27.24ZM330.988 27.24C330.988 28.392 331.351 29.3573 332.076 30.136C332.802 30.9147 333.687 31.304 334.732 31.304C335.778 31.304 336.663 30.9147 337.388 30.136C338.114 29.3573 338.476 28.392 338.476 27.24C338.476 26.1413 338.114 25.2187 337.388 24.472C336.663 23.7147 335.778 23.336 334.732 23.336C333.687 23.336 332.802 23.7147 332.076 24.472C331.351 25.2187 330.988 26.1413 330.988 27.24ZM342.689 33V21.64H344.753V26.456H349.953V21.64H352.001V33H349.953V28.232H344.753V33H342.689ZM354.751 33V21.64H361.551V23.416H356.815V26.392H360.639V28.168H356.815V31.224H361.807V33H354.751ZM362.825 26.952C362.825 25.5653 363.305 24.4347 364.265 23.56C365.236 22.6853 366.489 22.248 368.025 22.248V21H370.089V22.248C371.625 22.248 372.873 22.6853 373.833 23.56C374.804 24.4347 375.289 25.5653 375.289 26.952C375.289 28.3707 374.809 29.528 373.849 30.424C372.889 31.3093 371.636 31.752 370.089 31.752V33.192H368.025V31.752C366.489 31.752 365.236 31.304 364.265 30.408C363.305 29.512 362.825 28.36 362.825 26.952ZM370.089 30.024C371.006 30.024 371.753 29.7413 372.329 29.176C372.905 28.6 373.193 27.8587 373.193 26.952C373.193 26.0667 372.905 25.352 372.329 24.808C371.753 24.2533 371.006 23.976 370.089 23.976V30.024ZM364.937 26.952C364.937 27.8587 365.22 28.6 365.785 29.176C366.361 29.7413 367.108 30.024 368.025 30.024V23.976C367.108 23.976 366.361 24.2533 365.785 24.808C365.22 25.352 364.937 26.0667 364.937 26.952ZM377.189 33V21.64H381.573C382.639 21.64 383.509 21.9813 384.181 22.664C384.853 23.3467 385.189 24.2373 385.189 25.336C385.189 26.4347 384.853 27.336 384.181 28.04C383.509 28.7333 382.639 29.08 381.573 29.08H379.253V33H377.189ZM379.253 27.288H381.189C381.786 27.288 382.25 27.112 382.581 26.76C382.922 26.408 383.093 25.9333 383.093 25.336C383.093 24.7493 382.922 24.2853 382.581 23.944C382.25 23.592 381.797 23.416 381.221 23.416H379.253V27.288ZM386.313 27.24C386.313 25.608 386.873 24.2373 387.993 23.128C389.124 22.008 390.521 21.448 392.185 21.448C393.849 21.448 395.241 22.008 396.361 23.128C397.492 24.2373 398.057 25.608 398.057 27.24C398.057 28.9147 397.492 30.328 396.361 31.48C395.241 32.6213 393.849 33.192 392.185 33.192C390.521 33.192 389.124 32.6213 387.993 31.48C386.873 30.328 386.313 28.9147 386.313 27.24ZM388.441 27.24C388.441 28.392 388.804 29.3573 389.529 30.136C390.255 30.9147 391.14 31.304 392.185 31.304C393.231 31.304 394.116 30.9147 394.841 30.136C395.567 29.3573 395.929 28.392 395.929 27.24C395.929 26.1413 395.567 25.2187 394.841 24.472C394.116 23.7147 393.231 23.336 392.185 23.336C391.14 23.336 390.255 23.7147 389.529 24.472C388.804 25.2187 388.441 26.1413 388.441 27.24ZM398.677 31.24C399.53 31.1227 400.149 30.5573 400.533 29.544C400.928 28.52 401.125 26.92 401.125 24.744V21.64H408.149V33H406.085V23.416H403.093V24.776C403.093 27.5707 402.746 29.6507 402.053 31.016C401.36 32.3707 400.234 33.0747 398.677 33.128V31.24ZM410.235 27.24C410.235 25.608 410.795 24.2373 411.915 23.128C413.046 22.008 414.443 21.448 416.107 21.448C417.771 21.448 419.163 22.008 420.283 23.128C421.414 24.2373 421.979 25.608 421.979 27.24C421.979 28.9147 421.414 30.328 420.283 31.48C419.163 32.6213 417.771 33.192 416.107 33.192C414.443 33.192 413.046 32.6213 411.915 31.48C410.795 30.328 410.235 28.9147 410.235 27.24ZM412.363 27.24C412.363 28.392 412.726 29.3573 413.451 30.136C414.177 30.9147 415.062 31.304 416.107 31.304C417.153 31.304 418.038 30.9147 418.763 30.136C419.489 29.3573 419.851 28.392 419.851 27.24C419.851 26.1413 419.489 25.2187 418.763 24.472C418.038 23.7147 417.153 23.336 416.107 23.336C415.062 23.336 414.177 23.7147 413.451 24.472C412.726 25.2187 412.363 26.1413 412.363 27.24ZM424.064 33V21.64H430.592V23.416H426.128V33H424.064ZM432.157 33V21.64H434.221V28.2L434.109 29.96H434.141C434.504 29.224 434.824 28.632 435.101 28.184L439.389 21.64H441.437V33H439.389V26.456L439.501 24.696H439.469C439.117 25.4213 438.803 26.008 438.525 26.456L434.205 33H432.157ZM444.204 33V21.64H446.268V28.2L446.156 29.96H446.188C446.551 29.224 446.871 28.632 447.148 28.184L451.436 21.64H453.484V33H451.436V26.456L451.548 24.696H451.516C451.164 25.4213 450.849 26.008 450.572 26.456L446.252 33H444.204Z" fill="#252525"/>
<rect x="489" width="452" height="55" rx="27.5" fill="#F3F6FF"/>
<path d="M514.22 32.408L515.132 30.856C515.612 31.2293 516.039 31.416 516.412 31.416C516.914 31.416 517.292 31.0853 517.548 30.424L513.1 21.64H515.372L517.788 26.712L518.428 28.216H518.46C518.599 27.7147 518.754 27.2187 518.924 26.728L520.748 21.64H522.908L519.404 30.616C519.266 30.968 519.122 31.2773 518.972 31.544C518.823 31.8107 518.631 32.0773 518.396 32.344C518.162 32.6107 517.884 32.8187 517.564 32.968C517.244 33.1173 516.887 33.192 516.492 33.192C515.724 33.192 514.967 32.9307 514.22 32.408ZM522.482 31.24C523.335 31.1227 523.954 30.5573 524.338 29.544C524.732 28.52 524.93 26.92 524.93 24.744V21.64H531.954V33H529.89V23.416H526.898V24.776C526.898 27.5707 526.551 29.6507 525.858 31.016C525.164 32.3707 524.039 33.0747 522.482 33.128V31.24ZM534.712 33V21.64H536.776V25.624H539C540.045 25.624 540.899 25.9653 541.56 26.648C542.221 27.32 542.552 28.216 542.552 29.336C542.552 30.424 542.227 31.3093 541.576 31.992C540.925 32.664 540.077 33 539.032 33H534.712ZM536.776 31.224H538.664C539.229 31.224 539.667 31.0587 539.976 30.728C540.296 30.3867 540.456 29.9227 540.456 29.336C540.456 28.7493 540.291 28.28 539.96 27.928C539.64 27.576 539.197 27.4 538.632 27.4H536.776V31.224ZM545.866 33V23.416H542.138V21.64H551.642V23.416H547.914V33H545.866ZM553.259 33V21.64H557.643C558.709 21.64 559.579 21.9813 560.251 22.664C560.923 23.3467 561.259 24.2373 561.259 25.336C561.259 26.4347 560.923 27.336 560.251 28.04C559.579 28.7333 558.709 29.08 557.643 29.08H555.323V33H553.259ZM555.323 27.288H557.259C557.856 27.288 558.32 27.112 558.651 26.76C558.992 26.408 559.163 25.9333 559.163 25.336C559.163 24.7493 558.992 24.2853 558.651 23.944C558.32 23.592 557.867 23.416 557.291 23.416H555.323V27.288ZM561.23 33L565.214 21.64H567.39L571.374 33H569.262L568.286 30.088H564.302L563.342 33H561.23ZM564.814 28.408H567.774L566.766 25.368L566.318 23.608H566.286C566.115 24.3547 565.966 24.9413 565.838 25.368L564.814 28.408ZM571.86 31.576L572.98 30.2C573.289 30.5307 573.673 30.808 574.132 31.032C574.59 31.256 575.06 31.368 575.54 31.368C576.158 31.368 576.649 31.2133 577.012 30.904C577.374 30.5947 577.556 30.168 577.556 29.624C577.556 29.1333 577.39 28.7493 577.06 28.472C576.74 28.184 576.302 28.04 575.748 28.04H574.356V26.376H575.476C575.988 26.376 576.409 26.2267 576.74 25.928C577.07 25.6293 577.236 25.256 577.236 24.808C577.236 24.3493 577.086 23.976 576.788 23.688C576.489 23.3893 576.057 23.24 575.492 23.24C574.628 23.24 573.806 23.56 573.028 24.2L572.196 22.696C573.198 21.864 574.414 21.448 575.844 21.448C576.814 21.448 577.636 21.7253 578.308 22.28C578.99 22.8347 579.332 23.592 579.332 24.552C579.332 25.672 578.809 26.5147 577.764 27.08V27.112C578.35 27.2933 578.814 27.6133 579.156 28.072C579.497 28.5307 579.668 29.0907 579.668 29.752C579.668 30.7973 579.289 31.6347 578.532 32.264C577.785 32.8827 576.852 33.192 575.732 33.192C575.006 33.192 574.297 33.0533 573.604 32.776C572.921 32.488 572.34 32.088 571.86 31.576ZM581.759 33V21.64H585.807C586.863 21.64 587.711 21.9013 588.351 22.424C589.001 22.936 589.327 23.6507 589.327 24.568C589.327 25.1013 589.204 25.5813 588.959 26.008C588.713 26.4347 588.377 26.7653 587.951 27V27.032C588.548 27.2027 589.001 27.5387 589.311 28.04C589.631 28.5413 589.791 29.096 589.791 29.704C589.791 30.7813 589.417 31.6027 588.671 32.168C587.924 32.7227 586.991 33 585.871 33H581.759ZM583.823 26.28H585.823C586.26 26.28 586.601 26.1467 586.847 25.88C587.103 25.6027 587.231 25.2507 587.231 24.824C587.231 24.408 587.103 24.072 586.847 23.816C586.601 23.5493 586.249 23.416 585.791 23.416H583.823V26.28ZM583.823 31.224H586.031C586.543 31.224 586.943 31.0747 587.231 30.776C587.529 30.4667 587.679 30.0667 587.679 29.576C587.679 29.096 587.529 28.7067 587.231 28.408C586.943 28.0987 586.543 27.944 586.031 27.944H583.823V31.224ZM591.439 32.408L592.351 30.856C592.831 31.2293 593.258 31.416 593.631 31.416C594.133 31.416 594.511 31.0853 594.767 30.424L590.319 21.64H592.591L595.007 26.712L595.647 28.216H595.679C595.818 27.7147 595.973 27.2187 596.143 26.728L597.967 21.64H600.127L596.623 30.616C596.485 30.968 596.341 31.2773 596.191 31.544C596.042 31.8107 595.85 32.0773 595.615 32.344C595.381 32.6107 595.103 32.8187 594.783 32.968C594.463 33.1173 594.106 33.192 593.711 33.192C592.943 33.192 592.186 32.9307 591.439 32.408ZM601.54 33V21.64H603.604V26.264H605.076L607.748 21.64H609.988L606.772 27.048V27.08L610.18 33H607.844L605.076 28.04H603.604V33H601.54ZM610.774 27.24C610.774 25.608 611.334 24.2373 612.454 23.128C613.585 22.008 614.982 21.448 616.646 21.448C618.31 21.448 619.702 22.008 620.822 23.128C621.953 24.2373 622.518 25.608 622.518 27.24C622.518 28.9147 621.953 30.328 620.822 31.48C619.702 32.6213 618.31 33.192 616.646 33.192C614.982 33.192 613.585 32.6213 612.454 31.48C611.334 30.328 610.774 28.9147 610.774 27.24ZM612.902 27.24C612.902 28.392 613.265 29.3573 613.99 30.136C614.716 30.9147 615.601 31.304 616.646 31.304C617.692 31.304 618.577 30.9147 619.302 30.136C620.028 29.3573 620.39 28.392 620.39 27.24C620.39 26.1413 620.028 25.2187 619.302 24.472C618.577 23.7147 617.692 23.336 616.646 23.336C615.601 23.336 614.716 23.7147 613.99 24.472C613.265 25.2187 612.902 26.1413 612.902 27.24ZM624.603 33V21.64H628.651C629.707 21.64 630.555 21.9013 631.195 22.424C631.845 22.936 632.171 23.6507 632.171 24.568C632.171 25.1013 632.048 25.5813 631.803 26.008C631.557 26.4347 631.221 26.7653 630.795 27V27.032C631.392 27.2027 631.845 27.5387 632.155 28.04C632.475 28.5413 632.635 29.096 632.635 29.704C632.635 30.7813 632.261 31.6027 631.515 32.168C630.768 32.7227 629.835 33 628.715 33H624.603ZM626.667 26.28H628.667C629.104 26.28 629.445 26.1467 629.691 25.88C629.947 25.6027 630.075 25.2507 630.075 24.824C630.075 24.408 629.947 24.072 629.691 23.816C629.445 23.5493 629.093 23.416 628.635 23.416H626.667V26.28ZM626.667 31.224H628.875C629.387 31.224 629.787 31.0747 630.075 30.776C630.373 30.4667 630.523 30.0667 630.523 29.576C630.523 29.096 630.373 28.7067 630.075 28.408C629.787 28.0987 629.387 27.944 628.875 27.944H626.667V31.224ZM633.355 33L637.339 21.64H639.515L643.499 33H641.387L640.411 30.088H636.427L635.467 33H633.355ZM636.939 28.408H639.899L638.891 25.368L638.443 23.608H638.411C638.24 24.3547 638.091 24.9413 637.963 25.368L636.939 28.408ZM643.905 33L646.305 29L646.673 28.408V28.376C646.001 28.0773 645.494 27.64 645.153 27.064C644.822 26.488 644.657 25.8267 644.657 25.08C644.657 24.312 644.827 23.6613 645.169 23.128C645.521 22.584 645.985 22.1893 646.561 21.944C647.03 21.7413 647.75 21.64 648.721 21.64H652.401V33H650.337V28.76H648.673L646.209 33H643.905ZM648.545 27.032H650.337V23.416H648.881C648.241 23.416 647.766 23.512 647.457 23.704C646.987 23.992 646.753 24.4773 646.753 25.16C646.753 25.7573 646.913 26.2213 647.233 26.552C647.553 26.872 647.99 27.032 648.545 27.032ZM661.165 31.224H665.677V23.416H662.637V24.264C662.637 27.3147 662.147 29.6347 661.165 31.224ZM657.885 31.224H659.037C660.136 29.56 660.685 27.192 660.685 24.12V21.64H667.741V31.224H669.005V35.24H667.165V33H659.789V35.24H657.885V31.224ZM670.993 33V21.64H673.057V28.2L672.945 29.96H672.977C673.34 29.224 673.66 28.632 673.937 28.184L678.225 21.64H680.273V33H678.225V26.456L678.337 24.696H678.305C677.953 25.4213 677.639 26.008 677.361 26.456L673.041 33H670.993ZM681.792 33L685.776 21.64H687.952L691.936 33H689.824L688.848 30.088H684.864L683.904 33H681.792ZM685.376 28.408H688.336L687.328 25.368L686.88 23.608H686.848C686.677 24.3547 686.528 24.9413 686.4 25.368L685.376 28.408ZM693.446 33V21.64H699.974V23.416H695.51V33H693.446ZM701.54 33V21.64H703.604V26.456H708.804V21.64H710.852V33H708.804V28.232H703.604V33H701.54ZM712.931 27.24C712.931 25.608 713.491 24.2373 714.611 23.128C715.741 22.008 717.139 21.448 718.803 21.448C720.467 21.448 721.859 22.008 722.979 23.128C724.109 24.2373 724.675 25.608 724.675 27.24C724.675 28.9147 724.109 30.328 722.979 31.48C721.859 32.6213 720.467 33.192 718.803 33.192C717.139 33.192 715.741 32.6213 714.611 31.48C713.491 30.328 712.931 28.9147 712.931 27.24ZM715.059 27.24C715.059 28.392 715.421 29.3573 716.147 30.136C716.872 30.9147 717.757 31.304 718.803 31.304C719.848 31.304 720.733 30.9147 721.459 30.136C722.184 29.3573 722.547 28.392 722.547 27.24C722.547 26.1413 722.184 25.2187 721.459 24.472C720.733 23.7147 719.848 23.336 718.803 23.336C717.757 23.336 716.872 23.7147 716.147 24.472C715.421 25.2187 715.059 26.1413 715.059 27.24ZM726.103 27.272C726.103 25.608 726.652 24.2213 727.751 23.112C728.849 22.0027 730.247 21.448 731.943 21.448C733.671 21.448 735.068 21.9653 736.135 23L735.143 24.536C734.727 24.184 734.236 23.896 733.671 23.672C733.116 23.448 732.572 23.336 732.039 23.336C730.844 23.336 729.911 23.7093 729.239 24.456C728.567 25.2027 728.231 26.1307 728.231 27.24C728.231 28.36 728.572 29.32 729.255 30.12C729.937 30.9093 730.871 31.304 732.055 31.304C733.271 31.304 734.369 30.824 735.351 29.864L736.439 31.352C735.233 32.5787 733.745 33.192 731.975 33.192C730.215 33.192 728.796 32.632 727.719 31.512C726.641 30.392 726.103 28.9787 726.103 27.272ZM740.788 33V23.416H737.06V21.64H746.564V23.416H742.836V33H740.788ZM748.181 33V21.64H750.245V28.2L750.133 29.96H750.165C750.527 29.224 750.847 28.632 751.125 28.184L755.413 21.64H757.461V33H755.413V26.456L755.525 24.696H755.493C755.141 25.4213 754.826 26.008 754.549 26.456L750.229 33H748.181ZM760.228 33V21.64H762.292V26.264H763.764L766.436 21.64H768.676L765.46 27.048V27.08L768.868 33H766.532L763.764 28.04H762.292V33H760.228ZM769.183 33L773.167 21.64H775.343L779.327 33H777.215L776.239 30.088H772.255L771.295 33H769.183ZM772.767 28.408H775.727L774.719 25.368L774.271 23.608H774.239C774.068 24.3547 773.919 24.9413 773.791 25.368L772.767 28.408ZM784.837 33V21.64H788.885C789.941 21.64 790.789 21.9013 791.429 22.424C792.08 22.936 792.405 23.6507 792.405 24.568C792.405 25.1013 792.282 25.5813 792.037 26.008C791.792 26.4347 791.456 26.7653 791.029 27V27.032C791.626 27.2027 792.08 27.5387 792.389 28.04C792.709 28.5413 792.869 29.096 792.869 29.704C792.869 30.7813 792.496 31.6027 791.749 32.168C791.002 32.7227 790.069 33 788.949 33H784.837ZM786.901 26.28H788.901C789.338 26.28 789.68 26.1467 789.925 25.88C790.181 25.6027 790.309 25.2507 790.309 24.824C790.309 24.408 790.181 24.072 789.925 23.816C789.68 23.5493 789.328 23.416 788.869 23.416H786.901V26.28ZM786.901 31.224H789.109C789.621 31.224 790.021 31.0747 790.309 30.776C790.608 30.4667 790.757 30.0667 790.757 29.576C790.757 29.096 790.608 28.7067 790.309 28.408C790.021 28.0987 789.621 27.944 789.109 27.944H786.901V31.224ZM798.962 33V21.64H805.49V23.416H801.026V33H798.962ZM807.056 33V21.64H813.856V23.416H809.12V26.392H812.944V28.168H809.12V31.224H814.112V33H807.056ZM815.733 33L816.661 21.64H818.853L821.093 27.256L821.653 28.92H821.685C821.888 28.2587 822.074 27.704 822.245 27.256L824.485 21.64H826.677L827.605 33H825.541L825.077 26.648C825.056 26.424 825.045 26.168 825.045 25.88C825.045 25.5813 825.05 25.3413 825.061 25.16V24.888H825.029C824.784 25.624 824.576 26.2107 824.405 26.648L822.565 31.048H820.773L818.933 26.648L818.309 24.872H818.277C818.309 25.5547 818.304 26.1467 818.261 26.648L817.797 33H815.733ZM828.683 33L832.667 21.64H834.843L838.827 33H836.715L835.739 30.088H831.755L830.795 33H828.683ZM832.267 28.408H835.227L834.219 25.368L833.771 23.608H833.739C833.568 24.3547 833.419 24.9413 833.291 25.368L832.267 28.408ZM841.975 33V23.416H838.247V21.64H847.751V23.416H844.023V33H841.975ZM848.29 27.24C848.29 25.608 848.85 24.2373 849.97 23.128C851.101 22.008 852.498 21.448 854.162 21.448C855.826 21.448 857.218 22.008 858.338 23.128C859.469 24.2373 860.034 25.608 860.034 27.24C860.034 28.9147 859.469 30.328 858.338 31.48C857.218 32.6213 855.826 33.192 854.162 33.192C852.498 33.192 851.101 32.6213 849.97 31.48C848.85 30.328 848.29 28.9147 848.29 27.24ZM850.418 27.24C850.418 28.392 850.781 29.3573 851.506 30.136C852.231 30.9147 853.117 31.304 854.162 31.304C855.207 31.304 856.093 30.9147 856.818 30.136C857.543 29.3573 857.906 28.392 857.906 27.24C857.906 26.1413 857.543 25.2187 856.818 24.472C856.093 23.7147 855.207 23.336 854.162 23.336C853.117 23.336 852.231 23.7147 851.506 24.472C850.781 25.2187 850.418 26.1413 850.418 27.24ZM860.654 31.24C861.507 31.1227 862.126 30.5573 862.51 29.544C862.904 28.52 863.102 26.92 863.102 24.744V21.64H870.126V33H868.062V23.416H865.07V24.776C865.07 27.5707 864.723 29.6507 864.03 31.016C863.336 32.3707 862.211 33.0747 860.654 33.128V31.24ZM872.212 27.24C872.212 25.608 872.772 24.2373 873.892 23.128C875.022 22.008 876.42 21.448 878.084 21.448C879.748 21.448 881.14 22.008 882.26 23.128C883.39 24.2373 883.956 25.608 883.956 27.24C883.956 28.9147 883.39 30.328 882.26 31.48C881.14 32.6213 879.748 33.192 878.084 33.192C876.42 33.192 875.022 32.6213 873.892 31.48C872.772 30.328 872.212 28.9147 872.212 27.24ZM874.34 27.24C874.34 28.392 874.702 29.3573 875.428 30.136C876.153 30.9147 877.038 31.304 878.084 31.304C879.129 31.304 880.014 30.9147 880.74 30.136C881.465 29.3573 881.828 28.392 881.828 27.24C881.828 26.1413 881.465 25.2187 880.74 24.472C880.014 23.7147 879.129 23.336 878.084 23.336C877.038 23.336 876.153 23.7147 875.428 24.472C874.702 25.2187 874.34 26.1413 874.34 27.24ZM886.04 33V21.64H892.568V23.416H888.104V33H886.04ZM894.134 33V21.64H896.198V28.2L896.086 29.96H896.118C896.48 29.224 896.8 28.632 897.078 28.184L901.366 21.64H903.414V33H901.366V26.456L901.478 24.696H901.446C901.094 25.4213 900.779 26.008 900.502 26.456L896.182 33H894.134ZM906.181 33V21.64H908.245V28.2L908.133 29.96H908.165C908.527 29.224 908.847 28.632 909.125 28.184L913.413 21.64H915.461V33H913.413V26.456L913.525 24.696H913.493C913.141 25.4213 912.826 26.008 912.549 26.456L908.229 33H906.181Z" fill="#005DFF"/>
<rect x="951" width="695" height="55" rx="27.5" fill="#F3F6FF"/>
<path d="M976.338 32.408L977.25 30.856C977.73 31.2293 978.156 31.416 978.53 31.416C979.031 31.416 979.41 31.0853 979.666 30.424L975.218 21.64H977.49L979.906 26.712L980.546 28.216H980.578C980.716 27.7147 980.871 27.2187 981.042 26.728L982.866 21.64H985.026L981.522 30.616C981.383 30.968 981.239 31.2773 981.09 31.544C980.94 31.8107 980.748 32.0773 980.514 32.344C980.279 32.6107 980.002 32.8187 979.682 32.968C979.362 33.1173 979.004 33.192 978.61 33.192C977.842 33.192 977.084 32.9307 976.338 32.408ZM984.599 31.24C985.452 31.1227 986.071 30.5573 986.455 29.544C986.85 28.52 987.047 26.92 987.047 24.744V21.64H994.071V33H992.007V23.416H989.015V24.776C989.015 27.5707 988.668 29.6507 987.975 31.016C987.282 32.3707 986.156 33.0747 984.599 33.128V31.24ZM996.829 33V21.64H998.893V25.624H1001.12C1002.16 25.624 1003.02 25.9653 1003.68 26.648C1004.34 27.32 1004.67 28.216 1004.67 29.336C1004.67 30.424 1004.34 31.3093 1003.69 31.992C1003.04 32.664 1002.19 33 1001.15 33H996.829ZM998.893 31.224H1000.78C1001.35 31.224 1001.78 31.0587 1002.09 30.728C1002.41 30.3867 1002.57 29.9227 1002.57 29.336C1002.57 28.7493 1002.41 28.28 1002.08 27.928C1001.76 27.576 1001.31 27.4 1000.75 27.4H998.893V31.224ZM1007.98 33V23.416H1004.26V21.64H1013.76V23.416H1010.03V33H1007.98ZM1015.38 33V21.64H1019.76C1020.83 21.64 1021.7 21.9813 1022.37 22.664C1023.04 23.3467 1023.38 24.2373 1023.38 25.336C1023.38 26.4347 1023.04 27.336 1022.37 28.04C1021.7 28.7333 1020.83 29.08 1019.76 29.08H1017.44V33H1015.38ZM1017.44 27.288H1019.38C1019.97 27.288 1020.44 27.112 1020.77 26.76C1021.11 26.408 1021.28 25.9333 1021.28 25.336C1021.28 24.7493 1021.11 24.2853 1020.77 23.944C1020.44 23.592 1019.98 23.416 1019.41 23.416H1017.44V27.288ZM1023.35 33L1027.33 21.64H1029.51L1033.49 33H1031.38L1030.4 30.088H1026.42L1025.46 33H1023.35ZM1026.93 28.408H1029.89L1028.88 25.368L1028.43 23.608H1028.4C1028.23 24.3547 1028.08 24.9413 1027.95 25.368L1026.93 28.408ZM1033.98 31.576L1035.1 30.2C1035.41 30.5307 1035.79 30.808 1036.25 31.032C1036.71 31.256 1037.18 31.368 1037.66 31.368C1038.28 31.368 1038.77 31.2133 1039.13 30.904C1039.49 30.5947 1039.67 30.168 1039.67 29.624C1039.67 29.1333 1039.51 28.7493 1039.18 28.472C1038.86 28.184 1038.42 28.04 1037.87 28.04H1036.47V26.376H1037.59C1038.11 26.376 1038.53 26.2267 1038.86 25.928C1039.19 25.6293 1039.35 25.256 1039.35 24.808C1039.35 24.3493 1039.2 23.976 1038.91 23.688C1038.61 23.3893 1038.17 23.24 1037.61 23.24C1036.75 23.24 1035.92 23.56 1035.15 24.2L1034.31 22.696C1035.32 21.864 1036.53 21.448 1037.96 21.448C1038.93 21.448 1039.75 21.7253 1040.43 22.28C1041.11 22.8347 1041.45 23.592 1041.45 24.552C1041.45 25.672 1040.93 26.5147 1039.88 27.08V27.112C1040.47 27.2933 1040.93 27.6133 1041.27 28.072C1041.61 28.5307 1041.79 29.0907 1041.79 29.752C1041.79 30.7973 1041.41 31.6347 1040.65 32.264C1039.9 32.8827 1038.97 33.192 1037.85 33.192C1037.12 33.192 1036.41 33.0533 1035.72 32.776C1035.04 32.488 1034.46 32.088 1033.98 31.576ZM1043.88 33V21.64H1047.92C1048.98 21.64 1049.83 21.9013 1050.47 22.424C1051.12 22.936 1051.44 23.6507 1051.44 24.568C1051.44 25.1013 1051.32 25.5813 1051.08 26.008C1050.83 26.4347 1050.49 26.7653 1050.07 27V27.032C1050.67 27.2027 1051.12 27.5387 1051.43 28.04C1051.75 28.5413 1051.91 29.096 1051.91 29.704C1051.91 30.7813 1051.53 31.6027 1050.79 32.168C1050.04 32.7227 1049.11 33 1047.99 33H1043.88ZM1045.94 26.28H1047.94C1048.38 26.28 1048.72 26.1467 1048.96 25.88C1049.22 25.6027 1049.35 25.2507 1049.35 24.824C1049.35 24.408 1049.22 24.072 1048.96 23.816C1048.72 23.5493 1048.37 23.416 1047.91 23.416H1045.94V26.28ZM1045.94 31.224H1048.15C1048.66 31.224 1049.06 31.0747 1049.35 30.776C1049.65 30.4667 1049.8 30.0667 1049.8 29.576C1049.8 29.096 1049.65 28.7067 1049.35 28.408C1049.06 28.0987 1048.66 27.944 1048.15 27.944H1045.94V31.224ZM1053.56 32.408L1054.47 30.856C1054.95 31.2293 1055.38 31.416 1055.75 31.416C1056.25 31.416 1056.63 31.0853 1056.88 30.424L1052.44 21.64H1054.71L1057.12 26.712L1057.76 28.216H1057.8C1057.94 27.7147 1058.09 27.2187 1058.26 26.728L1060.08 21.64H1062.24L1058.74 30.616C1058.6 30.968 1058.46 31.2773 1058.31 31.544C1058.16 31.8107 1057.97 32.0773 1057.73 32.344C1057.5 32.6107 1057.22 32.8187 1056.9 32.968C1056.58 33.1173 1056.22 33.192 1055.83 33.192C1055.06 33.192 1054.3 32.9307 1053.56 32.408ZM1063.66 33V21.64H1065.72V26.264H1067.19L1069.87 21.64H1072.11L1068.89 27.048V27.08L1072.3 33H1069.96L1067.19 28.04H1065.72V33H1063.66ZM1072.89 27.24C1072.89 25.608 1073.45 24.2373 1074.57 23.128C1075.7 22.008 1077.1 21.448 1078.76 21.448C1080.43 21.448 1081.82 22.008 1082.94 23.128C1084.07 24.2373 1084.64 25.608 1084.64 27.24C1084.64 28.9147 1084.07 30.328 1082.94 31.48C1081.82 32.6213 1080.43 33.192 1078.76 33.192C1077.1 33.192 1075.7 32.6213 1074.57 31.48C1073.45 30.328 1072.89 28.9147 1072.89 27.24ZM1075.02 27.24C1075.02 28.392 1075.38 29.3573 1076.11 30.136C1076.83 30.9147 1077.72 31.304 1078.76 31.304C1079.81 31.304 1080.69 30.9147 1081.42 30.136C1082.14 29.3573 1082.51 28.392 1082.51 27.24C1082.51 26.1413 1082.14 25.2187 1081.42 24.472C1080.69 23.7147 1079.81 23.336 1078.76 23.336C1077.72 23.336 1076.83 23.7147 1076.11 24.472C1075.38 25.2187 1075.02 26.1413 1075.02 27.24ZM1086.72 33V21.64H1090.77C1091.82 21.64 1092.67 21.9013 1093.31 22.424C1093.96 22.936 1094.29 23.6507 1094.29 24.568C1094.29 25.1013 1094.17 25.5813 1093.92 26.008C1093.67 26.4347 1093.34 26.7653 1092.91 27V27.032C1093.51 27.2027 1093.96 27.5387 1094.27 28.04C1094.59 28.5413 1094.75 29.096 1094.75 29.704C1094.75 30.7813 1094.38 31.6027 1093.63 32.168C1092.89 32.7227 1091.95 33 1090.83 33H1086.72ZM1088.78 26.28H1090.78C1091.22 26.28 1091.56 26.1467 1091.81 25.88C1092.06 25.6027 1092.19 25.2507 1092.19 24.824C1092.19 24.408 1092.06 24.072 1091.81 23.816C1091.56 23.5493 1091.21 23.416 1090.75 23.416H1088.78V26.28ZM1088.78 31.224H1090.99C1091.5 31.224 1091.9 31.0747 1092.19 30.776C1092.49 30.4667 1092.64 30.0667 1092.64 29.576C1092.64 29.096 1092.49 28.7067 1092.19 28.408C1091.9 28.0987 1091.5 27.944 1090.99 27.944H1088.78V31.224ZM1095.47 33L1099.46 21.64H1101.63L1105.62 33H1103.5L1102.53 30.088H1098.54L1097.58 33H1095.47ZM1099.06 28.408H1102.02L1101.01 25.368L1100.56 23.608H1100.53C1100.36 24.3547 1100.21 24.9413 1100.08 25.368L1099.06 28.408ZM1106.02 33L1108.42 29L1108.79 28.408V28.376C1108.12 28.0773 1107.61 27.64 1107.27 27.064C1106.94 26.488 1106.77 25.8267 1106.77 25.08C1106.77 24.312 1106.94 23.6613 1107.29 23.128C1107.64 22.584 1108.1 22.1893 1108.68 21.944C1109.15 21.7413 1109.87 21.64 1110.84 21.64H1114.52V33H1112.45V28.76H1110.79L1108.33 33H1106.02ZM1110.66 27.032H1112.45V23.416H1111C1110.36 23.416 1109.88 23.512 1109.57 23.704C1109.1 23.992 1108.87 24.4773 1108.87 25.16C1108.87 25.7573 1109.03 26.2213 1109.35 26.552C1109.67 26.872 1110.11 27.032 1110.66 27.032ZM1123.28 31.224H1127.79V23.416H1124.75V24.264C1124.75 27.3147 1124.26 29.6347 1123.28 31.224ZM1120 31.224H1121.15C1122.25 29.56 1122.8 27.192 1122.8 24.12V21.64H1129.86V31.224H1131.12V35.24H1129.28V33H1121.91V35.24H1120V31.224ZM1133.11 33V21.64H1135.17V28.2L1135.06 29.96H1135.09C1135.46 29.224 1135.78 28.632 1136.05 28.184L1140.34 21.64H1142.39V33H1140.34V26.456L1140.45 24.696H1140.42C1140.07 25.4213 1139.76 26.008 1139.48 26.456L1135.16 33H1133.11ZM1143.91 33L1147.89 21.64H1150.07L1154.05 33H1151.94L1150.97 30.088H1146.98L1146.02 33H1143.91ZM1147.49 28.408H1150.45L1149.45 25.368L1149 23.608H1148.97C1148.79 24.3547 1148.65 24.9413 1148.52 25.368L1147.49 28.408ZM1155.56 33V21.64H1162.09V23.416H1157.63V33H1155.56ZM1163.66 33V21.64H1165.72V26.456H1170.92V21.64H1172.97V33H1170.92V28.232H1165.72V33H1163.66ZM1175.05 27.24C1175.05 25.608 1175.61 24.2373 1176.73 23.128C1177.86 22.008 1179.26 21.448 1180.92 21.448C1182.58 21.448 1183.98 22.008 1185.1 23.128C1186.23 24.2373 1186.79 25.608 1186.79 27.24C1186.79 28.9147 1186.23 30.328 1185.1 31.48C1183.98 32.6213 1182.58 33.192 1180.92 33.192C1179.26 33.192 1177.86 32.6213 1176.73 31.48C1175.61 30.328 1175.05 28.9147 1175.05 27.24ZM1177.18 27.24C1177.18 28.392 1177.54 29.3573 1178.26 30.136C1178.99 30.9147 1179.87 31.304 1180.92 31.304C1181.97 31.304 1182.85 30.9147 1183.58 30.136C1184.3 29.3573 1184.66 28.392 1184.66 27.24C1184.66 26.1413 1184.3 25.2187 1183.58 24.472C1182.85 23.7147 1181.97 23.336 1180.92 23.336C1179.87 23.336 1178.99 23.7147 1178.26 24.472C1177.54 25.2187 1177.18 26.1413 1177.18 27.24ZM1188.22 27.272C1188.22 25.608 1188.77 24.2213 1189.87 23.112C1190.97 22.0027 1192.36 21.448 1194.06 21.448C1195.79 21.448 1197.19 21.9653 1198.25 23L1197.26 24.536C1196.84 24.184 1196.35 23.896 1195.79 23.672C1195.23 23.448 1194.69 23.336 1194.16 23.336C1192.96 23.336 1192.03 23.7093 1191.36 24.456C1190.68 25.2027 1190.35 26.1307 1190.35 27.24C1190.35 28.36 1190.69 29.32 1191.37 30.12C1192.05 30.9093 1192.99 31.304 1194.17 31.304C1195.39 31.304 1196.49 30.824 1197.47 29.864L1198.56 31.352C1197.35 32.5787 1195.86 33.192 1194.09 33.192C1192.33 33.192 1190.91 32.632 1189.84 31.512C1188.76 30.392 1188.22 28.9787 1188.22 27.272ZM1202.91 33V23.416H1199.18V21.64H1208.68V23.416H1204.95V33H1202.91ZM1210.3 33V21.64H1212.36V28.2L1212.25 29.96H1212.28C1212.64 29.224 1212.96 28.632 1213.24 28.184L1217.53 21.64H1219.58V33H1217.53V26.456L1217.64 24.696H1217.61C1217.26 25.4213 1216.94 26.008 1216.67 26.456L1212.35 33H1210.3ZM1222.34 33V21.64H1224.41V26.264H1225.88L1228.55 21.64H1230.79L1227.58 27.048V27.08L1230.98 33H1228.65L1225.88 28.04H1224.41V33H1222.34ZM1231.3 33L1235.28 21.64H1237.46L1241.44 33H1239.33L1238.36 30.088H1234.37L1233.41 33H1231.3ZM1234.88 28.408H1237.84L1236.84 25.368L1236.39 23.608H1236.36C1236.19 24.3547 1236.04 24.9413 1235.91 25.368L1234.88 28.408ZM1246.95 33V21.64H1256.15V33H1254.09V23.416H1249.02V33H1246.95ZM1258.24 27.24C1258.24 25.608 1258.8 24.2373 1259.92 23.128C1261.05 22.008 1262.44 21.448 1264.11 21.448C1265.77 21.448 1267.16 22.008 1268.28 23.128C1269.41 24.2373 1269.98 25.608 1269.98 27.24C1269.98 28.9147 1269.41 30.328 1268.28 31.48C1267.16 32.6213 1265.77 33.192 1264.11 33.192C1262.44 33.192 1261.05 32.6213 1259.92 31.48C1258.8 30.328 1258.24 28.9147 1258.24 27.24ZM1260.36 27.24C1260.36 28.392 1260.73 29.3573 1261.45 30.136C1262.18 30.9147 1263.06 31.304 1264.11 31.304C1265.15 31.304 1266.04 30.9147 1266.76 30.136C1267.49 29.3573 1267.85 28.392 1267.85 27.24C1267.85 26.1413 1267.49 25.2187 1266.76 24.472C1266.04 23.7147 1265.15 23.336 1264.11 23.336C1263.06 23.336 1262.18 23.7147 1261.45 24.472C1260.73 25.2187 1260.36 26.1413 1260.36 27.24ZM1272.06 33V21.64H1276.11C1277.17 21.64 1278.02 21.9013 1278.66 22.424C1279.31 22.936 1279.63 23.6507 1279.63 24.568C1279.63 25.1013 1279.51 25.5813 1279.26 26.008C1279.02 26.4347 1278.68 26.7653 1278.26 27V27.032C1278.85 27.2027 1279.31 27.5387 1279.62 28.04C1279.94 28.5413 1280.1 29.096 1280.1 29.704C1280.1 30.7813 1279.72 31.6027 1278.98 32.168C1278.23 32.7227 1277.3 33 1276.18 33H1272.06ZM1274.13 26.28H1276.13C1276.56 26.28 1276.91 26.1467 1277.15 25.88C1277.41 25.6027 1277.54 25.2507 1277.54 24.824C1277.54 24.408 1277.41 24.072 1277.15 23.816C1276.91 23.5493 1276.55 23.416 1276.1 23.416H1274.13V26.28ZM1274.13 31.224H1276.34C1276.85 31.224 1277.25 31.0747 1277.54 30.776C1277.83 30.4667 1277.98 30.0667 1277.98 29.576C1277.98 29.096 1277.83 28.7067 1277.54 28.408C1277.25 28.0987 1276.85 27.944 1276.34 27.944H1274.13V31.224ZM1282.19 33V21.64H1288.99V23.416H1284.25V26.392H1288.08V28.168H1284.25V31.224H1289.24V33H1282.19ZM1291.3 33V21.64H1295.68C1296.75 21.64 1297.62 21.9813 1298.29 22.664C1298.96 23.3467 1299.3 24.2373 1299.3 25.336C1299.3 26.4347 1298.96 27.336 1298.29 28.04C1297.62 28.7333 1296.75 29.08 1295.68 29.08H1293.36V33H1291.3ZM1293.36 27.288H1295.3C1295.9 27.288 1296.36 27.112 1296.69 26.76C1297.03 26.408 1297.2 25.9333 1297.2 25.336C1297.2 24.7493 1297.03 24.2853 1296.69 23.944C1296.36 23.592 1295.91 23.416 1295.33 23.416H1293.36V27.288ZM1299.69 33L1303.21 27.24L1299.82 21.64H1302.17L1303.74 24.424L1304.44 25.8H1304.48C1304.69 25.3307 1304.92 24.872 1305.18 24.424L1306.76 21.64H1309.12L1305.71 27.24L1309.24 33H1306.94L1305.16 29.944L1304.46 28.6H1304.43C1304.22 29.0587 1303.99 29.5067 1303.74 29.944L1301.98 33H1299.69ZM1310.81 33V21.64H1312.88V26.456H1318.08V21.64H1320.13V33H1318.08V28.232H1312.88V33H1310.81ZM1322.2 27.24C1322.2 25.608 1322.76 24.2373 1323.88 23.128C1325.01 22.008 1326.41 21.448 1328.08 21.448C1329.74 21.448 1331.13 22.008 1332.25 23.128C1333.38 24.2373 1333.95 25.608 1333.95 27.24C1333.95 28.9147 1333.38 30.328 1332.25 31.48C1331.13 32.6213 1329.74 33.192 1328.08 33.192C1326.41 33.192 1325.01 32.6213 1323.88 31.48C1322.76 30.328 1322.2 28.9147 1322.2 27.24ZM1324.33 27.24C1324.33 28.392 1324.69 29.3573 1325.42 30.136C1326.15 30.9147 1327.03 31.304 1328.08 31.304C1329.12 31.304 1330.01 30.9147 1330.73 30.136C1331.46 29.3573 1331.82 28.392 1331.82 27.24C1331.82 26.1413 1331.46 25.2187 1330.73 24.472C1330.01 23.7147 1329.12 23.336 1328.08 23.336C1327.03 23.336 1326.15 23.7147 1325.42 24.472C1324.69 25.2187 1324.33 26.1413 1324.33 27.24ZM1335.38 27.272C1335.38 25.608 1335.93 24.2213 1337.02 23.112C1338.12 22.0027 1339.52 21.448 1341.22 21.448C1342.94 21.448 1344.34 21.9653 1345.41 23L1344.42 24.536C1344 24.184 1343.51 23.896 1342.94 23.672C1342.39 23.448 1341.85 23.336 1341.31 23.336C1340.12 23.336 1339.18 23.7093 1338.51 24.456C1337.84 25.2027 1337.5 26.1307 1337.5 27.24C1337.5 28.36 1337.85 29.32 1338.53 30.12C1339.21 30.9093 1340.14 31.304 1341.33 31.304C1342.54 31.304 1343.64 30.824 1344.62 29.864L1345.71 31.352C1344.51 32.5787 1343.02 33.192 1341.25 33.192C1339.49 33.192 1338.07 32.632 1336.99 31.512C1335.91 30.392 1335.38 28.9787 1335.38 27.272ZM1350.06 33V23.416H1346.33V21.64H1355.84V23.416H1352.11V33H1350.06ZM1357.45 33V21.64H1359.52V26.456H1364.72V21.64H1366.77V33H1364.72V28.232H1359.52V33H1357.45ZM1368.84 27.24C1368.84 25.608 1369.4 24.2373 1370.52 23.128C1371.66 22.008 1373.05 21.448 1374.72 21.448C1376.38 21.448 1377.77 22.008 1378.89 23.128C1380.02 24.2373 1380.59 25.608 1380.59 27.24C1380.59 28.9147 1380.02 30.328 1378.89 31.48C1377.77 32.6213 1376.38 33.192 1374.72 33.192C1373.05 33.192 1371.66 32.6213 1370.52 31.48C1369.4 30.328 1368.84 28.9147 1368.84 27.24ZM1370.97 27.24C1370.97 28.392 1371.34 29.3573 1372.06 30.136C1372.79 30.9147 1373.67 31.304 1374.72 31.304C1375.76 31.304 1376.65 30.9147 1377.37 30.136C1378.1 29.3573 1378.46 28.392 1378.46 27.24C1378.46 26.1413 1378.1 25.2187 1377.37 24.472C1376.65 23.7147 1375.76 23.336 1374.72 23.336C1373.67 23.336 1372.79 23.7147 1372.06 24.472C1371.34 25.2187 1370.97 26.1413 1370.97 27.24ZM1386.67 33V21.64H1391.06C1392.12 21.64 1392.99 21.9813 1393.66 22.664C1394.34 23.3467 1394.67 24.2373 1394.67 25.336C1394.67 26.4347 1394.34 27.336 1393.66 28.04C1392.99 28.7333 1392.12 29.08 1391.06 29.08H1388.74V33H1386.67ZM1388.74 27.288H1390.67C1391.27 27.288 1391.73 27.112 1392.06 26.76C1392.41 26.408 1392.58 25.9333 1392.58 25.336C1392.58 24.7493 1392.41 24.2853 1392.06 23.944C1391.73 23.592 1391.28 23.416 1390.7 23.416H1388.74V27.288ZM1394.64 33L1398.63 21.64H1400.8L1404.79 33H1402.68L1401.7 30.088H1397.72L1396.76 33H1394.64ZM1398.23 28.408H1401.19L1400.18 25.368L1399.73 23.608H1399.7C1399.53 24.3547 1399.38 24.9413 1399.25 25.368L1398.23 28.408ZM1405.38 27.272C1405.38 25.608 1405.93 24.2213 1407.02 23.112C1408.12 22.0027 1409.52 21.448 1411.22 21.448C1412.94 21.448 1414.34 21.9653 1415.41 23L1414.42 24.536C1414 24.184 1413.51 23.896 1412.94 23.672C1412.39 23.448 1411.85 23.336 1411.31 23.336C1410.12 23.336 1409.18 23.7093 1408.51 24.456C1407.84 25.2027 1407.5 26.1307 1407.5 27.24C1407.5 28.36 1407.85 29.32 1408.53 30.12C1409.21 30.9093 1410.14 31.304 1411.33 31.304C1412.54 31.304 1413.64 30.824 1414.62 29.864L1415.71 31.352C1414.51 32.5787 1413.02 33.192 1411.25 33.192C1409.49 33.192 1408.07 32.632 1406.99 31.512C1405.91 30.392 1405.38 28.9787 1405.38 27.272ZM1417.49 33V21.64H1426.69V33H1424.62V23.416H1419.55V33H1417.49ZM1428.77 27.24C1428.77 25.608 1429.33 24.2373 1430.45 23.128C1431.58 22.008 1432.97 21.448 1434.64 21.448C1436.3 21.448 1437.69 22.008 1438.81 23.128C1439.95 24.2373 1440.51 25.608 1440.51 27.24C1440.51 28.9147 1439.95 30.328 1438.81 31.48C1437.69 32.6213 1436.3 33.192 1434.64 33.192C1432.97 33.192 1431.58 32.6213 1430.45 31.48C1429.33 30.328 1428.77 28.9147 1428.77 27.24ZM1430.89 27.24C1430.89 28.392 1431.26 29.3573 1431.98 30.136C1432.71 30.9147 1433.59 31.304 1434.64 31.304C1435.68 31.304 1436.57 30.9147 1437.29 30.136C1438.02 29.3573 1438.38 28.392 1438.38 27.24C1438.38 26.1413 1438.02 25.2187 1437.29 24.472C1436.57 23.7147 1435.68 23.336 1434.64 23.336C1433.59 23.336 1432.71 23.7147 1431.98 24.472C1431.26 25.2187 1430.89 26.1413 1430.89 27.24ZM1441.13 31.24C1441.98 31.1227 1442.6 30.5573 1442.99 29.544C1443.38 28.52 1443.58 26.92 1443.58 24.744V21.64H1450.6V33H1448.54V23.416H1445.55V24.776C1445.55 27.5707 1445.2 29.6507 1444.51 31.016C1443.81 32.3707 1442.69 33.0747 1441.13 33.128V31.24ZM1452.69 27.24C1452.69 25.608 1453.25 24.2373 1454.37 23.128C1455.5 22.008 1456.9 21.448 1458.56 21.448C1460.22 21.448 1461.62 22.008 1462.74 23.128C1463.87 24.2373 1464.43 25.608 1464.43 27.24C1464.43 28.9147 1463.87 30.328 1462.74 31.48C1461.62 32.6213 1460.22 33.192 1458.56 33.192C1456.9 33.192 1455.5 32.6213 1454.37 31.48C1453.25 30.328 1452.69 28.9147 1452.69 27.24ZM1454.82 27.24C1454.82 28.392 1455.18 29.3573 1455.9 30.136C1456.63 30.9147 1457.52 31.304 1458.56 31.304C1459.61 31.304 1460.49 30.9147 1461.22 30.136C1461.94 29.3573 1462.3 28.392 1462.3 27.24C1462.3 26.1413 1461.94 25.2187 1461.22 24.472C1460.49 23.7147 1459.61 23.336 1458.56 23.336C1457.52 23.336 1456.63 23.7147 1455.9 24.472C1455.18 25.2187 1454.82 26.1413 1454.82 27.24ZM1465.05 33L1468.25 27.08V27.048L1465.29 21.64H1467.52L1469.95 26.264H1471.28V21.64H1473.32V26.264H1474.65L1477.08 21.64H1479.31L1476.33 27.048V27.08L1479.55 33H1477.23L1474.65 28.04H1473.32V33H1471.28V28.04H1469.95L1467.37 33H1465.05ZM1481.13 33V21.64H1487.93V23.416H1483.19V26.392H1487.01V28.168H1483.19V31.224H1488.18V33H1481.13ZM1490.24 33V21.64H1492.3V26.456H1497.5V21.64H1499.55V33H1497.5V28.232H1492.3V33H1490.24ZM1502.3 33V21.64H1504.36V26.456H1509.56V21.64H1511.61V33H1509.56V28.232H1504.36V33H1502.3ZM1523.56 33V21.64H1525.61V33H1523.56ZM1514.36 33V21.64H1516.42V25.624H1518.54C1519.59 25.624 1520.45 25.9653 1521.1 26.648C1521.76 27.32 1522.09 28.216 1522.09 29.336C1522.09 30.424 1521.76 31.3093 1521.11 31.992C1520.46 32.664 1519.62 33 1518.58 33H1514.36ZM1516.42 31.224H1518.22C1518.78 31.224 1519.22 31.0587 1519.53 30.728C1519.84 30.3867 1519.99 29.9227 1519.99 29.336C1519.99 28.7493 1519.83 28.28 1519.51 27.928C1519.19 27.576 1518.75 27.4 1518.18 27.4H1516.42V31.224ZM1527.21 33L1530.73 27.24L1527.34 21.64H1529.69L1531.26 24.424L1531.96 25.8H1531.99C1532.21 25.3307 1532.44 24.872 1532.7 24.424L1534.28 21.64H1536.63L1533.22 27.24L1536.76 33H1534.46L1532.68 29.944L1531.98 28.6H1531.94C1531.73 29.0587 1531.5 29.5067 1531.26 29.944L1529.5 33H1527.21ZM1541.67 27.272C1541.67 25.608 1542.22 24.2213 1543.32 23.112C1544.42 22.0027 1545.82 21.448 1547.51 21.448C1549.24 21.448 1550.64 21.9653 1551.71 23L1550.71 24.536C1550.3 24.184 1549.81 23.896 1549.24 23.672C1548.69 23.448 1548.14 23.336 1547.61 23.336C1546.41 23.336 1545.48 23.7093 1544.81 24.456C1544.14 25.2027 1543.8 26.1307 1543.8 27.24C1543.8 28.36 1544.14 29.32 1544.83 30.12C1545.51 30.9093 1546.44 31.304 1547.63 31.304C1548.84 31.304 1549.94 30.824 1550.92 29.864L1552.01 31.352C1550.8 32.5787 1549.32 33.192 1547.55 33.192C1545.79 33.192 1544.37 32.632 1543.29 31.512C1542.21 30.392 1541.67 28.9787 1541.67 27.272ZM1556.36 33V23.416H1552.63V21.64H1562.13V23.416H1558.41V33H1556.36ZM1563.75 33V21.64H1568.14C1569.2 21.64 1570.07 21.9813 1570.74 22.664C1571.42 23.3467 1571.75 24.2373 1571.75 25.336C1571.75 26.4347 1571.42 27.336 1570.74 28.04C1570.07 28.7333 1569.2 29.08 1568.14 29.08H1565.82V33H1563.75ZM1565.82 27.288H1567.75C1568.35 27.288 1568.81 27.112 1569.14 26.76C1569.48 26.408 1569.66 25.9333 1569.66 25.336C1569.66 24.7493 1569.48 24.2853 1569.14 23.944C1568.81 23.592 1568.36 23.416 1567.78 23.416H1565.82V27.288ZM1573.24 32.408L1574.16 30.856C1574.64 31.2293 1575.06 31.416 1575.44 31.416C1575.94 31.416 1576.32 31.0853 1576.57 30.424L1572.12 21.64H1574.4L1576.81 26.712L1577.45 28.216H1577.48C1577.62 27.7147 1577.78 27.2187 1577.95 26.728L1579.77 21.64H1581.93L1578.43 30.616C1578.29 30.968 1578.15 31.2773 1578 31.544C1577.85 31.8107 1577.65 32.0773 1577.42 32.344C1577.19 32.6107 1576.91 32.8187 1576.59 32.968C1576.27 33.1173 1575.91 33.192 1575.52 33.192C1574.75 33.192 1573.99 32.9307 1573.24 32.408ZM1583.34 33V21.64H1585.41V26.264H1586.88L1589.55 21.64H1591.79L1588.58 27.048V27.08L1591.98 33H1589.65L1586.88 28.04H1585.41V33H1583.34ZM1596.12 33V23.416H1592.4V21.64H1601.9V23.416H1598.17V33H1596.12ZM1603.21 32.408L1604.12 30.856C1604.6 31.2293 1605.03 31.416 1605.4 31.416C1605.91 31.416 1606.28 31.0853 1606.54 30.424L1602.09 21.64H1604.36L1606.78 26.712L1607.42 28.216H1607.45C1607.59 27.7147 1607.75 27.2187 1607.92 26.728L1609.74 21.64H1611.9L1608.4 30.616C1608.26 30.968 1608.11 31.2773 1607.96 31.544C1607.82 31.8107 1607.62 32.0773 1607.39 32.344C1607.15 32.6107 1606.88 32.8187 1606.56 32.968C1606.24 33.1173 1605.88 33.192 1605.48 33.192C1604.72 33.192 1603.96 32.9307 1603.21 32.408ZM1613.31 33V21.64H1617.7C1618.76 21.64 1619.63 21.9813 1620.31 22.664C1620.98 23.3467 1621.31 24.2373 1621.31 25.336C1621.31 26.4347 1620.98 27.336 1620.31 28.04C1619.63 28.7333 1618.76 29.08 1617.7 29.08H1615.38V33H1613.31ZM1615.38 27.288H1617.31C1617.91 27.288 1618.37 27.112 1618.71 26.76C1619.05 26.408 1619.22 25.9333 1619.22 25.336C1619.22 24.7493 1619.05 24.2853 1618.71 23.944C1618.37 23.592 1617.92 23.416 1617.35 23.416H1615.38V27.288Z" fill="#252525"/>
<rect x="1656" width="580" height="55" rx="27.5" fill="#F3F6FF"/>
<path d="M1681.47 32.408L1682.38 30.856C1682.86 31.2293 1683.29 31.416 1683.66 31.416C1684.16 31.416 1684.54 31.0853 1684.8 30.424L1680.35 21.64H1682.62L1685.04 26.712L1685.68 28.216H1685.71C1685.85 27.7147 1686 27.2187 1686.17 26.728L1688 21.64H1690.16L1686.65 30.616C1686.52 30.968 1686.37 31.2773 1686.22 31.544C1686.07 31.8107 1685.88 32.0773 1685.65 32.344C1685.41 32.6107 1685.13 32.8187 1684.81 32.968C1684.49 33.1173 1684.14 33.192 1683.74 33.192C1682.97 33.192 1682.22 32.9307 1681.47 32.408ZM1689.73 31.24C1690.59 31.1227 1691.2 30.5573 1691.59 29.544C1691.98 28.52 1692.18 26.92 1692.18 24.744V21.64H1699.2V33H1697.14V23.416H1694.15V24.776C1694.15 27.5707 1693.8 29.6507 1693.11 31.016C1692.41 32.3707 1691.29 33.0747 1689.73 33.128V31.24ZM1701.96 33V21.64H1704.03V25.624H1706.25C1707.3 25.624 1708.15 25.9653 1708.81 26.648C1709.47 27.32 1709.8 28.216 1709.8 29.336C1709.8 30.424 1709.48 31.3093 1708.83 31.992C1708.18 32.664 1707.33 33 1706.28 33H1701.96ZM1704.03 31.224H1705.91C1706.48 31.224 1706.92 31.0587 1707.23 30.728C1707.55 30.3867 1707.71 29.9227 1707.71 29.336C1707.71 28.7493 1707.54 28.28 1707.21 27.928C1706.89 27.576 1706.45 27.4 1705.88 27.4H1704.03V31.224ZM1713.12 33V23.416H1709.39V21.64H1718.89V23.416H1715.16V33H1713.12ZM1720.51 33V21.64H1724.89C1725.96 21.64 1726.83 21.9813 1727.5 22.664C1728.17 23.3467 1728.51 24.2373 1728.51 25.336C1728.51 26.4347 1728.17 27.336 1727.5 28.04C1726.83 28.7333 1725.96 29.08 1724.89 29.08H1722.57V33H1720.51ZM1722.57 27.288H1724.51C1725.11 27.288 1725.57 27.112 1725.9 26.76C1726.24 26.408 1726.41 25.9333 1726.41 25.336C1726.41 24.7493 1726.24 24.2853 1725.9 23.944C1725.57 23.592 1725.12 23.416 1724.54 23.416H1722.57V27.288ZM1728.48 33L1732.46 21.64H1734.64L1738.62 33H1736.51L1735.54 30.088H1731.55L1730.59 33H1728.48ZM1732.06 28.408H1735.02L1734.02 25.368L1733.57 23.608H1733.54C1733.36 24.3547 1733.22 24.9413 1733.09 25.368L1732.06 28.408ZM1739.11 31.576L1740.23 30.2C1740.54 30.5307 1740.92 30.808 1741.38 31.032C1741.84 31.256 1742.31 31.368 1742.79 31.368C1743.41 31.368 1743.9 31.2133 1744.26 30.904C1744.62 30.5947 1744.81 30.168 1744.81 29.624C1744.81 29.1333 1744.64 28.7493 1744.31 28.472C1743.99 28.184 1743.55 28.04 1743 28.04H1741.61V26.376H1742.73C1743.24 26.376 1743.66 26.2267 1743.99 25.928C1744.32 25.6293 1744.49 25.256 1744.49 24.808C1744.49 24.3493 1744.34 23.976 1744.04 23.688C1743.74 23.3893 1743.31 23.24 1742.74 23.24C1741.88 23.24 1741.06 23.56 1740.28 24.2L1739.45 22.696C1740.45 21.864 1741.66 21.448 1743.09 21.448C1744.06 21.448 1744.89 21.7253 1745.56 22.28C1746.24 22.8347 1746.58 23.592 1746.58 24.552C1746.58 25.672 1746.06 26.5147 1745.01 27.08V27.112C1745.6 27.2933 1746.06 27.6133 1746.41 28.072C1746.75 28.5307 1746.92 29.0907 1746.92 29.752C1746.92 30.7973 1746.54 31.6347 1745.78 32.264C1745.04 32.8827 1744.1 33.192 1742.98 33.192C1742.26 33.192 1741.55 33.0533 1740.85 32.776C1740.17 32.488 1739.59 32.088 1739.11 31.576ZM1749.01 33V21.64H1753.06C1754.11 21.64 1754.96 21.9013 1755.6 22.424C1756.25 22.936 1756.58 23.6507 1756.58 24.568C1756.58 25.1013 1756.45 25.5813 1756.21 26.008C1755.96 26.4347 1755.63 26.7653 1755.2 27V27.032C1755.8 27.2027 1756.25 27.5387 1756.56 28.04C1756.88 28.5413 1757.04 29.096 1757.04 29.704C1757.04 30.7813 1756.67 31.6027 1755.92 32.168C1755.17 32.7227 1754.24 33 1753.12 33H1749.01ZM1751.07 26.28H1753.07C1753.51 26.28 1753.85 26.1467 1754.1 25.88C1754.35 25.6027 1754.48 25.2507 1754.48 24.824C1754.48 24.408 1754.35 24.072 1754.1 23.816C1753.85 23.5493 1753.5 23.416 1753.04 23.416H1751.07V26.28ZM1751.07 31.224H1753.28C1753.79 31.224 1754.19 31.0747 1754.48 30.776C1754.78 30.4667 1754.93 30.0667 1754.93 29.576C1754.93 29.096 1754.78 28.7067 1754.48 28.408C1754.19 28.0987 1753.79 27.944 1753.28 27.944H1751.07V31.224ZM1758.69 32.408L1759.6 30.856C1760.08 31.2293 1760.51 31.416 1760.88 31.416C1761.38 31.416 1761.76 31.0853 1762.02 30.424L1757.57 21.64H1759.84L1762.26 26.712L1762.9 28.216H1762.93C1763.07 27.7147 1763.22 27.2187 1763.39 26.728L1765.22 21.64H1767.38L1763.87 30.616C1763.73 30.968 1763.59 31.2773 1763.44 31.544C1763.29 31.8107 1763.1 32.0773 1762.87 32.344C1762.63 32.6107 1762.35 32.8187 1762.03 32.968C1761.71 33.1173 1761.36 33.192 1760.96 33.192C1760.19 33.192 1759.44 32.9307 1758.69 32.408ZM1768.79 33V21.64H1770.85V26.264H1772.33L1775 21.64H1777.24L1774.02 27.048V27.08L1777.43 33H1775.09L1772.33 28.04H1770.85V33H1768.79ZM1778.02 27.24C1778.02 25.608 1778.58 24.2373 1779.7 23.128C1780.83 22.008 1782.23 21.448 1783.9 21.448C1785.56 21.448 1786.95 22.008 1788.07 23.128C1789.2 24.2373 1789.77 25.608 1789.77 27.24C1789.77 28.9147 1789.2 30.328 1788.07 31.48C1786.95 32.6213 1785.56 33.192 1783.9 33.192C1782.23 33.192 1780.83 32.6213 1779.7 31.48C1778.58 30.328 1778.02 28.9147 1778.02 27.24ZM1780.15 27.24C1780.15 28.392 1780.51 29.3573 1781.24 30.136C1781.97 30.9147 1782.85 31.304 1783.9 31.304C1784.94 31.304 1785.83 30.9147 1786.55 30.136C1787.28 29.3573 1787.64 28.392 1787.64 27.24C1787.64 26.1413 1787.28 25.2187 1786.55 24.472C1785.83 23.7147 1784.94 23.336 1783.9 23.336C1782.85 23.336 1781.97 23.7147 1781.24 24.472C1780.51 25.2187 1780.15 26.1413 1780.15 27.24ZM1791.85 33V21.64H1795.9C1796.96 21.64 1797.8 21.9013 1798.44 22.424C1799.1 22.936 1799.42 23.6507 1799.42 24.568C1799.42 25.1013 1799.3 25.5813 1799.05 26.008C1798.81 26.4347 1798.47 26.7653 1798.04 27V27.032C1798.64 27.2027 1799.1 27.5387 1799.4 28.04C1799.72 28.5413 1799.88 29.096 1799.88 29.704C1799.88 30.7813 1799.51 31.6027 1798.76 32.168C1798.02 32.7227 1797.08 33 1795.96 33H1791.85ZM1793.92 26.28H1795.92C1796.35 26.28 1796.7 26.1467 1796.94 25.88C1797.2 25.6027 1797.32 25.2507 1797.32 24.824C1797.32 24.408 1797.2 24.072 1796.94 23.816C1796.7 23.5493 1796.34 23.416 1795.88 23.416H1793.92V26.28ZM1793.92 31.224H1796.12C1796.64 31.224 1797.04 31.0747 1797.32 30.776C1797.62 30.4667 1797.77 30.0667 1797.77 29.576C1797.77 29.096 1797.62 28.7067 1797.32 28.408C1797.04 28.0987 1796.64 27.944 1796.12 27.944H1793.92V31.224ZM1800.6 33L1804.59 21.64H1806.76L1810.75 33H1808.64L1807.66 30.088H1803.68L1802.72 33H1800.6ZM1804.19 28.408H1807.15L1806.14 25.368L1805.69 23.608H1805.66C1805.49 24.3547 1805.34 24.9413 1805.21 25.368L1804.19 28.408ZM1811.15 33L1813.55 29L1813.92 28.408V28.376C1813.25 28.0773 1812.74 27.64 1812.4 27.064C1812.07 26.488 1811.91 25.8267 1811.91 25.08C1811.91 24.312 1812.08 23.6613 1812.42 23.128C1812.77 22.584 1813.23 22.1893 1813.81 21.944C1814.28 21.7413 1815 21.64 1815.97 21.64H1819.65V33H1817.59V28.76H1815.92L1813.46 33H1811.15ZM1815.79 27.032H1817.59V23.416H1816.13C1815.49 23.416 1815.02 23.512 1814.71 23.704C1814.24 23.992 1814 24.4773 1814 25.16C1814 25.7573 1814.16 26.2213 1814.48 26.552C1814.8 26.872 1815.24 27.032 1815.79 27.032ZM1828.42 31.224H1832.93V23.416H1829.89V24.264C1829.89 27.3147 1829.4 29.6347 1828.42 31.224ZM1825.14 31.224H1826.29C1827.39 29.56 1827.94 27.192 1827.94 24.12V21.64H1834.99V31.224H1836.26V35.24H1834.42V33H1827.04V35.24H1825.14V31.224ZM1838.24 33V21.64H1840.31V28.2L1840.2 29.96H1840.23C1840.59 29.224 1840.91 28.632 1841.19 28.184L1845.48 21.64H1847.52V33H1845.48V26.456L1845.59 24.696H1845.56C1845.2 25.4213 1844.89 26.008 1844.61 26.456L1840.29 33H1838.24ZM1849.04 33L1853.03 21.64H1855.2L1859.19 33H1857.07L1856.1 30.088H1852.11L1851.15 33H1849.04ZM1852.63 28.408H1855.59L1854.58 25.368L1854.13 23.608H1854.1C1853.93 24.3547 1853.78 24.9413 1853.65 25.368L1852.63 28.408ZM1860.7 33V21.64H1867.22V23.416H1862.76V33H1860.7ZM1868.79 33V21.64H1870.85V26.456H1876.05V21.64H1878.1V33H1876.05V28.232H1870.85V33H1868.79ZM1880.18 27.24C1880.18 25.608 1880.74 24.2373 1881.86 23.128C1882.99 22.008 1884.39 21.448 1886.05 21.448C1887.72 21.448 1889.11 22.008 1890.23 23.128C1891.36 24.2373 1891.92 25.608 1891.92 27.24C1891.92 28.9147 1891.36 30.328 1890.23 31.48C1889.11 32.6213 1887.72 33.192 1886.05 33.192C1884.39 33.192 1882.99 32.6213 1881.86 31.48C1880.74 30.328 1880.18 28.9147 1880.18 27.24ZM1882.31 27.24C1882.31 28.392 1882.67 29.3573 1883.4 30.136C1884.12 30.9147 1885.01 31.304 1886.05 31.304C1887.1 31.304 1887.98 30.9147 1888.71 30.136C1889.43 29.3573 1889.8 28.392 1889.8 27.24C1889.8 26.1413 1889.43 25.2187 1888.71 24.472C1887.98 23.7147 1887.1 23.336 1886.05 23.336C1885.01 23.336 1884.12 23.7147 1883.4 24.472C1882.67 25.2187 1882.31 26.1413 1882.31 27.24ZM1893.35 27.272C1893.35 25.608 1893.9 24.2213 1895 23.112C1896.1 22.0027 1897.5 21.448 1899.19 21.448C1900.92 21.448 1902.32 21.9653 1903.38 23L1902.39 24.536C1901.98 24.184 1901.49 23.896 1900.92 23.672C1900.37 23.448 1899.82 23.336 1899.29 23.336C1898.09 23.336 1897.16 23.7093 1896.49 24.456C1895.82 25.2027 1895.48 26.1307 1895.48 27.24C1895.48 28.36 1895.82 29.32 1896.5 30.12C1897.19 30.9093 1898.12 31.304 1899.3 31.304C1900.52 31.304 1901.62 30.824 1902.6 29.864L1903.69 31.352C1902.48 32.5787 1901 33.192 1899.22 33.192C1897.46 33.192 1896.05 32.632 1894.97 31.512C1893.89 30.392 1893.35 28.9787 1893.35 27.272ZM1908.04 33V23.416H1904.31V21.64H1913.81V23.416H1910.09V33H1908.04ZM1915.43 33V21.64H1917.49V28.2L1917.38 29.96H1917.41C1917.78 29.224 1918.1 28.632 1918.37 28.184L1922.66 21.64H1924.71V33H1922.66V26.456L1922.77 24.696H1922.74C1922.39 25.4213 1922.08 26.008 1921.8 26.456L1917.48 33H1915.43ZM1927.48 33V21.64H1929.54V26.264H1931.01L1933.69 21.64H1935.93L1932.71 27.048V27.08L1936.12 33H1933.78L1931.01 28.04H1929.54V33H1927.48ZM1936.43 33L1940.42 21.64H1942.59L1946.58 33H1944.46L1943.49 30.088H1939.5L1938.54 33H1936.43ZM1940.02 28.408H1942.98L1941.97 25.368L1941.52 23.608H1941.49C1941.32 24.3547 1941.17 24.9413 1941.04 25.368L1940.02 28.408ZM1952.09 33V21.64H1956.13C1957.19 21.64 1958.04 21.9013 1958.68 22.424C1959.33 22.936 1959.65 23.6507 1959.65 24.568C1959.65 25.1013 1959.53 25.5813 1959.29 26.008C1959.04 26.4347 1958.71 26.7653 1958.28 27V27.032C1958.88 27.2027 1959.33 27.5387 1959.64 28.04C1959.96 28.5413 1960.12 29.096 1960.12 29.704C1960.12 30.7813 1959.75 31.6027 1959 32.168C1958.25 32.7227 1957.32 33 1956.2 33H1952.09ZM1954.15 26.28H1956.15C1956.59 26.28 1956.93 26.1467 1957.17 25.88C1957.43 25.6027 1957.56 25.2507 1957.56 24.824C1957.56 24.408 1957.43 24.072 1957.17 23.816C1956.93 23.5493 1956.58 23.416 1956.12 23.416H1954.15V26.28ZM1954.15 31.224H1956.36C1956.87 31.224 1957.27 31.0747 1957.56 30.776C1957.86 30.4667 1958.01 30.0667 1958.01 29.576C1958.01 29.096 1957.86 28.7067 1957.56 28.408C1957.27 28.0987 1956.87 27.944 1956.36 27.944H1954.15V31.224ZM1964.96 33L1968.95 21.64H1971.12L1975.11 33H1973L1972.02 30.088H1968.04L1967.08 33H1964.96ZM1968.55 28.408H1971.51L1970.5 25.368L1970.05 23.608H1970.02C1969.85 24.3547 1969.7 24.9413 1969.57 25.368L1968.55 28.408ZM1976.62 33V21.64H1978.68V26.264H1980.15L1982.83 21.64H1985.07L1981.85 27.048V27.08L1985.26 33H1982.92L1980.15 28.04H1978.68V33H1976.62ZM1986.52 32.408L1987.43 30.856C1987.91 31.2293 1988.34 31.416 1988.71 31.416C1989.21 31.416 1989.59 31.0853 1989.85 30.424L1985.4 21.64H1987.67L1990.09 26.712L1990.73 28.216H1990.76C1990.9 27.7147 1991.05 27.2187 1991.22 26.728L1993.05 21.64H1995.21L1991.7 30.616C1991.56 30.968 1991.42 31.2773 1991.27 31.544C1991.12 31.8107 1990.93 32.0773 1990.69 32.344C1990.46 32.6107 1990.18 32.8187 1989.86 32.968C1989.54 33.1173 1989.18 33.192 1988.79 33.192C1988.02 33.192 1987.26 32.9307 1986.52 32.408ZM1996.62 33V21.64H1998.68V31.224H2002.35V21.64H2004.41V31.224H2008.07V21.64H2010.12V33H1996.62ZM2012.88 33V21.64H2019.68V23.416H2014.95V26.392H2018.77V28.168H2014.95V31.224H2019.94V33H2012.88ZM2021.99 33V21.64H2026.38C2027.44 21.64 2028.31 21.9813 2028.99 22.664C2029.66 23.3467 2029.99 24.2373 2029.99 25.336C2029.99 26.4347 2029.66 27.336 2028.99 28.04C2028.31 28.7333 2027.44 29.08 2026.38 29.08H2024.06V33H2021.99ZM2024.06 27.288H2025.99C2026.59 27.288 2027.05 27.112 2027.39 26.76C2027.73 26.408 2027.9 25.9333 2027.9 25.336C2027.9 24.7493 2027.73 24.2853 2027.39 23.944C2027.05 23.592 2026.6 23.416 2026.03 23.416H2024.06V27.288ZM2031.13 27.272C2031.13 25.608 2031.68 24.2213 2032.78 23.112C2033.88 22.0027 2035.28 21.448 2036.97 21.448C2038.7 21.448 2040.1 21.9653 2041.17 23L2040.17 24.536C2039.76 24.184 2039.27 23.896 2038.7 23.672C2038.15 23.448 2037.6 23.336 2037.07 23.336C2035.88 23.336 2034.94 23.7093 2034.27 24.456C2033.6 25.2027 2033.26 26.1307 2033.26 27.24C2033.26 28.36 2033.6 29.32 2034.29 30.12C2034.97 30.9093 2035.9 31.304 2037.09 31.304C2038.3 31.304 2039.4 30.824 2040.38 29.864L2041.47 31.352C2040.26 32.5787 2038.78 33.192 2037.01 33.192C2035.25 33.192 2033.83 32.632 2032.75 31.512C2031.67 30.392 2031.13 28.9787 2031.13 27.272ZM2045.82 33V23.416H2042.09V21.64H2051.6V23.416H2047.87V33H2045.82ZM2053.21 33V21.64H2057.26C2058.32 21.64 2059.16 21.9013 2059.8 22.424C2060.45 22.936 2060.78 23.6507 2060.78 24.568C2060.78 25.1013 2060.66 25.5813 2060.41 26.008C2060.17 26.4347 2059.83 26.7653 2059.4 27V27.032C2060 27.2027 2060.45 27.5387 2060.76 28.04C2061.08 28.5413 2061.24 29.096 2061.24 29.704C2061.24 30.7813 2060.87 31.6027 2060.12 32.168C2059.38 32.7227 2058.44 33 2057.32 33H2053.21ZM2055.28 26.28H2057.28C2057.71 26.28 2058.05 26.1467 2058.3 25.88C2058.56 25.6027 2058.68 25.2507 2058.68 24.824C2058.68 24.408 2058.56 24.072 2058.3 23.816C2058.05 23.5493 2057.7 23.416 2057.24 23.416H2055.28V26.28ZM2055.28 31.224H2057.48C2058 31.224 2058.4 31.0747 2058.68 30.776C2058.98 30.4667 2059.13 30.0667 2059.13 29.576C2059.13 29.096 2058.98 28.7067 2058.68 28.408C2058.4 28.0987 2058 27.944 2057.48 27.944H2055.28V31.224ZM2063.34 33V21.64H2070.14V23.416H2065.4V26.392H2069.22V28.168H2065.4V31.224H2070.39V33H2063.34ZM2076.45 33V21.64H2078.51V28.2L2078.4 29.96H2078.43C2078.79 29.224 2079.11 28.632 2079.39 28.184L2083.68 21.64H2085.73V33H2083.68V26.456L2083.79 24.696H2083.76C2083.41 25.4213 2083.09 26.008 2082.81 26.456L2078.49 33H2076.45ZM2092.49 33V21.64H2099.02V23.416H2094.56V33H2092.49ZM2100.59 33V21.64H2102.65V28.2L2102.54 29.96H2102.57C2102.93 29.224 2103.25 28.632 2103.53 28.184L2107.82 21.64H2109.87V33H2107.82V26.456L2107.93 24.696H2107.9C2107.55 25.4213 2107.23 26.008 2106.95 26.456L2102.63 33H2100.59ZM2112.63 33V21.64H2114.7V26.456H2119.9V21.64H2121.95V33H2119.9V28.232H2114.7V33H2112.63ZM2124.7 33V21.64H2131.5V23.416H2126.76V26.392H2130.58V28.168H2126.76V31.224H2131.75V33H2124.7ZM2133.81 33V21.64H2135.87V26.264H2137.34L2140.01 21.64H2142.25L2139.04 27.048V27.08L2142.45 33H2140.11L2137.34 28.04H2135.87V33H2133.81ZM2143.04 27.24C2143.04 25.608 2143.6 24.2373 2144.72 23.128C2145.85 22.008 2147.25 21.448 2148.91 21.448C2150.58 21.448 2151.97 22.008 2153.09 23.128C2154.22 24.2373 2154.78 25.608 2154.78 27.24C2154.78 28.9147 2154.22 30.328 2153.09 31.48C2151.97 32.6213 2150.58 33.192 2148.91 33.192C2147.25 33.192 2145.85 32.6213 2144.72 31.48C2143.6 30.328 2143.04 28.9147 2143.04 27.24ZM2145.17 27.24C2145.17 28.392 2145.53 29.3573 2146.26 30.136C2146.98 30.9147 2147.87 31.304 2148.91 31.304C2149.96 31.304 2150.84 30.9147 2151.57 30.136C2152.29 29.3573 2152.66 28.392 2152.66 27.24C2152.66 26.1413 2152.29 25.2187 2151.57 24.472C2150.84 23.7147 2149.96 23.336 2148.91 23.336C2147.87 23.336 2146.98 23.7147 2146.26 24.472C2145.53 25.2187 2145.17 26.1413 2145.17 27.24ZM2155.4 31.24C2156.26 31.1227 2156.88 30.5573 2157.26 29.544C2157.65 28.52 2157.85 26.92 2157.85 24.744V21.64H2164.88V33H2162.81V23.416H2159.82V24.776C2159.82 27.5707 2159.47 29.6507 2158.78 31.016C2158.09 32.3707 2156.96 33.0747 2155.4 33.128V31.24ZM2166.96 27.24C2166.96 25.608 2167.52 24.2373 2168.64 23.128C2169.77 22.008 2171.17 21.448 2172.83 21.448C2174.5 21.448 2175.89 22.008 2177.01 23.128C2178.14 24.2373 2178.71 25.608 2178.71 27.24C2178.71 28.9147 2178.14 30.328 2177.01 31.48C2175.89 32.6213 2174.5 33.192 2172.83 33.192C2171.17 33.192 2169.77 32.6213 2168.64 31.48C2167.52 30.328 2166.96 28.9147 2166.96 27.24ZM2169.09 27.24C2169.09 28.392 2169.45 29.3573 2170.18 30.136C2170.9 30.9147 2171.79 31.304 2172.83 31.304C2173.88 31.304 2174.76 30.9147 2175.49 30.136C2176.22 29.3573 2176.58 28.392 2176.58 27.24C2176.58 26.1413 2176.22 25.2187 2175.49 24.472C2174.76 23.7147 2173.88 23.336 2172.83 23.336C2171.79 23.336 2170.9 23.7147 2170.18 24.472C2169.45 25.2187 2169.09 26.1413 2169.09 27.24ZM2180.79 33V21.64H2187.32V23.416H2182.85V33H2180.79ZM2188.88 33V21.64H2190.95V28.2L2190.84 29.96H2190.87C2191.23 29.224 2191.55 28.632 2191.83 28.184L2196.12 21.64H2198.16V33H2196.12V26.456L2196.23 24.696H2196.2C2195.84 25.4213 2195.53 26.008 2195.25 26.456L2190.93 33H2188.88ZM2200.93 33V21.64H2202.99V28.2L2202.88 29.96H2202.91C2203.28 29.224 2203.6 28.632 2203.87 28.184L2208.16 21.64H2210.21V33H2208.16V26.456L2208.27 24.696H2208.24C2207.89 25.4213 2207.58 26.008 2207.3 26.456L2202.98 33H2200.93Z" fill="#005DFF"/>
<rect x="2246" width="176" height="55" rx="27.5" fill="#F3F6FF"/>
<path d="M2270.34 33L2274.32 21.64H2276.5L2280.48 33H2278.37L2277.39 30.088H2273.41L2272.45 33H2270.34ZM2273.92 28.408H2276.88L2275.87 25.368L2275.43 23.608H2275.39C2275.22 24.3547 2275.07 24.9413 2274.95 25.368L2273.92 28.408ZM2281.99 33V21.64H2284.06V26.264H2285.53L2288.2 21.64H2290.44L2287.23 27.048V27.08L2290.63 33H2288.3L2285.53 28.04H2284.06V33H2281.99ZM2292.2 33V21.64H2294.26V26.264H2295.73L2298.4 21.64H2300.64L2297.43 27.048V27.08L2300.84 33H2298.5L2295.73 28.04H2294.26V33H2292.2ZM2302.4 33V21.64H2306.78C2307.85 21.64 2308.72 21.9813 2309.39 22.664C2310.06 23.3467 2310.4 24.2373 2310.4 25.336C2310.4 26.4347 2310.06 27.336 2309.39 28.04C2308.72 28.7333 2307.85 29.08 2306.78 29.08H2304.46V33H2302.4ZM2304.46 27.288H2306.4C2307 27.288 2307.46 27.112 2307.79 26.76C2308.13 26.408 2308.3 25.9333 2308.3 25.336C2308.3 24.7493 2308.13 24.2853 2307.79 23.944C2307.46 23.592 2307.01 23.416 2306.43 23.416H2304.46V27.288ZM2312.2 33V21.64H2319V23.416H2314.26V26.392H2318.08V28.168H2314.26V31.224H2319.25V33H2312.2ZM2323.32 31.224H2327.83V23.416H2324.79V24.264C2324.79 27.3147 2324.3 29.6347 2323.32 31.224ZM2320.04 31.224H2321.19C2322.29 29.56 2322.84 27.192 2322.84 24.12V21.64H2329.9V31.224H2331.16V35.24H2329.32V33H2321.95V35.24H2320.04V31.224ZM2333.15 33V21.64H2335.21V28.2L2335.1 29.96H2335.13C2335.5 29.224 2335.82 28.632 2336.09 28.184L2340.38 21.64H2342.43V33H2340.38V26.456L2340.49 24.696H2340.46C2340.11 25.4213 2339.79 26.008 2339.52 26.456L2335.2 33H2333.15ZM2347.77 33V23.416H2344.04V21.64H2353.55V23.416H2349.82V33H2347.77ZM2352.98 33L2356.96 21.64H2359.14L2363.12 33H2361.01L2360.04 30.088H2356.05L2355.09 33H2352.98ZM2356.56 28.408H2359.52L2358.52 25.368L2358.07 23.608H2358.04C2357.86 24.3547 2357.72 24.9413 2357.59 25.368L2356.56 28.408ZM2364.63 33V21.64H2366.7V31.224H2371.61V21.64H2373.67V31.224H2375.02V35.24H2373.18V33H2364.63ZM2376.98 33V21.64H2379.04V28.2L2378.93 29.96H2378.96C2379.32 29.224 2379.64 28.632 2379.92 28.184L2384.21 21.64H2386.26V33H2384.21V26.456L2384.32 24.696H2384.29C2383.94 25.4213 2383.62 26.008 2383.35 26.456L2379.03 33H2376.98ZM2387.92 33L2390.32 29L2390.69 28.408V28.376C2390.02 28.0773 2389.51 27.64 2389.17 27.064C2388.84 26.488 2388.67 25.8267 2388.67 25.08C2388.67 24.312 2388.84 23.6613 2389.18 23.128C2389.54 22.584 2390 22.1893 2390.58 21.944C2391.05 21.7413 2391.77 21.64 2392.74 21.64H2396.42V33H2394.35V28.76H2392.69L2390.22 33H2387.92ZM2392.56 27.032H2394.35V23.416H2392.9C2392.26 23.416 2391.78 23.512 2391.47 23.704C2391 23.992 2390.77 24.4773 2390.77 25.16C2390.77 25.7573 2390.93 26.2213 2391.25 26.552C2391.57 26.872 2392.01 27.032 2392.56 27.032Z" fill="#252525"/>
<rect x="2432" width="571" height="55" rx="27.5" fill="#F3F6FF"/>
<path d="M2456.96 27.24C2456.96 25.608 2457.52 24.2373 2458.64 23.128C2459.77 22.008 2461.17 21.448 2462.83 21.448C2464.5 21.448 2465.89 22.008 2467.01 23.128C2468.14 24.2373 2468.71 25.608 2468.71 27.24C2468.71 28.9147 2468.14 30.328 2467.01 31.48C2465.89 32.6213 2464.5 33.192 2462.83 33.192C2461.17 33.192 2459.77 32.6213 2458.64 31.48C2457.52 30.328 2456.96 28.9147 2456.96 27.24ZM2459.09 27.24C2459.09 28.392 2459.45 29.3573 2460.18 30.136C2460.9 30.9147 2461.79 31.304 2462.83 31.304C2463.88 31.304 2464.76 30.9147 2465.49 30.136C2466.22 29.3573 2466.58 28.392 2466.58 27.24C2466.58 26.1413 2466.22 25.2187 2465.49 24.472C2464.76 23.7147 2463.88 23.336 2462.83 23.336C2461.79 23.336 2460.9 23.7147 2460.18 24.472C2459.45 25.2187 2459.09 26.1413 2459.09 27.24ZM2470.79 33V21.64H2479.99V33H2477.93V23.416H2472.85V33H2470.79ZM2482.74 33V21.64H2489.54V23.416H2484.81V26.392H2488.63V28.168H2484.81V31.224H2489.8V33H2482.74ZM2491.85 33V21.64H2496.24C2497.3 21.64 2498.17 21.9813 2498.84 22.664C2499.52 23.3467 2499.85 24.2373 2499.85 25.336C2499.85 26.4347 2499.52 27.336 2498.84 28.04C2498.17 28.7333 2497.3 29.08 2496.24 29.08H2493.92V33H2491.85ZM2493.92 27.288H2495.85C2496.45 27.288 2496.91 27.112 2497.24 26.76C2497.59 26.408 2497.76 25.9333 2497.76 25.336C2497.76 24.7493 2497.59 24.2853 2497.24 23.944C2496.91 23.592 2496.46 23.416 2495.88 23.416H2493.92V27.288ZM2499.82 33L2503.81 21.64H2505.98L2509.97 33H2507.86L2506.88 30.088H2502.9L2501.94 33H2499.82ZM2503.41 28.408H2506.37L2505.36 25.368L2504.91 23.608H2504.88C2504.71 24.3547 2504.56 24.9413 2504.43 25.368L2503.41 28.408ZM2513.12 33V23.416H2509.39V21.64H2518.89V23.416H2515.16V33H2513.12ZM2520.51 33V21.64H2522.57V28.2L2522.46 29.96H2522.49C2522.86 29.224 2523.18 28.632 2523.45 28.184L2527.74 21.64H2529.79V33H2527.74V26.456L2527.85 24.696H2527.82C2527.47 25.4213 2527.15 26.008 2526.88 26.456L2522.56 33H2520.51ZM2532.56 33V21.64H2536.6C2537.66 21.64 2538.51 21.9013 2539.15 22.424C2539.8 22.936 2540.12 23.6507 2540.12 24.568C2540.12 25.1013 2540 25.5813 2539.76 26.008C2539.51 26.4347 2539.17 26.7653 2538.75 27V27.032C2539.35 27.2027 2539.8 27.5387 2540.11 28.04C2540.43 28.5413 2540.59 29.096 2540.59 29.704C2540.59 30.7813 2540.21 31.6027 2539.47 32.168C2538.72 32.7227 2537.79 33 2536.67 33H2532.56ZM2534.62 26.28H2536.62C2537.06 26.28 2537.4 26.1467 2537.64 25.88C2537.9 25.6027 2538.03 25.2507 2538.03 24.824C2538.03 24.408 2537.9 24.072 2537.64 23.816C2537.4 23.5493 2537.05 23.416 2536.59 23.416H2534.62V26.28ZM2534.62 31.224H2536.83C2537.34 31.224 2537.74 31.0747 2538.03 30.776C2538.33 30.4667 2538.48 30.0667 2538.48 29.576C2538.48 29.096 2538.33 28.7067 2538.03 28.408C2537.74 28.0987 2537.34 27.944 2536.83 27.944H2534.62V31.224ZM2542.68 33V21.64H2544.74V26.456H2549.94V21.64H2551.99V33H2549.94V28.232H2544.74V33H2542.68ZM2563.94 33V21.64H2565.99V33H2563.94ZM2554.74 33V21.64H2556.81V25.624H2558.92C2559.98 25.624 2560.83 25.9653 2561.48 26.648C2562.14 27.32 2562.47 28.216 2562.47 29.336C2562.47 30.424 2562.15 31.3093 2561.5 31.992C2560.84 32.664 2560 33 2558.97 33H2554.74ZM2556.81 31.224H2558.6C2559.16 31.224 2559.6 31.0587 2559.91 30.728C2560.22 30.3867 2560.38 29.9227 2560.38 29.336C2560.38 28.7493 2560.22 28.28 2559.9 27.928C2559.58 27.576 2559.13 27.4 2558.57 27.4H2556.81V31.224ZM2568.76 33V21.64H2575.56V23.416H2570.82V26.392H2574.65V28.168H2570.82V31.224H2575.81V33H2568.76ZM2581.87 33V21.64H2585.92C2586.97 21.64 2587.82 21.9013 2588.46 22.424C2589.11 22.936 2589.44 23.6507 2589.44 24.568C2589.44 25.1013 2589.31 25.5813 2589.07 26.008C2588.82 26.4347 2588.49 26.7653 2588.06 27V27.032C2588.66 27.2027 2589.11 27.5387 2589.42 28.04C2589.74 28.5413 2589.9 29.096 2589.9 29.704C2589.9 30.7813 2589.53 31.6027 2588.78 32.168C2588.03 32.7227 2587.1 33 2585.98 33H2581.87ZM2583.93 26.28H2585.93C2586.37 26.28 2586.71 26.1467 2586.96 25.88C2587.21 25.6027 2587.34 25.2507 2587.34 24.824C2587.34 24.408 2587.21 24.072 2586.96 23.816C2586.71 23.5493 2586.36 23.416 2585.9 23.416H2583.93V26.28ZM2583.93 31.224H2586.14C2586.65 31.224 2587.05 31.0747 2587.34 30.776C2587.64 30.4667 2587.79 30.0667 2587.79 29.576C2587.79 29.096 2587.64 28.7067 2587.34 28.408C2587.05 28.0987 2586.65 27.944 2586.14 27.944H2583.93V31.224ZM2591.56 33L2592.49 21.64H2594.68L2596.92 27.256L2597.48 28.92H2597.51C2597.72 28.2587 2597.9 27.704 2598.07 27.256L2600.31 21.64H2602.51L2603.43 33H2601.37L2600.91 26.648C2600.88 26.424 2600.87 26.168 2600.87 25.88C2600.87 25.5813 2600.88 25.3413 2600.89 25.16V24.888H2600.86C2600.61 25.624 2600.4 26.2107 2600.23 26.648L2598.39 31.048H2596.6L2594.76 26.648L2594.14 24.872H2594.11C2594.14 25.5547 2594.13 26.1467 2594.09 26.648L2593.63 33H2591.56ZM2605.76 33V21.64H2612.56V23.416H2607.82V26.392H2611.65V28.168H2607.82V31.224H2612.81V33H2605.76ZM2614.87 33V21.64H2616.93V31.224H2620.6V21.64H2622.66V31.224H2626.32V21.64H2628.37V33H2614.87ZM2629.89 33L2633.87 21.64H2636.05L2640.03 33H2637.92L2636.94 30.088H2632.96L2632 33H2629.89ZM2633.47 28.408H2636.43L2635.42 25.368L2634.97 23.608H2634.94C2634.77 24.3547 2634.62 24.9413 2634.49 25.368L2633.47 28.408ZM2643.18 33V23.416H2639.45V21.64H2648.95V23.416H2645.23V33H2643.18ZM2650.57 33V21.64H2657.37V23.416H2652.64V26.392H2656.46V28.168H2652.64V31.224H2657.63V33H2650.57ZM2658.53 31.24C2659.38 31.1227 2660 30.5573 2660.38 29.544C2660.78 28.52 2660.98 26.92 2660.98 24.744V21.64H2668V33H2665.94V23.416H2662.94V24.776C2662.94 27.5707 2662.6 29.6507 2661.9 31.016C2661.21 32.3707 2660.09 33.0747 2658.53 33.128V31.24ZM2670.76 33V21.64H2672.82V25.624H2675.05C2676.09 25.624 2676.95 25.9653 2677.61 26.648C2678.27 27.32 2678.6 28.216 2678.6 29.336C2678.6 30.424 2678.27 31.3093 2677.62 31.992C2676.97 32.664 2676.12 33 2675.08 33H2670.76ZM2672.82 31.224H2674.71C2675.28 31.224 2675.71 31.0587 2676.02 30.728C2676.34 30.3867 2676.5 29.9227 2676.5 29.336C2676.5 28.7493 2676.34 28.28 2676.01 27.928C2675.69 27.576 2675.24 27.4 2674.68 27.4H2672.82V31.224ZM2679.74 27.272C2679.74 25.608 2680.29 24.2213 2681.39 23.112C2682.49 22.0027 2683.89 21.448 2685.58 21.448C2687.31 21.448 2688.71 21.9653 2689.78 23L2688.78 24.536C2688.37 24.184 2687.88 23.896 2687.31 23.672C2686.76 23.448 2686.21 23.336 2685.68 23.336C2684.48 23.336 2683.55 23.7093 2682.88 24.456C2682.21 25.2027 2681.87 26.1307 2681.87 27.24C2681.87 28.36 2682.21 29.32 2682.9 30.12C2683.58 30.9093 2684.51 31.304 2685.7 31.304C2686.91 31.304 2688.01 30.824 2688.99 29.864L2690.08 31.352C2688.87 32.5787 2687.39 33.192 2685.62 33.192C2683.86 33.192 2682.44 32.632 2681.36 31.512C2680.28 30.392 2679.74 28.9787 2679.74 27.272ZM2694.43 33V23.416H2690.7V21.64H2700.2V23.416H2696.48V33H2694.43ZM2701.82 33V21.64H2705.87C2706.93 21.64 2707.77 21.9013 2708.41 22.424C2709.06 22.936 2709.39 23.6507 2709.39 24.568C2709.39 25.1013 2709.27 25.5813 2709.02 26.008C2708.78 26.4347 2708.44 26.7653 2708.01 27V27.032C2708.61 27.2027 2709.06 27.5387 2709.37 28.04C2709.69 28.5413 2709.85 29.096 2709.85 29.704C2709.85 30.7813 2709.48 31.6027 2708.73 32.168C2707.99 32.7227 2707.05 33 2705.93 33H2701.82ZM2703.89 26.28H2705.89C2706.32 26.28 2706.66 26.1467 2706.91 25.88C2707.17 25.6027 2707.29 25.2507 2707.29 24.824C2707.29 24.408 2707.17 24.072 2706.91 23.816C2706.66 23.5493 2706.31 23.416 2705.85 23.416H2703.89V26.28ZM2703.89 31.224H2706.09C2706.61 31.224 2707.01 31.0747 2707.29 30.776C2707.59 30.4667 2707.74 30.0667 2707.74 29.576C2707.74 29.096 2707.59 28.7067 2707.29 28.408C2707.01 28.0987 2706.61 27.944 2706.09 27.944H2703.89V31.224ZM2710.57 33L2714.56 21.64H2716.73L2720.72 33H2718.61L2717.63 30.088H2713.65L2712.69 33H2710.57ZM2714.16 28.408H2717.12L2716.11 25.368L2715.66 23.608H2715.63C2715.46 24.3547 2715.31 24.9413 2715.18 25.368L2714.16 28.408ZM2726.23 33V21.64H2735.43V33H2733.36V23.416H2728.29V33H2726.23ZM2737.51 27.24C2737.51 25.608 2738.07 24.2373 2739.19 23.128C2740.32 22.008 2741.72 21.448 2743.38 21.448C2745.04 21.448 2746.44 22.008 2747.56 23.128C2748.69 24.2373 2749.25 25.608 2749.25 27.24C2749.25 28.9147 2748.69 30.328 2747.56 31.48C2746.44 32.6213 2745.04 33.192 2743.38 33.192C2741.72 33.192 2740.32 32.6213 2739.19 31.48C2738.07 30.328 2737.51 28.9147 2737.51 27.24ZM2739.64 27.24C2739.64 28.392 2740 29.3573 2740.72 30.136C2741.45 30.9147 2742.34 31.304 2743.38 31.304C2744.43 31.304 2745.31 30.9147 2746.04 30.136C2746.76 29.3573 2747.12 28.392 2747.12 27.24C2747.12 26.1413 2746.76 25.2187 2746.04 24.472C2745.31 23.7147 2744.43 23.336 2743.38 23.336C2742.34 23.336 2741.45 23.7147 2740.72 24.472C2740 25.2187 2739.64 26.1413 2739.64 27.24ZM2752.98 31.224H2757.49V23.416H2754.45V24.264C2754.45 27.3147 2753.96 29.6347 2752.98 31.224ZM2749.7 31.224H2750.85C2751.95 29.56 2752.5 27.192 2752.5 24.12V21.64H2759.55V31.224H2760.82V35.24H2758.98V33H2751.6V35.24H2749.7V31.224ZM2766.81 33V21.64H2768.87V26.264H2770.34L2773.01 21.64H2775.25L2772.04 27.048V27.08L2775.45 33H2773.11L2770.34 28.04H2768.87V33H2766.81ZM2776.04 27.24C2776.04 25.608 2776.6 24.2373 2777.72 23.128C2778.85 22.008 2780.25 21.448 2781.91 21.448C2783.58 21.448 2784.97 22.008 2786.09 23.128C2787.22 24.2373 2787.78 25.608 2787.78 27.24C2787.78 28.9147 2787.22 30.328 2786.09 31.48C2784.97 32.6213 2783.58 33.192 2781.91 33.192C2780.25 33.192 2778.85 32.6213 2777.72 31.48C2776.6 30.328 2776.04 28.9147 2776.04 27.24ZM2778.17 27.24C2778.17 28.392 2778.53 29.3573 2779.26 30.136C2779.98 30.9147 2780.87 31.304 2781.91 31.304C2782.96 31.304 2783.84 30.9147 2784.57 30.136C2785.29 29.3573 2785.66 28.392 2785.66 27.24C2785.66 26.1413 2785.29 25.2187 2784.57 24.472C2783.84 23.7147 2782.96 23.336 2781.91 23.336C2780.87 23.336 2779.98 23.7147 2779.26 24.472C2778.53 25.2187 2778.17 26.1413 2778.17 27.24ZM2789.87 33V21.64H2791.93V26.456H2797.13V21.64H2799.18V33H2797.13V28.232H2791.93V33H2789.87ZM2804.51 33V23.416H2800.78V21.64H2810.28V23.416H2806.55V33H2804.51ZM2811.9 33V21.64H2816.28C2817.35 21.64 2818.22 21.9813 2818.89 22.664C2819.56 23.3467 2819.9 24.2373 2819.9 25.336C2819.9 26.4347 2819.56 27.336 2818.89 28.04C2818.22 28.7333 2817.35 29.08 2816.28 29.08H2813.96V33H2811.9ZM2813.96 27.288H2815.9C2816.5 27.288 2816.96 27.112 2817.29 26.76C2817.63 26.408 2817.8 25.9333 2817.8 25.336C2817.8 24.7493 2817.63 24.2853 2817.29 23.944C2816.96 23.592 2816.51 23.416 2815.93 23.416H2813.96V27.288ZM2821.02 27.24C2821.02 25.608 2821.58 24.2373 2822.7 23.128C2823.83 22.008 2825.23 21.448 2826.9 21.448C2828.56 21.448 2829.95 22.008 2831.07 23.128C2832.2 24.2373 2832.77 25.608 2832.77 27.24C2832.77 28.9147 2832.2 30.328 2831.07 31.48C2829.95 32.6213 2828.56 33.192 2826.9 33.192C2825.23 33.192 2823.83 32.6213 2822.7 31.48C2821.58 30.328 2821.02 28.9147 2821.02 27.24ZM2823.15 27.24C2823.15 28.392 2823.51 29.3573 2824.24 30.136C2824.97 30.9147 2825.85 31.304 2826.9 31.304C2827.94 31.304 2828.83 30.9147 2829.55 30.136C2830.28 29.3573 2830.64 28.392 2830.64 27.24C2830.64 26.1413 2830.28 25.2187 2829.55 24.472C2828.83 23.7147 2827.94 23.336 2826.9 23.336C2825.85 23.336 2824.97 23.7147 2824.24 24.472C2823.51 25.2187 2823.15 26.1413 2823.15 27.24ZM2833.39 31.24C2834.24 31.1227 2834.86 30.5573 2835.24 29.544C2835.64 28.52 2835.84 26.92 2835.84 24.744V21.64H2842.86V33H2840.8V23.416H2837.8V24.776C2837.8 27.5707 2837.46 29.6507 2836.76 31.016C2836.07 32.3707 2834.95 33.0747 2833.39 33.128V31.24ZM2845.62 33V21.64H2852.42V23.416H2847.68V26.392H2851.51V28.168H2847.68V31.224H2852.67V33H2845.62ZM2854.3 33L2855.22 21.64H2857.42L2859.66 27.256L2860.22 28.92H2860.25C2860.45 28.2587 2860.64 27.704 2860.81 27.256L2863.05 21.64H2865.24L2866.17 33H2864.1L2863.64 26.648C2863.62 26.424 2863.61 26.168 2863.61 25.88C2863.61 25.5813 2863.61 25.3413 2863.62 25.16V24.888H2863.59C2863.35 25.624 2863.14 26.2107 2862.97 26.648L2861.13 31.048H2859.34L2857.5 26.648L2856.87 24.872H2856.84C2856.87 25.5547 2856.87 26.1467 2856.82 26.648L2856.36 33H2854.3ZM2872.19 32.408L2873.1 30.856C2873.58 31.2293 2874.01 31.416 2874.38 31.416C2874.88 31.416 2875.26 31.0853 2875.52 30.424L2871.07 21.64H2873.34L2875.76 26.712L2876.4 28.216H2876.43C2876.57 27.7147 2876.72 27.2187 2876.89 26.728L2878.72 21.64H2880.88L2877.37 30.616C2877.23 30.968 2877.09 31.2773 2876.94 31.544C2876.79 31.8107 2876.6 32.0773 2876.37 32.344C2876.13 32.6107 2875.85 32.8187 2875.53 32.968C2875.21 33.1173 2874.86 33.192 2874.46 33.192C2873.69 33.192 2872.94 32.9307 2872.19 32.408ZM2880.45 31.24C2881.3 31.1227 2881.92 30.5573 2882.31 29.544C2882.7 28.52 2882.9 26.92 2882.9 24.744V21.64H2889.92V33H2887.86V23.416H2884.87V24.776C2884.87 27.5707 2884.52 29.6507 2883.83 31.016C2883.13 32.3707 2882.01 33.0747 2880.45 33.128V31.24ZM2892.68 33V21.64H2894.74V25.624H2896.97C2898.01 25.624 2898.87 25.9653 2899.53 26.648C2900.19 27.32 2900.52 28.216 2900.52 29.336C2900.52 30.424 2900.2 31.3093 2899.54 31.992C2898.89 32.664 2898.05 33 2897 33H2892.68ZM2894.74 31.224H2896.63C2897.2 31.224 2897.64 31.0587 2897.94 30.728C2898.26 30.3867 2898.42 29.9227 2898.42 29.336C2898.42 28.7493 2898.26 28.28 2897.93 27.928C2897.61 27.576 2897.17 27.4 2896.6 27.4H2894.74V31.224ZM2903.83 33V23.416H2900.11V21.64H2909.61V23.416H2905.88V33H2903.83ZM2911.23 33V21.64H2915.61C2916.68 21.64 2917.55 21.9813 2918.22 22.664C2918.89 23.3467 2919.23 24.2373 2919.23 25.336C2919.23 26.4347 2918.89 27.336 2918.22 28.04C2917.55 28.7333 2916.68 29.08 2915.61 29.08H2913.29V33H2911.23ZM2913.29 27.288H2915.23C2915.82 27.288 2916.29 27.112 2916.62 26.76C2916.96 26.408 2917.13 25.9333 2917.13 25.336C2917.13 24.7493 2916.96 24.2853 2916.62 23.944C2916.29 23.592 2915.84 23.416 2915.26 23.416H2913.29V27.288ZM2919.2 33L2923.18 21.64H2925.36L2929.34 33H2927.23L2926.25 30.088H2922.27L2921.31 33H2919.2ZM2922.78 28.408H2925.74L2924.73 25.368L2924.29 23.608H2924.25C2924.08 24.3547 2923.93 24.9413 2923.81 25.368L2922.78 28.408ZM2929.83 31.576L2930.95 30.2C2931.26 30.5307 2931.64 30.808 2932.1 31.032C2932.56 31.256 2933.03 31.368 2933.51 31.368C2934.13 31.368 2934.62 31.2133 2934.98 30.904C2935.34 30.5947 2935.52 30.168 2935.52 29.624C2935.52 29.1333 2935.36 28.7493 2935.03 28.472C2934.71 28.184 2934.27 28.04 2933.72 28.04H2932.32V26.376H2933.44C2933.96 26.376 2934.38 26.2267 2934.71 25.928C2935.04 25.6293 2935.2 25.256 2935.2 24.808C2935.2 24.3493 2935.06 23.976 2934.76 23.688C2934.46 23.3893 2934.03 23.24 2933.46 23.24C2932.6 23.24 2931.78 23.56 2931 24.2L2930.16 22.696C2931.17 21.864 2932.38 21.448 2933.81 21.448C2934.78 21.448 2935.6 21.7253 2936.28 22.28C2936.96 22.8347 2937.3 23.592 2937.3 24.552C2937.3 25.672 2936.78 26.5147 2935.73 27.08V27.112C2936.32 27.2933 2936.78 27.6133 2937.12 28.072C2937.47 28.5307 2937.64 29.0907 2937.64 29.752C2937.64 30.7973 2937.26 31.6347 2936.5 32.264C2935.75 32.8827 2934.82 33.192 2933.7 33.192C2932.98 33.192 2932.27 33.0533 2931.57 32.776C2930.89 32.488 2930.31 32.088 2929.83 31.576ZM2939.73 33V21.64H2943.78C2944.83 21.64 2945.68 21.9013 2946.32 22.424C2946.97 22.936 2947.3 23.6507 2947.3 24.568C2947.3 25.1013 2947.17 25.5813 2946.93 26.008C2946.68 26.4347 2946.35 26.7653 2945.92 27V27.032C2946.52 27.2027 2946.97 27.5387 2947.28 28.04C2947.6 28.5413 2947.76 29.096 2947.76 29.704C2947.76 30.7813 2947.39 31.6027 2946.64 32.168C2945.89 32.7227 2944.96 33 2943.84 33H2939.73ZM2941.79 26.28H2943.79C2944.23 26.28 2944.57 26.1467 2944.82 25.88C2945.07 25.6027 2945.2 25.2507 2945.2 24.824C2945.2 24.408 2945.07 24.072 2944.82 23.816C2944.57 23.5493 2944.22 23.416 2943.76 23.416H2941.79V26.28ZM2941.79 31.224H2944C2944.51 31.224 2944.91 31.0747 2945.2 30.776C2945.5 30.4667 2945.65 30.0667 2945.65 29.576C2945.65 29.096 2945.5 28.7067 2945.2 28.408C2944.91 28.0987 2944.51 27.944 2944 27.944H2941.79V31.224ZM2949.41 32.408L2950.32 30.856C2950.8 31.2293 2951.23 31.416 2951.6 31.416C2952.1 31.416 2952.48 31.0853 2952.74 30.424L2948.29 21.64H2950.56L2952.98 26.712L2953.62 28.216H2953.65C2953.79 27.7147 2953.94 27.2187 2954.11 26.728L2955.94 21.64H2958.1L2954.59 30.616C2954.45 30.968 2954.31 31.2773 2954.16 31.544C2954.01 31.8107 2953.82 32.0773 2953.58 32.344C2953.35 32.6107 2953.07 32.8187 2952.75 32.968C2952.43 33.1173 2952.07 33.192 2951.68 33.192C2950.91 33.192 2950.15 32.9307 2949.41 32.408ZM2959.51 33V21.64H2961.57V26.264H2963.04L2965.72 21.64H2967.96L2964.74 27.048V27.08L2968.15 33H2965.81L2963.04 28.04H2961.57V33H2959.51ZM2968.46 33L2972.45 21.64H2974.62L2978.61 33H2976.5L2975.52 30.088H2971.54L2970.58 33H2968.46ZM2972.05 28.408H2975.01L2974 25.368L2973.55 23.608H2973.52C2973.35 24.3547 2973.2 24.9413 2973.07 25.368L2972.05 28.408Z" fill="#005DFF"/>
</svg>
