<svg width="2520" height="55" viewBox="0 0 2520 55" fill="none" xmlns="http://www.w3.org/2000/svg">
<rect width="446" height="55" rx="27.5" fill="#F3F6FF"/>
<path d="M25.8369 33V21.64H35.0369V33H32.9729V23.416H27.9009V33H25.8369ZM37.7901 33V21.64H42.1741C43.2407 21.64 44.1101 21.9813 44.7821 22.664C45.4541 23.3467 45.7901 24.2373 45.7901 25.336C45.7901 26.4347 45.4541 27.336 44.7821 28.04C44.1101 28.7333 43.2407 29.08 42.1741 29.08H39.8541V33H37.7901ZM39.8541 27.288H41.7901C42.3874 27.288 42.8514 27.112 43.1821 26.76C43.5234 26.408 43.6941 25.9333 43.6941 25.336C43.6941 24.7493 43.5234 24.2853 43.1821 23.944C42.8514 23.592 42.3981 23.416 41.8221 23.416H39.8541V27.288ZM46.9149 27.24C46.9149 25.608 47.4749 24.2373 48.5949 23.128C49.7256 22.008 51.1229 21.448 52.7869 21.448C54.4509 21.448 55.8429 22.008 56.9629 23.128C58.0936 24.2373 58.6589 25.608 58.6589 27.24C58.6589 28.9147 58.0936 30.328 56.9629 31.48C55.8429 32.6213 54.4509 33.192 52.7869 33.192C51.1229 33.192 49.7256 32.6213 48.5949 31.48C47.4749 30.328 46.9149 28.9147 46.9149 27.24ZM49.0429 27.24C49.0429 28.392 49.4056 29.3573 50.1309 30.136C50.8563 30.9147 51.7416 31.304 52.7869 31.304C53.8323 31.304 54.7176 30.9147 55.4429 30.136C56.1683 29.3573 56.5309 28.392 56.5309 27.24C56.5309 26.1413 56.1683 25.2187 55.4429 24.472C54.7176 23.7147 53.8323 23.336 52.7869 23.336C51.7416 23.336 50.8563 23.7147 50.1309 24.472C49.4056 25.2187 49.0429 26.1413 49.0429 27.24ZM60.7432 33V21.64H62.8072V28.2L62.6952 29.96H62.7272C63.0899 29.224 63.4099 28.632 63.6872 28.184L67.9752 21.64H70.0232V33H67.9752V26.456L68.0872 24.696H68.0552C67.7032 25.4213 67.3885 26.008 67.1112 26.456L62.7912 33H60.7432ZM71.7661 31.576L72.8861 30.2C73.1954 30.5307 73.5794 30.808 74.0381 31.032C74.4967 31.256 74.9661 31.368 75.4461 31.368C76.0647 31.368 76.5554 31.2133 76.9181 30.904C77.2807 30.5947 77.4621 30.168 77.4621 29.624C77.4621 29.1333 77.2967 28.7493 76.9661 28.472C76.6461 28.184 76.2087 28.04 75.6541 28.04H74.2621V26.376H75.3821C75.8941 26.376 76.3154 26.2267 76.6461 25.928C76.9767 25.6293 77.1421 25.256 77.1421 24.808C77.1421 24.3493 76.9927 23.976 76.6941 23.688C76.3954 23.3893 75.9634 23.24 75.3981 23.24C74.5341 23.24 73.7127 23.56 72.9341 24.2L72.1021 22.696C73.1047 21.864 74.3207 21.448 75.7501 21.448C76.7207 21.448 77.5421 21.7253 78.2141 22.28C78.8967 22.8347 79.2381 23.592 79.2381 24.552C79.2381 25.672 78.7154 26.5147 77.6701 27.08V27.112C78.2567 27.2933 78.7207 27.6133 79.0621 28.072C79.4034 28.5307 79.5741 29.0907 79.5741 29.752C79.5741 30.7973 79.1954 31.6347 78.4381 32.264C77.6914 32.8827 76.7581 33.192 75.6381 33.192C74.9127 33.192 74.2034 33.0533 73.5101 32.776C72.8274 32.488 72.2461 32.088 71.7661 31.576ZM81.6651 33V21.64H85.7131C86.7691 21.64 87.6171 21.9013 88.2571 22.424C88.9077 22.936 89.2331 23.6507 89.2331 24.568C89.2331 25.1013 89.1104 25.5813 88.8651 26.008C88.6197 26.4347 88.2837 26.7653 87.8571 27V27.032C88.4544 27.2027 88.9077 27.5387 89.2171 28.04C89.5371 28.5413 89.6971 29.096 89.6971 29.704C89.6971 30.7813 89.3237 31.6027 88.5771 32.168C87.8304 32.7227 86.8971 33 85.7771 33H81.6651ZM83.7291 26.28H85.7291C86.1664 26.28 86.5077 26.1467 86.7531 25.88C87.0091 25.6027 87.1371 25.2507 87.1371 24.824C87.1371 24.408 87.0091 24.072 86.7531 23.816C86.5077 23.5493 86.1557 23.416 85.6971 23.416H83.7291V26.28ZM83.7291 31.224H85.9371C86.4491 31.224 86.8491 31.0747 87.1371 30.776C87.4357 30.4667 87.5851 30.0667 87.5851 29.576C87.5851 29.096 87.4357 28.7067 87.1371 28.408C86.8491 28.0987 86.4491 27.944 85.9371 27.944H83.7291V31.224ZM91.1181 27.24C91.1181 25.608 91.6781 24.2373 92.7981 23.128C93.9287 22.008 95.3261 21.448 96.9901 21.448C98.6541 21.448 100.046 22.008 101.166 23.128C102.297 24.2373 102.862 25.608 102.862 27.24C102.862 28.9147 102.297 30.328 101.166 31.48C100.046 32.6213 98.6541 33.192 96.9901 33.192C95.3261 33.192 93.9287 32.6213 92.7981 31.48C91.6781 30.328 91.1181 28.9147 91.1181 27.24ZM93.2461 27.24C93.2461 28.392 93.6087 29.3573 94.3341 30.136C95.0594 30.9147 95.9447 31.304 96.9901 31.304C98.0354 31.304 98.9207 30.9147 99.6461 30.136C100.371 29.3573 100.734 28.392 100.734 27.24C100.734 26.1413 100.371 25.2187 99.6461 24.472C98.9207 23.7147 98.0354 23.336 96.9901 23.336C95.9447 23.336 95.0594 23.7147 94.3341 24.472C93.6087 25.2187 93.2461 26.1413 93.2461 27.24ZM106.587 31.224H111.099V23.416H108.059V24.264C108.059 27.3147 107.569 29.6347 106.587 31.224ZM103.307 31.224H104.459C105.558 29.56 106.107 27.192 106.107 24.12V21.64H113.163V31.224H114.427V35.24H112.587V33H105.211V35.24H103.307V31.224ZM115.572 27.272C115.572 25.608 116.121 24.2213 117.22 23.112C118.318 22.0027 119.716 21.448 121.412 21.448C123.14 21.448 124.537 21.9653 125.604 23L124.612 24.536C124.196 24.184 123.705 23.896 123.14 23.672C122.585 23.448 122.041 23.336 121.508 23.336C120.313 23.336 119.38 23.7093 118.708 24.456C118.036 25.2027 117.7 26.1307 117.7 27.24C117.7 28.36 118.041 29.32 118.724 30.12C119.406 30.9093 120.34 31.304 121.524 31.304C122.74 31.304 123.838 30.824 124.82 29.864L125.908 31.352C124.702 32.5787 123.214 33.192 121.444 33.192C119.684 33.192 118.265 32.632 117.188 31.512C116.11 30.392 115.572 28.9787 115.572 27.272ZM130.257 33V23.416H126.529V21.64H136.033V23.416H132.305V33H130.257ZM137.649 33V21.64H141.697C142.753 21.64 143.601 21.9013 144.241 22.424C144.892 22.936 145.217 23.6507 145.217 24.568C145.217 25.1013 145.095 25.5813 144.849 26.008C144.604 26.4347 144.268 26.7653 143.841 27V27.032C144.439 27.2027 144.892 27.5387 145.201 28.04C145.521 28.5413 145.681 29.096 145.681 29.704C145.681 30.7813 145.308 31.6027 144.561 32.168C143.815 32.7227 142.881 33 141.761 33H137.649ZM139.713 26.28H141.713C142.151 26.28 142.492 26.1467 142.737 25.88C142.993 25.6027 143.121 25.2507 143.121 24.824C143.121 24.408 142.993 24.072 142.737 23.816C142.492 23.5493 142.14 23.416 141.681 23.416H139.713V26.28ZM139.713 31.224H141.921C142.433 31.224 142.833 31.0747 143.121 30.776C143.42 30.4667 143.569 30.0667 143.569 29.576C143.569 29.096 143.42 28.7067 143.121 28.408C142.833 28.0987 142.433 27.944 141.921 27.944H139.713V31.224ZM147.774 33V21.64H154.574V23.416H149.838V26.392H153.662V28.168H149.838V31.224H154.83V33H147.774ZM156.884 33V21.64H158.948V26.456H164.148V21.64H166.196V33H164.148V28.232H158.948V33H156.884ZM168.946 33V21.64H171.01V26.456H176.21V21.64H178.258V33H176.21V28.232H171.01V33H168.946ZM179.761 33L183.745 21.64H185.921L189.905 33H187.793L186.817 30.088H182.833L181.873 33H179.761ZM183.345 28.408H186.305L185.297 25.368L184.849 23.608H184.817C184.646 24.3547 184.497 24.9413 184.369 25.368L183.345 28.408ZM190.311 33L192.711 29L193.079 28.408V28.376C192.407 28.0773 191.9 27.64 191.559 27.064C191.228 26.488 191.063 25.8267 191.063 25.08C191.063 24.312 191.234 23.6613 191.575 23.128C191.927 22.584 192.391 22.1893 192.967 21.944C193.436 21.7413 194.156 21.64 195.127 21.64H198.807V33H196.743V28.76H195.079L192.615 33H190.311ZM194.951 27.032H196.743V23.416H195.287C194.647 23.416 194.172 23.512 193.863 23.704C193.394 23.992 193.159 24.4773 193.159 25.16C193.159 25.7573 193.319 26.2213 193.639 26.552C193.959 26.872 194.396 27.032 194.951 27.032ZM205.556 33V21.64H214.756V33H212.692V23.416H207.62V33H205.556ZM217.509 33V21.64H221.893C222.959 21.64 223.829 21.9813 224.501 22.664C225.173 23.3467 225.509 24.2373 225.509 25.336C225.509 26.4347 225.173 27.336 224.501 28.04C223.829 28.7333 222.959 29.08 221.893 29.08H219.573V33H217.509ZM219.573 27.288H221.509C222.106 27.288 222.57 27.112 222.901 26.76C223.242 26.408 223.413 25.9333 223.413 25.336C223.413 24.7493 223.242 24.2853 222.901 23.944C222.57 23.592 222.117 23.416 221.541 23.416H219.573V27.288ZM225.48 33L229.464 21.64H231.64L235.624 33H233.512L232.536 30.088H228.552L227.592 33H225.48ZM229.064 28.408H232.024L231.016 25.368L230.568 23.608H230.536C230.365 24.3547 230.216 24.9413 230.088 25.368L229.064 28.408ZM237.134 33V21.64H239.198V26.264H240.67L243.342 21.64H245.582L242.366 27.048V27.08L245.774 33H243.438L240.67 28.04H239.198V33H237.134ZM249.913 33V23.416H246.185V21.64H255.689V23.416H251.961V33H249.913ZM257.306 33V21.64H259.37V28.2L259.258 29.96H259.29C259.652 29.224 259.972 28.632 260.25 28.184L264.538 21.64H266.586V33H264.538V26.456L264.65 24.696H264.618C264.266 25.4213 263.951 26.008 263.674 26.456L259.354 33H257.306ZM269.353 33V21.64H271.417V26.264H272.889L275.561 21.64H277.801L274.585 27.048V27.08L277.993 33H275.657L272.889 28.04H271.417V33H269.353ZM278.308 33L282.292 21.64H284.468L288.452 33H286.34L285.364 30.088H281.38L280.42 33H278.308ZM281.892 28.408H284.852L283.844 25.368L283.396 23.608H283.364C283.193 24.3547 283.044 24.9413 282.916 25.368L281.892 28.408ZM295.258 34.52C293.989 32.44 293.354 30.104 293.354 27.512C293.354 25.272 293.989 23.1493 295.258 21.144H296.97C295.765 23.1707 295.162 25.2987 295.162 27.528C295.162 29.9387 295.765 32.2693 296.97 34.52H295.258ZM298.884 33V21.64H300.948V26.264H302.42L305.092 21.64H307.332L304.116 27.048V27.08L307.524 33H305.188L302.42 28.04H300.948V33H298.884ZM307.935 31.24C308.788 31.1227 309.407 30.5573 309.791 29.544C310.186 28.52 310.383 26.92 310.383 24.744V21.64H317.407V33H315.343V23.416H312.351V24.776C312.351 27.5707 312.004 29.6507 311.311 31.016C310.618 32.3707 309.492 33.0747 307.935 33.128V31.24ZM320.165 33V21.64H322.229V28.2L322.117 29.96H322.149C322.512 29.224 322.832 28.632 323.109 28.184L327.397 21.64H329.445V33H327.397V26.456L327.509 24.696H327.477C327.125 25.4213 326.81 26.008 326.533 26.456L322.213 33H320.165ZM332.212 33V21.64H334.276V26.456H339.476V21.64H341.524V33H339.476V28.232H334.276V33H332.212ZM344.274 33V21.64H346.338V28.2L346.226 29.96H346.258C346.621 29.224 346.941 28.632 347.218 28.184L351.506 21.64H353.554V33H351.506V26.456L351.618 24.696H351.586C351.234 25.4213 350.92 26.008 350.642 26.456L346.322 33H344.274ZM359.153 28.776C357.991 28.776 357.121 28.4827 356.545 27.896C355.969 27.2987 355.681 26.456 355.681 25.368V21.64H357.777V24.904C357.777 26.2373 358.412 26.904 359.681 26.904C360.545 26.904 361.324 26.68 362.017 26.232V21.64H364.113V33H362.017V28.6L362.049 28.072H362.017C361.1 28.5413 360.145 28.776 359.153 28.776ZM366.884 33V21.64H373.684V23.416H368.948V26.392H372.772V28.168H368.948V31.224H373.94V33H366.884ZM375.134 27.272C375.134 25.608 375.683 24.2213 376.782 23.112C377.881 22.0027 379.278 21.448 380.974 21.448C382.702 21.448 384.099 21.9653 385.166 23L384.174 24.536C383.758 24.184 383.267 23.896 382.702 23.672C382.147 23.448 381.603 23.336 381.07 23.336C379.875 23.336 378.942 23.7093 378.27 24.456C377.598 25.2027 377.262 26.1307 377.262 27.24C377.262 28.36 377.603 29.32 378.286 30.12C378.969 30.9093 379.902 31.304 381.086 31.304C382.302 31.304 383.401 30.824 384.382 29.864L385.47 31.352C384.265 32.5787 382.777 33.192 381.006 33.192C379.246 33.192 377.827 32.632 376.75 31.512C375.673 30.392 375.134 28.9787 375.134 27.272ZM387.243 33V21.64H389.307V26.264H390.779L393.451 21.64H395.691L392.475 27.048V27.08L395.883 33H393.547L390.779 28.04H389.307V33H387.243ZM396.198 33L400.182 21.64H402.358L406.342 33H404.23L403.254 30.088H399.27L398.31 33H396.198ZM399.782 28.408H402.742L401.734 25.368L401.286 23.608H401.254C401.084 24.3547 400.934 24.9413 400.806 25.368L399.782 28.408ZM406.749 33L409.149 29L409.517 28.408V28.376C408.845 28.0773 408.338 27.64 407.997 27.064C407.666 26.488 407.501 25.8267 407.501 25.08C407.501 24.312 407.671 23.6613 408.013 23.128C408.365 22.584 408.829 22.1893 409.405 21.944C409.874 21.7413 410.594 21.64 411.565 21.64H415.245V33H413.181V28.76H411.517L409.053 33H406.749ZM411.389 27.032H413.181V23.416H411.725C411.085 23.416 410.61 23.512 410.301 23.704C409.831 23.992 409.597 24.4773 409.597 25.16C409.597 25.7573 409.757 26.2213 410.077 26.552C410.397 26.872 410.834 27.032 411.389 27.032ZM417.161 34.52C418.367 32.2693 418.969 29.9387 418.969 27.528C418.969 25.2987 418.367 23.1707 417.161 21.144H418.873C420.143 23.1493 420.777 25.272 420.777 27.512C420.777 30.104 420.143 32.44 418.873 34.52H417.161Z" fill="#005DFF"/>
<rect x="456" width="648" height="55" rx="27.5" fill="#F3F6FF"/>
<path d="M481.571 33V21.64H490.771V33H488.707V23.416H483.635V33H481.571ZM493.524 33V21.64H497.908C498.975 21.64 499.844 21.9813 500.516 22.664C501.188 23.3467 501.524 24.2373 501.524 25.336C501.524 26.4347 501.188 27.336 500.516 28.04C499.844 28.7333 498.975 29.08 497.908 29.08H495.588V33H493.524ZM495.588 27.288H497.524C498.122 27.288 498.586 27.112 498.916 26.76C499.258 26.408 499.428 25.9333 499.428 25.336C499.428 24.7493 499.258 24.2853 498.916 23.944C498.586 23.592 498.132 23.416 497.556 23.416H495.588V27.288ZM502.649 27.24C502.649 25.608 503.209 24.2373 504.329 23.128C505.46 22.008 506.857 21.448 508.521 21.448C510.185 21.448 511.577 22.008 512.697 23.128C513.828 24.2373 514.393 25.608 514.393 27.24C514.393 28.9147 513.828 30.328 512.697 31.48C511.577 32.6213 510.185 33.192 508.521 33.192C506.857 33.192 505.46 32.6213 504.329 31.48C503.209 30.328 502.649 28.9147 502.649 27.24ZM504.777 27.24C504.777 28.392 505.14 29.3573 505.865 30.136C506.591 30.9147 507.476 31.304 508.521 31.304C509.567 31.304 510.452 30.9147 511.177 30.136C511.903 29.3573 512.265 28.392 512.265 27.24C512.265 26.1413 511.903 25.2187 511.177 24.472C510.452 23.7147 509.567 23.336 508.521 23.336C507.476 23.336 506.591 23.7147 505.865 24.472C505.14 25.2187 504.777 26.1413 504.777 27.24ZM516.478 33V21.64H518.542V28.2L518.43 29.96H518.462C518.824 29.224 519.144 28.632 519.422 28.184L523.71 21.64H525.758V33H523.71V26.456L523.822 24.696H523.79C523.438 25.4213 523.123 26.008 522.846 26.456L518.526 33H516.478ZM527.5 31.576L528.62 30.2C528.93 30.5307 529.314 30.808 529.772 31.032C530.231 31.256 530.7 31.368 531.18 31.368C531.799 31.368 532.29 31.2133 532.652 30.904C533.015 30.5947 533.196 30.168 533.196 29.624C533.196 29.1333 533.031 28.7493 532.7 28.472C532.38 28.184 531.943 28.04 531.388 28.04H529.996V26.376H531.116C531.628 26.376 532.05 26.2267 532.38 25.928C532.711 25.6293 532.876 25.256 532.876 24.808C532.876 24.3493 532.727 23.976 532.428 23.688C532.13 23.3893 531.698 23.24 531.132 23.24C530.268 23.24 529.447 23.56 528.668 24.2L527.836 22.696C528.839 21.864 530.055 21.448 531.484 21.448C532.455 21.448 533.276 21.7253 533.948 22.28C534.631 22.8347 534.972 23.592 534.972 24.552C534.972 25.672 534.45 26.5147 533.404 27.08V27.112C533.991 27.2933 534.455 27.6133 534.796 28.072C535.138 28.5307 535.308 29.0907 535.308 29.752C535.308 30.7973 534.93 31.6347 534.172 32.264C533.426 32.8827 532.492 33.192 531.372 33.192C530.647 33.192 529.938 33.0533 529.244 32.776C528.562 32.488 527.98 32.088 527.5 31.576ZM537.399 33V21.64H541.447C542.503 21.64 543.351 21.9013 543.991 22.424C544.642 22.936 544.967 23.6507 544.967 24.568C544.967 25.1013 544.845 25.5813 544.599 26.008C544.354 26.4347 544.018 26.7653 543.591 27V27.032C544.189 27.2027 544.642 27.5387 544.951 28.04C545.271 28.5413 545.431 29.096 545.431 29.704C545.431 30.7813 545.058 31.6027 544.311 32.168C543.565 32.7227 542.631 33 541.511 33H537.399ZM539.463 26.28H541.463C541.901 26.28 542.242 26.1467 542.487 25.88C542.743 25.6027 542.871 25.2507 542.871 24.824C542.871 24.408 542.743 24.072 542.487 23.816C542.242 23.5493 541.89 23.416 541.431 23.416H539.463V26.28ZM539.463 31.224H541.671C542.183 31.224 542.583 31.0747 542.871 30.776C543.17 30.4667 543.319 30.0667 543.319 29.576C543.319 29.096 543.17 28.7067 542.871 28.408C542.583 28.0987 542.183 27.944 541.671 27.944H539.463V31.224ZM546.852 27.24C546.852 25.608 547.412 24.2373 548.532 23.128C549.663 22.008 551.06 21.448 552.724 21.448C554.388 21.448 555.78 22.008 556.9 23.128C558.031 24.2373 558.596 25.608 558.596 27.24C558.596 28.9147 558.031 30.328 556.9 31.48C555.78 32.6213 554.388 33.192 552.724 33.192C551.06 33.192 549.663 32.6213 548.532 31.48C547.412 30.328 546.852 28.9147 546.852 27.24ZM548.98 27.24C548.98 28.392 549.343 29.3573 550.068 30.136C550.794 30.9147 551.679 31.304 552.724 31.304C553.77 31.304 554.655 30.9147 555.38 30.136C556.106 29.3573 556.468 28.392 556.468 27.24C556.468 26.1413 556.106 25.2187 555.38 24.472C554.655 23.7147 553.77 23.336 552.724 23.336C551.679 23.336 550.794 23.7147 550.068 24.472C549.343 25.2187 548.98 26.1413 548.98 27.24ZM562.322 31.224H566.834V23.416H563.794V24.264C563.794 27.3147 563.303 29.6347 562.322 31.224ZM559.042 31.224H560.194C561.292 29.56 561.842 27.192 561.842 24.12V21.64H568.898V31.224H570.162V35.24H568.322V33H560.946V35.24H559.042V31.224ZM571.306 27.272C571.306 25.608 571.855 24.2213 572.954 23.112C574.053 22.0027 575.45 21.448 577.146 21.448C578.874 21.448 580.271 21.9653 581.338 23L580.346 24.536C579.93 24.184 579.439 23.896 578.874 23.672C578.319 23.448 577.775 23.336 577.242 23.336C576.047 23.336 575.114 23.7093 574.442 24.456C573.77 25.2027 573.434 26.1307 573.434 27.24C573.434 28.36 573.775 29.32 574.458 30.12C575.141 30.9093 576.074 31.304 577.258 31.304C578.474 31.304 579.573 30.824 580.554 29.864L581.642 31.352C580.437 32.5787 578.949 33.192 577.178 33.192C575.418 33.192 573.999 32.632 572.922 31.512C571.845 30.392 571.306 28.9787 571.306 27.272ZM585.991 33V23.416H582.263V21.64H591.767V23.416H588.039V33H585.991ZM593.384 33V21.64H597.432C598.488 21.64 599.336 21.9013 599.976 22.424C600.626 22.936 600.952 23.6507 600.952 24.568C600.952 25.1013 600.829 25.5813 600.584 26.008C600.338 26.4347 600.002 26.7653 599.576 27V27.032C600.173 27.2027 600.626 27.5387 600.936 28.04C601.256 28.5413 601.416 29.096 601.416 29.704C601.416 30.7813 601.042 31.6027 600.296 32.168C599.549 32.7227 598.616 33 597.496 33H593.384ZM595.448 26.28H597.448C597.885 26.28 598.226 26.1467 598.472 25.88C598.728 25.6027 598.856 25.2507 598.856 24.824C598.856 24.408 598.728 24.072 598.472 23.816C598.226 23.5493 597.874 23.416 597.416 23.416H595.448V26.28ZM595.448 31.224H597.656C598.168 31.224 598.568 31.0747 598.856 30.776C599.154 30.4667 599.304 30.0667 599.304 29.576C599.304 29.096 599.154 28.7067 598.856 28.408C598.568 28.0987 598.168 27.944 597.656 27.944H595.448V31.224ZM603.509 33V21.64H610.309V23.416H605.573V26.392H609.397V28.168H605.573V31.224H610.565V33H603.509ZM612.618 33V21.64H614.682V26.456H619.882V21.64H621.93V33H619.882V28.232H614.682V33H612.618ZM624.681 33V21.64H626.745V26.456H631.945V21.64H633.993V33H631.945V28.232H626.745V33H624.681ZM635.495 33L639.479 21.64H641.655L645.639 33H643.527L642.551 30.088H638.567L637.607 33H635.495ZM639.079 28.408H642.039L641.031 25.368L640.583 23.608H640.551C640.381 24.3547 640.231 24.9413 640.103 25.368L639.079 28.408ZM646.045 33L648.445 29L648.813 28.408V28.376C648.141 28.0773 647.635 27.64 647.293 27.064C646.963 26.488 646.797 25.8267 646.797 25.08C646.797 24.312 646.968 23.6613 647.309 23.128C647.661 22.584 648.125 22.1893 648.701 21.944C649.171 21.7413 649.891 21.64 650.861 21.64H654.541V33H652.477V28.76H650.813L648.349 33H646.045ZM650.685 27.032H652.477V23.416H651.021C650.381 23.416 649.907 23.512 649.597 23.704C649.128 23.992 648.893 24.4773 648.893 25.16C648.893 25.7573 649.053 26.2213 649.373 26.552C649.693 26.872 650.131 27.032 650.685 27.032ZM661.29 33V21.64H670.49V33H668.426V23.416H663.354V33H661.29ZM673.243 33V21.64H677.627C678.694 21.64 679.563 21.9813 680.235 22.664C680.907 23.3467 681.243 24.2373 681.243 25.336C681.243 26.4347 680.907 27.336 680.235 28.04C679.563 28.7333 678.694 29.08 677.627 29.08H675.307V33H673.243ZM675.307 27.288H677.243C677.841 27.288 678.305 27.112 678.635 26.76C678.977 26.408 679.147 25.9333 679.147 25.336C679.147 24.7493 678.977 24.2853 678.635 23.944C678.305 23.592 677.851 23.416 677.275 23.416H675.307V27.288ZM681.214 33L685.198 21.64H687.374L691.358 33H689.246L688.27 30.088H684.286L683.326 33H681.214ZM684.798 28.408H687.758L686.75 25.368L686.302 23.608H686.27C686.099 24.3547 685.95 24.9413 685.822 25.368L684.798 28.408ZM692.868 33V21.64H694.932V26.264H696.404L699.076 21.64H701.316L698.1 27.048V27.08L701.508 33H699.172L696.404 28.04H694.932V33H692.868ZM705.647 33V23.416H701.919V21.64H711.423V23.416H707.695V33H705.647ZM713.04 33V21.64H715.104V28.2L714.992 29.96H715.024C715.387 29.224 715.707 28.632 715.984 28.184L720.272 21.64H722.32V33H720.272V26.456L720.384 24.696H720.352C720 25.4213 719.685 26.008 719.408 26.456L715.088 33H713.04ZM725.087 33V21.64H727.151V26.264H728.623L731.295 21.64H733.535L730.319 27.048V27.08L733.727 33H731.391L728.623 28.04H727.151V33H725.087ZM734.042 33L738.026 21.64H740.202L744.186 33H742.074L741.098 30.088H737.114L736.154 33H734.042ZM737.626 28.408H740.586L739.578 25.368L739.13 23.608H739.098C738.927 24.3547 738.778 24.9413 738.65 25.368L737.626 28.408ZM750.992 34.52C749.723 32.44 749.088 30.104 749.088 27.512C749.088 25.272 749.723 23.1493 750.992 21.144H752.704C751.499 23.1707 750.896 25.2987 750.896 27.528C750.896 29.9387 751.499 32.2693 752.704 34.52H750.992ZM754.618 33V21.64H756.682V26.456H761.882V21.64H763.93V33H761.882V28.232H756.682V33H754.618ZM765.433 33L769.417 21.64H771.593L775.577 33H773.465L772.489 30.088H768.505L767.545 33H765.433ZM769.017 28.408H771.977L770.969 25.368L770.521 23.608H770.489C770.318 24.3547 770.169 24.9413 770.041 25.368L769.017 28.408ZM776.658 32.408L777.57 30.856C778.05 31.2293 778.477 31.416 778.85 31.416C779.351 31.416 779.73 31.0853 779.986 30.424L775.538 21.64H777.81L780.226 26.712L780.866 28.216H780.898C781.037 27.7147 781.191 27.2187 781.362 26.728L783.186 21.64H785.346L781.842 30.616C781.703 30.968 781.559 31.2773 781.41 31.544C781.261 31.8107 781.069 32.0773 780.834 32.344C780.599 32.6107 780.322 32.8187 780.002 32.968C779.682 33.1173 779.325 33.192 778.93 33.192C778.162 33.192 777.405 32.9307 776.658 32.408ZM789.591 28.776C788.428 28.776 787.559 28.4827 786.983 27.896C786.407 27.2987 786.119 26.456 786.119 25.368V21.64H788.215V24.904C788.215 26.2373 788.849 26.904 790.119 26.904C790.983 26.904 791.761 26.68 792.455 26.232V21.64H794.551V33H792.455V28.6L792.487 28.072H792.455C791.537 28.5413 790.583 28.776 789.591 28.776ZM797.321 33V21.64H799.385V26.456H804.585V21.64H806.633V33H804.585V28.232H799.385V33H797.321ZM808.712 27.24C808.712 25.608 809.272 24.2373 810.392 23.128C811.522 22.008 812.92 21.448 814.584 21.448C816.248 21.448 817.64 22.008 818.76 23.128C819.89 24.2373 820.456 25.608 820.456 27.24C820.456 28.9147 819.89 30.328 818.76 31.48C817.64 32.6213 816.248 33.192 814.584 33.192C812.92 33.192 811.522 32.6213 810.392 31.48C809.272 30.328 808.712 28.9147 808.712 27.24ZM810.84 27.24C810.84 28.392 811.202 29.3573 811.928 30.136C812.653 30.9147 813.538 31.304 814.584 31.304C815.629 31.304 816.514 30.9147 817.24 30.136C817.965 29.3573 818.328 28.392 818.328 27.24C818.328 26.1413 817.965 25.2187 817.24 24.472C816.514 23.7147 815.629 23.336 814.584 23.336C813.538 23.336 812.653 23.7147 811.928 24.472C811.202 25.2187 810.84 26.1413 810.84 27.24ZM822.22 29.32V27.544H827.02V29.32H822.22ZM829.446 33V21.64H831.51V28.2L831.398 29.96H831.43C831.793 29.224 832.113 28.632 832.39 28.184L836.678 21.64H838.726V33H836.678V26.456L836.79 24.696H836.758C836.406 25.4213 836.092 26.008 835.814 26.456L831.494 33H829.446ZM840.837 27.272C840.837 25.608 841.387 24.2213 842.485 23.112C843.584 22.0027 844.981 21.448 846.677 21.448C848.405 21.448 849.803 21.9653 850.869 23L849.877 24.536C849.461 24.184 848.971 23.896 848.405 23.672C847.851 23.448 847.307 23.336 846.773 23.336C845.579 23.336 844.645 23.7093 843.973 24.456C843.301 25.2027 842.965 26.1307 842.965 27.24C842.965 28.36 843.307 29.32 843.989 30.12C844.672 30.9093 845.605 31.304 846.789 31.304C848.005 31.304 849.104 30.824 850.085 29.864L851.173 31.352C849.968 32.5787 848.48 33.192 846.709 33.192C844.949 33.192 843.531 32.632 842.453 31.512C841.376 30.392 840.837 28.9787 840.837 27.272ZM852.009 27.272C852.009 25.608 852.558 24.2213 853.657 23.112C854.756 22.0027 856.153 21.448 857.849 21.448C859.577 21.448 860.974 21.9653 862.041 23L861.049 24.536C860.633 24.184 860.142 23.896 859.577 23.672C859.022 23.448 858.478 23.336 857.945 23.336C856.75 23.336 855.817 23.7093 855.145 24.456C854.473 25.2027 854.137 26.1307 854.137 27.24C854.137 28.36 854.478 29.32 855.161 30.12C855.844 30.9093 856.777 31.304 857.961 31.304C859.177 31.304 860.276 30.824 861.257 29.864L862.345 31.352C861.14 32.5787 859.652 33.192 857.881 33.192C856.121 33.192 854.702 32.632 853.625 31.512C852.548 30.392 852.009 28.9787 852.009 27.272ZM862.966 31.24C863.82 31.1227 864.438 30.5573 864.822 29.544C865.217 28.52 865.414 26.92 865.414 24.744V21.64H872.438V33H870.374V23.416H867.382V24.776C867.382 27.5707 867.036 29.6507 866.342 31.016C865.649 32.3707 864.524 33.0747 862.966 33.128V31.24ZM875.196 33V21.64H881.996V23.416H877.26V26.392H881.084V28.168H877.26V31.224H882.252V33H875.196ZM886.322 31.224H890.834V23.416H887.794V24.264C887.794 27.3147 887.303 29.6347 886.322 31.224ZM883.042 31.224H884.194C885.292 29.56 885.842 27.192 885.842 24.12V21.64H892.898V31.224H894.162V35.24H892.322V33H884.946V35.24H883.042V31.224ZM895.29 27.24C895.29 25.608 895.85 24.2373 896.97 23.128C898.101 22.008 899.498 21.448 901.162 21.448C902.826 21.448 904.218 22.008 905.338 23.128C906.469 24.2373 907.034 25.608 907.034 27.24C907.034 28.9147 906.469 30.328 905.338 31.48C904.218 32.6213 902.826 33.192 901.162 33.192C899.498 33.192 898.101 32.6213 896.97 31.48C895.85 30.328 895.29 28.9147 895.29 27.24ZM897.418 27.24C897.418 28.392 897.781 29.3573 898.506 30.136C899.231 30.9147 900.117 31.304 901.162 31.304C902.207 31.304 903.093 30.9147 903.818 30.136C904.543 29.3573 904.906 28.392 904.906 27.24C904.906 26.1413 904.543 25.2187 903.818 24.472C903.093 23.7147 902.207 23.336 901.162 23.336C900.117 23.336 899.231 23.7147 898.506 24.472C897.781 25.2187 897.418 26.1413 897.418 27.24ZM909.118 33V21.64H913.166C914.222 21.64 915.07 21.9013 915.71 22.424C916.361 22.936 916.686 23.6507 916.686 24.568C916.686 25.1013 916.564 25.5813 916.318 26.008C916.073 26.4347 915.737 26.7653 915.31 27V27.032C915.908 27.2027 916.361 27.5387 916.67 28.04C916.99 28.5413 917.15 29.096 917.15 29.704C917.15 30.7813 916.777 31.6027 916.03 32.168C915.284 32.7227 914.35 33 913.23 33H909.118ZM911.182 26.28H913.182C913.62 26.28 913.961 26.1467 914.206 25.88C914.462 25.6027 914.59 25.2507 914.59 24.824C914.59 24.408 914.462 24.072 914.206 23.816C913.961 23.5493 913.609 23.416 913.15 23.416H911.182V26.28ZM911.182 31.224H913.39C913.902 31.224 914.302 31.0747 914.59 30.776C914.889 30.4667 915.038 30.0667 915.038 29.576C915.038 29.096 914.889 28.7067 914.59 28.408C914.302 28.0987 913.902 27.944 913.39 27.944H911.182V31.224ZM917.87 33L921.854 21.64H924.03L928.014 33H925.902L924.926 30.088H920.942L919.982 33H917.87ZM921.454 28.408H924.414L923.406 25.368L922.958 23.608H922.926C922.756 24.3547 922.606 24.9413 922.478 25.368L921.454 28.408ZM931.163 33V23.416H927.435V21.64H936.939V23.416H933.211V33H931.163ZM938.556 33V21.64H945.356V23.416H940.62V26.392H944.444V28.168H940.62V31.224H945.612V33H938.556ZM946.513 31.24C947.366 31.1227 947.985 30.5573 948.369 29.544C948.764 28.52 948.961 26.92 948.961 24.744V21.64H955.985V33H953.921V23.416H950.929V24.776C950.929 27.5707 950.582 29.6507 949.889 31.016C949.196 32.3707 948.07 33.0747 946.513 33.128V31.24ZM958.743 33V21.64H960.807V25.624H963.031C964.077 25.624 964.93 25.9653 965.591 26.648C966.253 27.32 966.583 28.216 966.583 29.336C966.583 30.424 966.258 31.3093 965.607 31.992C964.957 32.664 964.109 33 963.063 33H958.743ZM960.807 31.224H962.695C963.261 31.224 963.698 31.0587 964.007 30.728C964.327 30.3867 964.487 29.9227 964.487 29.336C964.487 28.7493 964.322 28.28 963.991 27.928C963.671 27.576 963.229 27.4 962.663 27.4H960.807V31.224ZM967.728 27.272C967.728 25.608 968.277 24.2213 969.376 23.112C970.474 22.0027 971.872 21.448 973.568 21.448C975.296 21.448 976.693 21.9653 977.76 23L976.768 24.536C976.352 24.184 975.861 23.896 975.296 23.672C974.741 23.448 974.197 23.336 973.664 23.336C972.469 23.336 971.536 23.7093 970.864 24.456C970.192 25.2027 969.856 26.1307 969.856 27.24C969.856 28.36 970.197 29.32 970.88 30.12C971.562 30.9093 972.496 31.304 973.68 31.304C974.896 31.304 975.994 30.824 976.976 29.864L978.064 31.352C976.858 32.5787 975.37 33.192 973.6 33.192C971.84 33.192 970.421 32.632 969.344 31.512C968.266 30.392 967.728 28.9787 967.728 27.272ZM979.837 33V21.64H981.901V26.264H983.373L986.045 21.64H988.285L985.069 27.048V27.08L988.477 33H986.141L983.373 28.04H981.901V33H979.837ZM988.792 33L992.776 21.64H994.952L998.936 33H996.824L995.848 30.088H991.864L990.904 33H988.792ZM992.376 28.408H995.336L994.328 25.368L993.88 23.608H993.848C993.677 24.3547 993.528 24.9413 993.4 25.368L992.376 28.408ZM999.342 33L1001.74 29L1002.11 28.408V28.376C1001.44 28.0773 1000.93 27.64 1000.59 27.064C1000.26 26.488 1000.09 25.8267 1000.09 25.08C1000.09 24.312 1000.26 23.6613 1000.61 23.128C1000.96 22.584 1001.42 22.1893 1002 21.944C1002.47 21.7413 1003.19 21.64 1004.16 21.64H1007.84V33H1005.77V28.76H1004.11L1001.65 33H999.342ZM1003.98 27.032H1005.77V23.416H1004.32C1003.68 23.416 1003.2 23.512 1002.89 23.704C1002.42 23.992 1002.19 24.4773 1002.19 25.16C1002.19 25.7573 1002.35 26.2213 1002.67 26.552C1002.99 26.872 1003.43 27.032 1003.98 27.032ZM1014.59 33V21.64H1018.97C1020.04 21.64 1020.91 21.9813 1021.58 22.664C1022.25 23.3467 1022.59 24.2373 1022.59 25.336C1022.59 26.4347 1022.25 27.336 1021.58 28.04C1020.91 28.7333 1020.04 29.08 1018.97 29.08H1016.65V33H1014.59ZM1016.65 27.288H1018.59C1019.18 27.288 1019.65 27.112 1019.98 26.76C1020.32 26.408 1020.49 25.9333 1020.49 25.336C1020.49 24.7493 1020.32 24.2853 1019.98 23.944C1019.65 23.592 1019.19 23.416 1018.62 23.416H1016.65V27.288ZM1022.56 33L1026.54 21.64H1028.72L1032.7 33H1030.59L1029.61 30.088H1025.63L1024.67 33H1022.56ZM1026.14 28.408H1029.1L1028.09 25.368L1027.65 23.608H1027.61C1027.44 24.3547 1027.29 24.9413 1027.17 25.368L1026.14 28.408ZM1034.21 33V21.64H1041.19V23.416H1036.28V26.04H1038.55C1039.6 26.04 1040.46 26.36 1041.11 27C1041.77 27.6293 1042.1 28.4773 1042.1 29.544C1042.1 30.568 1041.77 31.4 1041.12 32.04C1040.47 32.68 1039.63 33 1038.6 33H1034.21ZM1036.28 31.224H1038.23C1038.79 31.224 1039.23 31.0747 1039.54 30.776C1039.85 30.4773 1040 30.0667 1040 29.544C1040 29.0213 1039.84 28.6053 1039.52 28.296C1039.2 27.976 1038.76 27.816 1038.2 27.816H1036.28V31.224ZM1043.4 27.24C1043.4 25.608 1043.96 24.2373 1045.08 23.128C1046.21 22.008 1047.61 21.448 1049.27 21.448C1050.94 21.448 1052.33 22.008 1053.45 23.128C1054.58 24.2373 1055.14 25.608 1055.14 27.24C1055.14 28.9147 1054.58 30.328 1053.45 31.48C1052.33 32.6213 1050.94 33.192 1049.27 33.192C1047.61 33.192 1046.21 32.6213 1045.08 31.48C1043.96 30.328 1043.4 28.9147 1043.4 27.24ZM1045.53 27.24C1045.53 28.392 1045.89 29.3573 1046.62 30.136C1047.34 30.9147 1048.23 31.304 1049.27 31.304C1050.32 31.304 1051.2 30.9147 1051.93 30.136C1052.65 29.3573 1053.02 28.392 1053.02 27.24C1053.02 26.1413 1052.65 25.2187 1051.93 24.472C1051.2 23.7147 1050.32 23.336 1049.27 23.336C1048.23 23.336 1047.34 23.7147 1046.62 24.472C1045.89 25.2187 1045.53 26.1413 1045.53 27.24ZM1059.4 33V23.416H1055.67V21.64H1065.17V23.416H1061.45V33H1059.4ZM1064.6 33L1068.59 21.64H1070.76L1074.75 33H1072.64L1071.66 30.088H1067.68L1066.72 33H1064.6ZM1068.19 28.408H1071.15L1070.14 25.368L1069.69 23.608H1069.66C1069.49 24.3547 1069.34 24.9413 1069.21 25.368L1068.19 28.408ZM1075.43 34.52C1076.63 32.2693 1077.23 29.9387 1077.23 27.528C1077.23 25.2987 1076.63 23.1707 1075.43 21.144H1077.14C1078.41 23.1493 1079.04 25.272 1079.04 27.512C1079.04 30.104 1078.41 32.44 1077.14 34.52H1075.43Z" fill="#252525"/>
<rect x="1114" width="383" height="55" rx="27.5" fill="#F3F6FF"/>
<path d="M1142.32 33V23.416H1138.59V21.64H1148.1V23.416H1144.37V33H1142.32ZM1149.71 33V21.64H1154.1C1155.16 21.64 1156.03 21.9813 1156.7 22.664C1157.38 23.3467 1157.71 24.2373 1157.71 25.336C1157.71 26.4347 1157.38 27.336 1156.7 28.04C1156.03 28.7333 1155.16 29.08 1154.1 29.08H1151.78V33H1149.71ZM1151.78 27.288H1153.71C1154.31 27.288 1154.77 27.112 1155.1 26.76C1155.45 26.408 1155.62 25.9333 1155.62 25.336C1155.62 24.7493 1155.45 24.2853 1155.1 23.944C1154.77 23.592 1154.32 23.416 1153.74 23.416H1151.78V27.288ZM1157.68 33L1161.67 21.64H1163.84L1167.83 33H1165.71L1164.74 30.088H1160.75L1159.79 33H1157.68ZM1161.27 28.408H1164.23L1163.22 25.368L1162.77 23.608H1162.74C1162.57 24.3547 1162.42 24.9413 1162.29 25.368L1161.27 28.408ZM1169.34 33V21.64H1171.4V26.456H1176.6V21.64H1178.65V33H1176.6V28.232H1171.4V33H1169.34ZM1180.74 27.272C1180.74 25.608 1181.29 24.2213 1182.39 23.112C1183.49 22.0027 1184.89 21.448 1186.58 21.448C1188.31 21.448 1189.71 21.9653 1190.78 23L1189.78 24.536C1189.37 24.184 1188.88 23.896 1188.31 23.672C1187.76 23.448 1187.21 23.336 1186.68 23.336C1185.48 23.336 1184.55 23.7093 1183.88 24.456C1183.21 25.2027 1182.87 26.1307 1182.87 27.24C1182.87 28.36 1183.21 29.32 1183.9 30.12C1184.58 30.9093 1185.51 31.304 1186.7 31.304C1187.91 31.304 1189.01 30.824 1189.99 29.864L1191.08 31.352C1189.87 32.5787 1188.39 33.192 1186.62 33.192C1184.86 33.192 1183.44 32.632 1182.36 31.512C1181.28 30.392 1180.74 28.9787 1180.74 27.272ZM1195.43 33V23.416H1191.7V21.64H1201.2V23.416H1197.48V33H1195.43ZM1201.74 27.24C1201.74 25.608 1202.3 24.2373 1203.42 23.128C1204.55 22.008 1205.95 21.448 1207.62 21.448C1209.28 21.448 1210.67 22.008 1211.79 23.128C1212.92 24.2373 1213.49 25.608 1213.49 27.24C1213.49 28.9147 1212.92 30.328 1211.79 31.48C1210.67 32.6213 1209.28 33.192 1207.62 33.192C1205.95 33.192 1204.55 32.6213 1203.42 31.48C1202.3 30.328 1201.74 28.9147 1201.74 27.24ZM1203.87 27.24C1203.87 28.392 1204.23 29.3573 1204.96 30.136C1205.68 30.9147 1206.57 31.304 1207.62 31.304C1208.66 31.304 1209.55 30.9147 1210.27 30.136C1211 29.3573 1211.36 28.392 1211.36 27.24C1211.36 26.1413 1211 25.2187 1210.27 24.472C1209.55 23.7147 1208.66 23.336 1207.62 23.336C1206.57 23.336 1205.68 23.7147 1204.96 24.472C1204.23 25.2187 1203.87 26.1413 1203.87 27.24ZM1215.57 33V21.64H1219.96C1221.02 21.64 1221.89 21.9813 1222.56 22.664C1223.24 23.3467 1223.57 24.2373 1223.57 25.336C1223.57 26.4347 1223.24 27.336 1222.56 28.04C1221.89 28.7333 1221.02 29.08 1219.96 29.08H1217.64V33H1215.57ZM1217.64 27.288H1219.57C1220.17 27.288 1220.63 27.112 1220.96 26.76C1221.3 26.408 1221.48 25.9333 1221.48 25.336C1221.48 24.7493 1221.3 24.2853 1220.96 23.944C1220.63 23.592 1220.18 23.416 1219.6 23.416H1217.64V27.288ZM1223.54 33L1227.53 21.64H1229.7L1233.69 33H1231.57L1230.6 30.088H1226.61L1225.65 33H1223.54ZM1227.13 28.408H1230.09L1229.08 25.368L1228.63 23.608H1228.6C1228.43 24.3547 1228.28 24.9413 1228.15 25.368L1227.13 28.408ZM1235.2 33V21.64H1237.26V26.264H1238.73L1241.4 21.64H1243.64L1240.43 27.048V27.08L1243.84 33H1241.5L1238.73 28.04H1237.26V33H1235.2ZM1244.15 33L1248.14 21.64H1250.31L1254.3 33H1252.18L1251.21 30.088H1247.22L1246.26 33H1244.15ZM1247.74 28.408H1250.7L1249.69 25.368L1249.24 23.608H1249.21C1249.04 24.3547 1248.89 24.9413 1248.76 25.368L1247.74 28.408ZM1254.65 31.24C1255.51 31.1227 1256.13 30.5573 1256.51 29.544C1256.9 28.52 1257.1 26.92 1257.1 24.744V21.64H1264.13V33H1262.06V23.416H1259.07V24.776C1259.07 27.5707 1258.72 29.6507 1258.03 31.016C1257.34 32.3707 1256.21 33.0747 1254.65 33.128V31.24ZM1266.88 33V21.64H1268.95V25.624H1271.17C1272.22 25.624 1273.07 25.9653 1273.73 26.648C1274.39 27.32 1274.72 28.216 1274.72 29.336C1274.72 30.424 1274.4 31.3093 1273.75 31.992C1273.1 32.664 1272.25 33 1271.2 33H1266.88ZM1268.95 31.224H1270.84C1271.4 31.224 1271.84 31.0587 1272.15 30.728C1272.47 30.3867 1272.63 29.9227 1272.63 29.336C1272.63 28.7493 1272.46 28.28 1272.13 27.928C1271.81 27.576 1271.37 27.4 1270.8 27.4H1268.95V31.224ZM1276.52 33V21.64H1278.59V26.456H1283.79V21.64H1285.84V33H1283.79V28.232H1278.59V33H1276.52ZM1287.34 33L1291.32 21.64H1293.5L1297.48 33H1295.37L1294.39 30.088H1290.41L1289.45 33H1287.34ZM1290.92 28.408H1293.88L1292.87 25.368L1292.43 23.608H1292.39C1292.22 24.3547 1292.07 24.9413 1291.95 25.368L1290.92 28.408ZM1297.89 33L1300.29 29L1300.66 28.408V28.376C1299.99 28.0773 1299.48 27.64 1299.14 27.064C1298.81 26.488 1298.64 25.8267 1298.64 25.08C1298.64 24.312 1298.81 23.6613 1299.15 23.128C1299.51 22.584 1299.97 22.1893 1300.55 21.944C1301.01 21.7413 1301.73 21.64 1302.71 21.64H1306.39V33H1304.32V28.76H1302.66L1300.19 33H1297.89ZM1302.53 27.032H1304.32V23.416H1302.87C1302.23 23.416 1301.75 23.512 1301.44 23.704C1300.97 23.992 1300.74 24.4773 1300.74 25.16C1300.74 25.7573 1300.9 26.2213 1301.22 26.552C1301.54 26.872 1301.97 27.032 1302.53 27.032ZM1312.21 31.448L1313.25 29.992C1313.66 30.3867 1314.17 30.7067 1314.77 30.952C1315.36 31.1973 1315.98 31.32 1316.62 31.32C1317.62 31.32 1318.46 31.0213 1319.12 30.424C1319.78 29.8267 1320.18 29.0693 1320.32 28.152H1314.88V26.472H1320.33C1320.22 25.5547 1319.82 24.8027 1319.15 24.216C1318.48 23.6187 1317.64 23.32 1316.64 23.32C1315.46 23.32 1314.39 23.7467 1313.41 24.6L1312.41 23.048C1312.93 22.5253 1313.56 22.1307 1314.32 21.864C1315.08 21.5867 1315.87 21.448 1316.7 21.448C1318.44 21.448 1319.84 22.0027 1320.91 23.112C1321.98 24.2213 1322.51 25.6027 1322.51 27.256C1322.51 28.952 1321.96 30.3653 1320.85 31.496C1319.74 32.6267 1318.33 33.192 1316.62 33.192C1314.89 33.192 1313.42 32.6107 1312.21 31.448ZM1323.01 33L1326.53 27.24L1323.14 21.64H1325.49L1327.06 24.424L1327.76 25.8H1327.8C1328.01 25.3307 1328.24 24.872 1328.5 24.424L1330.08 21.64H1332.44L1329.03 27.24L1332.56 33H1330.26L1328.48 29.944L1327.78 28.6H1327.75C1327.54 29.0587 1327.31 29.5067 1327.06 29.944L1325.3 33H1323.01ZM1333.06 27.24C1333.06 25.608 1333.62 24.2373 1334.74 23.128C1335.87 22.008 1337.26 21.448 1338.93 21.448C1340.59 21.448 1341.98 22.008 1343.1 23.128C1344.23 24.2373 1344.8 25.608 1344.8 27.24C1344.8 28.9147 1344.23 30.328 1343.1 31.48C1341.98 32.6213 1340.59 33.192 1338.93 33.192C1337.26 33.192 1335.87 32.6213 1334.74 31.48C1333.62 30.328 1333.06 28.9147 1333.06 27.24ZM1335.18 27.24C1335.18 28.392 1335.55 29.3573 1336.27 30.136C1337 30.9147 1337.88 31.304 1338.93 31.304C1339.97 31.304 1340.86 30.9147 1341.58 30.136C1342.31 29.3573 1342.67 28.392 1342.67 27.24C1342.67 26.1413 1342.31 25.2187 1341.58 24.472C1340.86 23.7147 1339.97 23.336 1338.93 23.336C1337.88 23.336 1337 23.7147 1336.27 24.472C1335.55 25.2187 1335.18 26.1413 1335.18 27.24ZM1346.88 33V21.64H1348.95V26.264H1350.42L1353.09 21.64H1355.33L1352.12 27.048V27.08L1355.52 33H1353.19L1350.42 28.04H1348.95V33H1346.88ZM1355.84 33L1359.82 21.64H1362L1365.98 33H1363.87L1362.89 30.088H1358.91L1357.95 33H1355.84ZM1359.42 28.408H1362.38L1361.37 25.368L1360.93 23.608H1360.89C1360.72 24.3547 1360.57 24.9413 1360.45 25.368L1359.42 28.408ZM1367.49 33V21.64H1371.88C1372.94 21.64 1373.81 21.9813 1374.49 22.664C1375.16 23.3467 1375.49 24.2373 1375.49 25.336C1375.49 26.4347 1375.16 27.336 1374.49 28.04C1373.81 28.7333 1372.94 29.08 1371.88 29.08H1369.56V33H1367.49ZM1369.56 27.288H1371.49C1372.09 27.288 1372.55 27.112 1372.89 26.76C1373.23 26.408 1373.4 25.9333 1373.4 25.336C1373.4 24.7493 1373.23 24.2853 1372.89 23.944C1372.55 23.592 1372.1 23.416 1371.53 23.416H1369.56V27.288ZM1378.59 31.224H1383.1V23.416H1380.06V24.264C1380.06 27.3147 1379.57 29.6347 1378.59 31.224ZM1375.31 31.224H1376.46C1377.56 29.56 1378.11 27.192 1378.11 24.12V21.64H1385.16V31.224H1386.43V35.24H1384.59V33H1377.21V35.24H1375.31V31.224ZM1388.42 33V21.64H1390.48V28.2L1390.37 29.96H1390.4C1390.76 29.224 1391.08 28.632 1391.36 28.184L1395.65 21.64H1397.7V33H1395.65V26.456L1395.76 24.696H1395.73C1395.38 25.4213 1395.06 26.008 1394.78 26.456L1390.46 33H1388.42ZM1399.21 33L1403.2 21.64H1405.37L1409.36 33H1407.25L1406.27 30.088H1402.29L1401.33 33H1399.21ZM1402.8 28.408H1405.76L1404.75 25.368L1404.3 23.608H1404.27C1404.1 24.3547 1403.95 24.9413 1403.82 25.368L1402.8 28.408ZM1410.87 33V21.64H1417.4V23.416H1412.93V33H1410.87ZM1418.96 33V21.64H1423.35C1424.41 21.64 1425.28 21.9813 1425.95 22.664C1426.63 23.3467 1426.96 24.2373 1426.96 25.336C1426.96 26.4347 1426.63 27.336 1425.95 28.04C1425.28 28.7333 1424.41 29.08 1423.35 29.08H1421.03V33H1418.96ZM1421.03 27.288H1422.96C1423.56 27.288 1424.02 27.112 1424.35 26.76C1424.7 26.408 1424.87 25.9333 1424.87 25.336C1424.87 24.7493 1424.7 24.2853 1424.35 23.944C1424.02 23.592 1423.57 23.416 1422.99 23.416H1421.03V27.288ZM1426.93 33L1430.92 21.64H1433.09L1437.08 33H1434.96L1433.99 30.088H1430L1429.04 33H1426.93ZM1430.52 28.408H1433.48L1432.47 25.368L1432.02 23.608H1431.99C1431.82 24.3547 1431.67 24.9413 1431.54 25.368L1430.52 28.408ZM1437.46 26.952C1437.46 25.5653 1437.94 24.4347 1438.9 23.56C1439.87 22.6853 1441.12 22.248 1442.66 22.248V21H1444.72V22.248C1446.26 22.248 1447.51 22.6853 1448.47 23.56C1449.44 24.4347 1449.92 25.5653 1449.92 26.952C1449.92 28.3707 1449.44 29.528 1448.48 30.424C1447.52 31.3093 1446.27 31.752 1444.72 31.752V33.192H1442.66V31.752C1441.12 31.752 1439.87 31.304 1438.9 30.408C1437.94 29.512 1437.46 28.36 1437.46 26.952ZM1444.72 30.024C1445.64 30.024 1446.39 29.7413 1446.96 29.176C1447.54 28.6 1447.83 27.8587 1447.83 26.952C1447.83 26.0667 1447.54 25.352 1446.96 24.808C1446.39 24.2533 1445.64 23.976 1444.72 23.976V30.024ZM1439.57 26.952C1439.57 27.8587 1439.85 28.6 1440.42 29.176C1440.99 29.7413 1441.74 30.024 1442.66 30.024V23.976C1441.74 23.976 1440.99 24.2533 1440.42 24.808C1439.85 25.352 1439.57 26.0667 1439.57 26.952ZM1451.82 33V21.64H1453.89V28.2L1453.77 29.96H1453.81C1454.17 29.224 1454.49 28.632 1454.77 28.184L1459.05 21.64H1461.1V33H1459.05V26.456L1459.17 24.696H1459.13C1458.78 25.4213 1458.47 26.008 1458.19 26.456L1453.87 33H1451.82ZM1462.76 33L1465.16 29L1465.53 28.408V28.376C1464.86 28.0773 1464.35 27.64 1464.01 27.064C1463.68 26.488 1463.52 25.8267 1463.52 25.08C1463.52 24.312 1463.69 23.6613 1464.03 23.128C1464.38 22.584 1464.84 22.1893 1465.42 21.944C1465.89 21.7413 1466.61 21.64 1467.58 21.64H1471.26V33H1469.2V28.76H1467.53L1465.07 33H1462.76ZM1467.4 27.032H1469.2V23.416H1467.74C1467.1 23.416 1466.63 23.512 1466.32 23.704C1465.85 23.992 1465.61 24.4773 1465.61 25.16C1465.61 25.7573 1465.77 26.2213 1466.09 26.552C1466.41 26.872 1466.85 27.032 1467.4 27.032Z" fill="#005DFF"/>
<rect x="1507" width="227" height="55" rx="27.5" fill="#F3F6FF"/>
<path d="M1531.67 26.952C1531.67 25.5653 1532.15 24.4347 1533.11 23.56C1534.08 22.6853 1535.33 22.248 1536.87 22.248V21H1538.93V22.248C1540.47 22.248 1541.72 22.6853 1542.68 23.56C1543.65 24.4347 1544.13 25.5653 1544.13 26.952C1544.13 28.3707 1543.65 29.528 1542.69 30.424C1541.73 31.3093 1540.48 31.752 1538.93 31.752V33.192H1536.87V31.752C1535.33 31.752 1534.08 31.304 1533.11 30.408C1532.15 29.512 1531.67 28.36 1531.67 26.952ZM1538.93 30.024C1539.85 30.024 1540.6 29.7413 1541.17 29.176C1541.75 28.6 1542.04 27.8587 1542.04 26.952C1542.04 26.0667 1541.75 25.352 1541.17 24.808C1540.6 24.2533 1539.85 23.976 1538.93 23.976V30.024ZM1533.78 26.952C1533.78 27.8587 1534.06 28.6 1534.63 29.176C1535.2 29.7413 1535.95 30.024 1536.87 30.024V23.976C1535.95 23.976 1535.2 24.2533 1534.63 24.808C1534.06 25.352 1533.78 26.0667 1533.78 26.952ZM1546.03 33V21.64H1548.1V28.2L1547.98 29.96H1548.02C1548.38 29.224 1548.7 28.632 1548.98 28.184L1553.26 21.64H1555.31V33H1553.26V26.456L1553.38 24.696H1553.34C1552.99 25.4213 1552.68 26.008 1552.4 26.456L1548.08 33H1546.03ZM1557.06 31.576L1558.18 30.2C1558.48 30.5307 1558.87 30.808 1559.33 31.032C1559.79 31.256 1560.26 31.368 1560.74 31.368C1561.35 31.368 1561.84 31.2133 1562.21 30.904C1562.57 30.5947 1562.75 30.168 1562.75 29.624C1562.75 29.1333 1562.59 28.7493 1562.26 28.472C1561.94 28.184 1561.5 28.04 1560.94 28.04H1559.55V26.376H1560.67C1561.18 26.376 1561.6 26.2267 1561.94 25.928C1562.27 25.6293 1562.43 25.256 1562.43 24.808C1562.43 24.3493 1562.28 23.976 1561.98 23.688C1561.68 23.3893 1561.25 23.24 1560.69 23.24C1559.82 23.24 1559 23.56 1558.22 24.2L1557.39 22.696C1558.39 21.864 1559.61 21.448 1561.04 21.448C1562.01 21.448 1562.83 21.7253 1563.5 22.28C1564.19 22.8347 1564.53 23.592 1564.53 24.552C1564.53 25.672 1564 26.5147 1562.96 27.08V27.112C1563.55 27.2933 1564.01 27.6133 1564.35 28.072C1564.69 28.5307 1564.86 29.0907 1564.86 29.752C1564.86 30.7973 1564.48 31.6347 1563.73 32.264C1562.98 32.8827 1562.05 33.192 1560.93 33.192C1560.2 33.192 1559.49 33.0533 1558.8 32.776C1558.12 32.488 1557.54 32.088 1557.06 31.576ZM1566.95 33V21.64H1569.02V28.2L1568.91 29.96H1568.94C1569.3 29.224 1569.62 28.632 1569.9 28.184L1574.19 21.64H1576.23V33H1574.19V26.456L1574.3 24.696H1574.27C1573.91 25.4213 1573.6 26.008 1573.32 26.456L1569 33H1566.95ZM1579 33V21.64H1581.07V26.264H1582.54L1585.21 21.64H1587.45L1584.23 27.048V27.08L1587.64 33H1585.31L1582.54 28.04H1581.07V33H1579ZM1587.96 33L1591.94 21.64H1594.12L1598.1 33H1595.99L1595.01 30.088H1591.03L1590.07 33H1587.96ZM1591.54 28.408H1594.5L1593.49 25.368L1593.04 23.608H1593.01C1592.84 24.3547 1592.69 24.9413 1592.56 25.368L1591.54 28.408ZM1603.31 32.408L1604.22 30.856C1604.7 31.2293 1605.13 31.416 1605.5 31.416C1606 31.416 1606.38 31.0853 1606.63 30.424L1602.19 21.64H1604.46L1606.87 26.712L1607.51 28.216H1607.55C1607.69 27.7147 1607.84 27.2187 1608.01 26.728L1609.83 21.64H1611.99L1608.49 30.616C1608.35 30.968 1608.21 31.2773 1608.06 31.544C1607.91 31.8107 1607.72 32.0773 1607.48 32.344C1607.25 32.6107 1606.97 32.8187 1606.65 32.968C1606.33 33.1173 1605.97 33.192 1605.58 33.192C1604.81 33.192 1604.05 32.9307 1603.31 32.408ZM1611.57 31.24C1612.42 31.1227 1613.04 30.5573 1613.42 29.544C1613.82 28.52 1614.02 26.92 1614.02 24.744V21.64H1621.04V33H1618.98V23.416H1615.98V24.776C1615.98 27.5707 1615.64 29.6507 1614.94 31.016C1614.25 32.3707 1613.13 33.0747 1611.57 33.128V31.24ZM1623.8 33V21.64H1625.86V25.624H1628.09C1629.13 25.624 1629.98 25.9653 1630.65 26.648C1631.31 27.32 1631.64 28.216 1631.64 29.336C1631.64 30.424 1631.31 31.3093 1630.66 31.992C1630.01 32.664 1629.16 33 1628.12 33H1623.8ZM1625.86 31.224H1627.75C1628.32 31.224 1628.75 31.0587 1629.06 30.728C1629.38 30.3867 1629.54 29.9227 1629.54 29.336C1629.54 28.7493 1629.38 28.28 1629.05 27.928C1628.73 27.576 1628.28 27.4 1627.72 27.4H1625.86V31.224ZM1634.95 33V23.416H1631.22V21.64H1640.73V23.416H1637V33H1634.95ZM1642.34 33V21.64H1646.73C1647.8 21.64 1648.66 21.9813 1649.34 22.664C1650.01 23.3467 1650.34 24.2373 1650.34 25.336C1650.34 26.4347 1650.01 27.336 1649.34 28.04C1648.66 28.7333 1647.8 29.08 1646.73 29.08H1644.41V33H1642.34ZM1644.41 27.288H1646.34C1646.94 27.288 1647.41 27.112 1647.74 26.76C1648.08 26.408 1648.25 25.9333 1648.25 25.336C1648.25 24.7493 1648.08 24.2853 1647.74 23.944C1647.41 23.592 1646.95 23.416 1646.38 23.416H1644.41V27.288ZM1650.32 33L1654.3 21.64H1656.48L1660.46 33H1658.35L1657.37 30.088H1653.39L1652.43 33H1650.32ZM1653.9 28.408H1656.86L1655.85 25.368L1655.4 23.608H1655.37C1655.2 24.3547 1655.05 24.9413 1654.92 25.368L1653.9 28.408ZM1660.95 31.576L1662.07 30.2C1662.38 30.5307 1662.76 30.808 1663.22 31.032C1663.68 31.256 1664.15 31.368 1664.63 31.368C1665.24 31.368 1665.74 31.2133 1666.1 30.904C1666.46 30.5947 1666.64 30.168 1666.64 29.624C1666.64 29.1333 1666.48 28.7493 1666.15 28.472C1665.83 28.184 1665.39 28.04 1664.83 28.04H1663.44V26.376H1664.56C1665.07 26.376 1665.5 26.2267 1665.83 25.928C1666.16 25.6293 1666.32 25.256 1666.32 24.808C1666.32 24.3493 1666.17 23.976 1665.87 23.688C1665.58 23.3893 1665.14 23.24 1664.58 23.24C1663.71 23.24 1662.89 23.56 1662.11 24.2L1661.28 22.696C1662.28 21.864 1663.5 21.448 1664.93 21.448C1665.9 21.448 1666.72 21.7253 1667.39 22.28C1668.08 22.8347 1668.42 23.592 1668.42 24.552C1668.42 25.672 1667.9 26.5147 1666.85 27.08V27.112C1667.44 27.2933 1667.9 27.6133 1668.24 28.072C1668.58 28.5307 1668.75 29.0907 1668.75 29.752C1668.75 30.7973 1668.38 31.6347 1667.62 32.264C1666.87 32.8827 1665.94 33.192 1664.82 33.192C1664.09 33.192 1663.38 33.0533 1662.69 32.776C1662.01 32.488 1661.43 32.088 1660.95 31.576ZM1670.84 33V21.64H1674.89C1675.95 21.64 1676.8 21.9013 1677.44 22.424C1678.09 22.936 1678.41 23.6507 1678.41 24.568C1678.41 25.1013 1678.29 25.5813 1678.04 26.008C1677.8 26.4347 1677.46 26.7653 1677.04 27V27.032C1677.63 27.2027 1678.09 27.5387 1678.4 28.04C1678.72 28.5413 1678.88 29.096 1678.88 29.704C1678.88 30.7813 1678.5 31.6027 1677.76 32.168C1677.01 32.7227 1676.08 33 1674.96 33H1670.84ZM1672.91 26.28H1674.91C1675.35 26.28 1675.69 26.1467 1675.93 25.88C1676.19 25.6027 1676.32 25.2507 1676.32 24.824C1676.32 24.408 1676.19 24.072 1675.93 23.816C1675.69 23.5493 1675.34 23.416 1674.88 23.416H1672.91V26.28ZM1672.91 31.224H1675.12C1675.63 31.224 1676.03 31.0747 1676.32 30.776C1676.62 30.4667 1676.76 30.0667 1676.76 29.576C1676.76 29.096 1676.62 28.7067 1676.32 28.408C1676.03 28.0987 1675.63 27.944 1675.12 27.944H1672.91V31.224ZM1680.53 32.408L1681.44 30.856C1681.92 31.2293 1682.34 31.416 1682.72 31.416C1683.22 31.416 1683.6 31.0853 1683.85 30.424L1679.41 21.64H1681.68L1684.09 26.712L1684.73 28.216H1684.77C1684.9 27.7147 1685.06 27.2187 1685.23 26.728L1687.05 21.64H1689.21L1685.71 30.616C1685.57 30.968 1685.43 31.2773 1685.28 31.544C1685.13 31.8107 1684.94 32.0773 1684.7 32.344C1684.47 32.6107 1684.19 32.8187 1683.87 32.968C1683.55 33.1173 1683.19 33.192 1682.8 33.192C1682.03 33.192 1681.27 32.9307 1680.53 32.408ZM1690.63 33V21.64H1692.69V26.264H1694.16L1696.83 21.64H1699.07L1695.86 27.048V27.08L1699.27 33H1696.93L1694.16 28.04H1692.69V33H1690.63ZM1699.58 33L1703.57 21.64H1705.74L1709.73 33H1707.61L1706.64 30.088H1702.65L1701.69 33H1699.58ZM1703.17 28.408H1706.13L1705.12 25.368L1704.67 23.608H1704.64C1704.47 24.3547 1704.32 24.9413 1704.19 25.368L1703.17 28.408Z" fill="#252525"/>
<rect x="1744" width="776" height="55" rx="27.5" fill="#F3F6FF"/>
<path d="M1769.15 32.408L1770.06 30.856C1770.54 31.2293 1770.97 31.416 1771.34 31.416C1771.84 31.416 1772.22 31.0853 1772.48 30.424L1768.03 21.64H1770.3L1772.72 26.712L1773.36 28.216H1773.39C1773.53 27.7147 1773.68 27.2187 1773.85 26.728L1775.68 21.64H1777.84L1774.33 30.616C1774.2 30.968 1774.05 31.2773 1773.9 31.544C1773.75 31.8107 1773.56 32.0773 1773.33 32.344C1773.09 32.6107 1772.81 32.8187 1772.49 32.968C1772.17 33.1173 1771.82 33.192 1771.42 33.192C1770.65 33.192 1769.9 32.9307 1769.15 32.408ZM1777.41 31.24C1778.26 31.1227 1778.88 30.5573 1779.27 29.544C1779.66 28.52 1779.86 26.92 1779.86 24.744V21.64H1786.88V33H1784.82V23.416H1781.83V24.776C1781.83 27.5707 1781.48 29.6507 1780.79 31.016C1780.09 32.3707 1778.97 33.0747 1777.41 33.128V31.24ZM1789.64 33V21.64H1791.71V25.624H1793.93C1794.97 25.624 1795.83 25.9653 1796.49 26.648C1797.15 27.32 1797.48 28.216 1797.48 29.336C1797.48 30.424 1797.16 31.3093 1796.51 31.992C1795.85 32.664 1795.01 33 1793.96 33H1789.64ZM1791.71 31.224H1793.59C1794.16 31.224 1794.6 31.0587 1794.91 30.728C1795.23 30.3867 1795.39 29.9227 1795.39 29.336C1795.39 28.7493 1795.22 28.28 1794.89 27.928C1794.57 27.576 1794.13 27.4 1793.56 27.4H1791.71V31.224ZM1800.8 33V23.416H1797.07V21.64H1806.57V23.416H1802.84V33H1800.8ZM1808.19 33V21.64H1812.57C1813.64 21.64 1814.51 21.9813 1815.18 22.664C1815.85 23.3467 1816.19 24.2373 1816.19 25.336C1816.19 26.4347 1815.85 27.336 1815.18 28.04C1814.51 28.7333 1813.64 29.08 1812.57 29.08H1810.25V33H1808.19ZM1810.25 27.288H1812.19C1812.79 27.288 1813.25 27.112 1813.58 26.76C1813.92 26.408 1814.09 25.9333 1814.09 25.336C1814.09 24.7493 1813.92 24.2853 1813.58 23.944C1813.25 23.592 1812.8 23.416 1812.22 23.416H1810.25V27.288ZM1816.16 33L1820.14 21.64H1822.32L1826.3 33H1824.19L1823.22 30.088H1819.23L1818.27 33H1816.16ZM1819.74 28.408H1822.7L1821.7 25.368L1821.25 23.608H1821.22C1821.04 24.3547 1820.9 24.9413 1820.77 25.368L1819.74 28.408ZM1826.79 31.576L1827.91 30.2C1828.22 30.5307 1828.6 30.808 1829.06 31.032C1829.52 31.256 1829.99 31.368 1830.47 31.368C1831.09 31.368 1831.58 31.2133 1831.94 30.904C1832.3 30.5947 1832.49 30.168 1832.49 29.624C1832.49 29.1333 1832.32 28.7493 1831.99 28.472C1831.67 28.184 1831.23 28.04 1830.68 28.04H1829.29V26.376H1830.41C1830.92 26.376 1831.34 26.2267 1831.67 25.928C1832 25.6293 1832.17 25.256 1832.17 24.808C1832.17 24.3493 1832.02 23.976 1831.72 23.688C1831.42 23.3893 1830.99 23.24 1830.42 23.24C1829.56 23.24 1828.74 23.56 1827.96 24.2L1827.13 22.696C1828.13 21.864 1829.34 21.448 1830.77 21.448C1831.74 21.448 1832.57 21.7253 1833.24 22.28C1833.92 22.8347 1834.26 23.592 1834.26 24.552C1834.26 25.672 1833.74 26.5147 1832.69 27.08V27.112C1833.28 27.2933 1833.74 27.6133 1834.09 28.072C1834.43 28.5307 1834.6 29.0907 1834.6 29.752C1834.6 30.7973 1834.22 31.6347 1833.46 32.264C1832.71 32.8827 1831.78 33.192 1830.66 33.192C1829.94 33.192 1829.23 33.0533 1828.53 32.776C1827.85 32.488 1827.27 32.088 1826.79 31.576ZM1836.69 33V21.64H1840.74C1841.79 21.64 1842.64 21.9013 1843.28 22.424C1843.93 22.936 1844.26 23.6507 1844.26 24.568C1844.26 25.1013 1844.13 25.5813 1843.89 26.008C1843.64 26.4347 1843.31 26.7653 1842.88 27V27.032C1843.48 27.2027 1843.93 27.5387 1844.24 28.04C1844.56 28.5413 1844.72 29.096 1844.72 29.704C1844.72 30.7813 1844.35 31.6027 1843.6 32.168C1842.85 32.7227 1841.92 33 1840.8 33H1836.69ZM1838.75 26.28H1840.75C1841.19 26.28 1841.53 26.1467 1841.78 25.88C1842.03 25.6027 1842.16 25.2507 1842.16 24.824C1842.16 24.408 1842.03 24.072 1841.78 23.816C1841.53 23.5493 1841.18 23.416 1840.72 23.416H1838.75V26.28ZM1838.75 31.224H1840.96C1841.47 31.224 1841.87 31.0747 1842.16 30.776C1842.46 30.4667 1842.61 30.0667 1842.61 29.576C1842.61 29.096 1842.46 28.7067 1842.16 28.408C1841.87 28.0987 1841.47 27.944 1840.96 27.944H1838.75V31.224ZM1846.37 32.408L1847.28 30.856C1847.76 31.2293 1848.19 31.416 1848.56 31.416C1849.06 31.416 1849.44 31.0853 1849.7 30.424L1845.25 21.64H1847.52L1849.94 26.712L1850.58 28.216H1850.61C1850.75 27.7147 1850.9 27.2187 1851.07 26.728L1852.9 21.64H1855.06L1851.55 30.616C1851.41 30.968 1851.27 31.2773 1851.12 31.544C1850.97 31.8107 1850.78 32.0773 1850.54 32.344C1850.31 32.6107 1850.03 32.8187 1849.71 32.968C1849.39 33.1173 1849.04 33.192 1848.64 33.192C1847.87 33.192 1847.12 32.9307 1846.37 32.408ZM1856.47 33V21.64H1858.53V26.264H1860.01L1862.68 21.64H1864.92L1861.7 27.048V27.08L1865.11 33H1862.77L1860.01 28.04H1858.53V33H1856.47ZM1865.7 27.24C1865.7 25.608 1866.26 24.2373 1867.38 23.128C1868.51 22.008 1869.91 21.448 1871.58 21.448C1873.24 21.448 1874.63 22.008 1875.75 23.128C1876.88 24.2373 1877.45 25.608 1877.45 27.24C1877.45 28.9147 1876.88 30.328 1875.75 31.48C1874.63 32.6213 1873.24 33.192 1871.58 33.192C1869.91 33.192 1868.51 32.6213 1867.38 31.48C1866.26 30.328 1865.7 28.9147 1865.7 27.24ZM1867.83 27.24C1867.83 28.392 1868.19 29.3573 1868.92 30.136C1869.65 30.9147 1870.53 31.304 1871.58 31.304C1872.62 31.304 1873.51 30.9147 1874.23 30.136C1874.96 29.3573 1875.32 28.392 1875.32 27.24C1875.32 26.1413 1874.96 25.2187 1874.23 24.472C1873.51 23.7147 1872.62 23.336 1871.58 23.336C1870.53 23.336 1869.65 23.7147 1868.92 24.472C1868.19 25.2187 1867.83 26.1413 1867.83 27.24ZM1879.53 33V21.64H1883.58C1884.64 21.64 1885.48 21.9013 1886.12 22.424C1886.77 22.936 1887.1 23.6507 1887.1 24.568C1887.1 25.1013 1886.98 25.5813 1886.73 26.008C1886.49 26.4347 1886.15 26.7653 1885.72 27V27.032C1886.32 27.2027 1886.77 27.5387 1887.08 28.04C1887.4 28.5413 1887.56 29.096 1887.56 29.704C1887.56 30.7813 1887.19 31.6027 1886.44 32.168C1885.7 32.7227 1884.76 33 1883.64 33H1879.53ZM1881.6 26.28H1883.6C1884.03 26.28 1884.37 26.1467 1884.62 25.88C1884.88 25.6027 1885 25.2507 1885 24.824C1885 24.408 1884.88 24.072 1884.62 23.816C1884.37 23.5493 1884.02 23.416 1883.56 23.416H1881.6V26.28ZM1881.6 31.224H1883.8C1884.32 31.224 1884.72 31.0747 1885 30.776C1885.3 30.4667 1885.45 30.0667 1885.45 29.576C1885.45 29.096 1885.3 28.7067 1885 28.408C1884.72 28.0987 1884.32 27.944 1883.8 27.944H1881.6V31.224ZM1888.28 33L1892.27 21.64H1894.44L1898.43 33H1896.32L1895.34 30.088H1891.36L1890.4 33H1888.28ZM1891.87 28.408H1894.83L1893.82 25.368L1893.37 23.608H1893.34C1893.17 24.3547 1893.02 24.9413 1892.89 25.368L1891.87 28.408ZM1898.83 33L1901.23 29L1901.6 28.408V28.376C1900.93 28.0773 1900.42 27.64 1900.08 27.064C1899.75 26.488 1899.59 25.8267 1899.59 25.08C1899.59 24.312 1899.76 23.6613 1900.1 23.128C1900.45 22.584 1900.91 22.1893 1901.49 21.944C1901.96 21.7413 1902.68 21.64 1903.65 21.64H1907.33V33H1905.27V28.76H1903.6L1901.14 33H1898.83ZM1903.47 27.032H1905.27V23.416H1903.81C1903.17 23.416 1902.7 23.512 1902.39 23.704C1901.92 23.992 1901.68 24.4773 1901.68 25.16C1901.68 25.7573 1901.84 26.2213 1902.16 26.552C1902.48 26.872 1902.92 27.032 1903.47 27.032ZM1916.1 31.224H1920.61V23.416H1917.57V24.264C1917.57 27.3147 1917.08 29.6347 1916.1 31.224ZM1912.82 31.224H1913.97C1915.07 29.56 1915.62 27.192 1915.62 24.12V21.64H1922.67V31.224H1923.94V35.24H1922.1V33H1914.72V35.24H1912.82V31.224ZM1925.92 33V21.64H1927.99V28.2L1927.87 29.96H1927.91C1928.27 29.224 1928.59 28.632 1928.87 28.184L1933.15 21.64H1935.2V33H1933.15V26.456L1933.27 24.696H1933.23C1932.88 25.4213 1932.57 26.008 1932.29 26.456L1927.97 33H1925.92ZM1936.72 33L1940.71 21.64H1942.88L1946.87 33H1944.75L1943.78 30.088H1939.79L1938.83 33H1936.72ZM1940.31 28.408H1943.27L1942.26 25.368L1941.81 23.608H1941.78C1941.61 24.3547 1941.46 24.9413 1941.33 25.368L1940.31 28.408ZM1948.38 33V21.64H1954.9V23.416H1950.44V33H1948.38ZM1956.47 33V21.64H1958.53V26.456H1963.73V21.64H1965.78V33H1963.73V28.232H1958.53V33H1956.47ZM1967.86 27.24C1967.86 25.608 1968.42 24.2373 1969.54 23.128C1970.67 22.008 1972.07 21.448 1973.73 21.448C1975.4 21.448 1976.79 22.008 1977.91 23.128C1979.04 24.2373 1979.6 25.608 1979.6 27.24C1979.6 28.9147 1979.04 30.328 1977.91 31.48C1976.79 32.6213 1975.4 33.192 1973.73 33.192C1972.07 33.192 1970.67 32.6213 1969.54 31.48C1968.42 30.328 1967.86 28.9147 1967.86 27.24ZM1969.99 27.24C1969.99 28.392 1970.35 29.3573 1971.08 30.136C1971.8 30.9147 1972.69 31.304 1973.73 31.304C1974.78 31.304 1975.66 30.9147 1976.39 30.136C1977.11 29.3573 1977.48 28.392 1977.48 27.24C1977.48 26.1413 1977.11 25.2187 1976.39 24.472C1975.66 23.7147 1974.78 23.336 1973.73 23.336C1972.69 23.336 1971.8 23.7147 1971.08 24.472C1970.35 25.2187 1969.99 26.1413 1969.99 27.24ZM1981.03 27.272C1981.03 25.608 1981.58 24.2213 1982.68 23.112C1983.78 22.0027 1985.18 21.448 1986.87 21.448C1988.6 21.448 1990 21.9653 1991.06 23L1990.07 24.536C1989.66 24.184 1989.17 23.896 1988.6 23.672C1988.05 23.448 1987.5 23.336 1986.97 23.336C1985.77 23.336 1984.84 23.7093 1984.17 24.456C1983.5 25.2027 1983.16 26.1307 1983.16 27.24C1983.16 28.36 1983.5 29.32 1984.18 30.12C1984.87 30.9093 1985.8 31.304 1986.98 31.304C1988.2 31.304 1989.3 30.824 1990.28 29.864L1991.37 31.352C1990.16 32.5787 1988.68 33.192 1986.9 33.192C1985.14 33.192 1983.73 32.632 1982.65 31.512C1981.57 30.392 1981.03 28.9787 1981.03 27.272ZM1995.72 33V23.416H1991.99V21.64H2001.49V23.416H1997.77V33H1995.72ZM2003.11 33V21.64H2005.17V28.2L2005.06 29.96H2005.09C2005.46 29.224 2005.78 28.632 2006.05 28.184L2010.34 21.64H2012.39V33H2010.34V26.456L2010.45 24.696H2010.42C2010.07 25.4213 2009.76 26.008 2009.48 26.456L2005.16 33H2003.11ZM2015.16 33V21.64H2017.22V26.264H2018.69L2021.37 21.64H2023.61L2020.39 27.048V27.08L2023.8 33H2021.46L2018.69 28.04H2017.22V33H2015.16ZM2024.11 33L2028.1 21.64H2030.27L2034.26 33H2032.14L2031.17 30.088H2027.18L2026.22 33H2024.11ZM2027.7 28.408H2030.66L2029.65 25.368L2029.2 23.608H2029.17C2029 24.3547 2028.85 24.9413 2028.72 25.368L2027.7 28.408ZM2038.74 31.576L2039.86 30.2C2040.17 30.5307 2040.56 30.808 2041.01 31.032C2041.47 31.256 2041.94 31.368 2042.42 31.368C2043.04 31.368 2043.53 31.2133 2043.89 30.904C2044.26 30.5947 2044.44 30.168 2044.44 29.624C2044.44 29.1333 2044.27 28.7493 2043.94 28.472C2043.62 28.184 2043.19 28.04 2042.63 28.04H2041.24V26.376H2042.36C2042.87 26.376 2043.29 26.2267 2043.62 25.928C2043.95 25.6293 2044.12 25.256 2044.12 24.808C2044.12 24.3493 2043.97 23.976 2043.67 23.688C2043.37 23.3893 2042.94 23.24 2042.37 23.24C2041.51 23.24 2040.69 23.56 2039.91 24.2L2039.08 22.696C2040.08 21.864 2041.3 21.448 2042.73 21.448C2043.7 21.448 2044.52 21.7253 2045.19 22.28C2045.87 22.8347 2046.21 23.592 2046.21 24.552C2046.21 25.672 2045.69 26.5147 2044.65 27.08V27.112C2045.23 27.2933 2045.7 27.6133 2046.04 28.072C2046.38 28.5307 2046.55 29.0907 2046.55 29.752C2046.55 30.7973 2046.17 31.6347 2045.41 32.264C2044.67 32.8827 2043.73 33.192 2042.61 33.192C2041.89 33.192 2041.18 33.0533 2040.49 32.776C2039.8 32.488 2039.22 32.088 2038.74 31.576ZM2047.28 33L2051.27 21.64H2053.44L2057.43 33H2055.32L2054.34 30.088H2050.36L2049.4 33H2047.28ZM2050.87 28.408H2053.83L2052.82 25.368L2052.37 23.608H2052.34C2052.17 24.3547 2052.02 24.9413 2051.89 25.368L2050.87 28.408ZM2058.94 33V21.64H2065.91V23.416H2061V26.04H2063.27C2064.33 26.04 2065.18 26.36 2065.83 27C2066.5 27.6293 2066.83 28.4773 2066.83 29.544C2066.83 30.568 2066.5 31.4 2065.85 32.04C2065.2 32.68 2064.36 33 2063.32 33H2058.94ZM2061 31.224H2062.95C2063.52 31.224 2063.96 31.0747 2064.27 30.776C2064.58 30.4773 2064.73 30.0667 2064.73 29.544C2064.73 29.0213 2064.57 28.6053 2064.25 28.296C2063.93 27.976 2063.49 27.816 2062.92 27.816H2061V31.224ZM2068.13 27.24C2068.13 25.608 2068.69 24.2373 2069.81 23.128C2070.94 22.008 2072.33 21.448 2074 21.448C2075.66 21.448 2077.05 22.008 2078.17 23.128C2079.3 24.2373 2079.87 25.608 2079.87 27.24C2079.87 28.9147 2079.3 30.328 2078.17 31.48C2077.05 32.6213 2075.66 33.192 2074 33.192C2072.33 33.192 2070.94 32.6213 2069.81 31.48C2068.69 30.328 2068.13 28.9147 2068.13 27.24ZM2070.25 27.24C2070.25 28.392 2070.62 29.3573 2071.34 30.136C2072.07 30.9147 2072.95 31.304 2074 31.304C2075.04 31.304 2075.93 30.9147 2076.65 30.136C2077.38 29.3573 2077.74 28.392 2077.74 27.24C2077.74 26.1413 2077.38 25.2187 2076.65 24.472C2075.93 23.7147 2075.04 23.336 2074 23.336C2072.95 23.336 2072.07 23.7147 2071.34 24.472C2070.62 25.2187 2070.25 26.1413 2070.25 27.24ZM2080.49 31.24C2081.34 31.1227 2081.96 30.5573 2082.35 29.544C2082.74 28.52 2082.94 26.92 2082.94 24.744V21.64H2089.96V33H2087.9V23.416H2084.91V24.776C2084.91 27.5707 2084.56 29.6507 2083.87 31.016C2083.17 32.3707 2082.05 33.0747 2080.49 33.128V31.24ZM2092.72 33V21.64H2099.52V23.416H2094.78V26.392H2098.61V28.168H2094.78V31.224H2099.78V33H2092.72ZM2101.83 33V21.64H2105.88C2106.93 21.64 2107.78 21.9013 2108.42 22.424C2109.07 22.936 2109.4 23.6507 2109.4 24.568C2109.4 25.1013 2109.27 25.5813 2109.03 26.008C2108.78 26.4347 2108.45 26.7653 2108.02 27V27.032C2108.62 27.2027 2109.07 27.5387 2109.38 28.04C2109.7 28.5413 2109.86 29.096 2109.86 29.704C2109.86 30.7813 2109.49 31.6027 2108.74 32.168C2107.99 32.7227 2107.06 33 2105.94 33H2101.83ZM2103.89 26.28H2105.89C2106.33 26.28 2106.67 26.1467 2106.92 25.88C2107.17 25.6027 2107.3 25.2507 2107.3 24.824C2107.3 24.408 2107.17 24.072 2106.92 23.816C2106.67 23.5493 2106.32 23.416 2105.86 23.416H2103.89V26.28ZM2103.89 31.224H2106.1C2106.61 31.224 2107.01 31.0747 2107.3 30.776C2107.6 30.4667 2107.75 30.0667 2107.75 29.576C2107.75 29.096 2107.6 28.7067 2107.3 28.408C2107.01 28.0987 2106.61 27.944 2106.1 27.944H2103.89V31.224ZM2110.58 33L2114.57 21.64H2116.74L2120.73 33H2118.61L2117.64 30.088H2113.65L2112.69 33H2110.58ZM2114.17 28.408H2117.13L2116.12 25.368L2115.67 23.608H2115.64C2115.47 24.3547 2115.32 24.9413 2115.19 25.368L2114.17 28.408ZM2122.24 33V21.64H2124.3V26.456H2129.5V21.64H2131.55V33H2129.5V28.232H2124.3V33H2122.24ZM2134.3 33V21.64H2136.36V28.2L2136.25 29.96H2136.28C2136.64 29.224 2136.96 28.632 2137.24 28.184L2141.53 21.64H2143.58V33H2141.53V26.456L2141.64 24.696H2141.61C2141.26 25.4213 2140.94 26.008 2140.67 26.456L2136.35 33H2134.3ZM2152.94 20.536C2152.42 20.9307 2151.81 21.128 2151.08 21.128C2150.36 21.128 2149.74 20.9307 2149.22 20.536C2148.71 20.1307 2148.46 19.592 2148.46 18.92V18.712H2150.01V18.92C2150.01 19.24 2150.12 19.4907 2150.33 19.672C2150.54 19.8427 2150.79 19.928 2151.08 19.928C2151.37 19.928 2151.62 19.8427 2151.83 19.672C2152.06 19.4907 2152.17 19.2347 2152.17 18.904V18.712H2153.7V18.92C2153.7 19.592 2153.45 20.1307 2152.94 20.536ZM2146.34 33V21.64H2148.41V28.2L2148.3 29.96H2148.33C2148.69 29.224 2149.01 28.632 2149.29 28.184L2153.58 21.64H2155.62V33H2153.58V26.456L2153.69 24.696H2153.66C2153.3 25.4213 2152.99 26.008 2152.71 26.456L2148.39 33H2146.34ZM2161.72 27.24C2161.72 25.608 2162.28 24.2373 2163.4 23.128C2164.53 22.008 2165.93 21.448 2167.59 21.448C2169.26 21.448 2170.65 22.008 2171.77 23.128C2172.9 24.2373 2173.46 25.608 2173.46 27.24C2173.46 28.9147 2172.9 30.328 2171.77 31.48C2170.65 32.6213 2169.26 33.192 2167.59 33.192C2165.93 33.192 2164.53 32.6213 2163.4 31.48C2162.28 30.328 2161.72 28.9147 2161.72 27.24ZM2163.85 27.24C2163.85 28.392 2164.21 29.3573 2164.94 30.136C2165.66 30.9147 2166.55 31.304 2167.59 31.304C2168.64 31.304 2169.52 30.9147 2170.25 30.136C2170.97 29.3573 2171.34 28.392 2171.34 27.24C2171.34 26.1413 2170.97 25.2187 2170.25 24.472C2169.52 23.7147 2168.64 23.336 2167.59 23.336C2166.55 23.336 2165.66 23.7147 2164.94 24.472C2164.21 25.2187 2163.85 26.1413 2163.85 27.24ZM2175.55 33V21.64H2179.93C2181 21.64 2181.87 21.9813 2182.54 22.664C2183.21 23.3467 2183.55 24.2373 2183.55 25.336C2183.55 26.4347 2183.21 27.336 2182.54 28.04C2181.87 28.7333 2181 29.08 2179.93 29.08H2177.61V33H2175.55ZM2177.61 27.288H2179.55C2180.15 27.288 2180.61 27.112 2180.94 26.76C2181.28 26.408 2181.45 25.9333 2181.45 25.336C2181.45 24.7493 2181.28 24.2853 2180.94 23.944C2180.61 23.592 2180.16 23.416 2179.58 23.416H2177.61V27.288ZM2185.34 33V21.64H2191.87V23.416H2187.41V33H2185.34ZM2191.22 33L2195.21 21.64H2197.38L2201.37 33H2199.25L2198.28 30.088H2194.29L2193.33 33H2191.22ZM2194.81 28.408H2197.77L2196.76 25.368L2196.31 23.608H2196.28C2196.11 24.3547 2195.96 24.9413 2195.83 25.368L2194.81 28.408ZM2202.88 33V21.64H2204.94V26.456H2210.14V21.64H2212.19V33H2210.14V28.232H2204.94V33H2202.88ZM2214.27 27.24C2214.27 25.608 2214.83 24.2373 2215.95 23.128C2217.08 22.008 2218.47 21.448 2220.14 21.448C2221.8 21.448 2223.19 22.008 2224.31 23.128C2225.45 24.2373 2226.01 25.608 2226.01 27.24C2226.01 28.9147 2225.45 30.328 2224.31 31.48C2223.19 32.6213 2221.8 33.192 2220.14 33.192C2218.47 33.192 2217.08 32.6213 2215.95 31.48C2214.83 30.328 2214.27 28.9147 2214.27 27.24ZM2216.39 27.24C2216.39 28.392 2216.76 29.3573 2217.48 30.136C2218.21 30.9147 2219.09 31.304 2220.14 31.304C2221.18 31.304 2222.07 30.9147 2222.79 30.136C2223.52 29.3573 2223.88 28.392 2223.88 27.24C2223.88 26.1413 2223.52 25.2187 2222.79 24.472C2222.07 23.7147 2221.18 23.336 2220.14 23.336C2219.09 23.336 2218.21 23.7147 2217.48 24.472C2216.76 25.2187 2216.39 26.1413 2216.39 27.24ZM2228.09 33V21.64H2232.14C2233.2 21.64 2234.05 21.9013 2234.69 22.424C2235.34 22.936 2235.66 23.6507 2235.66 24.568C2235.66 25.1013 2235.54 25.5813 2235.29 26.008C2235.05 26.4347 2234.71 26.7653 2234.29 27V27.032C2234.88 27.2027 2235.34 27.5387 2235.65 28.04C2235.97 28.5413 2236.13 29.096 2236.13 29.704C2236.13 30.7813 2235.75 31.6027 2235.01 32.168C2234.26 32.7227 2233.33 33 2232.21 33H2228.09ZM2230.16 26.28H2232.16C2232.6 26.28 2232.94 26.1467 2233.18 25.88C2233.44 25.6027 2233.57 25.2507 2233.57 24.824C2233.57 24.408 2233.44 24.072 2233.18 23.816C2232.94 23.5493 2232.59 23.416 2232.13 23.416H2230.16V26.28ZM2230.16 31.224H2232.37C2232.88 31.224 2233.28 31.0747 2233.57 30.776C2233.87 30.4667 2234.01 30.0667 2234.01 29.576C2234.01 29.096 2233.87 28.7067 2233.57 28.408C2233.28 28.0987 2232.88 27.944 2232.37 27.944H2230.16V31.224ZM2242.22 33V21.64H2251.42V33H2249.36V23.416H2244.28V33H2242.22ZM2254.17 33V21.64H2256.24V28.2L2256.12 29.96H2256.16C2256.52 29.224 2256.84 28.632 2257.12 28.184L2261.4 21.64H2263.45V33H2261.4V26.456L2261.52 24.696H2261.48C2261.13 25.4213 2260.82 26.008 2260.54 26.456L2256.22 33H2254.17ZM2266.22 33V21.64H2268.28V31.224H2271.95V21.64H2274.01V31.224H2277.68V21.64H2279.72V31.224H2281.13V35.24H2279.28V33H2266.22ZM2283.06 33V21.64H2289.86V23.416H2285.13V26.392H2288.95V28.168H2285.13V31.224H2290.12V33H2283.06ZM2292.17 33V21.64H2296.22C2297.28 21.64 2298.12 21.9013 2298.76 22.424C2299.42 22.936 2299.74 23.6507 2299.74 24.568C2299.74 25.1013 2299.62 25.5813 2299.37 26.008C2299.13 26.4347 2298.79 26.7653 2298.36 27V27.032C2298.96 27.2027 2299.42 27.5387 2299.72 28.04C2300.04 28.5413 2300.2 29.096 2300.2 29.704C2300.2 30.7813 2299.83 31.6027 2299.08 32.168C2298.34 32.7227 2297.4 33 2296.28 33H2292.17ZM2294.24 26.28H2296.24C2296.67 26.28 2297.02 26.1467 2297.26 25.88C2297.52 25.6027 2297.64 25.2507 2297.64 24.824C2297.64 24.408 2297.52 24.072 2297.26 23.816C2297.02 23.5493 2296.66 23.416 2296.2 23.416H2294.24V26.28ZM2294.24 31.224H2296.44C2296.96 31.224 2297.36 31.0747 2297.64 30.776C2297.94 30.4667 2298.09 30.0667 2298.09 29.576C2298.09 29.096 2297.94 28.7067 2297.64 28.408C2297.36 28.0987 2296.96 27.944 2296.44 27.944H2294.24V31.224ZM2300.92 33L2304.91 21.64H2307.08L2311.07 33H2308.96L2307.98 30.088H2304L2303.04 33H2300.92ZM2304.51 28.408H2307.47L2306.46 25.368L2306.01 23.608H2305.98C2305.81 24.3547 2305.66 24.9413 2305.53 25.368L2304.51 28.408ZM2312.58 33V21.64H2316.96C2318.03 21.64 2318.9 21.9813 2319.57 22.664C2320.24 23.3467 2320.58 24.2373 2320.58 25.336C2320.58 26.4347 2320.24 27.336 2319.57 28.04C2318.9 28.7333 2318.03 29.08 2316.96 29.08H2314.64V33H2312.58ZM2314.64 27.288H2316.58C2317.18 27.288 2317.64 27.112 2317.97 26.76C2318.31 26.408 2318.48 25.9333 2318.48 25.336C2318.48 24.7493 2318.31 24.2853 2317.97 23.944C2317.64 23.592 2317.19 23.416 2316.61 23.416H2314.64V27.288ZM2322.38 33V21.64H2324.44V28.2L2324.33 29.96H2324.36C2324.72 29.224 2325.04 28.632 2325.32 28.184L2329.61 21.64H2331.66V33H2329.61V26.456L2329.72 24.696H2329.69C2329.34 25.4213 2329.02 26.008 2328.74 26.456L2324.42 33H2322.38ZM2337 33V23.416H2333.27V21.64H2342.77V23.416H2339.05V33H2337ZM2344.39 33V21.64H2351.19V23.416H2346.46V26.392H2350.28V28.168H2346.46V31.224H2351.45V33H2344.39ZM2352.35 31.24C2353.2 31.1227 2353.82 30.5573 2354.21 29.544C2354.6 28.52 2354.8 26.92 2354.8 24.744V21.64H2361.82V33H2359.76V23.416H2356.77V24.776C2356.77 27.5707 2356.42 29.6507 2355.73 31.016C2355.03 32.3707 2353.91 33.0747 2352.35 33.128V31.24ZM2364.58 33V21.64H2366.64V25.624H2368.87C2369.91 25.624 2370.77 25.9653 2371.43 26.648C2372.09 27.32 2372.42 28.216 2372.42 29.336C2372.42 30.424 2372.09 31.3093 2371.44 31.992C2370.79 32.664 2369.94 33 2368.9 33H2364.58ZM2366.64 31.224H2368.53C2369.1 31.224 2369.53 31.0587 2369.84 30.728C2370.16 30.3867 2370.32 29.9227 2370.32 29.336C2370.32 28.7493 2370.16 28.28 2369.83 27.928C2369.51 27.576 2369.06 27.4 2368.5 27.4H2366.64V31.224ZM2374.22 33V21.64H2376.28V26.456H2381.48V21.64H2383.53V33H2381.48V28.232H2376.28V33H2374.22ZM2385.61 27.24C2385.61 25.608 2386.17 24.2373 2387.29 23.128C2388.42 22.008 2389.82 21.448 2391.48 21.448C2393.15 21.448 2394.54 22.008 2395.66 23.128C2396.79 24.2373 2397.35 25.608 2397.35 27.24C2397.35 28.9147 2396.79 30.328 2395.66 31.48C2394.54 32.6213 2393.15 33.192 2391.48 33.192C2389.82 33.192 2388.42 32.6213 2387.29 31.48C2386.17 30.328 2385.61 28.9147 2385.61 27.24ZM2387.74 27.24C2387.74 28.392 2388.1 29.3573 2388.83 30.136C2389.55 30.9147 2390.44 31.304 2391.48 31.304C2392.53 31.304 2393.41 30.9147 2394.14 30.136C2394.86 29.3573 2395.23 28.392 2395.23 27.24C2395.23 26.1413 2394.86 25.2187 2394.14 24.472C2393.41 23.7147 2392.53 23.336 2391.48 23.336C2390.44 23.336 2389.55 23.7147 2388.83 24.472C2388.1 25.2187 2387.74 26.1413 2387.74 27.24ZM2406.03 20.536C2405.52 20.9307 2404.9 21.128 2404.17 21.128C2403.45 21.128 2402.83 20.9307 2402.32 20.536C2401.81 20.1307 2401.55 19.592 2401.55 18.92V18.712H2403.1V18.92C2403.1 19.24 2403.21 19.4907 2403.42 19.672C2403.64 19.8427 2403.89 19.928 2404.17 19.928C2404.46 19.928 2404.71 19.8427 2404.93 19.672C2405.15 19.4907 2405.26 19.2347 2405.26 18.904V18.712H2406.8V18.92C2406.8 19.592 2406.54 20.1307 2406.03 20.536ZM2399.44 33V21.64H2401.5V28.2L2401.39 29.96H2401.42C2401.79 29.224 2402.11 28.632 2402.38 28.184L2406.67 21.64H2408.72V33H2406.67V26.456L2406.78 24.696H2406.75C2406.4 25.4213 2406.08 26.008 2405.81 26.456L2401.49 33H2399.44ZM2414.83 27.272C2414.83 25.608 2415.38 24.2213 2416.48 23.112C2417.58 22.0027 2418.97 21.448 2420.67 21.448C2422.4 21.448 2423.79 21.9653 2424.86 23L2423.87 24.536C2423.45 24.184 2422.96 23.896 2422.4 23.672C2421.84 23.448 2421.3 23.336 2420.77 23.336C2419.57 23.336 2418.64 23.7093 2417.97 24.456C2417.29 25.2027 2416.96 26.1307 2416.96 27.24C2416.96 28.36 2417.3 29.32 2417.98 30.12C2418.66 30.9093 2419.6 31.304 2420.78 31.304C2422 31.304 2423.1 30.824 2424.08 29.864L2425.17 31.352C2423.96 32.5787 2422.47 33.192 2420.7 33.192C2418.94 33.192 2417.52 32.632 2416.45 31.512C2415.37 30.392 2414.83 28.9787 2414.83 27.272ZM2426.94 33V21.64H2429V28.2L2428.89 29.96H2428.92C2429.29 29.224 2429.61 28.632 2429.88 28.184L2434.17 21.64H2436.22V33H2434.17V26.456L2434.28 24.696H2434.25C2433.9 25.4213 2433.58 26.008 2433.31 26.456L2428.99 33H2426.94ZM2438.33 27.272C2438.33 25.608 2438.88 24.2213 2439.98 23.112C2441.08 22.0027 2442.47 21.448 2444.17 21.448C2445.9 21.448 2447.29 21.9653 2448.36 23L2447.37 24.536C2446.95 24.184 2446.46 23.896 2445.9 23.672C2445.34 23.448 2444.8 23.336 2444.27 23.336C2443.07 23.336 2442.14 23.7093 2441.47 24.456C2440.79 25.2027 2440.46 26.1307 2440.46 27.24C2440.46 28.36 2440.8 29.32 2441.48 30.12C2442.16 30.9093 2443.1 31.304 2444.28 31.304C2445.5 31.304 2446.6 30.824 2447.58 29.864L2448.67 31.352C2447.46 32.5787 2445.97 33.192 2444.2 33.192C2442.44 33.192 2441.02 32.632 2439.95 31.512C2438.87 30.392 2438.33 28.9787 2438.33 27.272ZM2453.01 33V23.416H2449.29V21.64H2458.79V23.416H2455.06V33H2453.01ZM2460.41 33V21.64H2467.21V23.416H2462.47V26.392H2466.3V28.168H2462.47V31.224H2467.46V33H2460.41ZM2469.08 33L2470.01 21.64H2472.2L2474.44 27.256L2475 28.92H2475.04C2475.24 28.2587 2475.43 27.704 2475.6 27.256L2477.84 21.64H2480.03L2480.96 33H2478.89L2478.43 26.648C2478.41 26.424 2478.4 26.168 2478.4 25.88C2478.4 25.5813 2478.4 25.3413 2478.41 25.16V24.888H2478.38C2478.14 25.624 2477.93 26.2107 2477.76 26.648L2475.92 31.048H2474.12L2472.28 26.648L2471.66 24.872H2471.63C2471.66 25.5547 2471.66 26.1467 2471.61 26.648L2471.15 33H2469.08ZM2492.48 33V21.64H2494.53V33H2492.48ZM2483.28 33V21.64H2485.35V25.624H2487.46C2488.51 25.624 2489.37 25.9653 2490.02 26.648C2490.68 27.32 2491.01 28.216 2491.01 29.336C2491.01 30.424 2490.68 31.3093 2490.03 31.992C2489.38 32.664 2488.54 33 2487.51 33H2483.28ZM2485.35 31.224H2487.14C2487.7 31.224 2488.14 31.0587 2488.45 30.728C2488.76 30.3867 2488.91 29.9227 2488.91 29.336C2488.91 28.7493 2488.75 28.28 2488.43 27.928C2488.11 27.576 2487.67 27.4 2487.11 27.4H2485.35V31.224Z" fill="#005DFF"/>
</svg>
